<?xml version="1.0" encoding="UTF-8" standalone="no"?>
<!-- Created with Inkscape (http://www.inkscape.org/) -->

<svg
   xmlns:dc="http://purl.org/dc/elements/1.1/"
   xmlns:cc="http://creativecommons.org/ns#"
   xmlns:rdf="http://www.w3.org/1999/02/22-rdf-syntax-ns#"
   xmlns:svg="http://www.w3.org/2000/svg"
   xmlns="http://www.w3.org/2000/svg"
   xmlns:sodipodi="http://sodipodi.sourceforge.net/DTD/sodipodi-0.dtd"
   xmlns:inkscape="http://www.inkscape.org/namespaces/inkscape"
   width="52.916706mm"
   height="68.812752mm"
   viewBox="0 0 52.916706 68.812752"
   version="1.1"
   id="svg964"
   inkscape:version="0.92.5 (2060ec1f9f, 2020-04-08)"
   sodipodi:docname="descarga-Conozca-1.a-infografia.svg">
  <defs
     id="defs958">
    <clipPath
       clipPathUnits="userSpaceOnUse"
       id="clipPath979">
      <circle
         style="fill:#bb5996;fill-opacity:0.63285056;stroke:none;stroke-width:1.05982673;stroke-miterlimit:4;stroke-dasharray:none;stroke-opacity:1"
         id="circle981"
         cx="-68.748375"
         cy="-27.563417"
         r="61.70319"
         transform="scale(1,-1)" />
    </clipPath>
    <clipPath
       clipPathUnits="userSpaceOnUse"
       id="clipPath975">
      <circle
         style="fill:#bb5996;fill-opacity:0.63285056;stroke:none;stroke-width:1.05982673;stroke-miterlimit:4;stroke-dasharray:none;stroke-opacity:1"
         id="circle977"
         cx="-38.06678"
         cy="65.759857"
         r="61.70319"
         transform="scale(1,-1)" />
    </clipPath>
    <clipPath
       clipPathUnits="userSpaceOnUse"
       id="clipPath971">
      <circle
         style="fill:#bb5996;fill-opacity:0.63285056;stroke:none;stroke-width:1.05982673;stroke-miterlimit:4;stroke-dasharray:none;stroke-opacity:1"
         id="circle973"
         cx="-68.748375"
         cy="-27.563417"
         r="61.70319"
         transform="scale(1,-1)" />
    </clipPath>
    <clipPath
       clipPathUnits="userSpaceOnUse"
       id="clipPath967">
      <circle
         style="fill:#bb5996;fill-opacity:0.63285056;stroke:none;stroke-width:1.05982673;stroke-miterlimit:4;stroke-dasharray:none;stroke-opacity:1"
         id="circle969"
         cx="63.325844"
         cy="-18.697063"
         r="61.70319"
         transform="scale(1,-1)" />
    </clipPath>
    <clipPath
       clipPathUnits="userSpaceOnUse"
       id="clipPath963">
      <circle
         style="fill:#bb5996;fill-opacity:0.63285056;stroke:none;stroke-width:1.05982673;stroke-miterlimit:4;stroke-dasharray:none;stroke-opacity:1"
         id="circle965"
         cx="-20.428076"
         cy="22.976685"
         r="61.70319"
         transform="scale(1,-1)" />
    </clipPath>
    <clipPath
       clipPathUnits="userSpaceOnUse"
       id="clipPath959">
      <circle
         style="fill:#bb5996;fill-opacity:0.63285056;stroke:none;stroke-width:1.05982673;stroke-miterlimit:4;stroke-dasharray:none;stroke-opacity:1"
         id="circle961"
         cx="-6.0960555"
         cy="0.00013102729"
         r="61.70319"
         transform="scale(1,-1)" />
    </clipPath>
    <clipPath
       clipPathUnits="userSpaceOnUse"
       id="clipPath955">
      <circle
         style="fill:#bb5996;fill-opacity:0.63285056;stroke:none;stroke-width:1.05982673;stroke-miterlimit:4;stroke-dasharray:none;stroke-opacity:1"
         id="circle957"
         cx="-2.4280336"
         cy="0.00013102729"
         r="61.70319"
         transform="scale(1,-1)" />
    </clipPath>
    <clipPath
       clipPathUnits="userSpaceOnUse"
       id="clipPath951">
      <circle
         style="fill:#bb5996;fill-opacity:0.63285056;stroke:none;stroke-width:1.05982673;stroke-miterlimit:4;stroke-dasharray:none;stroke-opacity:1"
         id="circle953"
         cx="41.796551"
         cy="-15.731297"
         r="61.70319"
         transform="scale(1,-1)" />
    </clipPath>
  </defs>
  <sodipodi:namedview
     id="base"
     pagecolor="#ffffff"
     bordercolor="#666666"
     borderopacity="1.0"
     inkscape:pageopacity="0.0"
     inkscape:pageshadow="2"
     inkscape:zoom="0.88730469"
     inkscape:cx="16.276388"
     inkscape:cy="19.755922"
     inkscape:document-units="mm"
     inkscape:current-layer="layer1"
     showgrid="false"
     fit-margin-top="0"
     fit-margin-left="0"
     fit-margin-right="0"
     fit-margin-bottom="0"
     inkscape:window-width="1440"
     inkscape:window-height="825"
     inkscape:window-x="0"
     inkscape:window-y="0"
     inkscape:window-maximized="1" />
  <metadata
     id="metadata961">
    <rdf:RDF>
      <cc:Work
         rdf:about="">
        <dc:format>image/svg+xml</dc:format>
        <dc:type
           rdf:resource="http://purl.org/dc/dcmitype/StillImage" />
        <dc:title></dc:title>
      </cc:Work>
    </rdf:RDF>
  </metadata>
  <g
     inkscape:label="Capa 1"
     inkscape:groupmode="layer"
     id="layer1"
     transform="translate(-47.703995,-85.247668)">
    <g
       transform="matrix(2.7804055,0,0,2.778243,-293.18334,-181.1526)"
       id="g913"
       style="stroke-width:0.35979971">
      <path
         inkscape:connector-curvature="0"
         id="path1166"
         style="fill:#ffffff;fill-opacity:1;fill-rule:nonzero;stroke:#d0d0d0;stroke-width:0.03597997;stroke-miterlimit:4;stroke-dasharray:none;stroke-opacity:1"
         d="M 141.61748,120.63849 H 122.62145 V 95.906027 h 18.99603 z" />
      <g
         id="g999"
         style="stroke-width:0.35979971">
        <g
           id="g1202"
           transform="matrix(0.09403978,0,0,-0.09403978,138.61326,110.01999)"
           clip-path="url(#clipPath979)"
           style="stroke-width:0.35979971">
          <path
             d="m 0,0 c 2.684,4.003 5.006,8.167 7,12.461 v 7.819 l -31.864,73.043 h -37.695 c -0.343,-1.117 -0.671,-2.288 -0.964,-3.564 L -9.589,-11.962 C -6.095,-8.242 -2.867,-4.271 0,0"
             style="fill:#f7c4a8;fill-opacity:1;fill-rule:nonzero;stroke:none;stroke-width:0.35979971"
             id="path1204"
             inkscape:connector-curvature="0" />
        </g>
        <g
           id="g1206"
           transform="matrix(0.09403978,0,0,-0.09403978,135.72797,101.24389)"
           clip-path="url(#clipPath975)"
           style="stroke-width:0.35979971">
          <path
             d="m 0,0 h -104.475 v -104.913 c 6.932,-9.964 18.614,-16.711 29.188,-22.11 2.412,-1.233 4.87,-2.414 7.349,-3.577 h 36.494 c 0.12,1.973 0.337,3.151 0.337,3.151 l 9.144,45.84 c 16.445,16.089 3.943,40.8 3.943,40.8 -3.589,12.485 11.831,11.217 11.831,11.217 5.712,4.865 2.575,11.208 2.575,11.208 0,0 3.526,9.239 3.614,18.384"
             style="fill:#f7c4a8;fill-opacity:1;fill-rule:nonzero;stroke:none;stroke-width:0.35979971"
             id="path1208"
             inkscape:connector-curvature="0" />
        </g>
        <g
           id="g1210"
           transform="matrix(0.09403978,0,0,-0.09403978,138.61326,110.01999)"
           clip-path="url(#clipPath971)"
           style="stroke-width:0.35979971">
          <path
             d="M 0,0 C 1.779,2.653 3.386,5.386 4.857,8.173 -4.876,9.821 -12.156,1.702 -12.156,1.702 l -15.05,-29.006 C -16.729,-19.716 -7.237,-10.787 0,0"
             style="fill:#f7c4a8;fill-opacity:1;fill-rule:nonzero;stroke:none;stroke-width:0.35979971"
             id="path1212"
             inkscape:connector-curvature="0" />
        </g>
        <g
           id="g1214"
           transform="matrix(0.09403978,0,0,-0.09403978,126.19303,109.1862)"
           clip-path="url(#clipPath967)"
           style="stroke-width:0.35979971">
          <path
             d="m 0,0 c 0,0 0.238,0.27 0.677,0.709 0.421,0.451 1.114,1.021 1.837,1.756 0.368,0.363 0.763,0.754 1.198,1.137 0.436,0.378 0.849,0.861 1.323,1.28 0.942,0.859 1.873,1.856 2.876,2.773 0.946,0.979 1.957,1.894 2.862,2.805 0.447,0.462 0.928,0.862 1.346,1.282 0.418,0.419 0.835,0.798 1.221,1.147 0.776,0.697 1.42,1.293 1.902,1.681 0.479,0.396 0.773,0.609 0.773,0.609 0,0 -0.138,-0.331 -0.41,-0.89 -0.281,-0.553 -0.663,-1.361 -1.241,-2.244 -0.557,-0.9 -1.243,-1.928 -2.081,-2.951 C 11.863,8.586 11.461,8.027 10.975,7.531 10.506,7.016 10.015,6.511 9.525,6.002 9.001,5.524 8.48,5.045 7.953,4.59 7.443,4.115 6.867,3.729 6.34,3.326 5.805,2.929 5.295,2.552 4.76,2.238 4.236,1.912 3.726,1.629 3.256,1.373 2.336,0.832 1.498,0.567 0.925,0.326 0.342,0.106 0,0 0,0"
             style="fill:#eeb193;fill-opacity:1;fill-rule:nonzero;stroke:none;stroke-width:0.35979971"
             id="path1216"
             inkscape:connector-curvature="0" />
        </g>
        <g
           id="g1218"
           transform="matrix(0.09403978,0,0,-0.09403978,134.06923,105.26721)"
           clip-path="url(#clipPath963)"
           style="stroke-width:0.35979971">
          <path
             d="m 0,0 c 0,0 0.986,-1.25 2.262,-3.729 1.28,-2.467 2.867,-6.189 3.713,-11.015 0.433,-2.41 0.562,-5.098 0.366,-7.954 -0.196,-2.859 -0.964,-5.859 -2.19,-8.785 -1.21,-2.951 -3.157,-5.669 -5.396,-8.1 -2.278,-2.556 -5.161,-4.433 -8.184,-5.913 -3.046,-1.455 -6.354,-2.464 -9.702,-2.703 -3.338,-0.306 -6.654,0.103 -9.674,0.943 -3.021,0.885 -5.736,2.201 -8.138,3.656 -1.168,0.778 -2.312,1.524 -3.318,2.362 -0.51,0.409 -1.025,0.795 -1.502,1.204 -0.466,0.42 -0.925,0.831 -1.372,1.234 -1.779,1.624 -3.25,3.261 -4.496,4.739 -0.643,0.723 -1.209,1.43 -1.695,2.112 -0.5,0.666 -0.96,1.281 -1.373,1.834 -0.794,1.131 -1.364,2.056 -1.777,2.668 -0.397,0.621 -0.609,0.952 -0.609,0.952 0,0 1.099,-1.121 3.022,-3.081 1.005,-0.932 2.15,-2.13 3.589,-3.358 1.392,-1.277 3.052,-2.609 4.897,-3.972 1.823,-1.399 3.957,-2.66 6.227,-3.877 2.298,-1.161 4.823,-2.141 7.496,-2.703 2.663,-0.596 5.484,-0.816 8.279,-0.422 2.79,0.377 5.577,1.174 8.151,2.482 1.289,0.643 2.529,1.394 3.689,2.237 0.582,0.416 1.137,0.861 1.676,1.302 0.262,0.222 0.532,0.46 0.729,0.653 l 0.775,0.795 c 1.995,2.039 3.596,4.348 4.796,6.76 1.21,2.414 1.948,4.957 2.392,7.441 0.449,2.49 0.486,4.923 0.437,7.183 -0.08,2.263 -0.39,4.34 -0.695,6.189 C 2.043,-7.023 1.648,-5.423 1.301,-4.105 0.573,-1.479 0,0 0,0"
             style="fill:#eb7576;fill-opacity:1;fill-rule:nonzero;stroke:none;stroke-width:0.35979971"
             id="path1220"
             inkscape:connector-curvature="0" />
        </g>
        <g
           id="g1222"
           transform="matrix(0.09403978,0,0,-0.09403978,132.72145,107.42792)"
           clip-path="url(#clipPath959)"
           style="stroke-width:0.35979971">
          <path
             d="m 0,0 c 0,-3.446 -2.679,-6.24 -5.986,-6.24 -3.304,0 -5.987,2.794 -5.987,6.24 0,3.447 2.683,6.244 5.987,6.244 C -2.679,6.244 0,3.447 0,0"
             style="fill:#eeb193;fill-opacity:1;fill-rule:nonzero;stroke:none;stroke-width:0.35979971"
             id="path1224"
             inkscape:connector-curvature="0" />
        </g>
        <g
           id="g1226"
           transform="matrix(0.09403978,0,0,-0.09403978,132.37651,107.42792)"
           clip-path="url(#clipPath955)"
           style="stroke-width:0.35979971">
          <path
             d="m 0,0 c 0,-1.278 -1.037,-2.318 -2.318,-2.318 -1.28,0 -2.318,1.04 -2.318,2.318 0,1.28 1.038,2.318 2.318,2.318 C -1.037,2.318 0,1.28 0,0"
             style="fill:#e3a98d;fill-opacity:1;fill-rule:nonzero;stroke:none;stroke-width:0.35979971"
             id="path1228"
             inkscape:connector-curvature="0" />
        </g>
        <g
           id="g1230"
           transform="matrix(0.09403978,0,0,-0.09403978,128.21764,108.9073)"
           clip-path="url(#clipPath951)"
           style="stroke-width:0.35979971">
          <path
             d="m 0,0 c 0.014,-13.474 0.378,-26.94 0.568,-40.411 0.022,-1.49 2.333,-1.491 2.312,0 C 2.689,-26.94 2.325,-13.474 2.311,0 2.311,1.491 -0.001,1.491 0,0"
             style="fill:#eeb193;fill-opacity:1;fill-rule:nonzero;stroke:none;stroke-width:0.35979971"
             id="path1232"
             inkscape:connector-curvature="0" />
        </g>
      </g>
    </g>
  </g>
</svg>
