<?xml version="1.0" encoding="UTF-8" standalone="no"?>
<!-- Created with Inkscape (http://www.inkscape.org/) -->

<svg
   xmlns:dc="http://purl.org/dc/elements/1.1/"
   xmlns:cc="http://creativecommons.org/ns#"
   xmlns:rdf="http://www.w3.org/1999/02/22-rdf-syntax-ns#"
   xmlns:svg="http://www.w3.org/2000/svg"
   xmlns="http://www.w3.org/2000/svg"
   xmlns:sodipodi="http://sodipodi.sourceforge.net/DTD/sodipodi-0.dtd"
   xmlns:inkscape="http://www.inkscape.org/namespaces/inkscape"
   width="52.916668mm"
   height="68.896469mm"
   viewBox="0 0 52.916668 68.896469"
   version="1.1"
   id="svg1087"
   inkscape:version="0.92.5 (2060ec1f9f, 2020-04-08)"
   sodipodi:docname="descarga-Conozca-3-diario.svg">
  <defs
     id="defs1081">
    <clipPath
       clipPathUnits="userSpaceOnUse"
       id="clipPath1368">
      <path
         d="M 0,5247 H 1400 V 0 H 0 Z"
         id="path1366"
         inkscape:connector-curvature="0" />
    </clipPath>
    <clipPath
       clipPathUnits="userSpaceOnUse"
       id="clipPath1376">
      <path
         d="m 224.647,1123.08 h 59.044 v -59.05 h -59.044 z"
         id="path1374"
         inkscape:connector-curvature="0" />
    </clipPath>
    <clipPath
       clipPathUnits="userSpaceOnUse"
       id="clipPath1392">
      <path
         d="m 241.996,1099.75 h 17.623 v -17.63 h -17.623 z"
         id="path1390"
         inkscape:connector-curvature="0" />
    </clipPath>
    <clipPath
       clipPathUnits="userSpaceOnUse"
       id="clipPath1408">
      <path
         d="m 262.394,1138.54 h 31.487 v -31.49 h -31.487 z"
         id="path1406"
         inkscape:connector-curvature="0" />
    </clipPath>
    <clipPath
       clipPathUnits="userSpaceOnUse"
       id="clipPath1424">
      <path
         d="m 267.504,1123.08 h 59.045 v -59.05 h -59.045 z"
         id="path1422"
         inkscape:connector-curvature="0" />
    </clipPath>
    <clipPath
       clipPathUnits="userSpaceOnUse"
       id="clipPath1440">
      <path
         d="m 284.854,1099.75 h 17.623 v -17.63 h -17.623 z"
         id="path1438-3"
         inkscape:connector-curvature="0" />
    </clipPath>
    <clipPath
       clipPathUnits="userSpaceOnUse"
       id="clipPath1456">
      <path
         d="m 305.252,1138.54 h 31.486 v -31.49 h -31.486 z"
         id="path1454"
         inkscape:connector-curvature="0" />
    </clipPath>
    <clipPath
       clipPathUnits="userSpaceOnUse"
       id="clipPath1472">
      <path
         d="m 306.076,1123.08 h 59.045 v -59.05 h -59.045 z"
         id="path1470"
         inkscape:connector-curvature="0" />
    </clipPath>
    <clipPath
       clipPathUnits="userSpaceOnUse"
       id="clipPath1488">
      <path
         d="m 323.426,1099.75 h 17.623 v -17.63 h -17.623 z"
         id="path1486"
         inkscape:connector-curvature="0" />
    </clipPath>
    <clipPath
       clipPathUnits="userSpaceOnUse"
       id="clipPath1504">
      <path
         d="m 343.822,1138.54 h 31.488 v -31.49 h -31.488 z"
         id="path1502"
         inkscape:connector-curvature="0" />
    </clipPath>
  </defs>
  <sodipodi:namedview
     id="base"
     pagecolor="#ffffff"
     bordercolor="#666666"
     borderopacity="1.0"
     inkscape:pageopacity="0.0"
     inkscape:pageshadow="2"
     inkscape:zoom="0.88730469"
     inkscape:cx="38.710266"
     inkscape:cy="88.868718"
     inkscape:document-units="mm"
     inkscape:current-layer="layer1"
     showgrid="false"
     fit-margin-top="0"
     fit-margin-left="0"
     fit-margin-right="0"
     fit-margin-bottom="0"
     inkscape:window-width="1440"
     inkscape:window-height="825"
     inkscape:window-x="0"
     inkscape:window-y="0"
     inkscape:window-maximized="1" />
  <metadata
     id="metadata1084">
    <rdf:RDF>
      <cc:Work
         rdf:about="">
        <dc:format>image/svg+xml</dc:format>
        <dc:type
           rdf:resource="http://purl.org/dc/dcmitype/StillImage" />
        <dc:title></dc:title>
      </cc:Work>
    </rdf:RDF>
  </metadata>
  <g
     inkscape:label="Capa 1"
     inkscape:groupmode="layer"
     id="layer1"
     transform="translate(-41.768365,-103.45005)">
    <g
       transform="matrix(2.9650017,0,0,2.9650017,-241.17859,-286.53224)"
       id="g993"
       style="stroke-width:0.33726794">
      <path
         inkscape:connector-curvature="0"
         id="path1220"
         style="fill:#01937e;fill-opacity:1;fill-rule:nonzero;stroke:none;stroke-width:0.02979829"
         d="M 113.27603,154.76509 H 95.428935 v -23.23657 h 17.847095 z" />
      <g
         id="g1362"
         transform="matrix(0.08835199,0,0,-0.08835199,78.288649,240.46652)"
         style="stroke-width:0.33726794">
        <g
           clip-path="url(#clipPath1368)"
           id="g1364"
           style="stroke-width:0.33726794">
          <g
             id="g1370"
             style="stroke-width:0.33726794">
            <g
               id="g1372"
               style="stroke-width:0.33726794" />
            <g
               id="g1384"
               style="stroke-width:0.33726794">
              <g
                 style="opacity:0.5;stroke-width:0.33726794"
                 id="g1382"
                 clip-path="url(#clipPath1376)">
                <g
                   id="g1380"
                   transform="translate(254.168,1116.2402)"
                   style="stroke-width:0.33726794">
                  <path
                     inkscape:connector-curvature="0"
                     id="path1378"
                     style="fill:#00b7b7;fill-opacity:1;fill-rule:nonzero;stroke:none;stroke-width:0.33726794"
                     d="m 0,0 c -12.508,0 -22.684,-10.177 -22.684,-22.685 0,-12.507 10.176,-22.685 22.684,-22.685 12.51,0 22.687,10.178 22.687,22.685 C 22.687,-10.177 12.51,0 0,0 m 0,-52.207 c -16.279,0 -29.521,13.244 -29.521,29.522 0,16.279 13.242,29.523 29.521,29.523 16.278,0 29.523,-13.244 29.523,-29.523 0,-16.278 -13.245,-29.522 -29.523,-29.522" />
                </g>
              </g>
            </g>
          </g>
          <g
             id="g1386"
             style="stroke-width:0.33726794">
            <g
               id="g1388"
               style="stroke-width:0.33726794" />
            <g
               id="g1400"
               style="stroke-width:0.33726794">
              <g
                 style="opacity:0.5;stroke-width:0.33726794"
                 id="g1398"
                 clip-path="url(#clipPath1392)">
                <g
                   id="g1396"
                   transform="translate(250.8086,1094.2764)"
                   style="stroke-width:0.33726794">
                  <path
                     inkscape:connector-curvature="0"
                     id="path1394"
                     style="fill:#00b7b7;fill-opacity:1;fill-rule:nonzero;stroke:none;stroke-width:0.33726794"
                     d="m 0,0 c -1.844,0 -3.344,-1.501 -3.344,-3.344 0,-1.843 1.5,-3.342 3.344,-3.342 1.842,0 3.342,1.499 3.342,3.342 C 3.342,-1.501 1.842,0 0,0 m 0,-12.154 c -4.859,0 -8.813,3.952 -8.813,8.81 0,4.861 3.954,8.813 8.813,8.813 4.859,0 8.811,-3.952 8.811,-8.813 0,-4.858 -3.952,-8.81 -8.811,-8.81" />
                </g>
              </g>
            </g>
          </g>
          <g
             id="g1402"
             style="stroke-width:0.33726794">
            <g
               id="g1404"
               style="stroke-width:0.33726794" />
            <g
               id="g1416"
               style="stroke-width:0.33726794">
              <g
                 style="opacity:0.5;stroke-width:0.33726794"
                 id="g1414"
                 clip-path="url(#clipPath1408)">
                <g
                   id="g1412"
                   transform="translate(278.1387,1131.6992)"
                   style="stroke-width:0.33726794">
                  <path
                     inkscape:connector-curvature="0"
                     id="path1410"
                     style="fill:#00b7b7;fill-opacity:1;fill-rule:nonzero;stroke:none;stroke-width:0.33726794"
                     d="m 0,0 c -4.912,0 -8.908,-3.997 -8.908,-8.904 0,-4.912 3.996,-8.908 8.908,-8.908 4.91,0 8.904,3.996 8.904,8.908 C 8.904,-3.997 4.91,0 0,0 m 0,-24.649 c -8.682,0 -15.745,7.061 -15.745,15.745 0,8.678 7.063,15.74 15.745,15.74 8.678,0 15.742,-7.062 15.742,-15.74 0,-8.684 -7.064,-15.745 -15.742,-15.745" />
                </g>
              </g>
            </g>
          </g>
          <g
             id="g1418"
             style="stroke-width:0.33726794">
            <g
               id="g1420"
               style="stroke-width:0.33726794" />
            <g
               id="g1432"
               style="stroke-width:0.33726794">
              <g
                 style="opacity:0.5;stroke-width:0.33726794"
                 id="g1430"
                 clip-path="url(#clipPath1424)">
                <g
                   id="g1428"
                   transform="translate(297.0264,1116.2402)"
                   style="stroke-width:0.33726794">
                  <path
                     inkscape:connector-curvature="0"
                     id="path1426"
                     style="fill:#f97ca9;fill-opacity:1;fill-rule:nonzero;stroke:none;stroke-width:0.33726794"
                     d="m 0,0 c -12.507,0 -22.685,-10.177 -22.685,-22.685 0,-12.507 10.178,-22.685 22.685,-22.685 12.509,0 22.686,10.178 22.686,22.685 C 22.686,-10.177 12.509,0 0,0 m 0,-52.207 c -16.279,0 -29.522,13.244 -29.522,29.522 0,16.279 13.243,29.523 29.522,29.523 16.276,0 29.522,-13.244 29.522,-29.523 0,-16.278 -13.246,-29.522 -29.522,-29.522" />
                </g>
              </g>
            </g>
          </g>
          <g
             id="g1434"
             style="stroke-width:0.33726794">
            <g
               id="g1436"
               style="stroke-width:0.33726794" />
            <g
               id="g1448"
               style="stroke-width:0.33726794">
              <g
                 style="opacity:0.5;stroke-width:0.33726794"
                 id="g1446"
                 clip-path="url(#clipPath1440)">
                <g
                   id="g1444"
                   transform="translate(293.666,1094.2764)"
                   style="stroke-width:0.33726794">
                  <path
                     inkscape:connector-curvature="0"
                     id="path1442"
                     style="fill:#f97ca9;fill-opacity:1;fill-rule:nonzero;stroke:none;stroke-width:0.33726794"
                     d="m 0,0 c -1.843,0 -3.343,-1.501 -3.343,-3.344 0,-1.843 1.5,-3.342 3.343,-3.342 1.842,0 3.342,1.499 3.342,3.342 C 3.342,-1.501 1.842,0 0,0 m 0,-12.154 c -4.859,0 -8.813,3.952 -8.813,8.81 0,4.861 3.954,8.813 8.813,8.813 4.857,0 8.811,-3.952 8.811,-8.813 0,-4.858 -3.954,-8.81 -8.811,-8.81" />
                </g>
              </g>
            </g>
          </g>
          <g
             id="g1450"
             style="stroke-width:0.33726794">
            <g
               id="g1452"
               style="stroke-width:0.33726794" />
            <g
               id="g1464"
               style="stroke-width:0.33726794">
              <g
                 style="opacity:0.5;stroke-width:0.33726794"
                 id="g1462"
                 clip-path="url(#clipPath1456)">
                <g
                   id="g1460"
                   transform="translate(320.9961,1131.6992)"
                   style="stroke-width:0.33726794">
                  <path
                     inkscape:connector-curvature="0"
                     id="path1458"
                     style="fill:#f97ca9;fill-opacity:1;fill-rule:nonzero;stroke:none;stroke-width:0.33726794"
                     d="m 0,0 c -4.912,0 -8.908,-3.997 -8.908,-8.904 0,-4.912 3.996,-8.908 8.908,-8.908 4.91,0 8.904,3.996 8.904,8.908 C 8.904,-3.997 4.91,0 0,0 m 0,-24.649 c -8.684,0 -15.744,7.061 -15.744,15.745 0,8.678 7.06,15.74 15.744,15.74 8.679,0 15.742,-7.062 15.742,-15.74 0,-8.684 -7.063,-15.745 -15.742,-15.745" />
                </g>
              </g>
            </g>
          </g>
          <g
             id="g1466"
             style="stroke-width:0.33726794">
            <g
               id="g1468"
               style="stroke-width:0.33726794" />
            <g
               id="g1480"
               style="stroke-width:0.33726794">
              <g
                 style="opacity:0.5;stroke-width:0.33726794"
                 id="g1478"
                 clip-path="url(#clipPath1472)">
                <g
                   id="g1476"
                   transform="translate(335.5977,1116.2402)"
                   style="stroke-width:0.33726794">
                  <path
                     inkscape:connector-curvature="0"
                     id="path1474"
                     style="fill:#60c160;fill-opacity:1;fill-rule:nonzero;stroke:none;stroke-width:0.33726794"
                     d="m 0,0 c -12.508,0 -22.684,-10.177 -22.684,-22.685 0,-12.507 10.176,-22.685 22.684,-22.685 12.51,0 22.686,10.178 22.686,22.685 C 22.686,-10.177 12.51,0 0,0 m 0,-52.207 c -16.279,0 -29.521,13.244 -29.521,29.522 0,16.279 13.242,29.523 29.521,29.523 16.277,0 29.523,-13.244 29.523,-29.523 0,-16.278 -13.246,-29.522 -29.523,-29.522" />
                </g>
              </g>
            </g>
          </g>
          <g
             id="g1482"
             style="stroke-width:0.33726794">
            <g
               id="g1484"
               style="stroke-width:0.33726794" />
            <g
               id="g1496"
               style="stroke-width:0.33726794">
              <g
                 style="opacity:0.5;stroke-width:0.33726794"
                 id="g1494"
                 clip-path="url(#clipPath1488)">
                <g
                   id="g1492"
                   transform="translate(332.2383,1094.2764)"
                   style="stroke-width:0.33726794">
                  <path
                     inkscape:connector-curvature="0"
                     id="path1490"
                     style="fill:#60c160;fill-opacity:1;fill-rule:nonzero;stroke:none;stroke-width:0.33726794"
                     d="m 0,0 c -1.844,0 -3.344,-1.501 -3.344,-3.344 0,-1.843 1.5,-3.342 3.344,-3.342 1.842,0 3.341,1.499 3.341,3.342 C 3.341,-1.501 1.842,0 0,0 m 0,-12.154 c -4.861,0 -8.813,3.952 -8.813,8.81 0,4.861 3.952,8.813 8.813,8.813 4.857,0 8.811,-3.952 8.811,-8.813 0,-4.858 -3.954,-8.81 -8.811,-8.81" />
                </g>
              </g>
            </g>
          </g>
          <g
             id="g1498"
             style="stroke-width:0.33726794">
            <g
               id="g1500"
               style="stroke-width:0.33726794" />
            <g
               id="g1512"
               style="stroke-width:0.33726794">
              <g
                 style="opacity:0.5;stroke-width:0.33726794"
                 id="g1510"
                 clip-path="url(#clipPath1504)">
                <g
                   id="g1508"
                   transform="translate(359.5664,1131.6992)"
                   style="stroke-width:0.33726794">
                  <path
                     inkscape:connector-curvature="0"
                     id="path1506"
                     style="fill:#60c160;fill-opacity:1;fill-rule:nonzero;stroke:none;stroke-width:0.33726794"
                     d="m 0,0 c -4.91,0 -8.906,-3.997 -8.906,-8.904 0,-4.912 3.996,-8.908 8.906,-8.908 4.912,0 8.905,3.996 8.905,8.908 C 8.905,-3.997 4.912,0 0,0 m 0,-24.649 c -8.682,0 -15.744,7.061 -15.744,15.745 0,8.678 7.062,15.74 15.744,15.74 8.68,0 15.743,-7.062 15.743,-15.74 0,-8.684 -7.063,-15.745 -15.743,-15.745" />
                </g>
              </g>
            </g>
          </g>
        </g>
      </g>
    </g>
  </g>
</svg>
