<?xml version="1.0" encoding="UTF-8" standalone="no"?>
<!-- Created with Inkscape (http://www.inkscape.org/) -->

<svg
   xmlns:dc="http://purl.org/dc/elements/1.1/"
   xmlns:cc="http://creativecommons.org/ns#"
   xmlns:rdf="http://www.w3.org/1999/02/22-rdf-syntax-ns#"
   xmlns:svg="http://www.w3.org/2000/svg"
   xmlns="http://www.w3.org/2000/svg"
   xmlns:sodipodi="http://sodipodi.sourceforge.net/DTD/sodipodi-0.dtd"
   xmlns:inkscape="http://www.inkscape.org/namespaces/inkscape"
   width="52.916679mm"
   height="69.225349mm"
   viewBox="0 0 52.916679 69.225349"
   version="1.1"
   id="svg871"
   inkscape:version="0.92.5 (2060ec1f9f, 2020-04-08)"
   sodipodi:docname="descarga-herramientas-2.1.b-recuento.svg">
  <defs
     id="defs865">
    <clipPath
       clipPathUnits="userSpaceOnUse"
       id="clipPath4338">
      <path
         d="M 0,5027.023 H 1438.284 V 0 H 0 Z"
         id="path4336"
         inkscape:connector-curvature="0" />
    </clipPath>
  </defs>
  <sodipodi:namedview
     id="base"
     pagecolor="#ffffff"
     bordercolor="#666666"
     borderopacity="1.0"
     inkscape:pageopacity="0.0"
     inkscape:pageshadow="2"
     inkscape:zoom="0.88730469"
     inkscape:cx="223.85183"
     inkscape:cy="71.064605"
     inkscape:document-units="mm"
     inkscape:current-layer="layer1"
     showgrid="false"
     fit-margin-top="0"
     fit-margin-left="0"
     fit-margin-right="0"
     fit-margin-bottom="0"
     inkscape:window-width="1440"
     inkscape:window-height="825"
     inkscape:window-x="0"
     inkscape:window-y="0"
     inkscape:window-maximized="1" />
  <metadata
     id="metadata868">
    <rdf:RDF>
      <cc:Work
         rdf:about="">
        <dc:format>image/svg+xml</dc:format>
        <dc:type
           rdf:resource="http://purl.org/dc/dcmitype/StillImage" />
        <dc:title></dc:title>
      </cc:Work>
    </rdf:RDF>
  </metadata>
  <g
     inkscape:label="Capa 1"
     inkscape:groupmode="layer"
     id="layer1"
     transform="translate(-46.605869,-98.410496)">
    <g
       id="g1148"
       transform="matrix(2.8954601,0,0,2.8941647,-217.03502,-243.26135)"
       style="stroke-width:0.34544554">
      <path
         inkscape:connector-curvature="0"
         id="path1484"
         style="fill:#ffffff;fill-opacity:1;fill-rule:nonzero;stroke:#d3d3d3;stroke-width:0.01830861;stroke-miterlimit:4;stroke-dasharray:none;stroke-opacity:1"
         d="M 109.31978,141.96521 H 91.062348 v -23.90063 h 18.257432 z" />
      <g
         style="stroke-width:1.10134947"
         id="g4332"
         transform="matrix(0.11065107,0,0,-0.11065107,67.683545,201.04436)">
        <g
           style="stroke-width:1.10134947"
           clip-path="url(#clipPath4338)"
           id="g4334">
          <g
             style="stroke-width:1.10134947"
             transform="translate(294.6963,582.8848)"
             id="g4340">
            <path
               inkscape:connector-curvature="0"
               id="path4342"
               style="fill:#ffffff;fill-opacity:1;fill-rule:evenodd;stroke:none;stroke-width:1.10134947"
               d="M 0,0 C 35.036,0.261 62.606,28.021 62.06,63.173 61.52,97.88 32.909,124.759 -1.277,124.112 -33.719,123.498 -62.093,97.169 -62.087,61.907 -62.082,27.619 -33.901,-0.251 0,0" />
          </g>
          <g
             style="stroke-width:1.10134947"
             transform="translate(294.4863,588.7998)"
             id="g4344">
            <path
               inkscape:connector-curvature="0"
               id="path4346"
               style="fill:#5f5e5f;fill-opacity:1;fill-rule:evenodd;stroke:none;stroke-width:1.10134947"
               d="M 0,0 C 30.215,-0.639 56.704,24.578 56.486,56.477 56.272,87.656 30.618,112.871 -1.007,112.385 -30.972,111.923 -56.149,86.555 -56.064,56.272 -55.978,25.095 -30.798,-0.179 0,0 m 0.21,-5.915 c -33.901,-0.251 -62.082,27.619 -62.087,61.907 -0.006,35.262 28.368,61.591 60.81,62.205 C 33.119,118.844 61.729,91.965 62.27,57.258 62.816,22.106 35.246,-5.654 0.21,-5.915" />
          </g>
          <g
             style="stroke-width:1.10134947"
             transform="translate(344.5791,639.6504)"
             id="g4348">
            <path
               inkscape:connector-curvature="0"
               id="path4350"
               style="fill:#ffffff;fill-opacity:1;fill-rule:evenodd;stroke:none;stroke-width:1.10134947"
               d="M 0,0 C 1.481,0.14 2.13,1.019 1.908,2.383 1.543,4.625 0.149,6.021 -2.108,6.261 -3.464,6.403 -4.432,5.626 -4.197,4.14 -3.825,1.779 -2.357,0.399 0,0 m -61.142,49.858 c -2.659,0.043 -4.491,-0.462 -4.577,-3.02 -0.062,-1.917 3.121,-3.907 6.01,-3.805 1.932,0.07 3.754,0.611 3.912,2.948 0.136,2.012 -2.849,3.893 -5.345,3.877 m 45.526,-80.526 c 0.095,3.454 -2.02,6.567 -4.352,6.657 -2.081,0.079 -2.848,-1.275 -2.973,-3.067 -0.214,-3.048 2.258,-6.6 4.586,-6.557 2.076,0.036 2.658,1.503 2.739,2.967 m -67.302,16.381 c 0.016,1.925 -0.514,3.492 -2.795,3.52 -2.726,0.034 -6.049,-3.754 -6.138,-6.941 -0.055,-1.974 0.767,-3.42 2.896,-3.518 2.832,-0.129 5.997,3.601 6.037,6.939 m 36.72,7.657 c -4.452,0.027 -7.665,-2.077 -7.466,-4.891 0.201,-2.834 3.746,-4.658 7.97,-4.099 3.49,0.461 5.745,2.511 5.599,5.089 -0.137,2.45 -2.371,3.878 -6.103,3.901 m 9.959,-24.354 c 0.017,3.354 -0.669,5.922 -1.799,7.469 -1.717,2.354 -4.924,2.825 -7.083,1.039 -4.151,-3.431 -4.761,-11.858 -1.128,-15.862 1.737,-1.914 3.669,-2.42 5.997,-0.908 3.313,2.151 3.76,5.515 4.013,8.262 m 12.354,60.723 c 3.466,0.254 7.06,1.443 9.554,4.838 2.34,3.189 0.888,7.205 -2.996,7.954 -3.696,0.713 -7.344,0.323 -10.505,-1.948 -2.24,-1.611 -4.189,-3.57 -3.517,-6.694 0.559,-2.593 3.296,-4.141 7.464,-4.15 M -63.139,-33.91 c 0.989,0.058 2.081,0.021 3.138,0.201 6.309,1.074 8.73,6.945 4.563,11.773 -4.386,5.086 -10.183,7.013 -16.88,5.801 -2.813,-0.509 -5.229,-1.789 -5.995,-4.719 -0.838,-3.203 0.411,-5.926 2.766,-8.161 3.452,-3.273 7.611,-4.763 12.408,-4.895 m -7.714,69.128 c 0.021,5.83 -1.966,9.786 -4.813,10.615 -3.977,1.156 -6.818,-0.758 -9.281,-3.669 -2.928,-3.462 -4.161,-7.558 -4.246,-11.937 -0.094,-4.797 1.941,-8.046 5.045,-8.9 3.356,-0.922 7.023,0.75 9.572,4.543 2.187,3.256 3.678,6.797 3.723,9.348 M -33.762,2.014 c -0.054,-5.689 1.009,-10.752 4.828,-14.914 3.865,-4.213 9.329,-4.429 13.436,-0.524 6.427,6.109 8.344,18.88 4.017,27.413 -1.91,3.765 -4.384,7.092 -9.113,7.251 -4.902,0.165 -7.935,-2.767 -10.195,-6.743 -2.25,-3.953 -3.08,-8.232 -2.973,-12.483 m -47.964,5.273 c -0.16,-11.045 6.064,-16.768 15.648,-15.952 14.236,1.214 29.693,15.908 31.64,30.08 1.553,11.301 -5.968,18.693 -17.148,16.846 -9.828,-1.625 -17.062,-7.33 -23.022,-14.887 -4.066,-5.154 -6.866,-10.899 -7.118,-16.087 m 40.925,42.49 -0.037,0.038 c 0.57,-1.157 1.438,-1.935 2.783,-1.653 0.909,0.191 1.459,0.989 1.51,1.889 0.111,1.986 -0.712,3.495 -2.547,4.413 -0.91,0.457 -1.98,0.92 -2.576,-0.092 -0.887,-1.506 -0.52,-3.077 0.591,-4.434 0.063,-0.078 0.182,-0.109 0.276,-0.161 m -57.683,-51.871 -0.045,0.041 c 0.696,-2.06 2.41,-1.237 3.759,-1.248 0.884,-0.008 1.324,0.775 1.222,1.593 -0.171,1.379 -1.11,2.287 -2.269,2.92 -0.55,0.301 -1.202,0.469 -1.828,0.564 -1.123,0.175 -2.285,0.082 -2.626,-1.225 -0.374,-1.425 0.048,-2.537 1.787,-2.645 m 88.51,26.996 c 0.225,-0.224 0.451,-0.449 0.675,-0.674 1.011,-1.115 2.116,-0.729 2.656,0.271 0.968,1.793 0.327,3.566 -0.881,5.053 -0.802,0.986 -2.021,1.557 -3.108,0.638 -1.51,-1.275 -0.885,-2.929 -0.241,-4.435 0.149,-0.35 0.59,-0.574 0.899,-0.853 M -92.672,13.499 c -0.178,-1.051 0.214,-1.523 1.305,-1.287 0.912,-2.325 2.697,-1.938 4.057,-0.865 1.48,1.166 0.391,2.612 -0.54,3.65 -1.109,1.234 -2.701,1.446 -4.201,1.008 -1.318,-0.387 -1.913,-1.301 -0.621,-2.506 m 42.579,-64.35 c -30.798,-0.178 -55.977,25.095 -56.064,56.273 -0.085,30.282 25.093,55.65 55.057,56.112 C -19.475,62.021 6.18,36.806 6.394,5.626 6.611,-26.272 -19.878,-51.489 -50.093,-50.851" />
          </g>
          <g
             style="stroke-width:1.10134947"
             transform="translate(295.1475,672.498)"
             id="g4352">
            <path
               inkscape:connector-curvature="0"
               id="path4354"
               style="fill:#cd1419;fill-opacity:1;fill-rule:evenodd;stroke:none;stroke-width:1.10134947"
               d="m 0,0 c -0.643,-0.142 -2.139,-0.362 -3.566,-0.8 -7.633,-2.34 -13.393,-7.176 -17.948,-13.596 -2.794,-3.94 -4.912,-8.128 -4.908,-13.107 0.004,-6.008 3.584,-9.118 9.61,-8.268 9.042,1.275 15.496,6.586 20.771,13.603 3.099,4.121 5.304,8.665 5.258,13.967 C 9.172,-2.989 6.054,-0.01 0,0 m -32.294,-25.561 c 0.252,5.188 3.052,10.933 7.117,16.087 5.96,7.557 13.195,13.262 23.023,14.887 11.179,1.848 18.701,-5.545 17.147,-16.846 -1.946,-14.171 -17.403,-28.866 -31.639,-30.08 -9.584,-0.816 -15.808,4.908 -15.648,15.952" />
          </g>
          <g
             style="stroke-width:1.10134947"
             transform="translate(315.3965,641.5098)"
             id="g4356">
            <path
               inkscape:connector-curvature="0"
               id="path4358"
               style="fill:#cd1419;fill-opacity:1;fill-rule:evenodd;stroke:none;stroke-width:1.10134947"
               d="m 0,0 c -0.165,-2.869 0.44,-5.63 1.54,-8.2 1.062,-2.481 2.63,-5 5.611,-5.158 2.758,-0.147 4.416,2.115 5.573,4.321 3.478,6.638 3.354,13.514 0.346,20.202 C 10.99,15.79 6.868,15.999 3.681,12.089 0.788,8.538 0.18,4.343 0,0 m -4.579,0.154 c -0.108,4.251 0.723,8.531 2.973,12.484 2.259,3.975 5.293,6.908 10.195,6.743 4.728,-0.159 7.203,-3.486 9.112,-7.251 4.327,-8.533 2.41,-21.305 -4.016,-27.413 -4.108,-3.905 -9.572,-3.69 -13.436,0.523 -3.819,4.162 -4.883,9.226 -4.828,14.914" />
          </g>
          <g
             style="stroke-width:1.10134947"
             transform="translate(261.5547,678.4971)"
             id="g4360">
            <path
               inkscape:connector-curvature="0"
               id="path4362"
               style="fill:#cd1419;fill-opacity:1;fill-rule:evenodd;stroke:none;stroke-width:1.10134947"
               d="M 0,0 C 1.353,0.119 1.78,1.092 1.852,2.365 1.249,1.565 0.646,0.766 0.046,-0.037 c -0.199,-0.453 -0.399,-0.905 -0.6,-1.358 -2.107,-3.779 -2.945,-7.63 -0.689,-11.667 1.236,-1.842 2.75,-1.296 4.204,-0.403 4.089,2.518 6.647,9.774 5.146,14.354 C 7.517,2.692 6.651,4.045 4.417,3.645 6.414,2.426 5.439,1.447 4.318,0.238 1.645,-2.646 0.144,-6.045 0.606,-10.064 c 0.185,-1.611 -0.008,-2.8 -1.889,-3.032 -1.611,4.021 0.14,7.844 0.69,11.738 C 0.145,-1.141 0.052,-0.561 0,0 m 12.172,-3.629 c -0.046,-2.551 -1.536,-6.092 -3.724,-9.348 -2.549,-3.793 -6.216,-5.464 -9.572,-4.543 -3.104,0.854 -5.139,4.103 -5.045,8.9 0.085,4.38 1.318,8.475 4.246,11.937 2.463,2.912 5.305,4.826 9.281,3.669 2.847,-0.829 4.834,-4.785 4.814,-10.615" />
          </g>
          <g
             style="stroke-width:1.10134947"
             transform="translate(272.0303,613.627)"
             id="g4364">
            <path
               inkscape:connector-curvature="0"
               id="path4366"
               style="fill:#cd1419;fill-opacity:1;fill-rule:evenodd;stroke:none;stroke-width:1.10134947"
               d="m 0,0 c 0.107,-1.657 1.223,-1.973 2.593,-1.95 2.817,-2.748 6.267,-2.835 9.745,-2.015 3.492,0.824 4.105,2.819 2.047,5.688 C 11.661,5.521 4.421,7.748 0.045,6.111 -1.174,5.654 -2.608,5.178 -2.479,3.57 -2.352,2.014 -2.098,0.298 0,0 M 9.41,-7.887 C 4.613,-7.755 0.454,-6.265 -2.998,-2.991 -5.354,-0.757 -6.603,1.967 -5.765,5.169 -4.998,8.1 -2.582,9.38 0.23,9.889 6.928,11.101 12.725,9.174 17.111,4.088 21.277,-0.74 18.856,-6.611 12.548,-7.686 11.491,-7.865 10.398,-7.828 9.41,-7.887" />
          </g>
          <g
             style="stroke-width:1.10134947"
             transform="translate(328.3154,677.7646)"
             id="g4368">
            <path
               inkscape:connector-curvature="0"
               id="path4370"
               style="fill:#cd1419;fill-opacity:1;fill-rule:evenodd;stroke:none;stroke-width:1.10134947"
               d="m 0,0 c -2.856,3.111 -10.496,1.871 -11.965,-1.768 -0.476,-1.18 0.024,-1.275 1.117,-1.505 C -6.676,-4.154 -3.433,-2.151 0,0 m -7.621,-8.375 c -4.168,0.009 -6.905,1.557 -7.464,4.149 -0.673,3.124 1.276,5.083 3.517,6.695 C -8.407,4.74 -4.76,5.13 -1.063,4.417 2.82,3.668 4.272,-0.349 1.933,-3.537 -0.562,-6.933 -4.155,-8.121 -7.621,-8.375" />
          </g>
          <g
             style="stroke-width:1.10134947"
             transform="translate(304.4014,605.1494)"
             id="g4372">
            <path
               inkscape:connector-curvature="0"
               id="path4374"
               style="fill:#cd1419;fill-opacity:1;fill-rule:evenodd;stroke:none;stroke-width:1.10134947"
               d="M 0,0 C 2.023,2.608 1.559,5.389 0.478,8.157 0.097,9.134 -0.433,10.274 -1.67,10.294 -2.918,10.313 -3.924,9.54 -4.449,8.414 -5.705,5.732 -6.329,2.957 -5.184,0.052 c 0.511,-1.296 0.954,-2.851 2.663,-2.804 1.605,0.044 2.323,1.301 2.565,2.803 z M 3.938,3.517 C 3.686,0.77 3.238,-2.594 -0.074,-4.745 -2.402,-6.257 -4.334,-5.751 -6.071,-3.837 -9.704,0.167 -9.095,8.594 -4.943,12.025 -2.784,13.811 0.423,13.34 2.14,10.986 3.27,9.438 3.956,6.871 3.938,3.517" />
          </g>
          <g
             style="stroke-width:1.10134947"
             transform="translate(302.6768,628.8457)"
             id="g4376">
            <path
               inkscape:connector-curvature="0"
               id="path4378"
               style="fill:#cd1419;fill-opacity:1;fill-rule:evenodd;stroke:none;stroke-width:1.10134947"
               d="M 0,0 C -1.871,2.628 -6.406,3.126 -8.67,1.057 -9.785,0.038 -9.379,-0.452 -8.235,-0.994 -5.258,-2.405 -2.656,-1.191 0,0 M -4.296,4.175 C -0.563,4.151 1.67,2.724 1.808,0.273 c 0.145,-2.578 -2.11,-4.627 -5.6,-5.088 -4.224,-0.559 -7.769,1.264 -7.97,4.098 -0.199,2.815 3.014,4.919 7.466,4.892" />
          </g>
          <g
             style="stroke-width:1.10134947"
             transform="translate(259.2051,626.8506)"
             id="g4380">
            <path
               inkscape:connector-curvature="0"
               id="path4382"
               style="fill:#cd1419;fill-opacity:1;fill-rule:evenodd;stroke:none;stroke-width:1.10134947"
               d="M 0,0 C -0.007,0.32 -0.277,1.215 -1.456,0.515 -3.556,-0.732 -4.97,-2.58 -5.234,-5.079 -5.296,-5.659 -5.229,-6.968 -4.12,-6.331 -1.966,-5.096 -0.09,-3.492 0,0 m 2.452,-1.49 c -0.036,-3.335 -3.201,-7.066 -6.033,-6.936 -2.129,0.098 -2.951,1.544 -2.896,3.518 0.089,3.186 3.412,6.974 6.138,6.941 C 1.942,2.005 2.472,0.437 2.452,-1.49" />
          </g>
          <g
             style="stroke-width:1.10134947"
             transform="translate(323.5771,614.2979)"
             id="g4384">
            <path
               inkscape:connector-curvature="0"
               id="path4386"
               style="fill:#cd1419;fill-opacity:1;fill-rule:evenodd;stroke:none;stroke-width:1.10134947"
               d="M 0,0 C -0.78,-3.271 -0.292,-5.546 2.609,-7.076 3.47,-4.124 2.415,-2.071 0,0 m 5.386,-5.315 c -0.081,-1.464 -0.663,-2.931 -2.74,-2.967 -2.327,-0.043 -4.799,3.509 -4.585,6.556 0.125,1.792 0.892,3.147 2.973,3.068 2.332,-0.09 4.446,-3.203 4.352,-6.657" />
          </g>
          <g
             style="stroke-width:1.10134947"
             transform="translate(287.21,685.1006)"
             id="g4388">
            <path
               inkscape:connector-curvature="0"
               id="path4390"
               style="fill:#cd1419;fill-opacity:1;fill-rule:evenodd;stroke:none;stroke-width:1.10134947"
               d="M 0,0 C -1.914,2.195 -4.184,2.14 -6.822,1.471 -4.625,-1.494 -2.897,-1.825 0,0 m -3.772,4.408 c 2.496,0.016 5.48,-1.865 5.344,-3.877 -0.158,-2.338 -1.98,-2.879 -3.912,-2.948 -2.889,-0.103 -6.072,1.888 -6.01,3.805 0.086,2.557 1.918,3.063 4.578,3.02" />
          </g>
          <g
             style="stroke-width:1.10134947"
             transform="translate(341.4297,644.2012)"
             id="g4392">
            <path
               inkscape:connector-curvature="0"
               id="path4394"
               style="fill:#cd1419;fill-opacity:1;fill-rule:evenodd;stroke:none;stroke-width:1.10134947"
               d="M 0,0 C 0.206,-2.139 1.349,-3.112 3.528,-3.399 3.124,-1.25 2.359,0.119 0,0 m 3.149,-4.551 c -2.357,0.4 -3.825,1.78 -4.197,4.14 C -1.282,1.075 -0.314,1.853 1.041,1.71 3.299,1.47 4.692,0.074 5.058,-2.168 5.279,-3.532 4.631,-4.411 3.149,-4.551" />
          </g>
          <g
             style="stroke-width:1.10134947"
             transform="translate(303.7783,689.4277)"
             id="g4396">
            <path
               inkscape:connector-curvature="0"
               id="path4398"
               style="fill:#cd1419;fill-opacity:1;fill-rule:evenodd;stroke:none;stroke-width:1.10134947"
               d="M 0,0 C -0.094,0.052 -0.213,0.083 -0.276,0.16 -1.387,1.518 -1.754,3.089 -0.867,4.595 -0.271,5.606 0.799,5.144 1.709,4.687 3.544,3.769 4.367,2.26 4.256,0.273 4.205,-0.626 3.654,-1.425 2.746,-1.615 1.4,-1.897 0.533,-1.119 -0.037,0.038 0.719,0.905 2.033,-1.69 2.446,0.351 2.695,1.578 1.686,2.532 0.773,3.321 0.581,3.487 0.109,3.626 -0.027,3.519 -1.167,2.616 0.072,1.793 0.104,0.918 0.115,0.613 0.037,0.306 0,0" />
          </g>
          <g
             style="stroke-width:1.10134947"
             transform="translate(246.0947,637.5566)"
             id="g4400">
            <path
               inkscape:connector-curvature="0"
               id="path4402"
               style="fill:#cd1419;fill-opacity:1;fill-rule:evenodd;stroke:none;stroke-width:1.10134947"
               d="M 0,0 C -1.738,0.107 -2.16,1.22 -1.787,2.645 -1.445,3.952 -0.283,4.045 0.84,3.87 1.466,3.774 2.117,3.606 2.667,3.306 3.826,2.673 4.766,1.765 4.937,0.386 5.038,-0.433 4.599,-1.215 3.715,-1.207 2.365,-1.196 0.651,-2.02 -0.045,0.041 1.095,0.194 2.171,-1.404 3.426,-0.085 2.629,1.377 1.499,2.454 -0.15,1.888 -1.238,1.516 0.108,0.668 0,0" />
          </g>
          <g
             style="stroke-width:1.10134947"
             transform="translate(334.6025,664.5488)"
             id="g4404">
            <path
               inkscape:connector-curvature="0"
               id="path4406"
               style="fill:#cd1419;fill-opacity:1;fill-rule:evenodd;stroke:none;stroke-width:1.10134947"
               d="M 0,0 C -0.307,0.282 -0.747,0.507 -0.896,0.856 -1.54,2.362 -2.165,4.017 -0.655,5.292 0.432,6.211 1.65,5.64 2.452,4.653 3.66,3.167 4.302,1.394 3.334,-0.399 c -0.54,-1 -1.646,-1.386 -2.656,-0.272 0.123,0.137 0.243,0.274 0.361,0.414 C 2.613,1.331 2.338,2.38 -0.168,4.276 -0.884,2.833 -0.073,1.624 0.404,0.368 0.268,0.249 0.133,0.126 0,0" />
          </g>
          <g
             style="stroke-width:1.10134947"
             transform="translate(251.9072,653.1494)"
             id="g4408">
            <path
               inkscape:connector-curvature="0"
               id="path4410"
               style="fill:#cd1419;fill-opacity:1;fill-rule:evenodd;stroke:none;stroke-width:1.10134947"
               d="m 0,0 c -1.292,1.205 -0.697,2.119 0.621,2.506 1.5,0.438 3.092,0.226 4.201,-1.008 0.931,-1.038 2.02,-2.484 0.54,-3.65 -1.36,-1.073 -3.145,-1.46 -4.057,0.865 L 1.281,-1.314 C 2.4,-0.959 3.696,-2.7 4.987,-0.643 3.152,-0.586 2.172,2.496 -0.012,-0.01 Z" />
          </g>
          <g
             style="stroke-width:1.10134947"
             transform="translate(253.2119,651.8623)"
             id="g4412">
            <path
               inkscape:connector-curvature="0"
               id="path4414"
               style="fill:#cd1419;fill-opacity:1;fill-rule:evenodd;stroke:none;stroke-width:1.10134947"
               d="m 0,0 c -1.091,-0.236 -1.482,0.236 -1.305,1.287 l -0.011,-0.01 c 0.638,-0.228 1.084,-0.65 1.293,-1.304 z" />
          </g>
          <g
             style="stroke-width:1.10134947"
             transform="translate(335.2803,663.8779)"
             id="g4416">
            <path
               inkscape:connector-curvature="0"
               id="path4418"
               style="fill:#cd1419;fill-opacity:1;fill-rule:evenodd;stroke:none;stroke-width:1.10134947"
               d="M 0,0 C -0.225,0.226 -0.45,0.45 -0.677,0.673 -0.545,0.797 -0.41,0.92 -0.273,1.039 -0.062,0.83 0.149,0.622 0.361,0.414 0.243,0.273 0.123,0.137 0,0" />
          </g>
          <g
             style="stroke-width:1.10134947"
             transform="translate(277.5605,639.376)"
             id="g4420">
            <path
               inkscape:connector-curvature="0"
               id="path4422"
               style="fill:#ffffff;fill-opacity:1;fill-rule:evenodd;stroke:none;stroke-width:1.10134947"
               d="m 0,0 c 2.976,-0.005 5.573,0.771 7.88,2.188 6.543,4.019 11.86,9.218 15.138,16.308 0.874,1.891 1.461,3.805 1.336,5.903 -0.15,2.529 -1.016,2.93 -3.227,1.703 C 19.982,25.465 19.928,24.52 19.695,23.445 17.9,15.152 8.3,5.979 -0.057,4.62 -2.104,4.287 -3.452,2.943 -3.322,1.301 -3.194,-0.322 -1.116,0.151 0,0 m 17.587,33.122 c 6.054,-0.01 9.172,-2.989 9.217,-8.201 C 26.85,19.619 24.645,15.075 21.546,10.954 16.271,3.938 9.817,-1.374 0.774,-2.649 c -6.025,-0.85 -9.605,2.26 -9.609,8.268 -0.004,4.979 2.114,9.167 4.908,13.107 4.555,6.42 10.315,11.256 17.948,13.596 1.427,0.438 2.923,0.658 3.566,0.8" />
          </g>
          <g
             style="stroke-width:1.10134947"
             transform="translate(329.0801,642.71)"
             id="g4424">
            <path
               inkscape:connector-curvature="0"
               id="path4426"
               style="fill:#ffffff;fill-opacity:1;fill-rule:evenodd;stroke:none;stroke-width:1.10134947"
               d="m 0,0 c 0.062,3.496 -0.392,6.674 -2.016,9.556 -0.484,0.858 -1.291,2.1 -2.443,1.481 C -5.61,10.419 -5.065,9.313 -4.558,8.231 -1.609,1.954 -1.544,-4.164 -5.98,-9.875 c -0.57,-0.732 -0.547,-1.424 -0.082,-2.042 0.591,-0.79 1.379,-0.414 2.001,0.022 1.07,0.75 1.866,1.694 2.329,2.991 C -0.676,-5.94 0.077,-2.943 0,0 m -13.684,-1.2 c 0.18,4.343 0.788,8.538 3.681,12.089 3.188,3.91 7.31,3.701 9.39,-0.924 C 2.395,3.276 2.519,-3.6 -0.96,-10.237 c -1.156,-2.206 -2.814,-4.468 -5.572,-4.322 -2.982,0.159 -4.55,2.678 -5.612,5.159 -1.099,2.57 -1.705,5.331 -1.54,8.2" />
          </g>
          <g
             style="stroke-width:1.10134947"
             transform="translate(260.2705,665.3994)"
             id="g4428">
            <path
               inkscape:connector-curvature="0"
               id="path4430"
               style="fill:#ffffff;fill-opacity:1;fill-rule:evenodd;stroke:none;stroke-width:1.10134947"
               d="m 0,0 c 1.882,0.233 2.075,1.423 1.891,3.033 -0.463,4.02 1.038,7.419 3.712,10.303 1.121,1.209 2.095,2.187 0.098,3.406 2.235,0.401 3.1,-0.952 3.691,-2.756 C 10.893,9.406 8.334,2.15 4.245,-0.367 2.791,-1.261 1.277,-1.807 0.041,0.036 Z" />
          </g>
          <g
             style="stroke-width:1.10134947"
             transform="translate(260.3115,665.4355)"
             id="g4432">
            <path
               inkscape:connector-curvature="0"
               id="path4434"
               style="fill:#ffffff;fill-opacity:1;fill-rule:evenodd;stroke:none;stroke-width:1.10134947"
               d="M 0,0 C -2.256,4.036 -1.418,7.888 0.689,11.667 L 0.65,11.702 C 0.101,7.81 -1.65,3.986 -0.041,-0.035 -0.041,-0.036 0,0 0,0" />
          </g>
          <g
             style="stroke-width:1.10134947"
             transform="translate(261.5977,678.4619)"
             id="g4436">
            <path
               inkscape:connector-curvature="0"
               id="path4438"
               style="fill:#ffffff;fill-opacity:1;fill-rule:evenodd;stroke:none;stroke-width:1.10134947"
               d="M 0,0 C 0.603,0.801 1.206,1.601 1.809,2.4 1.737,1.127 1.31,0.154 -0.043,0.035 Z" />
          </g>
          <g
             style="stroke-width:1.10134947"
             transform="translate(261.5547,678.4971)"
             id="g4440">
            <path
               inkscape:connector-curvature="0"
               id="path4442"
               style="fill:#ffffff;fill-opacity:1;fill-rule:evenodd;stroke:none;stroke-width:1.10134947"
               d="m 0,0 c 0.052,-0.561 0.145,-1.141 -0.593,-1.359 l 0.039,-0.036 c 0.201,0.453 0.401,0.905 0.598,1.359 z" />
          </g>
          <g
             style="stroke-width:1.10134947"
             transform="translate(272.0303,613.627)"
             id="g4444">
            <path
               inkscape:connector-curvature="0"
               id="path4446"
               style="fill:#ffffff;fill-opacity:1;fill-rule:evenodd;stroke:none;stroke-width:1.10134947"
               d="M 0,0 C -2.098,0.298 -2.352,2.014 -2.479,3.57 -2.608,5.178 -1.174,5.654 0.045,6.111 4.421,7.748 11.661,5.521 14.385,1.723 16.443,-1.146 15.83,-3.141 12.338,-3.965 8.86,-4.785 5.41,-4.698 2.593,-1.95 L 2.551,-1.997 c 1.027,-0.309 2.06,-0.604 3.082,-0.932 2.199,-0.707 4.441,-0.823 6.697,-0.419 0.586,0.105 1.343,0.39 1.142,1.235 -0.145,0.603 -0.663,0.648 -1.279,0.525 C 7.552,-2.521 3.784,-0.806 0.529,2.369 0.068,2.82 -0.367,3.482 -1.057,2.96 -1.693,2.474 -1.339,1.774 -1.018,1.222 -0.752,0.765 -0.373,0.374 -0.043,-0.047 Z" />
          </g>
          <g
             style="stroke-width:1.10134947"
             transform="translate(274.623,611.6768)"
             id="g4448">
            <path
               inkscape:connector-curvature="0"
               id="path4450"
               style="fill:#ffffff;fill-opacity:1;fill-rule:evenodd;stroke:none;stroke-width:1.10134947"
               d="M 0,0 C -1.37,-0.022 -2.485,0.293 -2.593,1.95 L -2.636,1.903 c 0.865,-0.649 1.729,-1.299 2.594,-1.95 z" />
          </g>
          <g
             style="stroke-width:1.10134947"
             transform="translate(328.3154,677.7646)"
             id="g4452">
            <path
               inkscape:connector-curvature="0"
               id="path4454"
               style="fill:#ffffff;fill-opacity:1;fill-rule:evenodd;stroke:none;stroke-width:1.10134947"
               d="m 0,0 c -3.433,-2.151 -6.676,-4.154 -10.848,-3.273 -1.093,0.23 -1.593,0.325 -1.117,1.505 C -10.496,1.871 -2.856,3.111 0,0" />
          </g>
          <g
             style="stroke-width:1.10134947"
             transform="translate(304.4453,605.2002)"
             id="g4456">
            <path
               inkscape:connector-curvature="0"
               id="path4458"
               style="fill:#ffffff;fill-opacity:1;fill-rule:evenodd;stroke:none;stroke-width:1.10134947"
               d="m 0,0 c -0.242,-1.502 -0.96,-2.759 -2.565,-2.803 -1.709,-0.047 -2.152,1.508 -2.663,2.804 -1.145,2.905 -0.521,5.681 0.735,8.362 0.525,1.126 1.531,1.899 2.779,1.88 C -0.477,10.224 0.053,9.083 0.434,8.106 1.515,5.338 1.979,2.558 -0.044,-0.051 -0.113,2.983 1.349,6.288 -1.636,8.888 0.471,5.102 -1.03,1.66 -2.679,-1.724 -0.995,-2.014 -1.062,-0.25 0,0" />
          </g>
          <g
             style="stroke-width:1.10134947"
             transform="translate(302.6768,628.8457)"
             id="g4460">
            <path
               inkscape:connector-curvature="0"
               id="path4462"
               style="fill:#ffffff;fill-opacity:1;fill-rule:evenodd;stroke:none;stroke-width:1.10134947"
               d="M 0,0 C -2.656,-1.191 -5.258,-2.405 -8.235,-0.994 -9.379,-0.452 -9.785,0.038 -8.67,1.057 -6.406,3.126 -1.871,2.628 0,0" />
          </g>
          <g
             style="stroke-width:1.10134947"
             transform="translate(259.2051,626.8506)"
             id="g4464">
            <path
               inkscape:connector-curvature="0"
               id="path4466"
               style="fill:#ffffff;fill-opacity:1;fill-rule:evenodd;stroke:none;stroke-width:1.10134947"
               d="m 0,0 c -0.09,-3.492 -1.966,-5.096 -4.12,-6.331 -1.109,-0.637 -1.176,0.672 -1.114,1.252 0.264,2.499 1.678,4.347 3.778,5.594 C -0.277,1.215 -0.007,0.32 0,0" />
          </g>
          <g
             style="stroke-width:1.10134947"
             transform="translate(323.5771,614.2979)"
             id="g4468">
            <path
               inkscape:connector-curvature="0"
               id="path4470"
               style="fill:#ffffff;fill-opacity:1;fill-rule:evenodd;stroke:none;stroke-width:1.10134947"
               d="M 0,0 C 2.415,-2.071 3.47,-4.124 2.609,-7.076 -0.292,-5.546 -0.78,-3.271 0,0" />
          </g>
          <g
             style="stroke-width:1.10134947"
             transform="translate(287.21,685.1006)"
             id="g4472">
            <path
               inkscape:connector-curvature="0"
               id="path4474"
               style="fill:#ffffff;fill-opacity:1;fill-rule:evenodd;stroke:none;stroke-width:1.10134947"
               d="M 0,0 C -2.897,-1.825 -4.625,-1.494 -6.822,1.471 -4.184,2.14 -1.914,2.195 0,0" />
          </g>
          <g
             style="stroke-width:1.10134947"
             transform="translate(341.4297,644.2012)"
             id="g4476">
            <path
               inkscape:connector-curvature="0"
               id="path4478"
               style="fill:#ffffff;fill-opacity:1;fill-rule:evenodd;stroke:none;stroke-width:1.10134947"
               d="M 0,0 C 2.359,0.119 3.124,-1.25 3.528,-3.399 1.349,-3.112 0.206,-2.139 0,0" />
          </g>
          <g
             style="stroke-width:1.10134947"
             transform="translate(303.7783,689.4277)"
             id="g4480">
            <path
               inkscape:connector-curvature="0"
               id="path4482"
               style="fill:#ffffff;fill-opacity:1;fill-rule:evenodd;stroke:none;stroke-width:1.10134947"
               d="M 0,0 C 0.037,0.306 0.115,0.613 0.104,0.918 0.072,1.793 -1.167,2.616 -0.027,3.519 0.109,3.626 0.581,3.487 0.773,3.321 1.686,2.532 2.695,1.578 2.446,0.351 2.033,-1.69 0.719,0.905 -0.037,0.038 Z" />
          </g>
          <g
             style="stroke-width:1.10134947"
             transform="translate(246.0947,637.5566)"
             id="g4484">
            <path
               inkscape:connector-curvature="0"
               id="path4486"
               style="fill:#ffffff;fill-opacity:1;fill-rule:evenodd;stroke:none;stroke-width:1.10134947"
               d="M 0,0 C 0.108,0.668 -1.238,1.516 -0.15,1.888 1.499,2.454 2.629,1.377 3.426,-0.085 2.171,-1.404 1.095,0.194 -0.045,0.041 Z" />
          </g>
          <g
             style="stroke-width:1.10134947"
             transform="translate(335.6416,664.292)"
             id="g4488">
            <path
               inkscape:connector-curvature="0"
               id="path4490"
               style="fill:#ffffff;fill-opacity:1;fill-rule:evenodd;stroke:none;stroke-width:1.10134947"
               d="M 0,0 C -0.212,0.208 -0.424,0.416 -0.635,0.625 -1.112,1.881 -1.923,3.09 -1.207,4.533 1.299,2.637 1.574,1.588 0,0" />
          </g>
          <g
             style="stroke-width:1.10134947"
             transform="translate(253.1885,651.835)"
             id="g4492">
            <path
               inkscape:connector-curvature="0"
               id="path4494"
               style="fill:#ffffff;fill-opacity:1;fill-rule:evenodd;stroke:none;stroke-width:1.10134947"
               d="M 0,0 C -0.209,0.654 -0.654,1.076 -1.293,1.305 0.891,3.811 1.871,0.729 3.706,0.672 2.415,-1.386 1.119,0.355 0,0" />
          </g>
          <g
             style="stroke-width:1.10134947"
             transform="translate(277.5605,639.376)"
             id="g4496">
            <path
               inkscape:connector-curvature="0"
               id="path4498"
               style="fill:#cd1419;fill-opacity:1;fill-rule:evenodd;stroke:none;stroke-width:1.10134947"
               d="m 0,0 c -1.116,0.151 -3.194,-0.322 -3.322,1.301 -0.13,1.642 1.218,2.986 3.265,3.319 8.357,1.359 17.957,10.532 19.752,18.825 0.233,1.075 0.287,2.02 1.432,2.657 2.211,1.227 3.077,0.826 3.227,-1.703 0.125,-2.098 -0.462,-4.012 -1.336,-5.903 C 19.74,11.406 14.423,6.207 7.88,2.188 5.573,0.771 2.976,-0.005 0,0" />
          </g>
          <g
             style="stroke-width:1.10134947"
             transform="translate(329.0801,642.71)"
             id="g4500">
            <path
               inkscape:connector-curvature="0"
               id="path4502"
               style="fill:#cd1419;fill-opacity:1;fill-rule:evenodd;stroke:none;stroke-width:1.10134947"
               d="m 0,0 c 0.077,-2.943 -0.676,-5.94 -1.732,-8.904 -0.463,-1.297 -1.259,-2.241 -2.329,-2.991 -0.622,-0.436 -1.41,-0.812 -2.001,-0.022 -0.465,0.618 -0.488,1.31 0.082,2.042 4.436,5.711 4.371,11.829 1.422,18.106 -0.507,1.082 -1.052,2.188 0.099,2.806 1.152,0.619 1.959,-0.623 2.443,-1.481 C -0.392,6.674 0.062,3.496 0,0" />
          </g>
          <g
             style="stroke-width:1.10134947"
             transform="translate(274.5811,611.6299)"
             id="g4504">
            <path
               inkscape:connector-curvature="0"
               id="path4506"
               style="fill:#cd1419;fill-opacity:1;fill-rule:evenodd;stroke:none;stroke-width:1.10134947"
               d="m 0,0 c -0.865,0.651 -1.729,1.301 -2.594,1.95 -0.33,0.421 -0.709,0.812 -0.974,1.269 -0.322,0.552 -0.676,1.252 -0.039,1.738 0.689,0.522 1.125,-0.14 1.586,-0.591 3.254,-3.175 7.022,-4.89 11.664,-3.957 0.615,0.123 1.133,0.078 1.278,-0.525 0.201,-0.845 -0.556,-1.13 -1.142,-1.235 C 7.523,-1.755 5.281,-1.639 3.082,-0.932 2.061,-0.604 1.027,-0.309 0,0" />
          </g>
          <g
             style="stroke-width:1.10134947"
             transform="translate(304.4453,605.2002)"
             id="g4508">
            <path
               inkscape:connector-curvature="0"
               id="path4510"
               style="fill:#cd1419;fill-opacity:1;fill-rule:evenodd;stroke:none;stroke-width:1.10134947"
               d="m 0,0 c -1.062,-0.25 -0.995,-2.014 -2.679,-1.724 1.649,3.384 3.15,6.826 1.043,10.612 2.985,-2.6 1.523,-5.905 1.592,-8.939 z" />
          </g>
        </g>
      </g>
    </g>
  </g>
</svg>
