<?xml version="1.0" encoding="UTF-8" standalone="no"?>
<!-- Created with Inkscape (http://www.inkscape.org/) -->

<svg
   xmlns:dc="http://purl.org/dc/elements/1.1/"
   xmlns:cc="http://creativecommons.org/ns#"
   xmlns:rdf="http://www.w3.org/1999/02/22-rdf-syntax-ns#"
   xmlns:svg="http://www.w3.org/2000/svg"
   xmlns="http://www.w3.org/2000/svg"
   xmlns:sodipodi="http://sodipodi.sourceforge.net/DTD/sodipodi-0.dtd"
   xmlns:inkscape="http://www.inkscape.org/namespaces/inkscape"
   width="17.78863mm"
   height="23.781219mm"
   viewBox="0 0 17.788629 23.781219"
   version="1.1"
   id="svg10743"
   inkscape:version="0.92.5 (2060ec1f9f, 2020-04-08)"
   sodipodi:docname="descarga-herramientas-2.4.a-cirugia.svg">
  <defs
     id="defs10737">
    <filter
       style="color-interpolation-filters:sRGB"
       id="filter18884-3-5-5"
       x="-0.057991955"
       width="1.1159838"
       y="-0.040945187"
       height="1.0818903">
      <feGaussianBlur
         stdDeviation="5.2205081"
         id="feGaussianBlur18886-6-6-3" />
    </filter>
    <clipPath
       clipPathUnits="userSpaceOnUse"
       id="clipPath2464">
      <path
         d="M 0,3600.894 H 2218.326 V 0 H 0 Z"
         id="path2462"
         inkscape:connector-curvature="0" />
    </clipPath>
    <clipPath
       clipPathUnits="userSpaceOnUse"
       id="clipPath2572">
      <path
         d="m 897.596,2519.35 h 27.821 v -4.09 h -27.821 z"
         id="path2570"
         inkscape:connector-curvature="0" />
    </clipPath>
    <clipPath
       clipPathUnits="userSpaceOnUse"
       id="clipPath2740">
      <path
         d="m 1189.21,2523.6 h 2.16 v -1.59 h -2.16 z"
         id="path2738"
         inkscape:connector-curvature="0" />
    </clipPath>
  </defs>
  <sodipodi:namedview
     id="base"
     pagecolor="#ffffff"
     bordercolor="#666666"
     borderopacity="1.0"
     inkscape:pageopacity="0.0"
     inkscape:pageshadow="2"
     inkscape:zoom="4.9421325"
     inkscape:cx="37.769683"
     inkscape:cy="42.468475"
     inkscape:document-units="mm"
     inkscape:current-layer="layer1"
     showgrid="false"
     fit-margin-top="0"
     fit-margin-left="0"
     fit-margin-right="0"
     fit-margin-bottom="0"
     inkscape:window-width="1440"
     inkscape:window-height="825"
     inkscape:window-x="0"
     inkscape:window-y="0"
     inkscape:window-maximized="1" />
  <metadata
     id="metadata10740">
    <rdf:RDF>
      <cc:Work
         rdf:about="">
        <dc:format>image/svg+xml</dc:format>
        <dc:type
           rdf:resource="http://purl.org/dc/dcmitype/StillImage" />
        <dc:title></dc:title>
      </cc:Work>
    </rdf:RDF>
  </metadata>
  <g
     inkscape:label="Capa 1"
     inkscape:groupmode="layer"
     id="layer1"
     transform="translate(-96.764461,-131.52471)">
    <path
       d="M 114.55309,155.30593 H 96.764461 v -23.78122 h 17.788629 z"
       style="fill:#e088b7;fill-opacity:1;fill-rule:nonzero;stroke:none;stroke-width:0.09519388"
       id="path914"
       inkscape:connector-curvature="0" />
    <g
       id="g2800"
       transform="matrix(0.93300667,0,0,0.93300667,7.2783888,8.9224887)">
      <g
         transform="matrix(0.0791211,0,0,-0.0791211,101.47955,139.84997)"
         id="g2650">
        <path
           inkscape:connector-curvature="0"
           id="path2652"
           style="fill:#f9c0a4;fill-opacity:1;fill-rule:nonzero;stroke:none"
           d="m 0,0 c 0.792,-10.799 -7.32,-20.195 -18.119,-20.988 -10.799,-0.791 -20.195,7.321 -20.988,18.119 -0.79,10.799 7.32,20.196 18.12,20.988 C -10.188,18.911 -0.793,10.799 0,0" />
      </g>
      <g
         transform="matrix(0.0791211,0,0,-0.0791211,101.6578,135.93692)"
         id="g2654">
        <path
           inkscape:connector-curvature="0"
           id="path2656"
           style="fill:#f9c0a4;fill-opacity:1;fill-rule:nonzero;stroke:none"
           d="m 0,0 c -1.591,-23.992 -2.308,-44.707 -2.253,-49.457 l -39.107,-2.868 c 0,0 -2.283,32.091 -2.304,64.404 C -29.226,7.043 -14.971,1.605 0,0" />
      </g>
      <g
         transform="matrix(0.0791211,0,0,-0.0791211,100.96433,135.40069)"
         id="g2658">
        <path
           inkscape:connector-curvature="0"
           id="path2660"
           style="fill:#bb5996;fill-opacity:1;fill-rule:nonzero;stroke:none"
           d="m 0,0 c -2.558,-1.183 -5.286,-1.899 -8.118,-2.132 -6.394,-0.529 -12.612,1.465 -17.509,5.613 -4.894,4.154 -7.882,9.958 -8.405,16.356 -0.828,10.008 4.741,19.565 13.85,23.781 2.558,1.183 5.286,1.9 8.117,2.134 13.2,1.089 24.826,-8.766 25.919,-21.968 C 14.677,13.773 9.109,4.216 0,0" />
      </g>
      <g
         transform="matrix(0.0791211,0,0,-0.0791211,99.613406,137.35411)"
         id="g2662">
        <path
           inkscape:connector-curvature="0"
           id="path2664"
           style="fill:#e93c88;fill-opacity:1;fill-rule:nonzero;stroke:none"
           d="m 0,0 c 8.859,0.302 17.875,-0.111 26.781,0.304 0.945,14.477 2.213,29.554 3.88,42.222 l 0.337,2.554 -47.019,8.716 -0.548,-2.59 C -19.229,38.647 -19.785,18.59 -19.51,-0.901 -13.008,-0.551 -6.506,-0.223 0,0" />
      </g>
      <g
         transform="matrix(0.0791211,0,0,-0.0791211,100.22999,141.48761)"
         id="g2666">
        <path
           inkscape:connector-curvature="0"
           id="path2668"
           style="fill:#f9c0a4;fill-opacity:1;fill-rule:nonzero;stroke:none"
           d="M 0,0 C 10.66,1.897 17.765,12.078 15.867,22.738 13.969,33.399 3.79,40.502 -6.871,38.605 -17.531,36.708 -24.636,26.528 -22.738,15.867 -20.841,5.207 -10.662,-1.898 0,0" />
      </g>
      <g
         transform="matrix(0.0791211,0,0,-0.0791211,108.05811,139.18397)"
         id="g2670">
        <path
           inkscape:connector-curvature="0"
           id="path2672"
           style="fill:#f9c0a4;fill-opacity:1;fill-rule:nonzero;stroke:none"
           d="M 0,0 C 5.527,0.984 9.213,6.264 8.23,11.792 7.245,17.32 1.964,21.005 -3.563,20.022 -9.091,19.038 -12.776,13.757 -11.791,8.229 -10.809,2.7 -5.528,-0.984 0,0" />
      </g>
      <g
         transform="matrix(0.0791211,0,0,-0.0791211,108.05811,139.18397)"
         id="g2674">
        <path
           inkscape:connector-curvature="0"
           id="path2676"
           style="fill:#f9c0a4;fill-opacity:1;fill-rule:nonzero;stroke:none"
           d="m 0,0 c -13.056,-1.157 -40.741,-11.305 -63.639,-19.104 -22.057,-7.511 -35.299,-10.011 -35.299,-10.011 L -105.81,9.49 -1.225,20.159 Z" />
      </g>
      <g
         transform="matrix(0.0791211,0,0,-0.0791211,107.7781,137.79275)"
         id="g2678">
        <path
           inkscape:connector-curvature="0"
           id="path2680"
           style="fill:#f9c0a4;fill-opacity:1;fill-rule:nonzero;stroke:none"
           d="m 0,0 c 2.478,1.573 7.156,13.058 10.769,19.787 3.611,6.73 9.614,11.677 11.543,10.352 2.969,-2.036 -11.102,-15.268 0.033,-14.326 1.44,0.122 2.803,0.697 4.07,1.405 1.637,0.917 3.1,2.114 4.424,3.444 l 19.752,19.835 c 1.013,1.017 2.418,2.12 3.731,1.541 1.366,-0.603 1.431,-2.581 0.793,-3.933 -0.636,-1.351 -1.742,-2.495 -2.071,-3.952 -0.496,-2.197 0.904,-4.405 0.814,-6.657 -0.146,-3.777 -4.141,-6.055 -6.203,-9.222 -1.281,-1.966 -1.813,-4.31 -2.651,-6.501 C 43.921,8.946 42.314,6.353 40.719,3.78 38.276,-0.158 35.91,-6.514 32.185,-9.251 c -2.136,-1.568 -5.219,-2.646 -7.651,-3.691 -1.086,-0.467 -4.306,-1 -6.201,-1.652 C 16.86,-15.1 15.384,-15.566 13.851,-15.833 9.626,-16.568 2.728,-17.77 2.717,-17.712 2.717,-17.7 0,0 0,0" />
      </g>
      <g
         transform="matrix(0.0791211,0,0,-0.0791211,107.7781,137.79275)"
         id="g2682">
        <path
           inkscape:connector-curvature="0"
           id="path2684"
           style="fill:#f9c0a4;fill-opacity:1;fill-rule:nonzero;stroke:none"
           d="m 0,0 c 4.831,1.159 9.685,-1.818 10.844,-6.649 1.159,-4.83 -1.819,-9.685 -6.652,-10.843 -4.83,-1.159 -9.684,1.819 -10.84,6.65 C -7.807,-6.012 -4.83,-1.157 0,0" />
      </g>
    </g>
    <g
       transform="matrix(0.93300667,0,0,0.93300667,7.2783888,18.891611)"
       id="g2838">
      <g
         id="g2804"
         transform="matrix(0.0791211,0,0,-0.0791211,101.47955,139.84997)">
        <path
           d="m 0,0 c 0.792,-10.799 -7.32,-20.195 -18.119,-20.988 -10.799,-0.791 -20.195,7.321 -20.988,18.119 -0.79,10.799 7.32,20.196 18.12,20.988 C -10.188,18.911 -0.793,10.799 0,0"
           style="fill:#f9c0a4;fill-opacity:1;fill-rule:nonzero;stroke:none"
           id="path2802"
           inkscape:connector-curvature="0" />
      </g>
      <g
         id="g2808"
         transform="matrix(0.0791211,0,0,-0.0791211,101.6578,135.93692)">
        <path
           d="m 0,0 c -1.591,-23.992 -2.308,-44.707 -2.253,-49.457 l -39.107,-2.868 c 0,0 -2.283,32.091 -2.304,64.404 C -29.226,7.043 -14.971,1.605 0,0"
           style="fill:#f9c0a4;fill-opacity:1;fill-rule:nonzero;stroke:none"
           id="path2806"
           inkscape:connector-curvature="0" />
      </g>
      <g
         id="g2812"
         transform="matrix(0.0791211,0,0,-0.0791211,100.96433,135.40069)">
        <path
           d="m 0,0 c -2.558,-1.183 -5.286,-1.899 -8.118,-2.132 -6.394,-0.529 -12.612,1.465 -17.509,5.613 -4.894,4.154 -7.882,9.958 -8.405,16.356 -0.828,10.008 4.741,19.565 13.85,23.781 2.558,1.183 5.286,1.9 8.117,2.134 13.2,1.089 24.826,-8.766 25.919,-21.968 C 14.677,13.773 9.109,4.216 0,0"
           style="fill:#bb5996;fill-opacity:1;fill-rule:nonzero;stroke:none"
           id="path2810"
           inkscape:connector-curvature="0" />
      </g>
      <g
         id="g2816"
         transform="matrix(0.0791211,0,0,-0.0791211,99.613406,137.35411)">
        <path
           d="m 0,0 c 8.859,0.302 17.875,-0.111 26.781,0.304 0.945,14.477 2.213,29.554 3.88,42.222 l 0.337,2.554 -47.019,8.716 -0.548,-2.59 C -19.229,38.647 -19.785,18.59 -19.51,-0.901 -13.008,-0.551 -6.506,-0.223 0,0"
           style="fill:#e93c88;fill-opacity:1;fill-rule:nonzero;stroke:none"
           id="path2814"
           inkscape:connector-curvature="0" />
      </g>
      <g
         id="g2820"
         transform="matrix(0.0791211,0,0,-0.0791211,100.22999,141.48761)">
        <path
           d="M 0,0 C 10.66,1.897 17.765,12.078 15.867,22.738 13.969,33.399 3.79,40.502 -6.871,38.605 -17.531,36.708 -24.636,26.528 -22.738,15.867 -20.841,5.207 -10.662,-1.898 0,0"
           style="fill:#f9c0a4;fill-opacity:1;fill-rule:nonzero;stroke:none"
           id="path2818"
           inkscape:connector-curvature="0" />
      </g>
      <g
         id="g2824"
         transform="matrix(0.0791211,0,0,-0.0791211,108.05811,139.18397)">
        <path
           d="M 0,0 C 5.527,0.984 9.213,6.264 8.23,11.792 7.245,17.32 1.964,21.005 -3.563,20.022 -9.091,19.038 -12.776,13.757 -11.791,8.229 -10.809,2.7 -5.528,-0.984 0,0"
           style="fill:#f9c0a4;fill-opacity:1;fill-rule:nonzero;stroke:none"
           id="path2822"
           inkscape:connector-curvature="0" />
      </g>
      <g
         id="g2828"
         transform="matrix(0.0791211,0,0,-0.0791211,108.05811,139.18397)">
        <path
           d="M 0,0 C -11.135923,-8.1972824 -38.820923,-14.825141 -61.718923,-22.624141 -83.775923,-30.135141 -98.938,-29.115 -98.938,-29.115 c 0,0 -21.36335,19.402887 -6.872,38.605 14.49135,19.202113 88.666438,24.192306 104.585,10.669 C 14.693562,6.6356937 0,0 0,0 Z"
           style="fill:#f9c0a4;fill-opacity:1;fill-rule:nonzero;stroke:none"
           id="path2826"
           inkscape:connector-curvature="0"
           sodipodi:nodetypes="ccczzc" />
      </g>
      <g
         id="g2832"
         transform="matrix(0.0791211,0,0,-0.0791211,107.7781,137.79275)">
        <path
           d="m 0,0 c 2.478,1.573 7.156,13.058 10.769,19.787 3.611,6.73 9.614,11.677 11.543,10.352 2.969,-2.036 -11.102,-15.268 0.033,-14.326 1.44,0.122 2.803,0.697 4.07,1.405 1.637,0.917 3.1,2.114 4.424,3.444 l 19.752,19.835 c 1.013,1.017 2.418,2.12 3.731,1.541 1.366,-0.603 1.431,-2.581 0.793,-3.933 -0.636,-1.351 -1.742,-2.495 -2.071,-3.952 -0.496,-2.197 0.904,-4.405 0.814,-6.657 -0.146,-3.777 -4.141,-6.055 -6.203,-9.222 -1.281,-1.966 -1.813,-4.31 -2.651,-6.501 C 43.921,8.946 42.314,6.353 40.719,3.78 38.276,-0.158 35.91,-6.514 32.185,-9.251 c -2.136,-1.568 -5.219,-2.646 -7.651,-3.691 -1.086,-0.467 -4.306,-1 -6.201,-1.652 C 16.86,-15.1 15.384,-15.566 13.851,-15.833 9.626,-16.568 2.728,-17.77 2.717,-17.712 2.717,-17.7 0,0 0,0"
           style="fill:#f9c0a4;fill-opacity:1;fill-rule:nonzero;stroke:none"
           id="path2830"
           inkscape:connector-curvature="0" />
      </g>
      <g
         id="g2836"
         transform="matrix(0.0791211,0,0,-0.0791211,107.7781,137.79275)">
        <path
           d="m 0,0 c 4.831,1.159 9.685,-1.818 10.844,-6.649 1.159,-4.83 -1.819,-9.685 -6.652,-10.843 -4.83,-1.159 -9.684,1.819 -10.84,6.65 C -7.807,-6.012 -4.83,-1.157 0,0"
           style="fill:#f9c0a4;fill-opacity:1;fill-rule:nonzero;stroke:none"
           id="path2834"
           inkscape:connector-curvature="0" />
      </g>
    </g>
  </g>
</svg>
