<?xml version="1.0" encoding="UTF-8" standalone="no"?>
<!-- Created with Inkscape (http://www.inkscape.org/) -->

<svg
   xmlns:dc="http://purl.org/dc/elements/1.1/"
   xmlns:cc="http://creativecommons.org/ns#"
   xmlns:rdf="http://www.w3.org/1999/02/22-rdf-syntax-ns#"
   xmlns:svg="http://www.w3.org/2000/svg"
   xmlns="http://www.w3.org/2000/svg"
   xmlns:sodipodi="http://sodipodi.sourceforge.net/DTD/sodipodi-0.dtd"
   xmlns:inkscape="http://www.inkscape.org/namespaces/inkscape"
   width="52.916668mm"
   height="69.021759mm"
   viewBox="0 0 52.916668 69.021759"
   version="1.1"
   id="svg873"
   inkscape:version="0.92.5 (2060ec1f9f, 2020-04-08)"
   sodipodi:docname="descarga-herramientas-2.4.c-cirugia.svg">
  <defs
     id="defs867">
    <clipPath
       clipPathUnits="userSpaceOnUse"
       id="clipPath6230">
      <path
         d="M 0,5252.125 H 1438.284 V 0 H 0 Z"
         id="path6228"
         inkscape:connector-curvature="0" />
    </clipPath>
  </defs>
  <sodipodi:namedview
     id="base"
     pagecolor="#ffffff"
     bordercolor="#666666"
     borderopacity="1.0"
     inkscape:pageopacity="0.0"
     inkscape:pageshadow="2"
     inkscape:zoom="0.88730469"
     inkscape:cx="-28.646954"
     inkscape:cy="38.576599"
     inkscape:document-units="mm"
     inkscape:current-layer="layer1"
     showgrid="false"
     fit-margin-top="0"
     fit-margin-left="0"
     fit-margin-right="0"
     fit-margin-bottom="0"
     inkscape:window-width="1440"
     inkscape:window-height="825"
     inkscape:window-x="0"
     inkscape:window-y="0"
     inkscape:window-maximized="1" />
  <metadata
     id="metadata870">
    <rdf:RDF>
      <cc:Work
         rdf:about="">
        <dc:format>image/svg+xml</dc:format>
        <dc:type
           rdf:resource="http://purl.org/dc/dcmitype/StillImage" />
        <dc:title></dc:title>
      </cc:Work>
    </rdf:RDF>
  </metadata>
  <g
     inkscape:label="Capa 1"
     inkscape:groupmode="layer"
     id="layer1"
     transform="translate(-59.589962,-90.018303)">
    <g
       id="g1473"
       transform="matrix(2.9420361,0,0,2.9420361,-115.72586,-308.86151)"
       style="stroke-width:0.33990067">
      <path
         inkscape:connector-curvature="0"
         id="path1438"
         style="fill:#f97ca9;fill-opacity:1;fill-rule:nonzero;stroke:none;stroke-width:0.03322607"
         d="m 77.576373,159.04005 h -17.98641 v -23.46054 h 17.98641 z" />
      <g
         id="g6224"
         transform="matrix(0.09775228,0,0,-0.09775228,38.483897,200.58712)"
         style="stroke-width:0.33990067">
        <g
           clip-path="url(#clipPath6230)"
           id="g6226"
           style="stroke-width:0.33990067">
          <g
             transform="translate(348.418,547.7344)"
             id="g6232"
             style="stroke-width:0.33990067">
            <path
               inkscape:connector-curvature="0"
               id="path6234"
               style="fill:#ffffff;fill-opacity:1;fill-rule:nonzero;stroke:none;stroke-width:0.33990067"
               d="m 0,0 c -0.107,0.265 -0.22,0.526 -0.336,0.786 -0.002,0.004 -0.002,0.005 -0.005,0.009 -0.434,0.971 -0.935,1.911 -1.509,2.809 -0.424,0.669 -0.853,1.332 -1.202,2.04 0.025,0.535 0.053,1.132 0.075,1.687 0.014,0.321 0.025,0.627 0.034,0.899 0.002,0.019 0.002,0.037 0.003,0.054 10e-4,0.054 0.002,0.108 0.004,0.157 10e-4,0.04 10e-4,0.08 0.002,0.117 0,0.021 0.002,0.041 0.002,0.061 10e-4,0.056 0.002,0.11 0.004,0.159 0.735,8.061 -1.51,16.093 -1.51,16.093 0,0 -0.041,5.722 -0.138,7.786 -0.224,4.701 -0.611,7.661 -0.611,7.661 -1.083,3.759 -3.376,4.42 -5.113,4.74 -0.013,0.003 -0.025,0.005 -0.038,0.007 0.003,0.023 0.007,0.045 0.01,0.069 -0.011,0.003 -0.018,0.006 -0.028,0.009 l -0.913,0.132 c 0,0 -0.031,-0.007 -0.072,-0.026 -0.024,0.005 -0.05,0.01 -0.073,0.015 -0.027,0.007 -0.056,0.011 -0.082,0.018 -1.514,0.367 -3.262,0.991 -4.272,1.748 0.097,0.152 0.174,0.317 0.234,0.489 0.09,0.264 0.085,0.553 0.032,0.839 0.004,-10e-4 0.008,-10e-4 0.013,-0.003 0.005,-0.04 0.01,-0.08 0.014,-0.122 10e-4,-0.013 0.022,-0.007 0.022,0.005 10e-4,0.036 0,0.073 -0.002,0.108 0.119,-0.032 0.24,-0.041 0.366,-0.014 0.042,0.009 0.083,0.02 0.122,0.034 0.008,0.002 0.017,0.006 0.025,0.01 0.03,0.01 0.059,0.021 0.087,0.035 0.01,0.003 0.02,0.01 0.03,0.015 0.025,0.012 0.052,0.025 0.076,0.04 0.012,0.006 0.022,0.014 0.034,0.022 0.022,0.014 0.042,0.027 0.063,0.042 0.013,0.009 0.026,0.021 0.04,0.032 0.015,0.013 0.033,0.026 0.049,0.042 0.015,0.013 0.029,0.027 0.043,0.042 0.014,0.012 0.026,0.025 0.04,0.04 0.015,0.014 0.029,0.034 0.043,0.05 0.01,0.013 0.021,0.025 0.031,0.037 0.015,0.02 0.029,0.042 0.045,0.064 0.007,0.01 0.013,0.019 0.021,0.03 0.016,0.025 0.029,0.05 0.045,0.076 0.005,0.007 0.01,0.015 0.015,0.024 0.014,0.027 0.028,0.055 0.042,0.086 0.003,0.005 0.007,0.011 0.008,0.017 0.015,0.032 0.027,0.064 0.041,0.097 10e-4,0.003 0.002,0.006 0.003,0.011 0.013,0.034 0.026,0.068 0.036,0.102 0,0.003 0.001,0.005 0.002,0.008 0.01,0.036 0.02,0.071 0.028,0.108 10e-4,10e-4 10e-4,0.002 0.002,0.005 0.009,0.036 0.015,0.072 0.021,0.107 0,0.004 0,0.005 10e-4,0.009 0.006,0.033 0.01,0.068 0.014,0.103 0,0.004 0.002,0.008 0.002,0.011 0.002,0.033 0.005,0.065 0.006,0.098 0.002,0.004 0.002,0.009 0.002,0.015 v -0.002 c 0,0.011 10e-4,0.019 10e-4,0.029 10e-4,0.046 -0.05,0.042 -0.075,0.016 -0.152,-0.156 -0.175,-0.402 -0.408,-0.483 -0.495,-0.168 -0.949,0.322 -0.938,0.757 0.015,0.552 0.342,0.996 0.73,1.367 0.076,0.073 0.157,0.143 0.237,0.211 0.008,0.007 0.019,0.016 0.027,0.023 0.08,0.068 0.162,0.133 0.24,0.194 0.455,0.361 0.92,0.686 1.322,1.11 0.381,0.398 0.545,0.928 0.727,1.431 0.184,0.506 0.234,1.047 0.165,1.572 0.082,0.156 0.145,0.326 0.205,0.479 0.052,0.139 0.11,0.272 0.172,0.402 0.13,0.22 0.255,0.443 0.376,0.667 0.177,0.269 0.371,0.529 0.581,0.783 0.267,0.324 0.343,0.675 0.292,1.042 0.938,2.267 1.382,4.684 0.95,7.104 -0.124,0.699 -0.323,1.388 -0.607,2.059 -0.232,0.545 -0.616,1.058 -1.011,1.505 -0.121,0.138 -0.251,0.272 -0.382,0.403 -0.03,0.03 -0.059,0.058 -0.091,0.087 -0.115,0.111 -0.233,0.221 -0.355,0.325 -0.02,0.017 -0.039,0.032 -0.058,0.049 -0.617,0.521 -1.314,0.958 -2.073,1.271 -0.644,0.267 -1.365,0.501 -2.059,0.626 -1.961,0.353 -3.965,0.254 -5.844,-0.412 -1.255,-0.444 -2.687,-1.106 -3.722,-1.922 -2.535,-1.997 -3.651,-4.958 -3.368,-7.962 v -0.006 c 0.028,-0.297 0.07,-0.594 0.126,-0.891 0.006,-0.032 0.012,-0.063 0.017,-0.097 0.03,-0.141 0.059,-0.283 0.093,-0.425 0.223,-0.923 0.484,-1.867 0.823,-2.76 0.613,-1.613 1.638,-3.044 2.647,-4.456 0.485,-0.682 1.062,-1.312 1.522,-2.009 0.173,-0.264 0.384,-0.543 0.555,-0.837 0.079,-0.207 0.132,-0.42 0.176,-0.639 0.073,-0.14 0.132,-0.288 0.183,-0.44 -0.064,-0.56 -0.13,-1.149 -0.189,-1.725 -0.129,-1.241 -2.774,-2.324 -4.986,-2.877 h -10e-4 c -0.041,-0.009 -0.082,-0.02 -0.125,-0.031 -0.055,-0.013 -0.115,-0.024 -0.172,-0.037 -0.045,0.022 -0.082,0.03 -0.082,0.03 l -0.91,-0.132 c -0.01,-0.003 -0.019,-0.006 -0.03,-0.009 0.004,-0.025 0.007,-0.049 0.011,-0.073 -1.74,-0.32 -4.039,-0.975 -5.126,-4.743 0,0 -0.388,-2.96 -0.611,-7.661 -0.099,-2.064 -0.137,-7.786 -0.137,-7.786 0,0 -0.002,-0.003 -0.002,-0.007 0,-0.002 -10e-4,-0.002 -0.002,-0.004 -0.085,-0.308 -2.226,-8.179 -1.506,-16.082 0.012,-0.689 -0.076,-2.008 -0.15,-3.128 -0.351,-0.711 -0.78,-1.374 -1.207,-2.046 -0.728,-1.141 -1.341,-2.348 -1.85,-3.604 -0.474,-1.173 -0.291,-2.449 -0.312,-3.687 -0.01,-0.65 -0.016,-1.298 0.013,-1.943 0.045,-0.192 0.115,-0.447 0.31,-0.538 0.308,-0.144 0.558,0.151 0.665,0.371 0.087,0.173 0.147,0.353 0.194,0.536 0.183,-0.411 0.434,-0.683 0.772,-0.503 0.523,0.278 0.47,1.093 0.371,1.705 0.081,-0.186 0.174,-0.367 0.286,-0.541 0.248,-0.377 0.449,-0.242 0.649,0.065 0.132,0.205 0.141,0.72 0.116,0.947 -0.117,1.036 -0.218,1.954 -0.036,2.987 -0.03,-0.545 0.013,-1.085 0.156,-1.614 0.062,-0.492 0.198,-0.967 0.438,-1.41 0.019,-0.034 0.037,-0.064 0.056,-0.09 0.004,-0.007 0.01,-0.013 0.013,-0.019 0.018,-0.025 0.038,-0.047 0.056,-0.066 10e-4,0 10e-4,0 10e-4,-0.002 0.021,-0.018 0.04,-0.034 0.061,-0.046 10e-4,0 10e-4,-0.001 0.002,-0.001 0.151,-0.088 0.304,0.03 0.463,0.235 0.148,0.192 0.199,0.705 0.193,0.933 -0.033,1.074 -0.061,2.018 0.231,3.066 0.034,0.123 0.072,0.246 0.115,0.374 0.185,-0.848 -0.258,-2.168 0.667,-2.501 0.289,-0.107 0.767,-0.151 0.961,0.143 0.093,0.143 0.057,0.279 0.031,0.431 -0.183,1.1 -0.194,2.282 0.187,3.334 0.23,0.638 0.089,1.547 -0.07,2.28 0,0.006 10e-4,0.013 0.003,0.019 -0.008,0.023 -0.016,0.049 -0.022,0.074 -0.003,0.009 -0.005,0.019 -0.007,0.027 -0.01,0.032 -0.023,0.061 -0.031,0.092 -0.053,0.169 -0.11,0.338 -0.172,0.504 -0.065,0.15 -0.128,0.3 -0.193,0.45 0.046,0.716 0.185,1.617 0.374,2.569 0.131,0.651 0.285,1.326 0.45,1.981 0.003,0.015 0.007,0.028 0.01,0.043 0.035,0.141 0.072,0.276 0.108,0.413 0.008,0.033 0.017,0.066 0.026,0.099 0.031,0.117 0.063,0.233 0.094,0.349 0.01,0.038 0.021,0.077 0.033,0.114 0,0.004 0.002,0.008 0.002,0.012 0.031,0.108 0.061,0.212 0.092,0.318 0.008,0.032 0.017,0.066 0.027,0.098 0.006,0.018 0.011,0.035 0.015,0.051 0.038,0.132 0.077,0.263 0.116,0.388 0.802,2.613 1.915,6.607 1.879,12.453 0,0.729 0.451,2.239 0.75,3.971 10e-4,0.011 0.003,0.02 0.004,0.031 v 0.002 c 0.027,0.154 0.052,0.311 0.075,0.471 l 0.337,-1.844 c 0,0 0.056,-0.007 0.153,-0.018 0.009,-0.051 0.018,-0.103 0.027,-0.156 0.161,-0.975 0.339,-2.135 0.493,-3.311 0.385,-2.968 0.192,-4.33 -0.635,-6.861 -0.021,-0.059 -0.041,-0.122 -0.063,-0.185 -0.005,-0.016 -0.01,-0.03 -0.017,-0.045 -0.02,-0.057 -0.041,-0.116 -0.063,-0.176 -0.012,-0.031 -0.023,-0.061 -0.034,-0.092 -0.011,-0.025 -0.02,-0.052 -0.029,-0.076 -0.277,-0.733 -0.676,-1.708 -1.076,-3.009 -0.022,-0.043 -0.057,-0.117 -0.104,-0.216 -10e-4,-0.001 -10e-4,-0.003 -0.002,-0.005 -0.269,-0.578 -0.873,-1.989 -0.873,-3.008 0,0 -0.052,-0.461 -0.025,-1.192 -0.61,-3.965 -0.778,-9.575 0.491,-17.536 2.575,-14.158 3.607,-16.19 3.349,-17.752 -0.167,-1.016 -1.037,-4.519 -0.727,-10.373 v -0.019 c 0.012,-0.196 0.024,-0.396 0.037,-0.595 0.006,-0.08 0.009,-0.16 0.016,-0.24 0.012,-0.174 0.025,-0.353 0.041,-0.53 0.009,-0.111 0.017,-0.222 0.027,-0.338 0.014,-0.163 0.03,-0.331 0.046,-0.499 0.013,-0.131 0.026,-0.262 0.04,-0.396 0.017,-0.16 0.035,-0.322 0.054,-0.485 0.016,-0.147 0.034,-0.293 0.052,-0.442 0.019,-0.159 0.04,-0.318 0.06,-0.478 0.022,-0.159 0.042,-0.319 0.065,-0.48 0.022,-0.159 0.045,-0.316 0.068,-0.476 0.025,-0.17 0.051,-0.342 0.078,-0.515 0.026,-0.157 0.051,-0.314 0.077,-0.474 0.029,-0.181 0.061,-0.365 0.093,-0.549 0.028,-0.158 0.056,-0.312 0.083,-0.469 0.036,-0.196 0.075,-0.393 0.112,-0.59 0.031,-0.154 0.059,-0.307 0.09,-0.463 0.043,-0.211 0.088,-0.426 0.133,-0.64 0.031,-0.146 0.06,-0.293 0.092,-0.441 0.054,-0.243 0.11,-0.49 0.168,-0.736 0.027,-0.126 0.054,-0.248 0.085,-0.375 0.089,-0.376 0.18,-0.756 0.278,-1.142 0.034,-0.138 0.065,-0.274 0.096,-0.413 0.01,-0.043 0.017,-0.085 0.027,-0.128 0.021,-0.098 0.039,-0.196 0.059,-0.293 0.009,-0.047 0.018,-0.094 0.027,-0.142 0.019,-0.102 0.036,-0.205 0.054,-0.305 0.006,-0.039 0.013,-0.076 0.018,-0.115 0.023,-0.14 0.045,-0.281 0.065,-0.421 0.002,-0.016 0.003,-0.031 0.006,-0.045 0.017,-0.125 0.032,-0.251 0.046,-0.376 0.006,-0.044 0.01,-0.087 0.016,-0.129 0.012,-0.1 0.023,-0.201 0.031,-0.301 0.005,-0.045 0.01,-0.09 0.014,-0.136 0.01,-0.108 0.019,-0.215 0.027,-0.324 0.002,-0.031 0.005,-0.063 0.008,-0.095 0.01,-0.141 0.02,-0.281 0.028,-0.421 0.001,-0.022 0.001,-0.044 0.001,-0.069 0.008,-0.116 0.013,-0.232 0.017,-0.348 0.001,-0.041 0.004,-0.083 0.005,-0.124 0.004,-0.1 0.006,-0.2 0.008,-0.298 0.001,-0.041 0.001,-0.083 0.004,-0.122 0.001,-0.115 0.002,-0.228 0.002,-0.34 0,-0.023 0.001,-0.045 0.001,-0.067 0,-0.136 -0.001,-0.271 -0.003,-0.405 v -0.083 c -0.003,-0.105 -0.006,-0.209 -0.008,-0.312 -0.002,-0.04 -0.003,-0.081 -0.004,-0.121 -0.004,-0.094 -0.006,-0.188 -0.012,-0.282 -10e-4,-0.036 -0.002,-0.074 -0.005,-0.11 -0.005,-0.114 -0.01,-0.229 -0.016,-0.342 -0.002,-0.01 -0.002,-0.022 -0.003,-0.035 -0.008,-0.125 -0.017,-0.249 -0.026,-0.371 -0.002,-0.031 -0.004,-0.063 -0.006,-0.094 -0.008,-0.09 -0.016,-0.179 -0.024,-0.266 -0.002,-0.039 -0.006,-0.078 -0.01,-0.115 -0.006,-0.084 -0.015,-0.166 -0.024,-0.247 -0.003,-0.034 -0.007,-0.069 -0.011,-0.102 -0.01,-0.108 -0.021,-0.214 -0.034,-0.318 -0.001,-0.005 -0.001,-0.01 -0.003,-0.016 -0.013,-0.108 -0.025,-0.212 -0.04,-0.317 -0.005,-0.034 -0.009,-0.069 -0.014,-0.104 -0.008,-0.069 -0.018,-0.136 -0.028,-0.202 -0.006,-0.04 -0.012,-0.077 -0.017,-0.116 -0.009,-0.063 -0.021,-0.126 -0.031,-0.188 -0.005,-0.034 -0.01,-0.069 -0.016,-0.103 -0.014,-0.089 -0.029,-0.175 -0.045,-0.258 -0.004,-0.028 -0.008,-0.054 -0.014,-0.082 -0.012,-0.059 -0.022,-0.12 -0.035,-0.178 -0.007,-0.036 -0.014,-0.073 -0.021,-0.109 -0.01,-0.045 -0.018,-0.089 -0.027,-0.131 -0.009,-0.037 -0.017,-0.074 -0.024,-0.11 -0.002,-0.013 -0.006,-0.025 -0.008,-0.037 -0.004,-0.004 -0.008,-0.009 -0.012,-0.013 -0.168,-0.179 -0.343,-0.351 -0.522,-0.516 -0.015,-0.015 -0.033,-0.032 -0.048,-0.046 -0.082,-0.073 -0.167,-0.147 -0.25,-0.217 -0.039,-0.033 -0.077,-0.065 -0.117,-0.097 -0.09,-0.073 -0.18,-0.146 -0.271,-0.217 -0.099,-0.075 -0.197,-0.15 -0.299,-0.222 -0.052,-0.038 -0.107,-0.075 -0.161,-0.112 -0.09,-0.063 -0.18,-0.124 -0.271,-0.184 -0.045,-0.03 -0.088,-0.06 -0.133,-0.089 -0.138,-0.088 -0.277,-0.174 -0.416,-0.258 -0.018,-0.014 -0.033,-0.03 -0.051,-0.045 -0.019,-0.014 -0.039,-0.03 -0.059,-0.045 0.002,0 0.003,0 0.004,0 -0.622,-0.51 -1.297,-0.954 -2.033,-1.253 -0.781,-0.318 -1.717,-0.299 -2.436,-0.759 -0.43,-0.274 -0.908,-0.525 -1.396,-0.715 -0.229,-0.05 -0.447,-0.117 -0.661,-0.215 -0.017,-0.003 -0.036,-0.01 -0.054,-0.014 -0.267,-0.065 -0.981,-0.52 -1.123,-0.784 -0.176,-0.33 -0.062,-0.844 0.16,-1.208 v -10e-4 c 0.059,-0.095 0.125,-0.18 0.196,-0.249 0.006,-0.006 0.011,-0.013 0.019,-0.018 0.032,-0.033 0.068,-0.062 0.103,-0.084 0.049,-0.033 0.098,-0.059 0.149,-0.082 0.014,-0.007 0.028,-0.013 0.043,-0.019 0.044,-0.019 0.089,-0.035 0.134,-0.049 0.009,-0.002 0.017,-0.005 0.023,-0.007 0.05,-0.014 0.103,-0.024 0.156,-0.032 0.017,-0.004 0.035,-0.005 0.053,-0.008 0.04,-0.004 0.078,-0.008 0.12,-0.01 0.016,-10e-4 0.032,-0.003 0.047,-0.004 0.05,-0.001 0.1,-0.003 0.151,-0.001 0.025,0 0.053,0.001 0.081,0.001 0.024,10e-4 0.051,0.003 0.077,0.004 0.147,0.006 0.295,0.018 0.442,0.027 h -0.001 c 0.185,0.01 0.368,0.014 0.541,-0.01 1.479,-0.208 3.425,0.205 5.096,0.439 0.071,0.009 0.141,0.019 0.211,0.028 0.055,0.007 0.109,0.014 0.162,0.021 0.065,0.008 0.128,0.015 0.191,0.023 0.069,0.008 0.139,0.015 0.21,0.021 0.044,0.005 0.089,0.01 0.132,0.014 0.116,0.01 0.229,0.019 0.339,0.025 0.605,0.035 1.202,-0.215 1.768,-0.4 0.573,-0.184 1.206,-0.21 1.803,-0.232 1.182,-0.044 2.518,0.254 3.345,1.157 0.232,0.252 0.43,0.565 0.563,0.882 0.411,0.976 0.032,1.688 -0.035,2.733 -0.004,0.047 -0.008,0.098 -0.01,0.148 -0.005,0.053 -0.009,0.107 -0.013,0.163 0,0.009 -10e-4,0.016 -0.003,0.024 -0.057,0.778 -0.149,1.741 -0.22,2.436 0.023,0.331 0.028,0.696 0.003,1.064 v 0.001 c -0.012,0.177 -0.032,0.353 -0.062,0.526 -10e-4,0.008 -0.003,0.015 -0.004,0.024 -0.003,0.016 -0.007,0.031 -0.009,0.047 -0.012,0.056 -0.022,0.116 -0.036,0.172 -0.004,0.014 -0.005,0.029 -0.009,0.043 -0.002,0.009 -0.005,0.018 -0.008,0.028 -0.019,0.076 -0.04,0.152 -0.062,0.227 -0.352,1.143 -0.482,2.91 -0.029,7.594 0.441,4.574 0.92,13.541 0.551,19.567 -0.221,3.304 -0.037,7.297 0,10.601 0.015,1.313 0.129,4.828 0.26,8.588 v 0.001 c -0.218,3.262 -0.174,5.842 -0.019,7.602 0.075,0.862 0.176,1.526 0.287,1.978 0.001,0.007 0.003,0.012 0.004,0.018 0.012,0.051 0.024,0.097 0.037,0.142 0.004,0.012 0.007,0.021 0.009,0.033 0.012,0.037 0.022,0.073 0.033,0.106 0.006,0.017 0.011,0.03 0.016,0.045 0.007,0.018 0.013,0.036 0.021,0.054 0.122,0.02 0.287,0.027 0.351,0.036 0.016,0.003 0.032,0.002 0.045,0.003 0.003,-0.005 0.006,-0.01 0.007,-0.017 0.004,-0.012 0.007,-0.026 0.013,-0.04 0.009,-0.028 0.017,-0.057 0.025,-0.09 0.003,-0.013 0.007,-0.028 0.011,-0.044 0.01,-0.034 0.019,-0.072 0.027,-0.112 0.004,-0.014 0.006,-0.028 0.01,-0.042 0.009,-0.045 0.019,-0.092 0.028,-0.142 0.003,-0.011 0.004,-0.024 0.008,-0.037 0.01,-0.054 0.021,-0.113 0.031,-0.175 10e-4,-0.007 0.003,-0.016 0.004,-0.025 0.012,-0.071 0.023,-0.143 0.035,-0.221 v -0.001 c 0.069,-0.486 0.131,-1.112 0.176,-1.869 0.103,-1.74 0.114,-4.176 -0.088,-7.202 v -0.001 c 0.131,-3.76 0.245,-7.275 0.26,-8.588 0.037,-3.304 0.221,-7.297 0,-10.601 -0.369,-6.026 0.11,-14.993 0.551,-19.567 0.443,-4.574 0.396,-6.874 0.028,-8.072 -0.004,-0.01 -0.006,-0.022 -0.008,-0.036 0,-0.005 -0.001,-0.012 -0.002,-0.017 -0.002,-0.01 -0.003,-0.022 -0.006,-0.035 0,-0.007 -0.001,-0.015 -0.001,-0.022 -10e-4,-0.015 -0.002,-0.032 -0.004,-0.047 -0.001,-0.008 -0.001,-0.016 -0.002,-0.023 -10e-4,-0.026 -0.003,-0.052 -0.004,-0.083 0,-0.002 -0.001,-0.006 -0.001,-0.008 0,-0.03 -0.002,-0.06 -0.003,-0.091 v -0.015 c -0.004,-0.107 -0.005,-0.234 -0.007,-0.37 -0.015,-0.16 -0.25,-2.358 -0.338,-3.678 -0.067,-1.045 -0.446,-1.757 -0.035,-2.733 0.133,-0.317 0.331,-0.63 0.563,-0.882 0.828,-0.903 2.165,-1.201 3.345,-1.157 0.597,0.022 1.229,0.048 1.803,0.232 0.566,0.185 1.163,0.435 1.769,0.4 1.861,-0.106 4.472,-0.832 6.34,-0.571 0.652,0.091 1.418,-0.208 2.017,0.19 0.4,0.263 0.726,1.095 0.477,1.56 -0.14,0.264 -0.858,0.719 -1.123,0.784 -0.018,0.004 -0.036,0.009 -0.053,0.014 -0.214,0.098 -0.433,0.165 -0.662,0.215 -0.489,0.19 -0.966,0.441 -1.395,0.715 -0.081,0.053 -0.165,0.096 -0.251,0.137 -0.005,0.002 -0.01,0.006 -0.017,0.009 -0.085,0.04 -0.171,0.074 -0.26,0.105 -0.005,0.003 -0.011,0.005 -0.018,0.007 -0.611,0.212 -1.295,0.258 -1.89,0.501 -0.531,0.215 -1.028,0.506 -1.498,0.842 0.006,-0.004 0.013,-0.006 0.019,-0.009 -0.207,0.148 -0.413,0.302 -0.611,0.465 -0.016,0.015 -0.032,0.031 -0.049,0.045 -0.148,0.089 -0.295,0.18 -0.44,0.274 -0.055,0.035 -0.109,0.073 -0.162,0.109 -0.09,0.059 -0.179,0.118 -0.267,0.18 -0.065,0.045 -0.129,0.093 -0.192,0.138 -0.076,0.055 -0.15,0.11 -0.224,0.167 -0.067,0.052 -0.133,0.104 -0.199,0.158 -0.07,0.055 -0.137,0.111 -0.203,0.169 -0.068,0.056 -0.132,0.112 -0.199,0.171 -0.065,0.059 -0.129,0.119 -0.191,0.178 -0.02,0.018 -0.04,0.038 -0.059,0.056 -0.055,0.055 -0.111,0.107 -0.166,0.162 -0.054,0.056 -0.107,0.112 -0.16,0.169 -0.037,0.038 -0.073,0.077 -0.108,0.116 -0.032,0.034 -0.063,0.069 -0.093,0.104 -0.099,0.112 -0.196,0.225 -0.288,0.345 l 0.018,0.007 c -0.416,1.177 -0.747,5.096 0.369,9.634 3.24,12.779 1.326,20.185 1.067,21.745 -0.258,1.562 0.773,3.594 3.351,17.752 1.283,8.054 1.096,13.703 0.468,17.676 -0.019,0.765 -0.101,1.25 -0.101,1.25 0,1.312 -0.724,2.788 -0.724,2.788 l -0.197,0.395 c 0,-0.004 -0.003,-0.008 -0.003,-0.014 -0.5,1.6 -0.992,2.692 -1.238,3.445 -0.828,2.531 -1.022,3.893 -0.635,6.861 0.17,1.301 0.373,2.462 0.549,3.357 0.009,0.04 0.016,0.079 0.024,0.119 0.048,0.005 0.073,0.009 0.073,0.009 l 0.311,1.696 c 0.258,-2.126 0.883,-3.461 0.883,-4.327 -0.037,-5.846 1.077,-9.84 1.878,-12.453 0.032,-0.109 0.065,-0.22 0.099,-0.332 0.004,-0.017 0.009,-0.031 0.014,-0.048 C -6.594,9.864 -6.067,7.55 -5.916,5.949 -5.979,5.89 -6.041,5.829 -6.1,5.768 -6.187,5.564 -6.273,5.363 -6.358,5.162 -6.42,5.001 -6.475,4.837 -6.526,4.674 -6.537,4.638 -6.553,4.603 -6.562,4.566 -6.564,4.557 -6.567,4.545 -6.57,4.534 -6.577,4.512 -6.585,4.487 -6.591,4.465 -6.59,4.459 -6.59,4.454 -6.588,4.447 -6.747,3.714 -6.889,2.805 -6.657,2.166 c 0.38,-1.052 0.367,-2.234 0.184,-3.334 -0.024,-0.152 -0.06,-0.288 0.034,-0.431 0.192,-0.294 0.671,-0.25 0.96,-0.143 0.924,0.333 0.482,1.653 0.667,2.501 0.041,-0.128 0.082,-0.251 0.114,-0.374 0.292,-1.048 0.264,-1.992 0.232,-3.066 -0.007,-0.228 0.045,-0.741 0.194,-0.933 0.181,-0.233 0.353,-0.355 0.526,-0.186 0.018,0.019 0.037,0.041 0.056,0.068 0.003,0.004 0.008,0.01 0.012,0.015 0.019,0.028 0.036,0.057 0.057,0.092 0.239,0.443 0.375,0.918 0.439,1.41 0.141,0.531 0.184,1.07 0.155,1.616 0.182,-1.034 0.08,-1.951 -0.036,-2.989 -0.025,-0.227 -0.016,-0.742 0.116,-0.947 0.2,-0.307 0.401,-0.442 0.647,-0.065 0.114,0.174 0.206,0.355 0.287,0.54 -0.096,-0.612 -0.152,-1.426 0.37,-1.704 0.34,-0.18 0.591,0.091 0.774,0.503 0.046,-0.184 0.107,-0.363 0.192,-0.536 0.109,-0.22 0.359,-0.515 0.667,-0.371 0.194,0.091 0.264,0.346 0.309,0.538 0.03,0.645 0.023,1.293 0.013,1.943 C 0.291,-2.449 0.477,-1.173 0,0" />
          </g>
          <g
             transform="translate(289.2168,595.6055)"
             id="g6236"
             style="stroke-width:0.33990067">
            <path
               inkscape:connector-curvature="0"
               id="path6238"
               style="fill:#ffffff;fill-opacity:1;fill-rule:nonzero;stroke:none;stroke-width:0.33990067"
               d="M 0,0 C 0.06,0.026 0.115,0.058 0.17,0.091 0.222,0.122 0.271,0.16 0.316,0.197 H 0.318 C 0.328,0.167 0.341,0.142 0.352,0.112 0.363,0.082 0.374,0.053 0.389,0.023 c 0.02,-0.048 0.047,-0.093 0.073,-0.138 0.001,-0.002 0.003,-0.004 0.004,-0.006 0.001,-0.003 0.002,-0.005 0.003,-0.008 0.059,-0.145 0.128,-0.287 0.2,-0.42 0.032,-0.056 0.067,-0.113 0.105,-0.167 0.025,-0.039 0.054,-0.076 0.082,-0.113 0.01,-0.015 0.021,-0.029 0.032,-0.043 0.034,-0.042 0.071,-0.085 0.108,-0.126 0.006,-0.007 0.01,-0.013 0.017,-0.019 C 1.052,-1.06 1.092,-1.1 1.134,-1.14 1.137,-1.144 1.139,-1.146 1.143,-1.149 L 1.142,-1.148 C 1.187,-1.19 1.232,-1.231 1.28,-1.271 0.432,-0.913 -0.264,-0.5 -0.571,-0.035 -0.365,-0.075 -0.141,-0.06 0,0 m -0.836,2.522 c 0.099,0.073 0.195,0.146 0.293,0.221 0.007,-0.03 0.014,-0.059 0.022,-0.09 C -0.505,2.6 -0.489,2.546 -0.468,2.493 -0.465,2.487 -0.459,2.487 -0.454,2.488 -0.395,2.241 -0.298,2.001 -0.214,1.76 -0.193,1.696 -0.17,1.634 -0.152,1.57 0.012,1.004 -0.15,0.399 -0.731,0.359 -0.734,0.373 -0.737,0.388 -0.738,0.401 -0.787,0.88 -0.814,1.382 -0.827,1.871 V 1.873 C -0.832,2.093 -0.836,2.31 -0.836,2.522 M 13.79,-48.504 c 0.007,0.014 0.012,0.027 0.019,0.043 0.005,0.014 0.011,0.027 0.017,0.044 0.028,0.063 0.062,0.145 0.102,0.244 0.005,0.012 0.01,0.024 0.014,0.036 0.044,0.109 0.093,0.234 0.146,0.373 0.002,0.004 0.004,0.009 0.006,0.014 0.035,0.094 0.072,0.192 0.11,0.299 0.002,0.005 0.005,0.01 0.006,0.014 0.059,0.165 0.121,0.342 0.184,0.528 0.002,0.008 0.004,0.016 0.007,0.023 0.22,0.657 0.437,1.425 0.555,2.152 0.023,0.147 0.034,0.304 0.038,0.469 -0.143,1.44 -1.175,3.194 -2.043,4.061 0.035,0.784 0.067,1.564 0.074,2.058 0.021,0.222 0.038,0.443 0.053,0.664 0.005,0.065 0.009,0.129 0.013,0.195 0.011,0.169 0.02,0.337 0.03,0.506 0.002,0.057 0.006,0.116 0.008,0.174 0.011,0.216 0.019,0.433 0.025,0.648 10e-4,0.047 0.003,0.094 0.003,0.141 0.005,0.174 0.007,0.348 0.01,0.523 10e-4,0.067 10e-4,0.136 0.003,0.203 v 0.526 c -0.002,0.043 0,0.085 -0.002,0.128 -10e-4,0.211 -0.006,0.422 -0.011,0.632 -0.002,0.059 -0.003,0.118 -0.005,0.175 -0.004,0.161 -0.01,0.321 -0.016,0.482 -10e-4,0.062 -0.004,0.125 -0.008,0.187 -0.009,0.207 -0.019,0.413 -0.03,0.618 -0.001,0.013 -0.001,0.024 -0.001,0.035 -0.013,0.197 -0.025,0.39 -0.037,0.582 -0.005,0.062 -0.01,0.123 -0.014,0.183 -0.012,0.154 -0.025,0.31 -0.036,0.462 -0.006,0.053 -0.009,0.103 -0.013,0.155 -0.018,0.197 -0.035,0.39 -0.054,0.582 -0.004,0.044 -0.008,0.087 -0.013,0.131 -0.016,0.152 -0.031,0.304 -0.048,0.452 -0.006,0.062 -0.013,0.12 -0.02,0.18 -0.016,0.153 -0.034,0.303 -0.052,0.451 -0.004,0.038 -0.008,0.076 -0.013,0.112 -0.023,0.179 -0.045,0.353 -0.068,0.527 -0.006,0.059 -0.016,0.118 -0.024,0.178 -0.017,0.119 -0.033,0.238 -0.051,0.355 -0.007,0.063 -0.017,0.126 -0.025,0.188 -0.022,0.142 -0.042,0.281 -0.063,0.418 -0.011,0.068 -0.021,0.134 -0.033,0.202 -0.015,0.108 -0.033,0.216 -0.051,0.323 -0.012,0.073 -0.025,0.146 -0.037,0.219 -0.012,0.08 -0.027,0.16 -0.041,0.237 -0.011,0.075 -0.025,0.149 -0.038,0.224 -0.012,0.066 -0.024,0.13 -0.035,0.196 -0.027,0.148 -0.054,0.295 -0.081,0.434 -0.008,0.04 -0.016,0.078 -0.021,0.117 -0.019,0.094 -0.037,0.187 -0.054,0.278 -0.003,0.013 -0.005,0.023 -0.007,0.036 -0.335,1.699 -0.625,2.738 -0.625,2.738 0,0 -0.039,5.617 -0.135,7.645 -0.22,4.613 -0.599,7.519 -0.599,7.519 -1.336,4.632 -4.543,4.473 -6.195,4.872 -0.072,0.019 -0.145,0.037 -0.22,0.055 0.006,0.022 0.012,0.044 0.018,0.067 0.103,0.045 0.202,0.102 0.281,0.142 0.401,0.2 0.643,0.577 0.784,0.989 0.086,0.26 0.084,0.544 0.031,0.824 0.002,0 0.005,-0.001 0.008,-0.001 0.005,-0.041 0.015,-0.079 0.019,-0.12 10e-4,-0.015 0.022,-0.009 0.022,0.003 0,0.038 -0.004,0.071 -0.006,0.107 0.118,-0.033 0.238,-0.042 0.363,-0.016 0.081,0.018 0.157,0.044 0.23,0.076 0.02,0.011 0.036,0.025 0.054,0.034 0.05,0.027 0.099,0.053 0.143,0.086 0.03,0.021 0.055,0.046 0.081,0.072 C 6.451,0.03 6.483,0.055 6.51,0.085 6.543,0.12 6.569,0.16 6.598,0.198 6.614,0.22 6.633,0.241 6.648,0.264 6.681,0.312 6.705,0.364 6.732,0.416 6.74,0.433 6.749,0.447 6.757,0.465 6.783,0.522 6.805,0.582 6.824,0.642 6.828,0.654 6.833,0.667 6.838,0.68 6.855,0.739 6.869,0.802 6.881,0.864 6.883,0.877 6.887,0.891 6.888,0.903 6.898,0.962 6.903,1.02 6.905,1.078 6.908,1.093 6.91,1.109 6.91,1.124 6.91,1.122 6.91,1.12 6.909,1.119 6.91,1.129 6.913,1.141 6.913,1.15 6.913,1.196 6.863,1.191 6.841,1.167 6.689,1.015 6.667,0.772 6.438,0.693 5.952,0.527 5.506,1.008 5.519,1.436 5.531,1.977 5.852,2.412 6.232,2.775 6.31,2.85 6.39,2.92 6.471,2.988 6.476,2.993 6.483,2.998 6.489,3.005 6.569,3.072 6.649,3.137 6.729,3.198 7.177,3.552 7.633,3.871 8.027,4.287 8.4,4.677 8.563,5.197 8.74,5.691 9.097,6.676 8.949,7.797 8.354,8.647 8.157,8.928 7.888,9.135 7.611,9.335 7.639,9.347 7.669,9.359 7.705,9.376 7.714,9.381 7.719,9.399 7.705,9.399 7.696,9.398 7.687,9.397 7.678,9.397 c 0.115,0.04 0.227,0.09 0.331,0.159 0.034,0.023 0.066,0.05 0.098,0.08 0.005,0.004 0.009,0.008 0.013,0.01 0.007,0.007 0.013,0.014 0.02,0.022 0.02,0.02 0.04,0.041 0.057,0.063 0.008,0.009 0.015,0.017 0.023,0.027 0.005,0.007 0.009,0.013 0.014,0.021 0.016,0.02 0.028,0.041 0.041,0.063 0.01,0.013 0.018,0.027 0.028,0.041 0.002,0.005 0.006,0.012 0.008,0.016 0.012,0.024 0.023,0.047 0.034,0.073 0.005,0.012 0.012,0.025 0.017,0.037 10e-4,0.005 0.003,0.009 0.004,0.012 0.006,0.018 0.011,0.036 0.016,0.053 0.005,0.02 0.013,0.04 0.017,0.06 0.001,0.008 0.003,0.016 0.004,0.025 0.004,0.019 0.007,0.036 0.009,0.055 10e-4,0.017 0.002,0.035 0.004,0.052 0,0.011 10e-4,0.023 0,0.036 0,0.015 10e-4,0.031 -0.002,0.047 0,0.002 0.002,0.005 0,0.007 v -0.002 c -0.002,0.012 -0.004,0.022 -0.007,0.035 -0.003,0.017 -0.005,0.035 -0.009,0.052 -0.007,0.031 -0.017,0.058 -0.03,0.086 -0.003,0.009 -0.006,0.019 -0.01,0.03 -0.001,-0.002 -0.001,-0.003 -0.001,-0.005 -0.011,0.02 -0.017,0.043 -0.031,0.064 -0.022,0.034 -0.072,0 -0.071,-0.032 0.01,-0.567 -0.528,-0.7 -0.952,-0.513 -0.342,0.155 -0.506,0.548 -0.599,0.882 -0.206,0.736 -0.048,1.545 -0.009,2.292 0.07,1.248 0.006,2.465 -0.465,3.621 0.006,0.027 0.006,0.054 0.011,0.08 0.013,0.109 0.023,0.216 0.03,0.325 0.002,0.037 0.004,0.074 0.007,0.11 0.023,0.533 -0.03,1.074 -0.149,1.61 C 6.088,19.174 6.04,19.353 5.986,19.53 5.97,19.586 5.951,19.641 5.933,19.697 5.894,19.819 5.85,19.942 5.804,20.062 5.781,20.123 5.759,20.185 5.733,20.244 5.682,20.372 5.626,20.497 5.566,20.622 5.547,20.665 5.527,20.712 5.506,20.756 5.43,20.909 5.349,21.061 5.264,21.208 5.223,21.28 5.179,21.35 5.135,21.42 c -0.051,0.084 -0.102,0.165 -0.156,0.246 -0.049,0.076 -0.1,0.152 -0.154,0.227 -0.052,0.074 -0.108,0.147 -0.163,0.22 -1.281,1.686 -3.188,2.891 -5.306,3.178 -2.977,0.404 -6.462,-0.405 -8.824,-2.305 -0.64,-0.516 -1.326,-1.17 -1.785,-1.86 -0.631,-0.948 -1.064,-1.995 -1.24,-3.083 -0.003,-0.019 -0.007,-0.037 -0.01,-0.056 -0.013,-0.085 -0.022,-0.169 -0.032,-0.253 -0.006,-0.037 -0.01,-0.074 -0.013,-0.112 -0.008,-0.075 -0.013,-0.149 -0.017,-0.225 -0.004,-0.047 -0.007,-0.094 -0.009,-0.142 -0.003,-0.07 -0.004,-0.139 -0.005,-0.207 -10e-4,-0.056 -10e-4,-0.111 0,-0.164 0.001,-0.065 0.002,-0.13 0.005,-0.194 0.002,-0.06 0.006,-0.121 0.011,-0.181 0.004,-0.06 0.008,-0.119 0.015,-0.181 0.005,-0.053 0.011,-0.105 0.017,-0.157 0.006,-0.036 0.01,-0.073 0.014,-0.109 0.005,-0.033 0.009,-0.065 0.014,-0.097 0.005,-0.034 0.013,-0.067 0.018,-0.1 0.009,-0.056 0.019,-0.113 0.032,-0.169 0.006,-0.033 0.013,-0.065 0.018,-0.097 0.004,-0.017 0.007,-0.032 0.011,-0.048 0.025,-0.107 0.051,-0.212 0.079,-0.319 0.213,-0.763 0.676,-1.642 0.947,-2.519 -0.079,-0.081 -0.146,-0.17 -0.202,-0.258 -0.326,-0.501 -0.432,-1.012 -0.141,-1.539 0.352,-0.635 0.63,-1.271 0.76,-1.991 0.071,-0.39 0.147,-0.877 0.523,-1.095 0.257,-0.147 0.493,0.002 0.65,0.208 0.019,-0.369 0.05,-0.736 0.113,-1.095 0.125,-0.718 0.606,-1.379 1.031,-1.95 0.25,-0.335 1.325,-1.283 2.234,-2.054 0.006,-0.245 0.01,-0.497 0.01,-0.754 0,0 0,-10e-4 0.001,-10e-4 -0.003,-0.654 -0.025,-1.33 -0.089,-1.943 -0.127,-1.243 -3.077,-2.021 -5.27,-2.554 -1.651,-0.399 -4.859,-0.24 -6.195,-4.872 0,0 -0.381,-2.906 -0.599,-7.519 -0.096,-2.028 -0.135,-7.645 -0.135,-7.645 0,0 -2.204,-7.883 -1.481,-15.797 0.006,-0.498 0.038,-1.286 0.075,-2.077 -0.866,-0.873 -1.882,-2.613 -2.025,-4.042 0.003,-0.165 0.015,-0.322 0.038,-0.469 0.289,-1.799 1.198,-3.845 1.198,-3.845 l 0.933,-1 0.307,-0.329 c 0,0 0.003,-0.004 0.006,-0.011 0.002,-0.003 0.004,-0.006 0.005,-0.01 0.004,-0.006 0.005,-0.012 0.01,-0.021 0.004,-0.007 0.008,-0.015 0.012,-0.025 0.006,-0.011 0.013,-0.023 0.02,-0.039 0.003,-0.006 0.006,-0.012 0.009,-0.021 0.012,-0.024 0.026,-0.048 0.039,-0.077 0.004,-0.01 0.01,-0.02 0.014,-0.029 0.012,-0.024 0.024,-0.047 0.037,-0.072 0.006,-0.012 0.011,-0.023 0.017,-0.034 0.014,-0.026 0.026,-0.053 0.042,-0.081 0.007,-0.014 0.014,-0.027 0.02,-0.041 0.021,-0.039 0.04,-0.079 0.063,-0.119 10e-4,-0.004 10e-4,-0.005 0.004,-0.009 0.023,-0.046 0.05,-0.095 0.076,-0.145 0.004,-0.008 0.009,-0.017 0.014,-0.026 0.022,-0.043 0.045,-0.086 0.07,-0.13 0.005,-0.01 0.01,-0.02 0.017,-0.03 0.024,-0.047 0.051,-0.096 0.078,-0.147 0.004,-0.004 0.005,-0.01 0.009,-0.015 0.063,-0.115 0.13,-0.234 0.2,-0.352 0,-0.002 10e-4,-0.003 0.002,-0.005 0.034,-0.058 0.068,-0.118 0.103,-0.176 l 0.002,-0.002 c 0.434,-0.725 0.924,-1.402 1.207,-1.318 0,0 0.038,0.011 0.09,0.045 V -52.8 c 0.004,0.003 0.007,0.007 0.011,0.009 0.012,0.008 0.023,0.018 0.038,0.028 0.006,0.005 0.01,0.01 0.016,0.015 0.019,0.017 0.038,0.033 0.056,0.056 0.002,0.003 0.005,0.005 0.006,0.007 0.016,0.021 0.033,0.044 0.049,0.07 l 0.011,0.02 c 0.017,0.031 0.033,0.065 0.045,0.102 0,0.001 0,0.002 10e-4,0.004 0.011,0.036 0.02,0.077 0.027,0.121 0.001,0.01 0.002,0.019 0.004,0.031 0.003,0.047 0.007,0.098 0.003,0.153 v 10e-4 c -0.001,0.056 -0.01,0.117 -0.021,0.181 -0.004,0.016 -0.008,0.031 -0.011,0.047 -0.014,0.067 -0.032,0.139 -0.059,0.217 -0.012,0.033 -0.024,0.068 -0.036,0.103 0.111,-0.105 0.203,-0.164 0.264,-0.15 0.349,0.074 0.838,0.394 0.11,1.566 -0.067,0.108 -0.136,0.217 -0.205,0.325 0.131,0.018 0.238,0.085 0.291,0.236 0.135,0.389 -0.067,0.757 -0.436,1.164 0.018,0.026 0.034,0.055 0.047,0.091 0.228,0.652 -0.49,1.242 -1.354,2.056 -0.041,0.038 -0.078,0.078 -0.116,0.118 0.076,0.562 0.271,1.846 0.468,1.962 0.014,0.01 0.028,0.014 0.045,0.016 0.004,0.002 0.008,0.002 0.011,0.002 0.003,0 0.004,-0.002 0.008,-0.002 0.01,0 0.021,0 0.031,-0.003 0.004,0 0.007,0 0.009,-0.003 0.011,-0.003 0.019,-0.006 0.03,-0.011 0.006,-0.003 0.012,-0.006 0.018,-0.011 0.009,-0.005 0.016,-0.012 0.026,-0.018 0.032,-0.027 0.065,-0.062 0.096,-0.107 0.001,-10e-4 0.001,-0.002 0.003,-0.004 0.012,-0.018 0.025,-0.036 0.037,-0.056 0.144,-0.235 0.256,-0.608 0.254,-0.843 -0.003,-0.386 0.643,-2.162 1.496,-2.283 0.013,-10e-4 0.026,-0.008 0.038,-0.009 0,0 0.095,-0.04 0.202,-0.048 0.005,-0.001 0.012,-0.002 0.019,-0.002 h 0.021 0.027 c 0.006,0 0.012,10e-4 0.02,0.002 0.008,0 0.017,0.002 0.027,0.003 0.006,10e-4 0.012,0.004 0.017,0.005 0.009,0.003 0.018,0.006 0.027,0.01 0.007,0.002 0.012,0.005 0.016,0.008 0.009,0.005 0.018,0.009 0.024,0.015 0.006,0.003 0.012,0.007 0.015,0.011 0.007,0.008 0.014,0.015 0.02,0.022 0.004,0.006 0.009,0.01 0.013,0.017 0.005,0.008 0.008,0.019 0.013,0.029 0.004,0.007 0.007,0.013 0.01,0.021 0.003,0.011 0.005,0.025 0.008,0.037 0.002,0.009 0.005,0.017 0.005,0.027 0.002,0.014 0.002,0.032 0.002,0.049 0,0.01 0.002,0.019 0,0.03 0,0.028 -0.004,0.059 -0.01,0.094 -0.098,0.576 -0.625,1.056 -0.584,2.547 0.037,1.346 -0.253,3.114 -0.924,4.178 0.054,0.436 0.13,0.913 0.224,1.412 0.03,0.163 0.062,0.329 0.097,0.498 0,0.003 0,0.005 0,0.008 0.111,0.537 0.235,1.088 0.368,1.627 0.003,0.008 0.004,0.015 0.006,0.02 0.042,0.173 0.085,0.342 0.128,0.51 0.005,0.018 0.01,0.035 0.014,0.053 0.042,0.158 0.084,0.315 0.126,0.471 0.007,0.021 0.013,0.044 0.018,0.063 0.041,0.151 0.083,0.298 0.125,0.442 0.005,0.018 0.011,0.037 0.016,0.057 0.045,0.151 0.089,0.302 0.134,0.447 0.787,2.565 1.879,6.484 1.844,12.223 0,0.856 0.631,2.798 0.883,4.901 0,0 0.543,-2.826 0.921,-5.74 0.38,-2.913 0.19,-4.25 -0.621,-6.734 -0.814,-2.486 -4.364,-8.749 -1.763,-25.07 2.53,-13.899 3.542,-15.895 3.288,-17.427 -0.252,-1.531 -2.131,-8.802 1.049,-21.346 1.155,-4.705 1.335,-8.446 0.832,-9.373 -0.508,-0.926 -0.292,-1.532 -0.11,-1.959 0.181,-0.428 -0.941,-2.389 -1.88,-3.672 -0.938,-1.282 -2.203,-3.421 -1.297,-4.133 0.502,-0.355 0.576,0.072 0.793,-0.071 0.217,-0.142 0.686,-0.499 1.228,0 0.362,-0.534 1.047,-0.284 1.373,-0.035 0.324,-0.57 1.012,-0.428 1.483,-0.072 0.142,-0.535 2.599,-0.997 2.672,0.998 0.014,0.047 0.028,0.093 0.041,0.141 0.011,0.04 0.023,0.08 0.036,0.122 0,0.002 0,0.004 0.001,0.005 0.274,0.968 0.581,2.349 0.284,6.61 0.111,0.412 0.17,0.79 0.17,1.191 v 0.054 c -0.001,0.065 -0.004,0.131 -0.007,0.199 -0.003,0.036 -0.007,0.072 -0.009,0.109 -0.008,0.072 -0.016,0.144 -0.025,0.218 -0.011,0.082 -0.025,0.167 -0.041,0.253 -0.009,0.049 -0.02,0.099 -0.032,0.148 -0.014,0.074 -0.033,0.149 -0.052,0.226 -0.011,0.045 -0.023,0.09 -0.036,0.138 -0.033,0.123 -0.07,0.252 -0.113,0.386 -0.362,1.177 -0.29,3.527 0.145,8.017 0.432,4.491 0.903,13.294 0.541,19.208 -0.217,3.244 -0.036,7.163 0,10.406 0.015,1.288 0.127,4.74 0.255,8.432 -0.421,6.336 -0.675,9.592 -0.73,10.303 0.402,-0.198 0.886,-0.25 1.328,-0.204 0.344,0.035 0.791,0.088 1.186,0.228 -0.051,-0.653 -0.306,-3.907 -0.733,-10.327 0.129,-3.692 0.241,-7.144 0.256,-8.432 0.035,-3.243 0.217,-7.162 0,-10.406 -0.363,-5.914 0.108,-14.717 0.542,-19.208 0.433,-4.49 0.505,-6.84 0.144,-8.017 -0.049,-0.153 -0.092,-0.299 -0.129,-0.44 -0.026,-0.093 -0.043,-0.179 -0.063,-0.267 -0.009,-0.044 -0.023,-0.092 -0.032,-0.135 -0.021,-0.107 -0.035,-0.206 -0.05,-0.307 -0.003,-0.021 -0.007,-0.045 -0.01,-0.064 -0.014,-0.107 -0.021,-0.208 -0.028,-0.309 0,-0.014 -0.002,-0.027 -0.002,-0.041 -0.005,-0.103 -0.004,-0.203 0,-0.303 v -0.031 c 0.003,-0.099 0.013,-0.197 0.025,-0.296 0,-0.01 0.002,-0.02 0.003,-0.03 0.012,-0.099 0.03,-0.197 0.048,-0.297 0.002,-0.011 0.003,-0.021 0.005,-0.03 0.022,-0.1 0.045,-0.201 0.072,-0.303 0.002,-0.01 0.005,-0.02 0.006,-0.028 0.004,-0.014 0.006,-0.027 0.011,-0.041 -0.325,-4.669 0.072,-5.881 0.36,-6.878 0.073,-1.995 2.53,-1.533 2.673,-0.998 0.017,-0.013 0.035,-0.025 0.052,-0.036 0.008,-0.011 0.018,-0.019 0.025,-0.018 0.463,-0.315 1.098,-0.414 1.406,0.126 0.326,-0.249 1.012,-0.499 1.373,0.035 0.542,-0.499 1.011,-0.142 1.227,0 0.219,0.143 0.291,-0.284 0.795,0.071 0.051,0.041 0.096,0.088 0.134,0.138 0.013,0.018 0.023,0.036 0.034,0.054 0.021,0.035 0.041,0.07 0.059,0.107 0.01,0.026 0.019,0.051 0.027,0.077 0.011,0.034 0.02,0.067 0.028,0.102 0.007,0.032 0.013,0.066 0.017,0.1 0.002,0.027 0.004,0.056 0.005,0.084 0.004,0.067 0.003,0.135 -0.003,0.207 0.006,-0.002 0.01,-0.005 0.013,-0.007 0.017,-0.013 0.013,0.01 0.004,0.018 -0.006,0.006 -0.013,0.009 -0.019,0.014 -0.009,0.099 -0.025,0.201 -0.048,0.306 -10e-4,0.003 -0.002,0.007 -0.002,0.011 -0.016,0.068 -0.035,0.138 -0.056,0.207 -10e-4,0.005 -10e-4,0.01 -0.004,0.015 v -0.001 c -0.267,0.886 -0.933,1.942 -1.489,2.701 -0.937,1.283 -2.059,3.244 -1.879,3.672 0.182,0.427 0.398,1.033 -0.108,1.959 -0.506,0.927 -0.326,4.668 0.831,9.373 0.184,0.724 0.349,1.428 0.5,2.117 0.007,0.032 0.014,0.064 0.021,0.095 0.066,0.302 0.128,0.597 0.186,0.892 0.013,0.061 0.028,0.126 0.04,0.188 0.055,0.277 0.107,0.551 0.157,0.821 0.015,0.076 0.03,0.153 0.044,0.228 0.047,0.26 0.09,0.515 0.133,0.768 0.014,0.084 0.03,0.17 0.042,0.254 0.042,0.246 0.077,0.488 0.116,0.73 0.012,0.085 0.027,0.174 0.038,0.259 0.035,0.235 0.066,0.466 0.097,0.698 0.012,0.086 0.025,0.175 0.035,0.261 0.03,0.226 0.057,0.447 0.082,0.668 0.01,0.087 0.02,0.175 0.03,0.261 0.025,0.216 0.046,0.429 0.067,0.64 0.008,0.086 0.018,0.174 0.026,0.259 0.019,0.208 0.037,0.412 0.053,0.614 0.007,0.085 0.015,0.17 0.022,0.254 0.014,0.199 0.028,0.395 0.041,0.591 0.005,0.082 0.011,0.165 0.014,0.246 0.011,0.192 0.022,0.382 0.032,0.57 0.004,0.078 0.007,0.156 0.009,0.236 0.009,0.184 0.015,0.367 0.021,0.547 0.002,0.078 0.005,0.154 0.007,0.228 0.005,0.179 0.008,0.355 0.011,0.528 0.001,0.072 0.001,0.145 0.001,0.215 0.003,0.173 0.003,0.343 0.003,0.509 0,0.068 0,0.138 -0.001,0.205 -0.002,0.166 -0.003,0.328 -0.006,0.488 -0.001,0.066 -0.003,0.13 -0.004,0.194 -0.004,0.159 -0.009,0.316 -0.014,0.469 -0.003,0.062 -0.005,0.121 -0.006,0.182 -0.007,0.152 -0.013,0.302 -0.021,0.449 -0.003,0.058 -0.005,0.113 -0.008,0.169 -0.009,0.148 -0.017,0.292 -0.027,0.434 -0.003,0.05 -0.006,0.102 -0.01,0.152 -0.01,0.143 -0.021,0.282 -0.031,0.417 -0.004,0.048 -0.008,0.093 -0.011,0.139 -0.013,0.136 -0.025,0.27 -0.038,0.4 -0.003,0.041 -0.008,0.082 -0.011,0.123 -0.013,0.132 -0.026,0.26 -0.041,0.384 -0.003,0.036 -0.008,0.071 -0.012,0.107 -0.013,0.126 -0.029,0.25 -0.044,0.369 -0.004,0.03 -0.008,0.06 -0.01,0.09 -0.017,0.121 -0.032,0.24 -0.048,0.356 -0.003,0.021 -0.007,0.044 -0.009,0.065 -0.018,0.118 -0.033,0.235 -0.05,0.346 -0.003,0.017 -0.005,0.031 -0.008,0.048 -0.017,0.114 -0.035,0.227 -0.052,0.335 -0.001,0.005 -0.002,0.007 -0.002,0.011 -0.135,0.832 -0.261,1.414 -0.316,1.737 -0.099,0.602 -0.004,1.276 0.303,2.714 0.023,0.059 0.048,0.12 0.072,0.178 0.005,0.013 -0.006,0.037 -0.022,0.057 0.491,2.271 1.452,6.327 2.936,14.478 2.601,16.321 -0.95,22.584 -1.763,25.07 -0.811,2.484 -1,3.821 -0.622,6.734 0.379,2.914 0.936,5.113 0.936,5.113 0.252,-2.103 0.87,-3.418 0.87,-4.274 -0.037,-5.739 1.056,-9.658 1.843,-12.223 0.058,-0.194 0.119,-0.396 0.178,-0.603 0.005,-0.02 0.011,-0.04 0.017,-0.061 0.059,-0.206 0.117,-0.417 0.175,-0.631 0.002,-0.009 0.003,-0.017 0.006,-0.024 0.057,-0.218 0.114,-0.438 0.17,-0.661 0.004,-0.013 0.007,-0.023 0.009,-0.036 0.291,-1.172 0.542,-2.398 0.677,-3.421 0,0 0,0.002 10e-4,0.002 0.009,-0.068 0.017,-0.136 0.025,-0.201 -0.659,-1.067 -0.942,-2.816 -0.906,-4.15 0.041,-1.491 -0.487,-1.971 -0.583,-2.547 -0.006,-0.035 -0.01,-0.066 -0.011,-0.094 v -0.03 c 10e-4,-0.017 10e-4,-0.035 0.002,-0.049 0.002,-0.01 0.004,-0.019 0.006,-0.028 10e-4,-0.012 0.004,-0.025 0.007,-0.036 0.003,-0.008 0.007,-0.015 0.011,-0.024 0.003,-0.009 0.009,-0.018 0.014,-0.025 0.004,-0.008 0.009,-0.012 0.013,-0.018 0.005,-0.008 0.011,-0.014 0.018,-0.021 0.005,-0.005 0.011,-0.009 0.017,-0.013 0.006,-0.005 0.013,-0.009 0.02,-0.013 0.007,-0.004 0.013,-0.007 0.019,-0.01 0.007,-0.003 0.016,-0.005 0.025,-0.008 0.006,-0.002 0.013,-0.005 0.02,-0.006 0.007,-0.001 0.017,-0.002 0.025,-0.003 0.008,-0.001 0.014,-0.002 0.021,-0.002 H 8.799 8.82 c 0.009,0 0.017,10e-4 0.025,0.002 0.007,0 0.015,10e-4 0.023,0.002 h 0.005 c 0.092,0.015 0.168,0.046 0.168,0.046 0.873,0.073 1.537,1.899 1.535,2.292 -0.003,0.235 0.11,0.608 0.254,0.844 v -10e-4 c 0.043,0.071 0.09,0.128 0.137,0.167 0.009,0.006 0.016,0.013 0.025,0.018 0.006,0.005 0.011,0.008 0.018,0.011 0.01,0.005 0.019,0.008 0.028,0.012 0.007,0.002 0.011,0.003 0.018,0.004 0.009,0.003 0.021,0.003 0.031,0.003 0.005,0 0.009,0 0.014,-0.002 0.014,-0.002 0.03,-0.007 0.044,-0.016 0.195,-0.116 0.39,-1.4 0.465,-1.962 -0.038,-0.04 -0.075,-0.08 -0.115,-0.118 -0.864,-0.814 -1.581,-1.404 -1.352,-2.056 0.01,-0.036 0.028,-0.064 0.045,-0.091 -0.37,-0.406 -0.572,-0.775 -0.434,-1.164 0.053,-0.152 0.158,-0.218 0.29,-0.236 -0.069,-0.108 -0.138,-0.217 -0.205,-0.325 -0.73,-1.172 -0.24,-1.492 0.11,-1.566 0.061,-0.014 0.154,0.045 0.264,0.15 -0.012,-0.035 -0.025,-0.07 -0.037,-0.103 -0.026,-0.076 -0.043,-0.147 -0.059,-0.214 -0.004,-0.018 -0.008,-0.035 -0.011,-0.053 -0.01,-0.059 -0.017,-0.115 -0.021,-0.166 0,-0.005 -0.001,-0.01 -0.001,-0.014 -0.003,-0.054 0,-0.103 0.005,-0.15 10e-4,-0.012 0.002,-0.024 0.005,-0.037 0.006,-0.04 0.014,-0.077 0.025,-0.112 10e-4,-0.003 10e-4,-0.007 0.002,-0.01 0.013,-0.038 0.027,-0.069 0.043,-0.099 0.005,-0.008 0.01,-0.016 0.014,-0.024 0.014,-0.024 0.031,-0.046 0.047,-0.067 0.002,-0.003 0.004,-0.005 0.006,-0.009 0.019,-0.022 0.037,-0.038 0.055,-0.055 0.006,-0.005 0.013,-0.01 0.019,-0.017 0.012,-0.008 0.023,-0.017 0.035,-0.024 0.004,-0.003 0.009,-0.008 0.014,-0.011 v 0.002 c 0.049,-0.033 0.088,-0.045 0.088,-0.045 0.447,-0.133 1.413,1.633 1.852,2.488 10e-4,10e-4 0.002,10e-4 0.003,0.004 0.02,0.04 0.039,0.078 0.057,0.113 0.003,0.006 0.005,0.012 0.009,0.018 0.018,0.034 0.034,0.068 0.049,0.098 0.002,10e-4 0.002,0.002 0.003,0.004 0.015,0.031 0.028,0.059 0.041,0.085 0.003,0.005 0.005,0.01 0.008,0.014 0.01,0.019 0.016,0.036 0.023,0.049 0.004,0.006 0.005,0.01 0.008,0.015 0.005,0.012 0.01,0.021 0.014,0.027 10e-4,0.004 0.002,0.006 0.003,0.009 0.004,0.007 0.006,0.011 0.006,0.011 l 0.308,0.329 h -0.002 l 0.934,1 c 0,0 0.002,0.006 0.008,0.016 10e-4,0.003 0.002,0.006 0.005,0.013 0.005,0.012 0.01,0.027 0.019,0.046" />
          </g>
        </g>
      </g>
    </g>
  </g>
</svg>
