<?xml version="1.0" encoding="UTF-8" standalone="no"?>
<!-- Created with Inkscape (http://www.inkscape.org/) -->

<svg
   xmlns:dc="http://purl.org/dc/elements/1.1/"
   xmlns:cc="http://creativecommons.org/ns#"
   xmlns:rdf="http://www.w3.org/1999/02/22-rdf-syntax-ns#"
   xmlns:svg="http://www.w3.org/2000/svg"
   xmlns="http://www.w3.org/2000/svg"
   xmlns:sodipodi="http://sodipodi.sourceforge.net/DTD/sodipodi-0.dtd"
   xmlns:inkscape="http://www.inkscape.org/namespaces/inkscape"
   width="52.916668mm"
   height="44.308311mm"
   viewBox="0 0 52.916668 44.308311"
   version="1.1"
   id="svg1336"
   inkscape:version="0.92.5 (2060ec1f9f, 2020-04-08)"
   sodipodi:docname="3-ejercicios-durante-tratamiento.svg">
  <defs
     id="defs1330">
    <clipPath
       clipPathUnits="userSpaceOnUse"
       id="clipPath378">
      <path
         d="M 0,3279.209 H 2218.326 V 0 H 0 Z"
         id="path376"
         inkscape:connector-curvature="0" />
    </clipPath>
    <clipPath
       clipPathUnits="userSpaceOnUse"
       id="clipPath390">
      <path
         d="m 338.151,2378.436 c -1.898,-39.288 -31.004,-48.854 -56.829,-64.027 v 0 c -56.773,-33.356 -77.49,-119.603 -8.123,-147.514 v 0 l 155.86,-12.717 128.954,19.923 c 62.192,59.611 3.606,117.518 -30.7,145.175 v 0 c -30.813,24.839 -20.899,62.866 -61.199,93.894 v 0 c -20.17,15.528 -45.145,24.484 -67.675,24.482 v 0 c -31.539,0 -58.281,-17.559 -60.288,-59.216"
         id="path388"
         inkscape:connector-curvature="0" />
    </clipPath>
  </defs>
  <sodipodi:namedview
     id="base"
     pagecolor="#ffffff"
     bordercolor="#666666"
     borderopacity="1.0"
     inkscape:pageopacity="0.0"
     inkscape:pageshadow="2"
     inkscape:zoom="0.86269531"
     inkscape:cx="159.26013"
     inkscape:cy="-32.506517"
     inkscape:document-units="mm"
     inkscape:current-layer="layer1"
     showgrid="false"
     fit-margin-top="0"
     fit-margin-left="0"
     fit-margin-right="0"
     fit-margin-bottom="0"
     inkscape:window-width="1440"
     inkscape:window-height="825"
     inkscape:window-x="0"
     inkscape:window-y="0"
     inkscape:window-maximized="1" />
  <metadata
     id="metadata1333">
    <rdf:RDF>
      <cc:Work
         rdf:about="">
        <dc:format>image/svg+xml</dc:format>
        <dc:type
           rdf:resource="http://purl.org/dc/dcmitype/StillImage" />
        <dc:title></dc:title>
      </cc:Work>
    </rdf:RDF>
  </metadata>
  <g
     inkscape:label="Capa 1"
     inkscape:groupmode="layer"
     id="layer1"
     transform="translate(-67.682777,-95.924341)">
    <g
       id="g6866"
       transform="matrix(2.4666468,0,0,2.4666468,-181.29052,-137.55275)">
      <g
         id="g372"
         transform="matrix(0.0602577,0,0,-0.0602577,87.115856,241.54094)">
        <g
           clip-path="url(#clipPath378)"
           id="g374">
          <g
             transform="translate(273.1992,2166.8945)"
             id="g380">
            <path
               inkscape:connector-curvature="0"
               id="path382"
               style="fill:#efcdce;fill-opacity:1;fill-rule:evenodd;stroke:none"
               d="m 0,0 c -69.367,27.912 -48.65,114.158 8.123,147.515 25.824,15.172 54.932,24.739 56.828,64.027 3.442,71.413 79.559,71.998 127.963,34.733 40.301,-31.027 30.387,-69.055 61.199,-93.894 C 288.42,124.724 347.006,66.817 284.814,7.207 L 155.859,-12.717 Z" />
          </g>
        </g>
      </g>
      <g
         id="g384"
         transform="matrix(0.0602577,0,0,-0.0602577,87.115856,241.54094)">
        <g
           clip-path="url(#clipPath390)"
           id="g386">
          <g
             transform="translate(278.1562,2447.458)"
             id="g392">
            <path
               inkscape:connector-curvature="0"
               id="path394"
               style="fill:#df93a0;fill-opacity:1;fill-rule:evenodd;stroke:none"
               d="m 0,0 h -15.988 -0.004 -0.004 -15.988 v -7.746 h 15.988 0.008 H 0 Z M 32.266,0 H 16.277 16.273 16.27 0.281 V -7.746 H 16.27 16.277 32.266 Z M 64.531,0 H 48.543 48.539 48.535 32.549 v -7.746 h 15.986 0.008 15.988 z M 96.797,0 H 80.809 80.805 80.801 64.813 v -7.746 h 15.988 0.008 15.988 z m 32.265,0 H 113.074 113.07 113.066 97.08 v -7.746 h 15.986 0.008 15.988 z m 32.266,0 h -15.986 -0.006 -0.002 -15.988 v -7.746 h 15.988 0.008 15.986 z m 32.266,0 h -15.989 -0.003 -0.004 -15.989 v -7.746 h 15.989 0.007 15.989 z m 32.265,0 h -15.988 -0.004 -0.002 -15.988 v -7.746 h 15.988 0.006 15.988 z m 32.268,0 h -15.988 -0.006 -0.002 -15.988 v -7.746 h 15.988 0.008 15.988 z m 32.266,0 h -15.989 -0.004 -0.004 -15.988 v -7.746 h 15.988 0.008 15.989 z M -16.133,-7.982 h -15.988 -0.004 -0.004 -15.988 v -7.747 h 15.988 0.008 15.988 z m 32.266,0 H 0.145 0.141 0.137 -15.852 v -7.747 H 0.137 0.145 16.133 Z m 32.265,0 H 32.41 32.406 32.402 16.414 v -7.747 h 15.988 0.008 15.988 z m 32.266,0 H 64.676 64.672 64.668 48.68 v -7.747 h 15.988 0.008 15.988 z m 32.266,0 H 96.941 96.938 96.934 80.945 v -7.747 h 15.989 0.007 15.989 z m 32.265,0 h -15.988 -0.004 -0.004 -15.988 v -7.747 h 15.988 0.008 15.988 z m 32.266,0 h -15.988 -0.002 -0.006 -15.988 v -7.747 h 15.988 0.008 15.988 z m 32.266,0 h -15.989 -0.002 -0.004 -15.99 v -7.747 h 15.99 0.006 15.989 z m 32.265,0 h -15.988 -0.002 -0.006 -15.986 v -7.747 h 15.986 0.008 15.988 z m 32.266,0 h -15.988 -0.002 -0.004 -15.991 v -7.747 h 15.991 0.006 15.988 z m 32.265,0 h -15.988 -0.002 -0.004 -15.99 v -7.747 h 15.99 0.006 15.988 z M 0,-15.964 h -15.988 -0.004 -0.004 -15.988 v -7.747 h 15.988 0.008 H 0 Z m 32.266,0 H 16.277 16.273 16.27 0.281 v -7.747 h 15.989 0.007 15.989 z m 32.265,0 H 48.543 48.539 48.535 32.549 v -7.747 h 15.986 0.008 15.988 z m 32.266,0 H 80.809 80.805 80.801 64.813 v -7.747 h 15.988 0.008 15.988 z m 32.265,0 H 113.074 113.07 113.066 97.08 v -7.747 h 15.986 0.008 15.988 z m 32.266,0 h -15.986 -0.006 -0.002 -15.988 v -7.747 h 15.988 0.008 15.986 z m 32.266,0 h -15.989 -0.003 -0.004 -15.989 v -7.747 h 15.989 0.007 15.989 z m 32.265,0 h -15.988 -0.004 -0.002 -15.988 v -7.747 h 15.988 0.006 15.988 z m 32.268,0 h -15.988 -0.006 -0.002 -15.988 v -7.747 h 15.988 0.008 15.988 z m 32.266,0 h -15.989 -0.004 -0.004 -15.988 v -7.747 h 15.988 0.008 15.989 z m -306.526,-7.982 h -15.988 -0.004 -0.004 -15.988 v -7.746 h 15.988 0.008 15.988 z m 32.266,0 H 0.145 0.141 0.137 -15.852 v -7.746 H 0.137 0.145 16.133 Z m 32.265,0 H 32.41 32.406 32.402 16.414 v -7.746 h 15.988 0.008 15.988 z m 32.266,0 H 64.676 64.672 64.668 48.68 v -7.746 h 15.988 0.008 15.988 z m 32.266,0 H 96.941 96.938 96.934 80.945 v -7.746 h 15.989 0.007 15.989 z m 32.265,0 h -15.988 -0.004 -0.004 -15.988 v -7.746 h 15.988 0.008 15.988 z m 32.266,0 h -15.988 -0.002 -0.006 -15.988 v -7.746 h 15.988 0.008 15.988 z m 32.266,0 h -15.989 -0.002 -0.004 -15.99 v -7.746 h 15.99 0.006 15.989 z m 32.265,0 h -15.988 -0.002 -0.006 -15.986 v -7.746 h 15.986 0.008 15.988 z m 32.266,0 h -15.988 -0.002 -0.004 -15.991 v -7.746 h 15.991 0.006 15.988 z m 32.265,0 h -15.988 -0.002 -0.004 -15.99 v -7.746 h 15.99 0.006 15.988 z M 0,-31.929 h -15.988 -0.004 -0.004 -15.988 v -7.746 h 15.988 0.008 H 0 Z m 32.266,0 H 16.277 16.273 16.27 0.281 v -7.746 h 15.989 0.007 15.989 z m 32.265,0 H 48.543 48.539 48.535 32.549 v -7.746 h 15.986 0.008 15.988 z m 32.266,0 H 80.809 80.805 80.801 64.813 v -7.746 h 15.988 0.008 15.988 z m 32.265,0 H 113.074 113.07 113.066 97.08 v -7.746 h 15.986 0.008 15.988 z m 32.266,0 h -15.986 -0.006 -0.002 -15.988 v -7.746 h 15.988 0.008 15.986 z m 32.266,0 h -15.989 -0.003 -0.004 -15.989 v -7.746 h 15.989 0.007 15.989 z m 32.265,0 h -15.988 -0.004 -0.002 -15.988 v -7.746 h 15.988 0.006 15.988 z m 32.268,0 h -15.988 -0.006 -0.002 -15.988 v -7.746 h 15.988 0.008 15.988 z m 32.266,0 h -15.989 -0.004 -0.004 -15.988 v -7.746 h 15.988 0.008 15.989 z m -306.526,-7.982 h -15.988 -0.004 -0.004 -15.988 v -7.747 h 15.988 0.008 15.988 z m 32.266,0 H 0.145 0.141 0.137 -15.852 v -7.747 H 0.137 0.145 16.133 Z m 32.265,0 H 32.41 32.406 32.402 16.414 v -7.747 h 15.988 0.008 15.988 z m 32.266,0 H 64.676 64.672 64.668 48.68 v -7.747 h 15.988 0.008 15.988 z m 32.266,0 H 96.941 96.938 96.934 80.945 v -7.747 h 15.989 0.007 15.989 z m 32.265,0 h -15.988 -0.004 -0.004 -15.988 v -7.747 h 15.988 0.008 15.988 z m 32.266,0 h -15.988 -0.002 -0.006 -15.988 v -7.747 h 15.988 0.008 15.988 z m 32.266,0 h -15.989 -0.002 -0.004 -15.99 v -7.747 h 15.99 0.006 15.989 z m 32.265,0 h -15.988 -0.002 -0.006 -15.986 v -7.747 h 15.986 0.008 15.988 z m 32.266,0 h -15.988 -0.002 -0.004 -15.991 v -7.747 h 15.991 0.006 15.988 z m 32.265,0 h -15.988 -0.002 -0.004 -15.99 v -7.747 h 15.99 0.006 15.988 z M 0,-47.893 h -15.988 -0.004 -0.004 -15.988 v -7.746 h 15.988 0.008 H 0 Z m 32.266,0 H 16.277 16.273 16.27 0.281 v -7.746 h 15.989 0.007 15.989 z m 32.265,0 H 48.543 48.539 48.535 32.549 v -7.746 h 15.986 0.008 15.988 z m 32.266,0 H 80.809 80.805 80.801 64.813 v -7.746 h 15.988 0.008 15.988 z m 32.265,0 H 113.074 113.07 113.066 97.08 v -7.746 h 15.986 0.008 15.988 z m 32.266,0 h -15.986 -0.006 -0.002 -15.988 v -7.746 h 15.988 0.008 15.986 z m 32.266,0 h -15.989 -0.003 -0.004 -15.989 v -7.746 h 15.989 0.007 15.989 z m 32.265,0 h -15.988 -0.004 -0.002 -15.988 v -7.746 h 15.988 0.006 15.988 z m 32.268,0 h -15.988 -0.006 -0.002 -15.988 v -7.746 h 15.988 0.008 15.988 z m 32.266,0 h -15.989 -0.004 -0.004 -15.988 v -7.746 h 15.988 0.008 15.989 z m -306.526,-7.982 h -15.988 -0.004 -0.004 -15.988 v -7.747 h 15.988 0.008 15.988 z m 32.266,0 H 0.145 0.141 0.137 -15.852 v -7.747 H 0.137 0.145 16.133 Z m 32.265,0 H 32.41 32.406 32.402 16.414 v -7.747 h 15.988 0.008 15.988 z m 32.266,0 H 64.676 64.672 64.668 48.68 v -7.747 h 15.988 0.008 15.988 z m 32.266,0 H 96.941 96.938 96.934 80.945 v -7.747 h 15.989 0.007 15.989 z m 32.265,0 h -15.988 -0.004 -0.004 -15.988 v -7.747 h 15.988 0.008 15.988 z m 32.266,0 h -15.988 -0.002 -0.006 -15.988 v -7.747 h 15.988 0.008 15.988 z m 32.266,0 h -15.989 -0.002 -0.004 -15.99 v -7.747 h 15.99 0.006 15.989 z m 32.265,0 h -15.988 -0.002 -0.006 -15.986 v -7.747 h 15.986 0.008 15.988 z m 32.266,0 h -15.988 -0.002 -0.004 -15.991 v -7.747 h 15.991 0.006 15.988 z m 32.265,0 h -15.988 -0.002 -0.004 -15.99 v -7.747 h 15.99 0.006 15.988 z M 0,-63.857 h -15.988 -0.004 -0.004 -15.988 v -7.747 h 15.988 0.008 H 0 Z m 32.266,0 H 16.277 16.273 16.27 0.281 v -7.747 h 15.989 0.007 15.989 z m 32.265,0 H 48.543 48.539 48.535 32.549 v -7.747 h 15.986 0.008 15.988 z m 32.266,0 H 80.809 80.805 80.801 64.813 v -7.747 h 15.988 0.008 15.988 z m 32.265,0 H 113.074 113.07 113.066 97.08 v -7.747 h 15.986 0.008 15.988 z m 32.266,0 h -15.986 -0.006 -0.002 -15.988 v -7.747 h 15.988 0.008 15.986 z m 32.266,0 h -15.989 -0.003 -0.004 -15.989 v -7.747 h 15.989 0.007 15.989 z m 32.265,0 h -15.988 -0.004 -0.002 -15.988 v -7.747 h 15.988 0.006 15.988 z m 32.268,0 h -15.988 -0.006 -0.002 -15.988 v -7.747 h 15.988 0.008 15.988 z m 32.266,0 h -15.989 -0.004 -0.004 -15.988 v -7.747 h 15.988 0.008 15.989 z m -306.526,-7.982 h -15.988 -0.004 -0.004 -15.988 v -7.747 h 15.988 0.008 15.988 z m 32.266,0 H 0.145 0.141 0.137 -15.852 v -7.747 H 0.137 0.145 16.133 Z m 32.265,0 H 32.41 32.406 32.402 16.414 v -7.747 h 15.988 0.008 15.988 z m 32.266,0 H 64.676 64.672 64.668 48.68 v -7.747 h 15.988 0.008 15.988 z m 32.266,0 H 96.941 96.938 96.934 80.945 v -7.747 h 15.989 0.007 15.989 z m 32.265,0 h -15.988 -0.004 -0.004 -15.988 v -7.747 h 15.988 0.008 15.988 z m 32.266,0 h -15.988 -0.002 -0.006 -15.988 v -7.747 h 15.988 0.008 15.988 z m 32.266,0 h -15.989 -0.002 -0.004 -15.99 v -7.747 h 15.99 0.006 15.989 z m 32.265,0 h -15.988 -0.002 -0.006 -15.986 v -7.747 h 15.986 0.008 15.988 z m 32.266,0 h -15.988 -0.002 -0.004 -15.991 v -7.747 h 15.991 0.006 15.988 z m 32.265,0 h -15.988 -0.002 -0.004 -15.99 v -7.747 h 15.99 0.006 15.988 z M 0,-79.822 h -15.988 -0.004 -0.004 -15.988 v -7.746 h 15.988 0.008 H 0 Z m 32.266,0 H 16.277 16.273 16.27 0.281 v -7.746 h 15.989 0.007 15.989 z m 32.265,0 H 48.543 48.539 48.535 32.549 v -7.746 h 15.986 0.008 15.988 z m 32.266,0 H 80.809 80.805 80.801 64.813 v -7.746 h 15.988 0.008 15.988 z m 32.265,0 H 113.074 113.07 113.066 97.08 v -7.746 h 15.986 0.008 15.988 z m 32.266,0 h -15.986 -0.006 -0.002 -15.988 v -7.746 h 15.988 0.008 15.986 z m 32.266,0 h -15.989 -0.003 -0.004 -15.989 v -7.746 h 15.989 0.007 15.989 z m 32.265,0 h -15.988 -0.004 -0.002 -15.988 v -7.746 h 15.988 0.006 15.988 z m 32.268,0 h -15.988 -0.006 -0.002 -15.988 v -7.746 h 15.988 0.008 15.988 z m 32.266,0 h -15.989 -0.004 -0.004 -15.988 v -7.746 h 15.988 0.008 15.989 z m -306.526,-7.982 h -15.988 -0.004 -0.004 -15.988 v -7.746 h 15.988 0.008 15.988 z m 32.266,0 H 0.145 0.141 0.137 -15.852 V -95.55 H 0.137 0.145 16.133 Z m 32.265,0 H 32.41 32.406 32.402 16.414 v -7.746 h 15.988 0.008 15.988 z m 32.266,0 H 64.676 64.672 64.668 48.68 v -7.746 h 15.988 0.008 15.988 z m 32.266,0 H 96.941 96.938 96.934 80.945 v -7.746 h 15.989 0.007 15.989 z m 32.265,0 h -15.988 -0.004 -0.004 -15.988 v -7.746 h 15.988 0.008 15.988 z m 32.266,0 h -15.988 -0.002 -0.006 -15.988 v -7.746 h 15.988 0.008 15.988 z m 32.266,0 h -15.989 -0.002 -0.004 -15.99 v -7.746 h 15.99 0.006 15.989 z m 32.265,0 h -15.988 -0.002 -0.006 -15.986 v -7.746 h 15.986 0.008 15.988 z m 32.266,0 h -15.988 -0.002 -0.004 -15.991 v -7.746 h 15.991 0.006 15.988 z m 32.265,0 h -15.988 -0.002 -0.004 -15.99 v -7.746 h 15.99 0.006 15.988 z M 0,-95.786 h -15.988 -0.004 -0.004 -15.988 v -7.747 h 15.988 0.008 H 0 Z m 32.266,0 H 16.277 16.273 16.27 0.281 v -7.747 h 15.989 0.007 15.989 z m 32.265,0 H 48.543 48.539 48.535 32.549 v -7.747 h 15.986 0.008 15.988 z m 32.266,0 H 80.809 80.805 80.801 64.813 v -7.747 h 15.988 0.008 15.988 z m 32.265,0 H 113.074 113.07 113.066 97.08 v -7.747 h 15.986 0.008 15.988 z m 32.266,0 h -15.986 -0.006 -0.002 -15.988 v -7.747 h 15.988 0.008 15.986 z m 32.266,0 h -15.989 -0.003 -0.004 -15.989 v -7.747 h 15.989 0.007 15.989 z m 32.265,0 h -15.988 -0.004 -0.002 -15.988 v -7.747 h 15.988 0.006 15.988 z m 32.268,0 h -15.988 -0.006 -0.002 -15.988 v -7.747 h 15.988 0.008 15.988 z m 32.266,0 h -15.989 -0.004 -0.004 -15.988 v -7.747 h 15.988 0.008 15.989 z m -306.526,-7.982 h -15.988 -0.004 -0.004 -15.988 v -7.746 h 15.988 0.008 15.988 z m 32.266,0 H 0.145 0.141 0.137 -15.852 v -7.746 H 0.137 0.145 16.133 Z m 32.265,0 H 32.41 32.406 32.402 16.414 v -7.746 h 15.988 0.008 15.988 z m 32.266,0 H 64.676 64.672 64.668 48.68 v -7.746 h 15.988 0.008 15.988 z m 32.266,0 H 96.941 96.938 96.934 80.945 v -7.746 h 15.989 0.007 15.989 z m 32.265,0 h -15.988 -0.004 -0.004 -15.988 v -7.746 h 15.988 0.008 15.988 z m 32.266,0 h -15.988 -0.002 -0.006 -15.988 v -7.746 h 15.988 0.008 15.988 z m 32.266,0 h -15.989 -0.002 -0.004 -15.99 v -7.746 h 15.99 0.006 15.989 z m 32.265,0 h -15.988 -0.002 -0.006 -15.986 v -7.746 h 15.986 0.008 15.988 z m 32.266,0 h -15.988 -0.002 -0.004 -15.991 v -7.746 h 15.991 0.006 15.988 z m 32.265,0 h -15.988 -0.002 -0.004 -15.99 v -7.746 h 15.99 0.006 15.988 z M 0,-111.75 h -15.988 -0.004 -0.004 -15.988 v -7.747 h 15.988 0.008 H 0 Z m 32.266,0 H 16.277 16.273 16.27 0.281 v -7.747 h 15.989 0.007 15.989 z m 32.265,0 H 48.543 48.539 48.535 32.549 v -7.747 h 15.986 0.008 15.988 z m 32.266,0 H 80.809 80.805 80.801 64.813 v -7.747 h 15.988 0.008 15.988 z m 32.265,0 H 113.074 113.07 113.066 97.08 v -7.747 h 15.986 0.008 15.988 z m 32.266,0 h -15.986 -0.006 -0.002 -15.988 v -7.747 h 15.988 0.008 15.986 z m 32.266,0 h -15.989 -0.003 -0.004 -15.989 v -7.747 h 15.989 0.007 15.989 z m 32.265,0 h -15.988 -0.004 -0.002 -15.988 v -7.747 h 15.988 0.006 15.988 z m 32.268,0 h -15.988 -0.006 -0.002 -15.988 v -7.747 h 15.988 0.008 15.988 z m 32.266,0 h -15.989 -0.004 -0.004 -15.988 v -7.747 h 15.988 0.008 15.989 z m -306.526,-7.982 h -15.988 -0.004 -0.004 -15.988 v -7.747 h 15.988 0.008 15.988 z m 32.266,0 H 0.145 0.141 0.137 -15.852 v -7.747 H 0.137 0.145 16.133 Z m 32.265,0 H 32.41 32.406 32.402 16.414 v -7.747 h 15.988 0.008 15.988 z m 32.266,0 H 64.676 64.672 64.668 48.68 v -7.747 h 15.988 0.008 15.988 z m 32.266,0 H 96.941 96.938 96.934 80.945 v -7.747 h 15.989 0.007 15.989 z m 32.265,0 h -15.988 -0.004 -0.004 -15.988 v -7.747 h 15.988 0.008 15.988 z m 32.266,0 h -15.988 -0.002 -0.006 -15.988 v -7.747 h 15.988 0.008 15.988 z m 32.266,0 h -15.989 -0.002 -0.004 -15.99 v -7.747 h 15.99 0.006 15.989 z m 32.265,0 h -15.988 -0.002 -0.006 -15.986 v -7.747 h 15.986 0.008 15.988 z m 32.266,0 h -15.988 -0.002 -0.004 -15.991 v -7.747 h 15.991 0.006 15.988 z m 32.265,0 h -15.988 -0.002 -0.004 -15.99 v -7.747 h 15.99 0.006 15.988 z M 0,-127.714 h -15.988 -0.004 -0.004 -15.988 v -7.747 h 15.988 0.008 H 0 Z m 32.266,0 H 16.277 16.273 16.27 0.281 v -7.747 h 15.989 0.007 15.989 z m 32.265,0 H 48.543 48.539 48.535 32.549 v -7.747 h 15.986 0.008 15.988 z m 32.266,0 H 80.809 80.805 80.801 64.813 v -7.747 h 15.988 0.008 15.988 z m 32.265,0 H 113.074 113.07 113.066 97.08 v -7.747 h 15.986 0.008 15.988 z m 32.266,0 h -15.986 -0.006 -0.002 -15.988 v -7.747 h 15.988 0.008 15.986 z m 32.266,0 h -15.989 -0.003 -0.004 -15.989 v -7.747 h 15.989 0.007 15.989 z m 32.265,0 h -15.988 -0.004 -0.002 -15.988 v -7.747 h 15.988 0.006 15.988 z m 32.268,0 h -15.988 -0.006 -0.002 -15.988 v -7.747 h 15.988 0.008 15.988 z m 32.266,0 h -15.989 -0.004 -0.004 -15.988 v -7.747 h 15.988 0.008 15.989 z m -306.526,-7.983 h -15.988 -0.004 -0.004 -15.988 v -7.746 h 15.988 0.008 15.988 z m 32.266,0 H 0.145 0.141 0.137 -15.852 v -7.746 H 0.137 0.145 16.133 Z m 32.265,0 H 32.41 32.406 32.402 16.414 v -7.746 h 15.988 0.008 15.988 z m 32.266,0 H 64.676 64.672 64.668 48.68 v -7.746 h 15.988 0.008 15.988 z m 32.266,0 H 96.941 96.938 96.934 80.945 v -7.746 h 15.989 0.007 15.989 z m 32.265,0 h -15.988 -0.004 -0.004 -15.988 v -7.746 h 15.988 0.008 15.988 z m 32.266,0 h -15.988 -0.002 -0.006 -15.988 v -7.746 h 15.988 0.008 15.988 z m 32.266,0 h -15.989 -0.002 -0.004 -15.99 v -7.746 h 15.99 0.006 15.989 z m 32.265,0 h -15.988 -0.002 -0.006 -15.986 v -7.746 h 15.986 0.008 15.988 z m 32.266,0 h -15.988 -0.002 -0.004 -15.991 v -7.746 h 15.991 0.006 15.988 z m 32.265,0 h -15.988 -0.002 -0.004 -15.99 v -7.746 h 15.99 0.006 15.988 z M 0,-143.679 h -15.988 -0.004 -0.004 -15.988 v -7.746 h 15.988 0.008 H 0 Z m 32.266,0 H 16.277 16.273 16.27 0.281 v -7.746 h 15.989 0.007 15.989 z m 32.265,0 H 48.543 48.539 48.535 32.549 v -7.746 h 15.986 0.008 15.988 z m 32.266,0 H 80.809 80.805 80.801 64.813 v -7.746 h 15.988 0.008 15.988 z m 32.265,0 H 113.074 113.07 113.066 97.08 v -7.746 h 15.986 0.008 15.988 z m 32.266,0 h -15.986 -0.006 -0.002 -15.988 v -7.746 h 15.988 0.008 15.986 z m 32.266,0 h -15.989 -0.003 -0.004 -15.989 v -7.746 h 15.989 0.007 15.989 z m 32.265,0 h -15.988 -0.004 -0.002 -15.988 v -7.746 h 15.988 0.006 15.988 z m 32.268,0 h -15.988 -0.006 -0.002 -15.988 v -7.746 h 15.988 0.008 15.988 z m 32.266,0 h -15.989 -0.004 -0.004 -15.988 v -7.746 h 15.988 0.008 15.989 z m -306.526,-7.982 h -15.988 -0.004 -0.004 -15.988 v -7.747 h 15.988 0.008 15.988 z m 32.266,0 H 0.145 0.141 0.137 -15.852 v -7.747 H 0.137 0.145 16.133 Z m 32.265,0 H 32.41 32.406 32.402 16.414 v -7.747 h 15.988 0.008 15.988 z m 32.266,0 H 64.676 64.672 64.668 48.68 v -7.747 h 15.988 0.008 15.988 z m 32.266,0 H 96.941 96.938 96.934 80.945 v -7.747 h 15.989 0.007 15.989 z m 32.265,0 h -15.988 -0.004 -0.004 -15.988 v -7.747 h 15.988 0.008 15.988 z m 32.266,0 h -15.988 -0.002 -0.006 -15.988 v -7.747 h 15.988 0.008 15.988 z m 32.266,0 h -15.989 -0.002 -0.004 -15.99 v -7.747 h 15.99 0.006 15.989 z m 32.265,0 h -15.988 -0.002 -0.006 -15.986 v -7.747 h 15.986 0.008 15.988 z m 32.266,0 h -15.988 -0.002 -0.004 -15.991 v -7.747 h 15.991 0.006 15.988 z m 32.265,0 h -15.988 -0.002 -0.004 -15.99 v -7.747 h 15.99 0.006 15.988 z M 0,-159.643 h -15.988 -0.004 -0.004 -15.988 v -7.747 h 15.988 0.008 H 0 Z m 32.266,0 H 16.277 16.273 16.27 0.281 v -7.747 h 15.989 0.007 15.989 z m 32.265,0 H 48.543 48.539 48.535 32.549 v -7.747 h 15.986 0.008 15.988 z m 32.266,0 H 80.809 80.805 80.801 64.813 v -7.747 h 15.988 0.008 15.988 z m 32.265,0 H 113.074 113.07 113.066 97.08 v -7.747 h 15.986 0.008 15.988 z m 32.266,0 h -15.986 -0.006 -0.002 -15.988 v -7.747 h 15.988 0.008 15.986 z m 32.266,0 h -15.989 -0.003 -0.004 -15.989 v -7.747 h 15.989 0.007 15.989 z m 32.265,0 h -15.988 -0.004 -0.002 -15.988 v -7.747 h 15.988 0.006 15.988 z m 32.268,0 h -15.988 -0.006 -0.002 -15.988 v -7.747 h 15.988 0.008 15.988 z m 32.266,0 h -15.989 -0.004 -0.004 -15.988 v -7.747 h 15.988 0.008 15.989 z m -306.526,-7.982 h -15.988 -0.004 -0.004 -15.988 v -7.747 h 15.988 0.008 15.988 z m 32.266,0 H 0.145 0.141 0.137 -15.852 v -7.747 H 0.137 0.145 16.133 Z m 32.265,0 H 32.41 32.406 32.402 16.414 v -7.747 h 15.988 0.008 15.988 z m 32.266,0 H 64.676 64.672 64.668 48.68 v -7.747 h 15.988 0.008 15.988 z m 32.266,0 H 96.941 96.938 96.934 80.945 v -7.747 h 15.989 0.007 15.989 z m 32.265,0 h -15.988 -0.004 -0.004 -15.988 v -7.747 h 15.988 0.008 15.988 z m 32.266,0 h -15.988 -0.002 -0.006 -15.988 v -7.747 h 15.988 0.008 15.988 z m 32.266,0 h -15.989 -0.002 -0.004 -15.99 v -7.747 h 15.99 0.006 15.989 z m 32.265,0 h -15.988 -0.002 -0.006 -15.986 v -7.747 h 15.986 0.008 15.988 z m 32.266,0 h -15.988 -0.002 -0.004 -15.991 v -7.747 h 15.991 0.006 15.988 z m 32.265,0 h -15.988 -0.002 -0.004 -15.99 v -7.747 h 15.99 0.006 15.988 z M 0,-175.608 h -15.988 -0.004 -0.004 -15.988 v -7.746 h 15.988 0.008 H 0 Z m 32.266,0 H 16.277 16.273 16.27 0.281 v -7.746 h 15.989 0.007 15.989 z m 32.265,0 H 48.543 48.539 48.535 32.549 v -7.746 h 15.986 0.008 15.988 z m 32.266,0 H 80.809 80.805 80.801 64.813 v -7.746 h 15.988 0.008 15.988 z m 32.265,0 H 113.074 113.07 113.066 97.08 v -7.746 h 15.986 0.008 15.988 z m 32.266,0 h -15.986 -0.006 -0.002 -15.988 v -7.746 h 15.988 0.008 15.986 z m 32.266,0 h -15.989 -0.003 -0.004 -15.989 v -7.746 h 15.989 0.007 15.989 z m 32.265,0 h -15.988 -0.004 -0.002 -15.988 v -7.746 h 15.988 0.006 15.988 z m 32.268,0 h -15.988 -0.006 -0.002 -15.988 v -7.746 h 15.988 0.008 15.988 z m 32.266,0 h -15.989 -0.004 -0.004 -15.988 v -7.746 h 15.988 0.008 15.989 z m -306.526,-7.981 h -15.988 -0.004 -0.004 -15.988 v -7.747 h 15.988 0.008 15.988 z m 32.266,0 H 0.145 0.141 0.137 -15.852 v -7.747 H 0.137 0.145 16.133 Z m 32.265,0 H 32.41 32.406 32.402 16.414 v -7.747 h 15.988 0.008 15.988 z m 32.266,0 H 64.676 64.672 64.668 48.68 v -7.747 h 15.988 0.008 15.988 z m 32.266,0 H 96.941 96.938 96.934 80.945 v -7.747 h 15.989 0.007 15.989 z m 32.265,0 h -15.988 -0.004 -0.004 -15.988 v -7.747 h 15.988 0.008 15.988 z m 32.266,0 h -15.988 -0.002 -0.006 -15.988 v -7.747 h 15.988 0.008 15.988 z m 32.266,0 h -15.989 -0.002 -0.004 -15.99 v -7.747 h 15.99 0.006 15.989 z m 32.265,0 h -15.988 -0.002 -0.006 -15.986 v -7.747 h 15.986 0.008 15.988 z m 32.266,0 h -15.988 -0.002 -0.004 -15.991 v -7.747 h 15.991 0.006 15.988 z m 32.265,0 h -15.988 -0.002 -0.004 -15.99 v -7.747 h 15.99 0.006 15.988 z M 0,-191.572 h -15.988 -0.004 -0.004 -15.988 v -7.746 h 15.988 0.008 H 0 Z m 32.266,0 H 16.277 16.273 16.27 0.281 v -7.746 h 15.989 0.007 15.989 z m 32.265,0 H 48.543 48.539 48.535 32.549 v -7.746 h 15.986 0.008 15.988 z m 32.266,0 H 80.809 80.805 80.801 64.813 v -7.746 h 15.988 0.008 15.988 z m 32.265,0 H 113.074 113.07 113.066 97.08 v -7.746 h 15.986 0.008 15.988 z m 32.266,0 h -15.986 -0.006 -0.002 -15.988 v -7.746 h 15.988 0.008 15.986 z m 32.266,0 h -15.989 -0.003 -0.004 -15.989 v -7.746 h 15.989 0.007 15.989 z m 32.265,0 h -15.988 -0.004 -0.002 -15.988 v -7.746 h 15.988 0.006 15.988 z m 32.268,0 h -15.988 -0.006 -0.002 -15.988 v -7.746 h 15.988 0.008 15.988 z m 32.266,0 h -15.989 -0.004 -0.004 -15.988 v -7.746 h 15.988 0.008 15.989 z m -306.526,-7.983 h -15.988 -0.004 -0.004 -15.988 v -7.746 h 15.988 0.008 15.988 z m 32.266,0 H 0.145 0.141 0.137 -15.852 v -7.746 H 0.137 0.145 16.133 Z m 32.265,0 H 32.41 32.406 32.402 16.414 v -7.746 h 15.988 0.008 15.988 z m 32.266,0 H 64.676 64.672 64.668 48.68 v -7.746 h 15.988 0.008 15.988 z m 32.266,0 H 96.941 96.938 96.934 80.945 v -7.746 h 15.989 0.007 15.989 z m 32.265,0 h -15.988 -0.004 -0.004 -15.988 v -7.746 h 15.988 0.008 15.988 z m 32.266,0 h -15.988 -0.002 -0.006 -15.988 v -7.746 h 15.988 0.008 15.988 z m 32.266,0 h -15.989 -0.002 -0.004 -15.99 v -7.746 h 15.99 0.006 15.989 z m 32.265,0 h -15.988 -0.002 -0.006 -15.986 v -7.746 h 15.986 0.008 15.988 z m 32.266,0 h -15.988 -0.002 -0.004 -15.991 v -7.746 h 15.991 0.006 15.988 z m 32.265,0 h -15.988 -0.002 -0.004 -15.99 v -7.746 h 15.99 0.006 15.988 z M 0,-207.536 h -15.988 -0.004 -0.004 -15.988 v -7.747 h 15.988 0.008 H 0 Z m 32.266,0 H 16.277 16.273 16.27 0.281 v -7.747 h 15.989 0.007 15.989 z m 32.265,0 H 48.543 48.539 48.535 32.549 v -7.747 h 15.986 0.008 15.988 z m 32.266,0 H 80.809 80.805 80.801 64.813 v -7.747 h 15.988 0.008 15.988 z m 32.265,0 H 113.074 113.07 113.066 97.08 v -7.747 h 15.986 0.008 15.988 z m 32.266,0 h -15.986 -0.006 -0.002 -15.988 v -7.747 h 15.988 0.008 15.986 z m 32.266,0 h -15.989 -0.003 -0.004 -15.989 v -7.747 h 15.989 0.007 15.989 z m 32.265,0 h -15.988 -0.004 -0.002 -15.988 v -7.747 h 15.988 0.006 15.988 z m 32.268,0 h -15.988 -0.006 -0.002 -15.988 v -7.747 h 15.988 0.008 15.988 z m 32.266,0 h -15.989 -0.004 -0.004 -15.988 v -7.747 h 15.988 0.008 15.989 z m -306.526,-7.983 h -15.988 -0.004 -0.004 -15.988 v -7.746 h 15.988 0.008 15.988 z m 32.266,0 H 0.145 0.141 0.137 -15.852 v -7.746 H 0.137 0.145 16.133 Z m 32.265,0 H 32.41 32.406 32.402 16.414 v -7.746 h 15.988 0.008 15.988 z m 32.266,0 H 64.676 64.672 64.668 48.68 v -7.746 h 15.988 0.008 15.988 z m 32.266,0 H 96.941 96.938 96.934 80.945 v -7.746 h 15.989 0.007 15.989 z m 32.265,0 h -15.988 -0.004 -0.004 -15.988 v -7.746 h 15.988 0.008 15.988 z m 32.266,0 h -15.988 -0.002 -0.006 -15.988 v -7.746 h 15.988 0.008 15.988 z m 32.266,0 h -15.989 -0.002 -0.004 -15.99 v -7.746 h 15.99 0.006 15.989 z m 32.265,0 h -15.988 -0.002 -0.006 -15.986 v -7.746 h 15.986 0.008 15.988 z m 32.266,0 h -15.988 -0.002 -0.004 -15.991 v -7.746 h 15.991 0.006 15.988 z m 32.265,0 h -15.988 -0.002 -0.004 -15.99 v -7.746 h 15.99 0.006 15.988 z M 0,-223.501 h -15.988 -0.004 -0.004 -15.988 v -7.747 h 15.988 0.008 H 0 Z m 32.266,0 H 16.277 16.273 16.27 0.281 v -7.747 h 15.989 0.007 15.989 z m 32.265,0 H 48.543 48.539 48.535 32.549 v -7.747 h 15.986 0.008 15.988 z m 32.266,0 H 80.809 80.805 80.801 64.813 v -7.747 h 15.988 0.008 15.988 z m 32.265,0 H 113.074 113.07 113.066 97.08 v -7.747 h 15.986 0.008 15.988 z m 32.266,0 h -15.986 -0.006 -0.002 -15.988 v -7.747 h 15.988 0.008 15.986 z m 32.266,0 h -15.989 -0.003 -0.004 -15.989 v -7.747 h 15.989 0.007 15.989 z m 32.265,0 h -15.988 -0.004 -0.002 -15.988 v -7.747 h 15.988 0.006 15.988 z m 32.268,0 h -15.988 -0.006 -0.002 -15.988 v -7.747 h 15.988 0.008 15.988 z m 32.266,0 h -15.989 -0.004 -0.004 -15.988 v -7.747 h 15.988 0.008 15.989 z m -306.526,-7.982 h -15.988 -0.004 -0.004 -15.988 v -7.746 h 15.988 0.008 15.988 z m 32.266,0 H 0.145 0.141 0.137 -15.852 v -7.746 H 0.137 0.145 16.133 Z m 32.265,0 H 32.41 32.406 32.402 16.414 v -7.746 h 15.988 0.008 15.988 z m 32.266,0 H 64.676 64.672 64.668 48.68 v -7.746 h 15.988 0.008 15.988 z m 32.266,0 H 96.941 96.938 96.934 80.945 v -7.746 h 15.989 0.007 15.989 z m 32.265,0 h -15.988 -0.004 -0.004 -15.988 v -7.746 h 15.988 0.008 15.988 z m 32.266,0 h -15.988 -0.002 -0.006 -15.988 v -7.746 h 15.988 0.008 15.988 z m 32.266,0 h -15.989 -0.002 -0.004 -15.99 v -7.746 h 15.99 0.006 15.989 z m 32.265,0 h -15.988 -0.002 -0.006 -15.986 v -7.746 h 15.986 0.008 15.988 z m 32.266,0 h -15.988 -0.002 -0.004 -15.991 v -7.746 h 15.991 0.006 15.988 z m 32.265,0 h -15.988 -0.002 -0.004 -15.99 v -7.746 h 15.99 0.006 15.988 z M 0,-239.465 h -15.988 -0.004 -0.004 -15.988 v -7.746 h 15.988 0.008 H 0 Z m 32.266,0 H 16.277 16.273 16.27 0.281 v -7.746 h 15.989 0.007 15.989 z m 32.265,0 H 48.543 48.539 48.535 32.549 v -7.746 h 15.986 0.008 15.988 z m 32.266,0 H 80.809 80.805 80.801 64.813 v -7.746 h 15.988 0.008 15.988 z m 32.265,0 H 113.074 113.07 113.066 97.08 v -7.746 h 15.986 0.008 15.988 z m 32.266,0 h -15.986 -0.006 -0.002 -15.988 v -7.746 h 15.988 0.008 15.986 z m 32.266,0 h -15.989 -0.003 -0.004 -15.989 v -7.746 h 15.989 0.007 15.989 z m 32.265,0 h -15.988 -0.004 -0.002 -15.988 v -7.746 h 15.988 0.006 15.988 z m 32.268,0 h -15.988 -0.006 -0.002 -15.988 v -7.746 h 15.988 0.008 15.988 z m 32.266,0 h -15.989 -0.004 -0.004 -15.988 v -7.746 h 15.988 0.008 15.989 z m -306.526,-7.982 h -15.988 -0.004 -0.004 -15.988 v -7.747 h 15.988 0.008 15.988 z m 32.266,0 H 0.145 0.141 0.137 -15.852 v -7.747 H 0.137 0.145 16.133 Z m 32.265,0 H 32.41 32.406 32.402 16.414 v -7.747 h 15.988 0.008 15.988 z m 32.266,0 H 64.676 64.672 64.668 48.68 v -7.747 h 15.988 0.008 15.988 z m 32.266,0 H 96.941 96.938 96.934 80.945 v -7.747 h 15.989 0.007 15.989 z m 32.265,0 h -15.988 -0.004 -0.004 -15.988 v -7.747 h 15.988 0.008 15.988 z m 32.266,0 h -15.988 -0.002 -0.006 -15.988 v -7.747 h 15.988 0.008 15.988 z m 32.266,0 h -15.989 -0.002 -0.004 -15.99 v -7.747 h 15.99 0.006 15.989 z m 32.265,0 h -15.988 -0.002 -0.006 -15.986 v -7.747 h 15.986 0.008 15.988 z m 32.266,0 h -15.988 -0.002 -0.004 -15.991 v -7.747 h 15.991 0.006 15.988 z m 32.265,0 h -15.988 -0.002 -0.004 -15.99 v -7.747 h 15.99 0.006 15.988 z M 0,-255.43 h -15.988 -0.004 -0.004 -15.988 v -7.746 h 15.988 0.008 H 0 Z m 32.266,0 H 16.277 16.273 16.27 0.281 v -7.746 h 15.989 0.007 15.989 z m 32.265,0 H 48.543 48.539 48.535 32.549 v -7.746 h 15.986 0.008 15.988 z m 32.266,0 H 80.809 80.805 80.801 64.813 v -7.746 h 15.988 0.008 15.988 z m 32.265,0 H 113.074 113.07 113.066 97.08 v -7.746 h 15.986 0.008 15.988 z m 32.266,0 h -15.986 -0.006 -0.002 -15.988 v -7.746 h 15.988 0.008 15.986 z m 32.266,0 h -15.989 -0.003 -0.004 -15.989 v -7.746 h 15.989 0.007 15.989 z m 32.265,0 h -15.988 -0.004 -0.002 -15.988 v -7.746 h 15.988 0.006 15.988 z m 32.268,0 h -15.988 -0.006 -0.002 -15.988 v -7.746 h 15.988 0.008 15.988 z m 32.266,0 h -15.989 -0.004 -0.004 -15.988 v -7.746 h 15.988 0.008 15.989 z m -306.526,-7.981 h -15.988 -0.004 -0.004 -15.988 v -7.747 h 15.988 0.008 15.988 z m 32.266,0 H 0.145 0.141 0.137 -15.852 v -7.747 H 0.137 0.145 16.133 Z m 32.265,0 H 32.41 32.406 32.402 16.414 v -7.747 h 15.988 0.008 15.988 z m 32.266,0 H 64.676 64.672 64.668 48.68 v -7.747 h 15.988 0.008 15.988 z m 32.266,0 H 96.941 96.938 96.934 80.945 v -7.747 h 15.989 0.007 15.989 z m 32.265,0 h -15.988 -0.004 -0.004 -15.988 v -7.747 h 15.988 0.008 15.988 z m 32.266,0 h -15.988 -0.002 -0.006 -15.988 v -7.747 h 15.988 0.008 15.988 z m 32.266,0 h -15.989 -0.002 -0.004 -15.99 v -7.747 h 15.99 0.006 15.989 z m 32.265,0 h -15.988 -0.002 -0.006 -15.986 v -7.747 h 15.986 0.008 15.988 z m 32.266,0 h -15.988 -0.002 -0.004 -15.991 v -7.747 h 15.991 0.006 15.988 z m 32.265,0 h -15.988 -0.002 -0.004 -15.99 v -7.747 h 15.99 0.006 15.988 z M 0,-271.394 h -15.988 -0.004 -0.004 -15.988 v -7.746 h 15.988 0.008 H 0 Z m 32.266,0 H 16.277 16.273 16.27 0.281 v -7.746 h 15.989 0.007 15.989 z m 32.265,0 H 48.543 48.539 48.535 32.549 v -7.746 h 15.986 0.008 15.988 z m 32.266,0 H 80.809 80.805 80.801 64.813 v -7.746 h 15.988 0.008 15.988 z m 32.265,0 H 113.074 113.07 113.066 97.08 v -7.746 h 15.986 0.008 15.988 z m 32.266,0 h -15.986 -0.006 -0.002 -15.988 v -7.746 h 15.988 0.008 15.986 z m 32.266,0 h -15.989 -0.003 -0.004 -15.989 v -7.746 h 15.989 0.007 15.989 z m 32.265,0 h -15.988 -0.004 -0.002 -15.988 v -7.746 h 15.988 0.006 15.988 z m 32.268,0 h -15.988 -0.006 -0.002 -15.988 v -7.746 h 15.988 0.008 15.988 z m 32.266,0 h -15.989 -0.004 -0.004 -15.988 v -7.746 h 15.988 0.008 15.989 z m -306.526,-7.982 h -15.988 -0.004 -0.004 -15.988 v -7.747 h 15.988 0.008 15.988 z m 32.266,0 H 0.145 0.141 0.137 -15.852 v -7.747 H 0.137 0.145 16.133 Z m 32.265,0 H 32.41 32.406 32.402 16.414 v -7.747 h 15.988 0.008 15.988 z m 32.266,0 H 64.676 64.672 64.668 48.68 v -7.747 h 15.988 0.008 15.988 z m 32.266,0 H 96.941 96.938 96.934 80.945 v -7.747 h 15.989 0.007 15.989 z m 32.265,0 h -15.988 -0.004 -0.004 -15.988 v -7.747 h 15.988 0.008 15.988 z m 32.266,0 h -15.988 -0.002 -0.006 -15.988 v -7.747 h 15.988 0.008 15.988 z m 32.266,0 h -15.989 -0.002 -0.004 -15.99 v -7.747 h 15.99 0.006 15.989 z m 32.265,0 h -15.988 -0.002 -0.006 -15.986 v -7.747 h 15.986 0.008 15.988 z m 32.266,0 h -15.988 -0.002 -0.004 -15.991 v -7.747 h 15.991 0.006 15.988 z m 32.265,0 h -15.988 -0.002 -0.004 -15.99 v -7.747 h 15.99 0.006 15.988 z M 0,-287.358 h -15.988 -0.004 -0.004 -15.988 v -7.746 h 15.988 0.008 H 0 Z m 32.266,0 H 16.277 16.273 16.27 0.281 v -7.746 h 15.989 0.007 15.989 z m 32.265,0 H 48.543 48.539 48.535 32.549 v -7.746 h 15.986 0.008 15.988 z m 32.266,0 H 80.809 80.805 80.801 64.813 v -7.746 h 15.988 0.008 15.988 z m 32.265,0 H 113.074 113.07 113.066 97.08 v -7.746 h 15.986 0.008 15.988 z m 32.266,0 h -15.986 -0.006 -0.002 -15.988 v -7.746 h 15.988 0.008 15.986 z m 32.266,0 h -15.989 -0.003 -0.004 -15.989 v -7.746 h 15.989 0.007 15.989 z m 32.265,0 h -15.988 -0.004 -0.002 -15.988 v -7.746 h 15.988 0.006 15.988 z m 32.268,0 h -15.988 -0.006 -0.002 -15.988 v -7.746 h 15.988 0.008 15.988 z m 32.266,0 h -15.989 -0.004 -0.004 -15.988 v -7.746 h 15.988 0.008 15.989 z m -306.526,-7.982 h -15.988 -0.004 -0.004 -15.988 v -7.747 h 15.988 0.008 15.988 z m 32.266,0 H 0.145 0.141 0.137 -15.852 v -7.747 H 0.137 0.145 16.133 Z m 32.265,0 H 32.41 32.406 32.402 16.414 v -7.747 h 15.988 0.008 15.988 z m 32.266,0 H 64.676 64.672 64.668 48.68 v -7.747 h 15.988 0.008 15.988 z m 32.266,0 H 96.941 96.938 96.934 80.945 v -7.747 h 15.989 0.007 15.989 z m 32.265,0 h -15.988 -0.004 -0.004 -15.988 v -7.747 h 15.988 0.008 15.988 z m 32.266,0 h -15.988 -0.002 -0.006 -15.988 v -7.747 h 15.988 0.008 15.988 z m 32.266,0 h -15.989 -0.002 -0.004 -15.99 v -7.747 h 15.99 0.006 15.989 z m 32.265,0 h -15.988 -0.002 -0.006 -15.986 v -7.747 h 15.986 0.008 15.988 z m 32.266,0 h -15.988 -0.002 -0.004 -15.991 v -7.747 h 15.991 0.006 15.988 z m 32.265,0 h -15.988 -0.002 -0.004 -15.99 v -7.747 h 15.99 0.006 15.988 z m -15.849,-12.399 h -0.281 v 4.417 h -15.989 -0.004 -0.004 -15.988 v -4.417 h -0.281 v 4.417 h -15.988 -0.006 -0.002 -15.988 v -4.417 h -0.284 v 4.417 h -15.988 -0.004 -0.002 -15.988 v -4.417 h -0.283 v 4.417 h -15.989 -0.003 -0.004 -15.989 v -4.417 h -0.281 v 4.417 h -15.986 -0.006 -0.002 -15.988 v -4.417 h -0.284 v 4.417 H 113.074 113.07 113.066 97.08 v -4.417 h -0.283 v 4.417 H 80.809 80.805 80.801 64.813 v -4.417 h -0.282 v 4.417 H 48.543 48.539 48.535 32.549 v -4.417 h -0.283 v 4.417 H 16.277 16.273 16.27 0.281 v -4.417 H 0 v 4.417 h -15.988 -0.004 -0.004 -15.988 v -4.417 h -0.282 v 4.417 h -15.988 -0.004 -0.004 -9.607 v 0.235 h 9.471 v 7.747 h -9.471 v 0.236 h 9.607 0.008 15.988 v 7.746 h -15.988 -0.004 -0.004 -9.607 v 0.235 h 9.471 v 7.747 h -9.471 v 0.236 h 9.607 0.008 15.988 v 7.746 h -15.988 -0.004 -0.004 -9.607 v 0.236 h 9.471 v 7.747 h -9.471 v 0.235 h 9.607 0.008 15.988 v 7.746 h -15.988 -0.004 -0.004 -9.607 v 0.236 h 9.471 v 7.747 h -9.471 v 0.236 h 9.607 0.008 15.988 v 7.746 h -15.988 -0.004 -0.004 -9.607 v 0.236 h 9.471 v 7.746 h -9.471 v 0.235 h 9.607 0.008 15.988 v 7.747 h -15.988 -0.004 -0.004 -9.607 v 0.236 h 9.471 v 7.746 h -9.471 v 0.236 h 9.607 0.008 15.988 v 7.747 h -15.988 -0.004 -0.004 -9.607 v 0.235 h 9.471 v 7.746 h -9.471 v 0.237 h 9.607 0.008 15.988 v 7.746 h -15.988 -0.004 -0.004 -9.607 v 0.236 h 9.471 v 7.747 h -9.471 v 0.235 h 9.607 0.008 15.988 v 7.746 h -15.988 -0.004 -0.004 -9.607 v 0.236 h 9.471 v 7.747 h -9.471 v 0.235 h 9.607 0.008 15.988 v 7.747 h -15.988 -0.004 -0.004 -9.607 v 0.235 h 9.471 v 7.747 h -9.471 v 0.236 h 9.607 0.008 15.988 v 7.746 h -15.988 -0.004 -0.004 -9.607 v 0.236 h 9.471 v 7.746 h -9.471 v 0.236 h 9.607 0.008 15.988 v 7.747 h -15.988 -0.004 -0.004 -9.607 v 0.235 h 9.471 v 7.747 h -9.471 v 0.235 h 9.607 0.008 15.988 v 7.747 h -15.988 -0.004 -0.004 -9.607 v 0.236 h 9.471 v 7.746 h -9.471 v 0.235 h 9.607 0.008 15.988 v 7.747 h -15.988 -0.004 -0.004 -9.607 v 0.236 h 9.471 v 7.746 h -9.471 v 0.236 h 9.607 0.008 15.988 v 7.746 h -15.988 -0.004 -0.004 -9.607 v 0.236 h 9.471 v 7.747 h -9.471 v 0.235 h 9.607 0.008 15.988 v 7.747 h -15.988 -0.004 -0.004 -9.607 v 0.235 h 9.471 v 7.747 h -9.471 v 0.236 h 9.607 0.008 15.988 v 7.746 h -15.988 -0.004 -0.004 -9.607 v 0.235 h 9.471 v 7.747 h -9.471 v 0.236 h 9.607 0.008 15.988 v 7.746 h -15.988 -0.004 -0.004 -9.607 v 0.237 h 9.471 v 7.746 h -9.471 v 0.235 h 9.607 0.008 15.988 v 7.747 h -15.988 -0.004 -0.004 -9.607 v 0.235 h 9.471 v 7.747 h -9.471 v 0.236 h 9.607 0.008 15.988 V 0 h -15.988 -0.004 -0.004 -9.607 v 0.236 h 9.471 v 4.417 h 0.281 V 0.236 h 15.988 0.008 15.988 v 4.417 h 0.281 V 0.236 H 0.137 0.145 16.133 v 4.417 h 0.281 V 0.236 H 32.402 32.41 48.398 V 4.653 H 48.68 V 0.236 h 15.988 0.008 15.988 v 4.417 h 0.281 V 0.236 h 15.989 0.007 15.989 v 4.417 h 0.281 V 0.236 h 15.988 0.008 15.988 v 4.417 h 0.282 V 0.236 h 15.988 0.008 15.988 v 4.417 h 0.281 V 0.236 h 15.99 0.006 15.989 v 4.417 h 0.283 V 0.236 h 15.986 0.008 15.988 v 4.417 h 0.281 V 0.236 h 15.991 0.006 15.988 v 4.417 h 0.281 V 0.236 h 15.99 0.006 15.988 v 4.417 h 0.284 V 0.236 h 9.47 V 0 h -9.607 -0.006 -0.002 -15.988 v -7.746 h 15.988 0.008 9.607 v -0.236 h -9.47 v -7.747 h 9.47 v -0.235 h -9.607 -0.006 -0.002 -15.988 v -7.747 h 15.988 0.008 9.607 v -0.235 h -9.47 v -7.746 h 9.47 v -0.237 h -9.607 -0.006 -0.002 -15.988 v -7.746 h 15.988 0.008 9.607 v -0.236 h -9.47 v -7.747 h 9.47 v -0.235 h -9.607 -0.006 -0.002 -15.988 v -7.746 h 15.988 0.008 9.607 v -0.236 h -9.47 v -7.747 h 9.47 v -0.235 h -9.607 -0.006 -0.002 -15.988 v -7.747 h 15.988 0.008 9.607 v -0.235 h -9.47 v -7.747 h 9.47 v -0.236 h -9.607 -0.006 -0.002 -15.988 v -7.746 h 15.988 0.008 9.607 v -0.236 h -9.47 v -7.746 h 9.47 v -0.236 h -9.607 -0.006 -0.002 -15.988 v -7.747 h 15.988 0.008 9.607 v -0.235 h -9.47 v -7.746 h 9.47 v -0.236 h -9.607 -0.006 -0.002 -15.988 v -7.747 h 15.988 0.008 9.607 v -0.235 h -9.47 v -7.747 h 9.47 v -0.235 h -9.607 -0.006 -0.002 -15.988 v -7.747 h 15.988 0.008 9.607 v -0.236 h -9.47 v -7.746 h 9.47 v -0.236 h -9.607 -0.006 -0.002 -15.988 v -7.746 h 15.988 0.008 9.607 v -0.236 h -9.47 v -7.747 h 9.47 v -0.235 h -9.607 -0.006 -0.002 -15.988 v -7.747 h 15.988 0.008 9.607 v -0.235 h -9.47 v -7.747 h 9.47 v -0.236 h -9.607 -0.006 -0.002 -15.988 v -7.746 h 15.988 0.008 9.607 v -0.235 h -9.47 v -7.747 h 9.47 v -0.236 h -9.607 -0.006 -0.002 -15.988 v -7.746 h 15.988 0.008 9.607 v -0.237 h -9.47 v -7.746 h 9.47 v -0.235 h -9.607 -0.006 -0.002 -15.988 v -7.747 h 15.988 0.008 9.607 v -0.236 h -9.47 v -7.746 h 9.47 v -0.236 h -9.607 -0.006 -0.002 -15.988 v -7.747 h 15.988 0.008 9.607 v -0.235 h -9.47 v -7.746 h 9.47 v -0.236 h -9.607 -0.006 -0.002 -15.988 v -7.746 h 15.988 0.008 9.607 v -0.236 h -9.47 v -7.747 h 9.47 v -0.236 h -9.607 -0.006 -0.002 -15.988 v -7.746 h 15.988 0.008 9.607 v -0.235 h -9.47 v -7.747 h 9.47 v -0.236 h -9.607 -0.006 -0.002 -15.988 v -7.746 h 15.988 0.008 9.607 v -0.236 h -9.47 v -7.747 h 9.47 v -0.235 h -9.607 -0.006 -0.002 -15.988 v -7.746 h 15.988 0.008 9.607 v -0.236 h -9.47 v -7.747 h 9.47 v -0.235 h -9.607 -0.006 -0.002 -15.988 z" />
          </g>
          <g
             transform="translate(250.7578,2311.728)"
             id="g396">
            <path
               inkscape:connector-curvature="0"
               id="path398"
               style="fill:#ffffff;fill-opacity:1;fill-rule:evenodd;stroke:none"
               d="m 0,0 c -7.098,-6.68 -18.268,-6.339 -24.947,0.76 -6.678,7.098 -6.338,18.268 0.761,24.947 C -7.865,41 7.061,34.962 33.535,24.25 47.078,18.77 64.795,11.602 87.93,5.828 c 26.728,-6.671 51.779,-5.803 76.275,0.065 25.338,6.069 50.518,17.542 76.469,31.663 62.121,33.802 119.125,7.393 119.291,7.319 8.892,-4.008 12.853,-14.466 8.844,-23.359 C 364.803,12.624 354.346,8.663 345.451,12.67 345.332,12.725 304.01,31.884 257.535,6.596 229.189,-8.828 201.318,-21.448 172.361,-28.385 142.557,-35.523 112.061,-36.576 79.5,-28.45 53.545,-21.972 34.684,-14.34 20.266,-8.507 7.16,-3.204 0.23,0.214 0,0" />
          </g>
          <g
             transform="translate(276.9219,2234.0366)"
             id="g400">
            <path
               inkscape:connector-curvature="0"
               id="path402"
               style="fill:#ffffff;fill-opacity:1;fill-rule:evenodd;stroke:none"
               d="m 0,0 c -1.367,0 -2.678,-0.246 -3.887,-0.696 -0.549,0.603 -1.338,0.981 -2.217,0.981 -0.408,0 -0.796,-0.082 -1.154,-0.23 -0.193,2.574 -2.346,4.603 -4.971,4.603 -1.14,0 -2.189,-0.384 -3.031,-1.026 -0.535,0.739 -1.408,1.221 -2.392,1.221 -0.164,0 -0.327,-0.015 -0.483,-0.04 0.332,0.777 0.516,1.632 0.516,2.53 0,3.555 -2.879,6.436 -6.436,6.436 -0.662,0 -1.299,-0.099 -1.9,-0.285 -0.467,0.995 -1.477,1.683 -2.65,1.683 h -0.084 c 0.013,0.231 0.021,0.465 0.021,0.7 0,6.388 -5.178,11.566 -11.566,11.566 -6.387,0 -11.567,-5.178 -11.567,-11.566 0,-0.089 0.002,-0.178 0.004,-0.267 -0.558,0.14 -1.142,0.216 -1.744,0.216 -1.197,0 -2.324,-0.297 -3.314,-0.82 -1.686,2.3 -4.407,3.794 -7.477,3.794 -5.117,0 -9.266,-4.148 -9.266,-9.265 0,-1.006 0.162,-1.975 0.457,-2.881 -0.091,0.006 -0.185,0.009 -0.279,0.009 -2.519,0 -4.562,-2.043 -4.562,-4.564 0,-0.295 0.029,-0.585 0.082,-0.865 -0.032,0 -0.063,0.002 -0.096,0.002 -1.424,0 -2.584,-1.13 -2.629,-2.544 -0.396,0.076 -0.803,0.116 -1.221,0.116 -1.644,0 -3.185,-0.574 -4.293,-1.621 -2.963,-2.803 0.274,-3.531 3.391,-3.531 h 4.066 3.192 65.42 5.105 8.391 c 3.25,0 7.892,-0.532 4.668,2.866 C 6.061,-1.335 3.186,0 0,0" />
          </g>
          <g
             transform="translate(225.5723,2275.6401)"
             id="g404">
            <path
               inkscape:connector-curvature="0"
               id="path406"
               style="fill:#ffffff;fill-opacity:1;fill-rule:evenodd;stroke:none"
               d="m 0,0 c -1.869,-1.556 -4.646,-1.3 -6.201,0.571 -1.555,1.869 -1.301,4.646 0.57,6.201 8.533,7.085 25.834,14.498 50.803,15.078 17.824,0.414 39.683,-2.612 65.197,-11.704 28.943,-10.314 56.045,-12.273 82.527,-8.758 26.659,3.539 52.815,12.635 79.631,24.364 56.321,24.631 107.36,-4.474 107.51,-4.557 2.127,-1.183 2.893,-3.867 1.709,-5.995 -1.184,-2.128 -3.867,-2.893 -5.996,-1.71 -0.137,0.077 -47.42,27.04 -99.697,4.177 C 248.574,5.647 221.678,-3.685 194.039,-7.354 166.223,-11.046 137.777,-8.995 107.432,1.818 82.99,10.528 62.203,13.431 45.346,13.039 22.674,12.512 7.359,6.109 0,0" />
          </g>
          <g
             transform="translate(422.0801,2379.7935)"
             id="g408">
            <path
               inkscape:connector-curvature="0"
               id="path410"
               style="fill:#ffffff;fill-opacity:1;fill-rule:evenodd;stroke:none"
               d="m 0,0 c 1.811,0 3.543,-0.326 5.145,-0.921 0.724,0.797 1.767,1.298 2.929,1.298 0.541,0 1.059,-0.109 1.528,-0.306 0.259,3.408 3.107,6.092 6.582,6.092 1.507,0 2.896,-0.506 4.007,-1.357 0.713,0.978 1.868,1.614 3.17,1.614 0.215,0 0.432,-0.018 0.639,-0.052 -0.441,1.028 -0.684,2.161 -0.684,3.35 0,4.704 3.811,8.517 8.516,8.517 0.877,0 1.721,-0.131 2.518,-0.378 0.617,1.316 1.955,2.228 3.504,2.228 l 0.111,-0.002 c -0.016,0.307 -0.027,0.616 -0.027,0.927 0,8.455 6.853,15.308 15.306,15.308 8.455,0 15.307,-6.853 15.307,-15.308 0,-0.118 -0.002,-0.236 -0.004,-0.353 0.738,0.187 1.512,0.286 2.31,0.286 1.584,0 3.075,-0.392 4.383,-1.085 2.233,3.044 5.834,5.021 9.897,5.021 6.773,0 12.261,-5.489 12.261,-12.261 0,-1.332 -0.212,-2.614 -0.605,-3.814 0.123,0.008 0.246,0.012 0.371,0.012 3.336,0 6.039,-2.703 6.039,-6.038 0,-0.392 -0.039,-0.775 -0.111,-1.146 0.043,0.002 0.086,0.003 0.127,0.003 1.885,0 3.42,-1.496 3.482,-3.365 0.522,0.099 1.061,0.151 1.613,0.151 2.178,0 4.215,-0.757 5.682,-2.144 3.922,-3.71 -0.361,-4.674 -4.488,-4.674 H 104.127 99.904 13.326 6.568 -4.535 c -4.301,0 -10.444,-0.705 -6.176,3.793 C -8.021,-1.769 -4.217,0 0,0" />
          </g>
        </g>
      </g>
      <g
         transform="matrix(0.0602577,0,0,-0.0602577,103.57821,110.96885)"
         id="g420">
        <path
           inkscape:connector-curvature="0"
           id="path422"
           style="fill:#e6a5c1;fill-opacity:1;fill-rule:evenodd;stroke:none"
           d="M 0,0 C -30.098,12.111 -43.229,35.207 -43.82,60.196 H 312.105 C 311.422,43.221 303.686,25.292 284.814,7.207 L 213.506,-3.812 H 46.705 Z" />
      </g>
      <g
         transform="matrix(0.0602577,0,0,-0.0602577,120.11542,112.61661)"
         id="g424">
        <path
           inkscape:connector-curvature="0"
           id="path426"
           style="fill:#1e3948;fill-opacity:1;fill-rule:evenodd;stroke:none"
           d="m 0,0 c -3.596,0 -6.537,2.942 -6.537,6.535 v 0.098 c 0,3.595 2.941,6.535 6.537,6.535 3.594,0 6.535,-2.94 6.535,-6.535 V 6.535 C 6.535,2.941 3.594,0 0,0 m 28.926,33.676 h -338.414 c -3.479,0 -6.323,-2.845 -6.323,-6.322 0,-3.479 2.844,-6.324 6.323,-6.324 h 30.172 c 3.568,0 6.486,-2.918 6.486,-6.486 0,-3.567 -2.918,-6.486 -6.486,-6.486 h -12.438 c -2.215,0 -4.027,-1.813 -4.027,-4.029 0,-2.216 1.812,-4.029 4.027,-4.029 h 273.229 c 3.621,0 6.584,2.963 6.584,6.584 0,3.622 -2.963,6.584 -6.584,6.584 h -30.1 c -2.162,0 -3.93,1.77 -3.93,3.931 V 17.1 c 0,2.161 1.768,3.93 3.93,3.93 h 77.551 c 3.478,0 6.324,2.845 6.324,6.324 0,3.477 -2.848,6.322 -6.324,6.322" />
      </g>
      <g
         transform="matrix(0.0602577,0,0,-0.0602577,118.37595,104.40817)"
         id="g428">
        <path
           inkscape:connector-curvature="0"
           id="path430"
           style="fill:#5c8794;fill-opacity:1;fill-rule:evenodd;stroke:none"
           d="M 0,0 C 9.609,9.783 16.758,-2.644 15.76,-15.119 14.814,-26.947 4.619,-67.529 6.508,-84.602 H 2.604 C -6.945,-62.708 -12.299,-12.525 0,0" />
      </g>
      <g
         transform="matrix(0.0602577,0,0,-0.0602577,118.61933,109.50607)"
         id="g432">
        <path
           inkscape:connector-curvature="0"
           id="path434"
           style="fill:#88b5c3;fill-opacity:1;fill-rule:evenodd;stroke:none"
           d="m 0,0 c -9.295,34.507 2.473,82.205 2.512,82.367 0.072,0.296 0.371,0.479 0.666,0.406 0.297,-0.071 0.478,-0.37 0.408,-0.666 C 3.545,81.944 -8.236,34.192 1.131,0 Z" />
      </g>
      <g
         transform="matrix(0.0602577,0,0,-0.0602577,119.80436,105.70739)"
         id="g436">
        <path
           inkscape:connector-curvature="0"
           id="path438"
           style="fill:#1e3948;fill-opacity:1;fill-rule:evenodd;stroke:none"
           d="M 0,0 C 10.127,5.365 12.68,-6.341 8.732,-16.024 5.461,-24.05 -8.992,-47.788 -14.457,-63.041 h -5.147 C -20.039,-41.963 -11.951,-6.333 0,0" />
      </g>
      <g
         transform="matrix(0.0602577,0,0,-0.0602577,118.73632,109.50607)"
         id="g440">
        <path
           inkscape:connector-curvature="0"
           id="path442"
           style="fill:#73a5b0;fill-opacity:1;fill-rule:evenodd;stroke:none"
           d="m 0,0 c 3.352,28.507 22.309,59.494 22.379,59.606 0.131,0.217 0.414,0.287 0.633,0.155 0.218,-0.132 0.285,-0.417 0.154,-0.634 C 23.1,59.016 4.262,28.229 0.916,0 Z" />
      </g>
      <g
         transform="matrix(0.0602577,0,0,-0.0602577,117.22564,106.52266)"
         id="g444">
        <path
           inkscape:connector-curvature="0"
           id="path446"
           style="fill:#73a5b0;fill-opacity:1;fill-rule:evenodd;stroke:none"
           d="m 0,0 c -9.814,4.286 -11.369,-6.801 -7.01,-15.548 2.951,-5.918 13.582,-21.072 20.74,-33.963 h 8.172 C 19.109,-30.009 10.145,-4.432 0,0" />
      </g>
      <g
         transform="matrix(0.0602577,0,0,-0.0602577,118.36959,109.50607)"
         id="g448">
        <path
           inkscape:connector-curvature="0"
           id="path450"
           style="fill:#1e3948;fill-opacity:1;fill-rule:evenodd;stroke:none"
           d="m 0,0 c -6.969,23.626 -23.016,45.892 -23.078,45.982 -0.139,0.194 -0.406,0.239 -0.602,0.1 -0.193,-0.139 -0.238,-0.408 -0.099,-0.602 C -23.715,45.392 -7.84,23.358 -0.889,0 Z" />
      </g>
      <g
         transform="matrix(0.0602577,0,0,-0.0602577,119.30312,109.03607)"
         id="g452">
        <path
           inkscape:connector-curvature="0"
           id="path454"
           style="fill:#b31b56;fill-opacity:1;fill-rule:evenodd;stroke:none"
           d="m 0,0 h -28.754 c -0.859,0 -1.564,-0.703 -1.564,-1.563 v -7.099 c 0,-0.86 0.705,-1.564 1.564,-1.564 H 0 c 0.859,0 1.562,0.704 1.562,1.564 v 7.099 C 1.562,-0.703 0.859,0 0,0" />
      </g>
      <g
         transform="matrix(0.0602577,0,0,-0.0602577,119.00595,109.38405)"
         id="g456">
        <path
           inkscape:connector-curvature="0"
           id="path458"
           style="fill:#b31b56;fill-opacity:1;fill-rule:evenodd;stroke:none"
           d="m 0,0 h -18.891 l -4.931,-4.45 4.029,-15.52 H -9.445 0.902 l 4.03,15.52 z" />
      </g>
      <g
         transform="matrix(0.0602577,0,0,-0.0602577,117.57047,109.65221)"
         id="g460">
        <path
           inkscape:connector-curvature="0"
           id="path462"
           style="fill:#8f194f;fill-opacity:1;fill-rule:evenodd;stroke:none"
           d="M 0,0 0.828,-3.19 26.562,-8.434 28.754,0 Z" />
      </g>
      <g
         transform="matrix(0.0602577,0,0,-0.0602577,104.73511,103.73604)"
         id="g464">
        <path
           inkscape:connector-curvature="0"
           id="path466"
           style="fill:#d46058;fill-opacity:1;fill-rule:evenodd;stroke:none"
           d="m 0,0 -6.582,7.134 c 0,0 -0.879,0.784 -1.439,-0.029 -0.561,-0.812 0.447,-2.407 0.894,-3.233 0.451,-0.827 3.439,-6.647 3.439,-6.647 l 4.161,0.553 z" />
      </g>
      <g
         transform="matrix(0.0602577,0,0,-0.0602577,104.62508,103.72507)"
         id="g468">
        <path
           inkscape:connector-curvature="0"
           id="path470"
           style="fill:#d46058;fill-opacity:1;fill-rule:evenodd;stroke:none"
           d="m 0,0 -9.09,5.813 c 0,0 -1.168,0.593 -1.541,-0.439 -0.373,-1.032 1.162,-2.462 1.877,-3.224 0.717,-0.76 5.574,-6.175 5.574,-6.175 l 4.319,1.77 z" />
      </g>
      <g
         transform="matrix(0.0602577,0,0,-0.0602577,118.54413,103.73604)"
         id="g472">
        <path
           inkscape:connector-curvature="0"
           id="path474"
           style="fill:#d46058;fill-opacity:1;fill-rule:evenodd;stroke:none"
           d="m 0,0 6.582,7.134 c 0,0 0.879,0.784 1.438,-0.029 C 8.582,6.293 7.574,4.698 7.127,3.872 6.676,3.045 3.688,-2.775 3.688,-2.775 l -4.163,0.553 z" />
      </g>
      <g
         transform="matrix(0.0602577,0,0,-0.0602577,118.65417,103.72507)"
         id="g476">
        <path
           inkscape:connector-curvature="0"
           id="path478"
           style="fill:#d46058;fill-opacity:1;fill-rule:evenodd;stroke:none"
           d="m 0,0 9.09,5.813 c 0,0 1.168,0.593 1.541,-0.439 C 11.004,4.342 9.469,2.912 8.754,2.15 8.039,1.39 3.18,-4.025 3.18,-4.025 l -4.317,1.77 z" />
      </g>
      <g
         transform="matrix(0.0602577,0,0,-0.0602577,110.89058,96.777513)"
         id="g480">
        <path
           inkscape:connector-curvature="0"
           id="path482"
           style="fill:#2a2c62;fill-opacity:1;fill-rule:evenodd;stroke:none"
           d="m 0,0 c 23.805,28.931 55.26,-3.744 38.525,-41.494 -1.56,-2.947 38.682,-42.553 -2.974,-64.797 -21.393,-11.424 -53.088,11.217 -53.088,11.217 -20.865,31.183 6.09,49.164 5.826,53.47 -0.32,5.213 -1.982,10.073 -5.258,17.774 C -22.381,-11.103 -12.582,3.527 0,0" />
      </g>
      <g
         transform="matrix(0.0602577,0,0,-0.0602577,109.81241,103.96648)"
         id="g484">
        <path
           inkscape:connector-curvature="0"
           id="path486"
           style="fill:#e29d72;fill-opacity:1;fill-rule:evenodd;stroke:none"
           d="m 0,0 c 0,0 -28.719,-39.325 -34.102,-38.122 -5.382,1.202 -62.248,41.605 -63.556,42.584 -1.309,0.982 -0.803,2.699 0.582,2.595 1.385,-0.105 8.683,-4.136 9.156,-4.453 0.471,-0.318 0.506,0.171 0.506,0.171 -1.404,6.49 4.484,8.055 6.035,8.155 1.553,0.098 2.729,-0.583 2.721,-1.399 C -78.668,8.716 -79.85,8.383 -79.85,8.383 -83.488,8 -84.355,4.885 -82.936,2.821 c 1.42,-2.064 4.497,-3.127 6.821,-1.097 2.324,2.028 0.586,4.721 -0.123,5.511 -0.709,0.791 -1.43,1.625 -0.664,2.392 0.765,0.767 1.578,0.069 1.578,0.069 7.381,-5.114 3.711,-10.986 3.711,-10.986 0,0 -0.754,-2.06 1.015,-3.232 1.768,-1.171 31.53,-15.704 33.567,-15.884 1.521,-0.134 16.113,28.775 24.631,46.136 4.14,8.444 10.027,18.267 18.181,20.852 0,0 6.887,-14.568 -5.781,-46.582" />
      </g>
      <g
         transform="matrix(0.0602577,0,0,-0.0602577,113.51238,103.96648)"
         id="g488">
        <path
           inkscape:connector-curvature="0"
           id="path490"
           style="fill:#e29d72;fill-opacity:1;fill-rule:evenodd;stroke:none"
           d="M 0,0 C 0,0 28.719,-39.325 34.102,-38.122 39.484,-36.92 96.35,3.483 97.658,4.462 98.967,5.444 98.461,7.161 97.076,7.057 95.691,6.952 88.393,2.921 87.922,2.604 87.449,2.286 87.414,2.775 87.414,2.775 88.818,9.265 82.93,10.83 81.379,10.93 79.826,11.028 78.648,10.347 78.66,9.531 78.668,8.716 79.852,8.383 79.852,8.383 83.49,8 84.355,4.885 82.938,2.821 81.518,0.757 78.439,-0.306 76.117,1.724 73.791,3.752 75.529,6.445 76.238,7.235 76.947,8.026 77.668,8.86 76.9,9.627 76.139,10.394 75.324,9.696 75.324,9.696 67.941,4.582 71.613,-1.29 71.613,-1.29 c 0,0 0.752,-2.06 -1.013,-3.232 C 68.83,-5.693 39.066,-20.226 37.033,-20.406 35.51,-20.54 20.916,8.369 12.402,25.73 8.26,34.174 2.439,44.122 -5.717,46.708 -5.717,46.708 -12.666,32.014 0,0" />
      </g>
      <g
         transform="matrix(0.0602577,0,0,-0.0602577,114.22606,107.81367)"
         id="g492">
        <path
           inkscape:connector-curvature="0"
           id="path494"
           style="fill:#b31b56;fill-opacity:1;fill-rule:evenodd;stroke:none"
           d="m 0,0 47.627,-2.669 c 0,0 -3.822,-14.106 -4.365,-15.663 -0.543,-1.557 -85.739,-26.192 -85.739,-26.192 0,0 -85.199,24.635 -85.742,26.192 -0.543,1.557 -4.365,15.663 -4.365,15.663 L -84.957,0 Z" />
      </g>
      <g
         transform="matrix(0.0602577,0,0,-0.0602577,114.16874,110.55622)"
         id="g496">
        <path
           inkscape:connector-curvature="0"
           id="path498"
           style="fill:#b31b56;fill-opacity:1;fill-rule:evenodd;stroke:none"
           d="m 0,0 c 0,0 2.494,2.745 4.164,2.932 1.672,0.186 26.926,-7.519 30.359,-8.634 6.389,-2.07 8.502,-20.295 -6.591,-18.382 -6.592,0.836 -23.395,3.158 -26.272,3.9 -2.881,0.743 -3.777,5.33 -3.777,5.33 z" />
      </g>
      <g
         transform="matrix(0.0602577,0,0,-0.0602577,112.26003,100.97895)"
         id="g500">
        <path
           inkscape:connector-curvature="0"
           id="path502"
           style="fill:#cd3c9b;fill-opacity:1;fill-rule:evenodd;stroke:none"
           d="m 0,0 14.938,-2.725 2.917,-22.033 c 0,0 3.528,-10.769 3.899,-14.575 0.373,-3.807 -4.182,-13.368 -5.666,-17.267 -1.486,-3.9 -1.484,-25.438 -1.299,-26.923 0.186,-1.485 10.256,-29.902 10.256,-29.902 0,0 -7.309,-7.512 -34.895,-7.512 -27.588,0 -34.896,7.512 -34.896,7.512 0,0 10.068,28.417 10.254,29.902 0.185,1.485 0.187,23.023 -1.299,26.923 -1.486,3.899 -6.037,13.46 -5.666,17.267 0.371,3.806 3.9,14.575 3.9,14.575 L -34.641,-2.725 -19.703,0 -9.85,-9.623 Z" />
      </g>
      <g
         transform="matrix(0.0602577,0,0,-0.0602577,106.79576,108.06139)"
         id="g504">
        <path
           inkscape:connector-curvature="0"
           id="path506"
           style="fill:#e29d72;fill-opacity:1;fill-rule:evenodd;stroke:none"
           d="m 0,0 c 0,0 122.473,-41.291 125.543,-42.521 2.664,-1.072 5.166,-15.132 -5.303,-13.736 C 115.848,-55.671 6.773,-35.761 -3.721,-33.276 -28.152,-27.491 -26.924,9.361 0,0" />
      </g>
      <g
         transform="matrix(0.0602577,0,0,-0.0602577,112.35277,109.93847)"
         id="g508">
        <path
           inkscape:connector-curvature="0"
           id="path510"
           style="fill:#d46058;fill-opacity:1;fill-rule:evenodd;stroke:none"
           d="m 0,0 c 18.309,-6.202 32.309,-10.965 33.322,-11.371 1.635,-0.657 3.209,-6.207 1.758,-10.073 -0.963,-1.052 -2.141,-2.217 -3.435,-3.43 -0.985,-0.321 -2.182,-0.424 -3.625,-0.231 -1.977,0.262 -25.157,4.44 -51.01,9.182 z" />
      </g>
      <g
         transform="matrix(0.0602577,0,0,-0.0602577,113.7693,110.41944)"
         id="g512">
        <path
           inkscape:connector-curvature="0"
           id="path514"
           style="fill:#ffffff;fill-opacity:1;fill-rule:evenodd;stroke:none"
           d="m 0,0 c -0.223,-3.658 -1.049,-10.032 -4.004,-15.651 4.775,-0.85 7.85,-1.385 8.516,-1.473 C 14.98,-18.52 12.479,-4.46 9.814,-3.389 9.318,-3.191 5.707,-1.946 0,0" />
      </g>
      <g
         transform="matrix(0.0602577,0,0,-0.0602577,113.7693,110.41944)"
         id="g516">
        <path
           inkscape:connector-curvature="0"
           id="path518"
           style="fill:#d8d1dd;fill-opacity:1;fill-rule:evenodd;stroke:none"
           d="m 0,0 c -0.223,-3.658 -1.049,-10.032 -4.004,-15.651 l 3.918,-0.694 c 3.551,5.568 3.969,11.781 3.895,15.043 z" />
      </g>
      <g
         transform="matrix(0.0602577,0,0,-0.0602577,114.60796,110.73138)"
         id="g520">
        <path
           inkscape:connector-curvature="0"
           id="path522"
           style="fill:#ffffff;fill-opacity:1;fill-rule:evenodd;stroke:none"
           d="M 0,0 C -0.047,0.171 0.055,0.348 0.223,0.394 0.393,0.44 0.57,0.341 0.615,0.171 l 2.073,-7.454 3.189,3.988 -0.533,1.917 c -0.047,0.17 0.054,0.347 0.222,0.393 0.17,0.046 0.35,-0.052 0.395,-0.223 l 0.408,-1.473 0.485,0.604 c 0.109,0.138 0.312,0.16 0.449,0.051 0.136,-0.11 0.158,-0.312 0.049,-0.449 l -0.77,-0.964 1.365,-4.921 3.192,3.985 -0.45,1.618 c -0.046,0.171 0.053,0.347 0.221,0.394 0.172,0.046 0.35,-0.054 0.395,-0.223 l 0.326,-1.173 0.678,0.848 c 0.109,0.137 0.312,0.16 0.449,0.049 0.138,-0.109 0.16,-0.31 0.051,-0.447 l -0.969,-1.209 1.367,-4.919 3.191,3.986 -0.367,1.315 c -0.045,0.17 0.055,0.347 0.225,0.394 0.17,0.045 0.348,-0.054 0.392,-0.224 l 0.243,-0.87 0.875,1.092 c 0.107,0.136 0.312,0.158 0.447,0.049 0.139,-0.11 0.16,-0.312 0.051,-0.449 l -1.162,-1.45 1.367,-4.921 3.57,4.46 c 0.109,0.138 0.311,0.16 0.449,0.05 0.139,-0.11 0.16,-0.312 0.049,-0.449 l -3.857,-4.82 1.218,-4.39 c 0.047,-0.17 -0.054,-0.346 -0.222,-0.393 -0.172,-0.046 -0.348,0.055 -0.393,0.223 l -1.097,3.945 -2.055,-2.567 c -0.108,-0.137 -0.309,-0.159 -0.449,-0.049 -0.135,0.109 -0.157,0.312 -0.047,0.448 l 2.34,2.926 -1.366,4.921 -3.191,-3.985 1.137,-4.09 c 0.047,-0.17 -0.055,-0.347 -0.225,-0.393 -0.17,-0.046 -0.346,0.053 -0.392,0.223 l -1.012,3.644 -2.25,-2.811 c -0.108,-0.136 -0.313,-0.157 -0.449,-0.048 -0.137,0.108 -0.159,0.312 -0.049,0.447 l 2.537,3.171 -1.365,4.919 -3.192,-3.986 1.053,-3.787 c 0.045,-0.17 -0.055,-0.347 -0.225,-0.393 -0.17,-0.047 -0.345,0.052 -0.392,0.223 l -0.93,3.342 -2.443,-3.053 c -0.11,-0.138 -0.313,-0.159 -0.45,-0.05 -0.136,0.109 -0.158,0.312 -0.048,0.448 l 2.732,3.414 -1.367,4.921 -3.192,-3.987 0.969,-3.486 c 0.047,-0.17 -0.052,-0.347 -0.222,-0.394 -0.17,-0.046 -0.348,0.054 -0.393,0.224 l -0.846,3.041 -2.638,-3.298 c -0.11,-0.137 -0.313,-0.159 -0.45,-0.049 -0.136,0.109 -0.158,0.311 -0.048,0.448 l 2.925,3.657 z" />
      </g>
      <g
         transform="matrix(0.0602577,0,0,-0.0602577,116.06521,110.90956)"
         id="g524">
        <path
           inkscape:connector-curvature="0"
           id="path526"
           style="fill:#ffffff;fill-opacity:1;fill-rule:evenodd;stroke:none"
           d="m 0,0 c 5.732,-1.86 7.629,-18.215 -5.916,-16.499 -5.914,0.75 -20.996,2.834 -23.578,3.5 -1.83,0.473 -2.77,2.679 -3.162,3.922 -0.297,0.015 -0.61,0.045 -0.934,0.087 0,0 0.897,-4.588 3.778,-5.33 2.876,-0.743 19.679,-3.064 26.271,-3.9 15.094,-1.913 12.98,16.311 6.592,18.382 -3.434,1.115 -28.688,8.82 -30.36,8.633 -1.67,-0.186 -4.164,-2.931 -4.164,-2.931 0.328,-0.113 0.631,-0.217 0.911,-0.315 0.72,0.715 2.216,2.074 3.318,2.196 C -25.746,7.913 -3.082,0.998 0,0" />
      </g>
      <g
         transform="matrix(0.0602577,0,0,-0.0602577,109.16394,110.55622)"
         id="g528">
        <path
           inkscape:connector-curvature="0"
           id="path530"
           style="fill:#b31b56;fill-opacity:1;fill-rule:evenodd;stroke:none"
           d="m 0,0 c 0,0 -2.494,2.745 -4.164,2.932 -1.672,0.186 -26.924,-7.519 -30.357,-8.634 -6.387,-2.07 -8.502,-20.295 6.591,-18.382 6.59,0.836 23.395,3.158 26.274,3.9 2.877,0.743 3.775,5.33 3.775,5.33 z" />
      </g>
      <g
         transform="matrix(0.0602577,0,0,-0.0602577,116.53703,108.06139)"
         id="g532">
        <path
           inkscape:connector-curvature="0"
           id="path534"
           style="fill:#e29d72;fill-opacity:1;fill-rule:evenodd;stroke:none"
           d="m 0,0 c 0,0 -122.473,-41.291 -125.543,-42.521 -2.664,-1.072 -5.168,-15.132 5.303,-13.736 4.392,0.586 113.465,20.496 123.961,22.981 C 28.152,-27.491 26.926,9.361 0,0" />
      </g>
      <g
         transform="matrix(0.0602577,0,0,-0.0602577,109.5635,110.41944)"
         id="g536">
        <path
           inkscape:connector-curvature="0"
           id="path538"
           style="fill:#ffffff;fill-opacity:1;fill-rule:evenodd;stroke:none"
           d="m 0,0 c 0.223,-3.658 1.051,-10.032 4.004,-15.651 -4.774,-0.85 -7.848,-1.385 -8.516,-1.473 -10.47,-1.396 -7.967,12.664 -5.302,13.735 C -9.318,-3.191 -5.707,-1.946 0,0" />
      </g>
      <g
         transform="matrix(0.0602577,0,0,-0.0602577,109.5635,110.41944)"
         id="g540">
        <path
           inkscape:connector-curvature="0"
           id="path542"
           style="fill:#d8d1dd;fill-opacity:1;fill-rule:evenodd;stroke:none"
           d="m 0,0 c 0.223,-3.658 1.051,-10.032 4.004,-15.651 l -3.918,-0.694 c -3.551,5.568 -3.969,11.781 -3.897,15.043 z" />
      </g>
      <g
         transform="matrix(0.0602577,0,0,-0.0602577,108.72484,110.73138)"
         id="g544">
        <path
           inkscape:connector-curvature="0"
           id="path546"
           style="fill:#ffffff;fill-opacity:1;fill-rule:evenodd;stroke:none"
           d="M 0,0 C 0.045,0.171 -0.053,0.348 -0.223,0.394 -0.395,0.44 -0.57,0.341 -0.617,0.171 l -2.071,-7.454 -3.189,3.988 0.533,1.917 c 0.045,0.17 -0.052,0.347 -0.224,0.393 -0.17,0.046 -0.346,-0.052 -0.393,-0.223 l -0.41,-1.473 -0.483,0.604 c -0.109,0.138 -0.312,0.16 -0.449,0.051 -0.136,-0.11 -0.158,-0.312 -0.051,-0.449 l 0.774,-0.964 -1.367,-4.921 -3.192,3.985 0.451,1.618 c 0.045,0.171 -0.054,0.347 -0.224,0.394 -0.17,0.046 -0.348,-0.054 -0.395,-0.223 l -0.324,-1.173 -0.68,0.848 c -0.109,0.137 -0.31,0.16 -0.447,0.049 -0.138,-0.109 -0.16,-0.31 -0.051,-0.447 l 0.967,-1.209 -1.365,-4.919 -3.191,3.986 0.365,1.315 c 0.047,0.17 -0.053,0.347 -0.223,0.394 -0.17,0.045 -0.348,-0.054 -0.394,-0.224 l -0.241,-0.87 -0.875,1.092 c -0.109,0.136 -0.31,0.158 -0.447,0.049 -0.139,-0.11 -0.16,-0.312 -0.051,-0.449 l 1.162,-1.45 -1.367,-4.921 -3.57,4.46 c -0.111,0.138 -0.313,0.16 -0.449,0.05 -0.139,-0.11 -0.16,-0.312 -0.049,-0.449 l 3.859,-4.82 -1.22,-4.39 c -0.047,-0.17 0.052,-0.346 0.222,-0.393 0.172,-0.046 0.348,0.055 0.395,0.223 l 1.095,3.945 2.053,-2.567 c 0.11,-0.137 0.313,-0.159 0.449,-0.049 0.139,0.109 0.161,0.312 0.049,0.448 l -2.34,2.926 1.366,4.921 3.191,-3.985 -1.137,-4.09 c -0.045,-0.17 0.055,-0.347 0.225,-0.393 0.17,-0.046 0.346,0.053 0.392,0.223 l 1.012,3.644 2.25,-2.811 c 0.11,-0.136 0.311,-0.157 0.449,-0.048 0.137,0.108 0.159,0.312 0.049,0.447 l -2.537,3.171 1.365,4.919 3.192,-3.986 -1.053,-3.787 c -0.045,-0.17 0.055,-0.347 0.225,-0.393 0.17,-0.047 0.345,0.052 0.392,0.223 l 0.928,3.342 2.445,-3.053 c 0.11,-0.138 0.313,-0.159 0.45,-0.05 0.136,0.109 0.158,0.312 0.048,0.448 l -2.732,3.414 1.367,4.921 3.192,-3.987 -0.969,-3.486 c -0.047,-0.17 0.052,-0.347 0.222,-0.394 0.17,-0.046 0.346,0.054 0.393,0.224 l 0.846,3.041 2.638,-3.298 c 0.11,-0.137 0.313,-0.159 0.45,-0.049 0.136,0.109 0.158,0.311 0.048,0.448 l -2.927,3.657 z" />
      </g>
      <g
         transform="matrix(0.0602577,0,0,-0.0602577,107.26759,110.90956)"
         id="g548">
        <path
           inkscape:connector-curvature="0"
           id="path550"
           style="fill:#ffffff;fill-opacity:1;fill-rule:evenodd;stroke:none"
           d="m 0,0 c -5.73,-1.86 -7.629,-18.215 5.916,-16.499 5.916,0.75 20.996,2.834 23.578,3.5 1.83,0.473 2.77,2.679 3.16,3.922 0.301,0.015 0.612,0.045 0.936,0.087 0,0 -0.899,-4.588 -3.776,-5.33 -2.878,-0.743 -19.683,-3.064 -26.273,-3.9 -15.094,-1.913 -12.979,16.311 -6.592,18.382 3.434,1.115 28.686,8.82 30.358,8.633 1.67,-0.186 4.164,-2.931 4.164,-2.931 C 31.146,5.751 30.842,5.647 30.562,5.549 29.842,6.264 28.346,7.623 27.244,7.745 25.746,7.913 3.082,0.998 0,0" />
      </g>
      <g
         transform="matrix(0.0602577,0,0,-0.0602577,111.6664,109.70608)"
         id="g552">
        <path
           inkscape:connector-curvature="0"
           id="path554"
           style="fill:none;stroke:#d46058;stroke-width:1.41700006;stroke-linecap:round;stroke-linejoin:round;stroke-miterlimit:2.61299992;stroke-dasharray:none;stroke-opacity:1"
           d="M 0,0 -34.898,-11.838" />
      </g>
      <g
         transform="matrix(0.0602577,0,0,-0.0602577,111.66075,99.938803)"
         id="g556">
        <path
           inkscape:connector-curvature="0"
           id="path558"
           style="fill:#d46058;fill-opacity:1;fill-rule:evenodd;stroke:none"
           d="m 0,0 h 0.186 c 5.369,0 9.759,-4.259 9.759,-9.464 v -11.119 c 0,-5.206 -4.39,-9.464 -9.759,-9.464 H 0 c -5.365,0 -9.758,4.258 -9.758,9.464 V -9.464 C -9.758,-4.259 -5.365,0 0,0" />
      </g>
      <g
         transform="matrix(0.0602577,0,0,-0.0602577,113.02443,98.756183)"
         id="g560">
        <path
           inkscape:connector-curvature="0"
           id="path562"
           style="fill:#d46058;fill-opacity:1;fill-rule:evenodd;stroke:none"
           d="M 0,0 C 0.166,-0.023 0.326,-0.052 0.484,-0.086 L 0.49,-0.087 c 2.951,-0.64 5.18,-3.249 5.217,-6.399 0.043,-3.66 -2.887,-6.664 -6.547,-6.708 -3.662,-0.044 -6.666,2.889 -6.711,6.548 -0.025,2.128 0.955,4.033 2.5,5.264 -0.185,-1.955 0.112,-4.379 2.606,-4.639 L -2.49,-2.199 C -2.51,-0.652 -1.061,0.05 0,0" />
      </g>
      <g
         transform="matrix(0.0602577,0,0,-0.0602577,110.29271,98.737183)"
         id="g564">
        <path
           inkscape:connector-curvature="0"
           id="path566"
           style="fill:#d46058;fill-opacity:1;fill-rule:evenodd;stroke:none"
           d="m 0,0 c -0.166,-0.021 -0.326,-0.047 -0.488,-0.079 l -0.004,-0.002 v 0.001 c -2.961,-0.599 -5.225,-3.178 -5.307,-6.326 -0.094,-3.659 2.795,-6.704 6.455,-6.799 3.66,-0.094 6.703,2.795 6.799,6.455 0.057,2.127 -0.896,4.045 -2.422,5.298 C 5.186,-3.41 4.859,-5.83 2.359,-6.055 l 0.098,3.822 C 2.498,-0.687 1.061,0.035 0,0" />
      </g>
      <g
         transform="matrix(0.0602577,0,0,-0.0602577,111.65581,100.75652)"
         id="g568">
        <path
           inkscape:connector-curvature="0"
           id="path570"
           style="fill:#e29d72;fill-opacity:1;fill-rule:evenodd;stroke:none"
           d="m 0,0 c -12.373,0 -22.695,15.27 -22.695,27.326 v 16.013 c 0,12.483 10.213,22.697 22.693,22.697 H 0 c 12.482,0 22.697,-10.214 22.697,-22.697 V 27.664 C 22.697,14.452 13.691,0 0,0" />
      </g>
      <g
         transform="matrix(0.0602577,0,0,-0.0602577,112.4288,99.412913)"
         id="g572">
        <path
           inkscape:connector-curvature="0"
           id="path574"
           style="fill:#d46058;fill-opacity:1;fill-rule:evenodd;stroke:none"
           d="m 0,0 c -1.738,-0.032 -3.121,-1.466 -3.088,-3.204 0.033,-1.736 1.467,-3.119 3.203,-3.087 1.739,0.033 3.121,1.467 3.088,3.204 C 3.172,-1.35 1.736,0.032 0,0" />
      </g>
      <g
         transform="matrix(0.0602577,0,0,-0.0602577,110.85963,99.443063)"
         id="g576">
        <path
           inkscape:connector-curvature="0"
           id="path578"
           style="fill:#d46058;fill-opacity:1;fill-rule:evenodd;stroke:none"
           d="m 0,0 c -1.738,-0.032 -3.119,-1.467 -3.088,-3.204 0.031,-1.737 1.467,-3.119 3.203,-3.087 1.739,0.033 3.119,1.467 3.086,3.204 C 3.172,-1.35 1.736,0.032 0,0" />
      </g>
      <g
         transform="matrix(0.0602577,0,0,-0.0602577,111.24236,98.628143)"
         id="g580">
        <path
           inkscape:connector-curvature="0"
           id="path582"
           style="fill:#2a2c62;fill-opacity:1;fill-rule:evenodd;stroke:none"
           d="m 0,0 c 0.479,-0.216 0.691,-0.781 0.475,-1.258 -0.217,-0.478 -0.782,-0.69 -1.258,-0.474 -0.008,0.003 -2.877,1.36 -5.612,-0.361 -0.447,-0.28 -1.037,-0.145 -1.318,0.301 -0.279,0.445 -0.146,1.035 0.301,1.315 C -3.797,1.796 -0.008,0.004 0,0" />
      </g>
      <g
         transform="matrix(0.0602577,0,0,-0.0602577,112.59486,98.653623)"
         id="g584">
        <path
           inkscape:connector-curvature="0"
           id="path586"
           style="fill:#2a2c62;fill-opacity:1;fill-rule:evenodd;stroke:none"
           d="m 0,0 c 0.457,-0.256 0.625,-0.835 0.369,-1.294 -0.256,-0.458 -0.834,-0.624 -1.293,-0.369 -0.008,0.004 -2.754,1.589 -5.623,0.097 -0.467,-0.243 -1.045,-0.062 -1.287,0.405 -0.244,0.467 -0.061,1.045 0.406,1.288 C -3.641,2.099 -0.012,0.004 0,0" />
      </g>
      <g
         transform="matrix(0.0602577,0,0,-0.0602577,111.35416,99.757793)"
         id="g588">
        <path
           inkscape:connector-curvature="0"
           id="path590"
           style="fill:#2a2c62;fill-opacity:1;fill-rule:evenodd;stroke:none"
           d="m 0,0 c -0.029,-3.228 2.564,-5.867 5.791,-5.896 3.227,-0.03 5.865,2.563 5.897,5.79 h -0.012 c 0.006,0.555 -0.444,1.013 -0.998,1.018 L 1.029,1 C 0.473,1.004 0.016,0.555 0.01,0 Z" />
      </g>
      <g
         transform="matrix(0.0602577,0,0,-0.0602577,111.48292,100.03311)"
         id="g592">
        <path
           inkscape:connector-curvature="0"
           id="path594"
           style="fill:#b63942;fill-opacity:1;fill-rule:evenodd;stroke:none"
           d="M 0,0 C 0.994,-0.819 2.266,-1.315 3.654,-1.327 4.789,-1.338 5.848,-1.024 6.75,-0.474 6.312,0.73 5.01,1.639 3.428,1.712 1.922,1.782 0.594,1.071 0,0" />
      </g>
      <g
         transform="matrix(0.0602577,0,0,-0.0602577,111.97781,99.702693)"
         id="g596">
        <path
           inkscape:connector-curvature="0"
           id="path598-3"
           style="fill:#ffffff;fill-opacity:1;fill-rule:evenodd;stroke:none"
           d="m 0,0 -9.066,0.083 c -0.155,-1.002 0.3,-2.019 0.974,-2.247 0.819,-0.274 7.383,-0.164 7.852,0.349 C -0.014,-1.567 0.023,-0.764 0,0" />
      </g>
      <g
         transform="matrix(0.0602577,0,0,-0.0602577,111.72336,99.247843)"
         id="g600">
        <path
           inkscape:connector-curvature="0"
           id="path602"
           style="fill:#efc6bb;fill-opacity:1;fill-rule:evenodd;stroke:none"
           d="m 0,0 c 0.424,-1.169 1.164,-3.285 1.098,-3.632 -0.086,-0.482 -2.6,-0.808 -3.26,-0.135 -0.44,0.451 0.105,2.297 0.582,3.537 C -0.93,1.458 -0.57,1.574 0,0" />
      </g>
      <g
         transform="matrix(0.0602577,0,0,-0.0602577,112.46163,99.166753)"
         id="g604">
        <path
           inkscape:connector-curvature="0"
           id="path606"
           style="fill:#2a2c62;fill-opacity:1;fill-rule:evenodd;stroke:none"
           d="M 0,0 C -0.002,0.529 -0.211,1.032 -0.586,1.404 -0.965,1.777 -1.467,1.984 -1.996,1.982 -2.525,1.979 -3.027,1.769 -3.4,1.394 c -0.373,-0.376 -0.58,-0.88 -0.579,-1.41 0.002,-0.44 -0.351,-0.798 -0.794,-0.8 -0.44,-0.001 -0.797,0.355 -0.799,0.794 -0.004,0.953 0.369,1.862 1.041,2.538 0.67,0.676 1.576,1.056 2.529,1.06 C -1.049,3.58 -0.141,3.207 0.535,2.536 0.883,2.191 1.152,1.784 1.334,1.34 1.436,1.317 1.639,1.3 1.818,1.438 1.918,1.514 2.061,1.495 2.139,1.395 2.213,1.295 2.193,1.151 2.094,1.075 1.889,0.918 1.67,0.875 1.486,0.874 L 1.49,0.857 C 1.684,0.815 1.93,0.81 2.184,0.932 2.297,0.985 2.436,0.937 2.488,0.823 2.541,0.71 2.494,0.574 2.381,0.52 2.094,0.383 1.814,0.36 1.572,0.387 V 0.382 C 1.773,0.302 2.014,0.253 2.287,0.288 2.414,0.302 2.525,0.213 2.541,0.088 2.557,-0.037 2.469,-0.151 2.344,-0.167 2.063,-0.202 1.809,-0.17 1.588,-0.104 1.535,-0.493 1.203,-0.792 0.801,-0.795 0.359,-0.796 0.002,-0.44 0,0" />
      </g>
      <g
         transform="matrix(0.0602577,0,0,-0.0602577,110.93107,99.166753)"
         id="g608">
        <path
           inkscape:connector-curvature="0"
           id="path610"
           style="fill:#2a2c62;fill-opacity:1;fill-rule:evenodd;stroke:none"
           d="M 0,0 C 0.004,0.529 0.215,1.032 0.588,1.404 0.965,1.777 1.469,1.984 1.998,1.982 2.527,1.979 3.029,1.769 3.402,1.394 3.775,1.018 3.98,0.514 3.98,-0.016 c 0,-0.44 0.354,-0.798 0.793,-0.8 0.44,-0.001 0.801,0.355 0.801,0.794 C 5.578,0.931 5.205,1.84 4.533,2.516 3.863,3.192 2.957,3.572 2.004,3.576 1.053,3.58 0.143,3.207 -0.535,2.536 -0.881,2.191 -1.15,1.784 -1.33,1.34 -1.436,1.317 -1.637,1.3 -1.816,1.438 c -0.1,0.076 -0.243,0.057 -0.321,-0.043 -0.074,-0.1 -0.056,-0.244 0.045,-0.32 0.203,-0.157 0.424,-0.2 0.61,-0.201 L -1.488,0.857 C -1.682,0.815 -1.928,0.81 -2.182,0.932 -2.295,0.985 -2.432,0.937 -2.486,0.823 -2.541,0.71 -2.492,0.574 -2.379,0.52 -2.092,0.383 -1.811,0.36 -1.57,0.387 V 0.382 c -0.201,-0.08 -0.442,-0.129 -0.715,-0.094 -0.127,0.014 -0.238,-0.075 -0.254,-0.2 -0.016,-0.125 0.074,-0.239 0.197,-0.255 0.281,-0.035 0.533,-0.003 0.756,0.063 0.053,-0.389 0.385,-0.688 0.787,-0.691 C -0.359,-0.796 0,-0.44 0,0" />
      </g>
      <g
         transform="matrix(0.0602577,0,0,-0.0602577,110.29271,98.737183)"
         id="g612">
        <path
           inkscape:connector-curvature="0"
           id="path614"
           style="fill:#2a2c62;fill-opacity:1;fill-rule:evenodd;stroke:none"
           d="m 0,0 -0.074,-3.701 c 0,0 4.519,1.669 3.777,7.054 0,0 12.346,2.23 16.061,13.741 0,0 7.984,-2.785 13.738,-0.557 0,0 2.693,-9.84 8.635,-11.604 0,0 0.232,-7.335 3.181,-7.891 v 3.342 l 2.389,4.92 -1.949,16.804 c 0,0 -8.914,12.996 -10.399,13.739 -1.484,0.743 -14.853,2.6 -14.853,2.6 L 4.723,29.535 c 0,0 -5.571,-7.427 -5.571,-9.098 C -0.848,18.766 -6.201,8.121 0,0" />
      </g>
      <g
         transform="matrix(0.0602577,0,0,-0.0602577,115.7645,105.19129)"
         id="g616">
        <path
           inkscape:connector-curvature="0"
           id="path618"
           style="fill:none;stroke:#d46058;stroke-width:0.70899999;stroke-linecap:round;stroke-linejoin:round;stroke-miterlimit:2.61299992;stroke-dasharray:none;stroke-opacity:1"
           d="m 0,0 -3.674,-1.011 m -132.578,1.042 4.264,-1.343" />
      </g>
      <g
         transform="matrix(0.0602577,0,0,-0.0602577,110.77701,102.8408)"
         id="g620">
        <path
           inkscape:connector-curvature="0"
           id="path622-8"
           style="fill:#ffffff;fill-opacity:1;fill-rule:evenodd;stroke:none"
           d="m 0,0 v 0 c 3.344,3.444 8.896,3.524 12.338,0.18 l 2.744,-2.665 2.666,2.743 c 3.344,3.443 8.895,3.525 12.338,0.18 C 38.984,-8.206 26.084,-18.633 15.404,-24.683 5.516,-20.318 -8.656,-8.911 0,0" />
      </g>
      <g
         transform="matrix(0.0602577,0,0,-0.0602577,107.76448,100.78921)"
         id="g624">
        <path
           inkscape:connector-curvature="0"
           id="path626"
           style="fill:#87ced6;fill-opacity:1;fill-rule:evenodd;stroke:none"
           d="m 0,0 5.576,-3.677 -1.83,-2.775 c 2.246,-1.483 2.387,-5.27 0.904,-7.517 l -1.836,-2.784 -2.533,-3.844 -0.021,-0.03 -0.328,-0.5 -0.024,0.014 c -0.347,-0.44 -0.748,-0.816 -1.23,-1.062 -0.809,-0.415 -1.328,-0.48 -1.602,-0.831 -0.193,-0.25 -0.275,-0.636 -0.197,-1.431 0.088,-0.871 -0.365,-1.872 -0.881,-2.652 l -0.504,-0.766 -11.031,-16.728 -0.506,-0.768 c -1.482,-2.247 -4.535,-2.874 -6.783,-1.391 l -5.572,3.674 c -2.248,1.483 -2.875,4.534 -1.391,6.783 l 0.506,0.766 11.029,16.727 0.506,0.769 c 0.465,0.704 1.084,1.249 1.785,1.62 0.996,0.529 1.258,0.661 1.414,0.97 0.133,0.259 0.225,0.629 0.291,1.567 0.043,0.607 0.199,1.212 0.477,1.782 l -0.035,0.022 0.349,0.531 2.535,3.843 1.836,2.784 c 1.483,2.247 5.018,3.61 7.266,2.129 z" />
      </g>
      <g
         transform="matrix(0.0602577,0,0,-0.0602577,107.76448,100.78921)"
         id="g628">
        <path
           inkscape:connector-curvature="0"
           id="path630-8"
           style="fill:#a6dcea;fill-opacity:1;fill-rule:evenodd;stroke:none"
           d="m 0,0 2.092,-1.379 -1.83,-2.775 c 2.246,-1.483 2.386,-5.27 0.904,-7.516 l -1.834,-2.786 -2.535,-3.842 -0.022,-0.032 -0.33,-0.5 -0.021,0.015 c -0.348,-0.441 -0.748,-0.815 -1.231,-1.062 -0.81,-0.415 -1.328,-0.48 -1.601,-0.832 -0.194,-0.249 -0.276,-0.636 -0.197,-1.43 0.087,-0.871 -0.366,-1.871 -0.881,-2.652 l -0.506,-0.767 -11.029,-16.727 -0.506,-0.767 c -1.483,-2.249 -4.535,-2.875 -6.784,-1.393 l -2.087,1.377 c -2.248,1.483 -2.875,4.534 -1.391,6.783 l 0.506,0.766 11.029,16.727 0.506,0.769 c 0.465,0.704 1.084,1.249 1.785,1.62 0.996,0.529 1.258,0.661 1.414,0.97 0.133,0.259 0.225,0.629 0.291,1.567 0.043,0.607 0.199,1.212 0.477,1.782 l -0.035,0.022 0.349,0.531 2.535,3.843 1.836,2.784 c 1.483,2.247 5.018,3.61 7.266,2.129 z" />
      </g>
      <g
         transform="matrix(0.0602577,0,0,-0.0602577,108.0547,100.71459)"
         id="g632">
        <path
           inkscape:connector-curvature="0"
           id="path634"
           style="fill:#3d6f84;fill-opacity:1;fill-rule:evenodd;stroke:none"
           d="m 0,0 -2.359,1.556 c -0.7,0.46 -1.674,0.223 -2.168,-0.525 l -1.764,-2.676 3.629,-2.393 3.629,-2.393 1.763,2.675 c 0.495,0.75 0.329,1.739 -0.371,2.2 z" />
      </g>
      <g
         transform="matrix(0.0602577,0,0,-0.0602577,107.20897,101.09591)"
         id="g636">
        <path
           inkscape:connector-curvature="0"
           id="path638"
           style="fill:#5491a7;fill-opacity:1;fill-rule:evenodd;stroke:none"
           d="m 0,0 13.746,-9.064 -3.695,-5.607 -13.748,9.064 z" />
      </g>
      <g
         transform="matrix(0.0602577,0,0,-0.0602577,103.3453,101.32014)"
         id="g640">
        <path
           inkscape:connector-curvature="0"
           id="path642"
           style="fill:#294d5e;fill-opacity:1;fill-rule:evenodd;stroke:none"
           d="M 0,0 25.562,9.859 27.115,5.836 1.551,-4.023 Z" />
      </g>
      <g
         transform="matrix(0.0602577,0,0,-0.0602577,103.3453,101.32014)"
         id="g644">
        <path
           inkscape:connector-curvature="0"
           id="path646"
           style="fill:#3d6f84;fill-opacity:1;fill-rule:evenodd;stroke:none"
           d="M 0,0 25.562,9.859 26.232,8.122 0.67,-1.737 Z" />
      </g>
      <g
         transform="matrix(0.0602577,0,0,-0.0602577,104.57976,100.10755)"
         id="g648">
        <path
           inkscape:connector-curvature="0"
           id="path650"
           style="fill:#3d6f84;fill-opacity:1;fill-rule:evenodd;stroke:none"
           d="M 0,0 V 0 C -1.5,-0.578 -2.252,-2.277 -1.674,-3.775 L 5.982,-23.63 c 0.579,-1.498 2.278,-2.251 3.776,-1.674 v 10e-4 c 1.369,0.527 2.113,1.987 1.797,3.376 1.453,0.603 2.174,2.273 1.605,3.749 l -0.115,0.298 c 1.381,0.639 2.053,2.262 1.498,3.701 l -3.527,9.148 c -0.557,1.439 -2.145,2.19 -3.596,1.737 L 7.305,-2.996 C 6.736,-1.521 5.08,-0.768 3.598,-1.297 2.9,-0.053 1.367,0.527 0,0 m -21.795,-31.317 c -1.453,-0.454 -3.041,0.298 -3.596,1.736 l -3.529,9.148 c -0.555,1.439 0.119,3.063 1.5,3.702 l -0.115,0.298 c -0.57,1.475 0.152,3.145 1.603,3.748 -0.316,1.39 0.43,2.85 1.797,3.377 1.498,0.578 3.198,-0.175 3.776,-1.674 l 7.656,-19.854 c 0.578,-1.498 -0.174,-3.198 -1.674,-3.775 -1.367,-0.528 -2.9,0.053 -3.598,1.296 -1.482,-0.529 -3.136,0.225 -3.707,1.699 z" />
      </g>
      <g
         transform="matrix(0.0602577,0,0,-0.0602577,104.83798,101.26615)"
         id="g652">
        <path
           inkscape:connector-curvature="0"
           id="path654-3"
           style="fill:#294d5e;fill-opacity:1;fill-rule:evenodd;stroke:none"
           d="m 0,0 1.697,-4.402 c 0.129,-0.333 0.313,-0.629 0.537,-0.882 0.787,-0.886 2.075,-1.241 3.239,-0.791 1.369,0.527 2.113,1.986 1.797,3.376 1.453,0.603 2.173,2.272 1.605,3.748 L 8.76,1.348 c 1.183,0.548 1.847,1.82 1.662,3.079 -0.031,0.208 -0.086,0.417 -0.164,0.621 L 8.561,9.451 C 9.115,8.012 8.441,6.388 7.062,5.75 L 7.178,5.451 C 7.746,3.975 7.023,2.306 5.572,1.703 5.889,0.313 5.143,-1.146 3.775,-1.674 2.277,-2.252 0.578,-1.499 0,0" />
      </g>
      <g
         transform="matrix(0.0602577,0,0,-0.0602577,103.8143,101.96564)"
         id="g656">
        <path
           inkscape:connector-curvature="0"
           id="path658"
           style="fill:#294d5e;fill-opacity:1;fill-rule:evenodd;stroke:none"
           d="m 0,0 -1.697,4.402 c 0.578,-1.498 -0.174,-3.197 -1.674,-3.776 -1.367,-0.527 -2.9,0.054 -3.598,1.296 -1.482,-0.527 -3.138,0.226 -3.707,1.7 l -0.115,0.298 c -1.451,-0.453 -3.041,0.298 -3.594,1.738 l 1.697,-4.403 c 0.555,-1.438 2.143,-2.19 3.596,-1.736 l 0.113,-0.299 c 0.571,-1.474 2.225,-2.228 3.708,-1.699 0.697,-1.243 2.23,-1.824 3.597,-1.296 C -0.174,-3.198 0.578,-1.499 0,0" />
      </g>
      <g
         transform="matrix(0.0602577,0,0,-0.0602577,102.92656,101.1161)"
         id="g660">
        <path
           inkscape:connector-curvature="0"
           id="path662"
           style="fill:#294d5e;fill-opacity:1;fill-rule:evenodd;stroke:none"
           d="m 0,0 c -1.371,-0.644 -2.037,-2.261 -1.484,-3.695 l 1.832,-4.746 c 0.552,-1.434 2.131,-2.185 3.58,-1.742 z" />
      </g>
      <g
         transform="matrix(0.0602577,0,0,-0.0602577,105.01252,100.27158)"
         id="g664">
        <path
           inkscape:connector-curvature="0"
           id="path666-1"
           style="fill:#294d5e;fill-opacity:1;fill-rule:evenodd;stroke:none"
           d="m 0,0 4.375,-11.341 c -0.027,0.096 -0.057,0.192 -0.094,0.287 l -0.115,0.298 c 1.379,0.639 2.053,2.262 1.498,3.702 l -1.83,4.745 C 3.277,-0.87 1.689,-0.119 0.238,-0.572 L 0.123,-0.274 C 0.086,-0.179 0.045,-0.088 0,0" />
      </g>
      <g
         transform="matrix(0.0602577,0,0,-0.0602577,118.31345,99.613893)"
         id="g668">
        <path
           inkscape:connector-curvature="0"
           id="path670"
           style="fill:#3d6f84;fill-opacity:1;fill-rule:evenodd;stroke:none"
           d="M 0,0 C 0.209,1.927 1.084,5.583 2.314,5.833 3.031,5.979 3.957,5.68 3.193,3.989 2.451,2.341 1.242,-0.359 1.16,-4.623 1.086,-8.449 -0.244,-2.204 0,0" />
      </g>
      <g
         transform="matrix(0.0602577,0,0,-0.0602577,118.3417,99.703273)"
         id="g672">
        <path
           inkscape:connector-curvature="0"
           id="path674"
           style="fill:#3d6f84;fill-opacity:1;fill-rule:evenodd;stroke:none"
           d="m 0,0 c -0.24,3.153 -2.916,5.589 -6.785,5.542 -3.869,-0.048 -4.967,-0.526 -4.967,-0.526 0,0 3.248,-7.834 11.752,-5.016" />
      </g>
      <g
         transform="matrix(0.0602577,0,0,-0.0602577,118.3417,99.703273)"
         id="g676">
        <path
           inkscape:connector-curvature="0"
           id="path678"
           style="fill:#3d6f84;fill-opacity:1;fill-rule:evenodd;stroke:none"
           d="M 0,0 C 0.238,3.153 2.912,5.589 6.781,5.542 10.65,5.494 11.75,5.016 11.75,5.016 11.75,5.016 8.502,-2.818 0,0" />
      </g>
      <g
         transform="matrix(0.0602577,0,0,-0.0602577,118.15269,101.07337)"
         id="g680">
        <path
           inkscape:connector-curvature="0"
           id="path682"
           style="fill:#cf2f32;fill-opacity:1;fill-rule:evenodd;stroke:none"
           d="M 0,0 C 2.238,-0.198 2.824,1.016 3.586,1.016 4.363,1.016 5.322,-0.198 7.08,0 17.648,1.19 26.098,23.639 2.289,23.022 -17.854,22.5 -11.008,0.975 0,0" />
      </g>
      <g
         transform="matrix(0.0602577,0,0,-0.0602577,117.92354,99.815993)"
         id="g684">
        <path
           inkscape:connector-curvature="0"
           id="path686-8"
           style="fill:#d2464b;fill-opacity:1;fill-rule:evenodd;stroke:none"
           d="M 0,0 C -3.668,-1.822 -5.818,-4.956 -4.805,-6.998 -3.789,-9.04 0.006,-9.218 3.674,-7.396 7.34,-5.573 9.492,-2.44 8.477,-0.398 7.463,1.643 3.666,1.821 0,0" />
      </g>
      <g
         transform="matrix(0.0602577,0,0,-0.0602577,114.95585,100.97057)"
         id="g688">
        <path
           inkscape:connector-curvature="0"
           id="path690-9"
           style="fill:#cf2f32;fill-opacity:1;fill-rule:evenodd;stroke:none"
           d="m 0,0 v 0 c 2.613,3.821 7.875,4.809 11.695,2.196 l 3.047,-2.082 2.08,3.046 c 2.614,3.819 7.875,4.808 11.696,2.195 9.877,-6.752 -0.67,-18.779 -9.827,-26.28 C 8.578,-18.4 -6.762,-9.887 0,0" />
      </g>
      <g
         transform="matrix(0.0602577,0,0,-0.0602577,115.04765,101.07402)"
         id="g692">
        <path
           inkscape:connector-curvature="0"
           id="path694"
           style="fill:#d2464b;fill-opacity:1;fill-rule:evenodd;stroke:none"
           d="m 0,0 c -1.678,-2.528 -1.656,-5.204 0.043,-5.976 1.701,-0.772 4.439,0.65 6.115,3.178 C 7.834,-0.271 7.814,2.404 6.113,3.177 4.414,3.95 1.676,2.527 0,0" />
      </g>
      <g
         transform="matrix(0.0602577,0,0,-0.0602577,116.0226,100.84579)"
         id="g696">
        <path
           inkscape:connector-curvature="0"
           id="path698"
           style="fill:#d2464b;fill-opacity:1;fill-rule:evenodd;stroke:none"
           d="m 0,0 c -1.283,-1.66 -1.4,-3.505 -0.266,-4.122 1.135,-0.617 3.092,0.227 4.371,1.888 1.284,1.659 1.403,3.505 0.268,4.122 C 3.24,2.504 1.281,1.66 0,0" />
      </g>
    </g>
  </g>
</svg>
