<?xml version="1.0" encoding="UTF-8" standalone="no"?>
<!-- Created with Inkscape (http://www.inkscape.org/) -->

<svg
   xmlns:dc="http://purl.org/dc/elements/1.1/"
   xmlns:cc="http://creativecommons.org/ns#"
   xmlns:rdf="http://www.w3.org/1999/02/22-rdf-syntax-ns#"
   xmlns:svg="http://www.w3.org/2000/svg"
   xmlns="http://www.w3.org/2000/svg"
   xmlns:sodipodi="http://sodipodi.sourceforge.net/DTD/sodipodi-0.dtd"
   xmlns:inkscape="http://www.inkscape.org/namespaces/inkscape"
   width="52.916702mm"
   height="68.817772mm"
   viewBox="0 0 52.916702 68.817772"
   version="1.1"
   id="svg1234"
   inkscape:version="0.92.5 (2060ec1f9f, 2020-04-08)"
   sodipodi:docname="descarga-Conozca-2.a-hoja-informativa.svg">
  <defs
     id="defs1228">
    <clipPath
       clipPathUnits="userSpaceOnUse"
       id="clipPath1442">
      <path
         d="M 0,5247 H 1400 V 0 H 0 Z"
         id="path1440"
         inkscape:connector-curvature="0" />
    </clipPath>
    <clipPath
       clipPathUnits="userSpaceOnUse"
       id="clipPath1450">
      <path
         d="m 222.375,1168.1 h 157.607 v -96.31 H 222.375 Z"
         id="path1448"
         inkscape:connector-curvature="0" />
    </clipPath>
    <clipPath
       clipPathUnits="userSpaceOnUse"
       id="clipPath1464">
      <path
         d="m 228.108,1151.32 h 146.051 v -79.51 H 228.108 Z"
         id="path1462"
         inkscape:connector-curvature="0" />
    </clipPath>
    <clipPath
       clipPathUnits="userSpaceOnUse"
       id="clipPath1480">
      <path
         d="m 259.288,1129.11 h 4.271 v -8.42 h -4.271 z"
         id="path1478"
         inkscape:connector-curvature="0" />
    </clipPath>
    <clipPath
       clipPathUnits="userSpaceOnUse"
       id="clipPath1590">
      <path
         d="m 271.368,1137.49 h 26.585 v -30.37 h -26.585 z"
         id="path1588"
         inkscape:connector-curvature="0" />
    </clipPath>
    <clipPath
       clipPathUnits="userSpaceOnUse"
       id="clipPath1642">
      <path
         d="m 240.297,1126.28 h 6.351 v -12.05 h -6.351 z"
         id="path1640"
         inkscape:connector-curvature="0" />
    </clipPath>
    <clipPath
       clipPathUnits="userSpaceOnUse"
       id="clipPath1662">
      <path
         d="m 253.677,1119.3 h 6.776 v -9.93 h -6.776 z"
         id="path1660"
         inkscape:connector-curvature="0" />
    </clipPath>
  </defs>
  <sodipodi:namedview
     id="base"
     pagecolor="#ffffff"
     bordercolor="#666666"
     borderopacity="1.0"
     inkscape:pageopacity="0.0"
     inkscape:pageshadow="2"
     inkscape:zoom="0.62741916"
     inkscape:cx="-138.8244"
     inkscape:cy="128.82503"
     inkscape:document-units="mm"
     inkscape:current-layer="layer1"
     showgrid="false"
     fit-margin-top="0"
     fit-margin-left="0"
     fit-margin-right="0"
     fit-margin-bottom="0"
     inkscape:window-width="1440"
     inkscape:window-height="825"
     inkscape:window-x="0"
     inkscape:window-y="0"
     inkscape:window-maximized="1" />
  <metadata
     id="metadata1231">
    <rdf:RDF>
      <cc:Work
         rdf:about="">
        <dc:format>image/svg+xml</dc:format>
        <dc:type
           rdf:resource="http://purl.org/dc/dcmitype/StillImage" />
        <dc:title></dc:title>
      </cc:Work>
    </rdf:RDF>
  </metadata>
  <g
     inkscape:label="Capa 1"
     inkscape:groupmode="layer"
     id="layer1"
     transform="translate(-79.529681,-47.753477)">
    <g
       transform="matrix(2.8089552,0,0,2.8068905,-264.09183,-221.58417)"
       id="g2288"
       style="stroke-width:0.35613516">
      <path
         inkscape:connector-curvature="0"
         id="path1212-3"
         style="fill:#ffffff;fill-opacity:1;fill-rule:nonzero;stroke:#dbdbdb;stroke-width:0.03312057;stroke-miterlimit:4;stroke-dasharray:none;stroke-opacity:1"
         d="M 141.15273,120.45676 H 122.34728 V 95.97244 h 18.80545 z" />
      <g
         id="g1436"
         transform="matrix(0.0930963,0,0,-0.0930963,104.2866,213.36687)"
         style="stroke-width:0.35613516">
        <g
           clip-path="url(#clipPath1442)"
           id="g1438"
           style="stroke-width:0.35613516">
          <g
             id="g1444"
             style="stroke-width:0.35613516">
            <g
               id="g1446"
               style="stroke-width:0.35613516" />
            <g
               id="g1456"
               style="stroke-width:0.35613516">
              <g
                 style="opacity:0.60000598;stroke-width:0.35613516"
                 id="g1454"
                 clip-path="url(#clipPath1450)">
                <path
                   inkscape:connector-curvature="0"
                   id="path1452"
                   style="fill:#99ccff;fill-opacity:1;fill-rule:nonzero;stroke:none;stroke-width:0.35613516"
                   d="M 379.982,1071.786 H 222.375 v 96.313 h 157.607 z" />
              </g>
            </g>
          </g>
          <g
             id="g1458"
             style="stroke-width:0.35613516">
            <g
               id="g1460"
               style="stroke-width:0.35613516" />
            <g
               id="g1472"
               style="stroke-width:0.35613516">
              <g
                 style="opacity:0.19999701;stroke-width:0.35613516"
                 id="g1470"
                 clip-path="url(#clipPath1464)">
                <g
                   id="g1468"
                   transform="translate(374.1592,1071.8096)"
                   style="stroke-width:0.35613516">
                  <path
                     inkscape:connector-curvature="0"
                     id="path1466"
                     style="fill:#e1c563;fill-opacity:1;fill-rule:nonzero;stroke:none;stroke-width:0.35613516"
                     d="m 0,0 c -1.1,18.708 -19.309,19.673 -25.412,20.473 -6.105,0.798 -5.021,26.653 -22.716,26.121 -3.999,0 -7.663,-1.208 -10.457,-3.193 -2.04,-1.449 -4.795,0.063 -4.795,2.646 v 12.016 c 0,11.798 -8.882,21.452 -19.737,21.452 -10.856,0 -19.737,-9.654 -19.737,-21.452 0,-7.062 -5.912,-12.562 -12.594,-11.648 -0.86,0.117 -1.744,0.179 -2.645,0.179 -8.706,0 -15.83,-5.728 -15.83,-12.729 v -2.267 c 0,-0.643 -0.496,-1.162 -1.107,-1.162 h -0.012 c -6.055,0 -11.009,-3.801 -11.009,-8.448 V 0.01 L -32.298,0 Z" />
                </g>
              </g>
            </g>
          </g>
          <g
             id="g1474"
             style="stroke-width:0.35613516">
            <g
               id="g1476"
               style="stroke-width:0.35613516" />
            <g
               id="g1488"
               style="stroke-width:0.35613516">
              <g
                 style="opacity:0.19999701;stroke-width:0.35613516"
                 id="g1486"
                 clip-path="url(#clipPath1480)">
                <g
                   id="g1484"
                   transform="translate(262.3555,1120.6855)"
                   style="stroke-width:0.35613516">
                  <path
                     inkscape:connector-curvature="0"
                     id="path1482"
                     style="fill:#dfc364;fill-opacity:1;fill-rule:nonzero;stroke:none;stroke-width:0.35613516"
                     d="M 0,0 C 0,0 -5.15,2.192 -2.104,8.428 -2.104,8.428 3.627,4.702 0,0" />
                </g>
              </g>
            </g>
          </g>
          <path
             inkscape:connector-curvature="0"
             id="path1490"
             style="fill:#575ba1;fill-opacity:1;fill-rule:nonzero;stroke:none;stroke-width:0.35613516"
             d="m 328.999,1071.786 h -61.246 v 89.356 h 61.246 z" />
          <path
             inkscape:connector-curvature="0"
             id="path1492"
             style="fill:#dce1f1;fill-opacity:1;fill-rule:nonzero;stroke:none;stroke-width:0.35613516"
             d="m 325.102,1077.007 h -53.451 v 79.959 h 53.451 z" />
          <path
             inkscape:connector-curvature="0"
             id="path1494"
             style="fill:#bb5996;fill-opacity:1;fill-rule:nonzero;stroke:none;stroke-width:0.35613516"
             d="m 313.072,1155.85 h -29.393 v 5.293 h 29.393 z" />
          <path
             inkscape:connector-curvature="0"
             id="path1496"
             style="fill:#cbd0e6;fill-opacity:1;fill-rule:nonzero;stroke:none;stroke-width:0.35613516"
             d="m 276.465,1120.825 h 7.279 v 7.279 h -7.279 z m 8.014,-0.734 h -8.751 v 8.75 h 8.751 z" />
          <g
             transform="translate(320.7402,1125.792)"
             id="g1498"
             style="stroke-width:0.35613516">
            <path
               inkscape:connector-curvature="0"
               id="path1500"
               style="fill:#cbd0e6;fill-opacity:1;fill-rule:nonzero;stroke:none;stroke-width:0.35613516"
               d="m 0,0 h -29.824 c -0.294,0 -0.535,0.241 -0.535,0.536 0,0.295 0.241,0.536 0.535,0.536 H 0 C 0.294,1.072 0.535,0.831 0.535,0.536 0.535,0.241 0.294,0 0,0" />
          </g>
          <g
             transform="translate(320.7402,1123.9297)"
             id="g1502"
             style="stroke-width:0.35613516">
            <path
               inkscape:connector-curvature="0"
               id="path1504"
               style="fill:#cbd0e6;fill-opacity:1;fill-rule:nonzero;stroke:none;stroke-width:0.35613516"
               d="m 0,0 h -29.824 c -0.294,0 -0.535,0.241 -0.535,0.536 0,0.294 0.241,0.535 0.535,0.535 L 0,1.071 C 0.294,1.071 0.535,0.83 0.535,0.536 0.535,0.241 0.294,0 0,0" />
          </g>
          <g
             transform="translate(310.6738,1122.0664)"
             id="g1506"
             style="stroke-width:0.35613516">
            <path
               inkscape:connector-curvature="0"
               id="path1508"
               style="fill:#cbd0e6;fill-opacity:1;fill-rule:nonzero;stroke:none;stroke-width:0.35613516"
               d="m 0,0 h -19.758 c -0.294,0 -0.535,0.241 -0.535,0.536 0,0.295 0.241,0.535 0.535,0.535 L 0,1.071 c 0.294,0 0.535,-0.24 0.535,-0.535 C 0.535,0.241 0.294,0 0,0" />
          </g>
          <g
             transform="translate(277.7012,1127.1689)"
             id="g1510"
             style="stroke-width:0.35613516">
            <path
               inkscape:connector-curvature="0"
               id="path1512"
               style="fill:#bb5996;fill-opacity:1;fill-rule:nonzero;stroke:none;stroke-width:0.35613516"
               d="m 0,0 c 0,0 1.427,-3.126 2.007,-5.103 0,0 2.409,6.953 4.771,8.736 0,0 -4.036,-3.132 -4.905,-5.238 z" />
          </g>
          <path
             inkscape:connector-curvature="0"
             id="path1514"
             style="fill:#cbd0e6;fill-opacity:1;fill-rule:nonzero;stroke:none;stroke-width:0.35613516"
             d="m 276.465,1139.336 h 7.279 v 7.279 h -7.279 z m 8.014,-0.735 h -8.751 v 8.75 h 8.751 z" />
          <g
             transform="translate(320.7402,1144.3027)"
             id="g1516"
             style="stroke-width:0.35613516">
            <path
               inkscape:connector-curvature="0"
               id="path1518"
               style="fill:#cbd0e6;fill-opacity:1;fill-rule:nonzero;stroke:none;stroke-width:0.35613516"
               d="m 0,0 h -29.824 c -0.294,0 -0.535,0.241 -0.535,0.535 0,0.295 0.241,0.536 0.535,0.536 L 0,1.071 C 0.294,1.071 0.535,0.83 0.535,0.535 0.535,0.241 0.294,0 0,0" />
          </g>
          <g
             transform="translate(320.7402,1142.4395)"
             id="g1520"
             style="stroke-width:0.35613516">
            <path
               inkscape:connector-curvature="0"
               id="path1522"
               style="fill:#cbd0e6;fill-opacity:1;fill-rule:nonzero;stroke:none;stroke-width:0.35613516"
               d="m 0,0 h -29.824 c -0.294,0 -0.535,0.241 -0.535,0.536 0,0.295 0.241,0.536 0.535,0.536 H 0 C 0.294,1.072 0.535,0.831 0.535,0.536 0.535,0.241 0.294,0 0,0" />
          </g>
          <g
             transform="translate(310.6738,1140.5771)"
             id="g1524"
             style="stroke-width:0.35613516">
            <path
               inkscape:connector-curvature="0"
               id="path1526"
               style="fill:#cbd0e6;fill-opacity:1;fill-rule:nonzero;stroke:none;stroke-width:0.35613516"
               d="m 0,0 h -19.758 c -0.294,0 -0.535,0.24 -0.535,0.535 0,0.295 0.241,0.536 0.535,0.536 L 0,1.071 C 0.294,1.071 0.535,0.83 0.535,0.535 0.535,0.24 0.294,0 0,0" />
          </g>
          <g
             transform="translate(277.7012,1145.6787)"
             id="g1528"
             style="stroke-width:0.35613516">
            <path
               inkscape:connector-curvature="0"
               id="path1530"
               style="fill:#bb5996;fill-opacity:1;fill-rule:nonzero;stroke:none;stroke-width:0.35613516"
               d="m 0,0 c 0,0 1.427,-3.125 2.007,-5.102 0,0 2.409,6.953 4.771,8.736 0,0 -4.036,-3.132 -4.905,-5.238 z" />
          </g>
          <g
             transform="translate(320.7402,1108.6191)"
             id="g1532"
             style="stroke-width:0.35613516">
            <path
               inkscape:connector-curvature="0"
               id="path1534"
               style="fill:#cbd0e6;fill-opacity:1;fill-rule:nonzero;stroke:none;stroke-width:0.35613516"
               d="m 0,0 h -29.824 c -0.294,0 -0.535,0.241 -0.535,0.536 0,0.294 0.241,0.535 0.535,0.535 L 0,1.071 C 0.294,1.071 0.535,0.83 0.535,0.536 0.535,0.241 0.294,0 0,0" />
          </g>
          <g
             transform="translate(320.7402,1106.7568)"
             id="g1536"
             style="stroke-width:0.35613516">
            <path
               inkscape:connector-curvature="0"
               id="path1538"
               style="fill:#cbd0e6;fill-opacity:1;fill-rule:nonzero;stroke:none;stroke-width:0.35613516"
               d="m 0,0 h -29.824 c -0.294,0 -0.535,0.24 -0.535,0.535 0,0.295 0.241,0.536 0.535,0.536 L 0,1.071 C 0.294,1.071 0.535,0.83 0.535,0.535 0.535,0.24 0.294,0 0,0" />
          </g>
          <g
             transform="translate(310.6738,1104.8936)"
             id="g1540"
             style="stroke-width:0.35613516">
            <path
               inkscape:connector-curvature="0"
               id="path1542"
               style="fill:#cbd0e6;fill-opacity:1;fill-rule:nonzero;stroke:none;stroke-width:0.35613516"
               d="m 0,0 h -19.758 c -0.294,0 -0.535,0.241 -0.535,0.535 0,0.295 0.241,0.536 0.535,0.536 L 0,1.071 C 0.294,1.071 0.535,0.83 0.535,0.535 0.535,0.241 0.294,0 0,0" />
          </g>
          <path
             inkscape:connector-curvature="0"
             id="path1544"
             style="fill:#cbd0e6;fill-opacity:1;fill-rule:nonzero;stroke:none;stroke-width:0.35613516"
             d="m 276.465,1102.411 h 7.279 v 7.279 h -7.279 z m 8.014,-0.735 h -8.751 v 8.751 h 8.751 z" />
          <g
             transform="translate(277.7012,1108.5625)"
             id="g1546"
             style="stroke-width:0.35613516">
            <path
               inkscape:connector-curvature="0"
               id="path1548"
               style="fill:#bb5996;fill-opacity:1;fill-rule:nonzero;stroke:none;stroke-width:0.35613516"
               d="m 0,0 c 0,0 1.427,-3.126 2.007,-5.103 0,0 2.409,6.953 4.771,8.737 0,0 -4.036,-3.133 -4.905,-5.239 z" />
          </g>
          <path
             inkscape:connector-curvature="0"
             id="path1550"
             style="fill:#cbd0e6;fill-opacity:1;fill-rule:nonzero;stroke:none;stroke-width:0.35613516"
             d="m 276.465,1083.901 h 7.279 v 7.279 h -7.279 z m 8.014,-0.735 h -8.751 v 8.75 h 8.751 z" />
          <g
             transform="translate(320.7402,1090.1094)"
             id="g1552"
             style="stroke-width:0.35613516">
            <path
               inkscape:connector-curvature="0"
               id="path1554"
               style="fill:#cbd0e6;fill-opacity:1;fill-rule:nonzero;stroke:none;stroke-width:0.35613516"
               d="m 0,0 h -29.824 c -0.294,0 -0.535,0.241 -0.535,0.535 0,0.295 0.241,0.536 0.535,0.536 L 0,1.071 C 0.294,1.071 0.535,0.83 0.535,0.535 0.535,0.241 0.294,0 0,0" />
          </g>
          <g
             transform="translate(320.7402,1088.2461)"
             id="g1556"
             style="stroke-width:0.35613516">
            <path
               inkscape:connector-curvature="0"
               id="path1558"
               style="fill:#cbd0e6;fill-opacity:1;fill-rule:nonzero;stroke:none;stroke-width:0.35613516"
               d="m 0,0 h -29.824 c -0.294,0 -0.535,0.241 -0.535,0.536 0,0.295 0.241,0.535 0.535,0.535 L 0,1.071 c 0.294,0 0.535,-0.24 0.535,-0.535 C 0.535,0.241 0.294,0 0,0" />
          </g>
          <g
             transform="translate(310.6738,1086.3838)"
             id="g1560"
             style="stroke-width:0.35613516">
            <path
               inkscape:connector-curvature="0"
               id="path1562"
               style="fill:#cbd0e6;fill-opacity:1;fill-rule:nonzero;stroke:none;stroke-width:0.35613516"
               d="m 0,0 h -19.758 c -0.294,0 -0.535,0.241 -0.535,0.535 0,0.295 0.241,0.535 0.535,0.535 H 0 C 0.294,1.07 0.535,0.83 0.535,0.535 0.535,0.241 0.294,0 0,0" />
          </g>
          <g
             transform="translate(277.7012,1090.0518)"
             id="g1564"
             style="stroke-width:0.35613516">
            <path
               inkscape:connector-curvature="0"
               id="path1566"
               style="fill:#bb5996;fill-opacity:1;fill-rule:nonzero;stroke:none;stroke-width:0.35613516"
               d="m 0,0 c 0,0 1.427,-3.125 2.007,-5.102 0,0 2.409,6.953 4.771,8.736 0,0 -4.036,-3.132 -4.905,-5.238 z" />
          </g>
          <g
             transform="translate(251.2881,1074.0342)"
             id="g1568"
             style="stroke-width:0.35613516">
            <path
               inkscape:connector-curvature="0"
               id="path1570"
               style="fill:#272253;fill-opacity:1;fill-rule:nonzero;stroke:none;stroke-width:0.35613516"
               d="M 0,0 0.491,-1.783 H 5.36 C 5.36,-1.783 4.114,0.621 0,0" />
          </g>
          <g
             transform="translate(241.0195,1074.0342)"
             id="g1572"
             style="stroke-width:0.35613516">
            <path
               inkscape:connector-curvature="0"
               id="path1574"
               style="fill:#272253;fill-opacity:1;fill-rule:nonzero;stroke:none;stroke-width:0.35613516"
               d="M 0,0 0.491,-1.783 H 5.36 C 5.36,-1.783 4.115,0.621 0,0" />
          </g>
          <g
             transform="translate(242.9219,1105.9805)"
             id="g1576"
             style="stroke-width:0.35613516">
            <path
               inkscape:connector-curvature="0"
               id="path1578"
               style="fill:#2f2c60;fill-opacity:1;fill-rule:nonzero;stroke:none;stroke-width:0.35613516"
               d="M 0,0 C 0,0 -3.266,-23.196 -2.238,-32.353 H 2.046 L 6.529,-2.129 Z" />
          </g>
          <g
             transform="translate(251.5732,1104.0273)"
             id="g1580"
             style="stroke-width:0.35613516">
            <path
               inkscape:connector-curvature="0"
               id="path1582"
               style="fill:#373482;fill-opacity:1;fill-rule:nonzero;stroke:none;stroke-width:0.35613516"
               d="m 0,0 4.032,-30.399 h -4.545 c 0,0 -10.218,28.162 -8.138,32.352 z" />
          </g>
          <g
             id="g1584"
             style="stroke-width:0.35613516">
            <g
               id="g1586"
               style="stroke-width:0.35613516" />
            <g
               id="g1598"
               style="stroke-width:0.35613516">
              <g
                 style="opacity:0.19999701;stroke-width:0.35613516"
                 id="g1596"
                 clip-path="url(#clipPath1590)">
                <g
                   id="g1594"
                   transform="translate(283.5449,1136.8672)"
                   style="stroke-width:0.35613516">
                  <path
                     inkscape:connector-curvature="0"
                     id="path1592"
                     style="fill:#cdd2ea;fill-opacity:1;fill-rule:nonzero;stroke:none;stroke-width:0.35613516"
                     d="m 0,0 c -8.864,-2.483 -14.037,-11.683 -11.555,-20.547 1.09,-3.887 3.471,-7.065 6.548,-9.198 L 14.408,-2.649 C 10.415,0.3 5.15,1.442 0,0" />
                </g>
              </g>
            </g>
          </g>
          <g
             transform="translate(292.8408,1105.2295)"
             id="g1600"
             style="stroke-width:0.35613516">
            <path
               inkscape:connector-curvature="0"
               id="path1602"
               style="fill:#373482;fill-opacity:1;fill-rule:nonzero;stroke:none;stroke-width:0.35613516"
               d="m 0,0 c -8.541,-2.393 -17.404,2.592 -19.796,11.132 -2.392,8.541 2.591,17.404 11.131,19.797 C -0.124,33.321 8.739,28.337 11.132,19.797 13.524,11.256 8.54,2.393 0,0 M 12.728,20.243 C 10.081,29.69 0.276,35.203 -9.17,32.557 -18.193,30.029 -23.628,20.972 -21.79,11.932 L -55.363,2.526 c -0.296,-0.083 -0.47,-0.392 -0.388,-0.688 l 0.299,-1.067 c 0.084,-0.295 0.392,-0.469 0.689,-0.386 l 33.549,9.398 C -18.223,0.875 -8.737,-4.218 0.413,-1.653 9.86,0.992 15.374,10.797 12.728,20.243" />
          </g>
          <g
             transform="translate(247.6299,1101.8955)"
             id="g1604"
             style="stroke-width:0.35613516">
            <path
               inkscape:connector-curvature="0"
               id="path1606"
               style="fill:#272253;fill-opacity:1;fill-rule:nonzero;stroke:none;stroke-width:0.35613516"
               d="M 0,0 C 2.202,0 3.067,1.674 3.067,1.674 3.058,1.657 2.11,0.079 -0.079,0.118 L -0.081,0 Z" />
          </g>
          <g
             transform="translate(253.4355,1074.5029)"
             id="g1608"
             style="stroke-width:0.35613516">
            <path
               inkscape:connector-curvature="0"
               id="path1610"
               style="fill:#2f2c60;fill-opacity:1;fill-rule:nonzero;stroke:none;stroke-width:0.35613516"
               d="m 0,0 c -0.935,2.58 -1.879,5.656 -2.678,8.886 -0.123,0.493 -0.245,1.002 -0.363,1.51 -0.132,0.561 -0.261,1.129 -0.384,1.69 -0.042,0.192 -0.022,0.422 -0.003,0.643 0.018,0.206 0.037,0.419 0.002,0.585 -0.451,2.132 -0.758,4.095 -1.028,5.827 -0.071,0.455 -0.141,0.899 -0.21,1.335 -0.634,3.935 -1.008,6.165 -1.014,6.186 0.006,-0.021 0.522,-2.225 1.157,-6.167 0.069,-0.435 0.138,-0.881 0.209,-1.335 0.271,-1.73 0.578,-3.691 1.027,-5.82 0.039,-0.186 0.019,-0.408 0,-0.624 -0.018,-0.212 -0.037,-0.431 0.002,-0.604 0.122,-0.559 0.251,-1.128 0.382,-1.687 C -2.783,9.917 -2.66,9.409 -2.538,8.916 -1.74,5.692 -0.892,2.577 0.041,0.002 Z" />
          </g>
          <g
             transform="translate(254.2168,1127.2148)"
             id="g1612"
             style="stroke-width:0.35613516">
            <path
               inkscape:connector-curvature="0"
               id="path1614"
               style="fill:#945c2e;fill-opacity:1;fill-rule:nonzero;stroke:none;stroke-width:0.35613516"
               d="m 0,0 c 0,0 -0.026,-1.491 -0.54,-2.574 0,0 -1.925,0.513 -2.501,0.762 -0.277,0.119 -0.914,0.708 -0.914,0.708 0,0 0.834,1.31 1.082,3.018 C -2.625,3.622 0,0 0,0" />
          </g>
          <g
             transform="translate(255.166,1126.8916)"
             id="g1616"
             style="stroke-width:0.35613516">
            <path
               inkscape:connector-curvature="0"
               id="path1618"
               style="fill:#a36d3c;fill-opacity:1;fill-rule:nonzero;stroke:none;stroke-width:0.35613516"
               d="M 0,0 C 0,0 -4.003,-0.183 -4.078,2.313 -4.154,4.807 -4.722,6.464 -2.169,6.686 0.385,6.908 0.91,5.972 1.137,5.145 1.365,4.318 1.039,0.112 0,0" />
          </g>
          <g
             transform="translate(248.0557,1126.2773)"
             id="g1620"
             style="stroke-width:0.35613516">
            <path
               inkscape:connector-curvature="0"
               id="path1622"
               style="fill:#945c2e;fill-opacity:1;fill-rule:nonzero;stroke:none;stroke-width:0.35613516"
               d="m 0,0 c 0,0 -5.261,-5.493 -7.372,-9.788 0,0 1.055,-3.365 5.812,-8.443 0,0 0.069,0.429 0.267,1.634 0.038,0.239 -1.77,4.386 -3.386,6.695 0,0 3.746,2.366 4.736,4.305 C 1.046,-3.657 0,0 0,0" />
          </g>
          <g
             transform="translate(251.1611,1128.708)"
             id="g1624"
             style="stroke-width:0.35613516">
            <path
               inkscape:connector-curvature="0"
               id="path1626"
               style="fill:#373482;fill-opacity:1;fill-rule:nonzero;stroke:none;stroke-width:0.35613516"
               d="m 0,0 c 0,0 1.897,3.385 5.058,3.593 0,0 1.391,0.557 1.391,1.31 0,0 -4.496,1.326 -6.132,0 C -2.137,2.913 0,0 0,0" />
          </g>
          <g
             transform="translate(266.4824,1113.665)"
             id="g1628"
             style="stroke-width:0.35613516">
            <path
               inkscape:connector-curvature="0"
               id="path1630"
               style="fill:#945c2e;fill-opacity:1;fill-rule:nonzero;stroke:none;stroke-width:0.35613516"
               d="M 0,0 C -0.604,-0.119 -0.363,-0.156 -1.217,-0.307 -2.07,-0.458 -2.817,-0.97 -3,-1.563 L -9.3,-1.74 c 0.495,2.244 0.456,10.686 0.114,11.371 -0.341,0.684 -3.62,1.345 -3.62,1.345 l -0.803,-3.96 c 0,0 1.001,-9.983 1.952,-10.924 0.95,-0.941 9.632,1.479 9.632,1.479 0,0 1.828,-0.176 2.437,1.743 0,0 0.192,0.805 -0.412,0.686" />
          </g>
          <g
             transform="translate(246.6484,1126.2773)"
             id="g1632"
             style="stroke-width:0.35613516">
            <path
               inkscape:connector-curvature="0"
               id="path1634"
               style="fill:#d1872b;fill-opacity:1;fill-rule:nonzero;stroke:none;stroke-width:0.35613516"
               d="m 0,0 c 0,0 -5.895,-7.802 -6.352,-9.77 0,0 0.198,-0.537 1.475,-2.278 l 2.215,1.209 c 0,0 -0.367,0.747 -0.445,0.87 0,0 -0.042,0.042 0.207,0.178 0.25,0.136 1.49,0.978 1.49,0.978 z" />
          </g>
          <g
             id="g1636"
             style="stroke-width:0.35613516">
            <g
               id="g1638"
               style="stroke-width:0.35613516" />
            <g
               id="g1650"
               style="stroke-width:0.35613516">
              <g
                 style="opacity:0.5;stroke-width:0.35613516"
                 id="g1648"
                 clip-path="url(#clipPath1642)">
                <g
                   id="g1646"
                   transform="translate(246.6484,1126.2773)"
                   style="stroke-width:0.35613516">
                  <path
                     inkscape:connector-curvature="0"
                     id="path1644"
                     style="fill:#f2819d;fill-opacity:1;fill-rule:nonzero;stroke:none;stroke-width:0.35613516"
                     d="m 0,0 c 0,0 -5.895,-7.802 -6.352,-9.77 0,0 0.387,-0.816 1.475,-2.278 l 2.215,1.209 c 0,0 -0.367,0.747 -0.445,0.87 0,0 -0.042,0.042 0.207,0.178 0.25,0.136 1.49,0.978 1.49,0.978 z" />
                </g>
              </g>
            </g>
          </g>
          <g
             transform="translate(242.9219,1105.9805)"
             id="g1652"
             style="stroke-width:0.35613516">
            <path
               inkscape:connector-curvature="0"
               id="path1654"
               style="fill:#bb5996;fill-opacity:1;fill-rule:nonzero;stroke:none;stroke-width:0.35613516"
               d="m 0,0 c 0.748,-1.512 8.955,-2.194 9.469,-1.908 0.513,0.285 0.155,2.194 0.228,2.994 0.163,1.765 1.037,3.797 1.244,4.454 0.026,0.08 0.039,0.124 0.039,0.124 0.015,-0.827 1.041,-2.245 1.041,-2.245 1.956,-0.192 5.51,0.719 5.51,0.719 -0.011,0.078 -0.019,0.156 -0.025,0.232 -0.078,0.942 0.207,1.706 0.207,1.706 -0.303,0.023 -2.369,0.007 -2.928,0.003 -0.076,-10e-4 -0.137,0.063 -0.133,0.139 l 0.319,3.096 c 0.695,6.209 -0.52,8.439 -0.52,8.439 -0.951,0.761 -3.555,1.351 -3.555,1.351 -2.149,0.14 -3.556,1.026 -3.556,1.026 0,0 -3.08,0.343 -3.613,0.167 C 3.194,20.12 2.195,13.894 1.964,11.445 1.732,8.997 0.32,2.958 0,2.065 -0.497,0.686 -0.114,0.23 0,0" />
          </g>
          <g
             id="g1656"
             style="stroke-width:0.35613516">
            <g
               id="g1658"
               style="stroke-width:0.35613516" />
            <g
               id="g1670"
               style="stroke-width:0.35613516">
              <g
                 style="opacity:0.19999701;stroke-width:0.35613516"
                 id="g1668"
                 clip-path="url(#clipPath1662)">
                <g
                   id="g1666"
                   transform="translate(253.9023,1111.6445)"
                   style="stroke-width:0.35613516">
                  <path
                     inkscape:connector-curvature="0"
                     id="path1664"
                     style="fill:#bb5996;fill-opacity:1;fill-rule:nonzero;stroke:none;stroke-width:0.35613516"
                     d="m 0,0 c 0.015,-0.827 1.041,-2.245 1.041,-2.245 1.955,-0.193 5.51,0.719 5.51,0.719 -0.012,0.078 -0.02,0.156 -0.026,0.232 -0.654,-0.07 -4.543,-0.477 -4.999,-0.203 0,0 -1.561,1.423 -1.752,9.155 z" />
                </g>
              </g>
            </g>
          </g>
          <g
             transform="translate(382.1523,1071.7764)"
             id="g1672"
             style="stroke-width:0.35613516">
            <path
               inkscape:connector-curvature="0"
               id="path1674"
               style="fill:#008186;fill-opacity:1;fill-rule:nonzero;stroke:none;stroke-width:0.35613516"
               d="m 0,0 h -2.687 -0.131 -155.969 -2.352 -2.004 c -0.238,0 -0.432,-0.199 -0.432,-0.442 0,-0.244 0.194,-0.443 0.432,-0.443 h 2.004 2.352 H -2.818 -2.687 0 c 0.238,0 0.433,0.199 0.433,0.443 C 0.433,-0.199 0.238,0 0,0" />
          </g>
          <g
             transform="translate(311.5322,1147.7568)"
             id="g1676"
             style="stroke-width:0.35613516">
            <path
               inkscape:connector-curvature="0"
               id="path1678"
               style="fill:#ffffff;fill-opacity:1;fill-rule:nonzero;stroke:none;stroke-width:0.35613516"
               d="m 0,0 c 0,0 24.478,4.381 42.206,-0.05 0,0 4.784,-39.696 -21.07,-50.665 0,0 -25.397,9.386 -21.136,50.715" />
          </g>
          <g
             transform="translate(314.3477,1145.2236)"
             id="g1680"
             style="stroke-width:0.35613516">
            <path
               inkscape:connector-curvature="0"
               id="path1682"
               style="fill:#bb5996;fill-opacity:1;fill-rule:nonzero;stroke:none;stroke-width:0.35613516"
               d="m 0,0 c 0,0 22.448,2.881 36.155,0 0,0 4.577,-32.24 -17.584,-44.159 0,0 -20.3,5.753 -18.571,44.159" />
          </g>
          <g
             transform="translate(342.209,1131.3135)"
             id="g1684"
             style="stroke-width:0.35613516">
            <path
               inkscape:connector-curvature="0"
               id="path1686"
               style="fill:#ffffff;fill-opacity:1;fill-rule:nonzero;stroke:none;stroke-width:0.35613516"
               d="m 0,0 h -6.726 v 6.561 h -6.161 V 0 h -6.394 v -6.161 h 6.394 v -6.561 h 6.161 v 6.561 H 0 Z" />
          </g>
          <g
             transform="translate(356.5996,1117.542)"
             id="g1688"
             style="stroke-width:0.35613516">
            <path
               inkscape:connector-curvature="0"
               id="path1690"
               style="fill:#bb5996;fill-opacity:1;fill-rule:nonzero;stroke:none;stroke-width:0.35613516"
               d="m 0,0 c 1.072,1.063 0.935,9.334 0.947,9.839 0.035,1.461 0.587,2.071 0.587,2.071 1.851,1.095 4.896,1.167 6.052,-1.784 0.742,-1.894 2.641,-5.575 2.641,-5.575 7.757,-10.764 4.674,-16.075 4.674,-16.075 l -0.331,0.037 c 0.114,0.352 0.203,0.85 0.087,1.061 l -0.315,-1.053 -5.732,0.736 C 8.567,-9.642 8.125,-7.924 8.125,-7.924 L 8.098,-10.839 7.329,-10.88 C 7.633,-4.733 6.327,-1.716 5.941,-0.968 6.272,-4.385 4.618,-9.956 4.618,-9.956 l -0.236,0.053 0.537,2.786 -0.688,-2.752 -0.665,0.15 c 0.106,0.371 0.203,0.733 0.292,1.086 C 3.675,-9.313 3.566,-9.719 3.566,-9.719 2.139,-8.165 -0.478,-8.302 -0.478,-8.302 -1.898,-6.305 0,0 0,0" />
          </g>
          <g
             transform="translate(355.9727,1076.0645)"
             id="g1692"
             style="stroke-width:0.35613516">
            <path
               inkscape:connector-curvature="0"
               id="path1694"
               style="fill:#dcabb0;fill-opacity:1;fill-rule:nonzero;stroke:none;stroke-width:0.35613516"
               d="m 0,0 -1.672,-3.337 -1.361,0.525 0.312,3.406 z" />
          </g>
          <g
             transform="translate(354.8906,1073.293)"
             id="g1696"
             style="stroke-width:0.35613516">
            <path
               inkscape:connector-curvature="0"
               id="path1698"
               style="fill:#c4541c;fill-opacity:1;fill-rule:nonzero;stroke:none;stroke-width:0.35613516"
               d="m 0,0 -0.455,-1.507 h -4.522 c 0,0 1.157,2.032 4.977,1.507" />
          </g>
          <g
             transform="translate(356.1221,1105.1025)"
             id="g1700"
             style="stroke-width:0.35613516">
            <path
               inkscape:connector-curvature="0"
               id="path1702"
               style="fill:#373482;fill-opacity:1;fill-rule:nonzero;stroke:none;stroke-width:0.35613516"
               d="m 0,0 -3.571,-29.256 h 3.787 c 0,0 4.941,12.652 5.651,25.837 C 6.138,1.619 0,0 0,0" />
          </g>
          <g
             transform="translate(365.2441,1075.8008)"
             id="g1704"
             style="stroke-width:0.35613516">
            <path
               inkscape:connector-curvature="0"
               id="path1706"
               style="fill:#dcabb0;fill-opacity:1;fill-rule:nonzero;stroke:none;stroke-width:0.35613516"
               d="m 0,0 -0.775,-2.721 -1.449,0.175 -0.321,4.159 z" />
          </g>
          <g
             transform="translate(364.6045,1073.293)"
             id="g1708"
             style="stroke-width:0.35613516">
            <path
               inkscape:connector-curvature="0"
               id="path1710"
               style="fill:#c4541c;fill-opacity:1;fill-rule:nonzero;stroke:none;stroke-width:0.35613516"
               d="m 0,0 -0.456,-1.507 h -4.522 c 0,0 1.157,2.032 4.978,1.507" />
          </g>
          <g
             transform="translate(361.0098,1104.7051)"
             id="g1712"
             style="stroke-width:0.35613516">
            <path
               inkscape:connector-curvature="0"
               id="path1714"
               style="fill:#575ba3;fill-opacity:1;fill-rule:nonzero;stroke:none;stroke-width:0.35613516"
               d="m 0,0 h 2.806 l 3.008,0.421 c 0,0 1.926,-4.206 0.935,-16.671 -0.504,-6.335 -2.378,-13.073 -2.378,-13.073 l -3.883,0.08 -1.675,23.248 c -0.051,0.638 -0.792,0.866 -0.792,0.866 l 0.108,5.2 z" />
          </g>
          <g
             transform="translate(363.9717,1075.9375)"
             id="g1716"
             style="stroke-width:0.35613516">
            <path
               inkscape:connector-curvature="0"
               id="path1718"
               style="fill:#373482;fill-opacity:1;fill-rule:nonzero;stroke:none;stroke-width:0.35613516"
               d="m 0,0 c 0.522,2.812 0.981,6.146 1.278,9.624 0.045,0.531 0.089,1.078 0.128,1.626 0.044,0.604 0.085,1.215 0.121,1.816 0.013,0.207 -0.041,0.446 -0.092,0.676 -0.049,0.215 -0.098,0.437 -0.088,0.615 0.12,2.289 0.126,4.383 0.132,6.232 0,0.484 0.002,0.959 0.005,1.425 0.031,4.203 0.063,6.585 0.065,6.608 C 1.547,28.599 1.374,26.228 1.344,22.019 1.341,21.553 1.339,21.078 1.337,20.594 1.332,18.747 1.326,16.653 1.206,14.369 1.195,14.17 1.247,13.938 1.298,13.713 1.347,13.492 1.397,13.265 1.387,13.079 1.351,12.479 1.31,11.868 1.267,11.265 1.226,10.718 1.183,10.172 1.138,9.641 0.843,6.168 0.481,2.804 -0.04,-0.002 Z" />
          </g>
          <g
             transform="translate(359.8896,1123.8818)"
             id="g1720"
             style="stroke-width:0.35613516">
            <path
               inkscape:connector-curvature="0"
               id="path1722"
               style="fill:#dcabb0;fill-opacity:1;fill-rule:nonzero;stroke:none;stroke-width:0.35613516"
               d="m 0,0 c 0,0 0.444,-2.583 -1.163,-3.803 0,0 0.691,-1.499 1.156,-1.733 0.52,-0.262 1.881,-0.263 2.324,0.114 0.459,0.389 0.868,2.242 0.868,2.242 0,0 -0.352,1.608 -0.28,4.065 z" />
          </g>
          <g
             transform="translate(359.3242,1123.1436)"
             id="g1724"
             style="stroke-width:0.35613516">
            <path
               inkscape:connector-curvature="0"
               id="path1726"
               style="fill:#dcabb0;fill-opacity:1;fill-rule:nonzero;stroke:none;stroke-width:0.35613516"
               d="M 0,0 C 0,0 3.544,-0.162 3.611,2.046 3.678,4.255 4.18,5.721 1.92,5.918 -0.339,6.114 -0.805,5.285 -1.006,4.554 -1.208,3.821 -0.92,0.099 0,0" />
          </g>
          <g
             transform="translate(356.1221,1105.1025)"
             id="g1728"
             style="stroke-width:0.35613516">
            <path
               inkscape:connector-curvature="0"
               id="path1730"
               style="fill:#575ba3;fill-opacity:1;fill-rule:nonzero;stroke:none;stroke-width:0.35613516"
               d="m 0,0 c 0,0 0.471,-0.388 5.165,-0.621 0.306,-0.015 0.596,-0.025 0.871,-0.031 1.684,-0.039 2.817,0.078 3.563,0.224 1.006,0.199 1.308,0.451 1.308,0.451 0,0 -1.465,3.536 -1.465,5.216 0,1.161 -2.621,10.57 -2.621,10.57 C 6.515,14.964 5.687,14.24 4.778,14.232 2.399,14.216 3.327,15.813 3.327,15.813 L 0.648,14.737 c 0,0 0.333,-0.994 0.208,-1.958 C 0.823,12.53 0.761,12.283 0.653,12.056 0.63,12.006 0.604,11.957 0.576,11.91 -0.072,10.804 0.372,8.884 0.846,6.66 1.319,4.437 0,0 0,0" />
          </g>
          <g
             transform="translate(356.7705,1119.8398)"
             id="g1732"
             style="stroke-width:0.35613516">
            <path
               inkscape:connector-curvature="0"
               id="path1734"
               style="fill:#dcabb0;fill-opacity:1;fill-rule:nonzero;stroke:none;stroke-width:0.35613516"
               d="m 0,0 c 0,0 -2.826,-4.749 -4.22,-8.338 0,0 -3.414,1.418 -5.367,2.24 -0.103,0.043 -0.203,0.086 -0.299,0.126 l -0.636,0.27 c 0,0 -0.146,1.484 -1.771,1.67 0,0 -0.671,0.026 -0.481,-0.437 0.19,-0.463 0.182,-0.264 0.435,-0.921 0.254,-0.657 0.779,-1.172 1.28,-1.223 0,0 0.22,-0.17 0.581,-0.441 v -10e-4 c 0.108,-0.08 0.229,-0.17 0.36,-0.266 1.625,-1.199 4.881,-3.489 5.898,-3.375 1.375,0.154 5.271,5.741 5.271,5.741 z" />
          </g>
          <g
             transform="translate(350.166,1109.998)"
             id="g1736"
             style="stroke-width:0.35613516">
            <path
               inkscape:connector-curvature="0"
               id="path1738"
               style="fill:#dce1f1;fill-opacity:1;fill-rule:nonzero;stroke:none;stroke-width:0.35613516"
               d="m 0,0 c 0,0 1.854,-0.931 2.222,-0.931 0.367,0 1.366,0.485 2.417,1.738 0.459,0.546 1.13,1.401 1.739,2.196 0.788,1.029 1.475,1.958 1.465,1.987 -0.017,0.051 -0.384,5.195 -0.384,5.195 0,0 -0.88,-0.241 -0.939,-0.299 C 6.459,9.825 3.008,3.64 2.393,1.812 L 0.338,2.429 Z" />
          </g>
          <g
             transform="translate(359.9844,1112.7314)"
             id="g1740"
             style="stroke-width:0.35613516">
            <path
               inkscape:connector-curvature="0"
               id="path1742"
               style="fill:#dce1f1;fill-opacity:1;fill-rule:nonzero;stroke:none;stroke-width:0.35613516"
               d="m 0,0 -0.441,-19.786 h -5.053 c 0,0 1.104,11.226 1.632,14.737 0.605,4.023 0.562,12.2 0.562,12.2 0,0 2.075,0.845 2.233,0.82 C -0.909,7.945 0,0 0,0" />
          </g>
          <g
             transform="translate(359.4492,1120.916)"
             id="g1744"
             style="stroke-width:0.35613516">
            <path
               inkscape:connector-curvature="0"
               id="path1746"
               style="fill:#cdd2ea;fill-opacity:1;fill-rule:nonzero;stroke:none;stroke-width:0.35613516"
               d="m 0,0 c 0,0 0.842,-6.562 0.535,-8.185 l -1.324,4.427 0.299,0.529 -0.547,0.171 0.342,2.786 C -0.695,-0.272 -0.472,0 0,0" />
          </g>
          <g
             transform="translate(360.4697,1112.5273)"
             id="g1748"
             style="stroke-width:0.35613516">
            <path
               inkscape:connector-curvature="0"
               id="path1750"
               style="fill:#dce1f1;fill-opacity:1;fill-rule:nonzero;stroke:none;stroke-width:0.35613516"
               d="m 0,0 v -19.581 c 0,0 3.212,0.058 5.694,0.139 1.561,0.049 2.832,0.108 2.832,0.168 0,0.139 -0.88,8.151 -2.491,13.945 -0.358,1.29 -0.483,2.633 -0.366,3.965 0.116,1.307 0.286,2.84 0.49,3.55 0.002,0.006 0.004,0.011 0.006,0.018 0,0 3.036,-2.448 2.959,-2.562 -0.077,-0.117 -0.828,-2.154 -0.828,-2.154 0,0 1.426,-1.034 1.717,-1.178 0,0 2.648,3.57 2.281,4.138 0,0 -4.615,7.849 -5.664,7.519 C 6.333,7.874 3.229,8.175 3.229,8.175 Z" />
          </g>
          <g
             transform="translate(363.0742,1120.7021)"
             id="g1752"
             style="stroke-width:0.35613516">
            <path
               inkscape:connector-curvature="0"
               id="path1754"
               style="fill:#cdd2ea;fill-opacity:1;fill-rule:nonzero;stroke:none;stroke-width:0.35613516"
               d="m 0,0 c -0.129,-0.13 -2.604,-8.176 -2.604,-8.176 0,0 2.272,3.879 2.443,3.965 L -0.415,-3.732 0.129,-3.459 0.625,0 C 0.625,0 0.213,0.212 0,0" />
          </g>
          <g
             transform="translate(358.3516,1128.5332)"
             id="g1756"
             style="stroke-width:0.35613516">
            <path
               inkscape:connector-curvature="0"
               id="path1758"
               style="fill:#bb5996;fill-opacity:1;fill-rule:nonzero;stroke:none;stroke-width:0.35613516"
               d="M 0,0 C 0,0 4.346,-3.35 3.962,-5.823 3.602,-8.147 4.285,-8.355 4.794,-8.576 6.105,-9.149 8.247,-8.015 8.929,-8.048 9.414,-8.071 7.746,-7.577 6.953,-6.519 4.846,-3.702 5.051,0.104 4.63,0.377 1.762,2.244 0,0 0,0" />
          </g>
          <g
             transform="translate(350.1152,1112.7051)"
             id="g1760"
             style="stroke-width:0.35613516">
            <path
               inkscape:connector-curvature="0"
               id="path1762"
               style="fill:#cdd2ea;fill-opacity:1;fill-rule:nonzero;stroke:none;stroke-width:0.35613516"
               d="m 0,0 c 0,0 -0.367,-2.356 -0.547,-2.74 l 0.641,-0.328 c 0,0 0.385,2.437 0.282,2.881 z" />
          </g>
          <g
             transform="translate(364.7256,1104.3135)"
             id="g1764"
             style="stroke-width:0.35613516">
            <path
               inkscape:connector-curvature="0"
               id="path1766"
               style="fill:#cdd2ea;fill-opacity:1;fill-rule:nonzero;stroke:none;stroke-width:0.35613516"
               d="m 0,0 c 0.339,-1.284 1.11,-8.202 1.438,-11.229 1.561,0.05 2.833,0.109 2.833,0.168 0,0.14 -0.881,8.152 -2.492,13.946 C 1.421,4.175 1.296,5.518 1.413,6.85 1.529,8.157 1.699,9.689 1.903,10.399 1.681,10.594 1.425,10.708 1.277,10.585 0.954,10.311 -0.436,1.654 0,0" />
          </g>
          <g
             transform="translate(368.7656,1110.0156)"
             id="g1768"
             style="stroke-width:0.35613516">
            <path
               inkscape:connector-curvature="0"
               id="path1770"
               style="fill:#dcabb0;fill-opacity:1;fill-rule:nonzero;stroke:none;stroke-width:0.35613516"
               d="M 0,0 C -0.046,-0.256 -1.418,-2.696 -1.676,-3.151 -1.701,-3.199 -1.717,-3.225 -1.717,-3.225 L -1.96,-3.413 c 0,0 -1.121,0.983 -2.433,0.007 0,0 -0.507,-0.441 -0.052,-0.648 0.454,-0.208 0.313,-0.068 0.947,-0.375 0.635,-0.304 1.369,-0.321 1.77,-0.015 l 0.445,0.341 c 0.077,0.059 0.216,0.184 0.393,0.352 0.855,0.803 2.607,2.572 2.607,2.572 z" />
          </g>
          <g
             transform="translate(350.166,1109.998)"
             id="g1772"
             style="stroke-width:0.35613516">
            <path
               inkscape:connector-curvature="0"
               id="path1774"
               style="fill:#cdd2ea;fill-opacity:1;fill-rule:nonzero;stroke:none;stroke-width:0.35613516"
               d="m 0,0 c 0,0 1.854,-0.931 2.222,-0.931 0.367,0 1.366,0.485 2.417,1.738 0.459,0.546 1.13,1.401 1.739,2.196 C 6.463,3.424 6.495,3.889 6.21,3.917 5.697,3.968 2.93,-0.235 2.237,-0.209 1.545,-0.184 0,0 0,0" />
          </g>
          <g
             transform="translate(368.8076,1110.1299)"
             id="g1776"
             style="stroke-width:0.35613516">
            <path
               inkscape:connector-curvature="0"
               id="path1778"
               style="fill:#cdd2ea;fill-opacity:1;fill-rule:nonzero;stroke:none;stroke-width:0.35613516"
               d="m 0,0 1.97,-1.229 c 0,0 -0.257,-0.283 -0.266,-0.265 -0.008,0.016 -1.776,1.291 -1.776,1.291 z" />
          </g>
        </g>
      </g>
    </g>
  </g>
</svg>
