<?xml version="1.0" encoding="UTF-8" standalone="no"?>
<!-- Created with Inkscape (http://www.inkscape.org/) -->

<svg
   xmlns:dc="http://purl.org/dc/elements/1.1/"
   xmlns:cc="http://creativecommons.org/ns#"
   xmlns:rdf="http://www.w3.org/1999/02/22-rdf-syntax-ns#"
   xmlns:svg="http://www.w3.org/2000/svg"
   xmlns="http://www.w3.org/2000/svg"
   xmlns:sodipodi="http://sodipodi.sourceforge.net/DTD/sodipodi-0.dtd"
   xmlns:inkscape="http://www.inkscape.org/namespaces/inkscape"
   width="19.770353mm"
   height="34.917603mm"
   viewBox="0 0 19.770353 34.917603"
   version="1.1"
   id="svg7070"
   inkscape:version="0.92.5 (2060ec1f9f, 2020-04-08)"
   sodipodi:docname="descarga-herramientas-2.3.-terapia dirigida.svg">
  <defs
     id="defs7064">
    <filter
       style="color-interpolation-filters:sRGB"
       id="filter18884-3-5-5-7"
       x="-0.057991955"
       width="1.1159838"
       y="-0.040945187"
       height="1.0818903">
      <feGaussianBlur
         stdDeviation="5.2205081"
         id="feGaussianBlur18886-6-6-3-5" />
    </filter>
  </defs>
  <sodipodi:namedview
     id="base"
     pagecolor="#ffffff"
     bordercolor="#666666"
     borderopacity="1.0"
     inkscape:pageopacity="0.0"
     inkscape:pageshadow="2"
     inkscape:zoom="2.0503911"
     inkscape:cx="119.4123"
     inkscape:cy="39.095841"
     inkscape:document-units="mm"
     inkscape:current-layer="layer1"
     showgrid="false"
     fit-margin-top="0"
     fit-margin-left="0"
     fit-margin-right="0"
     fit-margin-bottom="0"
     inkscape:window-width="1366"
     inkscape:window-height="652"
     inkscape:window-x="0"
     inkscape:window-y="27"
     inkscape:window-maximized="1" />
  <metadata
     id="metadata7067">
    <rdf:RDF>
      <cc:Work
         rdf:about="">
        <dc:format>image/svg+xml</dc:format>
        <dc:type
           rdf:resource="http://purl.org/dc/dcmitype/StillImage" />
        <dc:title></dc:title>
      </cc:Work>
    </rdf:RDF>
  </metadata>
  <g
     inkscape:label="Capa 1"
     inkscape:groupmode="layer"
     id="layer1"
     transform="translate(-75.537442,-67.874533)">
    <rect
       style="opacity:0.5;fill:#0069af;fill-opacity:1;stroke:#f97ca9;stroke-width:0.55135214;stroke-linecap:round;stroke-linejoin:round;stroke-miterlimit:4;stroke-dasharray:none;stroke-opacity:1;filter:url(#filter18884-3-5-5-7)"
       id="rect18311-7-2-5-9"
       width="216.05099"
       height="305.99982"
       x="178"
       y="-1466"
       transform="matrix(0.078483,0,0,0.07629245,63.398162,180.67515)" />
    <path
       d="M 94.023172,91.8746 H 75.996522 V 68.31501 h 18.02665 z"
       style="fill:#ffffff;fill-opacity:1;fill-rule:nonzero;stroke:#dddddd;stroke-width:0.089;stroke-miterlimit:4;stroke-dasharray:none;stroke-opacity:1"
       id="path896"
       inkscape:connector-curvature="0" />
    <text
       y="94.93235"
       x="76.311066"
       style="font-variant:normal;font-weight:bold;font-stretch:normal;font-size:1.14444506px;font-family:Verdana;-inkscape-font-specification:Verdana-Bold;writing-mode:lr-tb;fill:#4d4d4d;fill-opacity:1;fill-rule:nonzero;stroke:none;stroke-width:0.06829329"
       id="text922">
      <tspan
         style="stroke-width:0.06829329"
         x="76.311066 77.260971 78.020874 78.699524 79.372452 80.136948 80.705734 81.505722 82.270187 83.052994 83.833511 84.59343 85.162201 85.926712 86.726654 87.118057 87.882553 88.273956 89.223831 89.615234 90.184036 90.575424 91.375397 91.7668 92.566772 93.331268"
         y="94.93235"
         sodipodi:role="line"
         id="tspan918">Descarga Terapia Dirigida</tspan>
      <tspan
         style="stroke-width:0.06829329"
         x="75.442444 76.242401 77.006897 77.575684 78.340164 78.731583 79.513229 79.904633 80.296021 81.124023 81.888519 82.703369 83.376297 84.136215 84.705002 85.09639 85.896362 86.656281 87.047699 88.132614 88.897095 90.107925 90.872406 91.263824 91.885239 92.685226 93.485184 93.968155"
         y="96.558586"
         sodipodi:role="line"
         id="tspan920">para El Cáncer de Mama (pdf)</tspan>
    </text>
    <g
       id="g1488"
       transform="matrix(0.08924085,0,0,-0.08924085,92.239422,85.73435)">
      <path
         d="m 0,0 c 0,-9.885 -9.122,-17.898 -20.37,-17.898 h -121.289 c -11.248,0 -20.365,8.013 -20.365,17.898 v 124.975 c 0,9.886 9.117,17.898 20.365,17.898 H -20.37 C -9.122,142.873 0,134.861 0,124.975 Z"
         style="fill:#e4e4e4;fill-opacity:1;fill-rule:evenodd;stroke:none"
         id="path1490"
         inkscape:connector-curvature="0" />
    </g>
    <g
       id="g1492"
       transform="matrix(0.08924085,0,0,-0.08924085,92.529942,85.73435)">
      <path
         d="m 0,0 c 0,-9.885 -9.122,-17.898 -20.37,-17.898 h -121.289 c -11.248,0 -20.365,8.013 -20.365,17.898 v 124.975 c 0,9.886 9.117,17.898 20.365,17.898 H -20.37 C -9.122,142.873 0,134.861 0,124.975 Z"
         style="fill:none;stroke:#19b4b5;stroke-width:2;stroke-linecap:butt;stroke-linejoin:miter;stroke-miterlimit:10;stroke-dasharray:none;stroke-opacity:1"
         id="path1494"
         inkscape:connector-curvature="0" />
    </g>
    <g
       id="g1496"
       transform="matrix(0.08924085,0,0,-0.08924085,80.536212,78.79186)">
      <path
         d="m 0,0 c 0,-1.798 -1.459,-3.258 -3.258,-3.258 -1.799,0 -3.258,1.46 -3.258,3.258 0,1.801 1.459,3.259 3.258,3.259 C -1.459,3.259 0,1.801 0,0 Z"
         style="fill:none;stroke:#eaf0f1;stroke-width:4;stroke-linecap:butt;stroke-linejoin:miter;stroke-miterlimit:10;stroke-dasharray:none;stroke-opacity:1"
         id="path1498"
         inkscape:connector-curvature="0" />
    </g>
    <g
       id="g1500"
       transform="matrix(0.08924085,0,0,-0.08924085,86.426532,81.29)">
      <path
         d="m 0,0 c 0,-1.561 -1.266,-2.827 -2.826,-2.827 -1.563,0 -2.827,1.266 -2.827,2.827 0,1.562 1.264,2.827 2.827,2.827 C -1.266,2.827 0,1.562 0,0 Z"
         style="fill:none;stroke:#eaf0f1;stroke-width:4;stroke-linecap:butt;stroke-linejoin:miter;stroke-miterlimit:10;stroke-dasharray:none;stroke-opacity:1"
         id="path1502"
         inkscape:connector-curvature="0" />
    </g>
    <g
       id="g1504"
       transform="matrix(0.08924085,0,0,-0.08924085,90.162102,79.4427)">
      <path
         d="m 0,0 -1.116,1.278 1.277,1.115 c 0.074,0.065 0.082,0.181 0.017,0.256 l -0.29,0.333 C -0.179,3.058 -0.294,3.066 -0.37,2.999 L -1.646,1.884 -2.762,3.16 C -2.829,3.235 -2.944,3.242 -3.02,3.177 L -3.353,2.888 C -3.428,2.822 -3.436,2.705 -3.37,2.63 L -2.254,1.353 -3.529,0.237 C -3.604,0.172 -3.611,0.055 -3.547,-0.021 l 0.292,-0.332 c 0.066,-0.076 0.181,-0.084 0.256,-0.016 l 1.275,1.116 1.118,-1.276 c 0.065,-0.076 0.182,-0.084 0.257,-0.017 l 0.332,0.29 C 0.059,-0.19 0.065,-0.074 0,0"
         style="fill:#eaf0f1;fill-opacity:1;fill-rule:nonzero;stroke:none"
         id="path1506"
         inkscape:connector-curvature="0" />
    </g>
    <g
       id="g1508"
       transform="matrix(0.08924085,0,0,-0.08924085,88.386522,78.85323)">
      <path
         d="m 0,0 -1.114,1.275 1.273,1.117 c 0.078,0.065 0.085,0.182 0.02,0.257 L -0.113,2.981 C -0.179,3.057 -0.296,3.065 -0.37,3 L -1.647,1.883 -2.762,3.159 C -2.829,3.234 -2.943,3.241 -3.02,3.176 L -3.352,2.887 C -3.427,2.819 -3.436,2.703 -3.368,2.628 L -2.253,1.352 -3.529,0.236 C -3.604,0.17 -3.611,0.055 -3.546,-0.021 l 0.291,-0.333 c 0.067,-0.076 0.181,-0.083 0.256,-0.017 l 1.276,1.117 1.117,-1.276 c 0.065,-0.075 0.182,-0.083 0.257,-0.018 l 0.332,0.29 C 0.059,-0.192 0.067,-0.076 0,0"
         style="fill:#eaf0f1;fill-opacity:1;fill-rule:nonzero;stroke:none"
         id="path1510"
         inkscape:connector-curvature="0" />
    </g>
    <g
       id="g1512"
       transform="matrix(0.08924085,0,0,-0.08924085,84.563722,76.99118)">
      <path
         d="m 0,0 -1.525,0.738 0.739,1.527 c 0.042,0.089 0.005,0.199 -0.085,0.243 L -1.27,2.699 C -1.359,2.743 -1.47,2.704 -1.514,2.614 L -2.252,1.089 -3.777,1.828 C -3.867,1.872 -3.978,1.833 -4.021,1.743 L -4.213,1.346 C -4.257,1.257 -4.22,1.146 -4.13,1.103 l 1.527,-0.739 -0.739,-1.526 c -0.044,-0.091 -0.005,-0.2 0.085,-0.244 l 0.398,-0.192 c 0.089,-0.043 0.201,-0.005 0.243,0.085 l 0.739,1.525 1.525,-0.737 c 0.09,-0.044 0.2,-0.006 0.244,0.084 l 0.192,0.396 C 0.128,-0.153 0.09,-0.044 0,0"
         style="fill:#eaf0f1;fill-opacity:1;fill-rule:nonzero;stroke:none"
         id="path1514"
         inkscape:connector-curvature="0" />
    </g>
    <g
       id="g1516"
       transform="matrix(0.08924085,0,0,-0.08924085,86.529722,79.35163)">
      <path
         d="m 0,0 c 0,-1.8 -1.458,-3.258 -3.257,-3.258 -1.801,0 -3.261,1.458 -3.261,3.258 0,1.8 1.46,3.258 3.261,3.258 C -1.458,3.258 0,1.8 0,0 Z"
         style="fill:none;stroke:#eaf0f1;stroke-width:4;stroke-linecap:butt;stroke-linejoin:miter;stroke-miterlimit:10;stroke-dasharray:none;stroke-opacity:1"
         id="path1518"
         inkscape:connector-curvature="0" />
    </g>
    <g
       id="g1520"
       transform="matrix(0.08924085,0,0,-0.08924085,87.562872,77.66938)">
      <path
         d="m 0,0 c 0,-1.799 -1.459,-3.258 -3.258,-3.258 -1.8,0 -3.259,1.459 -3.259,3.258 0,1.801 1.459,3.26 3.259,3.26 C -1.459,3.26 0,1.801 0,0 Z"
         style="fill:none;stroke:#eaf0f1;stroke-width:4;stroke-linecap:butt;stroke-linejoin:miter;stroke-miterlimit:10;stroke-dasharray:none;stroke-opacity:1"
         id="path1522"
         inkscape:connector-curvature="0" />
    </g>
    <g
       id="g1524"
       transform="matrix(0.08924085,0,0,-0.08924085,80.069602,79.91879)">
      <path
         d="M 0,0 -1.117,1.275 0.159,2.391 C 0.234,2.457 0.242,2.572 0.176,2.647 L -0.113,2.98 C -0.179,3.056 -0.295,3.063 -0.371,2.998 L -1.646,1.882 -2.762,3.158 C -2.829,3.233 -2.945,3.241 -3.021,3.175 L -3.352,2.885 C -3.427,2.819 -3.434,2.703 -3.368,2.628 L -2.254,1.352 -3.529,0.235 C -3.604,0.17 -3.611,0.054 -3.546,-0.022 l 0.289,-0.332 c 0.066,-0.076 0.183,-0.083 0.258,-0.018 l 1.276,1.117 1.117,-1.275 c 0.065,-0.076 0.182,-0.085 0.257,-0.019 l 0.331,0.29 C 0.059,-0.192 0.065,-0.075 0,0"
         style="fill:#eaf0f1;fill-opacity:1;fill-rule:nonzero;stroke:none"
         id="path1526"
         inkscape:connector-curvature="0" />
    </g>
    <g
       id="g1528"
       transform="matrix(0.08924085,0,0,-0.08924085,90.604902,82.7915)">
      <path
         d="m 0,0 h -118.918 c -0.234,0 -0.424,0.189 -0.424,0.426 0,0.233 0.19,0.423 0.424,0.423 H 0 c 0.235,0 0.425,-0.19 0.425,-0.423 C 0.425,0.189 0.235,0 0,0"
         style="fill:#bfddd1;fill-opacity:1;fill-rule:nonzero;stroke:none"
         id="path1530"
         inkscape:connector-curvature="0" />
    </g>
    <g
       id="g1532"
       transform="matrix(0.08924085,0,0,-0.08924085,88.272532,83.08222)">
      <path
         d="M 0,0 H -74.565 V 1.845 H 0 c 5.245,0 9.511,4.267 9.511,9.512 v 11.138 h 1.845 V 11.357 C 11.356,5.095 6.263,0 0,0"
         style="fill:#a8d9e5;fill-opacity:1;fill-rule:nonzero;stroke:none"
         id="path1534"
         inkscape:connector-curvature="0" />
    </g>
    <path
       d="m 86.163922,82.6832 h -0.87189 v -1.87763 h 0.87189 z"
       style="fill:#3d703a;fill-opacity:1;fill-rule:nonzero;stroke:none;stroke-width:0.08924086"
       id="path1536"
       inkscape:connector-curvature="0" />
    <path
       d="m 86.163922,82.6832 h -0.4562 v -1.87763 h 0.4562 z"
       style="fill:#67b761;fill-opacity:1;fill-rule:nonzero;stroke:none;stroke-width:0.08924086"
       id="path1538"
       inkscape:connector-curvature="0" />
    <path
       d="m 86.025152,82.39441 h -0.63495 v -1.27712 h 0.63495 z"
       style="fill:#90b9a3;fill-opacity:1;fill-rule:nonzero;stroke:none;stroke-width:0.08924086"
       id="path1540"
       inkscape:connector-curvature="0" />
    <path
       d="m 86.025152,82.39441 h -0.31743 v -1.27712 h 0.31743 z"
       style="fill:#ffffff;fill-opacity:1;fill-rule:nonzero;stroke:none;stroke-width:0.08924086"
       id="path1542"
       inkscape:connector-curvature="0" />
    <path
       d="m 86.232992,80.87803 h -1.05054 v -0.14484 h 1.05054 z"
       style="fill:#d8e9d3;fill-opacity:1;fill-rule:nonzero;stroke:none;stroke-width:0.08924086"
       id="path1544"
       inkscape:connector-curvature="0" />
    <g
       id="g1546"
       transform="matrix(0.08924085,0,0,-0.08924085,86.198472,80.73321)">
      <path
         d="m 0,0 h -10.999 l 0.79,1.107 h 9.419 z"
         style="fill:#98bca5;fill-opacity:1;fill-rule:nonzero;stroke:none"
         id="path1548"
         inkscape:connector-curvature="0" />
    </g>
    <g
       id="g1550"
       transform="matrix(0.08924085,0,0,-0.08924085,83.976942,82.68318)">
      <path
         d="m 0,0 h -37.949 c -1.087,0 -1.976,0.891 -1.976,1.978 v 53.519 c 0,1.088 0.889,1.977 1.976,1.977 H 0 c 1.087,0 1.977,-0.889 1.977,-1.977 V 1.978 C 1.977,0.891 1.087,0 0,0"
         style="fill:#a8d9e5;fill-opacity:1;fill-rule:nonzero;stroke:none"
         id="path1552"
         inkscape:connector-curvature="0" />
    </g>
    <g
       id="g1554"
       transform="matrix(0.08924085,0,0,-0.08924085,83.976942,77.55417)">
      <path
         d="M 0,0 H -18.943 V -57.474 H 0 c 1.087,0 1.977,0.891 1.977,1.978 V -1.977 C 1.977,-0.889 1.087,0 0,0"
         style="fill:#19b4b5;fill-opacity:1;fill-rule:nonzero;stroke:none"
         id="path1556"
         inkscape:connector-curvature="0" />
    </g>
    <g
       id="g1558"
       transform="matrix(0.08924085,0,0,-0.08924085,83.698332,82.12908)">
      <path
         d="m 0,0 h -31.705 c -0.908,0 -1.65,0.741 -1.65,1.65 v 44.717 c 0,0.908 0.742,1.651 1.65,1.651 H 0 c 0.909,0 1.652,-0.743 1.652,-1.651 V 1.65 C 1.652,0.741 0.909,0 0,0"
         style="fill:#ffffff;fill-opacity:1;fill-rule:nonzero;stroke:none"
         id="path1560"
         inkscape:connector-curvature="0" />
    </g>
    <g
       id="g1562"
       transform="matrix(0.08924085,0,0,-0.08924085,83.698332,77.84395)">
      <path
         d="M 0,0 H -15.852 V -48.018 H 0 c 0.909,0 1.652,0.742 1.652,1.651 V -1.65 C 1.652,-0.742 0.909,0 0,0"
         style="fill:#eaf0f1;fill-opacity:1;fill-rule:nonzero;stroke:none"
         id="path1564"
         inkscape:connector-curvature="0" />
    </g>
    <g
       id="g1566"
       transform="matrix(0.08924085,0,0,-0.08924085,83.191732,77.45753)">
      <path
         d="m 0,0 v -6.655 c 0,-0.362 -0.297,-0.658 -0.658,-0.658 h -19.035 c -0.363,0 -0.658,0.296 -0.658,0.658 V 0"
         style="fill:none;stroke:#a5a4a5;stroke-width:4;stroke-linecap:butt;stroke-linejoin:miter;stroke-miterlimit:10;stroke-dasharray:none;stroke-opacity:1"
         id="path1568"
         inkscape:connector-curvature="0" />
    </g>
    <g
       id="g1570"
       transform="matrix(0.08924085,0,0,-0.08924085,83.186502,77.57997)">
      <path
         d="m 0,0 h -20.233 c -0.668,0 -1.216,0.546 -1.216,1.215 0,0.668 0.548,1.215 1.216,1.215 H 0 C 0.669,2.43 1.216,1.883 1.216,1.215 1.216,0.546 0.669,0 0,0"
         style="fill:#8bccca;fill-opacity:1;fill-rule:nonzero;stroke:none"
         id="path1572"
         inkscape:connector-curvature="0" />
    </g>
    <g
       id="g1574"
       transform="matrix(0.08924085,0,0,-0.08924085,83.605942,78.70202)">
      <path
         d="m 0,0 h -29.464 c -0.262,0 -0.474,0.214 -0.474,0.474 0,0.262 0.212,0.476 0.474,0.476 H 0 C 0.261,0.95 0.474,0.736 0.474,0.474 0.474,0.214 0.261,0 0,0"
         style="fill:#d9e7f0;fill-opacity:1;fill-rule:nonzero;stroke:none"
         id="path1576"
         inkscape:connector-curvature="0" />
    </g>
    <g
       id="g1578"
       transform="matrix(0.08924085,0,0,-0.08924085,83.605942,78.93715)">
      <path
         d="m 0,0 h -29.464 c -0.262,0 -0.474,0.214 -0.474,0.475 0,0.26 0.212,0.473 0.474,0.473 H 0 C 0.261,0.948 0.474,0.735 0.474,0.475 0.474,0.214 0.261,0 0,0"
         style="fill:#d9e7f0;fill-opacity:1;fill-rule:nonzero;stroke:none"
         id="path1580"
         inkscape:connector-curvature="0" />
    </g>
    <g
       id="g1582"
       transform="matrix(0.08924085,0,0,-0.08924085,83.605942,79.17244)">
      <path
         d="m 0,0 h -29.464 c -0.262,0 -0.474,0.214 -0.474,0.477 0,0.26 0.212,0.474 0.474,0.474 H 0 C 0.261,0.951 0.474,0.737 0.474,0.477 0.474,0.214 0.261,0 0,0"
         style="fill:#d9e7f0;fill-opacity:1;fill-rule:nonzero;stroke:none"
         id="path1584"
         inkscape:connector-curvature="0" />
    </g>
    <g
       id="g1586"
       transform="matrix(0.08924085,0,0,-0.08924085,83.584172,79.55051)">
      <path
         d="m 0,0 h -29.114 c -0.367,0 -0.666,0.299 -0.666,0.666 0,0.366 0.299,0.668 0.666,0.668 H 0 C 0.367,1.334 0.668,1.032 0.668,0.666 0.668,0.299 0.367,0 0,0"
         style="fill:#d9e7f0;fill-opacity:1;fill-rule:nonzero;stroke:none"
         id="path1588"
         inkscape:connector-curvature="0" />
    </g>
    <g
       id="g1590"
       transform="matrix(0.08924085,0,0,-0.08924085,83.584172,79.83278)">
      <path
         d="m 0,0 h -29.114 c -0.367,0 -0.666,0.3 -0.666,0.667 0,0.367 0.299,0.667 0.666,0.667 H 0 c 0.367,0 0.668,-0.3 0.668,-0.667 C 0.668,0.3 0.367,0 0,0"
         style="fill:#d9e7f0;fill-opacity:1;fill-rule:nonzero;stroke:none"
         id="path1592"
         inkscape:connector-curvature="0" />
    </g>
    <g
       id="g1594"
       transform="matrix(0.08924085,0,0,-0.08924085,83.584172,81.26726)">
      <path
         d="m 0,0 h -29.114 c -0.367,0 -0.666,0.299 -0.666,0.666 0,0.367 0.299,0.666 0.666,0.666 H 0 C 0.367,1.332 0.668,1.033 0.668,0.666 0.668,0.299 0.367,0 0,0"
         style="fill:#d9e7f0;fill-opacity:1;fill-rule:nonzero;stroke:none"
         id="path1596"
         inkscape:connector-curvature="0" />
    </g>
    <g
       id="g1598"
       transform="matrix(0.08924085,0,0,-0.08924085,83.584172,81.54953)">
      <path
         d="m 0,0 h -29.114 c -0.367,0 -0.666,0.3 -0.666,0.666 0,0.367 0.299,0.666 0.666,0.666 H 0 C 0.367,1.332 0.668,1.033 0.668,0.666 0.668,0.3 0.367,0 0,0"
         style="fill:#d9e7f0;fill-opacity:1;fill-rule:nonzero;stroke:none"
         id="path1600"
         inkscape:connector-curvature="0" />
    </g>
    <g
       id="g1602"
       transform="matrix(0.08924085,0,0,-0.08924085,81.751682,81.00563)">
      <path
         d="m 0,0 h -8.872 c -0.206,0 -0.374,0.169 -0.374,0.375 v 10.483 c 0,0.207 0.168,0.376 0.374,0.376 H 0 c 0.205,0 0.374,-0.169 0.374,-0.376 V 0.375 C 0.374,0.169 0.205,0 0,0"
         style="fill:#fddb16;fill-opacity:1;fill-rule:nonzero;stroke:none"
         id="path1604"
         inkscape:connector-curvature="0" />
    </g>
    <g
       id="g1606"
       transform="matrix(0.08924085,0,0,-0.08924085,82.682252,81.00563)">
      <path
         d="m 0,0 h -8.872 c -0.206,0 -0.374,0.169 -0.374,0.375 v 10.483 c 0,0.207 0.168,0.376 0.374,0.376 H 0 c 0.207,0 0.374,-0.169 0.374,-0.376 V 0.375 C 0.374,0.169 0.207,0 0,0"
         style="fill:#bb5996;fill-opacity:1;fill-rule:nonzero;stroke:none"
         id="path1608"
         inkscape:connector-curvature="0" />
    </g>
    <g
       id="g1610"
       transform="matrix(0.08924085,0,0,-0.08924085,83.610312,81.00563)">
      <path
         d="m 0,0 h -8.871 c -0.207,0 -0.373,0.169 -0.373,0.375 v 10.483 c 0,0.207 0.166,0.376 0.373,0.376 H 0 c 0.206,0 0.375,-0.169 0.375,-0.376 V 0.375 C 0.375,0.169 0.206,0 0,0"
         style="fill:#67b761;fill-opacity:1;fill-rule:nonzero;stroke:none"
         id="path1612"
         inkscape:connector-curvature="0" />
    </g>
    <path
       d="m 85.387262,82.6832 h -1.23393 v -2.1774 h 1.23393 z"
       style="fill:#eb673c;fill-opacity:1;fill-rule:nonzero;stroke:none;stroke-width:0.08924086"
       id="path1614"
       inkscape:connector-curvature="0" />
    <path
       d="m 85.387262,82.6832 h -0.61702 v -2.1774 h 0.61702 z"
       style="fill:#d75a32;fill-opacity:1;fill-rule:nonzero;stroke:none;stroke-width:0.08924086"
       id="path1616"
       inkscape:connector-curvature="0" />
    <path
       d="m 85.498542,81.90046 h -1.06919 v -0.70197 h 1.06919 z"
       style="fill:#ffffff;fill-opacity:1;fill-rule:nonzero;stroke:none;stroke-width:0.08924086"
       id="path1618"
       inkscape:connector-curvature="0" />
    <path
       d="m 85.498542,81.90046 h -0.53464 v -0.70197 h 0.53464 z"
       style="fill:#c3ddcd;fill-opacity:1;fill-rule:nonzero;stroke:none;stroke-width:0.08924086"
       id="path1620"
       inkscape:connector-curvature="0" />
    <path
       d="m 85.387262,81.4307 h -0.84654 v -0.1634 h 0.84654 z"
       style="fill:#919191;fill-opacity:1;fill-rule:nonzero;stroke:none;stroke-width:0.08924086"
       id="path1622"
       inkscape:connector-curvature="0" />
    <path
       d="m 85.293292,81.59454 h -0.75266 v -0.11128 h 0.75266 z"
       style="fill:#919191;fill-opacity:1;fill-rule:nonzero;stroke:none;stroke-width:0.08924086"
       id="path1624"
       inkscape:connector-curvature="0" />
    <path
       d="m 85.293292,81.77232 h -0.75266 v -0.1112 h 0.75266 z"
       style="fill:#919191;fill-opacity:1;fill-rule:nonzero;stroke:none;stroke-width:0.08924086"
       id="path1626"
       inkscape:connector-curvature="0" />
    <path
       d="m 85.105082,81.75589 h -0.56436 v -0.0948 h 0.56436 z"
       style="fill:#aeaeae;fill-opacity:1;fill-rule:nonzero;stroke:none;stroke-width:0.08924086"
       id="path1628"
       inkscape:connector-curvature="0" />
    <path
       d="m 85.105082,81.57804 h -0.56436 v -0.0948 h 0.56436 z"
       style="fill:#aeaeae;fill-opacity:1;fill-rule:nonzero;stroke:none;stroke-width:0.08924086"
       id="path1630"
       inkscape:connector-curvature="0" />
    <path
       d="m 85.206552,81.39429 h -0.66583 v -0.12708 h 0.66583 z"
       style="fill:#aeaeae;fill-opacity:1;fill-rule:nonzero;stroke:none;stroke-width:0.08924086"
       id="path1632"
       inkscape:connector-curvature="0" />
    <path
       d="m 85.498542,80.58211 h -1.47542 v -0.18402 h 1.47542 z"
       style="fill:#d75a32;fill-opacity:1;fill-rule:nonzero;stroke:none;stroke-width:0.08924086"
       id="path1634"
       inkscape:connector-curvature="0" />
    <g
       id="g1636"
       transform="matrix(0.08924085,0,0,-0.08924085,84.817502,80.58209)">
      <path
         d="m 0,0 h -6.205 c -0.57,0 -1.031,0.462 -1.031,1.031 0,0.569 0.461,1.031 1.031,1.031 H 0 C 0.57,2.062 1.03,1.6 1.03,1.031 1.03,0.462 0.57,0 0,0"
         style="fill:#eb673c;fill-opacity:1;fill-rule:nonzero;stroke:none"
         id="path1638"
         inkscape:connector-curvature="0" />
    </g>
    <path
       d="m 85.498542,80.39809 h -1.47542 v -0.32733 h 1.47542 z"
       style="fill:#d9e7f0;fill-opacity:1;fill-rule:nonzero;stroke:none;stroke-width:0.08924086"
       id="path1640"
       inkscape:connector-curvature="0" />
    <g
       id="g1642"
       transform="matrix(0.08924085,0,0,-0.08924085,84.160042,80.346)">
      <path
         d="m 0,0 h -0.15 c -0.362,0 -0.654,0.291 -0.654,0.651 v 1.198 c 0,0.36 0.292,0.653 0.654,0.653 H 0 c 0.359,0 0.654,-0.293 0.654,-0.653 V 0.651 C 0.654,0.291 0.359,0 0,0"
         style="fill:#c3ddcd;fill-opacity:1;fill-rule:nonzero;stroke:none"
         id="path1644"
         inkscape:connector-curvature="0" />
    </g>
    <g
       id="g1646"
       transform="matrix(0.08924085,0,0,-0.08924085,84.418792,80.346)">
      <path
         d="m 0,0 h -0.152 c -0.361,0 -0.653,0.291 -0.653,0.651 v 1.198 c 0,0.36 0.292,0.653 0.653,0.653 H 0 c 0.361,0 0.653,-0.293 0.653,-0.653 V 0.651 C 0.653,0.291 0.361,0 0,0"
         style="fill:#c3ddcd;fill-opacity:1;fill-rule:nonzero;stroke:none"
         id="path1648"
         inkscape:connector-curvature="0" />
    </g>
    <g
       id="g1650"
       transform="matrix(0.08924085,0,0,-0.08924085,84.653832,80.346)">
      <path
         d="M 0,0 H -0.151 C -0.51,0 -0.805,0.291 -0.805,0.651 v 1.198 c 0,0.36 0.295,0.653 0.654,0.653 H 0 c 0.361,0 0.653,-0.293 0.653,-0.653 V 0.651 C 0.653,0.291 0.361,0 0,0"
         style="fill:#c3ddcd;fill-opacity:1;fill-rule:nonzero;stroke:none"
         id="path1652"
         inkscape:connector-curvature="0" />
    </g>
    <g
       id="g1654"
       transform="matrix(0.08924085,0,0,-0.08924085,84.889132,80.346)">
      <path
         d="m 0,0 h -0.151 c -0.362,0 -0.655,0.291 -0.655,0.651 v 1.198 c 0,0.36 0.293,0.653 0.655,0.653 H 0 c 0.36,0 0.653,-0.293 0.653,-0.653 V 0.651 C 0.653,0.291 0.36,0 0,0"
         style="fill:#c3ddcd;fill-opacity:1;fill-rule:nonzero;stroke:none"
         id="path1656"
         inkscape:connector-curvature="0" />
    </g>
    <g
       id="g1658"
       transform="matrix(0.08924085,0,0,-0.08924085,85.124262,80.346)">
      <path
         d="m 0,0 h -0.15 c -0.363,0 -0.655,0.291 -0.655,0.651 v 1.198 c 0,0.36 0.292,0.653 0.655,0.653 H 0 c 0.361,0 0.652,-0.293 0.652,-0.653 V 0.651 C 0.652,0.291 0.361,0 0,0"
         style="fill:#c3ddcd;fill-opacity:1;fill-rule:nonzero;stroke:none"
         id="path1660"
         inkscape:connector-curvature="0" />
    </g>
    <g
       id="g1662"
       transform="matrix(0.08924085,0,0,-0.08924085,85.359482,80.346)">
      <path
         d="m 0,0 h -0.152 c -0.361,0 -0.653,0.291 -0.653,0.651 v 1.198 c 0,0.36 0.292,0.653 0.653,0.653 H 0 c 0.36,0 0.652,-0.293 0.652,-0.653 V 0.651 C 0.652,0.291 0.36,0 0,0"
         style="fill:#c3ddcd;fill-opacity:1;fill-rule:nonzero;stroke:none"
         id="path1664"
         inkscape:connector-curvature="0" />
    </g>
    <path
       d="m 85.387262,80.07076 h -1.29899 v -0.0762 h 1.29899 z"
       style="fill:#eaf4f0;fill-opacity:1;fill-rule:nonzero;stroke:none;stroke-width:0.08924086"
       id="path1666"
       inkscape:connector-curvature="0" />
    <g
       id="g1668"
       transform="matrix(0.08924085,0,0,-0.08924085,82.283722,80.00306)">
      <path
         d="M 0,0 H -4.406 C -4.612,0 -4.78,-0.169 -4.78,-0.376 v -10.483 c 0,-0.206 0.168,-0.375 0.374,-0.375 H 0 Z"
         style="fill:#d380b3;fill-opacity:1;fill-rule:nonzero;stroke:none"
         id="path1670"
         inkscape:connector-curvature="0" />
    </g>
    <g
       id="g1672"
       transform="matrix(0.08924085,0,0,-0.08924085,89.422382,81.13339)">
      <path
         d="m 0,0 -1.785,-0.433 c -8.511,-2.059 -17.111,3.19 -19.169,11.7 l -5.485,22.661 c -0.399,1.651 0.62,3.32 2.27,3.719 l 2.272,0.551 0.371,-1.538 -2.271,-0.55 c -0.805,-0.194 -1.3,-1.006 -1.106,-1.811 L -19.418,11.64 C -17.562,3.977 -9.82,-0.749 -2.157,1.104 l 1.785,0.432 c 7.664,1.856 12.39,9.599 10.534,17.261 L 4.579,41.869 C 4.385,42.674 3.571,43.17 2.768,42.975 L 0.856,42.512 0.484,44.05 2.396,44.512 c 1.651,0.4 3.321,-0.62 3.719,-2.271 L 11.7,19.169 C 13.76,10.658 8.511,2.06 0,0"
         style="fill:#aeaeae;fill-opacity:1;fill-rule:nonzero;stroke:none"
         id="path1674"
         inkscape:connector-curvature="0" />
    </g>
    <g
       id="g1676"
       transform="matrix(0.08924085,0,0,-0.08924085,89.636152,77.16113)">
      <path
         d="m 0,0 -1.911,-0.462 0.187,-0.768 1.417,0.343 c 1.591,0.384 3.197,-0.595 3.582,-2.187 l 5.377,-22.217 c 1.984,-8.196 -3.071,-16.478 -11.268,-18.461 l -1.719,-0.416 c -8.194,-1.982 -16.475,3.072 -18.458,11.267 l -5.281,21.821 c -0.385,1.59 0.595,3.197 2.185,3.582 l 1.778,0.43 -0.182,0.755 -2.271,-0.551 c -1.651,-0.4 -2.669,-2.069 -2.271,-3.72 l 5.485,-22.661 c 2.059,-8.51 10.659,-13.759 19.169,-11.699 l 1.785,0.432 c 8.511,2.06 13.76,10.658 11.701,19.169 L 3.72,-2.271 C 3.321,-0.62 1.651,0.4 0,0"
         style="fill:#898a8b;fill-opacity:1;fill-rule:nonzero;stroke:none"
         id="path1678"
         inkscape:connector-curvature="0" />
    </g>
    <g
       id="g1680"
       transform="matrix(0.08924085,0,0,-0.08924085,89.425082,81.14482)">
      <path
         d="m 0,0 -1.785,-0.433 c -5.425,-1.312 -11.051,0.264 -15.048,4.22 l 1.297,1.311 c 3.54,-3.501 8.518,-4.899 13.318,-3.738 l 1.784,0.432 C 4.772,3.053 8.78,7.096 10.021,12.345 l 1.797,-0.424 C 10.416,5.992 5.886,1.424 0,0"
         style="fill:#a8d9e5;fill-opacity:1;fill-rule:nonzero;stroke:none"
         id="path1682"
         inkscape:connector-curvature="0" />
    </g>
    <g
       id="g1684"
       transform="matrix(0.08924085,0,0,-0.08924085,89.399892,81.04067)">
      <path
         d="m 0,0 -1.784,-0.433 c -5.097,-1.232 -10.367,0.084 -14.301,3.525 L -16.551,2.62 c 3.997,-3.956 9.623,-5.532 15.048,-4.22 l 1.785,0.433 c 5.886,1.424 10.416,5.992 11.819,11.921 l -0.565,0.134 C 9.875,5.465 5.538,1.34 0,0"
         style="fill:#19b4b5;fill-opacity:1;fill-rule:nonzero;stroke:none"
         id="path1686"
         inkscape:connector-curvature="0" />
    </g>
    <g
       id="g1688"
       transform="matrix(0.08924085,0,0,-0.08924085,89.610362,77.41465)">
      <path
         d="m 0,0 -3.674,-0.89 c -0.474,-0.114 -0.957,0.18 -1.072,0.655 l -0.478,1.973 c -0.115,0.475 0.18,0.956 0.655,1.072 l 3.674,0.888 C -0.421,3.813 0.061,3.52 0.176,3.044 L 0.654,1.071 C 0.769,0.597 0.475,0.114 0,0"
         style="fill:#2d4344;fill-opacity:1;fill-rule:nonzero;stroke:none"
         id="path1690"
         inkscape:connector-curvature="0" />
    </g>
    <g
       id="g1692"
       transform="matrix(0.08924085,0,0,-0.08924085,89.533412,77.33925)">
      <path
         d="m 0,0 -3.05,-0.737 c -0.364,-0.089 -0.736,0.137 -0.826,0.503 l -0.331,1.376 c -0.089,0.363 0.138,0.735 0.503,0.824 l 3.049,0.738 C -0.289,2.793 0.082,2.565 0.171,2.2 L 0.503,0.825 C 0.593,0.46 0.364,0.089 0,0"
         style="fill:#4e6767;fill-opacity:1;fill-rule:nonzero;stroke:none"
         id="path1694"
         inkscape:connector-curvature="0" />
    </g>
    <g
       id="g1696"
       transform="matrix(0.08924085,0,0,-0.08924085,87.573852,77.90748)">
      <path
         d="M 0,0 3.675,0.889 C 4.148,1.004 4.443,1.485 4.329,1.961 L 3.852,3.934 C 3.736,4.409 3.253,4.702 2.779,4.589 L -0.895,3.699 C -1.369,3.584 -1.663,3.103 -1.549,2.628 L -1.07,0.654 C -0.955,0.18 -0.474,-0.114 0,0"
         style="fill:#2d4344;fill-opacity:1;fill-rule:nonzero;stroke:none"
         id="path1698"
         inkscape:connector-curvature="0" />
    </g>
    <g
       id="g1700"
       transform="matrix(0.08924085,0,0,-0.08924085,87.534642,77.82294)">
      <path
         d="M 0,0 3.051,0.738 C 3.416,0.827 3.643,1.197 3.554,1.562 L 3.221,2.939 C 3.133,3.304 2.762,3.529 2.396,3.441 L -0.654,2.703 C -1.02,2.615 -1.245,2.245 -1.158,1.879 L -0.824,0.504 C -0.737,0.138 -0.365,-0.088 0,0"
         style="fill:#4e6767;fill-opacity:1;fill-rule:nonzero;stroke:none"
         id="path1702"
         inkscape:connector-curvature="0" />
    </g>
    <g
       id="g1704"
       transform="matrix(0.08924085,0,0,-0.08924085,89.213472,81.07474)">
      <path
         d="m 0,0 v -10.681 c 0,-6.006 -4.887,-10.891 -10.892,-10.891 h -71.506 v 0.922 h -2.711 v -1.845 h 74.565 c 6.263,0 11.356,5.095 11.356,11.357 L 0.812,0 Z"
         style="fill:#19b4b5;fill-opacity:1;fill-rule:nonzero;stroke:none"
         id="path1706"
         inkscape:connector-curvature="0" />
    </g>
    <g
       id="g1708"
       transform="matrix(0.08924085,0,0,-0.08924085,81.967372,82.99987)">
      <path
         d="m 0,0 c 0,-3.222 -2.611,-5.832 -5.832,-5.832 -3.22,0 -5.831,2.61 -5.831,5.832 0,3.22 2.611,5.831 5.831,5.831 C -2.611,5.831 0,3.22 0,0"
         style="fill:#b6bebe;fill-opacity:1;fill-rule:nonzero;stroke:none"
         id="path1710"
         inkscape:connector-curvature="0" />
    </g>
    <g
       id="g1712"
       transform="matrix(0.08924085,0,0,-0.08924085,81.815032,82.99987)">
      <path
         d="m 0,0 c 0,-2.278 -1.848,-4.124 -4.125,-4.124 -2.276,0 -4.125,1.846 -4.125,4.124 0,2.276 1.849,4.123 4.125,4.123 C -1.848,4.123 0,2.276 0,0"
         style="fill:#e8eced;fill-opacity:1;fill-rule:nonzero;stroke:none"
         id="path1714"
         inkscape:connector-curvature="0" />
    </g>
    <g
       id="g1716"
       transform="matrix(0.08924085,0,0,-0.08924085,84.889832,79.83958)">
      <path
         d="m 0,0 -5.953,2.144 c -0.888,0.319 -1.35,1.305 -1.032,2.191 0.319,0.887 1.307,1.352 2.193,1.031 L 1.16,3.224 C 2.046,2.905 2.51,1.918 2.191,1.031 1.873,0.146 0.887,-0.319 0,0"
         style="fill:#a8d9e5;fill-opacity:1;fill-rule:nonzero;stroke:none"
         id="path1718"
         inkscape:connector-curvature="0" />
    </g>
    <g
       id="g1720"
       transform="matrix(0.08924085,0,0,-0.08924085,84.736532,79.45952)">
      <path
         d="M 0,0 -3.074,1.107 C -3.96,1.428 -4.948,0.963 -5.268,0.076 -5.585,-0.81 -5.123,-1.796 -4.235,-2.115 l 3.076,-1.108 z"
         style="fill:#ec6b41;fill-opacity:1;fill-rule:nonzero;stroke:none"
         id="path1722"
         inkscape:connector-curvature="0" />
    </g>
    <g
       id="g1724"
       transform="matrix(0.08924085,0,0,-0.08924085,85.180732,78.73113)">
      <path
         d="m 0,0 -5.905,-2.271 c -0.879,-0.337 -1.876,0.105 -2.214,0.984 -0.338,0.88 0.105,1.876 0.985,2.214 l 5.905,2.27 C -0.351,3.535 0.647,3.093 0.984,2.213 1.323,1.334 0.881,0.338 0,0"
         style="fill:#a8d9e5;fill-opacity:1;fill-rule:nonzero;stroke:none"
         id="path1726"
         inkscape:connector-curvature="0" />
    </g>
    <g
       id="g1728"
       transform="matrix(0.08924085,0,0,-0.08924085,84.816362,78.54376)">
      <path
         d="m 0,0 -3.051,-1.173 c -0.88,-0.338 -1.323,-1.334 -0.985,-2.214 0.338,-0.879 1.335,-1.321 2.214,-0.983 l 3.051,1.173 z"
         style="fill:#ec6b41;fill-opacity:1;fill-rule:nonzero;stroke:none"
         id="path1730"
         inkscape:connector-curvature="0" />
    </g>
    <g
       id="g1732"
       transform="matrix(0.08924085,0,0,-0.08924085,84.501312,78.72772)">
      <path
         d="M 0,0 5.66,2.336"
         style="fill:none;stroke:#ffffff;stroke-width:2;stroke-linecap:round;stroke-linejoin:miter;stroke-miterlimit:10;stroke-dasharray:none;stroke-opacity:1"
         id="path1734"
         inkscape:connector-curvature="0" />
    </g>
    <g
       id="g1736"
       transform="matrix(0.08924085,0,0,-0.08924085,84.478572,79.42719)">
      <path
         d="M 0,0 5.801,-1.959"
         style="fill:none;stroke:#ffffff;stroke-width:2;stroke-linecap:round;stroke-linejoin:miter;stroke-miterlimit:10;stroke-dasharray:none;stroke-opacity:1"
         id="path1738"
         inkscape:connector-curvature="0" />
    </g>
    <path
       d="m 86.882662,80.73194 h -0.33509 v -0.33509 h 0.33509 z"
       style="fill:#d9e7f0;fill-opacity:1;fill-rule:nonzero;stroke:none;stroke-width:0.08924086"
       id="path1740"
       inkscape:connector-curvature="0" />
    <path
       d="m 86.882662,80.73194 h 0.35001 v -0.33509 h -0.35001 z"
       style="fill:#80a9a2;fill-opacity:1;fill-rule:nonzero;stroke:none;stroke-width:0.08924086"
       id="path1742"
       inkscape:connector-curvature="0" />
    <g
       id="g1744"
       transform="matrix(0.08924085,0,0,-0.08924085,87.252452,80.93889)">
      <path
         d="m 0,0 c -0.823,0.47 -1.368,1.311 -1.368,2.26 v 0.071 h -0.27 -5.057 -0.27 V 2.26 C -6.965,1.311 -7.51,0.47 -8.332,0 -9.285,-0.546 -9.931,-1.572 -9.931,-2.744 v -0.074 -13.828 c 0,-1.74 1.423,-3.164 3.161,-3.164 h 5.206 c 1.74,0 3.163,1.424 3.163,3.164 v 13.828 0.074 C 1.599,-1.572 0.951,-0.546 0,0"
         style="fill:#bb5996;fill-opacity:1;fill-rule:nonzero;stroke:none"
         id="path1746"
         inkscape:connector-curvature="0" />
    </g>
    <g
       id="g1748"
       transform="matrix(0.08924085,0,0,-0.08924085,86.654952,80.73085)">
      <path
         d="m 0,0 h -0.27 v -0.071 c 0,-0.95 -0.544,-1.79 -1.367,-2.26 -0.953,-0.546 -1.598,-1.572 -1.598,-2.744 v -0.074 -13.829 c 0,-1.739 1.423,-3.163 3.161,-3.163 H 2.635 V 0 Z"
         style="fill:#d380b3;fill-opacity:1;fill-rule:nonzero;stroke:none"
         id="path1750"
         inkscape:connector-curvature="0" />
    </g>
    <path
       d="m 87.232672,82.36746 h -0.95086 v -1.02815 h 0.95086 z"
       style="fill:#d9e7f0;fill-opacity:1;fill-rule:nonzero;stroke:none;stroke-width:0.08924086"
       id="path1752"
       inkscape:connector-curvature="0" />
    <path
       d="m 86.890082,81.57634 h -0.51046 v -0.12226 h 0.51046 z"
       style="fill:#c3ddcd;fill-opacity:1;fill-rule:nonzero;stroke:none;stroke-width:0.08924086"
       id="path1754"
       inkscape:connector-curvature="0" />
    <path
       d="m 86.890082,81.82898 h -0.51046 v -0.12226 h 0.51046 z"
       style="fill:#c3ddcd;fill-opacity:1;fill-rule:nonzero;stroke:none;stroke-width:0.08924086"
       id="path1756"
       inkscape:connector-curvature="0" />
    <path
       d="m 86.890082,82.27143 h -0.51046 v -0.34741 h 0.51046 z"
       style="fill:#3d703a;fill-opacity:1;fill-rule:nonzero;stroke:none;stroke-width:0.08924086"
       id="path1758"
       inkscape:connector-curvature="0" />
    <g
       id="g1760"
       transform="matrix(0.08924085,0,0,-0.08924085,86.890082,82.10198)">
      <path
         d="M 0,0 -5.72,1.994 H 0 Z"
         style="fill:#67b761;fill-opacity:1;fill-rule:nonzero;stroke:none"
         id="path1762"
         inkscape:connector-curvature="0" />
    </g>
    <g
       id="g1764"
       transform="matrix(0.08924085,0,0,-0.08924085,87.732382,81.21393)">
      <path
         d="M 0,0 C -1.05,0.243 -1.835,1.181 -1.835,2.303 V 4.775 H -5.521 V 2.303 C -5.521,1.181 -6.304,0.243 -7.354,0 h -0.531 c -0.776,0 -1.404,-0.628 -1.404,-1.401 v -14.024 c 0,-0.776 0.628,-1.404 1.404,-1.404 h 8.51 c 0.775,0 1.403,0.628 1.403,1.404 V -1.401 C 2.028,-0.628 1.4,0 0.625,0 Z"
         style="fill:#fbbe16;fill-opacity:1;fill-rule:nonzero;stroke:none"
         id="path1766"
         inkscape:connector-curvature="0" />
    </g>
    <g
       id="g1768"
       transform="matrix(0.08924085,0,0,-0.08924085,87.403742,80.78776)">
      <path
         d="m 0,0 h -1.838 v -2.473 c 0,-1.122 -0.783,-2.059 -1.833,-2.302 h -0.531 c -0.777,0 -1.404,-0.628 -1.404,-1.402 V -20.2 c 0,-0.777 0.627,-1.404 1.404,-1.404 H 0 Z"
         style="fill:#fddb16;fill-opacity:1;fill-rule:nonzero;stroke:none"
         id="path1770"
         inkscape:connector-curvature="0" />
    </g>
    <path
       d="m 87.622032,80.91846 h -0.45549 V 80.6577 h 0.45549 z"
       style="fill:#eaf0f1;fill-opacity:1;fill-rule:nonzero;stroke:none;stroke-width:0.08924086"
       id="path1772"
       inkscape:connector-curvature="0" />
    <path
       d="m 87.622032,80.91846 h -0.21829 v -0.25854 h 0.21829 z"
       style="fill:#80a9a2;fill-opacity:1;fill-rule:nonzero;stroke:none;stroke-width:0.08924086"
       id="path1774"
       inkscape:connector-curvature="0" />
    <path
       d="m 87.842002,82.28598 h -0.87652 v -0.87653 h 0.87652 z"
       style="fill:#eaf0f1;fill-opacity:1;fill-rule:nonzero;stroke:none;stroke-width:0.08924086"
       id="path1776"
       inkscape:connector-curvature="0" />
    <path
       d="m 87.842002,82.28598 h -0.43353 v -0.87653 h 0.43353 z"
       style="fill:#a8d9e5;fill-opacity:1;fill-rule:nonzero;stroke:none;stroke-width:0.08924086"
       id="path1778"
       inkscape:connector-curvature="0" />
    <g
       id="g1780"
       transform="matrix(0.08924085,0,0,-0.08924085,87.551292,81.59093)">
      <path
         d="M 0,0 C -0.685,0 -1.278,-0.368 -1.601,-0.919 -1.923,-0.368 -2.519,0 -3.202,0 c -1.025,0 -1.855,-0.831 -1.855,-1.855 0,-1.027 3.456,-3.872 3.456,-3.872 0,0 3.456,2.845 3.456,3.872 C 1.855,-0.831 1.023,0 0,0"
         style="fill:#e20613;fill-opacity:1;fill-rule:nonzero;stroke:none"
         id="path1782"
         inkscape:connector-curvature="0" />
    </g>
    <g
       id="g1784"
       transform="matrix(0.08924085,0,0,-0.08924085,87.408452,81.67293)">
      <path
         d="m 0,0 c -0.303,0.565 -0.951,0.919 -1.602,0.919 -1.024,0 -1.854,-0.831 -1.854,-1.856 C -3.456,-1.963 0,-4.808 0,-4.808 Z"
         style="fill:#e95362;fill-opacity:1;fill-rule:nonzero;stroke:none"
         id="path1786"
         inkscape:connector-curvature="0" />
    </g>
    <g
       id="g1788"
       transform="matrix(0.08924085,0,0,-0.08924085,88.080532,82.57825)">
      <path
         d="M 0,0 -8.374,-0.472"
         style="fill:none;stroke:#939b96;stroke-width:2;stroke-linecap:butt;stroke-linejoin:miter;stroke-miterlimit:10;stroke-dasharray:none;stroke-opacity:1"
         id="path1790"
         inkscape:connector-curvature="0" />
    </g>
    <g
       id="g1792"
       transform="matrix(0.08924085,0,0,-0.08924085,90.172212,82.30495)">
      <path
         d="m 0,0 0.195,-3.475 -22.63,-1.272 -0.197,3.472 z"
         style="fill:#d9e7f0;fill-opacity:1;fill-rule:nonzero;stroke:none"
         id="path1794"
         inkscape:connector-curvature="0" />
    </g>
    <g
       id="g1796"
       transform="matrix(0.08924085,0,0,-0.08924085,89.323982,82.35279)">
      <path
         d="m 0,0 0.194,-3.472 -13.124,-0.739 -0.197,3.472 z"
         style="fill:#e20613;fill-opacity:1;fill-rule:nonzero;stroke:none"
         id="path1798"
         inkscape:connector-curvature="0" />
    </g>
    <g
       id="g1800"
       transform="matrix(0.08924085,0,0,-0.08924085,89.214882,82.4592)">
      <path
         d="m 0,0 v 0 c 0.021,-0.354 -0.251,-0.658 -0.605,-0.678 l -4.17,-0.234 c -0.354,-0.021 -0.657,0.252 -0.679,0.605 -0.019,0.354 0.252,0.657 0.606,0.677 l 4.171,0.235 C -0.322,0.625 -0.021,0.354 0,0"
         style="fill:#e95362;fill-opacity:1;fill-rule:nonzero;stroke:none"
         id="path1802"
         inkscape:connector-curvature="0" />
    </g>
    <g
       id="g1804"
       transform="matrix(0.08924085,0,0,-0.08924085,88.170132,82.72857)">
      <path
         d="M 0,0 -0.197,3.472 -1.457,1.66 Z"
         style="fill:#e95362;fill-opacity:1;fill-rule:nonzero;stroke:none"
         id="path1806"
         inkscape:connector-curvature="0" />
    </g>
    <g
       id="g1808"
       transform="matrix(0.08924085,0,0,-0.08924085,90.228862,82.23043)">
      <path
         d="M 0,0 0.288,-5.11 -0.619,-5.161 -0.906,-0.05 Z"
         style="fill:#d9e7f0;fill-opacity:1;fill-rule:nonzero;stroke:none"
         id="path1810"
         inkscape:connector-curvature="0" />
    </g>
    <g
       id="g1812"
       transform="matrix(0.08924085,0,0,-0.08924085,90.630962,82.35627)">
      <path
         d="m 0,0 0.098,-1.729 -4.753,-0.268 -0.098,1.729 z"
         style="fill:#aeaeae;fill-opacity:1;fill-rule:nonzero;stroke:none"
         id="path1814"
         inkscape:connector-curvature="0" />
    </g>
    <g
       id="g1816"
       transform="matrix(0.08924085,0,0,-0.08924085,89.328252,82.42957)">
      <path
         d="m 0,0 0.098,-1.73 9.844,0.554 -0.097,1.73 z"
         style="fill:#babbba;fill-opacity:1;fill-rule:nonzero;stroke:none"
         id="path1818"
         inkscape:connector-curvature="0" />
    </g>
    <g
       id="g1820"
       transform="matrix(0.08924085,0,0,-0.08924085,89.323982,82.35279)">
      <path
         d="M 0,0 0.194,-3.472 1.322,-3.409 1.125,0.064 Z"
         style="fill:#babbba;fill-opacity:1;fill-rule:nonzero;stroke:none"
         id="path1822"
         inkscape:connector-curvature="0" />
    </g>
    <g
       id="g1824"
       transform="matrix(0.08924085,0,0,-0.08924085,90.627052,82.28664)">
      <path
         d="m 0,0 0.177,-3.141 -1.175,-0.066 -0.176,3.142 z"
         style="fill:#aeaeae;fill-opacity:1;fill-rule:nonzero;stroke:none"
         id="path1826"
         inkscape:connector-curvature="0" />
    </g>
    <text
       y="89.953941"
       x="77.97261"
       style="font-variant:normal;font-weight:bold;font-stretch:normal;font-size:1.4954803px;font-family:Verdana;-inkscape-font-specification:Verdana-Bold;writing-mode:lr-tb;fill:#4d4d4d;fill-opacity:1;fill-rule:nonzero;stroke:none;stroke-width:0.08924086"
       id="text1830">
      <tspan
         style="stroke-width:0.08924086"
         x="77.97261 79.224335 80.250992 80.853653 81.852646 82.364105 83.180634 84.245407 84.876511 85.903152 86.646393 88.228622 89.2276 89.909546 90.42099 91.393051"
         y="89.953941"
         sodipodi:role="line"
         id="tspan1828">Hoja Informativa</tspan>
    </text>
    <g
       id="g6869"
       transform="matrix(0.13331682,0,0,0.1333169,99.486392,59.88155)"
       style="stroke-width:1.28523135">
      <path
         inkscape:connector-curvature="0"
         id="path6859"
         style="fill:none;stroke:#f97ca9;stroke-width:2.26700521;stroke-linecap:butt;stroke-linejoin:miter;stroke-miterlimit:10;stroke-dasharray:none;stroke-opacity:1"
         d="m -96.23788,308.38552 c 0,6.81955 -5.52909,12.35004 -12.34793,12.35004 -6.82201,0 -12.35145,-5.53049 -12.35145,-12.35004 0,-6.82025 5.52944,-12.35005 12.35145,-12.35005 6.81884,0 12.34793,5.5298 12.34793,12.35005 z" />
      <path
         inkscape:connector-curvature="0"
         id="path6861"
         style="fill:#4d4d4d;fill-opacity:1;fill-rule:evenodd;stroke:none;stroke-width:0.45340109"
         d="m -110.46131,302.33213 v 0.44274 c 0,1.32786 7e-4,2.65465 0,3.9811 -0.001,0.60325 -0.13829,0.73589 -0.75565,0.7366 -0.31115,0 -0.62442,0 -1.02235,0 1.25659,1.39135 2.44086,2.70439 3.63713,4.03013 1.21356,-1.34867 2.39043,-2.655 3.62868,-4.03013 -0.41452,0 -0.74437,0 -1.07315,0 -0.54399,0 -0.7112,-0.16651 -0.7112,-0.71226 -0.003,-1.3402 -0.002,-2.68111 -0.002,-4.0199 v -0.42828 z m -1.00613,4.1529 v -4.22169 c 0,-0.14076 -0.007,-0.28222 0.002,-0.42368 0.0279,-0.33408 0.21449,-0.52846 0.54645,-0.52952 1.54693,-0.006 3.09351,-0.009 4.63974,0 0.3556,0.004 0.52951,0.22542 0.53198,0.61877 0.002,1.36631 0.001,2.73191 0.001,4.09892 v 0.45474 c 0.60254,0 1.16628,0.005 1.73002,-0.004 0.27234,-0.004 0.57361,0.0159 0.62794,0.31291 0.0353,0.20144 -0.0529,0.49107 -0.19015,0.6477 -1.49613,1.68698 -3.01025,3.35915 -4.5219,5.03097 -0.37536,0.41557 -0.62195,0.42439 -0.9906,0.0197 -1.51553,-1.67111 -3.02331,-3.3468 -4.53425,-5.02144 -0.17639,-0.19614 -0.34326,-0.39687 -0.20849,-0.68756 0.13299,-0.28328 0.3817,-0.30445 0.65228,-0.30057 0.55351,0.008 1.10631,0.004 1.71344,0.004" />
      <path
         inkscape:connector-curvature="0"
         id="path6863"
         style="fill:#f97ca9;fill-opacity:1;stroke:#f97ca9;stroke-width:0.22670054;stroke-linecap:butt;stroke-linejoin:miter;stroke-miterlimit:10;stroke-dasharray:none;stroke-opacity:1"
         d="m -110.46131,302.33213 v 0.44274 c 0,1.32786 7e-4,2.65465 0,3.9811 -0.001,0.60325 -0.13829,0.73589 -0.75565,0.7366 -0.31115,0 -0.62442,0 -1.02235,0 1.25659,1.39135 2.44086,2.70439 3.63713,4.03013 1.21356,-1.34867 2.39043,-2.655 3.62868,-4.03013 -0.41452,0 -0.74437,0 -1.07315,0 -0.54399,0 -0.7112,-0.16651 -0.7112,-0.71226 -0.003,-1.3402 -0.002,-2.68111 -0.002,-4.0199 v -0.42828 z m -1.00613,4.1529 v -4.22169 c 0,-0.14076 -0.007,-0.28222 0.002,-0.42368 0.0279,-0.33408 0.21449,-0.52846 0.54645,-0.52952 1.54693,-0.006 3.09351,-0.009 4.63974,0 0.3556,0.004 0.52951,0.22542 0.53198,0.61877 0.002,1.36631 0.001,2.73191 0.001,4.09892 v 0.45474 c 0.60254,0 1.16628,0.005 1.73002,-0.004 0.27234,-0.004 0.57361,0.0159 0.62794,0.31291 0.0353,0.20144 -0.0529,0.49107 -0.19015,0.6477 -1.49613,1.68698 -3.01025,3.35915 -4.5219,5.03097 -0.37536,0.41557 -0.62195,0.42439 -0.9906,0.0197 -1.51553,-1.67111 -3.02331,-3.3468 -4.53425,-5.02144 -0.17639,-0.19614 -0.34326,-0.39687 -0.20849,-0.68756 0.13299,-0.28328 0.3817,-0.30445 0.65228,-0.30057 0.55351,0.008 1.10631,0.004 1.71344,0.004 z" />
      <path
         inkscape:connector-curvature="0"
         id="path6865"
         style="fill:#4d4d4d;fill-opacity:1;fill-rule:evenodd;stroke:none;stroke-width:0.45340109"
         d="m -108.61234,314.97876 c -1.48237,0 -2.96545,0 -4.44782,0 -1.44956,0 -2.37031,-0.9204 -2.37137,-2.36114 0,-0.37289 -0.005,-0.74789 10e-4,-1.12184 0.004,-0.31926 0.16439,-0.51787 0.49036,-0.52211 0.32844,-0.006 0.49812,0.19897 0.51364,0.50765 0.0173,0.3743 0.004,0.74824 0.006,1.12113 0.002,0.89782 0.48013,1.37654 1.39065,1.37724 2.24331,0.004 4.48592,0 6.72959,0 0.72284,0 1.44427,0.005 2.16535,0 0.8583,-0.008 1.3402,-0.49459 1.3469,-1.3462 0.002,-0.35983 -0.007,-0.72037 0.003,-1.08126 0.0113,-0.37888 0.21379,-0.6029 0.52388,-0.57997 0.35278,0.024 0.4833,0.24377 0.47872,0.57644 -0.005,0.375 0.002,0.74718 -7.1e-4,1.12183 -0.0116,1.39524 -0.93274,2.30541 -2.34138,2.30752 -1.49578,0.005 -2.99015,0.004 -4.48734,0.004" />
      <path
         inkscape:connector-curvature="0"
         id="path6867"
         style="fill:#f97ca9;fill-opacity:1;stroke:#f97ca9;stroke-width:0.22670054;stroke-linecap:butt;stroke-linejoin:miter;stroke-miterlimit:10;stroke-dasharray:none;stroke-opacity:1"
         d="m -108.61234,314.97876 c -1.48237,0 -2.96545,0 -4.44782,0 -1.44956,0 -2.37031,-0.9204 -2.37137,-2.36114 0,-0.37289 -0.005,-0.74789 10e-4,-1.12184 0.004,-0.31926 0.16439,-0.51787 0.49036,-0.52211 0.32844,-0.006 0.49812,0.19897 0.51364,0.50765 0.0173,0.3743 0.004,0.74824 0.006,1.12113 0.002,0.89782 0.48013,1.37654 1.39065,1.37724 2.24331,0.004 4.48592,0 6.72959,0 0.72284,0 1.44427,0.005 2.16535,0 0.8583,-0.008 1.3402,-0.49459 1.3469,-1.3462 0.002,-0.35983 -0.007,-0.72037 0.003,-1.08126 0.0113,-0.37888 0.21379,-0.6029 0.52388,-0.57997 0.35278,0.024 0.4833,0.24377 0.47872,0.57644 -0.005,0.375 0.002,0.74718 -7.1e-4,1.12183 -0.0116,1.39524 -0.93274,2.30541 -2.34138,2.30752 -1.49578,0.005 -2.99015,0.004 -4.48734,0.004 z" />
    </g>
  </g>
</svg>
