<?xml version="1.0" encoding="UTF-8" standalone="no"?>
<!-- Created with Inkscape (http://www.inkscape.org/) -->

<svg
   xmlns:dc="http://purl.org/dc/elements/1.1/"
   xmlns:cc="http://creativecommons.org/ns#"
   xmlns:rdf="http://www.w3.org/1999/02/22-rdf-syntax-ns#"
   xmlns:svg="http://www.w3.org/2000/svg"
   xmlns="http://www.w3.org/2000/svg"
   xmlns:sodipodi="http://sodipodi.sourceforge.net/DTD/sodipodi-0.dtd"
   xmlns:inkscape="http://www.inkscape.org/namespaces/inkscape"
   width="52.916668mm"
   height="73.407776mm"
   viewBox="0 0 52.916668 73.407776"
   version="1.1"
   id="svg168"
   inkscape:version="0.92.5 (2060ec1f9f, 2020-04-08)"
   sodipodi:docname="descarga-herramientas-1.2-subtipos.svg">
  <defs
     id="defs162">
    <clipPath
       clipPathUnits="userSpaceOnUse"
       id="clipPath4164-3">
      <path
         d="M 142,876 H 377 V 550 H 142 Z"
         id="path4162-6"
         inkscape:connector-curvature="0" />
    </clipPath>
  </defs>
  <sodipodi:namedview
     id="base"
     pagecolor="#ffffff"
     bordercolor="#666666"
     borderopacity="1.0"
     inkscape:pageopacity="0.0"
     inkscape:pageshadow="2"
     inkscape:zoom="0.88730469"
     inkscape:cx="155.05617"
     inkscape:cy="30.03847"
     inkscape:document-units="mm"
     inkscape:current-layer="layer1"
     showgrid="false"
     inkscape:window-width="1440"
     inkscape:window-height="825"
     inkscape:window-x="0"
     inkscape:window-y="0"
     inkscape:window-maximized="1"
     fit-margin-top="0"
     fit-margin-left="0"
     fit-margin-right="0"
     fit-margin-bottom="0" />
  <metadata
     id="metadata165">
    <rdf:RDF>
      <cc:Work
         rdf:about="">
        <dc:format>image/svg+xml</dc:format>
        <dc:type
           rdf:resource="http://purl.org/dc/dcmitype/StillImage" />
        <dc:title></dc:title>
      </cc:Work>
    </rdf:RDF>
  </metadata>
  <g
     inkscape:label="Capa 1"
     inkscape:groupmode="layer"
     id="layer1"
     transform="translate(-64.808056,-83.373239)">
    <g
       transform="matrix(3.0259829,0,0,3.0259829,-49.303727,-361.68061)"
       id="g359"
       style="stroke-width:0.08743716">
      <path
         inkscape:connector-curvature="0"
         id="path76"
         style="fill:#ffffff;fill-opacity:1;fill-rule:nonzero;stroke:none;stroke-width:0.03084588"
         d="M 55.19808,171.2622 H 37.710651 V 147.07745 H 55.19808 Z" />
      <g
         style="stroke-width:0.41451409"
         id="g4158"
         transform="matrix(0.0744146,0,0,-0.0744146,27.143777,212.26463)">
        <g
           style="stroke-width:0.41451409"
           id="g4160" />
        <g
           style="stroke-width:0.41451409"
           id="g4172">
          <g
             style="opacity:0.80000299;stroke-width:0.41451409"
             id="g4170"
             clip-path="url(#clipPath4164-3)">
            <g
               style="stroke-width:0.41451409"
               id="g4168"
               transform="translate(377,573.7607)">
              <path
                 inkscape:connector-curvature="0"
                 id="path4166"
                 style="fill:#9f4496;fill-opacity:1;fill-rule:nonzero;stroke:none;stroke-width:0.41451409"
                 d="m 0,0 c 0,-12.731 -2.1,-23.761 -5.6,-23.761 h -222.739 c -3.498,0 -6.661,11.03 -6.661,23.761 v 280.313 c 0,12.732 3.163,21.926 6.661,21.926 H -5.6 c 3.5,0 5.6,-9.194 5.6,-21.926 z" />
            </g>
          </g>
        </g>
      </g>
      <g
         style="stroke-width:0.41451409"
         transform="matrix(0.0744146,0,0,-0.0744146,44.912583,162.5017)"
         id="g4174">
        <path
           inkscape:connector-curvature="0"
           id="path4176"
           style="fill:#ffffff;fill-opacity:1;fill-rule:nonzero;stroke:none;stroke-width:0.41451409"
           d="m 0,0 c -4.91,0 -8.885,3.979 -8.885,8.886 0,4.907 3.975,8.885 8.885,8.885 4.906,0 8.884,-3.978 8.884,-8.885 C 8.884,3.979 4.906,0 0,0 m -0.381,25.324 c -8.875,0 -16.067,-7.194 -16.067,-16.067 0,-8.875 7.192,-16.068 16.067,-16.068 8.871,0 16.067,7.193 16.067,16.068 0,8.873 -7.196,16.067 -16.067,16.067" />
      </g>
      <g
         style="stroke-width:0.41451409"
         transform="matrix(0.0744146,0,0,-0.0744146,46.538584,156.97102)"
         id="g4178">
        <path
           inkscape:connector-curvature="0"
           id="path4180"
           style="fill:#ffffff;fill-opacity:1;fill-rule:nonzero;stroke:none;stroke-width:0.41451409"
           d="m 0,0 c -0.023,-0.021 -0.042,-0.042 -0.064,-0.062 -6.063,2.047 -12.541,3.181 -19.288,3.181 -33.377,0 -60.531,-27.154 -60.531,-60.531 0,-33.377 27.154,-60.531 60.531,-60.531 33.374,0 60.531,27.154 60.531,60.531 0,0.396 -0.017,0.788 -0.027,1.183 l -9.215,4.163 c 0.184,-1.758 0.278,-3.54 0.278,-5.346 0,-28.435 -23.132,-51.568 -51.567,-51.568 -28.437,0 -51.568,23.133 -51.568,51.568 0,28.434 23.131,51.568 51.568,51.568 9.067,0 17.593,-2.361 25.002,-6.488 z" />
      </g>
      <g
         style="stroke-width:0.41451409"
         transform="matrix(0.0744146,0,0,-0.0744146,48.118882,158.96674)"
         id="g4182">
        <path
           inkscape:connector-curvature="0"
           id="path4184"
           style="fill:#ffffff;fill-opacity:1;fill-rule:evenodd;stroke:none;stroke-width:0.41451409"
           d="m 0,0 c 1.363,-1.534 2.549,-3.296 4.132,-4.556 3.752,-2.986 7.981,-3.277 12.146,-0.99 4.359,2.391 6.378,6.25 5.89,11.254 -0.474,4.844 -3.921,7.464 -7.604,9.87 L 5.806,14.588 C 2.893,12.746 0.879,10.19 -0.249,6.934 Z m 47.532,7.507 c 1.794,-4.624 5.772,-6.396 10.124,-7.434 1.969,-0.468 4.081,-0.297 4.969,-2.647 -2.104,-5.19 -2.533,-10.476 -1.737,-16.063 0.876,-6.142 1.421,-12.393 0.106,-18.568 -1.435,-6.744 -5.164,-7.868 -10.221,-3.204 -17.277,15.931 -33.648,17.506 -54.081,5.22 -1.286,-0.774 -2.585,-1.577 -3.972,-2.137 -4.852,-1.958 -8.268,0.143 -8.523,5.411 -0.231,4.743 0.945,9.332 2.17,13.883 l 1.38,5.668 c -0.178,1.699 -0.471,3.346 -1.585,4.744 -5.361,6.726 -6.774,14.674 -6.365,22.897 0.368,7.414 -2.781,12.444 -8.557,16.621 -3.054,2.208 -7.124,4.903 -2.15,9.293 l 12.929,2.768 c 4.925,-0.051 8.834,1.719 12.585,5.157 7.018,6.43 15.616,9.853 25.213,9.962 10.453,0.117 19.492,3.285 27.244,10.49 4.802,4.462 9.059,2.832 10.373,-3.641 0.833,-4.102 0.458,-8.282 0.056,-12.405 C 56.717,45.531 58.732,38.598 64.724,33.033 63.085,31.193 60.86,32.13 58.903,31.801 53.94,30.968 46.092,28.203 44.994,19.051 44.115,11.727 47.532,7.507 47.532,7.507 m -31.79,22.152 3.536,3.217 c 1.926,3.158 2.039,6.237 -0.313,9.268 -2.478,3.19 -5.765,2.736 -9.111,2.114 L 5.582,38.467 c 0.087,-6.009 3.67,-8.258 9.134,-8.479" />
      </g>
      <g
         style="stroke-width:0.41451409"
         transform="matrix(0.0744146,0,0,-0.0744146,46.042828,157.54904)"
         id="g4186">
        <path
           inkscape:connector-curvature="0"
           id="path4188"
           style="fill:#ffffff;fill-opacity:1;fill-rule:evenodd;stroke:none;stroke-width:0.41451409"
           d="m 0,0 c -0.431,-9.038 -0.433,-17.244 3.919,-25.725 -6.56,1.422 -11.9,2.775 -16.451,6.091 -5.598,4.078 -5.375,9.3 0.36,13.107 0.47,0.31 0.967,0.577 1.464,0.842 C -7.428,-3.938 -4.145,-2.198 0,0" />
      </g>
      <g
         style="stroke-width:0.41451409"
         transform="matrix(0.0744146,0,0,-0.0744146,49.091936,154.03341)"
         id="g4190">
        <path
           inkscape:connector-curvature="0"
           id="path4192"
           style="fill:#ffffff;fill-opacity:1;fill-rule:evenodd;stroke:none;stroke-width:0.41451409"
           d="m 0,0 c -7.724,-1.941 -14.201,-5.021 -20.788,-9.39 -0.048,4.924 -0.768,8.922 -1.423,12.938 -0.971,5.961 2.291,8.482 7.985,6.219 C -8.982,7.684 -4.66,4.191 0,0" />
      </g>
      <g
         style="stroke-width:0.41451409"
         transform="matrix(0.0744146,0,0,-0.0744146,53.024577,159.78708)"
         id="g4194">
        <path
           inkscape:connector-curvature="0"
           id="path4196"
           style="fill:#ffffff;fill-opacity:1;fill-rule:evenodd;stroke:none;stroke-width:0.41451409"
           d="M 0,0 C 0.03,3.246 6.751,12.02 9.161,11.959 10.79,11.919 17.448,1.61 17.337,-1.086 17.229,-3.656 16.312,-5.972 13.219,-6.163 8.396,-6.462 -0.022,-2.46 0,0" />
      </g>
      <g
         style="stroke-width:0.41451409"
         transform="matrix(0.0744146,0,0,-0.0744146,54.199805,155.63323)"
         id="g4198">
        <path
           inkscape:connector-curvature="0"
           id="path4200"
           style="fill:#ffffff;fill-opacity:1;fill-rule:evenodd;stroke:none;stroke-width:0.41451409"
           d="m 0,0 c -0.037,-1.94 -7.212,-10.686 -8.85,-10.36 -2.541,0.506 -3.819,2.893 -5.285,4.783 -1.981,2.555 -4.39,5.855 -3.366,8.637 1.064,2.887 5.316,1.955 8.194,2.301 C -3.19,6.098 0.078,4.044 0,0" />
      </g>
      <g
         style="stroke-width:0.41451409"
         transform="matrix(0.0744146,0,0,-0.0744146,49.472441,161.61904)"
         id="g4202">
        <path
           inkscape:connector-curvature="0"
           id="path4204"
           style="fill:#ffffff;fill-opacity:1;fill-rule:evenodd;stroke:none;stroke-width:0.41451409"
           d="m 0,0 c 3.644,1.457 7.074,1.173 10.368,0.62 2.313,-0.388 6.012,0.309 6.14,-3.341 0.124,-3.474 -0.078,-7.464 -4.217,-9.089 C 8.803,-13.18 6.497,-11.098 4.782,-8.4 3.085,-5.728 1.635,-2.896 0,0" />
      </g>
      <g
         style="stroke-width:0.41451409"
         transform="matrix(0.0744146,0,0,-0.0744146,52.238714,158.19022)"
         id="g4206">
        <path
           inkscape:connector-curvature="0"
           id="path4208"
           style="fill:#ffffff;fill-opacity:1;fill-rule:evenodd;stroke:none;stroke-width:0.41451409"
           d="m 0,0 c 3.232,-3.227 7.004,-4.032 11.204,-2.211 4.332,1.88 5.523,5.535 4.608,9.758 -0.99,4.569 -4.416,5.74 -8.833,6.153 C 1.792,14.185 -1.852,11.325 -2.82,7.574 -3.327,5.618 0,0 0,0" />
      </g>
    </g>
  </g>
</svg>
