<?xml version="1.0" encoding="UTF-8" standalone="no"?>
<!-- Created with Inkscape (http://www.inkscape.org/) -->

<svg
   xmlns:dc="http://purl.org/dc/elements/1.1/"
   xmlns:cc="http://creativecommons.org/ns#"
   xmlns:rdf="http://www.w3.org/1999/02/22-rdf-syntax-ns#"
   xmlns:svg="http://www.w3.org/2000/svg"
   xmlns="http://www.w3.org/2000/svg"
   xmlns:sodipodi="http://sodipodi.sourceforge.net/DTD/sodipodi-0.dtd"
   xmlns:inkscape="http://www.inkscape.org/namespaces/inkscape"
   width="35.95554mm"
   height="53.156265mm"
   viewBox="0 0 35.95554 53.156265"
   version="1.1"
   id="svg377"
   inkscape:version="0.92.5 (2060ec1f9f, 2020-04-08)"
   sodipodi:docname="afrontar-nauseas.svg">
  <defs
     id="defs371">
    <clipPath
       clipPathUnits="userSpaceOnUse"
       id="clipPath1442-3">
      <path
         d="m 416.093,2133.15 c -32.419,-0.142 -39.393,-15.69 -44.704,-31.095 v 0 c -5.315,-15.411 -4.784,-47.283 3.185,-62.69 v 0 c 7.968,-15.406 22.847,-28.157 40.376,-28.157 v 0 c 17.532,0 32.41,12.751 40.378,28.157 v 0 c 7.969,15.407 8.5,47.279 3.186,62.69 v 0 c -5.294,15.347 -14.246,31.095 -42.104,31.096 v 0 c -0.106,0 -0.21,0 -0.317,-10e-4"
         id="path1440-6"
         inkscape:connector-curvature="0" />
    </clipPath>
    <radialGradient
       fx="0"
       fy="0"
       cx="0"
       cy="0"
       r="1"
       gradientUnits="userSpaceOnUse"
       gradientTransform="matrix(95.636223,0,0,-95.636223,414.7041,2088.0757)"
       spreadMethod="pad"
       id="radialGradient1454">
      <stop
         style="stop-opacity:1;stop-color:#f78d7b"
         offset="0"
         id="stop1448" />
      <stop
         style="stop-opacity:1;stop-color:#f78d7b"
         offset="0.272727"
         id="stop1450" />
      <stop
         style="stop-opacity:1;stop-color:#5fc44e"
         offset="1"
         id="stop1452" />
    </radialGradient>
  </defs>
  <sodipodi:namedview
     id="base"
     pagecolor="#ffffff"
     bordercolor="#666666"
     borderopacity="1.0"
     inkscape:pageopacity="0.0"
     inkscape:pageshadow="2"
     inkscape:zoom="1.7253906"
     inkscape:cx="15.483297"
     inkscape:cy="98.164291"
     inkscape:document-units="mm"
     inkscape:current-layer="layer1"
     showgrid="false"
     fit-margin-top="0"
     fit-margin-left="0"
     fit-margin-right="0"
     fit-margin-bottom="0"
     inkscape:window-width="1440"
     inkscape:window-height="825"
     inkscape:window-x="0"
     inkscape:window-y="0"
     inkscape:window-maximized="1" />
  <metadata
     id="metadata374">
    <rdf:RDF>
      <cc:Work
         rdf:about="">
        <dc:format>image/svg+xml</dc:format>
        <dc:type
           rdf:resource="http://purl.org/dc/dcmitype/StillImage" />
        <dc:title></dc:title>
      </cc:Work>
    </rdf:RDF>
  </metadata>
  <g
     inkscape:label="Capa 1"
     inkscape:groupmode="layer"
     id="layer1"
     transform="translate(-74.337073,-92.079409)">
    <g
       transform="matrix(0.1636845,0,0,-0.1636845,26.471229,441.36267)"
       id="g8326">
      <g
         id="g1436">
        <g
           clip-path="url(#clipPath1442-3)"
           id="g1438">
          <g
             id="g1444">
            <g
               id="g1446">
              <path
                 inkscape:connector-curvature="0"
                 id="path1456"
                 style="fill:url(#radialGradient1454);stroke:none"
                 d="m 416.093,2133.15 c -32.419,-0.142 -39.393,-15.69 -44.704,-31.095 v 0 c -5.315,-15.411 -4.784,-47.283 3.185,-62.69 v 0 c 7.968,-15.406 22.847,-28.157 40.376,-28.157 v 0 c 17.532,0 32.41,12.751 40.378,28.157 v 0 c 7.969,15.407 8.5,47.279 3.186,62.69 v 0 c -5.294,15.347 -14.246,31.095 -42.104,31.096 v 0 c -0.106,0 -0.21,0 -0.317,-10e-4" />
            </g>
          </g>
        </g>
      </g>
      <g
         transform="translate(415.8379,2133.8804)"
         id="g1466">
        <path
           inkscape:connector-curvature="0"
           id="path1468"
           style="fill:#d164b9;fill-opacity:1;fill-rule:nonzero;stroke:none"
           d="m 0,0 c -27.468,-0.118 -36.654,-11.306 -42.054,-24.087 -1.934,5.658 -3.691,11.189 -8.183,15.519 -5.722,5.517 -15.016,4.703 -22.27,5.745 -3.049,0.439 -5.465,-3.688 -2.265,-5.371 3.887,-2.047 4.734,-6.43 5.784,-10.346 1.083,-4.024 2.329,-7.606 4.845,-10.973 -8.366,-1.87 -16.583,-6.141 -24.623,-9.073 -2.19,-0.801 -3.171,-4.139 -0.703,-5.372 7.458,-3.732 17.12,-4.456 25.353,-4.268 8.186,0.186 11.746,8.732 19.043,10.83 0.33,0.095 0.568,0.261 0.815,0.423 5.207,-6.679 30.433,-0.859 44.399,-4.293 21.554,-5.294 42.28,10.171 42.28,10.171 C 37.107,-15.686 28.109,0.122 0,0" />
      </g>
      <g
         transform="translate(395.7036,2067.7197)"
         id="g1470">
        <path
           inkscape:connector-curvature="0"
           id="path1472"
           style="fill:#2d1322;fill-opacity:1;fill-rule:nonzero;stroke:none"
           d="m 0,0 c 0,-3.502 -2.239,-6.341 -5,-6.341 -2.765,0 -5.003,2.839 -5.003,6.341 0,3.502 2.238,6.342 5.003,6.342 2.761,0 5,-2.84 5,-6.342" />
      </g>
      <g
         transform="translate(444.2012,2067.7197)"
         id="g1474">
        <path
           inkscape:connector-curvature="0"
           id="path1476"
           style="fill:#2d1322;fill-opacity:1;fill-rule:nonzero;stroke:none"
           d="m 0,0 c 0,-3.502 -2.238,-6.341 -5.003,-6.341 -2.761,0 -5,2.839 -5,6.341 0,3.502 2.239,6.342 5,6.342 C -2.238,6.342 0,3.502 0,0" />
      </g>
      <g
         transform="translate(414.9507,2041.2827)"
         id="g1478">
        <path
           inkscape:connector-curvature="0"
           id="path1480"
           style="fill:#db5558;fill-opacity:1;fill-rule:nonzero;stroke:none"
           d="M 0,0 C 10.024,0 13.593,-6.96 13.738,-7.26 14.138,-8.063 7.94,-15.469 0,-15.469 c -8.037,0 -14.14,7.406 -13.741,8.209 C -13.595,-6.96 -10.033,0 0,0" />
      </g>
      <g
         transform="translate(425.7471,2034.6133)"
         id="g1482">
        <path
           inkscape:connector-curvature="0"
           id="path1484"
           style="fill:#ffffff;fill-opacity:1;fill-rule:nonzero;stroke:none"
           d="m 0,0 v 2.956 c -2.15,1.84 -5.601,3.713 -10.796,3.713 -4.987,0 -8.371,-1.72 -10.535,-3.485 V 0 Z" />
      </g>
      <g
         transform="translate(414.9507,2051.2197)"
         id="g1486">
        <path
           inkscape:connector-curvature="0"
           id="path1488"
           style="fill:#e56366;fill-opacity:1;fill-rule:nonzero;stroke:none"
           d="m 0,0 c -2.728,0 -4.948,1.189 -5.712,2.798 -0.176,-0.37 -0.356,-0.739 -0.356,-1.144 0,-2.179 2.715,-3.946 6.068,-3.946 3.35,0 6.066,1.767 6.066,3.946 0,0.405 -0.181,0.774 -0.356,1.144 C 4.947,1.189 2.724,0 0,0" />
      </g>
      <g
         transform="translate(488.7124,1977.3276)"
         id="g1490">
        <path
           inkscape:connector-curvature="0"
           id="path1492"
           style="fill:#78d2df;fill-opacity:1;fill-rule:nonzero;stroke:none"
           d="m 0,0 c -21.963,9.371 -33.418,11.688 -46.873,12.535 -2.351,-5.469 -13.475,-9.621 -26.889,-9.621 -13.416,0 -24.54,4.152 -26.891,9.621 -13.454,-0.847 -36.168,-6.632 -47.952,-15.577 0,0 23.019,-80.004 24.463,-106.987 0.752,-14.051 0.31,-48.821 -0.307,-58.165 h 101.372 c -0.616,9.344 -1.058,44.114 -0.307,58.165 C -21.939,-83.046 0,0 0,0" />
      </g>
      <g
         transform="translate(488.7124,1977.3276)"
         id="g1494">
        <path
           inkscape:connector-curvature="0"
           id="path1496"
           style="fill:#4dc2d3;fill-opacity:1;fill-rule:nonzero;stroke:none"
           d="m 0,0 c -21.963,9.371 -33.418,11.688 -46.873,12.535 -2.351,-5.469 -13.475,-9.621 -26.889,-9.621 -13.416,0 -24.54,4.152 -26.891,9.621 -13.454,-0.847 -36.168,-6.632 -47.952,-15.577 0,0 23.019,-80.004 24.463,-106.987 0.752,-14.051 0.31,-48.821 -0.307,-58.165 h 101.372 c -0.616,9.344 -1.058,44.114 -0.307,58.165 C -21.939,-83.046 0,0 0,0" />
      </g>
      <g
         transform="translate(465.3286,1867.2988)"
         id="g1498">
        <path
           inkscape:connector-curvature="0"
           id="path1500"
           style="fill:#4dc2d3;fill-opacity:1;fill-rule:nonzero;stroke:none"
           d="M 0,0 C 1.25,23.312 17.792,88.458 22.27,105.757 17.669,103.83 13.409,101.471 9.694,96.788 4.002,89.613 -0.28,81.301 -4.05,72.982 -7.888,64.507 -9.588,55.27 -14.002,47.031 c -4.166,-7.77 -6.508,-15.894 -5.904,-24.788 1.302,-19.249 9.035,-37.453 8.591,-56.898 -0.135,-5.842 -0.635,-17.814 -1.427,-23.511 H 0.307 C -0.31,-48.821 -0.751,-14.051 0,0" />
      </g>
      <g
         transform="translate(384.9478,2076.4136)"
         id="g1502">
        <path
           inkscape:connector-curvature="0"
           id="path1504"
           style="fill:#2d1c3b;fill-opacity:1;fill-rule:nonzero;stroke:none"
           d="M 0,0 C -0.304,-0.02 -0.614,0.08 -0.855,0.301 -1.326,0.733 -1.358,1.463 -0.923,1.934 -0.863,2 5.408,8.664 14.327,4.221 14.898,3.937 15.131,3.244 14.846,2.673 14.565,2.098 13.871,1.868 13.299,2.158 5.911,5.837 0.821,0.427 0.775,0.372 0.565,0.142 0.285,0.018 0,0" />
      </g>
      <g
         transform="translate(446.3252,2077.02)"
         id="g1506">
        <path
           inkscape:connector-curvature="0"
           id="path1508"
           style="fill:#2d1c3b;fill-opacity:1;fill-rule:nonzero;stroke:none"
           d="m 0,0 c -0.283,0.007 -0.564,0.118 -0.783,0.336 -0.215,0.218 -5.411,5.237 -12.591,1.303 -0.553,-0.311 -1.256,-0.104 -1.564,0.457 -0.307,0.558 -0.1,1.258 0.457,1.567 C -5.754,8.442 0.787,2.03 0.851,1.964 1.298,1.514 1.295,0.788 0.848,0.336 0.615,0.104 0.308,-0.009 0,0" />
      </g>
      <g
         transform="translate(402.5562,2017.5425)"
         id="g1510">
        <path
           inkscape:connector-curvature="0"
           id="path1512"
           style="fill:#f79973;fill-opacity:1;fill-rule:nonzero;stroke:none"
           d="m 0,0 c 0.158,0.018 0.328,0.018 0.512,-0.004 2.207,-0.279 2.232,-11.788 2.875,-10.967 0.479,0.608 -1.934,10.199 0.514,17.22 0.511,1.467 2.058,4.085 3.78,3.266 C 9.294,8.75 9.384,6.976 9.323,5.57 9.257,4.032 8.365,-1.551 8.37,-1.403 c 0.018,0.547 0.204,-6.824 0.204,-6.824 0.364,0.205 0.31,2.729 0.327,3.453 0.027,1.141 0.08,2.232 0.19,3.376 0.212,2.208 0.468,4.384 0.884,6.522 0.414,2.113 0.907,4.363 2.015,6.259 1.705,2.917 7.045,4.106 6.361,-0.093 -0.474,-2.905 -1.8,-5.414 -2.592,-10.27 -0.158,-0.957 -1.73,-7.821 -1.496,-7.746 0.233,0.071 1.114,4.44 1.355,5.455 0.488,2.05 1.812,6.539 4.453,9.775 1.846,2.259 5.539,-0.016 4.946,-2.367 -0.491,-1.931 -1.376,-3.777 -2.222,-5.556 -1.567,-3.31 -1.86,-6.927 -1.76,-10.539 0.11,-3.925 1.16,-6.816 4.375,-8.715 3.442,-2.026 4.079,-0.157 4.317,4.062 0.138,2.471 -1.099,6.153 0.115,8.593 1.533,3.091 5.73,-0.465 5.951,-3.667 0.275,-4.003 1.119,-7.117 0.844,-9.971 -0.606,-6.245 -2.242,-10.765 -2.312,-17.123 -0.025,-2.084 0.39,-3.675 1.088,-5.25 0.065,-0.148 0.566,-1.276 1.367,-3.058 -2.116,-4.83 -5.569,-9.351 -9.111,-13.373 -2.326,6.318 -4.421,11.977 -6.124,16.13 -0.822,0.432 -0.906,2.241 -1.555,2.998 -1.888,2.199 -3.898,3.049 -6.458,4.274 -5.084,2.434 -7.895,6.301 -10.286,11.084 -1.731,3.46 -2.58,6.04 -3.786,10.63 C -1.794,-8.576 -3.069,-0.356 0,0" />
      </g>
      <g
         transform="translate(441.041,1985.4824)"
         id="g1514">
        <path
           inkscape:connector-curvature="0"
           id="path1516"
           style="fill:#78d2df;fill-opacity:1;fill-rule:nonzero;stroke:none"
           d="m 0,0 c 30.858,-52.989 39.744,-84.148 39.744,-84.148 -5.197,14.6 -19.42,83.946 7.927,78.885 10.09,-1.865 16.245,-16.507 17.556,-23.865 18.131,-101.689 -9.07,-123.414 -40.445,-88.073 -8.873,9.993 -40.064,91.524 -47.907,104.711 0,0 16.089,11.322 23.125,12.49" />
      </g>
      <g
         transform="translate(451.3242,1880.2808)"
         id="g1518">
        <path
           inkscape:connector-curvature="0"
           id="path1520"
           style="fill:#ffffff;fill-opacity:1;fill-rule:nonzero;stroke:none"
           d="m 0,0 c 0,-20.387 -16.527,-36.914 -36.913,-36.914 -20.386,0 -36.915,16.527 -36.915,36.914 0,20.386 16.529,36.911 36.915,36.911 C -16.527,36.911 0,20.386 0,0" />
      </g>
      <g
         transform="translate(451.332,1880.2813)"
         id="g1522">
        <path
           inkscape:connector-curvature="0"
           id="path1524"
           style="fill:#5fc44f;fill-opacity:1;fill-rule:nonzero;stroke:none"
           d="m 0,0 c 0.896,-5.534 -1.875,-12.695 -4.26,-17.215 -6.338,-12.002 -19.089,-19.7 -32.66,-19.7 -11.526,0 -22.58,5.528 -29.51,14.733 -4.937,6.558 -13.988,26.631 -0.23,29.084 1.774,0.315 3.035,-0.02 4.059,-0.807 1.6,-1.23 3.818,-1.082 5.606,-0.146 1.832,0.953 3.878,1.498 6.08,1.471 2.716,-0.033 4.484,-1.062 6.26,-2.402 1.502,-1.133 3.569,-1.231 5.191,-0.284 2.354,1.377 4.948,1.534 8.014,0.101 2.237,-1.045 4.182,-3.129 6.204,-2.269 2.19,0.927 2.732,2.762 5.526,2.989 2.43,0.199 2.675,-0.69 4.727,-1.933 2.845,-1.719 5.314,1.743 8.451,1.887 C -3.616,5.644 -1.3,4.437 -0.385,1.617 -0.218,1.095 -0.089,0.559 0,0" />
      </g>
      <g
         transform="translate(414.4116,1915.5933)"
         id="g1526">
        <path
           inkscape:connector-curvature="0"
           id="path1528"
           style="fill:#d82348;fill-opacity:1;fill-rule:nonzero;stroke:none"
           d="m 0,0 c -19.474,0 -35.314,-15.843 -35.314,-35.313 0,-19.472 15.84,-35.315 35.314,-35.315 19.471,0 35.313,15.843 35.313,35.315 C 35.313,-15.843 19.471,0 0,0 m 0,-73.825 c -21.236,0 -38.515,17.274 -38.515,38.512 0,21.235 17.279,38.511 38.515,38.511 21.236,0 38.511,-17.276 38.511,-38.511 0,-21.238 -17.275,-38.512 -38.511,-38.512" />
      </g>
      <g
         transform="translate(433.3916,1826.9448)"
         id="g1530">
        <path
           inkscape:connector-curvature="0"
           id="path1532"
           style="fill:#f79973;fill-opacity:1;fill-rule:nonzero;stroke:none"
           d="m 0,0 c -0.034,0.155 -0.092,0.314 -0.175,0.482 -0.979,1.998 -11.87,-1.731 -11.304,-0.854 0.418,0.648 10.276,1.497 16.115,6.1 1.219,0.96 3.189,3.278 1.857,4.637 -1.252,1.275 -2.956,0.781 -4.269,0.268 -1.432,-0.567 -6.421,-3.23 -6.281,-3.174 0.515,0.194 -6.516,-2.034 -6.516,-2.034 0.075,0.414 2.481,1.185 3.158,1.436 1.071,0.396 2.082,0.803 3.126,1.279 2.021,0.92 3.996,1.873 5.882,2.964 1.862,1.075 3.826,2.274 5.259,3.944 2.201,2.563 1.587,7.998 -2.159,5.982 -2.595,-1.395 -4.532,-3.466 -8.867,-5.8 -0.853,-0.458 -6.827,-4.181 -6.835,-3.938 -0.005,0.246 3.839,2.502 4.717,3.062 1.776,1.128 5.588,3.842 7.787,7.394 1.536,2.482 -1.819,5.231 -3.846,3.903 -1.668,-1.093 -3.127,-2.532 -4.532,-3.91 -2.616,-2.562 -5.943,-4.017 -9.391,-5.099 -3.746,-1.179 -6.82,-1.126 -9.662,1.296 -3.039,2.593 -1.478,3.803 2.432,5.403 2.287,0.936 6.174,0.967 8.087,2.909 2.422,2.46 -2.309,5.27 -5.406,4.434 -3.876,-1.047 -7.093,-1.263 -9.703,-2.455 -5.706,-2.608 -9.449,-5.627 -15.435,-7.767 -1.963,-0.701 -3.602,-0.827 -5.319,-0.683 -0.158,0.013 -1.388,0.119 -3.335,0.297 -3.878,-3.575 -7.024,-8.312 -9.671,-12.972 6.731,-0.139 12.762,-0.274 17.244,-0.533 0.676,-0.635 2.414,-0.125 3.343,-0.493 2.693,-1.069 4.151,-2.691 6.143,-4.713 3.956,-4.011 8.532,-5.407 13.834,-6.109 3.832,-0.509 6.547,-0.473 11.281,-0.116 C -7.524,-4.489 0.663,-3.018 0,0" />
      </g>
      <g
         transform="translate(390.5337,1852.8784)"
         id="g1534">
        <path
           inkscape:connector-curvature="0"
           id="path1536"
           style="fill:#78d2df;fill-opacity:1;fill-rule:nonzero;stroke:none"
           d="m 0,0 c -21.253,4.39 -58.49,22.248 -59.053,25.064 -1.277,6.379 10.122,20.204 19.977,46.214 8.112,21.408 8.876,58.521 1.435,59.224 -16.979,1.603 -32.713,-39.374 -39.613,-51.495 -27.101,-47.589 -27.34,-71.016 -3.31,-83.253 11.91,-6.068 61.275,-18.573 76.296,-21.688 0,0 5.459,18.903 4.268,25.934" />
      </g>
      <g
         transform="translate(401.2822,1877.1616)"
         id="g1538">
        <path
           inkscape:connector-curvature="0"
           id="path1540"
           style="fill:#86d279;fill-opacity:1;fill-rule:nonzero;stroke:none"
           d="m 0,0 c 0,-1.722 -1.396,-3.117 -3.118,-3.117 -1.722,0 -3.118,1.395 -3.118,3.117 0,1.722 1.396,3.119 3.118,3.119 C -1.396,3.119 0,1.722 0,0" />
      </g>
      <g
         transform="translate(420.7661,1867.6597)"
         id="g1542">
        <path
           inkscape:connector-curvature="0"
           id="path1544"
           style="fill:#86d279;fill-opacity:1;fill-rule:nonzero;stroke:none"
           d="m 0,0 c 0,-2.358 -1.911,-4.27 -4.271,-4.27 -2.359,0 -4.272,1.912 -4.272,4.27 0,2.361 1.913,4.273 4.272,4.273 C -1.911,4.273 0,2.361 0,0" />
      </g>
      <g
         transform="translate(437.209,1874.5908)"
         id="g1546">
        <path
           inkscape:connector-curvature="0"
           id="path1548"
           style="fill:#86d279;fill-opacity:1;fill-rule:nonzero;stroke:none"
           d="m 0,0 c 0,-1.422 -1.151,-2.573 -2.572,-2.573 -1.421,0 -2.572,1.151 -2.572,2.573 0,1.42 1.151,2.571 2.572,2.571 C -1.151,2.571 0,1.42 0,0" />
      </g>
      <g
         transform="translate(439.2607,1862.1196)"
         id="g1550">
        <path
           inkscape:connector-curvature="0"
           id="path1552"
           style="fill:#86d279;fill-opacity:1;fill-rule:nonzero;stroke:none"
           d="m 0,0 c 0,-1.885 -1.526,-3.414 -3.412,-3.414 -1.886,0 -3.417,1.529 -3.417,3.414 0,1.885 1.531,3.414 3.417,3.414 C -1.526,3.414 0,1.885 0,0" />
      </g>
      <g
         transform="translate(446.6587,1878.1265)"
         id="g1554">
        <path
           inkscape:connector-curvature="0"
           id="path1556"
           style="fill:#86d279;fill-opacity:1;fill-rule:nonzero;stroke:none"
           d="m 0,0 c 0,-1.188 -0.965,-2.153 -2.153,-2.153 -1.188,0 -2.152,0.965 -2.152,2.153 0,1.189 0.964,2.154 2.152,2.154 C -0.965,2.154 0,1.189 0,0" />
      </g>
      <g
         transform="translate(398.6118,1864.3628)"
         id="g1558">
        <path
           inkscape:connector-curvature="0"
           id="path1560"
           style="fill:#86d279;fill-opacity:1;fill-rule:nonzero;stroke:none"
           d="m 0,0 c 0,-1.241 -1.004,-2.243 -2.242,-2.243 -1.237,0 -2.242,1.002 -2.242,2.243 0,1.237 1.005,2.241 2.242,2.241 C -1.004,2.241 0,1.237 0,0" />
      </g>
      <g
         transform="translate(390.7065,1875.4805)"
         id="g1562">
        <path
           inkscape:connector-curvature="0"
           id="path1564"
           style="fill:#86d279;fill-opacity:1;fill-rule:nonzero;stroke:none"
           d="m 0,0 c 0,-2.252 -1.826,-4.076 -4.076,-4.076 -2.251,0 -4.076,1.824 -4.076,4.076 0,2.25 1.825,4.075 4.076,4.075 C -1.826,4.075 0,2.25 0,0" />
      </g>
      <g
         transform="translate(410.8813,1877.1963)"
         id="g1566">
        <path
           inkscape:connector-curvature="0"
           id="path1568"
           style="fill:#86d279;fill-opacity:1;fill-rule:nonzero;stroke:none"
           d="m 0,0 c 0,-0.949 -0.77,-1.716 -1.718,-1.716 -0.947,0 -1.716,0.767 -1.716,1.716 0,0.948 0.769,1.715 1.716,1.715 C -0.77,1.715 0,0.948 0,0" />
      </g>
      <g
         transform="translate(409.3389,1862.6797)"
         id="g1570">
        <path
           inkscape:connector-curvature="0"
           id="path1572"
           style="fill:#86d279;fill-opacity:1;fill-rule:nonzero;stroke:none"
           d="m 0,0 c 0,-0.925 -0.751,-1.679 -1.679,-1.679 -0.93,0 -1.682,0.754 -1.682,1.679 0,0.933 0.752,1.683 1.682,1.683 C -0.751,1.683 0,0.933 0,0" />
      </g>
      <g
         transform="translate(404.5991,1870.5488)"
         id="g1574">
        <path
           inkscape:connector-curvature="0"
           id="path1576"
           style="fill:#86d279;fill-opacity:1;fill-rule:nonzero;stroke:none"
           d="m 0,0 c 0,-0.812 -0.657,-1.471 -1.469,-1.471 -0.813,0 -1.47,0.659 -1.47,1.471 0,0.812 0.657,1.469 1.47,1.469 C -0.657,1.469 0,0.812 0,0" />
      </g>
      <g
         transform="translate(423.3389,1877.2593)"
         id="g1578">
        <path
           inkscape:connector-curvature="0"
           id="path1580"
           style="fill:#86d279;fill-opacity:1;fill-rule:nonzero;stroke:none"
           d="m 0,0 c 0,-0.912 -0.741,-1.653 -1.653,-1.653 -0.913,0 -1.654,0.741 -1.654,1.653 0,0.913 0.741,1.652 1.654,1.652 C -0.741,1.652 0,0.913 0,0" />
      </g>
      <g
         transform="translate(403.6812,1884.2417)"
         id="g1582">
        <path
           inkscape:connector-curvature="0"
           id="path1584"
           style="fill:#86d279;fill-opacity:1;fill-rule:nonzero;stroke:none"
           d="m 0,0 c 0,-0.812 -0.658,-1.472 -1.47,-1.472 -0.812,0 -1.47,0.66 -1.47,1.472 0,0.813 0.658,1.469 1.47,1.469 C -0.658,1.469 0,0.813 0,0" />
      </g>
      <g
         transform="translate(400.6875,1893.0112)"
         id="g1586">
        <path
           inkscape:connector-curvature="0"
           id="path1588-7"
           style="fill:#86d279;fill-opacity:1;fill-rule:nonzero;stroke:none"
           d="m 0,0 c 0,-1.188 -0.968,-2.157 -2.159,-2.157 -1.191,0 -2.159,0.969 -2.159,2.157 0,1.193 0.968,2.16 2.159,2.16 C -0.968,2.16 0,1.193 0,0" />
      </g>
      <g
         transform="translate(410.8813,1903.7759)"
         id="g1590">
        <path
           inkscape:connector-curvature="0"
           id="path1592"
           style="fill:#86d279;fill-opacity:1;fill-rule:nonzero;stroke:none"
           d="m 0,0 c 0,-1.535 -1.247,-2.782 -2.786,-2.782 -1.538,0 -2.784,1.247 -2.784,2.782 0,1.54 1.246,2.787 2.784,2.787 C -1.247,2.787 0,1.54 0,0" />
      </g>
      <g
         transform="translate(416.5405,1892.7827)"
         id="g1594">
        <path
           inkscape:connector-curvature="0"
           id="path1596"
           style="fill:#86d279;fill-opacity:1;fill-rule:nonzero;stroke:none"
           d="m 0,0 c 0,-1.064 -0.863,-1.929 -1.929,-1.929 -1.064,0 -1.929,0.865 -1.929,1.929 0,1.067 0.865,1.93 1.929,1.93 C -0.863,1.93 0,1.067 0,0" />
      </g>
      <g
         transform="translate(432.0649,1904.8169)"
         id="g1598">
        <path
           inkscape:connector-curvature="0"
           id="path1600"
           style="fill:#86d279;fill-opacity:1;fill-rule:nonzero;stroke:none"
           d="m 0,0 c 0,-1.774 -1.438,-3.215 -3.215,-3.215 -1.777,0 -3.215,1.441 -3.215,3.215 0,1.774 1.438,3.216 3.215,3.216 C -1.438,3.216 0,1.774 0,0" />
      </g>
      <g
         transform="translate(430.1362,1893.5181)"
         id="g1602">
        <path
           inkscape:connector-curvature="0"
           id="path1604"
           style="fill:#86d279;fill-opacity:1;fill-rule:nonzero;stroke:none"
           d="m 0,0 c 0,-0.912 -0.741,-1.652 -1.653,-1.652 -0.913,0 -1.654,0.74 -1.654,1.652 0,0.914 0.741,1.653 1.654,1.653 C -0.741,1.653 0,0.914 0,0" />
      </g>
      <g
         transform="translate(443.5469,1893.1045)"
         id="g1606">
        <path
           inkscape:connector-curvature="0"
           id="path1608"
           style="fill:#86d279;fill-opacity:1;fill-rule:nonzero;stroke:none"
           d="m 0,0 c 0,-1.903 -1.541,-3.443 -3.445,-3.443 -1.903,0 -3.444,1.54 -3.444,3.443 0,1.904 1.541,3.447 3.444,3.447 C -1.541,3.447 0,1.904 0,0" />
      </g>
      <g
         transform="translate(416.0815,1910.0068)"
         id="g1610">
        <path
           inkscape:connector-curvature="0"
           id="path1612"
           style="fill:#86d279;fill-opacity:1;fill-rule:nonzero;stroke:none"
           d="m 0,0 c 0,-0.938 -0.761,-1.699 -1.699,-1.699 -0.938,0 -1.7,0.761 -1.7,1.699 0,0.938 0.762,1.699 1.7,1.699 C -0.761,1.699 0,0.938 0,0" />
      </g>
      <g
         transform="translate(398.5288,1902.3433)"
         id="g1614">
        <path
           inkscape:connector-curvature="0"
           id="path1616"
           style="fill:#86d279;fill-opacity:1;fill-rule:nonzero;stroke:none"
           d="m 0,0 c 0,-1.571 -1.272,-2.845 -2.842,-2.845 -1.571,0 -2.845,1.274 -2.845,2.845 0,1.568 1.274,2.84 2.845,2.84 C -1.272,2.84 0,1.568 0,0" />
      </g>
      <g
         transform="translate(388.8003,1895.0347)"
         id="g1618">
        <path
           inkscape:connector-curvature="0"
           id="path1620"
           style="fill:#86d279;fill-opacity:1;fill-rule:nonzero;stroke:none"
           d="m 0,0 c 0,-0.838 -0.678,-1.517 -1.516,-1.517 -0.838,0 -1.516,0.679 -1.516,1.517 0,0.837 0.678,1.517 1.516,1.517 C -0.678,1.517 0,0.837 0,0" />
      </g>
      <g
         transform="translate(409.7441,1890.396)"
         id="g1622">
        <path
           inkscape:connector-curvature="0"
           id="path1624"
           style="fill:#86d279;fill-opacity:1;fill-rule:nonzero;stroke:none"
           d="m 0,0 c 0,-0.814 -0.658,-1.472 -1.47,-1.472 -0.813,0 -1.469,0.658 -1.469,1.472 0,0.812 0.656,1.47 1.469,1.47 C -0.658,1.47 0,0.812 0,0" />
      </g>
      <g
         transform="translate(420.1787,1902.1255)"
         id="g1626">
        <path
           inkscape:connector-curvature="0"
           id="path1628"
           style="fill:#86d279;fill-opacity:1;fill-rule:nonzero;stroke:none"
           d="m 0,0 c 0,-0.625 -0.506,-1.132 -1.131,-1.132 -0.623,0 -1.132,0.507 -1.132,1.132 0,0.625 0.509,1.129 1.132,1.129 C -0.506,1.129 0,0.625 0,0" />
      </g>
      <g
         transform="translate(429.7627,1869.4497)"
         id="g1630">
        <path
           inkscape:connector-curvature="0"
           id="path1632"
           style="fill:#86d279;fill-opacity:1;fill-rule:nonzero;stroke:none"
           d="m 0,0 c 0,-0.607 -0.491,-1.1 -1.099,-1.1 -0.609,0 -1.1,0.493 -1.1,1.1 0,0.608 0.491,1.099 1.1,1.099 C -0.491,1.099 0,0.608 0,0" />
      </g>
      <g
         transform="translate(426.7056,1854.4048)"
         id="g1634">
        <path
           inkscape:connector-curvature="0"
           id="path1636"
           style="fill:#86d279;fill-opacity:1;fill-rule:nonzero;stroke:none"
           d="m 0,0 c 0,-1.059 -0.855,-1.914 -1.914,-1.914 -1.056,0 -1.912,0.855 -1.912,1.914 0,1.058 0.856,1.912 1.912,1.912 C -0.855,1.912 0,1.058 0,0" />
      </g>
      <g
         transform="translate(441.4604,1869.4497)"
         id="g1638">
        <path
           inkscape:connector-curvature="0"
           id="path1640-5"
           style="fill:#86d279;fill-opacity:1;fill-rule:nonzero;stroke:none"
           d="m 0,0 c 0,-0.607 -0.491,-1.1 -1.099,-1.1 -0.606,0 -1.101,0.493 -1.101,1.1 0,0.608 0.495,1.099 1.101,1.099 C -0.491,1.099 0,0.608 0,0" />
      </g>
      <g
         transform="translate(435.4634,1882.4961)"
         id="g1642">
        <path
           inkscape:connector-curvature="0"
           id="path1644"
           style="fill:#86d279;fill-opacity:1;fill-rule:nonzero;stroke:none"
           d="m 0,0 c 0,-0.556 -0.453,-1.011 -1.009,-1.011 -0.558,0 -1.012,0.455 -1.012,1.011 0,0.555 0.454,1.011 1.012,1.011 C -0.453,1.011 0,0.555 0,0" />
      </g>
      <g
         transform="translate(389.5269,1865.4819)"
         id="g1646">
        <path
           inkscape:connector-curvature="0"
           id="path1648"
           style="fill:#86d279;fill-opacity:1;fill-rule:nonzero;stroke:none"
           d="m 0,0 c 0,-0.617 -0.503,-1.119 -1.12,-1.119 -0.62,0 -1.122,0.502 -1.122,1.119 0,0.62 0.502,1.122 1.122,1.122 C -0.503,1.122 0,0.62 0,0" />
      </g>
      <g
         transform="translate(398.9424,1858.1528)"
         id="g1650">
        <path
           inkscape:connector-curvature="0"
           id="path1652"
           style="fill:#86d279;fill-opacity:1;fill-rule:nonzero;stroke:none"
           d="m 0,0 c 0,-0.708 -0.575,-1.284 -1.287,-1.284 -0.709,0 -1.286,0.576 -1.286,1.284 0,0.712 0.577,1.286 1.286,1.286 C -0.575,1.286 0,0.712 0,0" />
      </g>
      <g
         transform="translate(431.916,2088.6353)"
         id="g1654">
        <path
           inkscape:connector-curvature="0"
           id="path1656"
           style="fill:#ffffff;fill-opacity:1;fill-rule:nonzero;stroke:none"
           d="m 0,0 c 0,-1.63 -1.323,-2.951 -2.951,-2.951 -1.631,0 -2.954,1.321 -2.954,2.951 0,1.63 2.954,5.639 2.954,5.639 C -2.951,5.639 0,1.63 0,0" />
      </g>
      <g
         transform="translate(452.2104,2058.9604)"
         id="g1658">
        <path
           inkscape:connector-curvature="0"
           id="path1660-3"
           style="fill:#ffffff;fill-opacity:1;fill-rule:nonzero;stroke:none"
           d="m 0,0 c 0,-1.629 -1.32,-2.949 -2.951,-2.949 -1.627,0 -2.95,1.32 -2.95,2.949 0,1.63 2.95,5.64 2.95,5.64 C -2.951,5.64 0,1.63 0,0" />
      </g>
    </g>
  </g>
</svg>
