<?xml version="1.0" encoding="UTF-8" standalone="no"?>
<!-- Created with Inkscape (http://www.inkscape.org/) -->

<svg
   xmlns:dc="http://purl.org/dc/elements/1.1/"
   xmlns:cc="http://creativecommons.org/ns#"
   xmlns:rdf="http://www.w3.org/1999/02/22-rdf-syntax-ns#"
   xmlns:svg="http://www.w3.org/2000/svg"
   xmlns="http://www.w3.org/2000/svg"
   xmlns:sodipodi="http://sodipodi.sourceforge.net/DTD/sodipodi-0.dtd"
   xmlns:inkscape="http://www.inkscape.org/namespaces/inkscape"
   width="52.916668mm"
   height="76.772598mm"
   viewBox="0 0 52.916668 76.772598"
   version="1.1"
   id="svg285"
   inkscape:version="0.92.5 (2060ec1f9f, 2020-04-08)"
   sodipodi:docname="1-transtornos-gastrointestinales.svg">
  <defs
     id="defs279" />
  <sodipodi:namedview
     id="base"
     pagecolor="#ffffff"
     bordercolor="#666666"
     borderopacity="1.0"
     inkscape:pageopacity="0.0"
     inkscape:pageshadow="2"
     inkscape:zoom="0.86269531"
     inkscape:cx="102.22509"
     inkscape:cy="2.7646473"
     inkscape:document-units="mm"
     inkscape:current-layer="layer1"
     showgrid="false"
     fit-margin-top="0"
     fit-margin-left="0"
     fit-margin-right="0"
     fit-margin-bottom="0"
     inkscape:window-width="1440"
     inkscape:window-height="825"
     inkscape:window-x="0"
     inkscape:window-y="0"
     inkscape:window-maximized="1" />
  <metadata
     id="metadata282">
    <rdf:RDF>
      <cc:Work
         rdf:about="">
        <dc:format>image/svg+xml</dc:format>
        <dc:type
           rdf:resource="http://purl.org/dc/dcmitype/StillImage" />
        <dc:title></dc:title>
      </cc:Work>
    </rdf:RDF>
  </metadata>
  <g
     inkscape:label="Capa 1"
     inkscape:groupmode="layer"
     id="layer1"
     transform="translate(-78.786279,-72.792216)">
    <g
       transform="matrix(0.27105338,0,0,-0.27105338,-423.78369,1021.1343)"
       id="g3179">
      <g
         transform="translate(1977.8867,3370.0293)"
         id="g1746">
        <path
           inkscape:connector-curvature="0"
           id="path1748"
           style="fill:#f78d7a;fill-opacity:1;fill-rule:nonzero;stroke:none"
           d="m 0,0 c -5.002,0.903 -9.54,1.418 -13.586,1.667 -4.597,0.282 -8.217,4.013 -8.217,8.619 v 19.865 h -29.834 v -19.87 c 0,-4.535 -3.497,-8.332 -8.023,-8.602 -3.564,-0.214 -7.509,-0.633 -11.822,-1.344 l -0.462,-40.503 H 0.483 Z" />
      </g>
      <g
         transform="translate(1926.2495,3385.4683)"
         id="g1750">
        <path
           inkscape:connector-curvature="0"
           id="path1752"
           style="fill:#f4705f;fill-opacity:1;fill-rule:nonzero;stroke:none"
           d="m 0,0 c 4.588,-2.329 9.608,-3.702 14.919,-3.702 5.308,0 10.326,1.373 14.915,3.702 V 23.672 H 0 Z" />
      </g>
      <g
         transform="translate(1915.8501,3433.1289)"
         id="g1754">
        <path
           inkscape:connector-curvature="0"
           id="path1756"
           style="fill:#f78d7a;fill-opacity:1;fill-rule:nonzero;stroke:none"
           d="m 0,0 c 0,-7.133 -5.386,-12.915 -12.028,-12.915 -6.644,0 -11.947,11.534 -11.947,18.665 0,7.131 5.224,8.224 11.947,7.161 C -5.467,11.877 0,7.131 0,0" />
      </g>
      <g
         transform="translate(1966.4854,3433.1289)"
         id="g1758">
        <path
           inkscape:connector-curvature="0"
           id="path1760"
           style="fill:#f78d7a;fill-opacity:1;fill-rule:nonzero;stroke:none"
           d="m 0,0 c 0,-7.133 5.386,-12.915 12.029,-12.915 6.644,0 11.947,11.534 11.947,18.665 0,7.131 -5.225,8.224 -11.947,7.161 C 5.467,11.877 0,7.131 0,0" />
      </g>
      <g
         transform="translate(1978.876,3469.0352)"
         id="g1762">
        <path
           inkscape:connector-curvature="0"
           id="path1764"
           style="fill:#f78d7a;fill-opacity:1;fill-rule:nonzero;stroke:none"
           d="m 0,0 c -4.6,13.335 -37.708,13.795 -37.708,13.795 0,0 -33.109,-0.46 -37.709,-13.795 -4.597,-13.337 -4.137,-40.928 2.76,-54.262 6.899,-13.337 19.774,-24.373 34.949,-24.373 15.176,0 28.051,11.036 34.949,24.373 C 4.138,-40.928 4.598,-13.337 0,0" />
      </g>
      <g
         transform="translate(1924.5088,3439.3164)"
         id="g1766">
        <path
           inkscape:connector-curvature="0"
           id="path1768"
           style="fill:#2d1322;fill-opacity:1;fill-rule:nonzero;stroke:none"
           d="m 0,0 c 0,-3.031 -1.939,-5.49 -4.33,-5.49 -2.391,0 -4.329,2.459 -4.329,5.49 0,3.032 1.938,5.489 4.329,5.489 C -1.939,5.489 0,3.032 0,0" />
      </g>
      <g
         transform="translate(1966.4854,3439.3164)"
         id="g1770">
        <path
           inkscape:connector-curvature="0"
           id="path1772"
           style="fill:#2d1322;fill-opacity:1;fill-rule:nonzero;stroke:none"
           d="m 0,0 c 0,-3.031 -1.937,-5.49 -4.328,-5.49 -2.391,0 -4.33,2.459 -4.33,5.49 0,3.032 1.939,5.489 4.33,5.489 C -1.937,5.489 0,3.032 0,0" />
      </g>
      <g
         transform="translate(1941.167,3416.4321)"
         id="g1774">
        <path
           inkscape:connector-curvature="0"
           id="path1776"
           style="fill:#db5558;fill-opacity:1;fill-rule:nonzero;stroke:none"
           d="m 0,0 c 8.677,0 11.767,-6.025 11.892,-6.284 0.345,-0.696 0.061,-1.532 -0.63,-1.878 -0.712,-0.336 -1.545,-0.059 -1.878,0.631 -0.1,0.183 -2.51,4.726 -9.384,4.726 -6.958,0 -9.355,-4.679 -9.383,-4.726 -0.341,-0.69 -1.179,-0.967 -1.88,-0.631 -0.689,0.341 -0.975,1.182 -0.63,1.878 C -11.766,-6.025 -8.683,0 0,0" />
      </g>
      <g
         transform="translate(1941.167,3425.0317)"
         id="g1778">
        <path
           inkscape:connector-curvature="0"
           id="path1780"
           style="fill:#e56366;fill-opacity:1;fill-rule:nonzero;stroke:none"
           d="m 0,0 c -2.36,0 -4.282,1.031 -4.944,2.425 -0.152,-0.32 -0.308,-0.642 -0.308,-0.991 0,-1.886 2.351,-3.417 5.252,-3.417 2.9,0 5.251,1.531 5.251,3.417 0,0.349 -0.154,0.671 -0.308,0.991 C 4.281,1.031 2.359,0 0,0" />
      </g>
      <g
         transform="translate(1922.4307,3425.2524)"
         id="g1782">
        <path
           inkscape:connector-curvature="0"
           id="path1784"
           style="fill:#f57781;fill-opacity:1;fill-rule:nonzero;stroke:none"
           d="m 0,0 c 0,-3.301 -2.701,-5.978 -6.032,-5.978 -3.332,0 -6.031,2.677 -6.031,5.978 0,3.303 2.699,5.979 6.031,5.979 C -2.701,5.979 0,3.303 0,0" />
      </g>
      <g
         transform="translate(1971.9678,3425.2524)"
         id="g1786">
        <path
           inkscape:connector-curvature="0"
           id="path1788"
           style="fill:#f57781;fill-opacity:1;fill-rule:nonzero;stroke:none"
           d="m 0,0 c 0,-3.301 -2.701,-5.978 -6.032,-5.978 -3.332,0 -6.033,2.677 -6.033,5.978 0,3.303 2.701,5.979 6.033,5.979 C -2.701,5.979 0,3.303 0,0" />
      </g>
      <g
         transform="translate(2005.0146,3361.0732)"
         id="g1790">
        <path
           inkscape:connector-curvature="0"
           id="path1792"
           style="fill:#78d2df;fill-opacity:1;fill-rule:nonzero;stroke:none"
           d="m 0,0 c -19.012,8.113 -28.927,10.118 -40.572,10.851 -2.036,-4.734 -11.663,-8.329 -23.276,-8.329 -11.612,0 -21.238,3.595 -23.276,8.329 -11.646,-0.733 -22.95,-3.769 -41.961,-11.884 0,0 20.379,-70.848 21.63,-94.205 0.651,-12.162 0.268,-42.257 -0.266,-50.345 h 87.745 c -0.533,8.088 -0.917,38.183 -0.266,50.345 C -18.99,-71.881 0,0 0,0" />
      </g>
      <g
         transform="translate(2005.0146,3361.0732)"
         id="g1794">
        <path
           inkscape:connector-curvature="0"
           id="path1796"
           style="fill:#4dc2d3;fill-opacity:1;fill-rule:nonzero;stroke:none"
           d="m 0,0 c -19.012,8.113 -28.927,10.118 -40.572,10.851 -2.036,-4.734 -11.663,-8.329 -23.276,-8.329 -11.612,0 -21.238,3.595 -23.276,8.329 -11.646,-0.733 -22.95,-3.769 -41.961,-11.884 0,0 20.379,-70.848 21.63,-94.205 0.651,-12.162 0.268,-42.257 -0.266,-50.345 h 87.745 c -0.533,8.088 -0.917,38.183 -0.266,50.345 C -18.99,-71.881 0,0 0,0" />
      </g>
      <g
         transform="translate(1914.2197,3445.4985)"
         id="g1798">
        <path
           inkscape:connector-curvature="0"
           id="path1800"
           style="fill:#2d1c3b;fill-opacity:1;fill-rule:nonzero;stroke:none"
           d="M 0,0 C -0.288,-0.075 -0.603,-0.038 -0.876,0.128 -1.407,0.457 -1.571,1.15 -1.245,1.679 -1.199,1.754 3.573,9.307 12.945,6.708 13.545,6.542 13.897,5.92 13.73,5.321 13.566,4.72 12.945,4.369 12.344,4.537 4.578,6.691 0.708,0.561 0.675,0.5 0.517,0.24 0.27,0.069 0,0" />
      </g>
      <g
         transform="translate(1967.6797,3444.9365)"
         id="g1802">
        <path
           inkscape:connector-curvature="0"
           id="path1804"
           style="fill:#2d1c3b;fill-opacity:1;fill-rule:nonzero;stroke:none"
           d="m 0,0 c -0.263,0.098 -0.486,0.288 -0.621,0.559 -0.13,0.266 -3.351,6.54 -11.223,5.161 -0.61,-0.112 -1.195,0.3 -1.303,0.917 -0.107,0.611 0.304,1.195 0.916,1.303 C -2.665,9.613 1.364,1.63 1.401,1.549 1.675,0.994 1.444,0.32 0.888,0.046 0.6,-0.095 0.279,-0.102 0,0" />
      </g>
      <g
         transform="translate(1890.0288,3215.5664)"
         id="g1806">
        <path
           inkscape:connector-curvature="0"
           id="path1808"
           style="fill:#78d2df;fill-opacity:1;fill-rule:nonzero;stroke:none"
           d="m 0,0 c -1.957,17.135 -1.64,31.764 -3.418,54.844 -0.28,3.615 0.443,40.766 1.297,44.791 3.814,17.972 0.81,46.64 -4.452,47.137 -6.675,0.631 -19.083,-8.364 -21.463,-26.079 C -30.896,99.407 -36.959,71.459 -35.73,55.766 -32.969,20.581 -31.113,0 -31.113,0 Z" />
      </g>
      <g
         transform="translate(1974.1064,3277.0723)"
         id="g1810">
        <path
           inkscape:connector-curvature="0"
           id="path1812"
           style="fill:#ffffff;fill-opacity:1;fill-rule:nonzero;stroke:none"
           d="m 0,0 c 0,-17.647 -14.304,-31.95 -31.95,-31.95 -17.647,0 -31.95,14.303 -31.95,31.95 0,17.646 14.303,31.95 31.95,31.95 C -14.304,31.95 0,17.646 0,0" />
      </g>
      <g
         transform="translate(1949.6807,3277.0723)"
         id="g1814">
        <path
           inkscape:connector-curvature="0"
           id="path1816"
           style="fill:#d82348;fill-opacity:1;fill-rule:nonzero;stroke:none"
           d="m 0,0 c 0,-4.157 -3.369,-7.526 -7.524,-7.526 -4.156,0 -7.525,3.369 -7.525,7.526 0,4.156 3.369,7.523 7.525,7.523 C -3.369,7.523 0,4.156 0,0" />
      </g>
      <g
         transform="translate(1942.1563,3267.4409)"
         id="g1818">
        <path
           inkscape:connector-curvature="0"
           id="path1820"
           style="fill:#d82348;fill-opacity:1;fill-rule:nonzero;stroke:none"
           d="m 0,0 c -5.32,0 -9.632,4.311 -9.632,9.631 0,5.32 4.312,9.63 9.632,9.63 5.319,0 9.632,-4.31 9.632,-9.63 C 9.632,4.311 5.319,0 0,0 m 0,22.721 c -7.231,0 -13.093,-5.86 -13.093,-13.09 0,-7.231 5.862,-13.094 13.093,-13.094 7.231,0 13.093,5.863 13.093,13.094 0,7.23 -5.862,13.09 -13.093,13.09" />
      </g>
      <g
         transform="translate(1942.1563,3261.1953)"
         id="g1822">
        <path
           inkscape:connector-curvature="0"
           id="path1824"
           style="fill:#d82348;fill-opacity:1;fill-rule:nonzero;stroke:none"
           d="m 0,0 c -8.769,0 -15.877,7.108 -15.877,15.877 0,8.768 7.108,15.875 15.877,15.875 8.768,0 15.876,-7.107 15.876,-15.875 C 15.876,7.108 8.768,0 0,0 m 0,33.861 c -9.933,0 -17.983,-8.053 -17.983,-17.984 0,-9.934 8.05,-17.985 17.983,-17.985 9.933,0 17.983,8.051 17.983,17.985 0,9.931 -8.05,17.984 -17.983,17.984" />
      </g>
      <g
         transform="translate(1942.1563,3256.7432)"
         id="g1826">
        <path
           inkscape:connector-curvature="0"
           id="path1828"
           style="fill:#d82348;fill-opacity:1;fill-rule:nonzero;stroke:none"
           d="m 0,0 c -11.228,0 -20.329,9.101 -20.329,20.329 0,11.225 9.101,20.327 20.329,20.327 11.227,0 20.329,-9.102 20.329,-20.327 C 20.329,9.101 11.227,0 0,0 m 0,43.354 c -12.717,0 -23.025,-10.309 -23.025,-23.025 0,-12.717 10.308,-23.025 23.025,-23.025 12.717,0 23.025,10.308 23.025,23.025 0,12.716 -10.308,23.025 -23.025,23.025" />
      </g>
      <g
         transform="translate(1942.1563,3242.5176)"
         id="g1830">
        <path
           inkscape:connector-curvature="0"
           id="path1832"
           style="fill:#d82348;fill-opacity:1;fill-rule:nonzero;stroke:none"
           d="m 0,0 c -19.083,0 -34.553,15.472 -34.553,34.555 0,19.081 15.47,34.551 34.553,34.551 19.083,0 34.553,-15.47 34.553,-34.551 C 34.553,15.472 19.083,0 0,0 m 0,73.693 c -21.615,0 -39.139,-17.524 -39.139,-39.138 0,-21.618 17.524,-39.139 39.139,-39.139 21.615,0 39.139,17.521 39.139,39.139 0,21.614 -17.524,39.138 -39.139,39.138" />
      </g>
      <g
         transform="translate(1942.1563,3234.04)"
         id="g1834">
        <path
           inkscape:connector-curvature="0"
           id="path1836"
           style="fill:#d82348;fill-opacity:1;fill-rule:nonzero;stroke:none"
           d="m 0,0 c -23.767,0 -43.031,19.266 -43.031,43.032 0,23.766 19.264,43.032 43.031,43.032 23.766,0 43.03,-19.266 43.03,-43.032 C 43.03,19.266 23.766,0 0,0 m 0,88.651 c -25.194,0 -45.619,-20.425 -45.619,-45.619 0,-25.195 20.425,-45.62 45.619,-45.62 25.194,0 45.618,20.425 45.618,45.62 0,25.194 -20.424,45.619 -45.618,45.619" />
      </g>
      <g
         transform="translate(1942.1563,3303.7129)"
         id="g1838">
        <path
           inkscape:connector-curvature="0"
           id="path1840"
           style="fill:#d82348;fill-opacity:1;fill-rule:nonzero;stroke:none"
           d="m 0,0 c -14.69,0 -26.643,-11.952 -26.643,-26.641 0,-14.689 11.953,-26.644 26.643,-26.644 14.69,0 26.642,11.955 26.642,26.644 C 26.642,-11.952 14.69,0 0,0 m 0,-55.697 c -16.021,0 -29.056,13.035 -29.056,29.056 0,16.021 13.035,29.055 29.056,29.055 16.021,0 29.056,-13.034 29.056,-29.055 0,-16.021 -13.035,-29.056 -29.056,-29.056" />
      </g>
      <g
         transform="translate(1927.3477,3230.9058)"
         id="g1842">
        <path
           inkscape:connector-curvature="0"
           id="path1844"
           style="fill:#f79973;fill-opacity:1;fill-rule:nonzero;stroke:none"
           d="M 0,0 C 0.03,0.135 0.079,0.274 0.15,0.418 0.998,2.147 10.424,-1.08 9.936,-0.322 9.573,0.239 1.041,0.975 -4.013,4.958 -5.069,5.79 -6.774,7.795 -5.62,8.973 -4.537,10.076 -3.062,9.649 -1.927,9.205 -0.686,8.714 3.631,6.409 3.511,6.456 3.066,6.625 9.151,4.697 9.151,4.697 9.086,5.055 7.004,5.721 6.418,5.939 5.491,6.282 4.615,6.635 3.71,7.047 1.962,7.842 0.253,8.668 -1.379,9.612 c -1.613,0.931 -3.313,1.97 -4.551,3.413 -1.906,2.22 -1.376,6.922 1.868,5.179 2.244,-1.208 3.923,-2.999 7.673,-5.02 0.74,-0.397 5.91,-3.62 5.916,-3.408 0.006,0.211 -3.321,2.164 -4.081,2.648 -1.539,0.978 -4.839,3.328 -6.741,6.401 -1.329,2.148 1.575,4.529 3.33,3.379 1.444,-0.948 2.704,-2.192 3.923,-3.384 2.263,-2.219 5.143,-3.479 8.127,-4.415 3.243,-1.019 5.904,-0.975 8.363,1.123 2.631,2.243 1.281,3.292 -2.105,4.676 -1.98,0.809 -5.343,0.837 -6.998,2.519 -2.098,2.129 1.998,4.559 4.678,3.837 3.354,-0.905 6.14,-1.094 8.397,-2.125 4.941,-2.258 8.18,-4.87 13.361,-6.724 1.699,-0.606 3.118,-0.715 4.604,-0.59 0.137,0.011 1.203,0.104 2.888,0.257 3.356,-3.095 6.08,-7.194 8.37,-11.228 C 49.817,6.028 44.597,5.912 40.72,5.688 40.131,5.139 38.627,5.581 37.825,5.261 35.493,4.337 34.229,2.933 32.505,1.183 29.082,-2.29 25.121,-3.498 20.533,-4.106 17.215,-4.546 14.864,-4.514 10.769,-4.206 6.511,-3.886 -0.574,-2.611 0,0" />
      </g>
      <g
         transform="translate(1964.4424,3253.3525)"
         id="g1846">
        <path
           inkscape:connector-curvature="0"
           id="path1848"
           style="fill:#78d2df;fill-opacity:1;fill-rule:nonzero;stroke:none"
           d="M 0,0 C 18.397,3.799 50.629,19.259 51.117,21.696 52.22,27.217 42.354,39.184 33.825,61.697 26.804,80.228 26.141,112.353 32.583,112.962 47.278,114.35 60.899,78.878 66.871,68.389 90.329,27.197 90.536,6.92 69.735,-3.673 59.427,-8.927 16.698,-19.75 3.694,-22.447 3.694,-22.447 -1.03,-6.084 0,0" />
      </g>
      <g
         transform="translate(1942.1206,3498.7275)"
         id="g1850">
        <path
           inkscape:connector-curvature="0"
           id="path1852"
           style="fill:#d164b9;fill-opacity:1;fill-rule:nonzero;stroke:none"
           d="m 0,0 c -24.605,-0.106 -32.833,-10.127 -37.67,-21.577 -1.733,5.069 -3.307,10.022 -7.33,13.903 -5.126,4.941 -13.452,4.213 -19.95,5.144 -2.731,0.395 -4.895,-3.303 -2.029,-4.81 3.482,-1.834 4.241,-5.761 5.182,-9.268 0.969,-3.605 2.086,-6.813 4.339,-9.829 -7.494,-1.675 -14.854,-5.5 -22.056,-8.128 -1.962,-0.717 -2.841,-3.707 -0.63,-4.812 6.681,-3.343 15.335,-3.991 22.711,-3.823 7.332,0.167 10.522,7.822 17.058,9.701 0.295,0.085 0.508,0.234 0.73,0.38 4.665,-5.984 27.261,-0.77 39.771,-3.845 C 19.434,-41.708 38,-27.853 38,-27.853 33.241,-14.052 25.18,0.109 0,0" />
      </g>
    </g>
  </g>
</svg>
