<?xml version="1.0" encoding="UTF-8" standalone="no"?>
<!-- Created with Inkscape (http://www.inkscape.org/) -->

<svg
   xmlns:dc="http://purl.org/dc/elements/1.1/"
   xmlns:cc="http://creativecommons.org/ns#"
   xmlns:rdf="http://www.w3.org/1999/02/22-rdf-syntax-ns#"
   xmlns:svg="http://www.w3.org/2000/svg"
   xmlns="http://www.w3.org/2000/svg"
   xmlns:sodipodi="http://sodipodi.sourceforge.net/DTD/sodipodi-0.dtd"
   xmlns:inkscape="http://www.inkscape.org/namespaces/inkscape"
   width="52.916668mm"
   height="62.78743mm"
   viewBox="0 0 52.916668 62.78743"
   version="1.1"
   id="svg241"
   inkscape:version="0.92.5 (2060ec1f9f, 2020-04-08)"
   sodipodi:docname="3-fatiga.svg">
  <defs
     id="defs235" />
  <sodipodi:namedview
     id="base"
     pagecolor="#ffffff"
     bordercolor="#666666"
     borderopacity="1.0"
     inkscape:pageopacity="0.0"
     inkscape:pageshadow="2"
     inkscape:zoom="0.86269531"
     inkscape:cx="237.94652"
     inkscape:cy="-48.598795"
     inkscape:document-units="mm"
     inkscape:current-layer="layer1"
     showgrid="false"
     fit-margin-top="0"
     fit-margin-left="0"
     fit-margin-right="0"
     fit-margin-bottom="0"
     inkscape:window-width="1440"
     inkscape:window-height="825"
     inkscape:window-x="0"
     inkscape:window-y="0"
     inkscape:window-maximized="1" />
  <metadata
     id="metadata238">
    <rdf:RDF>
      <cc:Work
         rdf:about="">
        <dc:format>image/svg+xml</dc:format>
        <dc:type
           rdf:resource="http://purl.org/dc/dcmitype/StillImage" />
        <dc:title></dc:title>
      </cc:Work>
    </rdf:RDF>
  </metadata>
  <g
     inkscape:label="Capa 1"
     inkscape:groupmode="layer"
     id="layer1"
     transform="translate(-42.87665,-73.187473)">
    <g
       transform="matrix(0.14571676,0,0,-0.14571676,12.176946,564.68923)"
       id="g2898">
      <text
         id="text574"
         style="font-variant:normal;font-weight:bold;font-stretch:normal;font-size:49.95199966px;font-family:'Century Gothic';-inkscape-font-specification:CenturyGothic-Bold;writing-mode:lr-tb;fill:#b4449e;fill-opacity:1;fill-rule:nonzero;stroke:none"
         transform="matrix(1,0,0,-1,317.3262,2952.4976)">
        <tspan
           id="tspan572"
           sodipodi:role="line"
           y="0"
           x="0 23.976959 56.945278 71.930878 83.919357 116.88768">Fatiga</tspan>
      </text>
      <g
         transform="translate(299.7012,3006.3462)"
         id="g2472">
        <path
           inkscape:connector-curvature="0"
           id="path2474"
           style="fill:#5dc460;fill-opacity:1;fill-rule:nonzero;stroke:none"
           d="m 0,0 c -2.955,0.032 -5.914,0.054 -8.867,0.088 -8.979,0.103 -18.065,0.218 -26.59,0.667 -3.072,0.162 -6.393,0.424 -7.299,0.907 -0.949,0.506 1.201,1.028 3.699,1.386 8.547,1.221 21.116,1.398 32.735,1.496 -0.455,0.544 -0.897,1.101 -1.334,1.656 -4.289,5.45 -8.694,11.202 -11.867,17.477 -3.532,0.771 -7.014,1.797 -10.424,3.192 -3.518,1.442 -7.026,3.339 -9.574,6.561 -3.899,4.927 -4.94,12.136 -5.01,18.898 -0.008,0.735 0.002,1.468 0.013,2.201 -0.041,-0.001 -0.084,-0.003 -0.125,-0.004 -12.908,-0.116 -25.82,0.265 -38.691,1.144 -1.498,0.102 -3.012,0.215 -4.432,0.658 -0.511,0.159 -1.066,0.417 -1.216,0.894 -0.159,0.498 0.199,1.012 0.617,1.364 1.435,1.213 3.552,1.381 5.504,1.477 11.709,0.575 23.439,0.803 35.166,0.687 l 1.054,-1.524 c 0.77,-0.044 1.567,-0.102 2.311,-0.279 0.148,2.211 0.387,4.414 0.703,6.601 H 35.17 c -0.678,-2.702 -1.357,-5.402 -2.065,-8.093 58.182,-1.094 116.319,-5.89 174.372,-10.721 2.457,-0.205 5.015,-0.442 7.136,-1.83 2.133,-1.396 3.553,-3.778 4.899,-6.078 2.664,-4.554 5.328,-9.106 7.992,-13.66 2.521,-4.31 5.148,-9.108 4.543,-14.195 -0.363,-3.03 -1.873,-5.665 -3.957,-7.698 2.234,-0.126 4.365,-0.289 6.289,-0.514 6.445,-0.756 9.131,-2.411 3.174,-3.258 -3.627,-0.516 -8.985,-0.563 -13.922,-0.573 1.853,-0.621 3.379,-1.36 4.336,-2.21 1.857,-1.653 1.203,-3.738 -2.315,-4.975 -3.779,-1.327 -9.576,-1.4 -14.806,-1.377 -34.393,0.154 -68.762,1.113 -102.823,2.87 -3.847,0.199 -8.753,0.854 -8.525,2.277 11.695,1.817 24.848,1.661 37.547,1.7 19.09,0.06 38.162,0.643 57.021,1.726 -61.4,0.006 -122.795,0.32 -184.056,0.962 z" />
      </g>
      <g
         transform="translate(570.4687,3064.645)"
         id="g2476">
        <path
           inkscape:connector-curvature="0"
           id="path2478"
           style="fill:#5dc460;fill-opacity:1;fill-rule:nonzero;stroke:none"
           d="M 0,0 C -1.104,0.744 -2.57,0.849 -3.947,0.926 L -5.029,2.45 c -12.032,0.116 -24.067,-0.112 -36.082,-0.687 -2,-0.096 -4.172,-0.264 -5.647,-1.477 -0.428,-0.351 -0.795,-0.866 -0.633,-1.364 0.157,-0.477 0.723,-0.734 1.248,-0.894 1.459,-0.443 3.012,-0.555 4.547,-0.658 13.207,-0.879 26.455,-1.26 39.698,-1.143 0.859,0.007 1.804,0.045 2.439,0.565 C 1.561,-2.374 1.102,-0.744 0,0" />
      </g>
      <g
         transform="translate(573.8281,3202.103)"
         id="g2480">
        <path
           inkscape:connector-curvature="0"
           id="path2482"
           style="fill:#5dc460;fill-opacity:1;fill-rule:nonzero;stroke:none"
           d="m 0,0 c 0,-94.38 -76.51,-170.891 -170.891,-170.891 -94.379,0 -170.89,76.511 -170.89,170.891 0,94.38 76.511,170.891 170.89,170.891 C -76.51,170.891 0,94.38 0,0" />
      </g>
      <g
         transform="translate(439.8105,3113.5537)"
         id="g2484">
        <path
           inkscape:connector-curvature="0"
           id="path2486"
           style="fill:#45c0b4;fill-opacity:1;fill-rule:evenodd;stroke:none"
           d="m 0,0 c -1.074,-2.718 -1.437,-6.138 -3.326,-8.045 -17.598,-17.765 -16.383,-37.824 -8.096,-59.118 7.639,-19.624 7.467,-19.745 -13.748,-19.663 -8.084,0.033 -16.166,0.383 -24.246,0.587 -2.41,4.899 -4.916,9.752 -7.211,14.703 -10.562,22.79 -30.043,42.048 -27.75,69.937 0.266,1.338 0.527,2.677 0.793,4.016 0.033,1.454 0.064,2.909 0.1,4.363 1.666,21.467 -4.411,40.623 -17.246,57.763 4.371,2.547 8.74,5.095 13.107,7.638 6.465,2.24 12.93,4.486 19.398,6.72 10.077,-12.952 16.065,-28.736 28.309,-42.781 3.84,14.077 7.082,25.979 10.326,37.881 6.569,-1.869 13.139,-3.739 19.709,-5.609 C -6.848,48.852 -10.809,28.05 0.734,10.006 1.6,8.656 1.064,6.413 1.18,4.583 -0.15,3.297 -0.445,1.745 0,0" />
      </g>
      <g
         transform="translate(371.584,3192.4663)"
         id="g2488">
        <path
           inkscape:connector-curvature="0"
           id="path2490"
           style="fill:#33272a;fill-opacity:1;fill-rule:evenodd;stroke:none"
           d="m 0,0 c -6.467,-2.245 -12.932,-4.491 -19.396,-6.732 -0.235,1.787 -1.235,3.928 -0.592,5.295 9.619,20.442 9.541,42.976 14.201,64.475 4.338,20.004 15.965,31.217 32.514,32.059 C 55,96.536 74.932,85.773 81.775,65.876 84.752,57.212 80.975,49.204 80.566,40.888 69.498,43.732 72.631,52.401 72.793,60.42 66.209,47.254 54.758,41.994 41.672,39.22 36.613,38.147 31.043,41.558 24.818,34.185 c 1.871,4.978 2.354,6.63 3.096,8.155 1.762,3.621 2.17,6.791 -1.269,9.926 -2.481,2.257 -5.065,3.127 -8.04,2.095 C 14.412,52.91 13.602,49.02 13.619,45.333 13.637,41.698 14.611,38.069 15.164,34.438 4.33,25.503 1.701,12.956 0,0" />
      </g>
      <g
         transform="translate(386.748,3226.9043)"
         id="g2492">
        <path
           inkscape:connector-curvature="0"
           id="path2494"
           style="fill:#f7c08c;fill-opacity:1;fill-rule:evenodd;stroke:none"
           d="m 0,0 c -0.553,3.631 -1.527,7.26 -1.545,10.895 -0.017,3.687 0.793,7.577 4.986,9.028 2.975,1.032 5.559,0.162 8.039,-2.095 3.44,-3.135 3.032,-6.305 1.27,-9.926 -0.742,-1.525 -1.225,-3.177 -3.096,-8.155 6.225,7.373 11.795,3.962 16.854,5.035 13.086,2.774 24.537,8.034 31.121,21.2 -0.162,-8.019 -3.295,-16.688 7.773,-19.532 10.563,-13.447 7.534,-29.723 10.207,-44.966 3.414,-19.471 10.579,-38.303 16.448,-57.312 2.006,-6.493 2.453,-12.94 2.304,-19.642 -0.148,-6.718 -3.925,-11.578 -8.828,-14.467 -5.394,-3.179 -10.613,0.565 -14.941,4.278 -4.744,4.071 -9.362,8.289 -14.035,12.443 13.197,12.888 8.656,29.122 8.408,44.546 0.459,18.091 -5.213,35.307 -7.58,52.996 -2.162,6.917 6.701,15.352 -3.227,21.648 -4.785,-7.343 0.522,-14.196 0.467,-21.091 -2.648,-0.308 -4.092,-1.897 -5.953,-3.866 C 41.918,-26.122 35.852,-34.991 23.926,-33.489 13.766,-28.35 8.988,-19.483 6.547,-8.841 5.684,-5.094 5.381,-0.563 0,0" />
      </g>
      <g
         transform="translate(355.4336,3111.9546)"
         id="g2496">
        <path
           inkscape:connector-curvature="0"
           id="path2498"
           style="fill:#f7c08c;fill-opacity:1;fill-rule:evenodd;stroke:none"
           d="m 0,0 c -2.293,-27.889 17.187,-47.146 27.75,-69.937 2.295,-4.951 4.801,-9.804 7.211,-14.703 -7.346,-0.096 -14.688,-0.193 -22.029,-0.288 -7.18,10.356 -12.157,22.588 -24.377,28.657 -0.071,3.812 -1.016,7.417 -3.971,9.919 -14.576,12.343 -15.242,29.052 -14.74,46.161 C -20.102,-0.129 -10.051,-0.065 0,0" />
      </g>
      <g
         transform="translate(355.4336,3111.9546)"
         id="g2500">
        <path
           inkscape:connector-curvature="0"
           id="path2502"
           style="fill:#e8e8e6;fill-opacity:1;fill-rule:evenodd;stroke:none"
           d="m 0,0 c -10.051,-0.065 -20.102,-0.129 -30.156,-0.191 -3.145,16.714 -2.418,33.561 -0.416,50.223 0.918,7.626 4.929,14.771 14.218,16.111 C -3.518,49.002 2.559,29.846 0.893,8.38 -0.82,6.966 -0.893,5.511 0.793,4.016 0.527,2.677 0.266,1.338 0,0" />
      </g>
      <g
         transform="translate(451.709,3158.2354)"
         id="g2504">
        <path
           inkscape:connector-curvature="0"
           id="path2506"
           style="fill:#e8e8e6;fill-opacity:1;fill-rule:evenodd;stroke:none"
           d="m 0,0 c 0.252,-15.425 4.793,-31.659 -8.404,-44.547 -0.551,-0.036 -1.096,-0.076 -1.647,-0.121 -0.222,1.523 -0.447,3.046 -0.668,4.57 -0.115,1.829 0.42,4.073 -0.445,5.423 -11.543,18.043 -7.582,38.845 -10.615,58.385 0.228,0.284 0.404,0.665 0.697,0.824 0.283,0.151 0.918,0.216 1.01,0.071 C -14.363,15.601 -8.178,6.988 0,0" />
      </g>
      <g
         transform="translate(343.9883,3055.6831)"
         id="g2508">
        <path
           inkscape:connector-curvature="0"
           id="path2510"
           style="fill:#45c0b4;fill-opacity:1;fill-rule:evenodd;stroke:none"
           d="m 0,0 c 12.221,-6.069 17.197,-18.3 24.377,-28.656 l -0.268,-0.162 c -8.086,0.125 -16.172,0.295 -24.259,0.351 -3.362,0.024 -6.838,-0.379 -7.164,4.439 C -4.877,-16.019 -2.439,-8.009 0,0" />
      </g>
      <g
         transform="translate(336.6738,3031.6553)"
         id="g2512">
        <path
           inkscape:connector-curvature="0"
           id="path2514"
           style="fill:#f7c08c;fill-opacity:1;fill-rule:evenodd;stroke:none"
           d="M 0,0 C 0.326,-4.818 3.803,-4.415 7.164,-4.439 15.252,-4.495 23.338,-4.666 31.424,-4.79 22.043,-8.716 12.24,-5.897 2.652,-6.405 -1.701,-6.635 -3.117,-3.813 0,0" />
      </g>
      <g
         transform="translate(440.9902,3118.1372)"
         id="g2516">
        <path
           inkscape:connector-curvature="0"
           id="path2518"
           style="fill:#f7c08c;fill-opacity:1;fill-rule:evenodd;stroke:none"
           d="m 0,0 c 0.221,-1.523 0.445,-3.047 0.668,-4.57 0.002,-10e-4 -0.922,-0.155 -0.922,-0.155 0,0 -0.928,0.138 -0.928,0.14 C -1.625,-2.839 -1.33,-1.286 0,0" />
      </g>
      <g
         transform="translate(386.748,3226.9043)"
         id="g2520">
        <path
           inkscape:connector-curvature="0"
           id="path2522"
           style="fill:#ecb781;fill-opacity:1;fill-rule:evenodd;stroke:none"
           d="M 0,0 C 5.381,-0.563 5.684,-5.094 6.547,-8.841 8.988,-19.483 13.766,-28.35 23.926,-33.488 23.771,-35.44 23.623,-37.395 23.473,-39.349 20.229,-51.251 16.986,-63.154 13.146,-77.231 0.902,-63.186 -5.086,-47.402 -15.162,-34.45 -13.463,-21.482 -10.834,-8.935 0,0" />
      </g>
      <g
         transform="translate(410.2207,3187.5552)"
         id="g2524">
        <path
           inkscape:connector-curvature="0"
           id="path2526"
           style="fill:#fefefe;fill-opacity:1;fill-rule:evenodd;stroke:none"
           d="m 0,0 c 0.15,1.955 0.299,3.909 0.453,5.861 11.926,-1.503 17.992,7.366 24.746,14.505 1.862,1.969 3.305,3.558 5.955,3.864 0.92,-0.186 1.84,-0.371 2.758,-0.555 2.367,-17.689 8.039,-34.904 7.58,-52.996 -8.181,6.989 -14.367,15.602 -20.076,24.606 -0.092,0.145 -0.727,0.08 -1.01,-0.071 -0.293,-0.158 -0.469,-0.54 -0.697,-0.823 C 13.139,-3.739 6.568,-1.87 0,0" />
      </g>
      <g
         transform="translate(356.2266,3115.9702)"
         id="g2528">
        <path
           inkscape:connector-curvature="0"
           id="path2530"
           style="fill:#f7c08c;fill-opacity:1;fill-rule:evenodd;stroke:none"
           d="M 0,0 C -1.686,1.495 -1.613,2.95 0.1,4.364 0.064,2.909 0.033,1.454 0,0" />
      </g>
      <g
         transform="translate(444.1328,3211.2305)"
         id="g2532">
        <path
           inkscape:connector-curvature="0"
           id="path2534"
           style="fill:#33272a;fill-opacity:1;fill-rule:evenodd;stroke:none"
           d="M 0,0 C -0.918,0.184 -1.838,0.369 -2.758,0.555 -2.705,7.452 -8.012,14.305 -3.227,21.647 6.701,15.352 -2.162,6.917 0,0" />
      </g>
      <g
         transform="translate(445.6484,3319.3286)"
         id="g2536">
        <path
           inkscape:connector-curvature="0"
           id="path2538"
           style="fill:#ffffff;fill-opacity:1;fill-rule:nonzero;stroke:none"
           d="m 0,0 c 0,-5.559 -4.021,-10.065 -8.982,-10.065 h -72.832 c -4.959,0 -8.981,4.506 -8.981,10.065 v 23.702 c 0,5.559 4.022,10.065 8.981,10.065 H -8.982 C -4.021,33.767 0,29.261 0,23.702 Z" />
      </g>
      <g
         transform="translate(445.6484,3319.3286)"
         id="g2540">
        <path
           inkscape:connector-curvature="0"
           id="path2542"
           style="fill:none;stroke:#3871c1;stroke-width:2;stroke-linecap:butt;stroke-linejoin:miter;stroke-miterlimit:10;stroke-dasharray:none;stroke-opacity:1"
           d="m 0,0 c 0,-5.559 -4.021,-10.065 -8.982,-10.065 h -72.832 c -4.959,0 -8.981,4.506 -8.981,10.065 v 23.702 c 0,5.559 4.022,10.065 8.981,10.065 H -8.982 C -4.021,33.767 0,29.261 0,23.702 Z" />
      </g>
      <g
         transform="translate(456.0625,3323.3193)"
         id="g2544">
        <path
           inkscape:connector-curvature="0"
           id="path2546"
           style="fill:#ffffff;fill-opacity:1;fill-rule:nonzero;stroke:none"
           d="m 0,0 c 0,-3.688 -0.451,-6.675 -1.006,-6.675 h -8.162 c -0.555,0 -1.006,2.987 -1.006,6.675 v 15.72 c 0,3.687 0.451,6.676 1.006,6.676 h 8.162 C -0.451,22.396 0,19.407 0,15.72 Z" />
      </g>
      <g
         transform="translate(456.0625,3323.3193)"
         id="g2548">
        <path
           inkscape:connector-curvature="0"
           id="path2550"
           style="fill:none;stroke:#3871c1;stroke-width:2;stroke-linecap:butt;stroke-linejoin:miter;stroke-miterlimit:10;stroke-dasharray:none;stroke-opacity:1"
           d="m 0,0 c 0,-3.688 -0.451,-6.675 -1.006,-6.675 h -8.162 c -0.555,0 -1.006,2.987 -1.006,6.675 v 15.72 c 0,3.687 0.451,6.676 1.006,6.676 h 8.162 C -0.451,22.396 0,19.407 0,15.72 Z" />
      </g>
      <path
         inkscape:connector-curvature="0"
         id="path2552"
         style="fill:#d3bce3;fill-opacity:1;fill-rule:nonzero;stroke:none"
         d="m 408.18,3348.742 h -14.1 v -35.124 h 14.1 z" />
      <path
         inkscape:connector-curvature="0"
         id="path2554"
         style="fill:#d3bce3;fill-opacity:1;fill-rule:nonzero;stroke:none"
         d="M 425.908,3348.742 H 411.81 v -35.124 h 14.098 z" />
      <path
         inkscape:connector-curvature="0"
         id="path2556"
         style="fill:#d3bce3;fill-opacity:1;fill-rule:nonzero;stroke:none"
         d="m 376.348,3313.618 h 14.1 v 35.124 h -14.1 z" />
      <g
         transform="translate(429.7363,3348.7417)"
         id="g2558">
        <path
           inkscape:connector-curvature="0"
           id="path2560"
           style="fill:#d3bce3;fill-opacity:1;fill-rule:nonzero;stroke:none"
           d="M 0,0 H -0.195 V -35.124 H 0 c 5.752,0 10.418,4.507 10.418,10.065 v 14.994 C 10.418,-4.506 5.752,0 0,0" />
      </g>
      <g
         transform="translate(372.7148,3348.7417)"
         id="g2562">
        <path
           inkscape:connector-curvature="0"
           id="path2564"
           style="fill:#ed1c24;fill-opacity:1;fill-rule:nonzero;stroke:none"
           d="m 0,0 h -2.533 c -5.752,0 -10.42,-4.506 -10.42,-10.065 v -14.994 c 0,-5.558 4.668,-10.065 10.42,-10.065 H 0 Z" />
      </g>
    </g>
  </g>
</svg>
