<?xml version="1.0" encoding="UTF-8" standalone="no"?>
<!-- Created with Inkscape (http://www.inkscape.org/) -->

<svg
   xmlns:dc="http://purl.org/dc/elements/1.1/"
   xmlns:cc="http://creativecommons.org/ns#"
   xmlns:rdf="http://www.w3.org/1999/02/22-rdf-syntax-ns#"
   xmlns:svg="http://www.w3.org/2000/svg"
   xmlns="http://www.w3.org/2000/svg"
   xmlns:sodipodi="http://sodipodi.sourceforge.net/DTD/sodipodi-0.dtd"
   xmlns:inkscape="http://www.inkscape.org/namespaces/inkscape"
   width="52.916668mm"
   height="69.09967mm"
   viewBox="0 0 52.916668 69.09967"
   version="1.1"
   id="svg905"
   inkscape:version="0.92.5 (2060ec1f9f, 2020-04-08)"
   sodipodi:docname="6-sintomas-menospausicos.svg">
  <defs
     id="defs899">
    <clipPath
       clipPathUnits="userSpaceOnUse"
       id="clipPath600">
      <path
         d="M 0,6057.336 H 2218.326 V 0 H 0 Z"
         id="path598"
         inkscape:connector-curvature="0" />
    </clipPath>
    <clipPath
       clipPathUnits="userSpaceOnUse"
       id="clipPath624">
      <path
         d="M 0,6057.336 H 2218.326 V 0 H 0 Z"
         id="path622"
         inkscape:connector-curvature="0" />
    </clipPath>
  </defs>
  <sodipodi:namedview
     id="base"
     pagecolor="#ffffff"
     bordercolor="#666666"
     borderopacity="1.0"
     inkscape:pageopacity="0.0"
     inkscape:pageshadow="2"
     inkscape:zoom="0.86269531"
     inkscape:cx="166.87307"
     inkscape:cy="83.447617"
     inkscape:document-units="mm"
     inkscape:current-layer="layer1"
     showgrid="false"
     fit-margin-top="0"
     fit-margin-left="0"
     fit-margin-right="0"
     fit-margin-bottom="0"
     inkscape:window-width="1440"
     inkscape:window-height="825"
     inkscape:window-x="0"
     inkscape:window-y="0"
     inkscape:window-maximized="1" />
  <metadata
     id="metadata902">
    <rdf:RDF>
      <cc:Work
         rdf:about="">
        <dc:format>image/svg+xml</dc:format>
        <dc:type
           rdf:resource="http://purl.org/dc/dcmitype/StillImage" />
        <dc:title></dc:title>
      </cc:Work>
    </rdf:RDF>
  </metadata>
  <g
     inkscape:label="Capa 1"
     inkscape:groupmode="layer"
     id="layer1"
     transform="translate(-61.681499,-101.81251)">
    <g
       transform="matrix(3.7701042,0,0,3.7701042,-408.98318,-265.39455)"
       id="g641">
      <g
         id="g594"
         transform="matrix(0.0170478,0,0,-0.0170478,122.95596,180.84726)">
        <g
           clip-path="url(#clipPath600)"
           id="g596">
          <g
             transform="translate(933.7383,4533.8418)"
             id="g602">
            <path
               inkscape:connector-curvature="0"
               id="path604"
               style="fill:#fcdbd7;fill-opacity:1;fill-rule:nonzero;stroke:none"
               d="m 0,0 c -1.445,-40.447 -11.548,-79.188 -21.414,-113.746 -51.934,-181.893 -159.318,-323.404 -308.426,-363.838 -161.668,-43.845 -339.53,110.484 -436.207,312.093 -32.474,67.721 -58.262,144.957 -57.06,218.872 1.054,64.949 32.028,122.496 68.437,156.197 64.224,59.447 152.236,52.779 232.406,-6.885 22.605,-16.82 44.368,-36.308 65.377,-57.14 72.92,-72.309 171.129,-25.787 238.07,-4.818 64.932,20.341 177.802,64.736 212.42,-75.028 C -0.914,43.571 0.771,21.545 0,0" />
          </g>
          <g
             transform="translate(420.9844,3966.1924)"
             id="g606">
            <path
               inkscape:connector-curvature="0"
               id="path608"
               style="fill:#fef7f5;fill-opacity:1;fill-rule:nonzero;stroke:none"
               d="m 0,0 h -266.424 c -14.708,0 -26.632,11.923 -26.632,26.63 v 415.512 c 0,14.708 11.924,26.629 26.632,26.629 H 0 c 14.709,0 26.633,-11.921 26.633,-26.629 V 26.63 C 26.633,11.923 14.709,0 0,0" />
          </g>
          <g
             transform="translate(420.9844,3966.1924)"
             id="g610">
            <path
               inkscape:connector-curvature="0"
               id="path612"
               style="fill:none;stroke:#ef2a4e;stroke-width:3;stroke-linecap:butt;stroke-linejoin:miter;stroke-miterlimit:10;stroke-dasharray:none;stroke-opacity:1"
               d="m 0,0 h -266.424 c -14.708,0 -26.632,11.923 -26.632,26.63 v 415.512 c 0,14.708 11.924,26.629 26.632,26.629 H 0 c 14.709,0 26.633,-11.921 26.633,-26.629 V 26.63 C 26.633,11.923 14.709,0 0,0 Z" />
          </g>
        </g>
      </g>
      <text
         id="text616"
         style="font-variant:normal;font-weight:bold;font-stretch:normal;font-size:0.41008657px;font-family:'Open Sans';-inkscape-font-specification:OpenSans-Bold;writing-mode:lr-tb;fill:#f36387;fill-opacity:1;fill-rule:nonzero;stroke:none;stroke-width:0.0170478"
         x="126.30116"
         y="106.42549">
        <tspan
           id="tspan614"
           sodipodi:role="line"
           y="106.42549"
           x="126.30116 126.67802 127.07664 127.42398 127.76928 128.21832 128.63742 129.03603"
           style="stroke-width:0.0170478">CALENDAR</tspan>
      </text>
      <g
         id="g618"
         transform="matrix(0.0170478,0,0,-0.0170478,122.95596,180.84726)">
        <g
           clip-path="url(#clipPath624)"
           id="g620">
          <g
             transform="translate(152.8281,4378.6631)"
             id="g626">
            <path
               inkscape:connector-curvature="0"
               id="path628"
               style="fill:none;stroke:#f9b0c2;stroke-width:1.20599997;stroke-linecap:round;stroke-linejoin:round;stroke-miterlimit:10;stroke-dasharray:none;stroke-opacity:1"
               d="M 0,0 H 15.04" />
          </g>
          <g
             transform="translate(152.8281,4372.2578)"
             id="g630">
            <path
               inkscape:connector-curvature="0"
               id="path632"
               style="fill:none;stroke:#f9b0c2;stroke-width:1.20599997;stroke-linecap:round;stroke-linejoin:round;stroke-miterlimit:10;stroke-dasharray:none;stroke-opacity:1"
               d="M 0,0 H 15.04" />
          </g>
          <g
             transform="translate(152.8281,4365.8506)"
             id="g634">
            <path
               inkscape:connector-curvature="0"
               id="path636"
               style="fill:none;stroke:#f9b0c2;stroke-width:1.20599997;stroke-linecap:round;stroke-linejoin:round;stroke-miterlimit:10;stroke-dasharray:none;stroke-opacity:1"
               d="M 0,0 H 15.04" />
          </g>
        </g>
      </g>
      <text
         id="text640"
         style="font-variant:normal;font-weight:bold;font-stretch:normal;font-size:0.3101694px;font-family:'Open Sans';-inkscape-font-specification:OpenSans-Bold;writing-mode:lr-tb;fill:#f9b0c2;fill-opacity:1;fill-rule:nonzero;stroke:none;stroke-width:0.0170478"
         x="126.82677"
         y="107.31799">
        <tspan
           id="tspan638"
           sodipodi:role="line"
           y="107.31799"
           x="126.82677 127.16114 127.44617 127.71323 128.04759 128.34349 128.60466"
           style="stroke-width:0.0170478">OCTOBER</tspan>
      </text>
      <g
         transform="matrix(0.0170478,0,0,-0.0170478,129.19567,107.3621)"
         id="g650">
        <path
           inkscape:connector-curvature="0"
           id="path652"
           style="fill:none;stroke:#f9b0c2;stroke-width:1.84099996;stroke-linecap:round;stroke-linejoin:round;stroke-miterlimit:10;stroke-dasharray:none;stroke-opacity:1"
           d="M 0,0 9.011,7.717 0,15.437" />
      </g>
      <g
         transform="matrix(0.0170478,0,0,-0.0170478,126.52798,107.09894)"
         id="g654">
        <path
           inkscape:connector-curvature="0"
           id="path656"
           style="fill:none;stroke:#f9b0c2;stroke-width:1.84099996;stroke-linecap:round;stroke-linejoin:round;stroke-miterlimit:10;stroke-dasharray:none;stroke-opacity:1"
           d="M 0,0 -9.01,-7.72 0,-15.437" />
      </g>
      <path
         inkscape:connector-curvature="0"
         id="path658"
         style="fill:#f36387;fill-opacity:1;fill-rule:nonzero;stroke:none;stroke-width:0.0170478"
         d="m 130.38724,108.20387 h -5.05077 v -0.70845 h 5.05077 z" />
      <g
         transform="matrix(0.0170478,0,0,-0.0170478,125.28752,106.66471)"
         id="g660">
        <path
           inkscape:connector-curvature="0"
           id="path662"
           style="fill:none;stroke:#f9b0c2;stroke-width:1.17200005;stroke-linecap:round;stroke-linejoin:round;stroke-miterlimit:10;stroke-dasharray:none;stroke-opacity:1"
           d="M 0,0 H 302.015" />
      </g>
      <g
         transform="matrix(0.0170478,0,0,-0.0170478,128.10348,109.07163)"
         id="g664">
        <path
           inkscape:connector-curvature="0"
           id="path666"
           style="fill:#f9b0c2;fill-opacity:1;fill-rule:nonzero;stroke:none"
           d="m 0,0 h -28.347 c -2.138,0 -3.873,1.735 -3.873,3.872 V 32.22 c 0,2.137 1.735,3.873 3.873,3.873 H 0 c 2.138,0 3.872,-1.736 3.872,-3.873 V 3.872 C 3.872,1.735 2.138,0 0,0" />
      </g>
      <g
         transform="matrix(0.0170478,0,0,-0.0170478,128.85081,109.07163)"
         id="g668">
        <path
           inkscape:connector-curvature="0"
           id="path670"
           style="fill:#f9b0c2;fill-opacity:1;fill-rule:nonzero;stroke:none"
           d="m 0,0 h -28.346 c -2.138,0 -3.873,1.735 -3.873,3.872 V 32.22 c 0,2.137 1.735,3.873 3.873,3.873 H 0 c 2.14,0 3.873,-1.736 3.873,-3.873 V 3.872 C 3.873,1.735 2.14,0 0,0" />
      </g>
      <g
         transform="matrix(0.0170478,0,0,-0.0170478,129.59815,109.07163)"
         id="g672">
        <path
           inkscape:connector-curvature="0"
           id="path674"
           style="fill:#f9b0c2;fill-opacity:1;fill-rule:nonzero;stroke:none"
           d="m 0,0 h -28.345 c -2.139,0 -3.873,1.735 -3.873,3.872 V 32.22 c 0,2.137 1.734,3.873 3.873,3.873 H 0 c 2.139,0 3.873,-1.736 3.873,-3.873 V 3.872 C 3.873,1.735 2.139,0 0,0" />
      </g>
      <g
         transform="matrix(0.0170478,0,0,-0.0170478,130.34547,109.07163)"
         id="g676">
        <path
           inkscape:connector-curvature="0"
           id="path678"
           style="fill:#f9b0c2;fill-opacity:1;fill-rule:nonzero;stroke:none"
           d="m 0,0 h -28.345 c -2.138,0 -3.872,1.735 -3.872,3.872 V 32.22 c 0,2.137 1.734,3.873 3.872,3.873 H 0 c 2.141,0 3.873,-1.736 3.873,-3.873 V 3.872 C 3.873,1.735 2.141,0 0,0" />
      </g>
      <g
         transform="matrix(0.0170478,0,0,-0.0170478,125.86145,109.90352)"
         id="g680">
        <path
           inkscape:connector-curvature="0"
           id="path682"
           style="fill:#f9b0c2;fill-opacity:1;fill-rule:nonzero;stroke:none"
           d="m 0,0 h -28.344 c -2.14,0 -3.875,1.735 -3.875,3.875 V 32.22 c 0,2.137 1.735,3.873 3.875,3.873 H 0 c 2.139,0 3.873,-1.736 3.873,-3.873 V 3.875 C 3.873,1.735 2.139,0 0,0" />
      </g>
      <g
         transform="matrix(0.0170478,0,0,-0.0170478,126.60879,109.90352)"
         id="g684">
        <path
           inkscape:connector-curvature="0"
           id="path686"
           style="fill:#f9b0c2;fill-opacity:1;fill-rule:nonzero;stroke:none"
           d="m 0,0 h -28.345 c -2.138,0 -3.873,1.735 -3.873,3.875 V 32.22 c 0,2.137 1.735,3.873 3.873,3.873 H 0 c 2.14,0 3.873,-1.736 3.873,-3.873 V 3.875 C 3.873,1.735 2.14,0 0,0" />
      </g>
      <g
         transform="matrix(0.0170478,0,0,-0.0170478,127.35613,109.90352)"
         id="g688">
        <path
           inkscape:connector-curvature="0"
           id="path690"
           style="fill:#f9b0c2;fill-opacity:1;fill-rule:nonzero;stroke:none"
           d="m 0,0 h -28.345 c -2.137,0 -3.873,1.735 -3.873,3.875 V 32.22 c 0,2.137 1.736,3.873 3.873,3.873 H 0 c 2.14,0 3.873,-1.736 3.873,-3.873 V 3.875 C 3.873,1.735 2.14,0 0,0" />
      </g>
      <g
         transform="matrix(0.0170478,0,0,-0.0170478,128.10348,109.90352)"
         id="g692">
        <path
           inkscape:connector-curvature="0"
           id="path694"
           style="fill:#f9b0c2;fill-opacity:1;fill-rule:nonzero;stroke:none"
           d="m 0,0 h -28.347 c -2.138,0 -3.873,1.735 -3.873,3.875 V 32.22 c 0,2.137 1.735,3.873 3.873,3.873 H 0 c 2.138,0 3.872,-1.736 3.872,-3.873 V 3.875 C 3.872,1.735 2.138,0 0,0" />
      </g>
      <g
         transform="matrix(0.0170478,0,0,-0.0170478,128.85081,109.90352)"
         id="g696">
        <path
           inkscape:connector-curvature="0"
           id="path698"
           style="fill:#f9b0c2;fill-opacity:1;fill-rule:nonzero;stroke:none"
           d="m 0,0 h -28.346 c -2.138,0 -3.873,1.735 -3.873,3.875 V 32.22 c 0,2.137 1.735,3.873 3.873,3.873 H 0 c 2.14,0 3.873,-1.736 3.873,-3.873 V 3.875 C 3.873,1.735 2.14,0 0,0" />
      </g>
      <g
         transform="matrix(0.0170478,0,0,-0.0170478,129.59815,109.90352)"
         id="g700">
        <path
           inkscape:connector-curvature="0"
           id="path702"
           style="fill:#f9b0c2;fill-opacity:1;fill-rule:nonzero;stroke:none"
           d="m 0,0 h -28.345 c -2.139,0 -3.873,1.735 -3.873,3.875 V 32.22 c 0,2.137 1.734,3.873 3.873,3.873 H 0 c 2.139,0 3.873,-1.736 3.873,-3.873 V 3.875 C 3.873,1.735 2.139,0 0,0" />
      </g>
      <g
         transform="matrix(0.0170478,0,0,-0.0170478,130.34547,109.90352)"
         id="g704">
        <path
           inkscape:connector-curvature="0"
           id="path706"
           style="fill:#f9b0c2;fill-opacity:1;fill-rule:nonzero;stroke:none"
           d="m 0,0 h -28.345 c -2.138,0 -3.872,1.735 -3.872,3.875 V 32.22 c 0,2.137 1.734,3.873 3.872,3.873 H 0 c 2.141,0 3.873,-1.736 3.873,-3.873 V 3.875 C 3.873,1.735 2.141,0 0,0" />
      </g>
      <g
         transform="matrix(0.0170478,0,0,-0.0170478,125.86145,110.73537)"
         id="g708">
        <path
           inkscape:connector-curvature="0"
           id="path710"
           style="fill:#f9b0c2;fill-opacity:1;fill-rule:nonzero;stroke:none"
           d="m 0,0 h -28.344 c -2.14,0 -3.875,1.732 -3.875,3.873 v 28.344 c 0,2.14 1.735,3.873 3.875,3.873 L 0,36.09 c 2.139,0 3.873,-1.733 3.873,-3.873 V 3.873 C 3.873,1.732 2.139,0 0,0" />
      </g>
      <g
         transform="matrix(0.0170478,0,0,-0.0170478,126.60879,110.73537)"
         id="g712">
        <path
           inkscape:connector-curvature="0"
           id="path714"
           style="fill:#f9b0c2;fill-opacity:1;fill-rule:nonzero;stroke:none"
           d="m 0,0 h -28.345 c -2.138,0 -3.873,1.732 -3.873,3.873 v 28.344 c 0,2.14 1.735,3.873 3.873,3.873 L 0,36.09 c 2.14,0 3.873,-1.733 3.873,-3.873 V 3.873 C 3.873,1.732 2.14,0 0,0" />
      </g>
      <g
         transform="matrix(0.0170478,0,0,-0.0170478,127.35613,110.73537)"
         id="g716">
        <path
           inkscape:connector-curvature="0"
           id="path718"
           style="fill:#f9b0c2;fill-opacity:1;fill-rule:nonzero;stroke:none"
           d="m 0,0 h -28.345 c -2.137,0 -3.873,1.732 -3.873,3.873 v 28.344 c 0,2.14 1.736,3.873 3.873,3.873 L 0,36.09 c 2.14,0 3.873,-1.733 3.873,-3.873 V 3.873 C 3.873,1.732 2.14,0 0,0" />
      </g>
      <g
         transform="matrix(0.0170478,0,0,-0.0170478,128.10348,110.73537)"
         id="g720">
        <path
           inkscape:connector-curvature="0"
           id="path722"
           style="fill:#f9b0c2;fill-opacity:1;fill-rule:nonzero;stroke:none"
           d="m 0,0 h -28.347 c -2.138,0 -3.873,1.732 -3.873,3.873 v 28.344 c 0,2.14 1.735,3.873 3.873,3.873 L 0,36.09 c 2.138,0 3.872,-1.733 3.872,-3.873 V 3.873 C 3.872,1.732 2.138,0 0,0" />
      </g>
      <g
         transform="matrix(0.0170478,0,0,-0.0170478,128.85081,110.73537)"
         id="g724">
        <path
           inkscape:connector-curvature="0"
           id="path726"
           style="fill:#f9b0c2;fill-opacity:1;fill-rule:nonzero;stroke:none"
           d="m 0,0 h -28.346 c -2.138,0 -3.873,1.732 -3.873,3.873 v 28.344 c 0,2.14 1.735,3.873 3.873,3.873 L 0,36.09 c 2.14,0 3.873,-1.733 3.873,-3.873 V 3.873 C 3.873,1.732 2.14,0 0,0" />
      </g>
      <g
         transform="matrix(0.0170478,0,0,-0.0170478,129.59815,110.73537)"
         id="g728">
        <path
           inkscape:connector-curvature="0"
           id="path730"
           style="fill:#f9b0c2;fill-opacity:1;fill-rule:nonzero;stroke:none"
           d="m 0,0 h -28.345 c -2.139,0 -3.873,1.732 -3.873,3.873 v 28.344 c 0,2.14 1.734,3.873 3.873,3.873 L 0,36.09 c 2.139,0 3.873,-1.733 3.873,-3.873 V 3.873 C 3.873,1.732 2.139,0 0,0" />
      </g>
      <g
         transform="matrix(0.0170478,0,0,-0.0170478,130.34547,110.73537)"
         id="g732">
        <path
           inkscape:connector-curvature="0"
           id="path734"
           style="fill:#f9b0c2;fill-opacity:1;fill-rule:nonzero;stroke:none"
           d="m 0,0 h -28.345 c -2.138,0 -3.872,1.732 -3.872,3.873 v 28.344 c 0,2.14 1.734,3.873 3.872,3.873 L 0,36.09 c 2.141,0 3.873,-1.733 3.873,-3.873 V 3.873 C 3.873,1.732 2.141,0 0,0" />
      </g>
      <g
         transform="matrix(0.0170478,0,0,-0.0170478,125.86145,111.56727)"
         id="g736">
        <path
           inkscape:connector-curvature="0"
           id="path738"
           style="fill:#f9b0c2;fill-opacity:1;fill-rule:nonzero;stroke:none"
           d="m 0,0 h -28.344 c -2.14,0 -3.875,1.735 -3.875,3.873 v 28.345 c 0,2.139 1.735,3.875 3.875,3.875 H 0 c 2.139,0 3.873,-1.736 3.873,-3.875 V 3.873 C 3.873,1.735 2.139,0 0,0" />
      </g>
      <g
         transform="matrix(0.0170478,0,0,-0.0170478,126.60879,111.56727)"
         id="g740">
        <path
           inkscape:connector-curvature="0"
           id="path742"
           style="fill:#f9b0c2;fill-opacity:1;fill-rule:nonzero;stroke:none"
           d="m 0,0 h -28.345 c -2.138,0 -3.873,1.735 -3.873,3.873 v 28.345 c 0,2.139 1.735,3.875 3.873,3.875 H 0 c 2.14,0 3.873,-1.736 3.873,-3.875 V 3.873 C 3.873,1.735 2.14,0 0,0" />
      </g>
      <g
         transform="matrix(0.0170478,0,0,-0.0170478,127.35613,111.56727)"
         id="g744">
        <path
           inkscape:connector-curvature="0"
           id="path746"
           style="fill:#f9b0c2;fill-opacity:1;fill-rule:nonzero;stroke:none"
           d="m 0,0 h -28.345 c -2.137,0 -3.873,1.735 -3.873,3.873 v 28.345 c 0,2.139 1.736,3.875 3.873,3.875 H 0 c 2.14,0 3.873,-1.736 3.873,-3.875 V 3.873 C 3.873,1.735 2.14,0 0,0" />
      </g>
      <g
         transform="matrix(0.0170478,0,0,-0.0170478,128.10348,111.56727)"
         id="g748">
        <path
           inkscape:connector-curvature="0"
           id="path750"
           style="fill:#f9b0c2;fill-opacity:1;fill-rule:nonzero;stroke:none"
           d="m 0,0 h -28.347 c -2.138,0 -3.873,1.735 -3.873,3.873 v 28.345 c 0,2.139 1.735,3.875 3.873,3.875 H 0 c 2.138,0 3.872,-1.736 3.872,-3.875 V 3.873 C 3.872,1.735 2.138,0 0,0" />
      </g>
      <g
         transform="matrix(0.0170478,0,0,-0.0170478,128.85081,111.56727)"
         id="g752">
        <path
           inkscape:connector-curvature="0"
           id="path754"
           style="fill:#f9b0c2;fill-opacity:1;fill-rule:nonzero;stroke:none"
           d="m 0,0 h -28.346 c -2.138,0 -3.873,1.735 -3.873,3.873 v 28.345 c 0,2.139 1.735,3.875 3.873,3.875 H 0 c 2.14,0 3.873,-1.736 3.873,-3.875 V 3.873 C 3.873,1.735 2.14,0 0,0" />
      </g>
      <g
         transform="matrix(0.0170478,0,0,-0.0170478,129.59815,111.56727)"
         id="g756">
        <path
           inkscape:connector-curvature="0"
           id="path758"
           style="fill:#f9b0c2;fill-opacity:1;fill-rule:nonzero;stroke:none"
           d="m 0,0 h -28.345 c -2.139,0 -3.873,1.735 -3.873,3.873 v 28.345 c 0,2.139 1.734,3.875 3.873,3.875 H 0 c 2.139,0 3.873,-1.736 3.873,-3.875 V 3.873 C 3.873,1.735 2.139,0 0,0" />
      </g>
      <g
         transform="matrix(0.0170478,0,0,-0.0170478,130.34547,111.56727)"
         id="g760">
        <path
           inkscape:connector-curvature="0"
           id="path762"
           style="fill:#f9b0c2;fill-opacity:1;fill-rule:nonzero;stroke:none"
           d="m 0,0 h -28.345 c -2.138,0 -3.872,1.735 -3.872,3.873 v 28.345 c 0,2.139 1.734,3.875 3.872,3.875 H 0 c 2.141,0 3.873,-1.736 3.873,-3.875 V 3.873 C 3.873,1.735 2.141,0 0,0" />
      </g>
      <g
         transform="matrix(0.0170478,0,0,-0.0170478,125.86145,112.39916)"
         id="g764">
        <path
           inkscape:connector-curvature="0"
           id="path766"
           style="fill:#f9b0c2;fill-opacity:1;fill-rule:nonzero;stroke:none"
           d="m 0,0 h -28.344 c -2.14,0 -3.875,1.735 -3.875,3.875 v 28.346 c 0,2.136 1.735,3.872 3.875,3.872 H 0 c 2.139,0 3.873,-1.736 3.873,-3.872 V 3.875 C 3.873,1.735 2.139,0 0,0" />
      </g>
      <g
         transform="matrix(0.0170478,0,0,-0.0170478,126.60879,112.39916)"
         id="g768">
        <path
           inkscape:connector-curvature="0"
           id="path770"
           style="fill:#f9b0c2;fill-opacity:1;fill-rule:nonzero;stroke:none"
           d="m 0,0 h -28.345 c -2.138,0 -3.873,1.735 -3.873,3.875 v 28.346 c 0,2.136 1.735,3.872 3.873,3.872 H 0 c 2.14,0 3.873,-1.736 3.873,-3.872 V 3.875 C 3.873,1.735 2.14,0 0,0" />
      </g>
      <g
         transform="matrix(0.0170478,0,0,-0.0170478,127.35613,112.39916)"
         id="g772">
        <path
           inkscape:connector-curvature="0"
           id="path774"
           style="fill:#f9b0c2;fill-opacity:1;fill-rule:nonzero;stroke:none"
           d="m 0,0 h -28.345 c -2.137,0 -3.873,1.735 -3.873,3.875 v 28.346 c 0,2.136 1.736,3.872 3.873,3.872 H 0 c 2.14,0 3.873,-1.736 3.873,-3.872 V 3.875 C 3.873,1.735 2.14,0 0,0" />
      </g>
      <g
         transform="matrix(0.0170478,0,0,-0.0170478,128.10348,112.39916)"
         id="g776">
        <path
           inkscape:connector-curvature="0"
           id="path778"
           style="fill:#f9b0c2;fill-opacity:1;fill-rule:nonzero;stroke:none"
           d="m 0,0 h -28.347 c -2.138,0 -3.873,1.735 -3.873,3.875 v 28.346 c 0,2.136 1.735,3.872 3.873,3.872 H 0 c 2.138,0 3.872,-1.736 3.872,-3.872 V 3.875 C 3.872,1.735 2.138,0 0,0" />
      </g>
      <g
         transform="matrix(0.0170478,0,0,-0.0170478,128.85081,112.39916)"
         id="g780">
        <path
           inkscape:connector-curvature="0"
           id="path782"
           style="fill:#f9b0c2;fill-opacity:1;fill-rule:nonzero;stroke:none"
           d="m 0,0 h -28.346 c -2.138,0 -3.873,1.735 -3.873,3.875 v 28.346 c 0,2.136 1.735,3.872 3.873,3.872 H 0 c 2.14,0 3.873,-1.736 3.873,-3.872 V 3.875 C 3.873,1.735 2.14,0 0,0" />
      </g>
      <g
         transform="matrix(0.0170478,0,0,-0.0170478,129.94871,110.48801)"
         id="g784">
        <path
           inkscape:connector-curvature="0"
           id="path786"
           style="fill:#ef2a4e;fill-opacity:1;fill-rule:nonzero;stroke:none"
           d="m 0,0 c 0,-5.026 4.075,-9.101 9.102,-9.101 5.028,0 9.101,4.075 9.101,9.101 0.646,10.006 -9.101,19.126 -9.101,19.126 0,0 -9.747,-9.12 -9.102,-19.126" />
      </g>
      <g
         transform="matrix(0.0170478,0,0,-0.0170478,129.20137,110.48801)"
         id="g788">
        <path
           inkscape:connector-curvature="0"
           id="path790"
           style="fill:#ef2a4e;fill-opacity:1;fill-rule:nonzero;stroke:none"
           d="m 0,0 c 0,-5.026 4.075,-9.101 9.102,-9.101 5.026,0 9.101,4.075 9.101,9.101 0.645,10.006 -9.101,19.126 -9.101,19.126 0,0 -9.747,-9.12 -9.102,-19.126" />
      </g>
      <g
         transform="matrix(0.0170478,0,0,-0.0170478,128.45402,110.48801)"
         id="g792">
        <path
           inkscape:connector-curvature="0"
           id="path794"
           style="fill:#ef2a4e;fill-opacity:1;fill-rule:nonzero;stroke:none"
           d="m 0,0 c 0,-5.026 4.076,-9.101 9.104,-9.101 5.026,0 9.1,4.075 9.1,9.101 0.645,10.006 -9.1,19.126 -9.1,19.126 0,0 -9.748,-9.12 -9.104,-19.126" />
      </g>
      <g
         transform="matrix(0.0170478,0,0,-0.0170478,127.70667,110.48801)"
         id="g796">
        <path
           inkscape:connector-curvature="0"
           id="path798"
           style="fill:#ef2a4e;fill-opacity:1;fill-rule:nonzero;stroke:none"
           d="m 0,0 c 0,-5.026 4.076,-9.101 9.103,-9.101 5.026,0 9.101,4.075 9.101,9.101 C 18.85,10.006 9.103,19.126 9.103,19.126 9.103,19.126 -0.644,10.006 0,0" />
      </g>
      <g
         transform="matrix(0.0170478,0,0,-0.0170478,136.80422,98.109087)"
         id="g800">
        <path
           inkscape:connector-curvature="0"
           id="path802"
           style="fill:#f36387;fill-opacity:1;fill-rule:nonzero;stroke:none"
           d="m 0,0 c -3.699,23.579 -23.117,22.191 -44.848,19.88 -21.728,-2.311 -86.92,-48.901 -113.271,-41.325 -26.354,7.574 -49.008,62.592 -109.111,63.056 -60.106,-0.464 -82.759,-55.482 -109.113,-63.056 -26.352,-7.576 -91.542,39.014 -113.273,41.325 -21.728,2.311 -41.148,3.699 -44.847,-19.88 -3.697,-23.58 9.71,-39.299 19.42,-56.867 9.71,-17.569 4.159,-27.279 12.078,-36.582 7.917,-9.307 18.898,-10.114 18.898,-10.114 0,0 -8.785,9.246 -11.558,18.03 -2.774,8.785 -0.463,17.568 -0.463,17.568 0,0 10.634,-3.698 14.332,-11.556 3.698,-7.86 18.956,-13.928 18.956,-13.928 0,0 -4.161,4.679 -8.784,16.701 -4.623,12.021 -13.87,18.031 -13.87,18.031 h 16.645 c 16.643,0 27.74,-6.01 27.74,-6.01 0,0 -5.548,13.409 -40.687,21.729 -35.139,8.323 -35.599,32.825 -18.492,40.685 17.105,7.861 48.545,-20.804 80.908,-33.749 32.363,-12.947 68.888,4.622 68.888,4.622 0,0 5.548,-24.04 13.871,-51.781 8.321,-27.739 34.212,-59.179 27.739,-88.769 -6.471,-29.588 11.096,-78.597 18.494,-109.112 7.397,-30.513 -5.548,-67.501 -4.624,-73.049 0.926,-5.546 27.742,5.548 27.742,5.548 0,0 26.814,-11.094 27.74,-5.548 0.924,5.548 -12.022,42.536 -4.625,73.049 7.398,30.515 24.967,79.524 18.494,109.112 -6.473,29.59 19.42,61.03 27.74,88.769 8.322,27.741 13.871,51.781 13.871,51.781 0,0 36.524,-17.569 68.887,-4.622 32.365,12.945 63.804,41.61 80.91,33.749 17.108,-7.86 16.645,-32.362 -18.493,-40.685 -35.138,-8.32 -40.686,-21.729 -40.686,-21.729 0,0 11.095,6.01 27.74,6.01 h 16.645 c 0,0 -9.248,-6.01 -13.87,-18.031 -4.624,-12.022 -8.785,-16.701 -8.785,-16.701 0,0 15.257,6.068 18.956,13.928 3.699,7.858 14.333,11.556 14.333,11.556 0,0 2.31,-8.783 -0.464,-17.568 -2.773,-8.784 -11.558,-18.03 -11.558,-18.03 0,0 10.981,0.807 18.898,10.114 7.918,9.303 2.37,19.013 12.079,36.582 C -9.709,-39.299 3.699,-23.58 0,0" />
      </g>
      <g
         transform="matrix(0.0170478,0,0,-0.0170478,132.63079,99.880547)"
         id="g804">
        <path
           inkscape:connector-curvature="0"
           id="path806"
           style="fill:#ef2a4e;fill-opacity:1;fill-rule:nonzero;stroke:none"
           d="m 0,0 c 12.137,34.329 59.642,76.632 51.319,93.972 -8.322,17.336 -73.742,30.513 -73.742,30.513 0,0 -65.422,-13.177 -73.742,-30.513 -8.324,-17.34 39.183,-59.643 51.317,-93.972 12.137,-34.327 14.911,-73.164 12.831,-93.622 -2.081,-20.458 -18.724,-30.168 -16.297,-37.797 2.426,-7.627 6.935,-9.709 6.935,-9.709 0,0 -5.549,-9.709 2.774,-19.07 0,0 -2.428,-12.137 3.121,-19.419 0,0 -2.427,-14.911 2.426,-21.154 0,0 -4.16,-13.175 -0.345,-18.029 0,0 -3.815,-4.161 -1.561,-10.75 2.253,-6.589 2.063,-19.02 2.063,-19.02 l 10.478,3.879 10.476,-3.879 c 0,0 -0.189,12.431 2.064,19.02 2.255,6.589 -1.559,10.75 -1.559,10.75 3.814,4.854 -0.348,18.029 -0.348,18.029 4.854,6.243 2.428,21.154 2.428,21.154 5.547,7.282 3.12,19.419 3.12,19.419 8.322,9.361 2.775,19.07 2.775,19.07 0,0 4.507,2.082 6.935,9.709 2.427,7.629 -14.218,17.339 -16.298,37.797 C -14.911,-73.164 -12.136,-34.327 0,0" />
      </g>
      <g
         transform="matrix(0.0170478,0,0,-0.0170478,129.18565,99.098747)"
         id="g808">
        <path
           inkscape:connector-curvature="0"
           id="path810"
           style="fill:#f683a1;fill-opacity:1;fill-rule:nonzero;stroke:none"
           d="m 0,0 c 0,0 11.951,1.646 16.805,-7.716 0,0 15.605,-1.041 20.459,-10.749 4.854,-9.71 -1.735,-16.932 -1.735,-16.932 0,0 8.077,-9.421 3.521,-17.396 -4.56,-7.976 -10.11,-7.976 -10.11,-7.976 0,0 2.544,-9.364 -3.466,-12.714 -4.632,-2.584 -11.79,-0.463 -11.79,-0.463 0,0 -14.563,-11.789 -23.58,-4.161 0,0 -15.256,-4.854 -18.723,5.547 0,0 -12.277,1.071 -11.444,14.218 0,0 -18.492,5.664 -16.007,22.945 C -53.586,-18.119 -61.538,12.223 0,0" />
      </g>
      <g
         transform="matrix(0.0170478,0,0,-0.0170478,129.71309,99.517697)"
         id="g812">
        <path
           inkscape:connector-curvature="0"
           id="path814"
           style="fill:#f9b0c2;fill-opacity:1;fill-rule:nonzero;stroke:none"
           d="m 0,0 c -1.459,-2.997 -6.253,-3.669 -10.707,-1.501 -4.455,2.169 -6.881,6.357 -5.421,9.356 1.459,2.998 6.253,3.669 10.707,1.5 C -0.968,7.186 1.46,2.997 0,0" />
      </g>
      <g
         transform="matrix(0.0170478,0,0,-0.0170478,129.54339,99.803317)"
         id="g816">
        <path
           inkscape:connector-curvature="0"
           id="path818"
           style="fill:#f9b0c2;fill-opacity:1;fill-rule:nonzero;stroke:none"
           d="m 0,0 c 1.669,2.888 6.498,3.221 10.788,0.744 4.29,-2.476 6.417,-6.826 4.749,-9.714 C 13.871,-11.857 9.041,-12.191 4.751,-9.714 0.459,-7.235 -1.667,-2.887 0,0" />
      </g>
      <g
         transform="matrix(0.0170478,0,0,-0.0170478,129.30106,100.11662)"
         id="g820">
        <path
           inkscape:connector-curvature="0"
           id="path822"
           style="fill:#f9b0c2;fill-opacity:1;fill-rule:nonzero;stroke:none"
           d="m 0,0 c 1.667,2.888 6.497,3.22 10.787,0.744 4.291,-2.476 6.417,-6.825 4.75,-9.714 C 13.87,-11.858 9.041,-12.189 4.75,-9.714 0.459,-7.236 -1.667,-2.888 0,0" />
      </g>
      <g
         transform="matrix(0.0170478,0,0,-0.0170478,128.86005,100.17477)"
         id="g824">
        <path
           inkscape:connector-curvature="0"
           id="path826"
           style="fill:#f9b0c2;fill-opacity:1;fill-rule:nonzero;stroke:none"
           d="m 0,0 c 1.666,2.888 6.496,3.221 10.786,0.744 4.29,-2.476 6.418,-6.825 4.75,-9.715 C 13.867,-11.857 9.039,-12.189 4.749,-9.713 0.459,-7.236 -1.668,-2.888 0,0" />
      </g>
      <g
         transform="matrix(0.0170478,0,0,-0.0170478,128.43738,99.855557)"
         id="g828">
        <path
           inkscape:connector-curvature="0"
           id="path830"
           style="fill:#f9b0c2;fill-opacity:1;fill-rule:nonzero;stroke:none"
           d="M 0,0 C 1.667,2.888 6.496,3.222 10.787,0.744 15.076,-1.733 17.202,-6.083 15.535,-8.97 13.869,-11.855 9.039,-12.19 4.75,-9.714 0.459,-7.235 -1.667,-2.887 0,0" />
      </g>
      <g
         transform="matrix(0.0170478,0,0,-0.0170478,128.43738,99.474277)"
         id="g832">
        <path
           inkscape:connector-curvature="0"
           id="path834"
           style="fill:#f9b0c2;fill-opacity:1;fill-rule:nonzero;stroke:none"
           d="M 0,0 C 1.667,2.889 6.496,3.221 10.787,0.744 15.076,-1.732 17.202,-6.08 15.535,-8.97 13.869,-11.856 9.039,-12.189 4.75,-9.712 0.459,-7.235 -1.667,-2.887 0,0" />
      </g>
      <g
         transform="matrix(0.0170478,0,0,-0.0170478,128.83934,99.803317)"
         id="g836">
        <path
           inkscape:connector-curvature="0"
           id="path838"
           style="fill:#f9b0c2;fill-opacity:1;fill-rule:nonzero;stroke:none"
           d="M 0,0 C 1.668,2.888 6.498,3.221 10.788,0.744 15.077,-1.732 17.203,-6.082 15.536,-8.97 13.869,-11.857 9.039,-12.191 4.75,-9.714 0.46,-7.235 -1.667,-2.887 0,0" />
      </g>
      <g
         transform="matrix(0.0170478,0,0,-0.0170478,129.12226,99.560187)"
         id="g840">
        <path
           inkscape:connector-curvature="0"
           id="path842"
           style="fill:#f9b0c2;fill-opacity:1;fill-rule:nonzero;stroke:none"
           d="m 0,0 c 1.67,2.889 6.499,3.221 10.787,0.744 4.291,-2.477 6.417,-6.826 4.751,-9.713 C 13.871,-11.856 9.041,-12.189 4.751,-9.713 0.461,-7.236 -1.666,-2.888 0,0" />
      </g>
      <g
         transform="matrix(0.0170478,0,0,-0.0170478,128.89318,99.226537)"
         id="g844">
        <path
           inkscape:connector-curvature="0"
           id="path846"
           style="fill:#f9b0c2;fill-opacity:1;fill-rule:nonzero;stroke:none"
           d="m 0,0 c 1.668,2.888 6.497,3.22 10.787,0.744 4.289,-2.477 6.416,-6.827 4.748,-9.715 C 13.868,-11.858 9.039,-12.19 4.749,-9.715 0.459,-7.237 -1.668,-2.888 0,0" />
      </g>
      <g
         transform="matrix(0.0170478,0,0,-0.0170478,127.81346,98.374427)"
         id="g848">
        <path
           inkscape:connector-curvature="0"
           id="path850"
           style="fill:#f9b0c2;fill-opacity:1;fill-rule:nonzero;stroke:none"
           d="m 0,0 c 0,0 -0.318,0.666 -0.784,1.862 -0.477,1.196 -1.047,2.945 -1.58,5.101 -0.266,1.078 -0.507,2.262 -0.699,3.533 -0.202,1.27 -0.303,2.629 -0.346,4.051 -0.006,1.42 0.018,2.911 0.286,4.418 0.088,0.758 0.302,1.51 0.463,2.274 0.245,0.746 0.426,1.521 0.756,2.251 0.552,1.502 1.373,2.918 2.276,4.26 0.51,0.623 0.958,1.315 1.554,1.846 0.283,0.28 0.564,0.562 0.856,0.826 0.301,0.254 0.617,0.478 0.925,0.712 0.623,0.463 1.267,0.852 1.933,1.167 0.643,0.361 1.309,0.609 1.963,0.832 0.324,0.115 0.641,0.234 0.96,0.331 0.321,0.077 0.637,0.151 0.948,0.225 0.628,0.12 1.218,0.303 1.803,0.336 1.164,0.127 2.219,0.215 3.155,0.162 0.934,-0.028 1.737,-0.064 2.399,-0.196 1.319,-0.208 2.053,-0.409 2.053,-0.409 0.123,-0.033 0.195,-0.16 0.162,-0.282 -0.02,-0.07 -0.068,-0.122 -0.129,-0.15 L 18.94,33.145 c 0,0 -0.712,-0.315 -1.923,-0.721 -0.61,-0.188 -1.329,-0.475 -2.141,-0.773 -0.401,-0.172 -0.849,-0.256 -1.282,-0.467 -0.44,-0.189 -0.898,-0.386 -1.376,-0.567 -0.487,-0.17 -0.947,-0.433 -1.442,-0.656 C 10.531,29.852 10.281,29.739 10.028,29.626 9.788,29.492 9.545,29.357 9.298,29.221 8.806,28.949 8.29,28.699 7.818,28.369 7.577,28.213 7.333,28.057 7.076,27.916 6.825,27.767 6.604,27.576 6.362,27.408 6.123,27.24 5.864,27.088 5.627,26.908 5.404,26.713 5.166,26.532 4.927,26.347 4.427,25.996 4.021,25.543 3.546,25.133 2.7,24.227 1.871,23.224 1.298,22.043 0.962,21.481 0.754,20.848 0.478,20.247 0.281,19.613 0.025,18.996 -0.116,18.343 -0.472,17.061 -0.674,15.736 -0.83,14.445 -1.076,11.851 -1.032,9.354 -0.822,7.224 -0.624,5.09 -0.287,3.318 -0.039,2.082 0.216,0.844 0.412,0.152 0.412,0.152 0.445,0.035 0.377,-0.086 0.261,-0.119 0.155,-0.148 0.046,-0.096 0,0" />
      </g>
      <g
         transform="matrix(0.0170478,0,0,-0.0170478,132.12144,97.490037)"
         id="g852">
        <path
           inkscape:connector-curvature="0"
           id="path854"
           style="fill:#f9b0c2;fill-opacity:1;fill-rule:nonzero;stroke:none"
           d="m 0,0 c 0,0 -3.841,-1.324 -9.503,-3.542 -1.406,-0.574 -2.93,-1.196 -4.541,-1.854 -1.594,-0.699 -3.301,-1.363 -5.024,-2.153 -1.735,-0.762 -3.517,-1.567 -5.313,-2.411 -1.809,-0.815 -3.611,-1.714 -5.409,-2.616 -1.804,-0.892 -3.541,-1.901 -5.262,-2.866 -1.714,-0.98 -3.339,-2.027 -4.981,-2.919 -1.62,-0.924 -3.164,-1.839 -4.69,-2.625 -1.466,-0.862 -2.86,-1.671 -4.177,-2.392 -1.278,-0.778 -2.448,-1.492 -3.486,-2.125 -1.086,-0.593 -1.93,-1.226 -2.675,-1.71 -1.476,-0.98 -2.398,-1.506 -2.398,-1.506 l -0.02,-0.011 c -0.107,-0.061 -0.244,-0.024 -0.304,0.084 -0.042,0.074 -0.037,0.161 0.004,0.228 0,0 0.546,0.877 1.638,2.352 0.278,0.367 0.585,0.775 0.919,1.218 0.33,0.455 0.768,0.846 1.196,1.321 0.431,0.468 0.921,0.933 1.424,1.445 0.514,0.492 1.02,1.076 1.637,1.547 1.202,0.99 2.502,2.089 3.949,3.143 1.473,1.001 3.044,2.049 4.729,3.013 1.721,0.892 3.501,1.82 5.374,2.606 1.879,0.771 3.734,1.664 5.656,2.39 1.897,0.784 3.793,1.563 5.687,2.254 1.877,0.736 3.754,1.373 5.57,1.986 3.625,1.246 7.056,2.248 9.998,3.083 1.479,0.398 2.824,0.787 4.029,1.088 1.202,0.316 2.251,0.581 3.122,0.778 1.74,0.393 2.734,0.618 2.734,0.618 C 0.001,0.45 0.119,0.376 0.146,0.258 0.171,0.147 0.104,0.037 0,0" />
      </g>
      <g
         transform="matrix(0.0170478,0,0,-0.0170478,131.69553,98.033957)"
         id="g856">
        <path
           inkscape:connector-curvature="0"
           id="path858"
           style="fill:#f36387;fill-opacity:1;fill-rule:nonzero;stroke:none"
           d="m 0,0 c 0,0 -1.381,-0.317 -3.773,-0.978 -2.387,-0.669 -5.801,-1.628 -9.79,-3.05 -1.995,-0.711 -4.133,-1.532 -6.335,-2.506 -2.193,-0.988 -4.494,-2.063 -6.662,-3.442 -1.092,-0.673 -2.129,-1.441 -3.105,-2.262 -0.939,-0.847 -1.797,-1.777 -2.377,-2.78 -0.293,-0.501 -0.485,-1.016 -0.619,-1.527 -0.025,-0.259 -0.095,-0.512 -0.105,-0.767 l 0.025,-0.696 0.182,-1.047 0.243,-0.825 c 0.2,-0.577 0.411,-1.199 0.693,-1.792 1.072,-2.397 2.602,-4.711 4.199,-6.901 1.618,-2.191 3.32,-4.297 4.95,-6.364 1.615,-2.078 3.198,-4.089 4.643,-6.056 0.73,-0.981 1.44,-1.935 2.127,-2.858 0.667,-0.945 1.31,-1.858 1.93,-2.734 1.232,-1.762 2.298,-3.437 3.199,-4.961 0.891,-1.529 1.603,-2.915 2.105,-4.101 0.496,-1.196 0.787,-2.184 0.903,-2.879 0.074,-0.339 0.068,-0.623 0.092,-0.799 0.015,-0.178 0.023,-0.271 0.023,-0.271 0.01,-0.12 -0.08,-0.226 -0.201,-0.236 -0.096,-0.009 -0.183,0.048 -0.219,0.131 l -0.014,0.031 c 0,0 -0.034,0.08 -0.101,0.235 -0.076,0.154 -0.143,0.384 -0.311,0.665 -0.303,0.572 -0.812,1.371 -1.539,2.339 -0.744,0.963 -1.689,2.104 -2.821,3.383 -1.121,1.287 -2.443,2.704 -3.865,4.274 -0.718,0.783 -1.464,1.598 -2.238,2.442 -0.763,0.858 -1.552,1.745 -2.364,2.657 -1.636,1.82 -3.298,3.806 -4.958,5.927 -1.638,2.139 -3.255,4.427 -4.755,6.879 -1.481,2.466 -2.983,5.001 -4.042,7.878 -0.283,0.711 -0.496,1.449 -0.709,2.226 l -0.265,1.241 -0.122,1.055 c -0.168,1.958 0.455,3.661 1.362,5.036 1.854,2.721 4.375,4.301 6.765,5.653 2.42,1.333 4.85,2.336 7.182,3.172 2.333,0.832 4.564,1.504 6.635,2.072 4.142,1.128 7.631,1.867 10.085,2.316 2.452,0.453 3.865,0.652 3.865,0.652 C 0.038,0.45 0.15,0.366 0.168,0.247 0.185,0.134 0.109,0.026 0,0" />
      </g>
      <g
         transform="matrix(0.0170478,0,0,-0.0170478,135.31139,99.098747)"
         id="g860">
        <path
           inkscape:connector-curvature="0"
           id="path862"
           style="fill:#f683a1;fill-opacity:1;fill-rule:nonzero;stroke:none"
           d="m 0,0 c 0,0 -11.95,1.646 -16.805,-7.716 0,0 -15.605,-1.041 -20.458,-10.749 -4.855,-9.71 1.733,-16.932 1.733,-16.932 0,0 -8.076,-9.421 -3.519,-17.396 4.56,-7.976 10.108,-7.976 10.108,-7.976 0,0 -2.543,-9.364 3.466,-12.714 4.634,-2.584 11.79,-0.463 11.79,-0.463 0,0 14.563,-11.789 23.58,-4.161 0,0 15.256,-4.854 18.725,5.547 0,0 12.276,1.071 11.443,14.218 0,0 18.493,5.664 16.007,22.945 C 53.586,-18.119 61.538,12.223 0,0" />
      </g>
      <g
         transform="matrix(0.0170478,0,0,-0.0170478,134.78396,99.517697)"
         id="g864">
        <path
           inkscape:connector-curvature="0"
           id="path866"
           style="fill:#f9b0c2;fill-opacity:1;fill-rule:nonzero;stroke:none"
           d="m 0,0 c 1.46,-2.997 6.254,-3.669 10.708,-1.501 4.453,2.169 6.88,6.357 5.421,9.356 -1.461,2.998 -6.254,3.669 -10.707,1.5 C 0.968,7.186 -1.461,2.997 0,0" />
      </g>
      <g
         transform="matrix(0.0170478,0,0,-0.0170478,134.95364,99.803317)"
         id="g868">
        <path
           inkscape:connector-curvature="0"
           id="path870"
           style="fill:#f9b0c2;fill-opacity:1;fill-rule:nonzero;stroke:none"
           d="m 0,0 c -1.668,2.888 -6.497,3.221 -10.787,0.744 -4.29,-2.476 -6.417,-6.826 -4.749,-9.714 1.667,-2.887 6.497,-3.221 10.786,-0.744 C -0.459,-7.235 1.667,-2.887 0,0" />
      </g>
      <g
         transform="matrix(0.0170478,0,0,-0.0170478,135.19599,100.11662)"
         id="g872">
        <path
           inkscape:connector-curvature="0"
           id="path874"
           style="fill:#f9b0c2;fill-opacity:1;fill-rule:nonzero;stroke:none"
           d="m 0,0 c -1.668,2.888 -6.497,3.22 -10.787,0.744 -4.29,-2.476 -6.417,-6.825 -4.749,-9.714 1.667,-2.888 6.496,-3.219 10.787,-0.744 C -0.46,-7.236 1.667,-2.888 0,0" />
      </g>
      <g
         transform="matrix(0.0170478,0,0,-0.0170478,135.63702,100.17477)"
         id="g876">
        <path
           inkscape:connector-curvature="0"
           id="path878"
           style="fill:#f9b0c2;fill-opacity:1;fill-rule:nonzero;stroke:none"
           d="m 0,0 c -1.667,2.888 -6.496,3.221 -10.787,0.744 -4.291,-2.476 -6.417,-6.825 -4.75,-9.715 1.667,-2.886 6.496,-3.218 10.788,-0.742 C -0.459,-7.236 1.668,-2.888 0,0" />
      </g>
      <g
         transform="matrix(0.0170478,0,0,-0.0170478,136.05968,99.855557)"
         id="g880">
        <path
           inkscape:connector-curvature="0"
           id="path882"
           style="fill:#f9b0c2;fill-opacity:1;fill-rule:nonzero;stroke:none"
           d="m 0,0 c -1.667,2.888 -6.497,3.222 -10.787,0.744 -4.29,-2.477 -6.417,-6.827 -4.749,-9.714 1.667,-2.885 6.496,-3.22 10.786,-0.744 C -0.459,-7.235 1.666,-2.887 0,0" />
      </g>
      <g
         transform="matrix(0.0170478,0,0,-0.0170478,136.05968,99.474277)"
         id="g884">
        <path
           inkscape:connector-curvature="0"
           id="path886"
           style="fill:#f9b0c2;fill-opacity:1;fill-rule:nonzero;stroke:none"
           d="m 0,0 c -1.667,2.889 -6.497,3.221 -10.787,0.744 -4.29,-2.476 -6.417,-6.824 -4.749,-9.714 1.667,-2.886 6.496,-3.219 10.786,-0.742 C -0.459,-7.235 1.666,-2.887 0,0" />
      </g>
      <g
         transform="matrix(0.0170478,0,0,-0.0170478,135.65769,99.803317)"
         id="g888">
        <path
           inkscape:connector-curvature="0"
           id="path890"
           style="fill:#f9b0c2;fill-opacity:1;fill-rule:nonzero;stroke:none"
           d="m 0,0 c -1.666,2.888 -6.496,3.221 -10.786,0.744 -4.29,-2.476 -6.416,-6.826 -4.749,-9.714 1.666,-2.887 6.496,-3.221 10.786,-0.744 C -0.459,-7.235 1.668,-2.887 0,0" />
      </g>
      <g
         transform="matrix(0.0170478,0,0,-0.0170478,135.37477,99.560187)"
         id="g892">
        <path
           inkscape:connector-curvature="0"
           id="path894"
           style="fill:#f9b0c2;fill-opacity:1;fill-rule:nonzero;stroke:none"
           d="m 0,0 c -1.668,2.889 -6.497,3.221 -10.787,0.744 -4.29,-2.477 -6.417,-6.826 -4.751,-9.713 1.669,-2.887 6.497,-3.22 10.788,-0.744 C -0.459,-7.236 1.666,-2.888 0,0" />
      </g>
      <g
         transform="matrix(0.0170478,0,0,-0.0170478,135.60387,99.226537)"
         id="g896">
        <path
           inkscape:connector-curvature="0"
           id="path898"
           style="fill:#f9b0c2;fill-opacity:1;fill-rule:nonzero;stroke:none"
           d="m 0,0 c -1.667,2.888 -6.497,3.22 -10.786,0.744 -4.291,-2.477 -6.417,-6.827 -4.75,-9.715 1.667,-2.887 6.497,-3.219 10.787,-0.744 C -0.459,-7.237 1.668,-2.888 0,0" />
      </g>
      <g
         transform="matrix(0.0170478,0,0,-0.0170478,136.67658,98.371827)"
         id="g900">
        <path
           inkscape:connector-curvature="0"
           id="path902"
           style="fill:#f9b0c2;fill-opacity:1;fill-rule:nonzero;stroke:none"
           d="m 0,0 c 0,0 0.196,0.691 0.451,1.93 0.248,1.236 0.585,3.007 0.783,5.142 0.21,2.13 0.254,4.626 0.007,7.221 -0.155,1.291 -0.357,2.615 -0.713,3.898 -0.142,0.653 -0.397,1.27 -0.594,1.905 -0.277,0.599 -0.484,1.233 -0.82,1.795 -0.573,1.18 -1.403,2.183 -2.248,3.089 -0.474,0.411 -0.882,0.864 -1.382,1.214 -0.239,0.186 -0.476,0.367 -0.7,0.562 -0.236,0.18 -0.495,0.332 -0.735,0.5 -0.241,0.168 -0.463,0.358 -0.714,0.508 -0.256,0.14 -0.501,0.297 -0.742,0.453 -0.472,0.33 -0.988,0.58 -1.48,0.851 -0.247,0.137 -0.49,0.272 -0.729,0.406 -0.254,0.113 -0.504,0.225 -0.75,0.335 -0.494,0.222 -0.954,0.486 -1.441,0.656 -0.478,0.181 -0.936,0.378 -1.376,0.566 -0.433,0.211 -0.88,0.295 -1.282,0.468 -0.812,0.298 -1.531,0.585 -2.14,0.772 -1.212,0.407 -1.924,0.721 -1.924,0.721 l -0.013,0.005 c -0.116,0.052 -0.169,0.188 -0.118,0.304 0.029,0.066 0.086,0.111 0.15,0.129 0,0 0.734,0.201 2.054,0.409 0.661,0.132 1.464,0.168 2.398,0.195 0.936,0.054 1.992,-0.034 3.155,-0.161 0.586,-0.033 1.175,-0.217 1.802,-0.336 0.312,-0.074 0.628,-0.148 0.95,-0.225 0.318,-0.097 0.636,-0.215 0.961,-0.332 0.652,-0.222 1.318,-0.47 1.962,-0.832 0.666,-0.314 1.309,-0.704 1.932,-1.167 0.308,-0.233 0.625,-0.458 0.925,-0.711 0.292,-0.264 0.573,-0.546 0.856,-0.827 0.596,-0.529 1.045,-1.222 1.554,-1.844 C 0.943,26.256 1.763,24.84 2.315,23.338 2.646,22.607 2.827,21.833 3.072,21.087 3.233,20.322 3.446,19.571 3.535,18.812 3.803,17.306 3.826,15.815 3.82,14.395 3.778,12.974 3.677,11.613 3.476,10.344 3.283,9.073 3.042,7.889 2.776,6.811 2.243,4.654 1.673,2.906 1.196,1.71 0.73,0.514 0.412,-0.152 0.412,-0.152 0.36,-0.264 0.229,-0.311 0.119,-0.26 0.021,-0.213 -0.027,-0.102 0,0" />
      </g>
      <g
         transform="matrix(0.0170478,0,0,-0.0170478,131.92584,102.28465)"
         id="g904">
        <path
           inkscape:connector-curvature="0"
           id="path906"
           style="fill:#f36387;fill-opacity:1;fill-rule:nonzero;stroke:none"
           d="m 0,0 c 0,0 2.314,-0.594 5.86,-1.121 0.885,-0.14 1.848,-0.263 2.867,-0.386 1.017,-0.133 2.097,-0.214 3.21,-0.329 1.117,-0.065 2.269,-0.176 3.444,-0.212 1.174,-0.039 2.366,-0.098 3.559,-0.082 l 1.788,-0.021 c 0.593,0.015 1.185,0.03 1.772,0.047 1.176,0.013 2.329,0.087 3.444,0.175 1.118,0.058 2.193,0.18 3.21,0.31 1.02,0.114 1.982,0.229 2.862,0.401 0.881,0.154 1.69,0.294 2.407,0.418 0.708,0.166 1.325,0.309 1.834,0.428 1.017,0.236 1.599,0.371 1.599,0.371 0.059,0.014 0.118,-0.022 0.13,-0.081 0.012,-0.049 -0.011,-0.098 -0.053,-0.12 l -0.02,-0.01 c 0,0 -0.539,-0.29 -1.516,-0.742 -0.489,-0.22 -1.084,-0.499 -1.781,-0.775 -0.7,-0.256 -1.498,-0.53 -2.381,-0.792 -0.441,-0.13 -0.898,-0.289 -1.379,-0.412 -0.48,-0.123 -0.982,-0.216 -1.497,-0.332 -1.03,-0.23 -2.12,-0.473 -3.262,-0.586 -1.14,-0.145 -2.319,-0.333 -3.525,-0.361 -0.602,-0.03 -1.209,-0.06 -1.819,-0.09 L 18.92,-4.324 c -1.225,0.007 -2.444,0.099 -3.646,0.168 -1.203,0.044 -2.373,0.272 -3.508,0.395 -1.132,0.168 -2.221,0.368 -3.245,0.604 -1.027,0.211 -1.988,0.463 -2.867,0.728 -0.883,0.233 -1.678,0.523 -2.382,0.767 -0.703,0.249 -1.305,0.5 -1.798,0.714 -0.496,0.203 -0.874,0.407 -1.135,0.534 -0.257,0.132 -0.394,0.201 -0.394,0.201 l -0.021,0.011 C -0.13,-0.175 -0.151,-0.108 -0.124,-0.056 -0.101,-0.01 -0.048,0.013 0,0" />
      </g>
      <g
         transform="matrix(0.0170478,0,0,-0.0170478,131.97304,102.60975)"
         id="g908">
        <path
           inkscape:connector-curvature="0"
           id="path910"
           style="fill:#f36387;fill-opacity:1;fill-rule:nonzero;stroke:none"
           d="m 0,0 c 0,0 1.991,-0.406 5.021,-0.767 0.756,-0.096 1.578,-0.184 2.448,-0.265 0.868,-0.096 1.788,-0.148 2.737,-0.228 1.901,-0.117 3.933,-0.209 5.963,-0.208 1.016,-0.014 2.031,-0.028 3.03,0.005 1,0.01 1.984,0.045 2.934,0.111 0.951,0.043 1.869,0.11 2.736,0.207 0.869,0.086 1.693,0.153 2.444,0.276 0.754,0.107 1.446,0.207 2.059,0.295 0.607,0.117 1.137,0.22 1.573,0.305 0.872,0.171 1.371,0.269 1.371,0.269 0.059,0.012 0.116,-0.027 0.127,-0.086 0.009,-0.047 -0.013,-0.094 -0.054,-0.115 l -0.024,-0.014 c 0,0 -0.463,-0.253 -1.301,-0.639 -0.419,-0.187 -0.929,-0.429 -1.529,-0.657 -0.601,-0.211 -1.283,-0.45 -2.039,-0.667 -0.752,-0.246 -1.577,-0.443 -2.458,-0.617 -0.88,-0.195 -1.811,-0.386 -2.783,-0.481 -0.972,-0.123 -1.976,-0.27 -3.001,-0.295 -1.025,-0.063 -2.066,-0.077 -3.107,-0.091 -1.042,0.009 -2.079,0.095 -3.1,0.142 -1.022,0.044 -2.019,0.224 -2.984,0.333 -0.965,0.132 -1.892,0.302 -2.764,0.499 -0.876,0.169 -1.695,0.386 -2.447,0.606 -1.506,0.412 -2.734,0.885 -3.581,1.244 -0.425,0.169 -0.751,0.346 -0.976,0.452 -0.222,0.112 -0.34,0.171 -0.34,0.171 L -0.07,-0.202 C -0.123,-0.176 -0.145,-0.11 -0.118,-0.057 -0.096,-0.013 -0.047,0.01 0,0" />
      </g>
      <g
         transform="matrix(0.0170478,0,0,-0.0170478,132.02653,102.94088)"
         id="g912">
        <path
           inkscape:connector-curvature="0"
           id="path914"
           style="fill:#f36387;fill-opacity:1;fill-rule:nonzero;stroke:none"
           d="m 0,0 c 0,0 1.565,-0.595 4.003,-1.201 1.222,-0.287 2.649,-0.619 4.202,-0.838 0.772,-0.138 1.579,-0.205 2.396,-0.302 0.817,-0.083 1.652,-0.112 2.484,-0.165 0.833,-0.002 1.668,-0.057 2.488,-0.017 0.818,0.058 1.631,0.035 2.403,0.165 0.772,0.112 1.532,0.155 2.226,0.339 0.694,0.171 1.373,0.259 1.961,0.471 0.595,0.194 1.14,0.373 1.622,0.531 0.476,0.178 0.868,0.388 1.202,0.533 0.664,0.304 1.043,0.478 1.043,0.478 0.055,0.026 0.119,0.001 0.145,-0.054 0.019,-0.044 0.009,-0.092 -0.024,-0.124 l -0.015,-0.015 c 0,0 -0.079,-0.076 -0.228,-0.218 -0.152,-0.138 -0.364,-0.364 -0.666,-0.608 -0.3,-0.244 -0.654,-0.586 -1.111,-0.877 -0.46,-0.282 -0.987,-0.602 -1.589,-0.911 -0.592,-0.339 -1.276,-0.565 -2.004,-0.83 -0.726,-0.289 -1.514,-0.461 -2.338,-0.63 -0.411,-0.096 -0.83,-0.171 -1.257,-0.217 -0.425,-0.061 -0.858,-0.114 -1.297,-0.142 -0.875,-0.069 -1.758,-0.043 -2.647,-0.066 -0.879,0.077 -1.761,0.143 -2.617,0.257 -0.858,0.109 -1.691,0.297 -2.486,0.494 -0.801,0.17 -1.555,0.426 -2.261,0.676 -0.715,0.218 -1.364,0.525 -1.962,0.787 -1.194,0.539 -2.138,1.105 -2.776,1.543 -0.323,0.203 -0.562,0.412 -0.727,0.537 -0.162,0.13 -0.248,0.199 -0.248,0.199 l -0.027,0.021 c -0.046,0.038 -0.053,0.105 -0.016,0.151 C -0.092,0.004 -0.042,0.016 0,0" />
      </g>
      <g
         transform="matrix(0.0170478,0,0,-0.0170478,132.06787,103.30148)"
         id="g916">
        <path
           inkscape:connector-curvature="0"
           id="path918"
           style="fill:#f36387;fill-opacity:1;fill-rule:nonzero;stroke:none"
           d="m 0,0 c 0,0 1.284,-0.43 3.27,-0.867 0.991,-0.221 2.153,-0.455 3.411,-0.62 1.255,-0.181 2.604,-0.286 3.954,-0.329 0.675,0.002 1.35,-0.049 2.013,-0.004 0.664,0.037 1.32,0.037 1.946,0.129 0.628,0.076 1.239,0.123 1.804,0.254 0.565,0.126 1.116,0.183 1.594,0.347 0.487,0.137 0.934,0.264 1.329,0.375 0.39,0.129 0.719,0.273 0.995,0.375 0.552,0.213 0.868,0.336 0.868,0.336 0.055,0.022 0.118,-0.006 0.139,-0.062 0.016,-0.041 0.005,-0.086 -0.024,-0.116 l -0.022,-0.021 c 0,0 -0.064,-0.065 -0.185,-0.185 -0.123,-0.116 -0.296,-0.311 -0.543,-0.513 -0.246,-0.204 -0.539,-0.486 -0.911,-0.731 -0.374,-0.236 -0.805,-0.507 -1.296,-0.758 -0.485,-0.289 -1.039,-0.479 -1.634,-0.696 -0.593,-0.233 -1.229,-0.405 -1.902,-0.535 -0.672,-0.15 -1.367,-0.264 -2.081,-0.315 -0.714,-0.072 -1.433,-0.046 -2.159,-0.074 -0.718,0.044 -1.434,0.118 -2.136,0.194 -0.699,0.086 -1.379,0.243 -2.028,0.403 -0.653,0.14 -1.269,0.35 -1.844,0.563 -0.582,0.186 -1.113,0.439 -1.597,0.667 -0.973,0.456 -1.735,0.951 -2.251,1.33 -0.261,0.177 -0.452,0.361 -0.585,0.47 -0.13,0.115 -0.199,0.176 -0.199,0.176 l -0.03,0.027 c -0.044,0.038 -0.048,0.106 -0.009,0.15 C -0.084,0.002 -0.039,0.014 0,0" />
      </g>
      <g
         transform="matrix(0.0170478,0,0,-0.0170478,132.06187,103.60881)"
         id="g920">
        <path
           inkscape:connector-curvature="0"
           id="path922"
           style="fill:#f36387;fill-opacity:1;fill-rule:nonzero;stroke:none"
           d="m 0,0 c 0,0 1.335,-0.362 3.387,-0.695 2.044,-0.36 4.804,-0.659 7.57,-0.655 0.691,-0.019 1.383,-0.011 2.063,0.019 0.68,0.009 1.347,0.061 1.994,0.116 0.647,0.038 1.267,0.121 1.856,0.203 0.59,0.073 1.146,0.153 1.652,0.262 0.51,0.096 0.978,0.184 1.392,0.261 0.408,0.101 0.766,0.189 1.06,0.261 0.588,0.145 0.924,0.228 0.924,0.228 0.057,0.014 0.115,-0.021 0.129,-0.078 0.01,-0.041 -0.006,-0.082 -0.036,-0.108 l -0.03,-0.025 c 0,0 -0.289,-0.238 -0.829,-0.603 -0.538,-0.372 -1.337,-0.852 -2.359,-1.258 -0.504,-0.231 -1.063,-0.444 -1.669,-0.601 -0.602,-0.18 -1.241,-0.386 -1.916,-0.475 -0.672,-0.111 -1.37,-0.276 -2.084,-0.297 -0.715,-0.058 -1.441,-0.092 -2.166,-0.098 -0.728,0.01 -1.45,0.076 -2.161,0.131 -0.713,0.027 -1.4,0.218 -2.069,0.314 -0.667,0.125 -1.303,0.298 -1.899,0.483 -0.599,0.167 -1.155,0.375 -1.66,0.59 -1.015,0.399 -1.822,0.861 -2.372,1.209 -0.276,0.165 -0.482,0.337 -0.625,0.44 -0.139,0.108 -0.214,0.165 -0.214,0.165 l -0.032,0.024 C -0.14,-0.15 -0.148,-0.084 -0.112,-0.037 -0.086,-0.002 -0.041,0.011 0,0" />
      </g>
      <g
         transform="matrix(0.0170478,0,0,-0.0170478,138.61937,107.70854)"
         id="g924">
        <path
           inkscape:connector-curvature="0"
           id="path926"
           style="fill:#ef2a4e;fill-opacity:1;fill-rule:nonzero;stroke:none"
           d="m 0,0 c -28.223,-47.709 -89.775,-63.506 -137.484,-35.284 -47.709,28.222 -63.506,89.776 -35.284,137.485 28.222,47.707 89.776,63.505 137.485,35.282 C 12.426,109.262 28.222,47.707 0,0" />
      </g>
      <g
         transform="matrix(0.0170478,0,0,-0.0170478,136.47587,105.32201)"
         id="g928">
        <path
           inkscape:connector-curvature="0"
           id="path930"
           style="fill:none;stroke:#f9b0c2;stroke-width:1.43200004;stroke-linecap:round;stroke-linejoin:round;stroke-miterlimit:10;stroke-dasharray:none;stroke-opacity:1"
           d="M 0,0 C 27.729,12.246 60.761,11.38 88.841,-5.23" />
      </g>
      <g
         transform="matrix(0.0170478,0,0,-0.0170478,135.72049,105.9937)"
         id="g932">
        <path
           inkscape:connector-curvature="0"
           id="path934"
           style="fill:none;stroke:#f9b0c2;stroke-width:1.43200004;stroke-linecap:round;stroke-linejoin:round;stroke-miterlimit:10;stroke-dasharray:none;stroke-opacity:1"
           d="M 0,0 C 6.045,10.219 13.669,18.926 22.376,25.992" />
      </g>
      <g
         transform="matrix(0.0170478,0,0,-0.0170478,138.48448,107.62875)"
         id="g936">
        <path
           inkscape:connector-curvature="0"
           id="path938"
           style="fill:#ffffff;fill-opacity:1;fill-rule:nonzero;stroke:none"
           d="m 0,0 c -25.637,-43.34 -81.553,-57.689 -124.893,-32.053 -43.337,25.638 -57.688,81.555 -32.05,124.895 25.636,43.338 81.553,57.687 124.892,32.051 C 11.288,99.254 25.638,43.338 0,0" />
      </g>
      <g
         transform="matrix(0.0170478,0,0,-0.0170478,137.86801,105.61807)"
         id="g940">
        <path
           inkscape:connector-curvature="0"
           id="path942"
           style="fill:none;stroke:#f36387;stroke-width:2.86299992;stroke-linecap:round;stroke-linejoin:round;stroke-miterlimit:10;stroke-dasharray:none;stroke-opacity:1"
           d="M 0,0 -12.464,-21.069" />
      </g>
      <g
         transform="matrix(0.0170478,0,0,-0.0170478,138.51896,106.48526)"
         id="g944">
        <path
           inkscape:connector-curvature="0"
           id="path946"
           style="fill:none;stroke:#f36387;stroke-width:2.86299992;stroke-linecap:round;stroke-linejoin:round;stroke-miterlimit:10;stroke-dasharray:none;stroke-opacity:1"
           d="M 0,0 -23.712,-6.085" />
      </g>
      <g
         transform="matrix(0.0170478,0,0,-0.0170478,138.36606,107.5587)"
         id="g948">
        <path
           inkscape:connector-curvature="0"
           id="path950"
           style="fill:none;stroke:#f36387;stroke-width:2.86299992;stroke-linecap:round;stroke-linejoin:round;stroke-miterlimit:10;stroke-dasharray:none;stroke-opacity:1"
           d="M 0,0 -21.069,12.464" />
      </g>
      <g
         transform="matrix(0.0170478,0,0,-0.0170478,137.49887,108.20967)"
         id="g952">
        <path
           inkscape:connector-curvature="0"
           id="path954"
           style="fill:none;stroke:#f36387;stroke-width:2.86299992;stroke-linecap:round;stroke-linejoin:round;stroke-miterlimit:10;stroke-dasharray:none;stroke-opacity:1"
           d="M 0,0 -6.084,23.712" />
      </g>
      <g
         transform="matrix(0.0170478,0,0,-0.0170478,136.42539,108.05675)"
         id="g956">
        <path
           inkscape:connector-curvature="0"
           id="path958"
           style="fill:none;stroke:#f36387;stroke-width:2.86299992;stroke-linecap:round;stroke-linejoin:round;stroke-miterlimit:10;stroke-dasharray:none;stroke-opacity:1"
           d="M 0,0 12.465,21.07" />
      </g>
      <g
         transform="matrix(0.0170478,0,0,-0.0170478,135.77445,107.18958)"
         id="g960">
        <path
           inkscape:connector-curvature="0"
           id="path962"
           style="fill:none;stroke:#f36387;stroke-width:2.86299992;stroke-linecap:round;stroke-linejoin:round;stroke-miterlimit:10;stroke-dasharray:none;stroke-opacity:1"
           d="M 0,0 23.713,6.086" />
      </g>
      <g
         transform="matrix(0.0170478,0,0,-0.0170478,135.92736,106.11607)"
         id="g964">
        <path
           inkscape:connector-curvature="0"
           id="path966"
           style="fill:none;stroke:#f36387;stroke-width:2.86299992;stroke-linecap:round;stroke-linejoin:round;stroke-miterlimit:10;stroke-dasharray:none;stroke-opacity:1"
           d="M 0,0 21.069,-12.465" />
      </g>
      <g
         transform="matrix(0.0170478,0,0,-0.0170478,136.79454,105.46515)"
         id="g968">
        <path
           inkscape:connector-curvature="0"
           id="path970"
           style="fill:none;stroke:#f36387;stroke-width:2.86299992;stroke-linecap:round;stroke-linejoin:round;stroke-miterlimit:10;stroke-dasharray:none;stroke-opacity:1"
           d="M 0,0 6.086,-23.713" />
      </g>
      <g
         transform="matrix(0.0170478,0,0,-0.0170478,137.2627,106.90601)"
         id="g972">
        <path
           inkscape:connector-curvature="0"
           id="path974"
           style="fill:#ef2a4e;fill-opacity:1;fill-rule:nonzero;stroke:none"
           d="m 0,0 c -2.222,-3.757 -7.071,-5.001 -10.828,-2.779 -3.758,2.222 -5.002,7.071 -2.779,10.829 2.222,3.757 7.071,5.001 10.828,2.778 C 0.979,8.606 2.223,3.757 0,0" />
      </g>
      <g
         transform="matrix(0.0170478,0,0,-0.0170478,137.53913,106.17404)"
         id="g976">
        <path
           inkscape:connector-curvature="0"
           id="path978"
           style="fill:none;stroke:#ef2a4e;stroke-width:2.86299992;stroke-linecap:round;stroke-linejoin:round;stroke-miterlimit:10;stroke-dasharray:none;stroke-opacity:1"
           d="M 0,0 -23.019,-38.912 5.039,-55.509" />
      </g>
      <g
         transform="matrix(0.0170478,0,0,-0.0170478,137.56693,106.12702)"
         id="g980">
        <path
           inkscape:connector-curvature="0"
           id="path982"
           style="fill:#ef2a4e;fill-opacity:1;fill-rule:nonzero;stroke:none"
           d="m 0,0 -11.243,-5.512 7.386,-1.009 4.441,-5.989 z" />
      </g>
      <g
         transform="matrix(0.0170478,0,0,-0.0170478,137.54384,106.15329)"
         id="g984">
        <path
           inkscape:connector-curvature="0"
           id="path986"
           style="fill:none;stroke:#f9b0c2;stroke-width:0.51800001;stroke-linecap:round;stroke-linejoin:round;stroke-miterlimit:10;stroke-dasharray:none;stroke-opacity:1"
           d="M 0,0 -5.36,-2.529" />
      </g>
      <g
         transform="matrix(0.0170478,0,0,-0.0170478,137.72229,107.17787)"
         id="g988">
        <path
           inkscape:connector-curvature="0"
           id="path990"
           style="fill:#ef2a4e;fill-opacity:1;fill-rule:nonzero;stroke:none"
           d="M 0,0 -5.513,11.242 -6.521,3.857 -12.509,-0.584 Z" />
      </g>
      <g
         transform="matrix(0.0170478,0,0,-0.0170478,137.69605,107.15478)"
         id="g992">
        <path
           inkscape:connector-curvature="0"
           id="path994"
           style="fill:none;stroke:#f9b0c2;stroke-width:0.51800001;stroke-linecap:round;stroke-linejoin:round;stroke-miterlimit:10;stroke-dasharray:none;stroke-opacity:1"
           d="M 0,0 -2.531,5.361" />
      </g>
      <g
         transform="matrix(0.0170478,0,0,-0.0170478,133.60816,113.94532)"
         id="g996">
        <path
           inkscape:connector-curvature="0"
           id="path998"
           style="fill:#fef7f5;fill-opacity:1;fill-rule:nonzero;stroke:none"
           d="m 0,0 c -10.196,4.498 -17.033,10.849 -21.485,16.51 -3.959,5.032 -3.959,12.121 0,17.154 4.452,5.661 11.289,12.011 21.485,16.51 21.151,9.33 52.66,44.558 48.745,88.115 -0.549,6.127 -5.849,10.737 -12,10.737 h -64.661 -6.97 -64.659 c -6.151,0 -11.451,-4.61 -12.002,-10.737 -3.915,-43.557 27.596,-78.785 48.747,-88.115 10.196,-4.499 17.033,-10.849 21.487,-16.51 3.957,-5.033 3.957,-12.122 0,-17.154 C -45.767,10.849 -52.604,4.498 -62.8,0 c -21.068,-9.295 -52.413,-44.283 -48.792,-87.6 0.529,-6.328 5.708,-11.254 12.058,-11.254 h 64.65 6.968 64.661 c 6.151,0 11.451,4.61 12,10.737 C 52.66,-44.561 21.151,-9.332 0,0" />
      </g>
      <g
         transform="matrix(0.0170478,0,0,-0.0170478,134.00344,114.6866)"
         id="g1000">
        <path
           inkscape:connector-curvature="0"
           id="path1002"
           style="fill:#ef2a4e;fill-opacity:1;fill-rule:nonzero;stroke:none"
           d="m 0,0 c -27.326,1.84 -50.862,-26.407 -78.49,-15.781 -12.475,5.345 -23.512,7.808 -35.433,6.236 -3.801,-9.092 -6.09,-19.35 -5.643,-30.381 H 10.391 C 11.004,-24.828 6.493,-11.189 0,0" />
      </g>
      <g
         transform="matrix(0.0170478,0,0,-0.0170478,132.06986,112.35588)"
         id="g1004">
        <path
           inkscape:connector-curvature="0"
           id="path1006"
           style="fill:#ef2a4e;fill-opacity:1;fill-rule:nonzero;stroke:none"
           d="m 0,0 c 8.503,-19.491 23.854,-33.428 33.669,-37.755 3.502,-1.544 6.822,-3.323 9.956,-5.324 8.756,-5.593 13.986,-15.333 13.986,-25.724 v -96.513 h 2.447 v 96.511 c 0,10.391 5.229,20.131 13.985,25.725 3.134,2.002 6.454,3.779 9.957,5.325 9.813,4.327 25.165,18.265 33.667,37.755 z" />
      </g>
      <g
         transform="matrix(0.0170478,0,0,-0.0170478,134.50608,111.54987)"
         id="g1008">
        <path
           inkscape:connector-curvature="0"
           id="path1010"
           style="fill:#f683a1;fill-opacity:1;fill-rule:nonzero;stroke:none"
           d="m 0,0 h -168.142 c -4.702,0 -8.512,3.812 -8.512,8.513 0,4.702 3.81,8.512 8.512,8.512 H 0 c 4.701,0 8.512,-3.81 8.512,-8.512 C 8.512,3.812 4.701,0 0,0" />
      </g>
      <g
         transform="matrix(0.0170478,0,0,-0.0170478,131.616,111.34495)"
         id="g1012">
        <path
           inkscape:connector-curvature="0"
           id="path1014"
           style="fill:none;stroke:#f9b0c2;stroke-width:1.26499999;stroke-linecap:round;stroke-linejoin:round;stroke-miterlimit:10;stroke-dasharray:none;stroke-opacity:1"
           d="M 0,0 H 83.012" />
      </g>
      <g
         transform="matrix(0.0170478,0,0,-0.0170478,133.17842,111.34495)"
         id="g1016">
        <path
           inkscape:connector-curvature="0"
           id="path1018"
           style="fill:none;stroke:#f9b0c2;stroke-width:1.26499999;stroke-linecap:round;stroke-linejoin:round;stroke-miterlimit:10;stroke-dasharray:none;stroke-opacity:1"
           d="M 0,0 H 20.283" />
      </g>
      <g
         transform="matrix(0.0170478,0,0,-0.0170478,134.50608,115.72803)"
         id="g1020">
        <path
           inkscape:connector-curvature="0"
           id="path1022"
           style="fill:#f683a1;fill-opacity:1;fill-rule:nonzero;stroke:none"
           d="m 0,0 h -168.142 c -4.702,0 -8.512,3.811 -8.512,8.512 0,4.7 3.81,8.511 8.512,8.511 H 0 c 4.701,0 8.512,-3.811 8.512,-8.511 C 8.512,3.811 4.701,0 0,0" />
      </g>
      <g
         transform="matrix(0.0170478,0,0,-0.0170478,131.616,115.52314)"
         id="g1024">
        <path
           inkscape:connector-curvature="0"
           id="path1026"
           style="fill:none;stroke:#f9b0c2;stroke-width:1.26499999;stroke-linecap:round;stroke-linejoin:round;stroke-miterlimit:10;stroke-dasharray:none;stroke-opacity:1"
           d="M 0,0 H 83.012" />
      </g>
      <g
         transform="matrix(0.0170478,0,0,-0.0170478,133.17842,115.52314)"
         id="g1028">
        <path
           inkscape:connector-curvature="0"
           id="path1030"
           style="fill:none;stroke:#f9b0c2;stroke-width:1.26499999;stroke-linecap:round;stroke-linejoin:round;stroke-miterlimit:10;stroke-dasharray:none;stroke-opacity:1"
           d="M 0,0 H 20.283" />
      </g>
      <g
         transform="matrix(0.0170478,0,0,-0.0170478,132.32635,112.5459)"
         id="g1032">
        <path
           inkscape:connector-curvature="0"
           id="path1034"
           style="fill:#f683a1;fill-opacity:1;fill-rule:nonzero;stroke:none"
           d="M 0,0 C 0,0 0.359,-0.682 1.097,-1.82 1.468,-2.386 1.92,-3.07 2.47,-3.834 3.017,-4.598 3.651,-5.447 4.393,-6.33 c 0.36,-0.449 0.751,-0.905 1.17,-1.361 0.41,-0.466 0.839,-0.94 1.308,-1.402 0.912,-0.944 1.909,-1.903 2.994,-2.823 1.074,-0.932 2.25,-1.81 3.464,-2.653 0.626,-0.396 1.229,-0.835 1.879,-1.201 0.654,-0.358 1.3,-0.733 1.959,-1.079 0.68,-0.301 1.359,-0.602 2.036,-0.903 0.728,-0.315 1.45,-0.631 2.169,-0.943 1.414,-0.603 2.79,-1.166 4.112,-1.989 1.304,-0.791 2.587,-1.541 3.632,-2.445 0.54,-0.43 1.065,-0.85 1.572,-1.254 0.506,-0.402 0.934,-0.881 1.375,-1.289 0.876,-0.828 1.625,-1.644 2.237,-2.418 0.306,-0.385 0.601,-0.73 0.853,-1.074 0.239,-0.354 0.457,-0.68 0.655,-0.973 0.398,-0.576 0.65,-1.087 0.827,-1.418 0.173,-0.34 0.251,-0.53 0.251,-0.53 l -0.289,-0.208 c 0,0 -0.148,0.125 -0.447,0.343 -0.307,0.214 -0.71,0.554 -1.276,0.939 -0.552,0.397 -1.205,0.881 -1.993,1.392 -0.396,0.252 -0.778,0.558 -1.216,0.842 -0.447,0.273 -0.916,0.56 -1.387,0.877 -0.933,0.642 -2.012,1.247 -3.115,1.926 -1.099,0.703 -2.288,1.32 -3.478,2.038 -1.137,0.758 -2.493,1.477 -3.814,2.254 -1.348,0.771 -2.717,1.553 -4.086,2.336 -0.688,0.43 -1.357,0.89 -2.03,1.331 -0.668,0.45 -1.281,0.968 -1.914,1.443 -1.235,0.994 -2.379,2.049 -3.414,3.131 -0.538,0.521 -1.012,1.086 -1.49,1.622 -0.486,0.528 -0.918,1.081 -1.337,1.62 -0.43,0.529 -0.819,1.066 -1.187,1.59 -0.379,0.515 -0.726,1.025 -1.044,1.527 -0.657,0.984 -1.207,1.92 -1.677,2.755 -0.474,0.833 -0.851,1.579 -1.147,2.2 -0.593,1.238 -0.869,1.979 -0.869,1.979 z" />
      </g>
      <g
         transform="matrix(0.0170478,0,0,-0.0170478,132.16644,114.93469)"
         id="g1036">
        <path
           inkscape:connector-curvature="0"
           id="path1038"
           style="fill:#f683a1;fill-opacity:1;fill-rule:nonzero;stroke:none"
           d="m 0,0 c 0,0 -0.433,-1.082 -0.933,-2.746 -0.139,-0.41 -0.249,-0.869 -0.376,-1.35 -0.117,-0.482 -0.279,-0.978 -0.401,-1.504 -0.114,-0.529 -0.231,-1.073 -0.351,-1.627 -0.128,-0.55 -0.238,-1.113 -0.306,-1.683 -0.074,-0.568 -0.149,-1.135 -0.222,-1.694 -0.084,-0.555 -0.089,-1.111 -0.149,-1.639 -0.067,-0.528 -0.144,-1.036 -0.251,-1.517 -0.113,-0.48 -0.192,-0.937 -0.249,-1.362 -0.266,-1.692 -0.696,-2.866 -0.696,-2.866 l -0.177,-0.004 c 0,0 -0.373,1.152 -0.553,2.949 -0.022,0.225 -0.044,0.459 -0.068,0.701 0.008,0.24 0.016,0.488 0.025,0.744 0.012,0.512 0.061,1.051 0.127,1.606 0.08,0.553 0.16,1.125 0.346,1.683 0.157,0.565 0.315,1.137 0.474,1.709 0.138,0.577 0.317,1.139 0.513,1.689 0.186,0.55 0.37,1.091 0.549,1.614 0.399,1.031 0.789,1.984 1.173,2.779 0.381,0.795 0.7,1.456 0.963,1.901 0.245,0.451 0.402,0.695 0.402,0.695 z" />
      </g>
      <g
         transform="matrix(0.0170478,0,0,-0.0170478,131.79201,111.7307)"
         id="g1040">
        <path
           inkscape:connector-curvature="0"
           id="path1042"
           style="fill:#ffffff;fill-opacity:1;fill-rule:nonzero;stroke:none"
           d="m 0,0 c 0,0 0.05,-1.008 0.256,-2.762 0.101,-0.876 0.243,-1.939 0.428,-3.153 0.2,-1.212 0.413,-2.581 0.724,-4.062 0.271,-1.486 0.659,-3.078 1.053,-4.762 0.421,-1.678 0.889,-3.442 1.409,-5.253 0.58,-1.795 1.093,-3.676 1.804,-5.524 0.336,-0.929 0.675,-1.867 1.014,-2.808 0.381,-0.924 0.765,-1.852 1.149,-2.78 0.403,-0.919 0.75,-1.861 1.197,-2.755 0.436,-0.899 0.87,-1.794 1.301,-2.682 0.822,-1.795 1.811,-3.468 2.695,-5.122 0.814,-1.696 1.832,-3.2 2.671,-4.704 0.435,-0.742 0.839,-1.477 1.265,-2.166 0.443,-0.679 0.871,-1.334 1.282,-1.963 0.838,-1.248 1.521,-2.459 2.233,-3.455 0.729,-0.983 1.356,-1.851 1.857,-2.578 1.022,-1.442 1.585,-2.291 1.585,-2.291 l -0.133,-0.119 c 0,0 -0.718,0.714 -1.936,2.009 -0.618,0.64 -1.351,1.434 -2.183,2.357 -0.813,0.935 -1.658,2.051 -2.594,3.26 -0.463,0.609 -0.946,1.243 -1.446,1.899 -0.467,0.678 -0.915,1.403 -1.396,2.137 -0.946,1.474 -1.963,3.023 -2.836,4.726 -0.861,1.707 -1.836,3.43 -2.584,5.295 -0.4,0.92 -0.802,1.846 -1.207,2.777 -0.414,0.926 -0.727,1.897 -1.096,2.845 -0.358,0.952 -0.714,1.905 -1.07,2.853 -0.312,0.964 -0.624,1.924 -0.932,2.875 -0.656,1.89 -1.113,3.81 -1.636,5.638 -0.461,1.848 -0.891,3.637 -1.233,5.346 -0.322,1.715 -0.642,3.33 -0.848,4.838 -0.247,1.5 -0.4,2.887 -0.548,4.111 -0.131,1.228 -0.226,2.3 -0.289,3.184 -0.129,1.768 -0.135,2.781 -0.135,2.781 z" />
      </g>
      <g
         transform="matrix(0.0170478,0,0,-0.0170478,131.837,115.24145)"
         id="g1044">
        <path
           inkscape:connector-curvature="0"
           id="path1046"
           style="fill:#ffffff;fill-opacity:1;fill-rule:nonzero;stroke:none"
           d="m 0,0 c 0,0 -0.151,0.989 -0.227,2.729 -0.054,0.872 -0.066,1.929 -0.047,3.144 0.032,1.213 0.048,2.586 0.183,4.076 0.111,1.494 0.3,3.106 0.559,4.803 0.252,1.697 0.624,3.473 1.05,5.298 0.464,1.815 1.006,3.678 1.662,5.534 0.649,1.857 1.365,3.725 2.179,5.549 0.787,1.836 1.683,3.623 2.604,5.357 0.488,0.852 0.973,1.698 1.451,2.532 0.518,0.812 1.011,1.624 1.528,2.403 0.538,0.764 1.048,1.529 1.58,2.254 0.55,0.712 1.087,1.407 1.611,2.085 0.556,0.65 1.097,1.282 1.621,1.892 0.531,0.605 1.082,1.155 1.59,1.7 1.02,1.087 2.044,1.998 2.924,2.826 0.925,0.779 1.709,1.484 2.392,2.017 1.379,1.053 2.166,1.654 2.166,1.654 l 0.108,-0.143 c 0,0 -0.756,-0.634 -2.08,-1.741 -0.657,-0.561 -1.403,-1.297 -2.286,-2.111 -0.835,-0.86 -1.806,-1.805 -2.766,-2.925 C 17.324,48.371 16.807,47.804 16.309,47.185 15.82,46.559 15.314,45.912 14.795,45.246 14.307,44.561 13.804,43.854 13.29,43.133 12.791,42.402 12.314,41.634 11.813,40.865 11.329,40.084 10.872,39.268 10.391,38.455 9.949,37.62 9.502,36.774 9.051,35.922 8.206,34.189 7.387,32.41 6.678,30.585 5.956,28.766 5.335,26.908 4.777,25.066 4.229,23.222 3.733,21.395 3.322,19.607 2.858,17.835 2.518,16.096 2.167,14.451 1.841,12.801 1.556,11.234 1.326,9.781 1.094,8.328 0.893,6.992 0.744,5.803 0.611,4.609 0.496,3.57 0.401,2.714 0.233,0.995 0.178,0.008 0.178,0.008 Z" />
      </g>
      <g
         transform="matrix(0.0170478,0,0,-0.0170478,127.32275,101.43435)"
         id="g1048">
        <path
           inkscape:connector-curvature="0"
           id="path1050"
           style="fill:#f9b0c2;fill-opacity:1;fill-rule:nonzero;stroke:none"
           d="m 0,0 c 0,-20.99 -17.017,-38.008 -38.008,-38.008 -20.991,0 -38.007,17.018 -38.007,38.008 0,20.991 17.016,38.008 38.007,38.008 C -17.017,38.008 0,20.991 0,0" />
      </g>
      <g
         transform="matrix(0.0170478,0,0,-0.0170478,126.44552,101.12206)"
         id="g1052">
        <path
           inkscape:connector-curvature="0"
           id="path1054"
           style="fill:none;stroke:#ffffff;stroke-width:7.89900017;stroke-linecap:round;stroke-linejoin:round;stroke-miterlimit:10;stroke-dasharray:none;stroke-opacity:1"
           d="M 0,0 V -36.637" />
      </g>
      <g
         transform="matrix(0.0170478,0,0,-0.0170478,126.90408,101.12206)"
         id="g1056">
        <path
           inkscape:connector-curvature="0"
           id="path1058"
           style="fill:none;stroke:#ffffff;stroke-width:7.89900017;stroke-linecap:round;stroke-linejoin:round;stroke-miterlimit:10;stroke-dasharray:none;stroke-opacity:1"
           d="M 0,0 V -36.637" />
      </g>
      <g
         transform="matrix(0.0170478,0,0,-0.0170478,136.88487,102.61158)"
         id="g1060">
        <path
           inkscape:connector-curvature="0"
           id="path1062"
           style="fill:#f9b0c2;fill-opacity:1;fill-rule:nonzero;stroke:none"
           d="m 0,0 c 0,-18.197 -14.751,-32.948 -32.948,-32.948 -18.198,0 -32.948,14.751 -32.948,32.948 0,18.196 14.75,32.948 32.948,32.948 C -14.751,32.948 0,18.196 0,0" />
      </g>
      <g
         transform="matrix(0.0170478,0,0,-0.0170478,136.12442,102.34084)"
         id="g1064">
        <path
           inkscape:connector-curvature="0"
           id="path1066"
           style="fill:none;stroke:#ffffff;stroke-width:6.84800005;stroke-linecap:round;stroke-linejoin:round;stroke-miterlimit:10;stroke-dasharray:none;stroke-opacity:1"
           d="M 0,0 V -31.762" />
      </g>
      <g
         transform="matrix(0.0170478,0,0,-0.0170478,136.52195,102.34084)"
         id="g1068">
        <path
           inkscape:connector-curvature="0"
           id="path1070"
           style="fill:none;stroke:#ffffff;stroke-width:6.84800005;stroke-linecap:round;stroke-linejoin:round;stroke-miterlimit:10;stroke-dasharray:none;stroke-opacity:1"
           d="M 0,0 V -31.762" />
      </g>
      <g
         transform="matrix(0.0170478,0,0,-0.0170478,136.28694,108.12774)"
         id="g1072">
        <path
           inkscape:connector-curvature="0"
           id="path1074"
           style="fill:none;stroke:#ef2a4e;stroke-width:8.39099979;stroke-linecap:round;stroke-linejoin:round;stroke-miterlimit:10;stroke-dasharray:none;stroke-opacity:1"
           d="M 0,0 -61.154,-103.378" />
      </g>
      <g
         transform="matrix(0.0170478,0,0,-0.0170478,135.07759,109.1479)"
         id="g1076">
        <path
           inkscape:connector-curvature="0"
           id="path1078"
           style="fill:none;stroke:#ef2a4e;stroke-width:8.39099979;stroke-linecap:round;stroke-linejoin:round;stroke-miterlimit:10;stroke-dasharray:none;stroke-opacity:1"
           d="M 0,0 52.654,-31.148" />
      </g>
      <g
         transform="matrix(0.0170478,0,0,-0.0170478,134.60234,107.99039)"
         id="g1080">
        <path
           inkscape:connector-curvature="0"
           id="path1082"
           style="fill:#ef2a4e;fill-opacity:1;fill-rule:nonzero;stroke:none"
           d="m 0,0 c -5.759,-9.734 -2.535,-22.293 7.197,-28.051 9.735,-5.758 22.292,-2.534 28.05,7.199 12.709,18.635 4.282,47.457 4.282,47.457 C 39.529,26.605 10.213,20.111 0,0" />
      </g>
      <g
         transform="matrix(0.0170478,0,0,-0.0170478,134.81407,107.8482)"
         id="g1084">
        <path
           inkscape:connector-curvature="0"
           id="path1086"
           style="fill:#f683a1;fill-opacity:1;fill-rule:nonzero;stroke:none"
           d="m 0,0 c 0,0 -0.422,-0.401 -1.109,-1.159 -0.682,-0.76 -1.643,-1.86 -2.672,-3.262 -1.031,-1.4 -2.113,-3.115 -3.095,-5.014 -0.466,-0.961 -0.929,-1.96 -1.28,-3.009 -0.377,-1.041 -0.651,-2.127 -0.848,-3.211 -0.169,-1.09 -0.272,-2.182 -0.208,-3.243 -0.005,-0.532 0.108,-1.05 0.135,-1.562 0.093,-0.507 0.153,-1.01 0.25,-1.496 0.19,-0.977 0.431,-1.907 0.693,-2.797 0.279,-0.885 0.613,-1.705 0.93,-2.476 0.37,-0.742 0.661,-1.471 1.01,-2.071 0.344,-0.602 0.596,-1.179 0.874,-1.606 0.524,-0.879 0.799,-1.435 0.799,-1.435 l 0.004,-0.009 c 0.038,-0.076 0.007,-0.169 -0.069,-0.206 -0.049,-0.023 -0.103,-0.019 -0.146,0.006 0,0 -0.522,0.308 -1.389,0.939 -0.454,0.298 -0.904,0.759 -1.465,1.264 -0.291,0.243 -0.543,0.553 -0.821,0.875 -0.273,0.324 -0.584,0.652 -0.852,1.036 -0.263,0.392 -0.538,0.799 -0.822,1.222 -0.258,0.44 -0.482,0.922 -0.733,1.407 -0.477,0.988 -0.83,2.106 -1.065,3.29 -0.09,0.595 -0.154,1.207 -0.188,1.825 0.011,0.619 -0.014,1.246 0.066,1.869 0.107,1.25 0.341,2.492 0.673,3.694 0.339,1.198 0.758,2.366 1.274,3.456 0.491,1.103 1.087,2.123 1.677,3.09 0.619,0.95 1.225,1.858 1.883,2.654 0.641,0.807 1.287,1.533 1.898,2.186 2.45,2.613 4.405,3.972 4.405,3.972 0.067,0.048 0.16,0.034 0.209,-0.033 C 0.062,0.136 0.051,0.051 0,0" />
      </g>
      <g
         transform="matrix(0.0170478,0,0,-0.0170478,133.71922,108.46134)"
         id="g1088">
        <path
           inkscape:connector-curvature="0"
           id="path1090"
           style="fill:#ef2a4e;fill-opacity:1;fill-rule:nonzero;stroke:none"
           d="m 0,0 c -4.122,-6.969 -1.814,-15.955 5.152,-20.076 6.966,-4.121 15.953,-1.817 20.076,5.152 9.095,13.336 3.065,33.967 3.065,33.967 C 28.293,19.043 7.309,14.393 0,0" />
      </g>
      <g
         transform="matrix(0.0170478,0,0,-0.0170478,133.87078,108.35958)"
         id="g1092">
        <path
           inkscape:connector-curvature="0"
           id="path1094"
           style="fill:#f683a1;fill-opacity:1;fill-rule:nonzero;stroke:none"
           d="m 0,0 c 0,0 -1.223,-1.16 -2.706,-3.164 -0.739,-1.002 -1.513,-2.229 -2.216,-3.588 -0.681,-1.367 -1.258,-2.894 -1.524,-4.451 -0.12,-0.78 -0.196,-1.563 -0.15,-2.322 0.033,-0.76 0.147,-1.49 0.276,-2.189 0.136,-0.698 0.308,-1.364 0.496,-2.001 0.199,-0.633 0.439,-1.221 0.665,-1.773 0.264,-0.53 0.472,-1.053 0.722,-1.483 0.248,-0.429 0.427,-0.841 0.626,-1.148 0.375,-0.629 0.573,-1.027 0.573,-1.027 l 0.003,-0.006 c 0.026,-0.055 0.005,-0.122 -0.05,-0.148 -0.035,-0.016 -0.074,-0.013 -0.106,0.004 0,0 -0.372,0.221 -0.994,0.672 -0.324,0.214 -0.646,0.544 -1.048,0.905 -0.394,0.366 -0.782,0.84 -1.197,1.367 -0.188,0.282 -0.385,0.573 -0.588,0.875 -0.184,0.315 -0.344,0.661 -0.525,1.008 -0.341,0.707 -0.593,1.507 -0.761,2.354 -0.064,0.427 -0.111,0.865 -0.135,1.306 0.008,0.444 -0.01,0.893 0.047,1.338 0.077,0.895 0.244,1.783 0.483,2.645 0.963,3.462 3.064,6.306 4.82,8.148 1.752,1.869 3.152,2.842 3.152,2.842 0.048,0.035 0.115,0.023 0.15,-0.023 C 0.044,0.098 0.037,0.037 0,0" />
      </g>
    </g>
  </g>
</svg>
