<?xml version="1.0" encoding="UTF-8" standalone="no"?>
<svg
   xmlns:dc="http://purl.org/dc/elements/1.1/"
   xmlns:cc="http://creativecommons.org/ns#"
   xmlns:rdf="http://www.w3.org/1999/02/22-rdf-syntax-ns#"
   xmlns:svg="http://www.w3.org/2000/svg"
   xmlns="http://www.w3.org/2000/svg"
   id="abcglobalalliance"
   version="1.1"
   viewBox="0 0 157.31689 56.391224">
  <defs
     id="defs2455" />
  <metadata
     id="metadata2458">
    <rdf:RDF>
      <cc:Work
         rdf:about="">
        <dc:format>image/svg+xml</dc:format>
        <dc:type
           rdf:resource="http://purl.org/dc/dcmitype/StillImage" />
        <dc:title></dc:title>
      </cc:Work>
    </rdf:RDF>
  </metadata>
  <g
     transform="translate(-27.552857,-114.59016)"
     id="layer1">
    <g
       id="g2396"
       transform="matrix(0.86264265,0,0,-0.86264265,-326.58895,1187.0282)">
      <g
         id="g2252"
         transform="translate(496.2656,1217.3047)">
        <path
           d="M 0,0 C 2.859,-0.023 5.387,0.873 7.535,2.773 9.16,4.212 9.15,4.223 7.434,5.447 7.217,5.603 6.977,5.732 6.787,5.916 6.154,6.537 5.697,6.457 5.051,5.803 2.17,2.893 -2.35,3.018 -5.131,6.008 c -2.599,2.794 -2.555,7.016 0.104,9.83 2.429,2.57 6.591,2.908 9.254,0.799 0.585,-0.466 0.95,-1.504 1.646,-1.408 0.699,0.097 1.307,0.853 1.954,1.322 0.155,0.11 0.293,0.249 0.458,0.34 0.612,0.339 0.654,0.656 0.16,1.216 -3.268,3.699 -9.211,4.751 -13.734,2.392 C -9.845,18.124 -12.107,13.106 -10.857,8.158 -9.645,3.363 -5.169,0.001 0,0 m -28.74,11.57 c 0.916,0.678 1.673,1.397 2.039,2.46 1.24,3.613 -1.295,7.177 -5.272,7.257 -3.58,0.074 -7.164,-0.004 -10.744,0.041 -0.808,0.01 -0.925,-0.318 -0.914,-1.006 0.035,-2.133 -0.008,-4.267 0.024,-6.401 0.009,-0.646 -0.11,-0.955 -0.857,-0.968 -1.657,-0.027 -1.656,-0.069 -1.667,-1.789 0,-0.114 -0.004,-0.228 -0.003,-0.342 0.029,-1.713 -0.225,-1.564 1.504,-1.527 0.792,0.018 1.05,-0.214 1.032,-1.023 -0.05,-2.323 -0.007,-4.648 -0.025,-6.972 -0.004,-0.525 0.053,-0.855 0.718,-0.85 4.077,0.031 8.156,-0.052 12.229,0.068 2.944,0.086 5.164,2.47 5.371,5.388 0.19,2.685 -0.941,4.547 -3.435,5.664 m -40.045,9.039 -0.004,0.008 c 0.092,0.828 -0.42,0.931 -1.072,0.928 -2.248,-0.013 -4.495,0 -6.744,-0.011 -0.367,-0.002 -0.771,0.124 -1.082,-0.204 -0.388,-0.792 -0.098,-1.64 -0.2,-2.454 -0.095,-0.771 0.163,-1.11 0.996,-1.048 0.909,0.067 1.828,-0.03 2.739,0.027 0.935,0.059 0.974,-0.233 0.625,-1.015 -1.618,-3.606 -3.184,-7.235 -4.762,-10.856 -0.783,-1.797 -1.559,-3.596 -2.352,-5.428 3.924,-0.431 3.924,-0.431 5.37,2.916 0.015,0.035 0.037,0.067 0.046,0.104 0.159,0.61 0.536,0.797 1.172,0.786 2.244,-0.04 4.491,-0.053 6.735,0.004 0.847,0.023 1.273,-0.229 1.597,-1.042 1.192,-2.99 1.225,-2.977 4.422,-2.865 0.037,0.002 0.076,0.002 0.113,-0.001 0.698,-0.052 0.763,0.239 0.497,0.813 -0.399,0.86 -0.743,1.748 -1.11,2.623 -2.245,5.358 -4.49,10.716 -6.736,16.075 -0.01,0.242 0.033,0.505 -0.25,0.64 M -35.5,-4.58 c -15.243,0 -30.486,0.006 -45.729,-0.011 -1.352,-10e-4 -2.574,0.224 -3.533,1.26 -0.711,0.768 -0.965,1.673 -0.962,2.716 0.019,7.508 0.009,15.014 0.011,22.522 0.002,2.462 1.502,3.978 3.984,3.982 6.821,0.01 13.642,0.004 20.463,0.004 0.686,0 1.371,0.007 2.059,0 2.357,-0.031 3.928,-1.602 3.93,-3.965 0.005,-7.355 0.021,-14.709 -0.028,-22.065 -0.007,-1.058 0.276,-1.422 1.323,-1.302 0.753,0.085 1.528,0.078 2.283,0.007 0.847,-0.078 1,0.287 0.996,1.047 -0.024,7.393 -0.017,14.787 -0.013,22.18 0.002,2.627 1.46,4.086 4.107,4.088 7.432,0.009 14.863,0.01 22.295,0.004 2.509,-0.002 4.031,-1.542 4.033,-4.073 0.004,-7.355 0.019,-14.71 -0.025,-22.064 -0.006,-0.977 0.296,-1.278 1.212,-1.181 1.084,0.115 2.49,-0.46 3.178,0.248 0.632,0.651 0.175,2.035 0.178,3.091 0.015,6.593 0.006,13.186 0.009,19.779 0.002,2.749 1.476,4.204 4.249,4.205 7.316,0.002 14.632,0.003 21.949,0.001 2.779,-0.001 4.239,-1.449 4.238,-4.197 0,-7.28 -0.088,-14.559 0.043,-21.836 0.045,-2.581 -1.629,-4.495 -4.521,-4.469 -9.715,0.088 -19.434,0.037 -29.151,0.039 -5.527,0.002 -11.052,0 -16.578,0 z"
           style="fill:#086af2;fill-opacity:1;fill-rule:evenodd;stroke:none"
           id="path2254" />
      </g>
      <g
         id="g2256"
         transform="translate(435.9531,1194.4863)">
        <path
           d="m 0,0 c -0.229,-4.297 -4.221,-8.969 -8.76,-10.254 -7.215,-2.041 -14.742,2.399 -16.343,9.641 -1.631,7.379 3.164,14.611 10.548,15.926 3.465,0.618 6.627,-0.118 9.592,-1.971 0.934,-0.584 0.953,-1.044 0.108,-1.655 -0.092,-0.066 -0.171,-0.154 -0.245,-0.24 -1.347,-1.593 -2.507,-2.486 -5.042,-1.534 -4.356,1.638 -9.078,-1.52 -9.948,-5.999 -0.912,-4.695 2.33,-9.057 7.143,-9.608 3.148,-0.361 6.927,1.999 7.975,4.981 0.122,0.348 0.378,0.706 -0.063,1.02 -0.198,0.588 -0.718,0.428 -1.054,0.325 -0.938,-0.29 -1.887,-0.107 -2.825,-0.189 -0.928,-0.082 -1.207,0.356 -1.155,1.215 0.048,0.793 0.057,1.598 -0.003,2.39 -0.076,0.981 0.369,1.249 1.279,1.218 1.555,-0.053 3.114,-0.071 4.667,0.009 0.767,0.039 1.472,-0.328 2.24,-0.168 C -0.397,5.418 0.122,5.014 0.225,3.5 0.305,2.325 -0.156,1.182 0,0"
           style="fill:#f756f1;fill-opacity:1;fill-rule:evenodd;stroke:none"
           id="path2258" />
      </g>
      <g
         id="g2260"
         transform="translate(536.5664,1180.5586)">
        <path
           d="m 0,0 c 18.289,-0.001 36.58,0.001 54.87,-0.012 0.454,0 1.136,0.285 1.314,-0.306 0.203,-0.674 0.199,-1.444 -0.031,-2.139 -0.108,-0.324 -0.512,-0.272 -0.813,-0.262 -0.988,0.031 -1.976,0.113 -2.963,0.113 -35.477,0.005 -70.951,0.004 -106.427,0.004 -0.266,0 -0.546,0.053 -0.798,-0.008 -1.226,-0.298 -1.441,0.269 -1.445,1.377 -0.004,1.035 0.328,1.254 1.309,1.253 C -36.656,-0.008 -18.328,0 0,0"
           style="fill:#f556ef;fill-opacity:1;fill-rule:evenodd;stroke:none"
           id="path2262" />
      </g>
      <g
         id="g2264"
         transform="translate(502.9004,1184.8926)">
        <path
           d="m 0,0 c -2.248,-0.721 -3.049,0.67 -3.82,2.422 -1.64,3.725 -3.42,7.389 -5.162,11.067 -0.149,0.316 -0.19,0.859 -0.645,0.828 -0.336,-0.022 -0.426,-0.497 -0.577,-0.796 -2.146,-4.201 -4.297,-8.4 -6.408,-12.619 -0.335,-0.67 -0.719,-0.973 -1.488,-0.921 -0.986,0.068 -1.979,0.015 -2.968,0.015 -1.6,0 -1.615,0.008 -0.866,1.479 1.639,3.218 3.299,6.427 4.941,9.646 2.075,4.068 4.138,8.142 6.214,12.209 0.283,0.557 0.464,1.153 1.345,1.154 0.895,0.002 1.047,-0.598 1.317,-1.169 C -4.648,15.951 -1.182,8.586 2.289,1.223 2.867,-0.004 2.879,0.002 1.484,0 Z"
           style="fill:#f656f1;fill-opacity:1;fill-rule:evenodd;stroke:none"
           id="path2266" />
      </g>
      <g
         id="g2268"
         transform="translate(475.9766,1192.4043)">
        <path
           d="M 0,0 C -0.004,2.178 -1.5,3.637 -3.613,3.699 -5.659,3.76 -7.164,1.78 -7.128,0.014 -7.076,-2.457 -5.477,-3.775 -3.443,-3.791 -1.592,-3.805 0.082,-2.229 0,0 m -12.352,5.039 c 0,3.692 0.019,7.386 -0.015,11.078 -0.008,0.786 0.221,1.046 1.029,1.052 3.111,0.022 3.111,0.05 3.111,-3.028 0,-2.475 -0.005,-4.951 0.008,-7.425 10e-4,-0.318 -0.163,-0.74 0.25,-0.913 C -7.637,5.664 -7.422,6 -7.174,6.154 -2.615,8.994 2.912,6.771 4.247,1.557 5.203,-2.18 2.373,-6.569 -1.398,-7.312 c -2.18,-0.429 -4.123,0.009 -5.93,1.24 -0.457,0.308 -0.936,0.577 -0.901,-0.364 0.02,-0.508 -0.257,-0.669 -0.714,-0.638 -0.037,0.002 -0.075,0.002 -0.114,-0.001 -3.295,-0.177 -3.295,-0.177 -3.295,3.09 z"
           style="fill:#f8aaf7;fill-opacity:1;fill-rule:evenodd;stroke:none"
           id="path2270" />
      </g>
      <g
         id="g2272"
         transform="translate(536.5566,1196.0771)">
        <path
           d="m 0,0 c -2.104,-0.013 -3.676,-1.67 -3.633,-3.829 0.037,-1.909 1.766,-3.668 3.627,-3.692 1.82,-0.023 3.735,1.836 3.639,3.665 C 3.504,-1.452 1.957,0.016 0,0 m 7.783,-3.767 c 0,-2.017 -0.019,-4.035 0.012,-6.052 0.01,-0.676 -0.191,-0.989 -0.906,-0.938 -0.606,0.043 -1.217,0.004 -1.827,0.014 -0.187,0.004 -0.494,-0.013 -0.543,0.084 -0.736,1.433 -1.474,0.32 -2.234,0.041 -4.458,-1.645 -9.027,0.883 -10.023,5.259 -0.713,3.13 0.316,5.752 2.857,7.606 2.426,1.77 5.132,1.912 7.867,0.583 C 3.543,2.56 4.121,1.86 4.566,2.993 4.668,3.251 7.309,3.328 7.562,3.128 7.887,2.874 7.777,2.5 7.779,2.171 7.789,0.192 7.783,-1.788 7.783,-3.767"
           style="fill:#f8aaf7;fill-opacity:1;fill-rule:evenodd;stroke:none"
           id="path2274" />
      </g>
      <g
         id="g2276"
         transform="translate(585.501,1193.5625)">
        <path
           d="m 0,0 v 0.004 c 0.872,0 1.747,-0.002 2.62,0.001 0.42,0.001 0.658,0.128 0.481,0.62 C 2.711,1.697 1.442,2.514 0.108,2.525 -1.392,2.539 -2.524,1.827 -2.987,0.661 -3.21,0.102 -2.995,-0.008 -2.506,-0.002 -1.671,0.008 -0.835,0 0,0 m 2.02,-2.516 c -1.371,-10e-4 -2.742,0.006 -4.113,-0.007 -0.283,-0.002 -0.657,0.131 -0.803,-0.244 -0.123,-0.317 0.112,-0.587 0.275,-0.833 0.761,-1.149 2.804,-1.799 3.944,-1.034 1.02,0.685 1.726,0.468 2.527,-0.208 0.288,-0.244 0.616,-0.445 0.945,-0.635 0.604,-0.349 0.547,-0.717 0.116,-1.181 -1.558,-1.678 -5.146,-2.479 -7.308,-1.613 -3.565,1.427 -5.231,3.947 -5.135,7.763 0.088,3.378 3.373,6.543 6.747,6.713 C 3.341,6.414 5.861,4.11 6.886,1.328 7.229,0.395 7.343,-0.58 7.33,-1.578 7.321,-2.264 7.035,-2.531 6.36,-2.521 4.914,-2.498 3.468,-2.514 2.02,-2.516"
           style="fill:#f8aaf7;fill-opacity:1;fill-rule:evenodd;stroke:none"
           id="path2278" />
      </g>
      <g
         id="g2280"
         transform="translate(450.127,1192.292)">
        <path
           d="M 0,0 C 0.005,-2.019 1.596,-3.728 3.496,-3.755 5.49,-3.784 7.09,-2.106 7.092,0.017 7.094,2.194 5.586,3.794 3.531,3.794 1.492,3.795 -0.004,2.188 0,0 m -4.127,0.046 c -0.391,4.139 3.639,7.49 7.746,7.433 3.971,-0.054 7.662,-3.308 7.633,-7.42 -0.03,-4.029 -3.35,-7.511 -7.973,-7.447 -4.041,0.056 -7.75,3.367 -7.406,7.434"
           style="fill:#f8aaf7;fill-opacity:1;fill-rule:evenodd;stroke:none"
           id="path2282" />
      </g>
      <g
         id="g2284"
         transform="translate(546.8516,1192.2988)">
        <path
           d="M 0,0 C 0,2.018 0.018,4.035 -0.011,6.051 -0.02,6.713 0.16,7.104 0.882,6.983 1.883,6.817 3.104,7.532 3.829,6.19 3.992,5.889 4.41,6.186 4.643,6.344 8.914,9.275 13.942,5.887 14.679,1.178 c 0.343,-2.198 -0.083,-4.375 0.144,-6.566 0.15,-1.438 -0.141,-1.579 -1.618,-1.581 -2.445,-0.002 -2.412,-0.002 -2.455,2.451 -0.033,1.821 0.236,3.657 -0.159,5.457 C 10.211,2.672 8.658,3.926 7.217,3.756 5.596,3.564 4.176,2.027 4.139,0.304 4.092,-1.788 4.102,-3.883 4.137,-5.975 4.148,-6.691 3.958,-6.969 3.184,-6.986 0,-7.057 0.002,-7.082 0.002,-3.882 0.002,-2.588 0.002,-1.294 0,0"
           style="fill:#f8aaf7;fill-opacity:1;fill-rule:evenodd;stroke:none"
           id="path2286" />
      </g>
      <g
         id="g2288"
         transform="translate(443.7207,1197.2715)">
        <path
           d="m 0,0 c -0.002,-3.617 -0.027,-7.234 0.017,-10.852 0.01,-0.844 -0.224,-1.111 -1.087,-1.113 -3.259,-0.008 -3.259,-0.038 -3.259,3.266 0,6.511 0.027,13.022 -0.025,19.534 -0.01,1.172 0.352,1.501 1.497,1.474 C 0,12.241 0.002,12.291 0.002,9.482 0.002,6.321 0.002,3.161 0,0"
           style="fill:#f8abf7;fill-opacity:1;fill-rule:evenodd;stroke:none"
           id="path2290" />
      </g>
      <g
         id="g2292"
         transform="translate(511.9004,1197.332)">
        <path
           d="m 0,0 c 0,-3.654 -0.018,-7.309 0.014,-10.963 0.006,-0.756 -0.164,-1.06 -1.002,-1.064 -3.157,-0.018 -3.157,-0.049 -3.157,3.119 0,6.623 0.024,13.248 -0.025,19.871 -0.008,1.031 0.295,1.275 1.29,1.248 C -0.002,12.136 0,12.181 0,9.251 Z"
           style="fill:#f754f1;fill-opacity:1;fill-rule:evenodd;stroke:none"
           id="path2294" />
      </g>
      <g
         id="g2296"
         transform="translate(572.0918,1199.7441)">
        <path
           d="M 0,0 C 1.451,0.061 2.764,-0.367 3.991,-1.117 4.381,-1.355 4.581,-1.59 4.221,-2.01 4.1,-2.152 4.029,-2.336 3.934,-2.501 3.574,-3.127 3.336,-3.89 2.824,-4.346 2.123,-4.97 1.611,-3.938 0.925,-3.821 c -1.773,0.3 -3.642,-0.337 -4.456,-1.758 -0.86,-1.502 -0.608,-3.088 0.694,-4.36 1.351,-1.32 3.122,-1.547 4.77,-0.528 0.596,0.369 0.866,0.25 1.108,-0.34 0.157,-0.386 0.371,-0.749 0.563,-1.121 0.845,-1.642 0.853,-1.66 -0.916,-2.343 -4.694,-1.815 -9.704,1.203 -10.502,5.304 C -8.801,-3.899 -4.881,0.264 0,0"
           style="fill:#f8aaf7;fill-opacity:1;fill-rule:evenodd;stroke:none"
           id="path2298" />
      </g>
      <g
         id="g2300"
         transform="translate(515.0703,1197.3955)">
        <path
           d="m 0,0 c 0,3.619 0.023,7.238 -0.018,10.857 -0.007,0.827 0.196,1.126 1.077,1.128 3.064,0.004 3.064,0.037 3.064,-3.006 0,-6.628 -0.014,-13.257 0.017,-19.886 0.004,-0.866 -0.189,-1.192 -1.132,-1.182 C 0.001,-12.058 0,-12.099 0,-9.144 Z"
           style="fill:#f8a8f8;fill-opacity:1;fill-rule:evenodd;stroke:none"
           id="path2302" />
      </g>
      <g
         id="g2304"
         transform="translate(522.1738,1192.3711)">
        <path
           d="m 0,0 c 0,1.977 0.025,3.952 -0.012,5.928 -0.014,0.72 0.188,0.989 0.955,1.009 3.379,0.084 3.379,0.108 3.379,-3.248 0,-3.229 -0.019,-6.46 0.014,-9.69 C 4.346,-6.771 4.143,-7.055 3.322,-7.062 0,-7.094 0,-7.121 0,-3.762 Z"
           style="fill:#f8abf7;fill-opacity:1;fill-rule:evenodd;stroke:none"
           id="path2306" />
      </g>
      <g
         id="g2308"
         transform="translate(526.4961,1205.7168)">
        <path
           d="m 0,0 c -0.002,-2.316 -0.002,-2.316 -2.36,-2.314 -1.961,10e-4 -1.961,10e-4 -1.962,2.146 0,2.43 0,2.43 2.25,2.43 2.074,0 2.074,0 2.072,-2.262"
           style="fill:#f8abf7;fill-opacity:1;fill-rule:evenodd;stroke:none"
           id="path2310" />
      </g>
      <g
         id="g2312"
         transform="translate(435.9531,1194.4863)">
        <path
           d="m 0,0 c -0.156,1.182 0.305,2.325 0.225,3.5 -0.103,1.514 -0.622,1.918 -2.111,1.607 -0.768,-0.16 -1.473,0.207 -2.24,0.168 -1.553,-0.08 -3.112,-0.062 -4.667,-0.009 -0.91,0.031 -1.355,-0.237 -1.279,-1.218 0.06,-0.792 0.051,-1.597 0.003,-2.39 -0.052,-0.859 0.227,-1.297 1.155,-1.215 0.938,0.082 1.887,-0.101 2.825,0.189 0.336,0.103 0.856,0.263 1.054,-0.325 -1.481,-0.022 -2.963,-0.028 -4.444,-0.07 -0.568,-0.016 -0.835,0.159 -0.82,0.775 0.031,1.216 0.029,2.433 0,3.649 -0.015,0.61 0.246,0.781 0.819,0.778 C -6.437,5.421 -3.396,5.427 -0.354,5.43 0.064,5.431 0.414,5.387 0.406,4.841 0.385,3.217 0.535,1.58 0,0"
           style="fill:#f556ef;fill-opacity:1;fill-rule:evenodd;stroke:none"
           id="path2314" />
      </g>
      <g
         id="g2316"
         transform="translate(460.4238,1234.9131)">
        <path
           d="m 0,0 v 0.004 c -1.064,0 -2.131,-0.012 -3.196,0.006 -0.457,0.007 -0.714,-0.109 -0.704,-0.631 0.023,-1.142 0.019,-2.284 0.004,-3.425 -0.006,-0.438 0.166,-0.624 0.599,-0.617 2.203,0.039 4.415,-0.153 6.611,0.096 1.395,0.157 2.206,1.084 2.172,2.314 -0.033,1.275 -0.97,2.18 -2.404,2.244 C 2.057,0.037 1.027,0 0,0 m 0.363,-13.483 c 0.608,0 1.215,-0.005 1.823,0.001 0.645,0.006 1.294,-0.021 1.935,0.044 1.376,0.139 2.381,1.064 2.506,2.242 0.125,1.184 -0.53,2.211 -1.729,2.626 -0.388,0.134 -0.812,0.222 -1.222,0.226 -2.278,0.024 -4.557,0.003 -6.834,0.025 -0.524,0.005 -0.752,-0.127 -0.736,-0.7 0.037,-1.252 0.034,-2.506 0.001,-3.758 -0.013,-0.554 0.192,-0.726 0.725,-0.713 1.177,0.028 2.354,0.009 3.531,0.007 m 6.739,7.445 c 2.494,-1.117 3.625,-2.98 3.435,-5.664 -0.207,-2.918 -2.428,-5.303 -5.371,-5.389 -4.073,-0.119 -8.152,-0.036 -12.229,-0.067 -0.666,-0.005 -0.722,0.325 -0.718,0.849 0.017,2.325 -0.026,4.65 0.025,6.973 0.018,0.809 -0.24,1.04 -1.032,1.023 -1.73,-0.038 -1.476,-0.186 -1.504,1.527 -10e-4,0.113 0.003,0.227 0.003,0.342 0.011,1.719 0.01,1.761 1.667,1.789 0.747,0.012 0.866,0.322 0.856,0.967 -0.031,2.134 0.012,4.269 -0.023,6.402 C -7.8,3.401 -7.684,3.729 -6.875,3.72 -3.295,3.675 0.289,3.753 3.869,3.679 7.846,3.599 10.381,0.034 9.141,-3.578 8.774,-4.642 8.018,-5.36 7.102,-6.038"
           style="fill:#f6fbfc;fill-opacity:1;fill-rule:evenodd;stroke:none"
           id="path2318" />
      </g>
      <g
         id="g2320"
         transform="translate(425.7598,1232.4785)">
        <path
           d="m 0,0 c -0.973,-2.379 -1.835,-4.52 -2.729,-6.648 -0.244,-0.583 -0.062,-0.726 0.51,-0.718 1.481,0.019 2.961,0.02 4.44,-0.005 0.592,-0.01 0.732,0.144 0.492,0.718 C 1.822,-4.522 0.966,-2.377 0,0 m 1.971,4.795 c 2.246,-5.358 4.491,-10.717 6.736,-16.075 0.367,-0.875 0.711,-1.763 1.109,-2.623 0.267,-0.574 0.202,-0.865 -0.496,-0.813 -0.037,0.003 -0.076,0.003 -0.113,10e-4 -3.197,-0.112 -3.23,-0.125 -4.422,2.865 -0.324,0.813 -0.75,1.065 -1.597,1.042 -2.244,-0.057 -4.491,-0.044 -6.735,-0.004 -0.637,0.011 -1.014,-0.176 -1.172,-0.786 -0.01,-0.037 -0.031,-0.069 -0.047,-0.104 -1.445,-3.347 -1.445,-3.347 -5.369,-2.916 0.793,1.832 1.569,3.632 2.352,5.429 1.578,3.621 3.144,7.25 4.762,10.855 0.349,0.782 0.31,1.074 -0.625,1.016 -0.911,-0.058 -1.831,0.039 -2.739,-0.028 -0.833,-0.062 -1.092,0.278 -0.996,1.048 0.102,0.815 -0.188,1.662 0.2,2.454 C -4.673,6.149 -2.166,6.125 0.342,6.146 0.961,6.151 1.448,6.051 1.717,5.443 L 1.721,5.436 C 1.693,5.179 1.779,4.965 1.971,4.795"
           style="fill:#f6fbfc;fill-opacity:1;fill-rule:evenodd;stroke:none"
           id="path2322" />
      </g>
      <g
         id="g2324"
         transform="translate(496.2646,1217.3066)">
        <path
           d="m 0,0 c -5.168,-0.001 -9.644,3.361 -10.856,8.156 -1.25,4.948 1.012,9.966 5.568,12.341 4.523,2.359 10.466,1.307 13.734,-2.392 C 8.94,17.545 8.898,17.229 8.286,16.889 8.121,16.798 7.983,16.659 7.828,16.549 7.181,16.08 6.573,15.324 5.874,15.228 5.178,15.131 4.813,16.169 4.228,16.635 1.565,18.744 -2.597,18.406 -5.026,15.836 -7.685,13.022 -7.729,8.8 -5.13,6.006 -2.349,3.016 2.171,2.891 5.052,5.801 5.698,6.455 6.155,6.535 6.788,5.914 6.978,5.73 7.218,5.601 7.435,5.445 9.151,4.221 9.161,4.21 7.536,2.771 5.388,0.871 2.86,-0.025 0,0"
           style="fill:#f5fbfc;fill-opacity:1;fill-rule:evenodd;stroke:none"
           id="path2326" />
      </g>
      <g
         id="g2328"
         transform="translate(427.4766,1237.9219)">
        <path
           d="m 0,0 c -0.269,0.607 -0.756,0.708 -1.375,0.703 -2.508,-0.021 -5.015,0.003 -7.522,0.01 0.31,0.328 0.714,0.202 1.081,0.204 2.249,0.011 4.496,-0.002 6.744,0.011 C -0.42,0.931 0.092,0.828 0,0"
           style="fill:#116eef;fill-opacity:1;fill-rule:evenodd;stroke:none"
           id="path2330" />
      </g>
      <g
         id="g2332"
         transform="translate(427.7305,1237.2734)">
        <path
           d="M 0,0 C -0.191,0.17 -0.277,0.384 -0.25,0.641 0.033,0.505 -0.01,0.242 0,0"
           style="fill:#116eef;fill-opacity:1;fill-rule:evenodd;stroke:none"
           id="path2334" />
      </g>
      <g
         id="g2336"
         transform="translate(460.7871,1221.4297)">
        <path
           d="M 0,0 C -1.178,0.002 -2.354,0.021 -3.531,-0.007 -4.064,-0.02 -4.27,0.152 -4.256,0.706 -4.224,1.958 -4.221,3.212 -4.257,4.465 -4.273,5.037 -4.045,5.169 -3.521,5.164 -1.244,5.143 1.035,5.163 3.313,5.14 3.723,5.136 4.146,5.048 4.535,4.913 5.733,4.498 6.389,3.472 6.264,2.287 6.139,1.109 5.134,0.185 3.758,0.045 3.117,-0.02 2.468,0.008 1.822,0.001 1.215,-0.005 0.607,0 0,0"
           style="fill:#086af2;fill-opacity:1;fill-rule:evenodd;stroke:none"
           id="path2338" />
      </g>
      <g
         id="g2340"
         transform="translate(460.4238,1234.9131)">
        <path
           d="M 0,0 C 1.027,0 2.057,0.037 3.082,-0.009 4.516,-0.073 5.453,-0.978 5.486,-2.253 5.52,-3.483 4.709,-4.41 3.314,-4.567 1.118,-4.816 -1.094,-4.624 -3.297,-4.663 c -0.433,-0.007 -0.605,0.179 -0.599,0.617 0.015,1.141 0.019,2.283 -0.004,3.425 -0.01,0.522 0.247,0.638 0.704,0.631 C -2.131,-0.008 -1.064,0.004 0,0.004 Z"
           style="fill:#116eef;fill-opacity:1;fill-rule:evenodd;stroke:none"
           id="path2342" />
      </g>
      <g
         id="g2344"
         transform="translate(425.7598,1232.4785)">
        <path
           d="m 0,0 c 0.966,-2.377 1.822,-4.522 2.713,-6.653 0.24,-0.574 0.1,-0.728 -0.492,-0.718 -1.479,0.025 -2.959,0.024 -4.44,0.005 -0.572,-0.008 -0.754,0.135 -0.51,0.718 C -1.835,-4.52 -0.973,-2.379 0,0"
           style="fill:#116eef;fill-opacity:1;fill-rule:evenodd;stroke:none"
           id="path2346" />
      </g>
    </g>
  </g>
</svg>
