<?xml version="1.0" encoding="UTF-8" standalone="no"?>
<!-- Created with Inkscape (http://www.inkscape.org/) -->

<svg
   xmlns:dc="http://purl.org/dc/elements/1.1/"
   xmlns:cc="http://creativecommons.org/ns#"
   xmlns:rdf="http://www.w3.org/1999/02/22-rdf-syntax-ns#"
   xmlns:svg="http://www.w3.org/2000/svg"
   xmlns="http://www.w3.org/2000/svg"
   xmlns:sodipodi="http://sodipodi.sourceforge.net/DTD/sodipodi-0.dtd"
   xmlns:inkscape="http://www.inkscape.org/namespaces/inkscape"
   width="82.00515mm"
   height="82.00515mm"
   viewBox="0 0 82.00515 82.00515"
   version="1.1"
   id="svg8"
   inkscape:version="0.92.5 (2060ec1f9f, 2020-04-08)"
   sodipodi:docname="avatar.svg">
  <defs
     id="defs2" />
  <sodipodi:namedview
     id="base"
     pagecolor="#ffffff"
     bordercolor="#666666"
     borderopacity="1.0"
     inkscape:pageopacity="0.0"
     inkscape:pageshadow="2"
     inkscape:zoom="0.78157895"
     inkscape:cx="93.334086"
     inkscape:cy="68.454929"
     inkscape:document-units="mm"
     inkscape:current-layer="g828"
     showgrid="false"
     fit-margin-top="0"
     fit-margin-left="0"
     fit-margin-right="0"
     fit-margin-bottom="0"
     inkscape:window-width="1440"
     inkscape:window-height="788"
     inkscape:window-x="0"
     inkscape:window-y="27"
     inkscape:window-maximized="1" />
  <metadata
     id="metadata5">
    <rdf:RDF>
      <cc:Work
         rdf:about="">
        <dc:format>image/svg+xml</dc:format>
        <dc:type
           rdf:resource="http://purl.org/dc/dcmitype/StillImage" />
        <dc:title />
      </cc:Work>
    </rdf:RDF>
  </metadata>
  <g
     inkscape:label="Capa 1"
     inkscape:groupmode="layer"
     id="layer1"
     transform="translate(-54.761391,-97.133888)">
    <g
       id="g828"
       style="fill:#ffffff">
      <rect
         y="97.133888"
         x="54.761391"
         height="82.00515"
         width="82.00515"
         id="rect824"
         style="opacity:1;fill:#ffffff;fill-opacity:1;stroke:none;stroke-width:5.71328211;stroke-linecap:round;stroke-linejoin:round;stroke-miterlimit:4;stroke-dasharray:none;stroke-opacity:1" />
      <path
         inkscape:connector-curvature="0"
         id="path10"
         d="m 95.763818,111.20627 c -9.229943,0 -16.750155,7.52058 -16.750155,16.75053 0,6.49447 3.723291,12.1423 9.14566,14.91968 -1.121748,0.41842 -2.21708,0.93232 -3.273599,1.54227 -6.728533,3.88473 -10.876618,11.07026 -10.876618,18.8397 a 1.7830222,1.7830222 0 0 0 1.754911,1.80799 1.7830222,1.7830222 0 0 0 1.810559,-1.80799 c 0,-6.50127 3.463812,-12.50118 9.094068,-15.75182 5.630256,-3.25063 12.558983,-3.25063 18.189256,0 5.63024,3.25064 9.09516,9.25055 9.09516,15.75182 a 1.7830222,1.7830222 0 1 0 3.56584,0 c 0,-7.76944 -4.14957,-14.95497 -10.8781,-18.8397 -1.05627,-0.60983 -2.15138,-1.12353 -3.27285,-1.54188 5.42277,-2.77727 9.14639,-8.4253 9.14639,-14.92007 0,-9.22995 -7.52058,-16.75053 -16.750522,-16.75053 z m 0,3.56584 c 7.302902,0 13.184682,5.88178 13.184682,13.18469 0,7.30291 -5.88178,13.18469 -13.184682,13.18469 -7.302903,0 -13.184685,-5.88178 -13.184685,-13.18469 0,-7.30291 5.881782,-13.18469 13.184685,-13.18469 z"
         style="color:#000000;font-style:normal;font-variant:normal;font-weight:normal;font-stretch:normal;font-size:medium;line-height:normal;font-family:sans-serif;font-variant-ligatures:normal;font-variant-position:normal;font-variant-caps:normal;font-variant-numeric:normal;font-variant-alternates:normal;font-feature-settings:normal;text-indent:0;text-align:start;text-decoration:none;text-decoration-line:none;text-decoration-style:solid;text-decoration-color:#000000;letter-spacing:normal;word-spacing:normal;text-transform:none;writing-mode:lr-tb;direction:ltr;text-orientation:mixed;dominant-baseline:auto;baseline-shift:baseline;text-anchor:start;white-space:normal;shape-padding:0;clip-rule:nonzero;display:inline;overflow:visible;visibility:visible;opacity:1;isolation:auto;mix-blend-mode:normal;color-interpolation:sRGB;color-interpolation-filters:linearRGB;solid-color:#000000;solid-opacity:1;vector-effect:none;fill:#00b7b7;fill-opacity:1;fill-rule:nonzero;stroke:none;stroke-width:3.56568766;stroke-linecap:round;stroke-linejoin:round;stroke-miterlimit:4;stroke-dasharray:none;stroke-dashoffset:0;stroke-opacity:1;color-rendering:auto;image-rendering:auto;shape-rendering:auto;text-rendering:auto;enable-background:accumulate" />
    </g>
  </g>
</svg>
