<?xml version="1.0" encoding="UTF-8" standalone="no"?>
<!-- Created with Inkscape (http://www.inkscape.org/) -->

<svg
   xmlns:dc="http://purl.org/dc/elements/1.1/"
   xmlns:cc="http://creativecommons.org/ns#"
   xmlns:rdf="http://www.w3.org/1999/02/22-rdf-syntax-ns#"
   xmlns:svg="http://www.w3.org/2000/svg"
   xmlns="http://www.w3.org/2000/svg"
   xmlns:sodipodi="http://sodipodi.sourceforge.net/DTD/sodipodi-0.dtd"
   xmlns:inkscape="http://www.inkscape.org/namespaces/inkscape"
   width="210mm"
   height="297mm"
   viewBox="0 0 210 297"
   version="1.1"
   id="svg8"
   inkscape:version="0.92.5 (2060ec1f9f, 2020-04-08)"
   sodipodi:docname="boton enlace.svg">
  <defs
     id="defs2" />
  <sodipodi:namedview
     id="base"
     pagecolor="#ffffff"
     bordercolor="#666666"
     borderopacity="1.0"
     inkscape:pageopacity="0.0"
     inkscape:pageshadow="2"
     inkscape:zoom="1.4"
     inkscape:cx="240.2015"
     inkscape:cy="928.1436"
     inkscape:document-units="mm"
     inkscape:current-layer="layer1"
     showgrid="false"
     inkscape:window-width="1366"
     inkscape:window-height="652"
     inkscape:window-x="0"
     inkscape:window-y="27"
     inkscape:window-maximized="1" />
  <metadata
     id="metadata5">
    <rdf:RDF>
      <cc:Work
         rdf:about="">
        <dc:format>image/svg+xml</dc:format>
        <dc:type
           rdf:resource="http://purl.org/dc/dcmitype/StillImage" />
        <dc:title></dc:title>
      </cc:Work>
    </rdf:RDF>
  </metadata>
  <g
     inkscape:label="Capa 1"
     inkscape:groupmode="layer"
     id="layer1">
    <rect
       style="opacity:1;fill:#00b7b7;fill-opacity:1;stroke:none;stroke-width:0.76700002;stroke-linecap:round;stroke-miterlimit:4;stroke-dasharray:none;stroke-opacity:1"
       id="rect915"
       width="55.184521"
       height="16.252975"
       x="33.261906"
       y="42.811012"
       rx="3.7364857"
       ry="2.7402811" />
    <text
       xml:space="preserve"
       style="font-style:normal;font-variant:normal;font-weight:bold;font-stretch:normal;font-size:4.23333311px;line-height:1.25;font-family:Verdana;-inkscape-font-specification:'Verdana Bold';letter-spacing:0px;word-spacing:0px;fill:#000000;fill-opacity:1;stroke:none;stroke-width:0.26458332"
       x="48.607735"
       y="51.391075"
       id="text919"><tspan
         sodipodi:role="line"
         id="tspan917"
         x="48.607735"
         y="51.391075"
         style="font-style:normal;font-variant:normal;font-weight:bold;font-stretch:normal;font-size:4.23333311px;font-family:Verdana;-inkscape-font-specification:'Verdana Bold';fill:#ffffff;stroke-width:0.26458332">Tanto por Hacer</tspan></text>
    <path
       inkscape:connector-curvature="0"
       id="path114"
       style="fill:#ffffff;fill-opacity:1;fill-rule:nonzero;stroke:none;stroke-width:0.00340345"
       d="m 42.583257,52.621944 c -0.521987,0.521986 -1.170617,0.871078 -1.876527,1.019198 0.179566,-0.173816 0.387177,-0.39582 0.595332,-0.663808 0.327412,-0.42162 0.588525,-0.870604 0.776089,-1.334563 0.04758,-0.117656 0.09019,-0.236403 0.128276,-0.355968 h 1.238856 c -0.185692,0.495407 -0.476687,0.949836 -0.862026,1.335141 z m -5.310643,0 C 36.887276,52.236639 36.59628,51.78221 36.410588,51.286803 h 1.294435 c 0.03805,0.119565 0.08066,0.238312 0.128242,0.355968 0.187564,0.463959 0.448711,0.912943 0.776123,1.334563 0.213873,0.275337 0.427065,0.502009 0.61,0.677898 -0.733137,-0.139234 -1.407565,-0.494044 -1.946774,-1.033288 z m -0.94119,-3.741414 h 1.247331 c -0.06657,0.311519 -0.10047,0.631375 -0.10047,0.957323 0,0.346404 0.03788,0.690321 0.113063,1.028728 h -1.310534 c -0.07127,-0.291029 -0.108093,-0.592643 -0.108093,-0.899974 0,-0.373326 0.05422,-0.738345 0.158703,-1.086077 z m 0.94119,-1.569263 c 0.517223,-0.517222 1.158841,-0.864782 1.857332,-1.015181 -0.159963,0.141856 -0.336942,0.316078 -0.514262,0.523383 -0.329556,0.385304 -0.592303,0.805971 -0.781024,1.250359 -0.05442,0.128208 -0.102375,0.258492 -0.144442,0.390512 h -1.204209 c 0.185386,-0.423286 0.450038,-0.812539 0.786605,-1.149073 z m 5.310643,0 c 0.336567,0.336534 0.601186,0.725787 0.786606,1.149073 h -1.148665 c -0.04203,-0.13202 -0.08999,-0.262304 -0.144442,-0.390512 -0.188722,-0.444388 -0.451468,-0.865055 -0.78099,-1.250359 -0.170411,-0.199238 -0.340481,-0.367777 -0.495407,-0.506502 0.669595,0.158567 1.284089,0.499491 1.782898,0.9983 z m -0.250596,1.569263 h 1.191786 c 0.104487,0.347732 0.158703,0.712751 0.158703,1.086077 0,0.307331 -0.03683,0.608945 -0.108093,0.899974 h -1.254954 c 0.07515,-0.338407 0.113028,-0.682324 0.113028,-1.028728 0,-0.325948 -0.03386,-0.645804 -0.10047,-0.957323 z m -2.194613,1.986051 V 48.88053 h 1.763941 c 0.07358,0.310361 0.110952,0.630387 0.110952,0.957323 0,0.346641 -0.04176,0.690731 -0.12443,1.028728 z m 0,2.721976 v -2.301754 h 1.625386 c -0.02243,0.06388 -0.04629,0.127461 -0.07171,0.190698 -0.17167,0.426757 -0.411613,0.840993 -0.713159,1.231196 -0.317848,0.411308 -0.638726,0.709689 -0.840517,0.87986 z m -0.420224,-2.301754 v 2.254616 c -0.199851,-0.173405 -0.488157,-0.450547 -0.776566,-0.821863 -0.303655,-0.390989 -0.545369,-0.806279 -0.7184,-1.234296 -0.02665,-0.06582 -0.0516,-0.131985 -0.07498,-0.198457 z m 0,-4.927311 v 2.100848 h -1.584273 c 0.026,-0.07321 0.05394,-0.145804 0.08424,-0.217615 0.170275,-0.403548 0.408278,-0.786607 0.707373,-1.138558 0.29433,-0.346369 0.591384,-0.594821 0.792664,-0.744675 z m 1.258596,0.733104 c 0.30158,0.352631 0.541625,0.736676 0.713568,1.141483 0.03168,0.07464 0.06078,0.150126 0.08784,0.226261 h -1.639783 v -2.141996 c 0.196753,0.141312 0.517359,0.398919 0.838372,0.774252 z m -3.077945,2.745257 c 0,-0.326901 0.0374,-0.646962 0.111021,-0.957323 h 1.708328 v 1.986051 h -1.694851 c -0.08267,-0.337997 -0.124498,-0.682087 -0.124498,-1.028728 z m 5.876671,-1.496564 c -0.210334,-0.497245 -0.511369,-0.943778 -0.894734,-1.327143 -0.383432,-0.383433 -0.829931,-0.684434 -1.327141,-0.894733 -0.514908,-0.217821 -1.061775,-0.328229 -1.625318,-0.328229 -0.563612,0 -1.110444,0.110408 -1.625352,0.328229 -0.497244,0.210299 -0.943743,0.5113 -1.327142,0.894733 -0.383399,0.383365 -0.684434,0.829898 -0.894733,1.327143 -0.217787,0.514908 -0.328195,1.061739 -0.328195,1.625318 0,0.563577 0.110408,1.110442 0.328195,1.62535 0.210299,0.497212 0.511334,0.94371 0.894733,1.327142 0.383399,0.383364 0.829898,0.6844 1.327142,0.8947 0.514908,0.217786 1.06174,0.328228 1.625352,0.328228 0.563543,0 1.11041,-0.110442 1.625318,-0.328228 0.49721,-0.2103 0.943709,-0.511336 1.327141,-0.8947 0.383365,-0.383432 0.6844,-0.82993 0.894734,-1.327142 0.217753,-0.514908 0.328194,-1.061773 0.328194,-1.62535 0,-0.563579 -0.110441,-1.11041 -0.328194,-1.625318" />
    <path
       inkscape:connector-curvature="0"
       id="path124"
       style="fill:#ffffff;fill-opacity:1;fill-rule:nonzero;stroke:none;stroke-width:0.00340345"
       d="m 45.634519,52.479441 0.935132,-0.694066 -3.987517,-1.594551 1.495442,4.025911 0.716903,-0.917743 1.118408,1.146453 0.42002,-0.409774 0.42002,-0.409777 -1.118408,-1.146453" />
  </g>
</svg>
