<?xml version="1.0" encoding="UTF-8" standalone="no"?>
<!-- Created with Inkscape (http://www.inkscape.org/) -->

<svg
   xmlns:dc="http://purl.org/dc/elements/1.1/"
   xmlns:cc="http://creativecommons.org/ns#"
   xmlns:rdf="http://www.w3.org/1999/02/22-rdf-syntax-ns#"
   xmlns:svg="http://www.w3.org/2000/svg"
   xmlns="http://www.w3.org/2000/svg"
   xmlns:sodipodi="http://sodipodi.sourceforge.net/DTD/sodipodi-0.dtd"
   xmlns:inkscape="http://www.inkscape.org/namespaces/inkscape"
   viewBox="0 0 91.092278 91.157356"
   version="1.1"
   id="svg-buscar"
   inkscape:version="0.92.5 (2060ec1f9f, 2020-04-08)"
   sodipodi:docname="buscar.svg">
  <defs
     id="defs1990" />
  <sodipodi:namedview
     id="base"
     pagecolor="#ffffff"
     bordercolor="#666666"
     borderopacity="1.0"
     inkscape:pageopacity="0.0"
     inkscape:pageshadow="2"
     inkscape:zoom="0.35"
     inkscape:cx="253.68358"
     inkscape:cy="57.980135"
     inkscape:document-units="mm"
     inkscape:current-layer="layer1"
     showgrid="false"
     fit-margin-top="0"
     fit-margin-left="0"
     fit-margin-right="0"
     fit-margin-bottom="0"
     inkscape:window-width="1440"
     inkscape:window-height="784"
     inkscape:window-x="0"
     inkscape:window-y="27"
     inkscape:window-maximized="1" />
  <metadata
     id="metadata1993">
    <rdf:RDF>
      <cc:Work
         rdf:about="">
        <dc:format>image/svg+xml</dc:format>
        <dc:type
           rdf:resource="http://purl.org/dc/dcmitype/StillImage" />
        <dc:title></dc:title>
      </cc:Work>
    </rdf:RDF>
  </metadata>
  <g
     inkscape:label="Capa 1"
     inkscape:groupmode="layer"
     id="layer1"
     transform="translate(140.06985,-73.016555)">
    <path
       inkscape:connector-curvature="0"
       style="fill:#fba4c3;fill-opacity:1;fill-rule:evenodd;stroke:none;stroke-width:3.09997129"
       d="m -107.80975,73.018495 c -3.44453,0.0456 -6.80981,0.65498 -10.08347,1.78952 -6.53163,2.26293 -11.8942,6.22573 -15.95808,11.85526 -4.03617,5.58306 -6.12026,11.84593 -6.21609,18.724815 -0.0296,2.11724 0.21096,4.26763 0.54153,6.36322 0.97017,6.18758 3.70101,11.56229 7.86406,16.19363 4.16636,4.6375 9.28903,7.82697 15.28118,9.6125 4.50753,1.33616 9.10217,1.60829 13.72723,1.00127 4.730561,-0.61739 9.122361,-2.26134 13.173889,-4.80335 0.210961,-0.13327 0.728795,-0.0456 0.930073,0.12986 0.536515,0.4864 0.974953,1.08214 1.306818,1.45987 3.223917,-3.22706 6.262493,-6.26845 9.418304,-9.42421 -0.564195,-0.48411 -1.244714,-1.06505 -1.94846,-1.66 0.162777,-0.29389 0.220074,-0.41008 0.289331,-0.5126 3.044294,-4.65924 4.726934,-9.79885 5.133204,-15.3106 0.359613,-4.84834 -0.268258,-9.608275 -2.054544,-14.174575 -3.016272,-7.71579 -8.16335,-13.5532 -15.463822,-17.45917 -3.893308,-2.08625 -8.06238,-3.21316 -12.467443,-3.63782 -1.16395,-0.11391 -2.32488,-0.16175 -3.47286,-0.14694 z m 0.45325,5.89232 c 15.295042,-0.0797 27.076221,12.00824 27.218779,26.795085 0.144665,15.18986 -12.122953,27.29572 -27.024689,27.28957 -14.94484,-0.0228 -27.05694,-11.8621 -27.05995,-27.03646 0,-15.084375 11.90234,-26.973815 26.86586,-27.048195 z m -13.43309,8.44708 c -0.65703,0.36565 -1.19438,0.53538 -1.55394,0.8828 -1.04763,1.02291 -2.11693,2.0497 -3.03134,3.1905 -4.18806,5.22652 -5.74442,11.230465 -4.88577,17.824125 0.51453,3.94629 2.0434,7.53525 4.46775,10.72517 1.79807,2.36215 3.94816,4.33051 6.48101,5.88048 0.78427,0.48411 1.64858,0.303 2.10728,-0.39413 0.46202,-0.70624 0.27726,-1.52856 -0.48856,-2.08967 -0.33785,-0.24149 -0.692,-0.46248 -1.03612,-0.69485 -2.32488,-1.58722 -4.2402,-3.58155 -5.70976,-5.97479 -2.4364,-3.97716 -3.46442,-8.28466 -2.93731,-12.95017 0.43696,-3.859365 1.77096,-7.347285 4.23238,-10.354275 0.93007,-1.13112 2.0654,-2.09491 3.01385,-3.21396 0.31918,-0.37818 0.57901,-1.04569 0.47683,-1.48926 -0.11163,-0.47386 -0.6805,-0.83723 -1.13625,-1.34208 z m 45.667233,41.446385 c -3.127789,3.12169 -6.163346,6.14611 -9.241698,9.21826 0.03645,0.0797 0.04784,0.15036 0.08771,0.19364 3.785105,4.11989 7.572626,8.2392 11.360738,12.34975 3.314078,3.59283 6.668502,7.15114 9.94819,10.77814 3.599148,3.98034 9.378527,3.73817 12.550023,-0.57753 2.265812,-3.0751 1.797461,-7.78436 -0.983154,-10.29538 -3.267318,-2.95733 -6.519884,-5.9355 -9.765501,-8.9238 -4.442433,-4.09198 -8.87311,-8.19615 -13.315247,-12.28505 -0.216998,-0.20504 -0.489697,-0.34742 -0.641653,-0.45906 z"
       id="path1672" />
  </g>
</svg>
