<?xml version="1.0" encoding="UTF-8" standalone="no"?>
<!-- Created with Inkscape (http://www.inkscape.org/) -->

<svg
   xmlns:dc="http://purl.org/dc/elements/1.1/"
   xmlns:cc="http://creativecommons.org/ns#"
   xmlns:rdf="http://www.w3.org/1999/02/22-rdf-syntax-ns#"
   xmlns:svg="http://www.w3.org/2000/svg"
   xmlns="http://www.w3.org/2000/svg"
   xmlns:sodipodi="http://sodipodi.sourceforge.net/DTD/sodipodi-0.dtd"
   xmlns:inkscape="http://www.inkscape.org/namespaces/inkscape"
   width="43.799149mm"
   height="43.788582mm"
   viewBox="0 0 43.799149 43.788582"
   version="1.1"
   id="svg3064"
   inkscape:version="0.92.5 (2060ec1f9f, 2020-04-08)"
   sodipodi:docname="celulas.svg">
  <defs
     id="defs3058" />
  <sodipodi:namedview
     id="base"
     pagecolor="#ffffff"
     bordercolor="#666666"
     borderopacity="1.0"
     inkscape:pageopacity="0.0"
     inkscape:pageshadow="2"
     inkscape:zoom="0.81210937"
     inkscape:cx="82.770052"
     inkscape:cy="82.750079"
     inkscape:document-units="mm"
     inkscape:current-layer="layer1"
     showgrid="false"
     fit-margin-top="0"
     fit-margin-left="0"
     fit-margin-right="0"
     fit-margin-bottom="0"
     showborder="false"
     inkscape:window-width="1440"
     inkscape:window-height="788"
     inkscape:window-x="0"
     inkscape:window-y="27"
     inkscape:window-maximized="1" />
  <metadata
     id="metadata3061">
    <rdf:RDF>
      <cc:Work
         rdf:about="">
        <dc:format>image/svg+xml</dc:format>
        <dc:type
           rdf:resource="http://purl.org/dc/dcmitype/StillImage" />
        <dc:title></dc:title>
      </cc:Work>
    </rdf:RDF>
  </metadata>
  <g
     inkscape:label="Capa 1"
     inkscape:groupmode="layer"
     id="layer1"
     transform="translate(-83.933757,-126.93904)">
    <g
       transform="matrix(0.35277777,0,0,-0.35277777,-620.73945,547.53814)"
       id="g3004">
      <path
         d="m 2059.5859,1068.126 c 35.036,0.261 62.606,28.021 62.06,63.173 -0.54,34.707 -29.151,61.586 -63.337,60.939 -32.442,-0.614 -60.816,-26.943 -60.81,-62.205 0,-34.288 28.186,-62.158 62.087,-61.907"
         style="fill:#ffffff;fill-opacity:1;fill-rule:evenodd;stroke:none"
         id="path2128"
         inkscape:connector-curvature="0" />
      <path
         d="m 2059.376,1074.041 c 30.215,-0.639 56.704,24.578 56.486,56.477 -0.214,31.179 -25.868,56.394 -57.493,55.908 -29.965,-0.462 -55.142,-25.83 -55.057,-56.113 0.086,-31.177 25.266,-56.451 56.064,-56.272 m 0.21,-5.915 c -33.901,-0.251 -62.082,27.619 -62.087,61.907 -0.01,35.262 28.368,61.591 60.81,62.205 34.186,0.647 62.796,-26.232 63.337,-60.939 0.546,-35.152 -27.024,-62.912 -62.06,-63.173"
         style="fill:#5f5e5f;fill-opacity:1;fill-rule:evenodd;stroke:none"
         id="path2132"
         inkscape:connector-curvature="0" />
      <path
         d="m 2109.4688,1124.8916 c 1.481,0.14 2.13,1.019 1.908,2.383 -0.365,2.242 -1.759,3.638 -4.016,3.878 -1.356,0.142 -2.324,-0.635 -2.089,-2.121 0.372,-2.361 1.84,-3.741 4.197,-4.14 m -61.142,49.858 c -2.659,0.043 -4.491,-0.462 -4.577,-3.02 -0.062,-1.917 3.121,-3.907 6.01,-3.805 1.932,0.07 3.754,0.611 3.912,2.948 0.136,2.012 -2.849,3.893 -5.345,3.877 m 45.526,-80.526 c 0.095,3.454 -2.02,6.567 -4.352,6.657 -2.081,0.079 -2.848,-1.275 -2.973,-3.067 -0.214,-3.048 2.258,-6.6 4.586,-6.557 2.076,0.036 2.658,1.503 2.739,2.967 m -67.302,16.381 c 0.016,1.925 -0.514,3.492 -2.795,3.52 -2.726,0.034 -6.049,-3.754 -6.138,-6.941 -0.055,-1.974 0.767,-3.42 2.896,-3.518 2.832,-0.129 5.997,3.601 6.037,6.939 m 36.72,7.657 c -4.452,0.027 -7.665,-2.077 -7.466,-4.891 0.201,-2.834 3.746,-4.658 7.97,-4.099 3.49,0.461 5.745,2.511 5.599,5.089 -0.137,2.45 -2.371,3.878 -6.103,3.901 m 9.959,-24.354 c 0.017,3.354 -0.669,5.922 -1.799,7.469 -1.717,2.354 -4.924,2.825 -7.083,1.039 -4.151,-3.431 -4.761,-11.858 -1.128,-15.862 1.737,-1.914 3.669,-2.42 5.997,-0.908 3.313,2.151 3.76,5.515 4.013,8.262 m 12.354,60.723 c 3.466,0.254 7.06,1.443 9.554,4.838 2.34,3.189 0.888,7.205 -2.996,7.954 -3.696,0.713 -7.344,0.323 -10.505,-1.948 -2.24,-1.611 -4.189,-3.57 -3.517,-6.694 0.559,-2.593 3.296,-4.141 7.464,-4.15 m -39.254,-63.649 c 0.989,0.058 2.081,0.021 3.138,0.201 6.309,1.074 8.73,6.945 4.563,11.773 -4.386,5.086 -10.183,7.013 -16.88,5.801 -2.813,-0.509 -5.229,-1.789 -5.995,-4.719 -0.838,-3.203 0.411,-5.926 2.766,-8.161 3.452,-3.273 7.611,-4.763 12.408,-4.895 m -7.714,69.128 c 0.021,5.83 -1.966,9.786 -4.813,10.615 -3.977,1.156 -6.818,-0.758 -9.281,-3.669 -2.928,-3.462 -4.161,-7.558 -4.246,-11.937 -0.094,-4.797 1.941,-8.046 5.045,-8.9 3.356,-0.922 7.023,0.75 9.572,4.543 2.187,3.256 3.678,6.797 3.723,9.348 m 37.091,-33.204 c -0.054,-5.689 1.009,-10.752 4.828,-14.914 3.865,-4.213 9.329,-4.429 13.436,-0.524 6.427,6.109 8.344,18.88 4.017,27.413 -1.91,3.765 -4.384,7.092 -9.113,7.251 -4.902,0.165 -7.935,-2.767 -10.195,-6.743 -2.25,-3.953 -3.08,-8.232 -2.973,-12.483 m -47.964,5.273 c -0.16,-11.045 6.064,-16.768 15.648,-15.952 14.236,1.214 29.693,15.908 31.64,30.08 1.553,11.301 -5.968,18.693 -17.148,16.846 -9.828,-1.625 -17.062,-7.33 -23.022,-14.887 -4.066,-5.154 -6.866,-10.899 -7.118,-16.087 m 40.925,42.49 -0.037,0.038 c 0.57,-1.157 1.438,-1.935 2.783,-1.653 0.909,0.191 1.459,0.989 1.51,1.889 0.111,1.986 -0.712,3.495 -2.547,4.413 -0.91,0.457 -1.98,0.92 -2.576,-0.092 -0.887,-1.506 -0.52,-3.077 0.591,-4.434 0.063,-0.078 0.182,-0.109 0.276,-0.161 m -57.683,-51.871 -0.045,0.041 c 0.696,-2.06 2.41,-1.237 3.759,-1.248 0.884,-0.01 1.324,0.775 1.222,1.593 -0.171,1.379 -1.11,2.287 -2.269,2.92 -0.55,0.301 -1.202,0.469 -1.828,0.564 -1.123,0.175 -2.285,0.082 -2.626,-1.225 -0.374,-1.425 0.048,-2.537 1.787,-2.645 m 88.51,26.996 c 0.225,-0.224 0.451,-0.449 0.675,-0.674 1.011,-1.115 2.116,-0.729 2.656,0.271 0.968,1.793 0.327,3.566 -0.881,5.053 -0.802,0.986 -2.021,1.557 -3.108,0.638 -1.51,-1.275 -0.885,-2.929 -0.241,-4.435 0.149,-0.35 0.59,-0.574 0.899,-0.853 m -82.698,-11.403 c -0.178,-1.051 0.214,-1.523 1.305,-1.287 0.912,-2.325 2.697,-1.938 4.057,-0.865 1.48,1.166 0.391,2.612 -0.54,3.65 -1.109,1.234 -2.701,1.446 -4.201,1.008 -1.318,-0.387 -1.913,-1.301 -0.621,-2.506 m 42.579,-64.35 c -30.798,-0.178 -55.977,25.095 -56.064,56.273 -0.085,30.282 25.093,55.65 55.057,56.112 31.625,0.487 57.28,-24.728 57.494,-55.908 0.217,-31.898 -26.272,-57.115 -56.487,-56.477"
         style="fill:#ffffff;fill-opacity:1;fill-rule:evenodd;stroke:none"
         id="path2136"
         inkscape:connector-curvature="0" />
      <path
         d="m 2060.0371,1157.7393 c -0.643,-0.142 -2.139,-0.362 -3.566,-0.8 -7.633,-2.34 -13.393,-7.176 -17.948,-13.596 -2.794,-3.94 -4.912,-8.128 -4.908,-13.107 0,-6.008 3.584,-9.118 9.61,-8.268 9.042,1.275 15.496,6.586 20.771,13.603 3.099,4.121 5.304,8.665 5.258,13.967 -0.045,5.212 -3.163,8.191 -9.217,8.201 m -32.294,-25.561 c 0.252,5.188 3.052,10.933 7.117,16.087 5.96,7.557 13.195,13.262 23.023,14.887 11.179,1.848 18.701,-5.545 17.147,-16.846 -1.946,-14.171 -17.403,-28.866 -31.639,-30.08 -9.584,-0.816 -15.808,4.908 -15.648,15.952"
         style="fill:#cd1419;fill-opacity:1;fill-rule:evenodd;stroke:none"
         id="path2140"
         inkscape:connector-curvature="0" />
      <path
         d="m 2080.2861,1126.751 c -0.165,-2.869 0.44,-5.63 1.54,-8.2 1.062,-2.481 2.63,-5 5.611,-5.158 2.758,-0.147 4.416,2.115 5.573,4.321 3.478,6.638 3.354,13.514 0.346,20.202 -2.08,4.625 -6.202,4.834 -9.389,0.924 -2.893,-3.551 -3.501,-7.746 -3.681,-12.089 m -4.579,0.154 c -0.108,4.251 0.723,8.531 2.973,12.484 2.259,3.975 5.293,6.908 10.195,6.743 4.728,-0.159 7.203,-3.486 9.112,-7.251 4.327,-8.533 2.41,-21.305 -4.016,-27.413 -4.108,-3.905 -9.572,-3.69 -13.436,0.523 -3.819,4.162 -4.883,9.226 -4.828,14.914"
         style="fill:#cd1419;fill-opacity:1;fill-rule:evenodd;stroke:none"
         id="path2144"
         inkscape:connector-curvature="0" />
      <path
         d="m 2026.4443,1163.7383 c 1.353,0.119 1.78,1.092 1.852,2.365 -0.603,-0.8 -1.206,-1.599 -1.806,-2.402 -0.199,-0.453 -0.399,-0.905 -0.6,-1.358 -2.107,-3.779 -2.945,-7.63 -0.689,-11.667 1.236,-1.842 2.75,-1.296 4.204,-0.403 4.089,2.518 6.647,9.774 5.146,14.354 -0.59,1.803 -1.456,3.156 -3.69,2.756 1.997,-1.219 1.022,-2.198 -0.099,-3.407 -2.673,-2.884 -4.174,-6.283 -3.712,-10.302 0.185,-1.611 -0.01,-2.8 -1.889,-3.032 -1.611,4.021 0.14,7.844 0.69,11.738 0.738,0.217 0.645,0.797 0.593,1.358 m 12.172,-3.629 c -0.046,-2.551 -1.536,-6.092 -3.724,-9.348 -2.549,-3.793 -6.216,-5.464 -9.572,-4.543 -3.104,0.854 -5.139,4.103 -5.045,8.9 0.085,4.38 1.318,8.475 4.246,11.937 2.463,2.912 5.305,4.826 9.281,3.669 2.847,-0.829 4.834,-4.785 4.814,-10.615"
         style="fill:#cd1419;fill-opacity:1;fill-rule:evenodd;stroke:none"
         id="path2148"
         inkscape:connector-curvature="0" />
      <path
         d="m 2036.9199,1098.8682 c 0.107,-1.657 1.223,-1.973 2.593,-1.95 2.817,-2.748 6.267,-2.835 9.745,-2.015 3.492,0.824 4.105,2.819 2.047,5.688 -2.724,3.798 -9.964,6.025 -14.34,4.388 -1.219,-0.457 -2.653,-0.933 -2.524,-2.541 0.127,-1.556 0.381,-3.272 2.479,-3.57 m 9.41,-7.887 c -4.797,0.132 -8.956,1.622 -12.408,4.896 -2.356,2.234 -3.605,4.958 -2.767,8.16 0.767,2.931 3.183,4.211 5.995,4.72 6.698,1.212 12.495,-0.715 16.881,-5.801 4.166,-4.828 1.745,-10.699 -4.563,-11.774 -1.057,-0.179 -2.15,-0.142 -3.138,-0.201"
         style="fill:#cd1419;fill-opacity:1;fill-rule:evenodd;stroke:none"
         id="path2152"
         inkscape:connector-curvature="0" />
      <path
         d="m 2093.2051,1163.0059 c -2.856,3.111 -10.496,1.871 -11.965,-1.768 -0.476,-1.18 0.024,-1.275 1.117,-1.505 4.172,-0.881 7.415,1.122 10.848,3.273 m -7.621,-8.375 c -4.168,0.01 -6.905,1.557 -7.464,4.149 -0.673,3.124 1.276,5.083 3.517,6.695 3.161,2.271 6.808,2.661 10.505,1.948 3.883,-0.749 5.335,-4.766 2.996,-7.954 -2.495,-3.396 -6.088,-4.584 -9.554,-4.838"
         style="fill:#cd1419;fill-opacity:1;fill-rule:evenodd;stroke:none"
         id="path2156"
         inkscape:connector-curvature="0" />
      <path
         d="m 2069.291,1090.3906 c 2.023,2.608 1.559,5.389 0.478,8.157 -0.381,0.977 -0.911,2.117 -2.148,2.137 -1.248,0.019 -2.254,-0.754 -2.779,-1.88 -1.256,-2.682 -1.88,-5.457 -0.735,-8.362 0.511,-1.296 0.954,-2.851 2.663,-2.804 1.605,0.044 2.323,1.301 2.565,2.803 z m 3.938,3.517 c -0.252,-2.747 -0.7,-6.111 -4.012,-8.262 -2.328,-1.512 -4.26,-1.006 -5.997,0.908 -3.633,4.004 -3.024,12.431 1.128,15.862 2.159,1.786 5.366,1.315 7.083,-1.039 1.13,-1.548 1.816,-4.115 1.798,-7.469"
         style="fill:#cd1419;fill-opacity:1;fill-rule:evenodd;stroke:none"
         id="path2160"
         inkscape:connector-curvature="0" />
      <path
         d="m 2067.5664,1114.0869 c -1.871,2.628 -6.406,3.126 -8.67,1.057 -1.115,-1.019 -0.709,-1.509 0.435,-2.051 2.977,-1.411 5.579,-0.197 8.235,0.994 m -4.296,4.175 c 3.733,-0.024 5.966,-1.451 6.104,-3.902 0.145,-2.578 -2.11,-4.627 -5.6,-5.088 -4.224,-0.559 -7.769,1.264 -7.97,4.098 -0.199,2.815 3.014,4.919 7.466,4.892"
         style="fill:#cd1419;fill-opacity:1;fill-rule:evenodd;stroke:none"
         id="path2164"
         inkscape:connector-curvature="0" />
      <path
         d="m 2024.0947,1112.0918 c -0.01,0.32 -0.277,1.215 -1.456,0.515 -2.1,-1.247 -3.514,-3.095 -3.778,-5.594 -0.062,-0.58 0.01,-1.889 1.114,-1.252 2.154,1.235 4.03,2.839 4.12,6.331 m 2.452,-1.49 c -0.036,-3.335 -3.201,-7.066 -6.033,-6.936 -2.129,0.098 -2.951,1.544 -2.896,3.518 0.089,3.186 3.412,6.974 6.138,6.941 2.281,-0.028 2.811,-1.596 2.791,-3.523"
         style="fill:#cd1419;fill-opacity:1;fill-rule:evenodd;stroke:none"
         id="path2168"
         inkscape:connector-curvature="0" />
      <path
         d="m 2088.4668,1099.5391 c -0.78,-3.271 -0.292,-5.546 2.609,-7.076 0.861,2.952 -0.194,5.005 -2.609,7.076 m 5.386,-5.315 c -0.081,-1.464 -0.663,-2.931 -2.74,-2.967 -2.327,-0.043 -4.799,3.509 -4.585,6.556 0.125,1.792 0.892,3.147 2.973,3.068 2.332,-0.09 4.446,-3.203 4.352,-6.657"
         style="fill:#cd1419;fill-opacity:1;fill-rule:evenodd;stroke:none"
         id="path2172"
         inkscape:connector-curvature="0" />
      <path
         d="m 2052.0996,1170.3418 c -1.914,2.195 -4.184,2.14 -6.822,1.471 2.197,-2.965 3.925,-3.296 6.822,-1.471 m -3.772,4.408 c 2.496,0.016 5.48,-1.865 5.344,-3.877 -0.158,-2.338 -1.98,-2.879 -3.912,-2.948 -2.889,-0.103 -6.072,1.888 -6.01,3.805 0.086,2.557 1.918,3.063 4.578,3.02"
         style="fill:#cd1419;fill-opacity:1;fill-rule:evenodd;stroke:none"
         id="path2176"
         inkscape:connector-curvature="0" />
      <path
         d="m 2106.3193,1129.4424 c 0.206,-2.139 1.349,-3.112 3.528,-3.399 -0.404,2.149 -1.169,3.518 -3.528,3.399 m 3.149,-4.551 c -2.357,0.4 -3.825,1.78 -4.197,4.14 -0.234,1.486 0.734,2.264 2.089,2.121 2.258,-0.24 3.651,-1.636 4.017,-3.878 0.221,-1.364 -0.427,-2.243 -1.909,-2.383"
         style="fill:#cd1419;fill-opacity:1;fill-rule:evenodd;stroke:none"
         id="path2180"
         inkscape:connector-curvature="0" />
      <path
         d="m 2068.668,1174.6689 c -0.094,0.052 -0.213,0.083 -0.276,0.16 -1.111,1.358 -1.478,2.929 -0.591,4.435 0.596,1.011 1.666,0.549 2.576,0.092 1.835,-0.918 2.658,-2.427 2.547,-4.414 -0.051,-0.899 -0.602,-1.698 -1.51,-1.888 -1.346,-0.282 -2.213,0.496 -2.783,1.653 0.756,0.867 2.07,-1.728 2.483,0.313 0.249,1.227 -0.76,2.181 -1.673,2.97 -0.192,0.166 -0.664,0.305 -0.8,0.198 -1.14,-0.903 0.099,-1.726 0.131,-2.601 0.011,-0.305 -0.067,-0.612 -0.104,-0.918"
         style="fill:#cd1419;fill-opacity:1;fill-rule:evenodd;stroke:none"
         id="path2184"
         inkscape:connector-curvature="0" />
      <path
         d="m 2010.9844,1122.7979 c -1.738,0.107 -2.16,1.22 -1.787,2.645 0.342,1.307 1.504,1.4 2.627,1.225 0.626,-0.096 1.277,-0.264 1.827,-0.564 1.159,-0.633 2.099,-1.541 2.27,-2.92 0.101,-0.819 -0.338,-1.601 -1.222,-1.593 -1.35,0.011 -3.064,-0.813 -3.76,1.248 1.14,0.153 2.216,-1.445 3.471,-0.126 -0.797,1.462 -1.927,2.539 -3.576,1.973 -1.088,-0.372 0.258,-1.22 0.15,-1.888"
         style="fill:#cd1419;fill-opacity:1;fill-rule:evenodd;stroke:none"
         id="path2188"
         inkscape:connector-curvature="0" />
      <path
         d="m 2099.4922,1149.79 c -0.307,0.282 -0.747,0.507 -0.896,0.856 -0.644,1.506 -1.269,3.161 0.241,4.436 1.087,0.919 2.305,0.348 3.107,-0.639 1.208,-1.486 1.85,-3.259 0.882,-5.052 -0.54,-1 -1.646,-1.386 -2.656,-0.272 0.123,0.137 0.243,0.274 0.361,0.414 1.574,1.588 1.299,2.637 -1.207,4.533 -0.716,-1.443 0.095,-2.652 0.572,-3.908 -0.136,-0.119 -0.271,-0.242 -0.404,-0.368"
         style="fill:#cd1419;fill-opacity:1;fill-rule:evenodd;stroke:none"
         id="path2192"
         inkscape:connector-curvature="0" />
      <path
         d="m 2016.7969,1138.3906 c -1.292,1.205 -0.697,2.119 0.621,2.506 1.5,0.438 3.092,0.226 4.201,-1.008 0.931,-1.038 2.02,-2.484 0.54,-3.65 -1.36,-1.073 -3.145,-1.46 -4.057,0.865 l -0.024,-0.027 c 1.119,0.355 2.415,-1.386 3.706,0.671 -1.835,0.057 -2.815,3.139 -4.999,0.633 z"
         style="fill:#cd1419;fill-opacity:1;fill-rule:evenodd;stroke:none"
         id="path2196"
         inkscape:connector-curvature="0" />
      <path
         d="m 2018.1016,1137.1035 c -1.091,-0.236 -1.482,0.236 -1.305,1.287 l -0.011,-0.01 c 0.638,-0.228 1.084,-0.65 1.293,-1.304 z"
         style="fill:#cd1419;fill-opacity:1;fill-rule:evenodd;stroke:none"
         id="path2200"
         inkscape:connector-curvature="0" />
      <path
         d="m 2100.1699,1149.1191 c -0.225,0.226 -0.45,0.45 -0.677,0.673 0.132,0.124 0.267,0.247 0.404,0.366 0.211,-0.209 0.422,-0.417 0.634,-0.625 -0.118,-0.141 -0.238,-0.277 -0.361,-0.414"
         style="fill:#cd1419;fill-opacity:1;fill-rule:evenodd;stroke:none"
         id="path2204"
         inkscape:connector-curvature="0" />
      <path
         d="m 2042.4502,1124.6172 c 2.976,0 5.573,0.771 7.88,2.188 6.543,4.019 11.86,9.218 15.138,16.308 0.874,1.891 1.461,3.805 1.336,5.903 -0.15,2.529 -1.016,2.93 -3.227,1.703 -1.145,-0.637 -1.199,-1.582 -1.432,-2.657 -1.795,-8.293 -11.395,-17.466 -19.752,-18.825 -2.047,-0.333 -3.395,-1.677 -3.265,-3.319 0.128,-1.623 2.206,-1.15 3.322,-1.301 m 17.587,33.122 c 6.054,-0.01 9.172,-2.989 9.217,-8.201 0.046,-5.302 -2.159,-9.846 -5.258,-13.967 -5.275,-7.016 -11.729,-12.328 -20.772,-13.603 -6.025,-0.85 -9.605,2.26 -9.609,8.268 0,4.979 2.114,9.167 4.908,13.107 4.555,6.42 10.315,11.256 17.948,13.596 1.427,0.438 2.923,0.658 3.566,0.8"
         style="fill:#ffffff;fill-opacity:1;fill-rule:evenodd;stroke:none"
         id="path2208"
         inkscape:connector-curvature="0" />
      <path
         d="m 2093.9697,1127.9512 c 0.062,3.496 -0.392,6.674 -2.016,9.556 -0.484,0.858 -1.291,2.1 -2.443,1.481 -1.151,-0.618 -0.606,-1.724 -0.099,-2.806 2.949,-6.277 3.014,-12.395 -1.422,-18.106 -0.57,-0.732 -0.547,-1.424 -0.082,-2.042 0.591,-0.79 1.379,-0.414 2.001,0.022 1.07,0.75 1.866,1.694 2.329,2.991 1.056,2.964 1.809,5.961 1.732,8.904 m -13.684,-1.2 c 0.18,4.343 0.788,8.538 3.681,12.089 3.188,3.91 7.31,3.701 9.39,-0.924 3.008,-6.689 3.132,-13.565 -0.347,-20.202 -1.156,-2.206 -2.814,-4.468 -5.572,-4.322 -2.982,0.159 -4.55,2.678 -5.612,5.159 -1.099,2.57 -1.705,5.331 -1.54,8.2"
         style="fill:#ffffff;fill-opacity:1;fill-rule:evenodd;stroke:none"
         id="path2212"
         inkscape:connector-curvature="0" />
      <path
         d="m 2025.1602,1150.6406 c 1.882,0.233 2.075,1.423 1.891,3.033 -0.463,4.02 1.038,7.419 3.712,10.303 1.121,1.209 2.095,2.187 0.098,3.406 2.235,0.401 3.1,-0.952 3.691,-2.756 1.501,-4.58 -1.058,-11.836 -5.147,-14.353 -1.454,-0.894 -2.968,-1.44 -4.204,0.403 z"
         style="fill:#ffffff;fill-opacity:1;fill-rule:evenodd;stroke:none"
         id="path2216"
         inkscape:connector-curvature="0" />
      <path
         d="m 2025.2012,1150.6768 c -2.256,4.036 -1.418,7.888 0.689,11.667 l -0.039,0.035 c -0.549,-3.892 -2.3,-7.716 -0.691,-11.737 0,0 0.041,0.035 0.041,0.035"
         style="fill:#ffffff;fill-opacity:1;fill-rule:evenodd;stroke:none"
         id="path2220"
         inkscape:connector-curvature="0" />
      <path
         d="m 2026.4873,1163.7031 c 0.603,0.801 1.206,1.601 1.809,2.4 -0.072,-1.273 -0.499,-2.246 -1.852,-2.365 z"
         style="fill:#ffffff;fill-opacity:1;fill-rule:evenodd;stroke:none"
         id="path2224"
         inkscape:connector-curvature="0" />
      <path
         d="m 2026.4443,1163.7383 c 0.052,-0.561 0.145,-1.141 -0.593,-1.359 l 0.039,-0.036 c 0.201,0.453 0.401,0.905 0.598,1.359 -10e-4,10e-4 -0.044,0.036 -0.044,0.036"
         style="fill:#ffffff;fill-opacity:1;fill-rule:evenodd;stroke:none"
         id="path2228"
         inkscape:connector-curvature="0" />
      <path
         d="m 2036.9199,1098.8682 c -2.098,0.298 -2.352,2.014 -2.479,3.57 -0.129,1.608 1.305,2.084 2.524,2.541 4.376,1.637 11.616,-0.59 14.34,-4.388 2.058,-2.869 1.445,-4.864 -2.047,-5.688 -3.478,-0.82 -6.928,-0.733 -9.745,2.015 l -0.042,-0.047 c 1.027,-0.309 2.06,-0.604 3.082,-0.932 2.199,-0.707 4.441,-0.823 6.697,-0.419 0.586,0.105 1.343,0.39 1.142,1.235 -0.145,0.603 -0.663,0.648 -1.279,0.525 -4.641,-0.933 -8.409,0.782 -11.664,3.957 -0.461,0.451 -0.896,1.113 -1.586,0.591 -0.636,-0.486 -0.282,-1.186 0.039,-1.738 0.266,-0.457 0.645,-0.848 0.975,-1.269 z"
         style="fill:#ffffff;fill-opacity:1;fill-rule:evenodd;stroke:none"
         id="path2232"
         inkscape:connector-curvature="0" />
      <path
         d="m 2039.5127,1096.918 c -1.37,-0.022 -2.485,0.293 -2.593,1.95 l -0.043,-0.047 c 0.865,-0.649 1.729,-1.299 2.594,-1.95 z"
         style="fill:#ffffff;fill-opacity:1;fill-rule:evenodd;stroke:none"
         id="path2236"
         inkscape:connector-curvature="0" />
      <path
         d="m 2093.2051,1163.0059 c -3.433,-2.151 -6.676,-4.154 -10.848,-3.273 -1.093,0.23 -1.593,0.325 -1.117,1.505 1.469,3.639 9.109,4.879 11.965,1.768"
         style="fill:#ffffff;fill-opacity:1;fill-rule:evenodd;stroke:none"
         id="path2240"
         inkscape:connector-curvature="0" />
      <path
         d="m 2069.335,1090.4414 c -0.242,-1.502 -0.96,-2.759 -2.565,-2.803 -1.709,-0.047 -2.152,1.508 -2.663,2.804 -1.145,2.905 -0.521,5.681 0.735,8.362 0.525,1.126 1.531,1.899 2.779,1.88 1.237,-0.019 1.767,-1.16 2.148,-2.137 1.081,-2.768 1.545,-5.548 -0.478,-8.157 -0.069,3.034 1.393,6.339 -1.592,8.939 2.107,-3.786 0.606,-7.228 -1.043,-10.612 1.684,-0.29 1.617,1.474 2.679,1.724"
         style="fill:#ffffff;fill-opacity:1;fill-rule:evenodd;stroke:none"
         id="path2244"
         inkscape:connector-curvature="0" />
      <path
         d="m 2067.5664,1114.0869 c -2.656,-1.191 -5.258,-2.405 -8.235,-0.994 -1.144,0.542 -1.55,1.032 -0.435,2.051 2.264,2.069 6.799,1.571 8.67,-1.057"
         style="fill:#ffffff;fill-opacity:1;fill-rule:evenodd;stroke:none"
         id="path2248"
         inkscape:connector-curvature="0" />
      <path
         d="m 2024.0947,1112.0918 c -0.09,-3.492 -1.966,-5.096 -4.12,-6.331 -1.109,-0.637 -1.176,0.672 -1.114,1.252 0.264,2.499 1.678,4.347 3.778,5.594 1.179,0.7 1.449,-0.195 1.456,-0.515"
         style="fill:#ffffff;fill-opacity:1;fill-rule:evenodd;stroke:none"
         id="path2252"
         inkscape:connector-curvature="0" />
      <path
         d="m 2088.4668,1099.5391 c 2.415,-2.071 3.47,-4.124 2.609,-7.076 -2.901,1.53 -3.389,3.805 -2.609,7.076"
         style="fill:#ffffff;fill-opacity:1;fill-rule:evenodd;stroke:none"
         id="path2256"
         inkscape:connector-curvature="0" />
      <path
         d="m 2052.0996,1170.3418 c -2.897,-1.825 -4.625,-1.494 -6.822,1.471 2.638,0.669 4.908,0.724 6.822,-1.471"
         style="fill:#ffffff;fill-opacity:1;fill-rule:evenodd;stroke:none"
         id="path2260"
         inkscape:connector-curvature="0" />
      <path
         d="m 2106.3193,1129.4424 c 2.359,0.119 3.124,-1.25 3.528,-3.399 -2.179,0.287 -3.322,1.26 -3.528,3.399"
         style="fill:#ffffff;fill-opacity:1;fill-rule:evenodd;stroke:none"
         id="path2264"
         inkscape:connector-curvature="0" />
      <path
         d="m 2068.668,1174.6689 c 0.037,0.306 0.115,0.613 0.104,0.918 -0.032,0.875 -1.271,1.698 -0.131,2.601 0.136,0.107 0.608,-0.032 0.8,-0.198 0.913,-0.789 1.922,-1.743 1.673,-2.97 -0.413,-2.041 -1.727,0.554 -2.483,-0.313 z"
         style="fill:#ffffff;fill-opacity:1;fill-rule:evenodd;stroke:none"
         id="path2268"
         inkscape:connector-curvature="0" />
      <path
         d="m 2010.9844,1122.7979 c 0.108,0.668 -1.238,1.516 -0.15,1.888 1.649,0.566 2.779,-0.511 3.576,-1.973 -1.255,-1.319 -2.331,0.279 -3.471,0.126 z"
         style="fill:#ffffff;fill-opacity:1;fill-rule:evenodd;stroke:none"
         id="path2272"
         inkscape:connector-curvature="0" />
      <path
         d="m 2100.5313,1149.5332 c -0.212,0.208 -0.424,0.416 -0.635,0.625 -0.477,1.256 -1.288,2.465 -0.572,3.908 2.506,-1.896 2.781,-2.945 1.207,-4.533"
         style="fill:#ffffff;fill-opacity:1;fill-rule:evenodd;stroke:none"
         id="path2276"
         inkscape:connector-curvature="0" />
      <path
         d="m 2018.0781,1137.0762 c -0.209,0.654 -0.654,1.076 -1.293,1.305 2.184,2.506 3.164,-0.576 4.999,-0.633 -1.291,-2.058 -2.587,-0.317 -3.706,-0.672"
         style="fill:#ffffff;fill-opacity:1;fill-rule:evenodd;stroke:none"
         id="path2280"
         inkscape:connector-curvature="0" />
      <path
         d="m 2042.4502,1124.6172 c -1.116,0.151 -3.194,-0.322 -3.322,1.301 -0.13,1.642 1.218,2.986 3.265,3.319 8.357,1.359 17.957,10.532 19.752,18.825 0.233,1.075 0.287,2.02 1.432,2.657 2.211,1.227 3.077,0.826 3.227,-1.703 0.125,-2.098 -0.462,-4.012 -1.336,-5.903 -3.278,-7.09 -8.595,-12.289 -15.138,-16.308 -2.307,-1.417 -4.904,-2.193 -7.88,-2.188"
         style="fill:#cd1419;fill-opacity:1;fill-rule:evenodd;stroke:none"
         id="path2284"
         inkscape:connector-curvature="0" />
      <path
         d="m 2093.9697,1127.9512 c 0.077,-2.943 -0.676,-5.94 -1.732,-8.904 -0.463,-1.297 -1.259,-2.241 -2.329,-2.991 -0.622,-0.436 -1.41,-0.812 -2.001,-0.022 -0.465,0.618 -0.488,1.31 0.082,2.042 4.436,5.711 4.371,11.829 1.422,18.106 -0.507,1.082 -1.052,2.188 0.099,2.806 1.152,0.619 1.959,-0.623 2.443,-1.481 1.624,-2.882 2.078,-6.06 2.016,-9.556"
         style="fill:#cd1419;fill-opacity:1;fill-rule:evenodd;stroke:none"
         id="path2288"
         inkscape:connector-curvature="0" />
      <path
         d="m 2039.4707,1096.8711 c -0.865,0.651 -1.729,1.301 -2.594,1.95 -0.33,0.421 -0.709,0.812 -0.974,1.269 -0.322,0.552 -0.676,1.252 -0.039,1.738 0.689,0.522 1.125,-0.14 1.586,-0.591 3.254,-3.175 7.022,-4.89 11.664,-3.957 0.615,0.123 1.133,0.078 1.278,-0.525 0.201,-0.845 -0.556,-1.13 -1.142,-1.235 -2.256,-0.404 -4.498,-0.288 -6.697,0.419 -1.021,0.328 -2.055,0.623 -3.082,0.932"
         style="fill:#cd1419;fill-opacity:1;fill-rule:evenodd;stroke:none"
         id="path2292"
         inkscape:connector-curvature="0" />
      <path
         d="m 2069.335,1090.4414 c -1.062,-0.25 -0.995,-2.014 -2.679,-1.724 1.649,3.384 3.15,6.826 1.043,10.612 2.985,-2.6 1.523,-5.905 1.592,-8.939 z"
         style="fill:#cd1419;fill-opacity:1;fill-rule:evenodd;stroke:none"
         id="path2296"
         inkscape:connector-curvature="0" />
    </g>
  </g>
</svg>
