<?xml version="1.0" encoding="UTF-8" standalone="no"?>
<svg
   xmlns:dc="http://purl.org/dc/elements/1.1/"
   xmlns:cc="http://creativecommons.org/ns#"
   xmlns:rdf="http://www.w3.org/1999/02/22-rdf-syntax-ns#"
   xmlns:svg="http://www.w3.org/2000/svg"
   xmlns="http://www.w3.org/2000/svg"
   id="svg1000"
   version="1.1"
   viewBox="0 0 99.999802 118.35628"
   height="118.35628mm"
   width="99.999802mm">
  <defs
     id="defs994" />
  <metadata
     id="metadata997">
    <rdf:RDF>
      <cc:Work
         rdf:about="">
        <dc:format>image/svg+xml</dc:format>
        <dc:type
           rdf:resource="http://purl.org/dc/dcmitype/StillImage" />
        <dc:title></dc:title>
      </cc:Work>
    </rdf:RDF>
  </metadata>
  <g
     transform="translate(150.41444,47.782175)"
     id="layer1">
    <path
       id="path108"
       transform="matrix(0.26458333,0,0,0.26458333,-150.41444,-47.782175)"
       d="M 333.15234 0 C 308.67915 0.0060472441 284.21231 0.076171875 259.74805 0.076171875 C 189.6473 0.067101009 119.53136 0.03312532 49.427734 0.021484375 C 37.044037 0.021484375 31.823368 5.3116224 31.791016 17.695312 C 31.757 27.551651 31.783203 27.909837 31.783203 38.554688 C 26.175329 38.554688 21.385574 38.44948 16.595703 38.564453 C 7.1895173 38.808648 1.1068272 44.480445 1.0273438 52.986328 C 0.92491855 61.562817 4.9112876 67.361096 14.296875 67.646484 C 19.283886 67.790673 21.416359 67.673828 27.300781 67.673828 L 27.300781 103.22461 C 21.416359 103.22461 19.128829 103.10153 14.318359 103.25195 C 5.0681169 103.54619 -0.05884503 109.51776 0.01171875 117.97656 C 0.095246309 126.54128 4.653295 132.14185 14.085938 132.3125 C 19.043506 132.40075 21.416359 132.32812 27.300781 132.32812 L 27.300781 168 C 21.416359 168 19.048862 167.88298 14.226562 168.02734 C 4.9468775 168.31566 -0.037325074 174.20558 0.021484375 182.82031 C 0.079689099 191.03492 7.1981082 196.76922 16.189453 197.07227 C 21.194077 197.23115 21.416778 197.10547 33.185547 197.10547 L 33.185547 222.86133 L 33.185547 232.74609 C 21.416778 232.74609 21.65509 232.59939 16.650391 232.77344 C 7.7502835 233.04708 1.4514232 238.84583 1.3808594 247.08398 C 1.2867491 255.63987 5.1698951 261.57434 14.361328 261.77148 C 19.336585 261.88623 21.416359 261.79102 27.300781 261.79102 L 27.300781 297.50195 C 21.416359 297.50195 18.85814 297.39621 13.859375 297.53125 C 4.8885907 297.77185 0.10486966 303.42624 0.001953125 311.82031 C -0.089133489 320.12905 6.2537008 326.17527 15.033203 326.52539 C 20.070217 326.72246 25.356572 326.57031 31.529297 326.57031 C 31.529297 337.37698 31.631366 347.25879 31.646484 357.13867 C 31.6805 369.14871 37.042196 374.57227 48.955078 374.57227 C 127.49396 374.5957 90.858521 374.61262 169.40625 374.5918 L 178.91016 334.08008 C 178.91016 334.08008 187.18659 334.74281 209 337.36133 C 230.8194 339.97952 268.50755 327.39007 268.51758 327.38672 C 268.51758 327.38672 268.4211 291.14563 285.45312 256.6543 C 299.21375 228.81234 328.95958 225.60096 350.41992 245.73438 C 350.41992 166.43935 350.42729 96.610508 350.40234 17.300781 C 350.39926 5.0463208 345.27414 0 333.15234 0 z M 48.880859 40.052734 C 49.918438 40.033845 50.937366 40.029925 51.947266 40.052734 C 60.682661 40.235134 66.761299 45.222584 67.541016 52.822266 C 67.58259 53.275382 66.582992 53.718756 66.597656 54.177734 C 66.597656 54.177734 65.546875 54.240089 65.546875 54.269531 L 65.546875 54.298828 C 65.546875 62.689958 60.550954 68.582986 51.330078 68.818359 C 46.846198 68.933106 42.900275 68.841797 38.554688 68.841797 L 38.837891 40.298828 C 42.494272 40.298828 45.768124 40.109402 48.880859 40.052734 z M 193.03711 61.939453 C 207.91872 61.883592 220.48242 74.340309 220.48242 89.166016 C 220.49074 104.48307 208.17814 116.67847 192.67578 116.73438 C 177.87648 116.77274 165.64339 104.26357 165.66992 89.123047 C 165.68504 74.088449 177.86717 61.989468 193.03711 61.939453 z M 48.880859 106.19531 C 49.918435 106.1767 50.93932 106.17493 51.949219 106.19922 C 60.684614 106.38162 66.763252 111.38183 67.542969 118.9668 C 67.584544 119.41691 66.582992 119.87112 66.597656 120.32422 C 66.597656 120.32422 65.546875 120.39472 65.546875 120.41797 L 65.546875 120.43945 C 65.546875 128.84824 60.550954 134.7314 51.330078 134.97266 C 46.846198 135.08151 42.900275 135.00176 38.554688 134.98438 L 38.837891 106.44531 C 42.4943 106.44531 45.768133 106.25115 48.880859 106.19531 z M 180.85156 127.66797 C 184.79851 127.67014 188.74683 127.70369 192.59961 127.73438 C 203.93293 127.83143 209.45191 132.90973 209.50195 144.26953 C 209.64622 170.94345 209.6582 197.60832 209.66406 224.28516 C 209.66406 231.06987 209.71484 237.86442 209.71484 245.63477 C 214.134 245.63477 217.45483 245.51168 220.72656 245.66211 C 229.15295 246.05935 235.44575 252.49911 235.35742 260.51953 C 235.25734 268.23689 229.12629 274.5308 220.7793 274.63672 C 203.58807 274.84856 186.38852 274.84724 169.20312 274.57617 L 169.20312 274.57812 C 160.80619 274.44577 155.04474 268.15775 155.08594 260.2168 C 155.13583 252.26109 158.17925 246.11527 166.34375 245.65039 C 169.81559 245.47098 174.4082 245.62695 174.4082 245.62695 L 174.4082 156.75781 C 174.4082 156.75781 170.36723 156.87268 167.13086 156.75195 C 158.33367 156.41952 153.62979 150.44852 153.65039 142.33984 C 153.67685 134.03992 160.32892 128.01853 169.11133 127.79492 C 172.95824 127.69633 176.90461 127.6658 180.85156 127.66797 z M 48.880859 168.375 C 49.918438 168.35611 50.93932 168.35219 51.949219 168.375 C 60.684614 168.56032 66.763252 173.54777 67.542969 181.15039 C 67.584544 181.59759 66.582954 182.04883 66.597656 182.50781 C 66.597656 182.537 65.546875 182.57227 65.546875 182.57227 L 65.546875 182.61133 C 65.546875 191.02599 60.550954 196.90915 51.330078 197.14453 C 46.846236 197.27105 42.900275 197.16797 38.554688 197.16211 L 38.837891 168.62305 C 42.494272 168.62305 45.768124 168.43167 48.880859 168.375 z M 48.880859 233.19727 C 49.918439 233.17824 50.93931 233.17371 51.949219 233.19727 C 60.684576 233.38549 66.763252 238.36512 67.542969 245.97656 C 67.584544 246.40908 66.582992 246.87404 66.597656 247.33008 C 66.597656 247.36258 65.546875 247.38879 65.546875 247.42383 L 65.546875 247.44727 C 65.546875 255.85017 60.550916 261.72258 51.330078 261.9668 C 46.846198 262.08438 42.902228 261.98828 38.556641 261.98828 L 38.837891 233.44727 C 42.494272 233.44727 45.768119 233.25434 48.880859 233.19727 z M 337.39648 250.25391 C 323.71002 250.41525 310.73308 258.293 302.91992 274.11133 C 285.87582 308.59972 285.9707 344.84375 285.9707 344.84375 C 285.9707 344.84375 248.29189 357.43597 226.47852 354.80859 C 204.6563 352.19592 196.38281 351.54883 196.38281 351.54883 L 191.7793 370.06445 C 191.7793 370.06445 266.35568 391.91028 326.98242 349.14258 C 374.13702 315.86344 390.03277 284.56198 368.52539 263.77539 C 359.11588 254.67096 348.04151 250.12842 337.39648 250.25391 z M 336.48047 272.62109 C 338.71121 272.62998 341.40563 273.25821 344.73242 274.70117 C 355.04776 279.16742 359.03149 292.76204 342.65234 311.0625 C 327.83545 327.57113 308.85547 332.13672 308.85547 332.13672 C 308.85547 332.13672 317.01683 296.8745 322.48633 287.3418 C 326.44682 280.45982 328.51353 272.58935 336.48047 272.62109 z M 51.949219 299.33984 C 60.684614 299.53116 66.763252 304.5077 67.542969 312.11914 C 67.584544 312.56633 66.582954 313.01855 66.597656 313.48047 C 66.597656 313.5005 65.548828 313.528 65.548828 313.55469 L 65.548828 313.58398 C 65.548828 321.98395 60.552907 327.87984 51.332031 328.12109 L 51.330078 328.12109 C 46.846198 328.22416 42.902228 328.13281 38.556641 328.13281 L 38.837891 299.58789 C 43.713103 299.58789 47.909622 299.25152 51.949219 299.33984 z M 305.80469 368.25 L 284.44531 374.76758 C 284.44531 374.76758 283.07155 401.38178 286.22852 413.3418 C 289.35012 425.30477 303.875 447.33008 303.875 447.33008 L 318.10938 437.71289 C 318.10938 437.71289 309.10378 415.75448 306.26758 403.21484 C 303.42537 390.67229 305.80469 368.25 305.80469 368.25 z "
       style="opacity:0.89999402;fill-opacity:1;fill-rule:nonzero;stroke:none;stroke-width:2.94219208" />
  </g>
</svg>
