<?xml version="1.0" encoding="UTF-8" standalone="no"?>
<svg
   xmlns:dc="http://purl.org/dc/elements/1.1/"
   xmlns:cc="http://creativecommons.org/ns#"
   xmlns:rdf="http://www.w3.org/1999/02/22-rdf-syntax-ns#"
   xmlns:svg="http://www.w3.org/2000/svg"
   xmlns="http://www.w3.org/2000/svg"
   id="decoration-left"
   version="1.1"
   viewBox="0 0 61.320807 278.46274">
  <defs
     id="defs4055">
    <linearGradient
       id="linearGradient224"
       spreadMethod="pad"
       gradientTransform="matrix(-51.173278,289.10111,-289.10111,-51.173278,25.093231,34.107342)"
       gradientUnits="userSpaceOnUse"
       y2="0"
       x2="1"
       y1="0"
       x1="0">
      <stop
         id="stop218"
         offset="0"
         style="stop-opacity:1;stop-color:#f97ca9" />
      <stop
         id="stop220"
         offset="0.35147054"
         style="stop-opacity:1;stop-color:#f97ca9" />
      <stop
         id="stop222"
         offset="1"
         style="stop-opacity:1;stop-color:#f93a82" />
    </linearGradient>
    <linearGradient
       id="linearGradient236"
       spreadMethod="pad"
       gradientTransform="matrix(-73.622684,415.928,-415.928,-73.622684,75.481249,124.47774)"
       gradientUnits="userSpaceOnUse"
       y2="0"
       x2="1"
       y1="0"
       x1="0">
      <stop
         id="stop230"
         offset="0"
         style="stop-opacity:1;stop-color:#f97ca9" />
      <stop
         id="stop232"
         offset="0.35147054"
         style="stop-opacity:1;stop-color:#f97ca9" />
      <stop
         id="stop234"
         offset="1"
         style="stop-opacity:1;stop-color:#f93a82" />
    </linearGradient>
    <linearGradient
       id="linearGradient248"
       spreadMethod="pad"
       gradientTransform="matrix(-24.682259,-139.4413,-139.4413,24.682259,144.66602,1646.4883)"
       gradientUnits="userSpaceOnUse"
       y2="0"
       x2="1"
       y1="0"
       x1="0">
      <stop
         id="stop242"
         offset="0"
         style="stop-opacity:1;stop-color:#f97ca9" />
      <stop
         id="stop244"
         offset="0.35147054"
         style="stop-opacity:1;stop-color:#f97ca9" />
      <stop
         id="stop246"
         offset="1"
         style="stop-opacity:1;stop-color:#f93a82" />
    </linearGradient>
    <linearGradient
       id="linearGradient260"
       spreadMethod="pad"
       gradientTransform="matrix(-60.971861,344.45779,-344.45779,-60.971861,78.534635,460.718)"
       gradientUnits="userSpaceOnUse"
       y2="0"
       x2="1"
       y1="0"
       x1="0">
      <stop
         id="stop254"
         offset="0"
         style="stop-opacity:1;stop-color:#f97ca9" />
      <stop
         id="stop256"
         offset="0.35147054"
         style="stop-opacity:1;stop-color:#f97ca9" />
      <stop
         id="stop258"
         offset="1"
         style="stop-opacity:1;stop-color:#f93a82" />
    </linearGradient>
    <linearGradient
       id="linearGradient272"
       spreadMethod="pad"
       gradientTransform="matrix(-66.779198,-377.26605,-377.26605,66.779198,135.9541,1234.3506)"
       gradientUnits="userSpaceOnUse"
       y2="0"
       x2="1"
       y1="0"
       x1="0">
      <stop
         id="stop266"
         offset="0"
         style="stop-opacity:1;stop-color:#f97ca9" />
      <stop
         id="stop268"
         offset="0.35147054"
         style="stop-opacity:1;stop-color:#f97ca9" />
      <stop
         id="stop270"
         offset="1"
         style="stop-opacity:1;stop-color:#f93a82" />
    </linearGradient>
  </defs>
  <metadata
     id="metadata4058">
    <rdf:RDF>
      <cc:Work
         rdf:about="">
        <dc:format>image/svg+xml</dc:format>
        <dc:type
           rdf:resource="http://purl.org/dc/dcmitype/StillImage" />
        <dc:title></dc:title>
      </cc:Work>
    </rdf:RDF>
  </metadata>
  <g
     transform="translate(146.13214,68.212202)"
     id="layer1">
    <g
       style="opacity:0.4"
       transform="matrix(0.35277777,0,0,-0.35277777,-147.65122,514.00418)"
       id="g4019">
      <path
         id="path274"
         transform="matrix(0.75000002,0,0,-0.75000002,4.3060536,1749.226)"
         d="m 0,240.2207 v 81.07813 c 87.637752,39.43155 159.49805,2.53515 159.49805,2.53515 l 17.09179,-22.91992 1.70118,-22.81054 C 106.66094,289.57009 47.692903,271.63823 0,240.2207 Z"
         clip-path="none"
         mask="none"
         style="fill:url(#linearGradient224);stroke:none;stroke-width:1.33333325" />
      <path
         id="path284"
         transform="matrix(0.75000002,0,0,-0.75000002,4.3060536,1749.226)"
         d="m 127.95703,133.76562 c 0,0 -68.528374,21.24023 -127.95703,91.96485 V 338.72461 C 35.01631,264.98606 89.068,199.59073 172.49609,169.93945 Z"
         mask="none"
         style="fill:url(#linearGradient236);stroke:none;stroke-width:1.33333325" />
      <path
         clip-path="none"
         mask="none"
         id="path294"
         d="m 114.87305,1650.3735 c -4.6118,-0.044 -9.49388,-0.4881 -14.59863,-1.4721 0,0 71.26876,-55.9013 23.65576,-142.5513 0,0 31.5424,14.3634 45.4834,44.6894 0,0 18.27804,36.072 1.89404,69.293 -5.5,11.158 -13.89337,19.2307 -23.48437,23.3687 -7.7085,3.333 -19.11481,6.8049 -32.9502,6.6723 z"
         style="fill:url(#linearGradient248);stroke:none;stroke-width:0.99999994" />
      <path
         id="path304"
         transform="matrix(0.75000002,0,0,-0.75000002,4.3060536,1749.226)"
         d="m 0,587.20703 v 72.69336 c 56.558692,34.94121 129.05286,42.87349 156.22266,126.35547 2.47333,7.612 18.32081,37.69151 14.13281,45.96484 0,0 48.33048,-94.22026 1.14648,-146.43359 C 109.97314,617.7188 53.484179,635.46623 0,587.20703 Z"
         clip-path="none"
         mask="none"
         style="fill:url(#linearGradient260);stroke:none;stroke-width:1.33333325" />
      <path
         clip-path="none"
         mask="none"
         id="path314"
         style="fill:url(#linearGradient272);stroke:none"
         d="m 132.932,1234.886 c 0,0 41.126,-37.401 -6.353,-139.703 -50.041,-107.829 -7.975,-224.877 -7.975,-224.877 l -37.439,7.048 -34.303,-16.32 c 0,0 -13.985,149.338 23.214,224.512 37.202,75.176 74.924,74.502 62.856,149.34" />
    </g>
  </g>
</svg>
