<?xml version="1.0" encoding="UTF-8" standalone="no"?>
<svg
   xmlns:dc="http://purl.org/dc/elements/1.1/"
   xmlns:cc="http://creativecommons.org/ns#"
   xmlns:rdf="http://www.w3.org/1999/02/22-rdf-syntax-ns#"
   xmlns:svg="http://www.w3.org/2000/svg"
   xmlns="http://www.w3.org/2000/svg"
   xmlns:sodipodi="http://sodipodi.sourceforge.net/DTD/sodipodi-0.dtd"
   xmlns:inkscape="http://www.inkscape.org/namespaces/inkscape"
   viewBox="0 0 100 100.00187"
   version="1.1"
   id="svg-descarga"
   sodipodi:docname="descargas.svg"
   inkscape:version="0.92.5 (2060ec1f9f, 2020-04-08)">
  <sodipodi:namedview
     pagecolor="#ffffff"
     bordercolor="#666666"
     borderopacity="1"
     objecttolerance="10"
     gridtolerance="10"
     guidetolerance="10"
     inkscape:pageopacity="0"
     inkscape:pageshadow="2"
     inkscape:window-width="1440"
     inkscape:window-height="788"
     id="namedview12"
     showgrid="false"
     inkscape:zoom="3.973689"
     inkscape:cx="90.756"
     inkscape:cy="51.24108"
     inkscape:window-x="0"
     inkscape:window-y="27"
     inkscape:window-maximized="1"
     inkscape:current-layer="svg-descarga" />
  <defs
     id="defs7202" />
  <metadata
     id="metadata7205">
    <rdf:RDF>
      <cc:Work
         rdf:about="">
        <dc:format>image/svg+xml</dc:format>
        <dc:type
           rdf:resource="http://purl.org/dc/dcmitype/StillImage" />
        <dc:title></dc:title>
      </cc:Work>
    </rdf:RDF>
  </metadata>
  <g
     id="layer1"
     transform="matrix(1.3818121,0,0,1.3818121,144.25932,-66.811934)">
    <g
       transform="matrix(1.8744142,0,0,-1.8744142,-2128.8928,582.23202)"
       id="g7123">
      <path
         d="m 1095.4414,278.4492 v -0.956 c 0,-2.866 0,-5.732 0,-8.599 0,-1.302 -0.297,-1.589 -1.631,-1.591 -0.673,-10e-4 -1.349,0 -2.208,0 2.714,-3.005 5.273,-5.841 7.856,-8.704 2.62,2.913 5.164,5.734 7.838,8.704 -0.896,0 -1.608,-10e-4 -2.319,0 -1.175,0.003 -1.537,0.361 -1.537,1.539 0,2.894 0,5.791 0,8.683 v 0.924 z m -2.171,-8.97 v 9.119 c 0,0.304 -0.016,0.612 0,0.915 0.059,0.722 0.461,1.142 1.179,1.144 3.341,0.015 6.68,0.02 10.022,-0.002 0.769,-0.005 1.144,-0.487 1.149,-1.337 0,-2.951 0,-5.9 0,-8.853 v -0.981 c 1.3,0 2.518,-0.012 3.735,0.006 0.589,0.007 1.24,-0.034 1.357,-0.677 0.077,-0.434 -0.113,-1.06 -0.411,-1.398 -3.23,-3.645 -6.5,-7.255 -9.765,-10.866 -0.813,-0.898 -1.346,-0.919 -2.141,-0.043 -3.274,3.608 -6.529,7.23 -9.795,10.845 -0.38,0.424 -0.74,0.858 -0.449,1.486 0.287,0.61 0.825,0.658 1.409,0.649 1.194,-0.017 2.389,-0.007 3.702,-0.007"
         style="fill:#4d4d4d;fill-opacity:1;fill-rule:evenodd;stroke:none"
         id="path998"
         inkscape:connector-curvature="0" />
      <path
         style="stroke-width:2.59008813;fill-opacity:1"
         d="M 50.228516 10.763672 C 45.902745 10.764643 41.576742 10.777449 37.25 10.796875 C 35.390317 10.802055 34.348128 11.889722 34.195312 13.759766 C 34.153873 14.544562 34.195312 15.341519 34.195312 16.128906 L 34.195312 39.748047 L 34.175781 39.748047 C 30.774995 39.748047 27.680456 39.7745 24.587891 39.730469 C 23.075279 39.707158 21.680855 39.832156 20.9375 41.412109 C 20.183784 43.038685 21.115376 44.161568 22.099609 45.259766 C 30.558838 54.622935 38.990754 64.004571 47.470703 73.349609 C 49.529823 75.618527 50.909883 75.56418 53.015625 73.238281 C 61.472263 63.885473 69.942609 54.534622 78.308594 45.09375 C 79.08044 44.2183 79.572484 42.596755 79.373047 41.472656 C 79.070007 39.80723 77.382984 39.702573 75.857422 39.720703 C 72.705285 39.767325 69.550708 39.736328 66.183594 39.736328 L 66.183594 37.195312 L 66.183594 14.263672 C 66.170643 12.062097 65.198809 10.813732 63.207031 10.800781 C 58.878994 10.77229 54.554287 10.762701 50.228516 10.763672 z M 39.820312 16.515625 L 60.537109 16.515625 L 60.537109 18.908203 L 60.537109 41.398438 C 60.537109 44.449559 61.474224 45.376995 64.517578 45.384766 C 66.359131 45.387356 68.204672 45.384766 70.525391 45.384766 C 63.599495 53.077328 57.010641 60.382807 50.224609 67.927734 C 43.534411 60.512312 36.906453 53.167981 29.876953 45.384766 C 32.101839 45.384766 33.852574 45.387356 35.595703 45.384766 C 39.050881 45.379585 39.820312 44.635967 39.820312 41.263672 L 39.820312 18.992188 L 39.820312 16.515625 z M 85.705078 64.841797 C 83.964539 64.717473 82.83233 65.964018 82.767578 68.087891 C 82.705416 70.102979 82.742187 72.123583 82.742188 74.138672 C 82.708192 78.601717 80.333124 81.273999 76.085938 81.628906 C 75.802792 81.652567 75.510578 81.665055 75.210938 81.667969 C 71.17558 81.70423 67.137515 81.677734 63.091797 81.677734 C 50.540229 81.677734 37.99688 81.680919 25.445312 81.667969 C 20.353201 81.662789 17.689963 78.983756 17.664062 73.958984 C 17.656294 71.876553 17.731873 69.782244 17.630859 67.689453 C 17.547977 65.959274 16.597454 64.813985 14.763672 64.847656 C 12.93507 64.873557 12.041526 65.983687 12.015625 67.773438 C 11.989724 69.861047 12.015625 71.959901 12.015625 74.044922 C 12.020805 82.107867 17.173637 87.250044 25.283203 87.257812 C 33.576666 87.268173 41.871916 87.261719 50.167969 87.261719 L 50.173828 87.261719 C 58.544993 87.261719 66.911996 87.277217 75.275391 87.253906 C 83.162209 87.238366 88.308974 82.14637 88.378906 74.339844 C 88.381496 72.247052 88.352368 70.162425 88.380859 68.064453 C 88.40935 66.20736 87.676135 64.973891 85.705078 64.841797 z "
         transform="matrix(0.38608723,0,0,-0.38608723,1080.0677,284.82556)"
         id="path1002" />
    </g>
  </g>
</svg>
