<?xml version="1.0" encoding="UTF-8" standalone="no"?>
<!-- Created with Inkscape (http://www.inkscape.org/) -->

<svg
   xmlns:dc="http://purl.org/dc/elements/1.1/"
   xmlns:cc="http://creativecommons.org/ns#"
   xmlns:rdf="http://www.w3.org/1999/02/22-rdf-syntax-ns#"
   xmlns:svg="http://www.w3.org/2000/svg"
   xmlns="http://www.w3.org/2000/svg"
   xmlns:sodipodi="http://sodipodi.sourceforge.net/DTD/sodipodi-0.dtd"
   xmlns:inkscape="http://www.inkscape.org/namespaces/inkscape"
   width="20.464521mm"
   height="35.461742mm"
   viewBox="0 0 20.464521 35.461742"
   version="1.1"
   id="svg10743"
   inkscape:version="0.92.5 (2060ec1f9f, 2020-04-08)"
   sodipodi:docname="descarga-herramientas-2.4.a-cirugia.svg">
  <defs
     id="defs10737">
    <filter
       style="color-interpolation-filters:sRGB"
       id="filter18884-3-5-5"
       x="-0.057991955"
       width="1.1159838"
       y="-0.040945187"
       height="1.0818903">
      <feGaussianBlur
         stdDeviation="5.2205081"
         id="feGaussianBlur18886-6-6-3" />
    </filter>
    <clipPath
       clipPathUnits="userSpaceOnUse"
       id="clipPath2464">
      <path
         d="M 0,3600.894 H 2218.326 V 0 H 0 Z"
         id="path2462"
         inkscape:connector-curvature="0" />
    </clipPath>
    <clipPath
       clipPathUnits="userSpaceOnUse"
       id="clipPath2572">
      <path
         d="m 897.596,2519.35 h 27.821 v -4.09 h -27.821 z"
         id="path2570"
         inkscape:connector-curvature="0" />
    </clipPath>
    <clipPath
       clipPathUnits="userSpaceOnUse"
       id="clipPath2740">
      <path
         d="m 1189.21,2523.6 h 2.16 v -1.59 h -2.16 z"
         id="path2738"
         inkscape:connector-curvature="0" />
    </clipPath>
  </defs>
  <sodipodi:namedview
     id="base"
     pagecolor="#ffffff"
     bordercolor="#666666"
     borderopacity="1.0"
     inkscape:pageopacity="0.0"
     inkscape:pageshadow="2"
     inkscape:zoom="5.6"
     inkscape:cx="45.582709"
     inkscape:cy="56.245575"
     inkscape:document-units="mm"
     inkscape:current-layer="layer1"
     showgrid="false"
     fit-margin-top="0"
     fit-margin-left="0"
     fit-margin-right="0"
     fit-margin-bottom="0"
     inkscape:window-width="1366"
     inkscape:window-height="652"
     inkscape:window-x="0"
     inkscape:window-y="27"
     inkscape:window-maximized="1" />
  <metadata
     id="metadata10740">
    <rdf:RDF>
      <cc:Work
         rdf:about="">
        <dc:format>image/svg+xml</dc:format>
        <dc:type
           rdf:resource="http://purl.org/dc/dcmitype/StillImage" />
        <dc:title />
      </cc:Work>
    </rdf:RDF>
  </metadata>
  <g
     inkscape:label="Capa 1"
     inkscape:groupmode="layer"
     id="layer1"
     transform="translate(-95.601074,-131.10246)">
    <rect
       style="opacity:0.5;fill:#0069af;fill-opacity:1;stroke:#f97ca9;stroke-width:0.55135214;stroke-linecap:round;stroke-linejoin:round;stroke-miterlimit:4;stroke-dasharray:none;stroke-opacity:1;filter:url(#filter18884-3-5-5)"
       id="rect18311-7-2-5"
       width="216.05099"
       height="305.99982"
       x="178"
       y="-1466"
       transform="matrix(0.078483,0,0,0.07629245,84.155962,243.90308)" />
    <text
       y="158.1931"
       x="95.497734"
       style="font-variant:normal;font-weight:bold;font-stretch:normal;font-size:1.11389279px;font-family:Verdana;-inkscape-font-specification:Verdana-Bold;writing-mode:lr-tb;fill:#4d4d4d;fill-opacity:1;fill-rule:nonzero;stroke:none;stroke-width:0.07106401"
       id="text940">
      <tspan
         style="stroke-width:0.07106401"
         x="95.497734 96.422249 97.161888 97.822411 98.477394 99.221458 99.775063 100.55369 101.29777 102.05967 102.86613 103.63081 104.42391 105.08443 105.82407 106.27297 107.03767 107.69819 108.07913 108.85775 109.60183 110.15545 110.89951 111.28046 111.83408 112.57371 113.35232 114.14539 114.80038 115.18131 115.73493"
         y="158.1931"
         sodipodi:role="line"
         id="tspan936">Descarga Consejos para reducir</tspan>
      <tspan
         style="stroke-width:0.07106401"
         x="97.090599 97.830223 98.211159 98.592125 99.145729 99.52668 100.2663 100.92684 101.70547 102.47013 102.85108 103.62969 104.36932 104.75027 105.45983 105.84078 106.63386 107.10394 107.84356 108.62218 109.36179 110.54029 111.28437 111.88921 112.66782 113.44645 113.91651"
         y="159.77594"
         sodipodi:role="line"
         id="tspan938">el riesgo de Linfedema(pdf)</tspan>
    </text>
    <path
       d="M 114.55309,155.30593 H 96.764461 v -23.78122 h 17.788629 z"
       style="fill:#e088b7;fill-opacity:1;fill-rule:nonzero;stroke:none;stroke-width:0.09519388"
       id="path914"
       inkscape:connector-curvature="0" />
    <text
       y="153.63675"
       x="98.708878"
       style="font-variant:normal;font-weight:bold;font-stretch:normal;font-size:1.54609168px;font-family:Verdana;-inkscape-font-specification:Verdana-Bold;writing-mode:lr-tb;fill:#4d4d4d;fill-opacity:1;fill-rule:nonzero;stroke:none;stroke-width:0.09863738"
       id="text1304">
      <tspan
         style="stroke-width:0.09863738"
         x="98.708878 100.00296 101.06435 101.68742 102.72021 103.24896 104.09314 105.19395 105.84641 106.90781 107.67621 109.31197 110.34477 111.04979 111.57854 112.58351"
         y="153.63675"
         sodipodi:role="line"
         id="tspan1302">Hoja Informativa</tspan>
    </text>
    <g
       id="g9010"
       transform="matrix(0.13331682,0,0,0.1333169,120.13532,123.65362)"
       style="stroke-width:1.28523135">
      <path
         inkscape:connector-curvature="0"
         id="path9000"
         style="fill:none;stroke:#f97ca9;stroke-width:2.26700521;stroke-linecap:butt;stroke-linejoin:miter;stroke-miterlimit:10;stroke-dasharray:none;stroke-opacity:1"
         d="m -96.23788,308.38552 c 0,6.81955 -5.52909,12.35004 -12.34793,12.35004 -6.82201,0 -12.35145,-5.53049 -12.35145,-12.35004 0,-6.82025 5.52944,-12.35005 12.35145,-12.35005 6.81884,0 12.34793,5.5298 12.34793,12.35005 z" />
      <path
         inkscape:connector-curvature="0"
         id="path9002"
         style="fill:#4d4d4d;fill-opacity:1;fill-rule:evenodd;stroke:none;stroke-width:0.45340109"
         d="m -110.46131,302.33213 v 0.44274 c 0,1.32786 7e-4,2.65465 0,3.9811 -0.001,0.60325 -0.13829,0.73589 -0.75565,0.7366 -0.31115,0 -0.62442,0 -1.02235,0 1.25659,1.39135 2.44086,2.70439 3.63713,4.03013 1.21356,-1.34867 2.39043,-2.655 3.62868,-4.03013 -0.41452,0 -0.74437,0 -1.07315,0 -0.54399,0 -0.7112,-0.16651 -0.7112,-0.71226 -0.003,-1.3402 -0.002,-2.68111 -0.002,-4.0199 v -0.42828 z m -1.00613,4.1529 v -4.22169 c 0,-0.14076 -0.007,-0.28222 0.002,-0.42368 0.0279,-0.33408 0.21449,-0.52846 0.54645,-0.52952 1.54693,-0.006 3.09351,-0.009 4.63974,0 0.3556,0.004 0.52951,0.22542 0.53198,0.61877 0.002,1.36631 0.001,2.73191 0.001,4.09892 v 0.45474 c 0.60254,0 1.16628,0.005 1.73002,-0.004 0.27234,-0.004 0.57361,0.0159 0.62794,0.31291 0.0353,0.20144 -0.0529,0.49107 -0.19015,0.6477 -1.49613,1.68698 -3.01025,3.35915 -4.5219,5.03097 -0.37536,0.41557 -0.62195,0.42439 -0.9906,0.0197 -1.51553,-1.67111 -3.02331,-3.3468 -4.53425,-5.02144 -0.17639,-0.19614 -0.34326,-0.39687 -0.20849,-0.68756 0.13299,-0.28328 0.3817,-0.30445 0.65228,-0.30057 0.55351,0.008 1.10631,0.004 1.71344,0.004" />
      <path
         inkscape:connector-curvature="0"
         id="path9004"
         style="fill:#f97ca9;fill-opacity:1;stroke:#f97ca9;stroke-width:0.22670054;stroke-linecap:butt;stroke-linejoin:miter;stroke-miterlimit:10;stroke-dasharray:none;stroke-opacity:1"
         d="m -110.46131,302.33213 v 0.44274 c 0,1.32786 7e-4,2.65465 0,3.9811 -0.001,0.60325 -0.13829,0.73589 -0.75565,0.7366 -0.31115,0 -0.62442,0 -1.02235,0 1.25659,1.39135 2.44086,2.70439 3.63713,4.03013 1.21356,-1.34867 2.39043,-2.655 3.62868,-4.03013 -0.41452,0 -0.74437,0 -1.07315,0 -0.54399,0 -0.7112,-0.16651 -0.7112,-0.71226 -0.003,-1.3402 -0.002,-2.68111 -0.002,-4.0199 v -0.42828 z m -1.00613,4.1529 v -4.22169 c 0,-0.14076 -0.007,-0.28222 0.002,-0.42368 0.0279,-0.33408 0.21449,-0.52846 0.54645,-0.52952 1.54693,-0.006 3.09351,-0.009 4.63974,0 0.3556,0.004 0.52951,0.22542 0.53198,0.61877 0.002,1.36631 0.001,2.73191 0.001,4.09892 v 0.45474 c 0.60254,0 1.16628,0.005 1.73002,-0.004 0.27234,-0.004 0.57361,0.0159 0.62794,0.31291 0.0353,0.20144 -0.0529,0.49107 -0.19015,0.6477 -1.49613,1.68698 -3.01025,3.35915 -4.5219,5.03097 -0.37536,0.41557 -0.62195,0.42439 -0.9906,0.0197 -1.51553,-1.67111 -3.02331,-3.3468 -4.53425,-5.02144 -0.17639,-0.19614 -0.34326,-0.39687 -0.20849,-0.68756 0.13299,-0.28328 0.3817,-0.30445 0.65228,-0.30057 0.55351,0.008 1.10631,0.004 1.71344,0.004 z" />
      <path
         inkscape:connector-curvature="0"
         id="path9006"
         style="fill:#4d4d4d;fill-opacity:1;fill-rule:evenodd;stroke:none;stroke-width:0.45340109"
         d="m -108.61234,314.97876 c -1.48237,0 -2.96545,0 -4.44782,0 -1.44956,0 -2.37031,-0.9204 -2.37137,-2.36114 0,-0.37289 -0.005,-0.74789 10e-4,-1.12184 0.004,-0.31926 0.16439,-0.51787 0.49036,-0.52211 0.32844,-0.006 0.49812,0.19897 0.51364,0.50765 0.0173,0.3743 0.004,0.74824 0.006,1.12113 0.002,0.89782 0.48013,1.37654 1.39065,1.37724 2.24331,0.004 4.48592,0 6.72959,0 0.72284,0 1.44427,0.005 2.16535,0 0.8583,-0.008 1.3402,-0.49459 1.3469,-1.3462 0.002,-0.35983 -0.007,-0.72037 0.003,-1.08126 0.0113,-0.37888 0.21379,-0.6029 0.52388,-0.57997 0.35278,0.024 0.4833,0.24377 0.47872,0.57644 -0.005,0.375 0.002,0.74718 -7.1e-4,1.12183 -0.0116,1.39524 -0.93274,2.30541 -2.34138,2.30752 -1.49578,0.005 -2.99015,0.004 -4.48734,0.004" />
      <path
         inkscape:connector-curvature="0"
         id="path9008"
         style="fill:#f97ca9;fill-opacity:1;stroke:#f97ca9;stroke-width:0.22670054;stroke-linecap:butt;stroke-linejoin:miter;stroke-miterlimit:10;stroke-dasharray:none;stroke-opacity:1"
         d="m -108.61234,314.97876 c -1.48237,0 -2.96545,0 -4.44782,0 -1.44956,0 -2.37031,-0.9204 -2.37137,-2.36114 0,-0.37289 -0.005,-0.74789 10e-4,-1.12184 0.004,-0.31926 0.16439,-0.51787 0.49036,-0.52211 0.32844,-0.006 0.49812,0.19897 0.51364,0.50765 0.0173,0.3743 0.004,0.74824 0.006,1.12113 0.002,0.89782 0.48013,1.37654 1.39065,1.37724 2.24331,0.004 4.48592,0 6.72959,0 0.72284,0 1.44427,0.005 2.16535,0 0.8583,-0.008 1.3402,-0.49459 1.3469,-1.3462 0.002,-0.35983 -0.007,-0.72037 0.003,-1.08126 0.0113,-0.37888 0.21379,-0.6029 0.52388,-0.57997 0.35278,0.024 0.4833,0.24377 0.47872,0.57644 -0.005,0.375 0.002,0.74718 -7.1e-4,1.12183 -0.0116,1.39524 -0.93274,2.30541 -2.34138,2.30752 -1.49578,0.005 -2.99015,0.004 -4.48734,0.004 z" />
    </g>
    <g
       id="g2800"
       transform="matrix(0.93300667,0,0,0.93300667,7.2783888,8.9224887)">
      <g
         transform="matrix(0.0791211,0,0,-0.0791211,101.47955,139.84997)"
         id="g2650">
        <path
           inkscape:connector-curvature="0"
           id="path2652"
           style="fill:#f9c0a4;fill-opacity:1;fill-rule:nonzero;stroke:none"
           d="m 0,0 c 0.792,-10.799 -7.32,-20.195 -18.119,-20.988 -10.799,-0.791 -20.195,7.321 -20.988,18.119 -0.79,10.799 7.32,20.196 18.12,20.988 C -10.188,18.911 -0.793,10.799 0,0" />
      </g>
      <g
         transform="matrix(0.0791211,0,0,-0.0791211,101.6578,135.93692)"
         id="g2654">
        <path
           inkscape:connector-curvature="0"
           id="path2656"
           style="fill:#f9c0a4;fill-opacity:1;fill-rule:nonzero;stroke:none"
           d="m 0,0 c -1.591,-23.992 -2.308,-44.707 -2.253,-49.457 l -39.107,-2.868 c 0,0 -2.283,32.091 -2.304,64.404 C -29.226,7.043 -14.971,1.605 0,0" />
      </g>
      <g
         transform="matrix(0.0791211,0,0,-0.0791211,100.96433,135.40069)"
         id="g2658">
        <path
           inkscape:connector-curvature="0"
           id="path2660"
           style="fill:#bb5996;fill-opacity:1;fill-rule:nonzero;stroke:none"
           d="m 0,0 c -2.558,-1.183 -5.286,-1.899 -8.118,-2.132 -6.394,-0.529 -12.612,1.465 -17.509,5.613 -4.894,4.154 -7.882,9.958 -8.405,16.356 -0.828,10.008 4.741,19.565 13.85,23.781 2.558,1.183 5.286,1.9 8.117,2.134 13.2,1.089 24.826,-8.766 25.919,-21.968 C 14.677,13.773 9.109,4.216 0,0" />
      </g>
      <g
         transform="matrix(0.0791211,0,0,-0.0791211,99.613406,137.35411)"
         id="g2662">
        <path
           inkscape:connector-curvature="0"
           id="path2664"
           style="fill:#e93c88;fill-opacity:1;fill-rule:nonzero;stroke:none"
           d="m 0,0 c 8.859,0.302 17.875,-0.111 26.781,0.304 0.945,14.477 2.213,29.554 3.88,42.222 l 0.337,2.554 -47.019,8.716 -0.548,-2.59 C -19.229,38.647 -19.785,18.59 -19.51,-0.901 -13.008,-0.551 -6.506,-0.223 0,0" />
      </g>
      <g
         transform="matrix(0.0791211,0,0,-0.0791211,100.22999,141.48761)"
         id="g2666">
        <path
           inkscape:connector-curvature="0"
           id="path2668"
           style="fill:#f9c0a4;fill-opacity:1;fill-rule:nonzero;stroke:none"
           d="M 0,0 C 10.66,1.897 17.765,12.078 15.867,22.738 13.969,33.399 3.79,40.502 -6.871,38.605 -17.531,36.708 -24.636,26.528 -22.738,15.867 -20.841,5.207 -10.662,-1.898 0,0" />
      </g>
      <g
         transform="matrix(0.0791211,0,0,-0.0791211,108.05811,139.18397)"
         id="g2670">
        <path
           inkscape:connector-curvature="0"
           id="path2672"
           style="fill:#f9c0a4;fill-opacity:1;fill-rule:nonzero;stroke:none"
           d="M 0,0 C 5.527,0.984 9.213,6.264 8.23,11.792 7.245,17.32 1.964,21.005 -3.563,20.022 -9.091,19.038 -12.776,13.757 -11.791,8.229 -10.809,2.7 -5.528,-0.984 0,0" />
      </g>
      <g
         transform="matrix(0.0791211,0,0,-0.0791211,108.05811,139.18397)"
         id="g2674">
        <path
           inkscape:connector-curvature="0"
           id="path2676"
           style="fill:#f9c0a4;fill-opacity:1;fill-rule:nonzero;stroke:none"
           d="m 0,0 c -13.056,-1.157 -40.741,-11.305 -63.639,-19.104 -22.057,-7.511 -35.299,-10.011 -35.299,-10.011 L -105.81,9.49 -1.225,20.159 Z" />
      </g>
      <g
         transform="matrix(0.0791211,0,0,-0.0791211,107.7781,137.79275)"
         id="g2678">
        <path
           inkscape:connector-curvature="0"
           id="path2680"
           style="fill:#f9c0a4;fill-opacity:1;fill-rule:nonzero;stroke:none"
           d="m 0,0 c 2.478,1.573 7.156,13.058 10.769,19.787 3.611,6.73 9.614,11.677 11.543,10.352 2.969,-2.036 -11.102,-15.268 0.033,-14.326 1.44,0.122 2.803,0.697 4.07,1.405 1.637,0.917 3.1,2.114 4.424,3.444 l 19.752,19.835 c 1.013,1.017 2.418,2.12 3.731,1.541 1.366,-0.603 1.431,-2.581 0.793,-3.933 -0.636,-1.351 -1.742,-2.495 -2.071,-3.952 -0.496,-2.197 0.904,-4.405 0.814,-6.657 -0.146,-3.777 -4.141,-6.055 -6.203,-9.222 -1.281,-1.966 -1.813,-4.31 -2.651,-6.501 C 43.921,8.946 42.314,6.353 40.719,3.78 38.276,-0.158 35.91,-6.514 32.185,-9.251 c -2.136,-1.568 -5.219,-2.646 -7.651,-3.691 -1.086,-0.467 -4.306,-1 -6.201,-1.652 C 16.86,-15.1 15.384,-15.566 13.851,-15.833 9.626,-16.568 2.728,-17.77 2.717,-17.712 2.717,-17.7 0,0 0,0" />
      </g>
      <g
         transform="matrix(0.0791211,0,0,-0.0791211,107.7781,137.79275)"
         id="g2682">
        <path
           inkscape:connector-curvature="0"
           id="path2684"
           style="fill:#f9c0a4;fill-opacity:1;fill-rule:nonzero;stroke:none"
           d="m 0,0 c 4.831,1.159 9.685,-1.818 10.844,-6.649 1.159,-4.83 -1.819,-9.685 -6.652,-10.843 -4.83,-1.159 -9.684,1.819 -10.84,6.65 C -7.807,-6.012 -4.83,-1.157 0,0" />
      </g>
    </g>
    <g
       transform="matrix(0.93300667,0,0,0.93300667,7.2783888,18.891611)"
       id="g2838">
      <g
         id="g2804"
         transform="matrix(0.0791211,0,0,-0.0791211,101.47955,139.84997)">
        <path
           d="m 0,0 c 0.792,-10.799 -7.32,-20.195 -18.119,-20.988 -10.799,-0.791 -20.195,7.321 -20.988,18.119 -0.79,10.799 7.32,20.196 18.12,20.988 C -10.188,18.911 -0.793,10.799 0,0"
           style="fill:#f9c0a4;fill-opacity:1;fill-rule:nonzero;stroke:none"
           id="path2802"
           inkscape:connector-curvature="0" />
      </g>
      <g
         id="g2808"
         transform="matrix(0.0791211,0,0,-0.0791211,101.6578,135.93692)">
        <path
           d="m 0,0 c -1.591,-23.992 -2.308,-44.707 -2.253,-49.457 l -39.107,-2.868 c 0,0 -2.283,32.091 -2.304,64.404 C -29.226,7.043 -14.971,1.605 0,0"
           style="fill:#f9c0a4;fill-opacity:1;fill-rule:nonzero;stroke:none"
           id="path2806"
           inkscape:connector-curvature="0" />
      </g>
      <g
         id="g2812"
         transform="matrix(0.0791211,0,0,-0.0791211,100.96433,135.40069)">
        <path
           d="m 0,0 c -2.558,-1.183 -5.286,-1.899 -8.118,-2.132 -6.394,-0.529 -12.612,1.465 -17.509,5.613 -4.894,4.154 -7.882,9.958 -8.405,16.356 -0.828,10.008 4.741,19.565 13.85,23.781 2.558,1.183 5.286,1.9 8.117,2.134 13.2,1.089 24.826,-8.766 25.919,-21.968 C 14.677,13.773 9.109,4.216 0,0"
           style="fill:#bb5996;fill-opacity:1;fill-rule:nonzero;stroke:none"
           id="path2810"
           inkscape:connector-curvature="0" />
      </g>
      <g
         id="g2816"
         transform="matrix(0.0791211,0,0,-0.0791211,99.613406,137.35411)">
        <path
           d="m 0,0 c 8.859,0.302 17.875,-0.111 26.781,0.304 0.945,14.477 2.213,29.554 3.88,42.222 l 0.337,2.554 -47.019,8.716 -0.548,-2.59 C -19.229,38.647 -19.785,18.59 -19.51,-0.901 -13.008,-0.551 -6.506,-0.223 0,0"
           style="fill:#e93c88;fill-opacity:1;fill-rule:nonzero;stroke:none"
           id="path2814"
           inkscape:connector-curvature="0" />
      </g>
      <g
         id="g2820"
         transform="matrix(0.0791211,0,0,-0.0791211,100.22999,141.48761)">
        <path
           d="M 0,0 C 10.66,1.897 17.765,12.078 15.867,22.738 13.969,33.399 3.79,40.502 -6.871,38.605 -17.531,36.708 -24.636,26.528 -22.738,15.867 -20.841,5.207 -10.662,-1.898 0,0"
           style="fill:#f9c0a4;fill-opacity:1;fill-rule:nonzero;stroke:none"
           id="path2818"
           inkscape:connector-curvature="0" />
      </g>
      <g
         id="g2824"
         transform="matrix(0.0791211,0,0,-0.0791211,108.05811,139.18397)">
        <path
           d="M 0,0 C 5.527,0.984 9.213,6.264 8.23,11.792 7.245,17.32 1.964,21.005 -3.563,20.022 -9.091,19.038 -12.776,13.757 -11.791,8.229 -10.809,2.7 -5.528,-0.984 0,0"
           style="fill:#f9c0a4;fill-opacity:1;fill-rule:nonzero;stroke:none"
           id="path2822"
           inkscape:connector-curvature="0" />
      </g>
      <g
         id="g2828"
         transform="matrix(0.0791211,0,0,-0.0791211,108.05811,139.18397)">
        <path
           d="M 0,0 C -11.135923,-8.1972824 -38.820923,-14.825141 -61.718923,-22.624141 -83.775923,-30.135141 -98.938,-29.115 -98.938,-29.115 c 0,0 -21.36335,19.402887 -6.872,38.605 14.49135,19.202113 88.666438,24.192306 104.585,10.669 C 14.693562,6.6356937 0,0 0,0 Z"
           style="fill:#f9c0a4;fill-opacity:1;fill-rule:nonzero;stroke:none"
           id="path2826"
           inkscape:connector-curvature="0"
           sodipodi:nodetypes="ccczzc" />
      </g>
      <g
         id="g2832"
         transform="matrix(0.0791211,0,0,-0.0791211,107.7781,137.79275)">
        <path
           d="m 0,0 c 2.478,1.573 7.156,13.058 10.769,19.787 3.611,6.73 9.614,11.677 11.543,10.352 2.969,-2.036 -11.102,-15.268 0.033,-14.326 1.44,0.122 2.803,0.697 4.07,1.405 1.637,0.917 3.1,2.114 4.424,3.444 l 19.752,19.835 c 1.013,1.017 2.418,2.12 3.731,1.541 1.366,-0.603 1.431,-2.581 0.793,-3.933 -0.636,-1.351 -1.742,-2.495 -2.071,-3.952 -0.496,-2.197 0.904,-4.405 0.814,-6.657 -0.146,-3.777 -4.141,-6.055 -6.203,-9.222 -1.281,-1.966 -1.813,-4.31 -2.651,-6.501 C 43.921,8.946 42.314,6.353 40.719,3.78 38.276,-0.158 35.91,-6.514 32.185,-9.251 c -2.136,-1.568 -5.219,-2.646 -7.651,-3.691 -1.086,-0.467 -4.306,-1 -6.201,-1.652 C 16.86,-15.1 15.384,-15.566 13.851,-15.833 9.626,-16.568 2.728,-17.77 2.717,-17.712 2.717,-17.7 0,0 0,0"
           style="fill:#f9c0a4;fill-opacity:1;fill-rule:nonzero;stroke:none"
           id="path2830"
           inkscape:connector-curvature="0" />
      </g>
      <g
         id="g2836"
         transform="matrix(0.0791211,0,0,-0.0791211,107.7781,137.79275)">
        <path
           d="m 0,0 c 4.831,1.159 9.685,-1.818 10.844,-6.649 1.159,-4.83 -1.819,-9.685 -6.652,-10.843 -4.83,-1.159 -9.684,1.819 -10.84,6.65 C -7.807,-6.012 -4.83,-1.157 0,0"
           style="fill:#f9c0a4;fill-opacity:1;fill-rule:nonzero;stroke:none"
           id="path2834"
           inkscape:connector-curvature="0" />
      </g>
    </g>
  </g>
</svg>
