<?xml version="1.0" encoding="UTF-8" standalone="no"?>
<!-- Created with Inkscape (http://www.inkscape.org/) -->

<svg
   xmlns:dc="http://purl.org/dc/elements/1.1/"
   xmlns:cc="http://creativecommons.org/ns#"
   xmlns:rdf="http://www.w3.org/1999/02/22-rdf-syntax-ns#"
   xmlns:svg="http://www.w3.org/2000/svg"
   xmlns="http://www.w3.org/2000/svg"
   xmlns:sodipodi="http://sodipodi.sourceforge.net/DTD/sodipodi-0.dtd"
   xmlns:inkscape="http://www.inkscape.org/namespaces/inkscape"
   width="19.916008mm"
   height="35.693764mm"
   viewBox="0 0 19.916008 35.693764"
   version="1.1"
   id="svg2055"
   inkscape:version="0.92.5 (2060ec1f9f, 2020-04-08)"
   sodipodi:docname="descarga-herramientas-2.1.b-recuento.svg">
  <defs
     id="defs2049">
    <clipPath
       clipPathUnits="userSpaceOnUse"
       id="clipPath4338">
      <path
         d="M 0,5027.023 H 1438.284 V 0 H 0 Z"
         id="path4336"
         inkscape:connector-curvature="0" />
    </clipPath>
    <filter
       style="color-interpolation-filters:sRGB"
       id="filter18884-3-5-5"
       x="-0.057991955"
       width="1.1159838"
       y="-0.040945187"
       height="1.0818903">
      <feGaussianBlur
         stdDeviation="5.2205081"
         id="feGaussianBlur18886-6-6-3" />
    </filter>
  </defs>
  <sodipodi:namedview
     id="base"
     pagecolor="#ffffff"
     bordercolor="#666666"
     borderopacity="1.0"
     inkscape:pageopacity="0.0"
     inkscape:pageshadow="2"
     inkscape:zoom="5.6"
     inkscape:cx="96.734177"
     inkscape:cy="56.861774"
     inkscape:document-units="mm"
     inkscape:current-layer="layer1"
     showgrid="false"
     fit-margin-top="0"
     fit-margin-left="0"
     fit-margin-right="0"
     fit-margin-bottom="0"
     inkscape:window-width="1366"
     inkscape:window-height="652"
     inkscape:window-x="0"
     inkscape:window-y="27"
     inkscape:window-maximized="1" />
  <metadata
     id="metadata2052">
    <rdf:RDF>
      <cc:Work
         rdf:about="">
        <dc:format>image/svg+xml</dc:format>
        <dc:type
           rdf:resource="http://purl.org/dc/dcmitype/StillImage" />
        <dc:title />
      </cc:Work>
    </rdf:RDF>
  </metadata>
  <g
     inkscape:label="Capa 1"
     inkscape:groupmode="layer"
     id="layer1"
     transform="translate(-148.792,-181.63526)">
    <rect
       style="opacity:0.5;fill:#0069af;fill-opacity:1;stroke:#f97ca9;stroke-width:0.55135214;stroke-linecap:round;stroke-linejoin:round;stroke-miterlimit:4;stroke-dasharray:none;stroke-opacity:1;filter:url(#filter18884-3-5-5)"
       id="rect18311-7-2-5"
       width="216.05099"
       height="305.99982"
       x="178"
       y="-1466"
       transform="matrix(0.078483,0,0,0.07629245,136.53642,294.43588)" />
    <path
       d="M 167.12974,205.60363 H 148.87231 V 181.703 h 18.25743 z"
       style="fill:#ffffff;fill-opacity:1;fill-rule:nonzero;stroke:#d3d3d3;stroke-width:0.053;stroke-miterlimit:4;stroke-dasharray:none;stroke-opacity:1"
       id="path1484"
       inkscape:connector-curvature="0" />
    <g
       transform="matrix(0.11065107,0,0,-0.11065107,125.49351,264.68278)"
       id="g4332"
       style="stroke-width:3.1882">
      <g
         id="g4334"
         clip-path="url(#clipPath4338)"
         style="stroke-width:3.1882">
        <g
           id="g4340"
           transform="translate(294.6963,582.8848)"
           style="stroke-width:3.1882">
          <path
             d="M 0,0 C 35.036,0.261 62.606,28.021 62.06,63.173 61.52,97.88 32.909,124.759 -1.277,124.112 -33.719,123.498 -62.093,97.169 -62.087,61.907 -62.082,27.619 -33.901,-0.251 0,0"
             style="fill:#ffffff;fill-opacity:1;fill-rule:evenodd;stroke:none;stroke-width:3.1882"
             id="path4342"
             inkscape:connector-curvature="0" />
        </g>
        <g
           id="g4344"
           transform="translate(294.4863,588.7998)"
           style="stroke-width:3.1882">
          <path
             d="M 0,0 C 30.215,-0.639 56.704,24.578 56.486,56.477 56.272,87.656 30.618,112.871 -1.007,112.385 -30.972,111.923 -56.149,86.555 -56.064,56.272 -55.978,25.095 -30.798,-0.179 0,0 m 0.21,-5.915 c -33.901,-0.251 -62.082,27.619 -62.087,61.907 -0.006,35.262 28.368,61.591 60.81,62.205 C 33.119,118.844 61.729,91.965 62.27,57.258 62.816,22.106 35.246,-5.654 0.21,-5.915"
             style="fill:#5f5e5f;fill-opacity:1;fill-rule:evenodd;stroke:none;stroke-width:3.1882"
             id="path4346"
             inkscape:connector-curvature="0" />
        </g>
        <g
           id="g4348"
           transform="translate(344.5791,639.6504)"
           style="stroke-width:3.1882">
          <path
             d="M 0,0 C 1.481,0.14 2.13,1.019 1.908,2.383 1.543,4.625 0.149,6.021 -2.108,6.261 -3.464,6.403 -4.432,5.626 -4.197,4.14 -3.825,1.779 -2.357,0.399 0,0 m -61.142,49.858 c -2.659,0.043 -4.491,-0.462 -4.577,-3.02 -0.062,-1.917 3.121,-3.907 6.01,-3.805 1.932,0.07 3.754,0.611 3.912,2.948 0.136,2.012 -2.849,3.893 -5.345,3.877 m 45.526,-80.526 c 0.095,3.454 -2.02,6.567 -4.352,6.657 -2.081,0.079 -2.848,-1.275 -2.973,-3.067 -0.214,-3.048 2.258,-6.6 4.586,-6.557 2.076,0.036 2.658,1.503 2.739,2.967 m -67.302,16.381 c 0.016,1.925 -0.514,3.492 -2.795,3.52 -2.726,0.034 -6.049,-3.754 -6.138,-6.941 -0.055,-1.974 0.767,-3.42 2.896,-3.518 2.832,-0.129 5.997,3.601 6.037,6.939 m 36.72,7.657 c -4.452,0.027 -7.665,-2.077 -7.466,-4.891 0.201,-2.834 3.746,-4.658 7.97,-4.099 3.49,0.461 5.745,2.511 5.599,5.089 -0.137,2.45 -2.371,3.878 -6.103,3.901 m 9.959,-24.354 c 0.017,3.354 -0.669,5.922 -1.799,7.469 -1.717,2.354 -4.924,2.825 -7.083,1.039 -4.151,-3.431 -4.761,-11.858 -1.128,-15.862 1.737,-1.914 3.669,-2.42 5.997,-0.908 3.313,2.151 3.76,5.515 4.013,8.262 m 12.354,60.723 c 3.466,0.254 7.06,1.443 9.554,4.838 2.34,3.189 0.888,7.205 -2.996,7.954 -3.696,0.713 -7.344,0.323 -10.505,-1.948 -2.24,-1.611 -4.189,-3.57 -3.517,-6.694 0.559,-2.593 3.296,-4.141 7.464,-4.15 M -63.139,-33.91 c 0.989,0.058 2.081,0.021 3.138,0.201 6.309,1.074 8.73,6.945 4.563,11.773 -4.386,5.086 -10.183,7.013 -16.88,5.801 -2.813,-0.509 -5.229,-1.789 -5.995,-4.719 -0.838,-3.203 0.411,-5.926 2.766,-8.161 3.452,-3.273 7.611,-4.763 12.408,-4.895 m -7.714,69.128 c 0.021,5.83 -1.966,9.786 -4.813,10.615 -3.977,1.156 -6.818,-0.758 -9.281,-3.669 -2.928,-3.462 -4.161,-7.558 -4.246,-11.937 -0.094,-4.797 1.941,-8.046 5.045,-8.9 3.356,-0.922 7.023,0.75 9.572,4.543 2.187,3.256 3.678,6.797 3.723,9.348 M -33.762,2.014 c -0.054,-5.689 1.009,-10.752 4.828,-14.914 3.865,-4.213 9.329,-4.429 13.436,-0.524 6.427,6.109 8.344,18.88 4.017,27.413 -1.91,3.765 -4.384,7.092 -9.113,7.251 -4.902,0.165 -7.935,-2.767 -10.195,-6.743 -2.25,-3.953 -3.08,-8.232 -2.973,-12.483 m -47.964,5.273 c -0.16,-11.045 6.064,-16.768 15.648,-15.952 14.236,1.214 29.693,15.908 31.64,30.08 1.553,11.301 -5.968,18.693 -17.148,16.846 -9.828,-1.625 -17.062,-7.33 -23.022,-14.887 -4.066,-5.154 -6.866,-10.899 -7.118,-16.087 m 40.925,42.49 -0.037,0.038 c 0.57,-1.157 1.438,-1.935 2.783,-1.653 0.909,0.191 1.459,0.989 1.51,1.889 0.111,1.986 -0.712,3.495 -2.547,4.413 -0.91,0.457 -1.98,0.92 -2.576,-0.092 -0.887,-1.506 -0.52,-3.077 0.591,-4.434 0.063,-0.078 0.182,-0.109 0.276,-0.161 m -57.683,-51.871 -0.045,0.041 c 0.696,-2.06 2.41,-1.237 3.759,-1.248 0.884,-0.008 1.324,0.775 1.222,1.593 -0.171,1.379 -1.11,2.287 -2.269,2.92 -0.55,0.301 -1.202,0.469 -1.828,0.564 -1.123,0.175 -2.285,0.082 -2.626,-1.225 -0.374,-1.425 0.048,-2.537 1.787,-2.645 m 88.51,26.996 c 0.225,-0.224 0.451,-0.449 0.675,-0.674 1.011,-1.115 2.116,-0.729 2.656,0.271 0.968,1.793 0.327,3.566 -0.881,5.053 -0.802,0.986 -2.021,1.557 -3.108,0.638 -1.51,-1.275 -0.885,-2.929 -0.241,-4.435 0.149,-0.35 0.59,-0.574 0.899,-0.853 M -92.672,13.499 c -0.178,-1.051 0.214,-1.523 1.305,-1.287 0.912,-2.325 2.697,-1.938 4.057,-0.865 1.48,1.166 0.391,2.612 -0.54,3.65 -1.109,1.234 -2.701,1.446 -4.201,1.008 -1.318,-0.387 -1.913,-1.301 -0.621,-2.506 m 42.579,-64.35 c -30.798,-0.178 -55.977,25.095 -56.064,56.273 -0.085,30.282 25.093,55.65 55.057,56.112 C -19.475,62.021 6.18,36.806 6.394,5.626 6.611,-26.272 -19.878,-51.489 -50.093,-50.851"
             style="fill:#ffffff;fill-opacity:1;fill-rule:evenodd;stroke:none;stroke-width:3.1882"
             id="path4350"
             inkscape:connector-curvature="0" />
        </g>
        <g
           id="g4352"
           transform="translate(295.1475,672.498)"
           style="stroke-width:3.1882">
          <path
             d="m 0,0 c -0.643,-0.142 -2.139,-0.362 -3.566,-0.8 -7.633,-2.34 -13.393,-7.176 -17.948,-13.596 -2.794,-3.94 -4.912,-8.128 -4.908,-13.107 0.004,-6.008 3.584,-9.118 9.61,-8.268 9.042,1.275 15.496,6.586 20.771,13.603 3.099,4.121 5.304,8.665 5.258,13.967 C 9.172,-2.989 6.054,-0.01 0,0 m -32.294,-25.561 c 0.252,5.188 3.052,10.933 7.117,16.087 5.96,7.557 13.195,13.262 23.023,14.887 11.179,1.848 18.701,-5.545 17.147,-16.846 -1.946,-14.171 -17.403,-28.866 -31.639,-30.08 -9.584,-0.816 -15.808,4.908 -15.648,15.952"
             style="fill:#cd1419;fill-opacity:1;fill-rule:evenodd;stroke:none;stroke-width:3.1882"
             id="path4354"
             inkscape:connector-curvature="0" />
        </g>
        <g
           id="g4356"
           transform="translate(315.3965,641.5098)"
           style="stroke-width:3.1882">
          <path
             d="m 0,0 c -0.165,-2.869 0.44,-5.63 1.54,-8.2 1.062,-2.481 2.63,-5 5.611,-5.158 2.758,-0.147 4.416,2.115 5.573,4.321 3.478,6.638 3.354,13.514 0.346,20.202 C 10.99,15.79 6.868,15.999 3.681,12.089 0.788,8.538 0.18,4.343 0,0 m -4.579,0.154 c -0.108,4.251 0.723,8.531 2.973,12.484 2.259,3.975 5.293,6.908 10.195,6.743 4.728,-0.159 7.203,-3.486 9.112,-7.251 4.327,-8.533 2.41,-21.305 -4.016,-27.413 -4.108,-3.905 -9.572,-3.69 -13.436,0.523 -3.819,4.162 -4.883,9.226 -4.828,14.914"
             style="fill:#cd1419;fill-opacity:1;fill-rule:evenodd;stroke:none;stroke-width:3.1882"
             id="path4358"
             inkscape:connector-curvature="0" />
        </g>
        <g
           id="g4360"
           transform="translate(261.5547,678.4971)"
           style="stroke-width:3.1882">
          <path
             d="M 0,0 C 1.353,0.119 1.78,1.092 1.852,2.365 1.249,1.565 0.646,0.766 0.046,-0.037 c -0.199,-0.453 -0.399,-0.905 -0.6,-1.358 -2.107,-3.779 -2.945,-7.63 -0.689,-11.667 1.236,-1.842 2.75,-1.296 4.204,-0.403 4.089,2.518 6.647,9.774 5.146,14.354 C 7.517,2.692 6.651,4.045 4.417,3.645 6.414,2.426 5.439,1.447 4.318,0.238 1.645,-2.646 0.144,-6.045 0.606,-10.064 c 0.185,-1.611 -0.008,-2.8 -1.889,-3.032 -1.611,4.021 0.14,7.844 0.69,11.738 C 0.145,-1.141 0.052,-0.561 0,0 m 12.172,-3.629 c -0.046,-2.551 -1.536,-6.092 -3.724,-9.348 -2.549,-3.793 -6.216,-5.464 -9.572,-4.543 -3.104,0.854 -5.139,4.103 -5.045,8.9 0.085,4.38 1.318,8.475 4.246,11.937 2.463,2.912 5.305,4.826 9.281,3.669 2.847,-0.829 4.834,-4.785 4.814,-10.615"
             style="fill:#cd1419;fill-opacity:1;fill-rule:evenodd;stroke:none;stroke-width:3.1882"
             id="path4362"
             inkscape:connector-curvature="0" />
        </g>
        <g
           id="g4364"
           transform="translate(272.0303,613.627)"
           style="stroke-width:3.1882">
          <path
             d="m 0,0 c 0.107,-1.657 1.223,-1.973 2.593,-1.95 2.817,-2.748 6.267,-2.835 9.745,-2.015 3.492,0.824 4.105,2.819 2.047,5.688 C 11.661,5.521 4.421,7.748 0.045,6.111 -1.174,5.654 -2.608,5.178 -2.479,3.57 -2.352,2.014 -2.098,0.298 0,0 M 9.41,-7.887 C 4.613,-7.755 0.454,-6.265 -2.998,-2.991 -5.354,-0.757 -6.603,1.967 -5.765,5.169 -4.998,8.1 -2.582,9.38 0.23,9.889 6.928,11.101 12.725,9.174 17.111,4.088 21.277,-0.74 18.856,-6.611 12.548,-7.686 11.491,-7.865 10.398,-7.828 9.41,-7.887"
             style="fill:#cd1419;fill-opacity:1;fill-rule:evenodd;stroke:none;stroke-width:3.1882"
             id="path4366"
             inkscape:connector-curvature="0" />
        </g>
        <g
           id="g4368"
           transform="translate(328.3154,677.7646)"
           style="stroke-width:3.1882">
          <path
             d="m 0,0 c -2.856,3.111 -10.496,1.871 -11.965,-1.768 -0.476,-1.18 0.024,-1.275 1.117,-1.505 C -6.676,-4.154 -3.433,-2.151 0,0 m -7.621,-8.375 c -4.168,0.009 -6.905,1.557 -7.464,4.149 -0.673,3.124 1.276,5.083 3.517,6.695 C -8.407,4.74 -4.76,5.13 -1.063,4.417 2.82,3.668 4.272,-0.349 1.933,-3.537 -0.562,-6.933 -4.155,-8.121 -7.621,-8.375"
             style="fill:#cd1419;fill-opacity:1;fill-rule:evenodd;stroke:none;stroke-width:3.1882"
             id="path4370"
             inkscape:connector-curvature="0" />
        </g>
        <g
           id="g4372"
           transform="translate(304.4014,605.1494)"
           style="stroke-width:3.1882">
          <path
             d="M 0,0 C 2.023,2.608 1.559,5.389 0.478,8.157 0.097,9.134 -0.433,10.274 -1.67,10.294 -2.918,10.313 -3.924,9.54 -4.449,8.414 -5.705,5.732 -6.329,2.957 -5.184,0.052 c 0.511,-1.296 0.954,-2.851 2.663,-2.804 1.605,0.044 2.323,1.301 2.565,2.803 z M 3.938,3.517 C 3.686,0.77 3.238,-2.594 -0.074,-4.745 -2.402,-6.257 -4.334,-5.751 -6.071,-3.837 -9.704,0.167 -9.095,8.594 -4.943,12.025 -2.784,13.811 0.423,13.34 2.14,10.986 3.27,9.438 3.956,6.871 3.938,3.517"
             style="fill:#cd1419;fill-opacity:1;fill-rule:evenodd;stroke:none;stroke-width:3.1882"
             id="path4374"
             inkscape:connector-curvature="0" />
        </g>
        <g
           id="g4376"
           transform="translate(302.6768,628.8457)"
           style="stroke-width:3.1882">
          <path
             d="M 0,0 C -1.871,2.628 -6.406,3.126 -8.67,1.057 -9.785,0.038 -9.379,-0.452 -8.235,-0.994 -5.258,-2.405 -2.656,-1.191 0,0 M -4.296,4.175 C -0.563,4.151 1.67,2.724 1.808,0.273 c 0.145,-2.578 -2.11,-4.627 -5.6,-5.088 -4.224,-0.559 -7.769,1.264 -7.97,4.098 -0.199,2.815 3.014,4.919 7.466,4.892"
             style="fill:#cd1419;fill-opacity:1;fill-rule:evenodd;stroke:none;stroke-width:3.1882"
             id="path4378"
             inkscape:connector-curvature="0" />
        </g>
        <g
           id="g4380"
           transform="translate(259.2051,626.8506)"
           style="stroke-width:3.1882">
          <path
             d="M 0,0 C -0.007,0.32 -0.277,1.215 -1.456,0.515 -3.556,-0.732 -4.97,-2.58 -5.234,-5.079 -5.296,-5.659 -5.229,-6.968 -4.12,-6.331 -1.966,-5.096 -0.09,-3.492 0,0 m 2.452,-1.49 c -0.036,-3.335 -3.201,-7.066 -6.033,-6.936 -2.129,0.098 -2.951,1.544 -2.896,3.518 0.089,3.186 3.412,6.974 6.138,6.941 C 1.942,2.005 2.472,0.437 2.452,-1.49"
             style="fill:#cd1419;fill-opacity:1;fill-rule:evenodd;stroke:none;stroke-width:3.1882"
             id="path4382"
             inkscape:connector-curvature="0" />
        </g>
        <g
           id="g4384"
           transform="translate(323.5771,614.2979)"
           style="stroke-width:3.1882">
          <path
             d="M 0,0 C -0.78,-3.271 -0.292,-5.546 2.609,-7.076 3.47,-4.124 2.415,-2.071 0,0 m 5.386,-5.315 c -0.081,-1.464 -0.663,-2.931 -2.74,-2.967 -2.327,-0.043 -4.799,3.509 -4.585,6.556 0.125,1.792 0.892,3.147 2.973,3.068 2.332,-0.09 4.446,-3.203 4.352,-6.657"
             style="fill:#cd1419;fill-opacity:1;fill-rule:evenodd;stroke:none;stroke-width:3.1882"
             id="path4386"
             inkscape:connector-curvature="0" />
        </g>
        <g
           id="g4388"
           transform="translate(287.21,685.1006)"
           style="stroke-width:3.1882">
          <path
             d="M 0,0 C -1.914,2.195 -4.184,2.14 -6.822,1.471 -4.625,-1.494 -2.897,-1.825 0,0 m -3.772,4.408 c 2.496,0.016 5.48,-1.865 5.344,-3.877 -0.158,-2.338 -1.98,-2.879 -3.912,-2.948 -2.889,-0.103 -6.072,1.888 -6.01,3.805 0.086,2.557 1.918,3.063 4.578,3.02"
             style="fill:#cd1419;fill-opacity:1;fill-rule:evenodd;stroke:none;stroke-width:3.1882"
             id="path4390"
             inkscape:connector-curvature="0" />
        </g>
        <g
           id="g4392"
           transform="translate(341.4297,644.2012)"
           style="stroke-width:3.1882">
          <path
             d="M 0,0 C 0.206,-2.139 1.349,-3.112 3.528,-3.399 3.124,-1.25 2.359,0.119 0,0 m 3.149,-4.551 c -2.357,0.4 -3.825,1.78 -4.197,4.14 C -1.282,1.075 -0.314,1.853 1.041,1.71 3.299,1.47 4.692,0.074 5.058,-2.168 5.279,-3.532 4.631,-4.411 3.149,-4.551"
             style="fill:#cd1419;fill-opacity:1;fill-rule:evenodd;stroke:none;stroke-width:3.1882"
             id="path4394"
             inkscape:connector-curvature="0" />
        </g>
        <g
           id="g4396"
           transform="translate(303.7783,689.4277)"
           style="stroke-width:3.1882">
          <path
             d="M 0,0 C -0.094,0.052 -0.213,0.083 -0.276,0.16 -1.387,1.518 -1.754,3.089 -0.867,4.595 -0.271,5.606 0.799,5.144 1.709,4.687 3.544,3.769 4.367,2.26 4.256,0.273 4.205,-0.626 3.654,-1.425 2.746,-1.615 1.4,-1.897 0.533,-1.119 -0.037,0.038 0.719,0.905 2.033,-1.69 2.446,0.351 2.695,1.578 1.686,2.532 0.773,3.321 0.581,3.487 0.109,3.626 -0.027,3.519 -1.167,2.616 0.072,1.793 0.104,0.918 0.115,0.613 0.037,0.306 0,0"
             style="fill:#cd1419;fill-opacity:1;fill-rule:evenodd;stroke:none;stroke-width:3.1882"
             id="path4398"
             inkscape:connector-curvature="0" />
        </g>
        <g
           id="g4400"
           transform="translate(246.0947,637.5566)"
           style="stroke-width:3.1882">
          <path
             d="M 0,0 C -1.738,0.107 -2.16,1.22 -1.787,2.645 -1.445,3.952 -0.283,4.045 0.84,3.87 1.466,3.774 2.117,3.606 2.667,3.306 3.826,2.673 4.766,1.765 4.937,0.386 5.038,-0.433 4.599,-1.215 3.715,-1.207 2.365,-1.196 0.651,-2.02 -0.045,0.041 1.095,0.194 2.171,-1.404 3.426,-0.085 2.629,1.377 1.499,2.454 -0.15,1.888 -1.238,1.516 0.108,0.668 0,0"
             style="fill:#cd1419;fill-opacity:1;fill-rule:evenodd;stroke:none;stroke-width:3.1882"
             id="path4402"
             inkscape:connector-curvature="0" />
        </g>
        <g
           id="g4404"
           transform="translate(334.6025,664.5488)"
           style="stroke-width:3.1882">
          <path
             d="M 0,0 C -0.307,0.282 -0.747,0.507 -0.896,0.856 -1.54,2.362 -2.165,4.017 -0.655,5.292 0.432,6.211 1.65,5.64 2.452,4.653 3.66,3.167 4.302,1.394 3.334,-0.399 c -0.54,-1 -1.646,-1.386 -2.656,-0.272 0.123,0.137 0.243,0.274 0.361,0.414 C 2.613,1.331 2.338,2.38 -0.168,4.276 -0.884,2.833 -0.073,1.624 0.404,0.368 0.268,0.249 0.133,0.126 0,0"
             style="fill:#cd1419;fill-opacity:1;fill-rule:evenodd;stroke:none;stroke-width:3.1882"
             id="path4406"
             inkscape:connector-curvature="0" />
        </g>
        <g
           id="g4408"
           transform="translate(251.9072,653.1494)"
           style="stroke-width:3.1882">
          <path
             d="m 0,0 c -1.292,1.205 -0.697,2.119 0.621,2.506 1.5,0.438 3.092,0.226 4.201,-1.008 0.931,-1.038 2.02,-2.484 0.54,-3.65 -1.36,-1.073 -3.145,-1.46 -4.057,0.865 L 1.281,-1.314 C 2.4,-0.959 3.696,-2.7 4.987,-0.643 3.152,-0.586 2.172,2.496 -0.012,-0.01 Z"
             style="fill:#cd1419;fill-opacity:1;fill-rule:evenodd;stroke:none;stroke-width:3.1882"
             id="path4410"
             inkscape:connector-curvature="0" />
        </g>
        <g
           id="g4412"
           transform="translate(253.2119,651.8623)"
           style="stroke-width:3.1882">
          <path
             d="m 0,0 c -1.091,-0.236 -1.482,0.236 -1.305,1.287 l -0.011,-0.01 c 0.638,-0.228 1.084,-0.65 1.293,-1.304 z"
             style="fill:#cd1419;fill-opacity:1;fill-rule:evenodd;stroke:none;stroke-width:3.1882"
             id="path4414"
             inkscape:connector-curvature="0" />
        </g>
        <g
           id="g4416"
           transform="translate(335.2803,663.8779)"
           style="stroke-width:3.1882">
          <path
             d="M 0,0 C -0.225,0.226 -0.45,0.45 -0.677,0.673 -0.545,0.797 -0.41,0.92 -0.273,1.039 -0.062,0.83 0.149,0.622 0.361,0.414 0.243,0.273 0.123,0.137 0,0"
             style="fill:#cd1419;fill-opacity:1;fill-rule:evenodd;stroke:none;stroke-width:3.1882"
             id="path4418"
             inkscape:connector-curvature="0" />
        </g>
        <g
           id="g4420"
           transform="translate(277.5605,639.376)"
           style="stroke-width:3.1882">
          <path
             d="m 0,0 c 2.976,-0.005 5.573,0.771 7.88,2.188 6.543,4.019 11.86,9.218 15.138,16.308 0.874,1.891 1.461,3.805 1.336,5.903 -0.15,2.529 -1.016,2.93 -3.227,1.703 C 19.982,25.465 19.928,24.52 19.695,23.445 17.9,15.152 8.3,5.979 -0.057,4.62 -2.104,4.287 -3.452,2.943 -3.322,1.301 -3.194,-0.322 -1.116,0.151 0,0 m 17.587,33.122 c 6.054,-0.01 9.172,-2.989 9.217,-8.201 C 26.85,19.619 24.645,15.075 21.546,10.954 16.271,3.938 9.817,-1.374 0.774,-2.649 c -6.025,-0.85 -9.605,2.26 -9.609,8.268 -0.004,4.979 2.114,9.167 4.908,13.107 4.555,6.42 10.315,11.256 17.948,13.596 1.427,0.438 2.923,0.658 3.566,0.8"
             style="fill:#ffffff;fill-opacity:1;fill-rule:evenodd;stroke:none;stroke-width:3.1882"
             id="path4422"
             inkscape:connector-curvature="0" />
        </g>
        <g
           id="g4424"
           transform="translate(329.0801,642.71)"
           style="stroke-width:3.1882">
          <path
             d="m 0,0 c 0.062,3.496 -0.392,6.674 -2.016,9.556 -0.484,0.858 -1.291,2.1 -2.443,1.481 C -5.61,10.419 -5.065,9.313 -4.558,8.231 -1.609,1.954 -1.544,-4.164 -5.98,-9.875 c -0.57,-0.732 -0.547,-1.424 -0.082,-2.042 0.591,-0.79 1.379,-0.414 2.001,0.022 1.07,0.75 1.866,1.694 2.329,2.991 C -0.676,-5.94 0.077,-2.943 0,0 m -13.684,-1.2 c 0.18,4.343 0.788,8.538 3.681,12.089 3.188,3.91 7.31,3.701 9.39,-0.924 C 2.395,3.276 2.519,-3.6 -0.96,-10.237 c -1.156,-2.206 -2.814,-4.468 -5.572,-4.322 -2.982,0.159 -4.55,2.678 -5.612,5.159 -1.099,2.57 -1.705,5.331 -1.54,8.2"
             style="fill:#ffffff;fill-opacity:1;fill-rule:evenodd;stroke:none;stroke-width:3.1882"
             id="path4426"
             inkscape:connector-curvature="0" />
        </g>
        <g
           id="g4428"
           transform="translate(260.2705,665.3994)"
           style="stroke-width:3.1882">
          <path
             d="m 0,0 c 1.882,0.233 2.075,1.423 1.891,3.033 -0.463,4.02 1.038,7.419 3.712,10.303 1.121,1.209 2.095,2.187 0.098,3.406 2.235,0.401 3.1,-0.952 3.691,-2.756 C 10.893,9.406 8.334,2.15 4.245,-0.367 2.791,-1.261 1.277,-1.807 0.041,0.036 Z"
             style="fill:#ffffff;fill-opacity:1;fill-rule:evenodd;stroke:none;stroke-width:3.1882"
             id="path4430"
             inkscape:connector-curvature="0" />
        </g>
        <g
           id="g4432"
           transform="translate(260.3115,665.4355)"
           style="stroke-width:3.1882">
          <path
             d="M 0,0 C -2.256,4.036 -1.418,7.888 0.689,11.667 L 0.65,11.702 C 0.101,7.81 -1.65,3.986 -0.041,-0.035 -0.041,-0.036 0,0 0,0"
             style="fill:#ffffff;fill-opacity:1;fill-rule:evenodd;stroke:none;stroke-width:3.1882"
             id="path4434"
             inkscape:connector-curvature="0" />
        </g>
        <g
           id="g4436"
           transform="translate(261.5977,678.4619)"
           style="stroke-width:3.1882">
          <path
             d="M 0,0 C 0.603,0.801 1.206,1.601 1.809,2.4 1.737,1.127 1.31,0.154 -0.043,0.035 Z"
             style="fill:#ffffff;fill-opacity:1;fill-rule:evenodd;stroke:none;stroke-width:3.1882"
             id="path4438"
             inkscape:connector-curvature="0" />
        </g>
        <g
           id="g4440"
           transform="translate(261.5547,678.4971)"
           style="stroke-width:3.1882">
          <path
             d="m 0,0 c 0.052,-0.561 0.145,-1.141 -0.593,-1.359 l 0.039,-0.036 c 0.201,0.453 0.401,0.905 0.598,1.359 z"
             style="fill:#ffffff;fill-opacity:1;fill-rule:evenodd;stroke:none;stroke-width:3.1882"
             id="path4442"
             inkscape:connector-curvature="0" />
        </g>
        <g
           id="g4444"
           transform="translate(272.0303,613.627)"
           style="stroke-width:3.1882">
          <path
             d="M 0,0 C -2.098,0.298 -2.352,2.014 -2.479,3.57 -2.608,5.178 -1.174,5.654 0.045,6.111 4.421,7.748 11.661,5.521 14.385,1.723 16.443,-1.146 15.83,-3.141 12.338,-3.965 8.86,-4.785 5.41,-4.698 2.593,-1.95 L 2.551,-1.997 c 1.027,-0.309 2.06,-0.604 3.082,-0.932 2.199,-0.707 4.441,-0.823 6.697,-0.419 0.586,0.105 1.343,0.39 1.142,1.235 -0.145,0.603 -0.663,0.648 -1.279,0.525 C 7.552,-2.521 3.784,-0.806 0.529,2.369 0.068,2.82 -0.367,3.482 -1.057,2.96 -1.693,2.474 -1.339,1.774 -1.018,1.222 -0.752,0.765 -0.373,0.374 -0.043,-0.047 Z"
             style="fill:#ffffff;fill-opacity:1;fill-rule:evenodd;stroke:none;stroke-width:3.1882"
             id="path4446"
             inkscape:connector-curvature="0" />
        </g>
        <g
           id="g4448"
           transform="translate(274.623,611.6768)"
           style="stroke-width:3.1882">
          <path
             d="M 0,0 C -1.37,-0.022 -2.485,0.293 -2.593,1.95 L -2.636,1.903 c 0.865,-0.649 1.729,-1.299 2.594,-1.95 z"
             style="fill:#ffffff;fill-opacity:1;fill-rule:evenodd;stroke:none;stroke-width:3.1882"
             id="path4450"
             inkscape:connector-curvature="0" />
        </g>
        <g
           id="g4452"
           transform="translate(328.3154,677.7646)"
           style="stroke-width:3.1882">
          <path
             d="m 0,0 c -3.433,-2.151 -6.676,-4.154 -10.848,-3.273 -1.093,0.23 -1.593,0.325 -1.117,1.505 C -10.496,1.871 -2.856,3.111 0,0"
             style="fill:#ffffff;fill-opacity:1;fill-rule:evenodd;stroke:none;stroke-width:3.1882"
             id="path4454"
             inkscape:connector-curvature="0" />
        </g>
        <g
           id="g4456"
           transform="translate(304.4453,605.2002)"
           style="stroke-width:3.1882">
          <path
             d="m 0,0 c -0.242,-1.502 -0.96,-2.759 -2.565,-2.803 -1.709,-0.047 -2.152,1.508 -2.663,2.804 -1.145,2.905 -0.521,5.681 0.735,8.362 0.525,1.126 1.531,1.899 2.779,1.88 C -0.477,10.224 0.053,9.083 0.434,8.106 1.515,5.338 1.979,2.558 -0.044,-0.051 -0.113,2.983 1.349,6.288 -1.636,8.888 0.471,5.102 -1.03,1.66 -2.679,-1.724 -0.995,-2.014 -1.062,-0.25 0,0"
             style="fill:#ffffff;fill-opacity:1;fill-rule:evenodd;stroke:none;stroke-width:3.1882"
             id="path4458"
             inkscape:connector-curvature="0" />
        </g>
        <g
           id="g4460"
           transform="translate(302.6768,628.8457)"
           style="stroke-width:3.1882">
          <path
             d="M 0,0 C -2.656,-1.191 -5.258,-2.405 -8.235,-0.994 -9.379,-0.452 -9.785,0.038 -8.67,1.057 -6.406,3.126 -1.871,2.628 0,0"
             style="fill:#ffffff;fill-opacity:1;fill-rule:evenodd;stroke:none;stroke-width:3.1882"
             id="path4462"
             inkscape:connector-curvature="0" />
        </g>
        <g
           id="g4464"
           transform="translate(259.2051,626.8506)"
           style="stroke-width:3.1882">
          <path
             d="m 0,0 c -0.09,-3.492 -1.966,-5.096 -4.12,-6.331 -1.109,-0.637 -1.176,0.672 -1.114,1.252 0.264,2.499 1.678,4.347 3.778,5.594 C -0.277,1.215 -0.007,0.32 0,0"
             style="fill:#ffffff;fill-opacity:1;fill-rule:evenodd;stroke:none;stroke-width:3.1882"
             id="path4466"
             inkscape:connector-curvature="0" />
        </g>
        <g
           id="g4468"
           transform="translate(323.5771,614.2979)"
           style="stroke-width:3.1882">
          <path
             d="M 0,0 C 2.415,-2.071 3.47,-4.124 2.609,-7.076 -0.292,-5.546 -0.78,-3.271 0,0"
             style="fill:#ffffff;fill-opacity:1;fill-rule:evenodd;stroke:none;stroke-width:3.1882"
             id="path4470"
             inkscape:connector-curvature="0" />
        </g>
        <g
           id="g4472"
           transform="translate(287.21,685.1006)"
           style="stroke-width:3.1882">
          <path
             d="M 0,0 C -2.897,-1.825 -4.625,-1.494 -6.822,1.471 -4.184,2.14 -1.914,2.195 0,0"
             style="fill:#ffffff;fill-opacity:1;fill-rule:evenodd;stroke:none;stroke-width:3.1882"
             id="path4474"
             inkscape:connector-curvature="0" />
        </g>
        <g
           id="g4476"
           transform="translate(341.4297,644.2012)"
           style="stroke-width:3.1882">
          <path
             d="M 0,0 C 2.359,0.119 3.124,-1.25 3.528,-3.399 1.349,-3.112 0.206,-2.139 0,0"
             style="fill:#ffffff;fill-opacity:1;fill-rule:evenodd;stroke:none;stroke-width:3.1882"
             id="path4478"
             inkscape:connector-curvature="0" />
        </g>
        <g
           id="g4480"
           transform="translate(303.7783,689.4277)"
           style="stroke-width:3.1882">
          <path
             d="M 0,0 C 0.037,0.306 0.115,0.613 0.104,0.918 0.072,1.793 -1.167,2.616 -0.027,3.519 0.109,3.626 0.581,3.487 0.773,3.321 1.686,2.532 2.695,1.578 2.446,0.351 2.033,-1.69 0.719,0.905 -0.037,0.038 Z"
             style="fill:#ffffff;fill-opacity:1;fill-rule:evenodd;stroke:none;stroke-width:3.1882"
             id="path4482"
             inkscape:connector-curvature="0" />
        </g>
        <g
           id="g4484"
           transform="translate(246.0947,637.5566)"
           style="stroke-width:3.1882">
          <path
             d="M 0,0 C 0.108,0.668 -1.238,1.516 -0.15,1.888 1.499,2.454 2.629,1.377 3.426,-0.085 2.171,-1.404 1.095,0.194 -0.045,0.041 Z"
             style="fill:#ffffff;fill-opacity:1;fill-rule:evenodd;stroke:none;stroke-width:3.1882"
             id="path4486"
             inkscape:connector-curvature="0" />
        </g>
        <g
           id="g4488"
           transform="translate(335.6416,664.292)"
           style="stroke-width:3.1882">
          <path
             d="M 0,0 C -0.212,0.208 -0.424,0.416 -0.635,0.625 -1.112,1.881 -1.923,3.09 -1.207,4.533 1.299,2.637 1.574,1.588 0,0"
             style="fill:#ffffff;fill-opacity:1;fill-rule:evenodd;stroke:none;stroke-width:3.1882"
             id="path4490"
             inkscape:connector-curvature="0" />
        </g>
        <g
           id="g4492"
           transform="translate(253.1885,651.835)"
           style="stroke-width:3.1882">
          <path
             d="M 0,0 C -0.209,0.654 -0.654,1.076 -1.293,1.305 0.891,3.811 1.871,0.729 3.706,0.672 2.415,-1.386 1.119,0.355 0,0"
             style="fill:#ffffff;fill-opacity:1;fill-rule:evenodd;stroke:none;stroke-width:3.1882"
             id="path4494"
             inkscape:connector-curvature="0" />
        </g>
        <g
           id="g4496"
           transform="translate(277.5605,639.376)"
           style="stroke-width:3.1882">
          <path
             d="m 0,0 c -1.116,0.151 -3.194,-0.322 -3.322,1.301 -0.13,1.642 1.218,2.986 3.265,3.319 8.357,1.359 17.957,10.532 19.752,18.825 0.233,1.075 0.287,2.02 1.432,2.657 2.211,1.227 3.077,0.826 3.227,-1.703 0.125,-2.098 -0.462,-4.012 -1.336,-5.903 C 19.74,11.406 14.423,6.207 7.88,2.188 5.573,0.771 2.976,-0.005 0,0"
             style="fill:#cd1419;fill-opacity:1;fill-rule:evenodd;stroke:none;stroke-width:3.1882"
             id="path4498"
             inkscape:connector-curvature="0" />
        </g>
        <g
           id="g4500"
           transform="translate(329.0801,642.71)"
           style="stroke-width:3.1882">
          <path
             d="m 0,0 c 0.077,-2.943 -0.676,-5.94 -1.732,-8.904 -0.463,-1.297 -1.259,-2.241 -2.329,-2.991 -0.622,-0.436 -1.41,-0.812 -2.001,-0.022 -0.465,0.618 -0.488,1.31 0.082,2.042 4.436,5.711 4.371,11.829 1.422,18.106 -0.507,1.082 -1.052,2.188 0.099,2.806 1.152,0.619 1.959,-0.623 2.443,-1.481 C -0.392,6.674 0.062,3.496 0,0"
             style="fill:#cd1419;fill-opacity:1;fill-rule:evenodd;stroke:none;stroke-width:3.1882"
             id="path4502"
             inkscape:connector-curvature="0" />
        </g>
        <g
           id="g4504"
           transform="translate(274.5811,611.6299)"
           style="stroke-width:3.1882">
          <path
             d="m 0,0 c -0.865,0.651 -1.729,1.301 -2.594,1.95 -0.33,0.421 -0.709,0.812 -0.974,1.269 -0.322,0.552 -0.676,1.252 -0.039,1.738 0.689,0.522 1.125,-0.14 1.586,-0.591 3.254,-3.175 7.022,-4.89 11.664,-3.957 0.615,0.123 1.133,0.078 1.278,-0.525 0.201,-0.845 -0.556,-1.13 -1.142,-1.235 C 7.523,-1.755 5.281,-1.639 3.082,-0.932 2.061,-0.604 1.027,-0.309 0,0"
             style="fill:#cd1419;fill-opacity:1;fill-rule:evenodd;stroke:none;stroke-width:3.1882"
             id="path4506"
             inkscape:connector-curvature="0" />
        </g>
        <g
           id="g4508"
           transform="translate(304.4453,605.2002)"
           style="stroke-width:3.1882">
          <path
             d="m 0,0 c -1.062,-0.25 -0.995,-2.014 -2.679,-1.724 1.649,3.384 3.15,6.826 1.043,10.612 2.985,-2.6 1.523,-5.905 1.592,-8.939 z"
             style="fill:#cd1419;fill-opacity:1;fill-rule:evenodd;stroke:none;stroke-width:3.1882"
             id="path4510"
             inkscape:connector-curvature="0" />
        </g>
      </g>
    </g>
    <text
       y="203.1545"
       x="151.11237"
       style="font-variant:normal;font-weight:bold;font-stretch:normal;font-size:1.5187192px;font-family:Verdana;-inkscape-font-specification:Verdana-Bold;writing-mode:lr-tb;fill:#4d4d4d;fill-opacity:1;fill-rule:nonzero;stroke:none;stroke-width:0.35277775"
       id="text4514">
      <tspan
         style="stroke-width:0.35277775"
         x="151.11237 152.38353 153.42615 154.03819 155.05269 155.5721 156.40132 157.48264 158.12354 159.16614 159.92094 161.52776 162.54225 163.23479 163.75418 164.74135"
         y="203.1545"
         sodipodi:role="line"
         id="tspan4512">Hoja Informativa</tspan>
    </text>
    <g
       aria-label="Descarga Recuento de Células Sanguíneas durante la Quimioterapia (pdf)"
       transform="matrix(0.09594162,0,0,0.09594162,157.81838,185.93497)"
       style="font-style:normal;font-variant:normal;font-weight:bold;font-stretch:normal;font-size:13.33333397px;line-height:1.25;font-family:Verdana;-inkscape-font-specification:'Verdana Bold';text-align:center;letter-spacing:0px;word-spacing:0px;text-anchor:middle;fill:#1a1a1a;fill-opacity:0.90588235;stroke:none;stroke-width:2.75775337"
       id="flowRoot1081">
      <path
         d="m -63.69792,228.9131 q 0,1.35417 -0.61849,2.42839 -0.618489,1.06771 -1.5625,1.64062 -0.709635,0.42969 -1.555989,0.59896 -0.846355,0.16927 -2.005209,0.16927 h -3.417969 v -9.69401 h 3.515625 q 1.184896,0 2.044271,0.20182 0.859375,0.19532 1.445313,0.5599 1.002604,0.61198 1.575521,1.65365 0.579427,1.03515 0.579427,2.4414 z m -2.584636,-0.0195 q 0,-0.95703 -0.351562,-1.63411 -0.345052,-0.6836 -1.100261,-1.06771 -0.384114,-0.1888 -0.78776,-0.25391 -0.397136,-0.0716 -1.204427,-0.0716 h -0.631511 v 6.06771 h 0.631511 q 0.891927,0 1.308594,-0.0781 0.416666,-0.0846 0.813802,-0.29948 0.683593,-0.39062 1.002604,-1.04166 0.31901,-0.65756 0.31901,-1.6211 z"
         style="fill:#1a1a1a;fill-opacity:0.90588235;stroke-width:2.75775337"
         id="path113" />
      <path
         d="m -54.720055,230.52769 h -5.364584 q 0.05208,0.85937 0.651042,1.3151 0.605469,0.45573 1.777344,0.45573 0.742187,0 1.438802,-0.26693 0.696615,-0.26692 1.100261,-0.57291 h 0.260416 v 1.88151 q -0.794271,0.31901 -1.497396,0.46224 -0.703125,0.14322 -1.555989,0.14322 -2.200521,0 -3.372396,-0.98958 -1.171875,-0.98958 -1.171875,-2.81901 0,-1.8099 1.10677,-2.86458 1.113282,-1.0612 3.046876,-1.0612 1.783854,0 2.682291,0.90495 0.898438,0.89843 0.898438,2.59114 z m -2.330729,-1.3737 q -0.01953,-0.73568 -0.364584,-1.10677 -0.345052,-0.3711 -1.074218,-0.3711 -0.677084,0 -1.113282,0.35157 -0.436198,0.35156 -0.488281,1.1263 z"
         style="fill:#1a1a1a;fill-opacity:0.90588235;stroke-width:2.75775337"
         id="path115" />
      <path
         d="m -46.712243,231.43263 q 0,1.13282 -1.015625,1.82943 -1.015625,0.69011 -2.779948,0.69011 -0.976563,0 -1.770834,-0.1823 -0.794271,-0.18229 -1.276041,-0.40364 v -1.92709 h 0.214843 q 0.175782,0.1237 0.403646,0.27344 0.234375,0.14323 0.657552,0.3125 0.364584,0.14974 0.826823,0.26042 0.46224,0.10417 0.989584,0.10417 0.690104,0 1.022135,-0.14974 0.332031,-0.15625 0.332031,-0.45573 0,-0.26693 -0.195312,-0.38412 -0.195313,-0.1237 -0.742188,-0.23437 -0.260416,-0.0586 -0.709635,-0.1237 -0.442709,-0.0716 -0.807292,-0.16927 -0.996094,-0.26042 -1.477865,-0.80729 -0.48177,-0.55339 -0.48177,-1.3737 0,-1.05469 0.996093,-1.7513 1.002605,-0.70313 2.734376,-0.70313 0.820312,0 1.56901,0.16927 0.755208,0.16276 1.178386,0.35156 v 1.84896 h -0.201823 q -0.520834,-0.35807 -1.191407,-0.57942 -0.664062,-0.22787 -1.347656,-0.22787 -0.566406,0 -0.957031,0.15625 -0.384115,0.15625 -0.384115,0.44271 0,0.26042 0.175781,0.39713 0.175782,0.13672 0.826823,0.27344 0.358073,0.0716 0.768229,0.14323 0.416667,0.0651 0.833334,0.16927 0.924479,0.24089 1.367187,0.76172 0.442709,0.51432 0.442709,1.28906 z"
         style="fill:#1a1a1a;fill-opacity:0.90588235;stroke-width:2.75775337"
         id="path117" />
      <path
         d="m -41.347658,233.94565 q -0.957031,0 -1.751302,-0.22786 -0.787761,-0.22786 -1.373698,-0.70312 -0.579427,-0.47527 -0.898438,-1.19792 -0.31901,-0.72266 -0.31901,-1.69271 0,-1.02214 0.338541,-1.76432 0.345053,-0.74219 0.957032,-1.23047 0.592448,-0.46224 1.367187,-0.67709 0.77474,-0.21484 1.608073,-0.21484 0.748698,0 1.380209,0.16276 0.63151,0.16276 1.178385,0.42318 v 1.9987 h -0.332031 q -0.136719,-0.11719 -0.332031,-0.27344 -0.188802,-0.15625 -0.46875,-0.30599 -0.266927,-0.14323 -0.585938,-0.23438 -0.31901,-0.0976 -0.742187,-0.0976 -0.9375,0 -1.445313,0.59896 -0.501302,0.59244 -0.501302,1.61458 0,1.05469 0.514323,1.60156 0.520833,0.54688 1.471354,0.54688 0.442708,0 0.794271,-0.0977 0.358073,-0.10417 0.592448,-0.24088 0.221354,-0.13021 0.390625,-0.27344 0.169271,-0.14323 0.3125,-0.27995 h 0.332031 v 1.9987 q -0.553385,0.26042 -1.158854,0.41015 -0.598958,0.15625 -1.328125,0.15625 z"
         style="fill:#1a1a1a;fill-opacity:0.90588235;stroke-width:2.75775337"
         id="path119" />
      <path
         d="m -32.884116,231.84279 v -1.52344 q -0.47526,0.0391 -1.028646,0.11068 -0.553385,0.0651 -0.839843,0.15625 -0.351563,0.11068 -0.540365,0.32552 -0.182292,0.20833 -0.182292,0.55339 0,0.22786 0.03906,0.37109 0.03906,0.14323 0.195312,0.27344 0.14974,0.13021 0.358073,0.19531 0.208334,0.0586 0.651042,0.0586 0.351562,0 0.709635,-0.14323 0.364584,-0.14322 0.638021,-0.3776 z m 0,1.13281 q -0.188802,0.14323 -0.46875,0.34505 -0.279948,0.20183 -0.527344,0.31902 -0.345052,0.15625 -0.716145,0.22786 -0.371094,0.0781 -0.813803,0.0781 -1.041666,0 -1.744791,-0.64453 -0.703125,-0.64453 -0.703125,-1.64713 0,-0.80078 0.358073,-1.3086 0.358073,-0.50781 1.015625,-0.80078 0.651041,-0.29297 1.614583,-0.41666 0.963542,-0.1237 1.998698,-0.1823 v -0.0391 q 0,-0.60547 -0.494792,-0.83333 -0.494791,-0.23438 -1.458333,-0.23438 -0.579427,0 -1.236979,0.20834 -0.657552,0.20182 -0.944011,0.3125 h -0.214843 v -1.76433 q 0.371093,-0.0977 1.204427,-0.22786 0.839843,-0.13672 1.679687,-0.13672 1.998698,0 2.884115,0.61849 0.891927,0.61198 0.891927,1.92708 v 4.97396 h -2.324219 z"
         style="fill:#1a1a1a;fill-opacity:0.90588235;stroke-width:2.75775337"
         id="path121" />
      <path
         d="m -23.10547,228.67222 h -0.208333 q -0.14974,-0.0521 -0.481771,-0.0781 -0.332031,-0.026 -0.553386,-0.026 -0.501302,0 -0.885416,0.0651 -0.384115,0.0651 -0.826823,0.22136 v 4.89583 h -2.34375 v -7.3112 h 2.34375 v 1.07422 q 0.774739,-0.66406 1.347656,-0.8789 0.572917,-0.22136 1.054688,-0.22136 0.123698,0 0.279948,0.007 0.15625,0.007 0.273437,0.0195 z"
         style="fill:#1a1a1a;fill-opacity:0.90588235;stroke-width:2.75775337"
         id="path123" />
      <path
         d="m -14.667972,232.9105 q 0,1.02864 -0.292969,1.73177 -0.292969,0.70312 -0.820313,1.10026 -0.527343,0.40365 -1.276041,0.57943 -0.742188,0.18229 -1.679688,0.18229 -0.761719,0 -1.503906,-0.0912 -0.735677,-0.0911 -1.276042,-0.22135 v -1.82943 h 0.286458 q 0.429688,0.16927 1.048177,0.30599 0.61849,0.14323 1.106771,0.14323 0.651042,0 1.054688,-0.1237 0.410156,-0.11719 0.625,-0.33854 0.201823,-0.20833 0.292969,-0.53385 0.09115,-0.32552 0.09115,-0.78125 v -0.13672 q -0.423178,0.34505 -0.9375,0.54687 -0.514323,0.20183 -1.145834,0.20183 -1.536458,0 -2.369792,-0.92448 -0.833333,-0.92448 -0.833333,-2.8125 0,-0.90495 0.253906,-1.5625 0.253906,-0.65756 0.716146,-1.14584 0.429688,-0.45573 1.054688,-0.70963 0.63151,-0.25391 1.289062,-0.25391 0.592448,0 1.074219,0.14323 0.488281,0.13672 0.885417,0.38411 l 0.08464,-0.32552 h 2.272136 z m -2.34375,-1.46485 v -3.3138 q -0.201823,-0.0846 -0.494792,-0.13021 -0.292969,-0.0521 -0.527344,-0.0521 -0.924479,0 -1.386719,0.53385 -0.462239,0.52735 -0.462239,1.47787 0,1.05469 0.390625,1.47135 0.397135,0.41667 1.171875,0.41667 0.351562,0 0.690104,-0.11068 0.338542,-0.11067 0.61849,-0.29297 z"
         style="fill:#1a1a1a;fill-opacity:0.90588235;stroke-width:2.75775337"
         id="path125" />
      <path
         d="m -8.0273462,231.84279 v -1.52344 q -0.4752604,0.0391 -1.0286459,0.11068 -0.5533854,0.0651 -0.8398438,0.15625 -0.3515621,0.11068 -0.5403641,0.32552 -0.182292,0.20833 -0.182292,0.55339 0,0.22786 0.03906,0.37109 0.03906,0.14323 0.195313,0.27344 0.149739,0.13021 0.358073,0.19531 0.2083331,0.0586 0.6510415,0.0586 0.3515625,0 0.7096354,-0.14323 0.3645834,-0.14322 0.6380209,-0.3776 z m 0,1.13281 q -0.1888021,0.14323 -0.46875,0.34505 -0.2799479,0.20183 -0.5273438,0.31902 -0.3450521,0.15625 -0.7161459,0.22786 -0.3710941,0.0781 -0.8138021,0.0781 -1.041667,0 -1.744792,-0.64453 -0.703125,-0.64453 -0.703125,-1.64713 0,-0.80078 0.358073,-1.3086 0.358073,-0.50781 1.015625,-0.80078 0.651042,-0.29297 1.614584,-0.41666 0.9635413,-0.1237 1.9986976,-0.1823 v -0.0391 q 0,-0.60547 -0.4947917,-0.83333 -0.4947916,-0.23438 -1.4583334,-0.23438 -0.5794275,0 -1.2369795,0.20834 -0.657552,0.20182 -0.94401,0.3125 h -0.214844 v -1.76433 q 0.371094,-0.0977 1.204427,-0.22786 0.839844,-0.13672 1.6796878,-0.13672 1.998698,0 2.8841147,0.61849 0.8919272,0.61198 0.8919272,1.92708 v 4.97396 h -2.3242189 z"
         style="fill:#1a1a1a;fill-opacity:0.90588235;stroke-width:2.75775337"
         id="path127" />
      <path
         d="m 6.5755197,227.02508 q 0,-0.36458 -0.1497396,-0.625 -0.1497396,-0.26042 -0.5143229,-0.41015 -0.2539063,-0.10417 -0.592448,-0.1237 -0.3385416,-0.026 -0.7877604,-0.026 h -0.904948 v 2.61067 H 4.39453 q 0.5989584,0 1.0026042,-0.0586 0.4036459,-0.0586 0.6770834,-0.26693 0.2604167,-0.20182 0.3776042,-0.44271 0.1236979,-0.24739 0.1236979,-0.65755 z m 3.8997393,6.72526 H 7.4218739 L 4.7786446,230.19565 H 3.6263008 v 3.55469 H 1.1393215 v -9.69401 h 4.1927086 q 0.859375,0 1.4778646,0.0977 0.6184896,0.0977 1.1588542,0.42317 0.5468751,0.32553 0.8658855,0.84636 0.3255209,0.51432 0.3255209,1.29557 0,1.07422 -0.5013022,1.7513 -0.4947916,0.67709 -1.4192709,1.12631 z"
         style="fill:#1a1a1a;fill-opacity:0.90588235;stroke-width:2.75775337"
         id="path129" />
      <path
         d="m 18.639322,230.52769 h -5.364584 q 0.05208,0.85937 0.651042,1.3151 0.605469,0.45573 1.777344,0.45573 0.742187,0 1.438802,-0.26693 0.696615,-0.26692 1.10026,-0.57291 h 0.260417 v 1.88151 q -0.794271,0.31901 -1.497396,0.46224 -0.703125,0.14322 -1.555989,0.14322 -2.200521,0 -3.372396,-0.98958 -1.171875,-0.98958 -1.171875,-2.81901 0,-1.8099 1.10677,-2.86458 1.113282,-1.0612 3.046876,-1.0612 1.783854,0 2.682291,0.90495 0.898438,0.89843 0.898438,2.59114 z m -2.330729,-1.3737 q -0.01953,-0.73568 -0.364584,-1.10677 -0.345052,-0.3711 -1.074219,-0.3711 -0.677083,0 -1.113281,0.35157 -0.436198,0.35156 -0.488281,1.1263 z"
         style="fill:#1a1a1a;fill-opacity:0.90588235;stroke-width:2.75775337"
         id="path131" />
      <path
         d="m 24.101559,233.94565 q -0.957032,0 -1.751302,-0.22786 -0.787761,-0.22786 -1.373698,-0.70312 -0.579428,-0.47527 -0.898438,-1.19792 -0.31901,-0.72266 -0.31901,-1.69271 0,-1.02214 0.338541,-1.76432 0.345052,-0.74219 0.957032,-1.23047 0.592448,-0.46224 1.367187,-0.67709 0.77474,-0.21484 1.608073,-0.21484 0.748698,0 1.380209,0.16276 0.63151,0.16276 1.178385,0.42318 v 1.9987 h -0.332031 q -0.136719,-0.11719 -0.332031,-0.27344 -0.188803,-0.15625 -0.468751,-0.30599 -0.266927,-0.14323 -0.585937,-0.23438 -0.31901,-0.0976 -0.742188,-0.0976 -0.9375,0 -1.445312,0.59896 -0.501302,0.59244 -0.501302,1.61458 0,1.05469 0.514323,1.60156 0.520833,0.54688 1.471354,0.54688 0.442708,0 0.794271,-0.0977 0.358073,-0.10417 0.592448,-0.24088 0.221354,-0.13021 0.390625,-0.27344 0.169271,-0.14323 0.3125,-0.27995 h 0.332031 v 1.9987 q -0.553385,0.26042 -1.158854,0.41015 -0.598959,0.15625 -1.328125,0.15625 z"
         style="fill:#1a1a1a;fill-opacity:0.90588235;stroke-width:2.75775337"
         id="path133" />
      <path
         d="m 35.423176,233.75034 h -2.34375 v -0.80729 q -0.651042,0.49479 -1.191406,0.75521 -0.540365,0.25391 -1.289063,0.25391 -1.210937,0 -1.86849,-0.69662 -0.651041,-0.69661 -0.651041,-2.05729 v -4.75912 h 2.356771 v 3.62631 q 0,0.55338 0.03255,0.92448 0.03906,0.36458 0.169271,0.60546 0.123697,0.24089 0.371093,0.35157 0.253907,0.11067 0.703125,0.11067 0.29948,0 0.664063,-0.11067 0.364583,-0.11068 0.703125,-0.32552 v -5.1823 h 2.34375 z"
         style="fill:#1a1a1a;fill-opacity:0.90588235;stroke-width:2.75775337"
         id="path135" />
      <path
         d="M 44.837244,230.52769 H 39.47266 q 0.05208,0.85937 0.651042,1.3151 0.605469,0.45573 1.777344,0.45573 0.742187,0 1.438802,-0.26693 0.696614,-0.26692 1.10026,-0.57291 h 0.260417 v 1.88151 q -0.794271,0.31901 -1.497396,0.46224 -0.703125,0.14322 -1.55599,0.14322 -2.200521,0 -3.372396,-0.98958 -1.171875,-0.98958 -1.171875,-2.81901 0,-1.8099 1.106771,-2.86458 1.113281,-1.0612 3.046875,-1.0612 1.783855,0 2.682292,0.90495 0.898438,0.89843 0.898438,2.59114 z m -2.33073,-1.3737 q -0.01953,-0.73568 -0.364583,-1.10677 -0.345052,-0.3711 -1.074219,-0.3711 -0.677083,0 -1.113281,0.35157 -0.436198,0.35156 -0.488281,1.1263 z"
         style="fill:#1a1a1a;fill-opacity:0.90588235;stroke-width:2.75775337"
         id="path137" />
      <path
         d="m 53.834637,233.75034 h -2.356771 v -3.6263 q 0,-0.44271 -0.04557,-0.87891 -0.04557,-0.4427 -0.15625,-0.65104 -0.130208,-0.24088 -0.384115,-0.35156 -0.247395,-0.11068 -0.696614,-0.11068 -0.319011,0 -0.651042,0.10417 -0.325521,0.10417 -0.709635,0.33203 v 5.18229 h -2.34375 v -7.3112 h 2.34375 v 0.8073 q 0.625,-0.48829 1.197916,-0.7487 0.579428,-0.26042 1.282553,-0.26042 1.184895,0 1.848958,0.69011 0.670573,0.6901 0.670573,2.0638 z"
         style="fill:#1a1a1a;fill-opacity:0.90588235;stroke-width:2.75775337"
         id="path139" />
      <path
         d="m 60.664069,233.68524 q -0.377604,0.0977 -0.800781,0.14974 -0.423177,0.0586 -1.035157,0.0586 -1.367187,0 -2.03776,-0.55338 -0.664063,-0.55339 -0.664063,-1.89454 v -3.41796 h -0.963541 v -1.58855 h 0.963541 v -2.08984 h 2.34375 v 2.08984 h 2.194011 v 1.58855 h -2.194011 v 2.59114 q 0,0.38412 0.0065,0.67057 0.0065,0.28646 0.104167,0.51433 0.09114,0.22786 0.31901,0.36458 0.234375,0.13021 0.677083,0.13021 0.182292,0 0.475261,-0.0781 0.299479,-0.0781 0.416666,-0.14322 h 0.195313 z"
         style="fill:#1a1a1a;fill-opacity:0.90588235;stroke-width:2.75775337"
         id="path141" />
      <path
         d="m 69.537767,230.098 q 0,1.80338 -1.054688,2.84505 -1.048177,1.03516 -2.949218,1.03516 -1.901042,0 -2.95573,-1.03516 -1.048177,-1.04167 -1.048177,-2.84505 0,-1.81641 1.054688,-2.85156 1.061198,-1.03516 2.949219,-1.03516 1.914062,0 2.955729,1.04167 1.048177,1.04166 1.048177,2.84505 z m -2.884115,1.77734 q 0.227865,-0.27995 0.338542,-0.67057 0.117187,-0.39714 0.117187,-1.09375 0,-0.64453 -0.117187,-1.08073 -0.117188,-0.4362 -0.325521,-0.69661 -0.208333,-0.26693 -0.501302,-0.37761 -0.292969,-0.11068 -0.63151,-0.11068 -0.338542,0 -0.605469,0.0911 -0.260417,0.0911 -0.501302,0.36458 -0.214844,0.25391 -0.345052,0.69662 -0.123698,0.44271 -0.123698,1.11328 0,0.59896 0.110677,1.04167 0.110677,0.43619 0.325521,0.70312 0.208333,0.25391 0.494791,0.37109 0.292969,0.11719 0.664063,0.11719 0.31901,0 0.605469,-0.10416 0.292968,-0.11068 0.494791,-0.36459 z"
         style="fill:#1a1a1a;fill-opacity:0.90588235;stroke-width:2.75775337"
         id="path143" />
      <path
         d="m 82.884121,233.75034 h -2.34375 v -0.76172 q -0.605469,0.4948 -1.132812,0.72917 -0.527344,0.23438 -1.217448,0.23438 -1.334636,0 -2.135417,-1.02865 -0.800782,-1.02865 -0.800782,-2.77344 0,-0.93099 0.266928,-1.64713 0.273437,-0.72266 0.742187,-1.23698 0.442708,-0.48828 1.074219,-0.75521 0.63151,-0.27344 1.263021,-0.27344 0.657552,0 1.074219,0.14323 0.423177,0.13672 0.865885,0.35156 v -3.11198 h 2.34375 z m -2.34375,-2.01823 v -3.58724 q -0.247396,-0.10416 -0.520833,-0.14974 -0.273438,-0.0456 -0.501302,-0.0456 -0.92448,0 -1.386719,0.57943 -0.46224,0.57291 -0.46224,1.59505 0,1.07422 0.371094,1.5625 0.371094,0.48177 1.191406,0.48177 0.319011,0 0.677084,-0.11719 0.358073,-0.12369 0.63151,-0.31901 z"
         style="fill:#1a1a1a;fill-opacity:0.90588235;stroke-width:2.75775337"
         id="path145" />
      <path
         d="M 92.298173,230.52769 H 86.93359 q 0.05208,0.85937 0.651042,1.3151 0.605468,0.45573 1.777343,0.45573 0.742188,0 1.438803,-0.26693 0.696614,-0.26692 1.10026,-0.57291 h 0.260417 v 1.88151 q -0.794271,0.31901 -1.497396,0.46224 -0.703125,0.14322 -1.55599,0.14322 -2.200521,0 -3.372396,-0.98958 -1.171875,-0.98958 -1.171875,-2.81901 0,-1.8099 1.106771,-2.86458 1.113281,-1.0612 3.046875,-1.0612 1.783854,0 2.682292,0.90495 0.898437,0.89843 0.898437,2.59114 z m -2.330729,-1.3737 q -0.01953,-0.73568 -0.364583,-1.10677 -0.345052,-0.3711 -1.074219,-0.3711 -0.677083,0 -1.113281,0.35157 -0.436198,0.35156 -0.488282,1.1263 z"
         style="fill:#1a1a1a;fill-opacity:0.90588235;stroke-width:2.75775337"
         id="path147" />
      <path
         d="m -89.134119,250.60582 q -1.080729,0 -1.998698,-0.31901 -0.911459,-0.31901 -1.569011,-0.95053 -0.657552,-0.63151 -1.022135,-1.57552 -0.358073,-0.94401 -0.358073,-2.18099 0,-1.15234 0.345052,-2.08984 0.345052,-0.9375 1.002604,-1.60807 0.631511,-0.64453 1.5625,-0.9961 0.9375,-0.35156 2.044271,-0.35156 0.611979,0 1.100261,0.0716 0.494791,0.0651 0.911458,0.17578 0.436198,0.12369 0.78776,0.27994 0.358073,0.14974 0.625,0.27995 v 2.35026 h -0.286458 q -0.182292,-0.15625 -0.462239,-0.37109 -0.273438,-0.21484 -0.625001,-0.42318 -0.358072,-0.20833 -0.774739,-0.35156 -0.416667,-0.14323 -0.891927,-0.14323 -0.527344,0 -1.002604,0.16927 -0.475261,0.16276 -0.878907,0.54688 -0.384114,0.37109 -0.625,0.98307 -0.234375,0.61198 -0.234375,1.48437 0,0.91146 0.253906,1.52344 0.260417,0.61198 0.651042,0.96354 0.397136,0.35808 0.885417,0.51433 0.488281,0.14974 0.963542,0.14974 0.455729,0 0.898437,-0.13672 0.449219,-0.13672 0.826823,-0.3711 0.319011,-0.1888 0.592448,-0.40364 0.273438,-0.21485 0.449219,-0.3711 h 0.260416 v 2.31771 q -0.364583,0.16276 -0.696614,0.30599 -0.332031,0.14323 -0.696615,0.2474 -0.47526,0.13672 -0.891927,0.20833 -0.416667,0.0716 -1.145833,0.0716 z"
         style="fill:#1a1a1a;fill-opacity:0.90588235;stroke-width:2.75775337"
         id="path149" />
      <path
         d="m -76.79688,247.19436 h -5.364583 q 0.05208,0.85937 0.651042,1.3151 0.605468,0.45573 1.777343,0.45573 0.742188,0 1.438803,-0.26693 0.696614,-0.26692 1.10026,-0.57291 h 0.260417 v 1.88151 q -0.794271,0.31901 -1.497396,0.46224 -0.703125,0.14323 -1.55599,0.14323 -2.200521,0 -3.372396,-0.98959 -1.171875,-0.98958 -1.171875,-2.81901 0,-1.80989 1.106771,-2.86458 1.113281,-1.0612 3.046875,-1.0612 1.783854,0 2.682292,0.90495 0.898437,0.89844 0.898437,2.59115 z m -2.330729,-1.3737 q -0.01953,-0.73568 -0.364583,-1.10677 -0.345052,-0.37109 -1.074219,-0.37109 -0.677083,0 -1.113281,0.35156 -0.436198,0.35156 -0.488282,1.1263 z m 0.944011,-6.3151 v 0.1302 l -2.291667,2.42839 h -1.601563 l 1.608073,-2.55859 z"
         style="fill:#1a1a1a;fill-opacity:0.90588235;stroke-width:2.75775337"
         id="path151" />
      <path
         d="m -72.799483,250.41701 h -2.34375 v -10.1302 h 2.34375 z"
         style="fill:#1a1a1a;fill-opacity:0.90588235;stroke-width:2.75775337"
         id="path153" />
      <path
         d="m -63.300785,250.41701 h -2.34375 v -0.80729 q -0.651042,0.49479 -1.191407,0.75521 -0.540364,0.25391 -1.289062,0.25391 -1.210938,0 -1.86849,-0.69662 -0.651042,-0.69661 -0.651042,-2.05729 v -4.75911 h 2.356771 v 3.6263 q 0,0.55338 0.03255,0.92448 0.03906,0.36458 0.16927,0.60547 0.123698,0.24088 0.371094,0.35156 0.253906,0.11068 0.703125,0.11068 0.299479,0 0.664063,-0.11068 0.364583,-0.11068 0.703125,-0.32552 v -5.18229 h 2.34375 z"
         style="fill:#1a1a1a;fill-opacity:0.90588235;stroke-width:2.75775337"
         id="path155" />
      <path
         d="m -58.743494,250.41701 h -2.34375 v -10.1302 h 2.34375 z"
         style="fill:#1a1a1a;fill-opacity:0.90588235;stroke-width:2.75775337"
         id="path157" />
      <path
         d="m -52.102868,248.50946 v -1.52344 q -0.47526,0.0391 -1.028646,0.11068 -0.553385,0.0651 -0.839844,0.15625 -0.351562,0.11068 -0.540364,0.32552 -0.182292,0.20834 -0.182292,0.55339 0,0.22786 0.03906,0.37109 0.03906,0.14323 0.195312,0.27344 0.14974,0.13021 0.358073,0.19531 0.208333,0.0586 0.651042,0.0586 0.351562,0 0.709635,-0.14323 0.364583,-0.14323 0.638021,-0.37761 z m 0,1.13281 q -0.188802,0.14323 -0.46875,0.34506 -0.279948,0.20182 -0.527344,0.31901 -0.345052,0.15625 -0.716146,0.22786 -0.371093,0.0781 -0.813802,0.0781 -1.041667,0 -1.744792,-0.64453 -0.703125,-0.64454 -0.703125,-1.64714 0,-0.80078 0.358073,-1.30859 0.358073,-0.50782 1.015625,-0.80079 0.651042,-0.29296 1.614584,-0.41666 0.963542,-0.1237 1.998698,-0.18229 v -0.0391 q 0,-0.60546 -0.494792,-0.83333 -0.494792,-0.23437 -1.458333,-0.23437 -0.579427,0 -1.236979,0.20833 -0.657553,0.20182 -0.944011,0.3125 h -0.214844 v -1.76432 q 0.371094,-0.0977 1.204427,-0.22787 0.839844,-0.13672 1.679688,-0.13672 1.998698,0 2.884115,0.61849 0.891927,0.61198 0.891927,1.92709 v 4.97395 h -2.324219 z"
         style="fill:#1a1a1a;fill-opacity:0.90588235;stroke-width:2.75775337"
         id="path159" />
      <path
         d="m -41.269535,248.09931 q 0,1.13281 -1.015625,1.82942 -1.015625,0.69011 -2.779948,0.69011 -0.976562,0 -1.770833,-0.18229 -0.794271,-0.1823 -1.276042,-0.40365 v -1.92708 h 0.214844 q 0.175781,0.12369 0.403646,0.27343 0.234375,0.14323 0.657552,0.3125 0.364583,0.14974 0.826823,0.26042 0.462239,0.10417 0.989583,0.10417 0.690104,0 1.022136,-0.14974 0.332031,-0.15625 0.332031,-0.45573 0,-0.26693 -0.195313,-0.38412 -0.195312,-0.12369 -0.742187,-0.23437 -0.260417,-0.0586 -0.709636,-0.1237 -0.442708,-0.0716 -0.807291,-0.16927 -0.996094,-0.26042 -1.477865,-0.80729 -0.481771,-0.55339 -0.481771,-1.3737 0,-1.05469 0.996094,-1.7513 1.002604,-0.70313 2.734375,-0.70313 0.820313,0 1.569011,0.16927 0.755208,0.16276 1.178385,0.35157 v 1.84895 h -0.201823 q -0.520833,-0.35807 -1.191406,-0.57942 -0.664063,-0.22787 -1.347656,-0.22787 -0.566407,0 -0.957032,0.15625 -0.384114,0.15625 -0.384114,0.44271 0,0.26042 0.175781,0.39714 0.175781,0.13672 0.826823,0.27343 0.358073,0.0716 0.768229,0.14323 0.416667,0.0651 0.833333,0.16927 0.92448,0.24089 1.367188,0.76172 0.442708,0.51433 0.442708,1.28907 z"
         style="fill:#1a1a1a;fill-opacity:0.90588235;stroke-width:2.75775337"
         id="path161" />
      <path
         d="m -27.265627,247.37014 q 0,1.43229 -1.217448,2.33073 -1.210938,0.89193 -3.294271,0.89193 -1.204427,0 -2.102865,-0.20834 -0.891927,-0.21484 -1.673177,-0.54036 v -2.32422 h 0.273438 q 0.774739,0.61849 1.731771,0.95052 0.963541,0.33203 1.848958,0.33203 0.227865,0 0.598958,-0.0391 0.371094,-0.0391 0.605469,-0.13021 0.286459,-0.11719 0.46875,-0.29297 0.188802,-0.17578 0.188802,-0.52083 0,-0.31901 -0.273437,-0.54688 -0.266927,-0.23437 -0.787761,-0.35807 -0.546875,-0.13021 -1.158854,-0.24089 -0.605469,-0.11718 -1.139323,-0.29296 -1.223958,-0.39714 -1.764323,-1.07422 -0.533854,-0.6836 -0.533854,-1.69271 0,-1.35417 1.210938,-2.20703 1.217447,-0.85938 3.125,-0.85938 0.957031,0 1.888021,0.1888 0.9375,0.1823 1.621093,0.46224 v 2.23308 h -0.266927 q -0.585937,-0.46875 -1.438802,-0.78125 -0.846354,-0.31901 -1.731771,-0.31901 -0.3125,0 -0.625,0.0456 -0.305989,0.0391 -0.592448,0.15625 -0.253906,0.0977 -0.436198,0.29948 -0.182291,0.19531 -0.182291,0.44922 0,0.38411 0.292968,0.59244 0.292969,0.20183 1.106771,0.3711 0.533854,0.11068 1.022136,0.21484 0.494791,0.10417 1.061198,0.28646 1.113281,0.36458 1.640625,0.99609 0.533854,0.625 0.533854,1.62761 z"
         style="fill:#1a1a1a;fill-opacity:0.90588235;stroke-width:2.75775337"
         id="path163" />
      <path
         d="m -21.256513,248.50946 v -1.52344 q -0.47526,0.0391 -1.028645,0.11068 -0.553386,0.0651 -0.839844,0.15625 -0.351563,0.11068 -0.540365,0.32552 -0.182292,0.20834 -0.182292,0.55339 0,0.22786 0.03906,0.37109 0.03906,0.14323 0.195312,0.27344 0.14974,0.13021 0.358073,0.19531 0.208334,0.0586 0.651042,0.0586 0.351563,0 0.709636,-0.14323 0.364583,-0.14323 0.63802,-0.37761 z m 0,1.13281 q -0.188802,0.14323 -0.46875,0.34506 -0.279948,0.20182 -0.527343,0.31901 -0.345052,0.15625 -0.716146,0.22786 -0.371094,0.0781 -0.813802,0.0781 -1.041667,0 -1.744792,-0.64453 -0.703125,-0.64454 -0.703125,-1.64714 0,-0.80078 0.358073,-1.30859 0.358073,-0.50782 1.015625,-0.80079 0.651042,-0.29296 1.614583,-0.41666 0.963542,-0.1237 1.998698,-0.18229 v -0.0391 q 0,-0.60546 -0.494791,-0.83333 -0.494792,-0.23437 -1.458334,-0.23437 -0.579427,0 -1.236979,0.20833 -0.657552,0.20182 -0.944011,0.3125 h -0.214843 v -1.76432 q 0.371093,-0.0977 1.204427,-0.22787 0.839844,-0.13672 1.679687,-0.13672 1.998698,0 2.884115,0.61849 0.891927,0.61198 0.891927,1.92709 v 4.97395 h -2.324219 z"
         style="fill:#1a1a1a;fill-opacity:0.90588235;stroke-width:2.75775337"
         id="path165" />
      <path
         d="m -9.4335958,250.41701 h -2.3567712 v -3.6263 q 0,-0.44271 -0.04557,-0.8789 -0.04557,-0.44271 -0.15625,-0.65105 -0.130208,-0.24088 -0.384114,-0.35156 -0.247396,-0.11068 -0.696615,-0.11068 -0.31901,0 -0.651042,0.10417 -0.32552,0.10417 -0.709635,0.33203 v 5.18229 h -2.34375 v -7.31119 h 2.34375 v 0.80729 q 0.625,-0.48828 1.197917,-0.7487 0.579427,-0.26042 1.282552,-0.26042 1.184896,0 1.848958,0.69011 0.6705732,0.6901 0.6705732,2.0638 z"
         style="fill:#1a1a1a;fill-opacity:0.90588235;stroke-width:2.75775337"
         id="path167" />
      <path
         d="m -0.16927541,249.57717 q 0,1.02865 -0.29296876,1.73177 -0.29296876,0.70313 -0.82031253,1.10026 -0.5273438,0.40365 -1.2760417,0.57943 -0.7421876,0.18229 -1.6796876,0.18229 -0.7617188,0 -1.5039063,-0.0911 -0.7356772,-0.0911 -1.2760418,-0.22135 v -1.82943 h 0.2864584 q 0.4296875,0.16927 1.0481771,0.30599 0.6184896,0.14323 1.1067709,0.14323 0.6510417,0 1.0546876,-0.1237 0.4101562,-0.11718 0.625,-0.33854 0.2018229,-0.20833 0.2929687,-0.53385 0.091146,-0.32552 0.091146,-0.78125 v -0.13672 q -0.4231771,0.34505 -0.9375001,0.54687 -0.5143229,0.20183 -1.1458334,0.20183 -1.5364584,0 -2.3697917,-0.92448 -0.8333334,-0.92448 -0.8333334,-2.8125 0,-0.90495 0.2539063,-1.5625 0.2539062,-0.65755 0.7161458,-1.14584 0.4296875,-0.45572 1.0546876,-0.70963 0.6315104,-0.25391 1.2890625,-0.25391 0.592448,0 1.0742188,0.14323 0.4882813,0.13672 0.8854167,0.38412 l 0.084635,-0.32552 h 2.27213549 z m -2.34375009,-1.46484 v -3.31381 q -0.2018229,-0.0846 -0.4947917,-0.1302 -0.2929688,-0.0521 -0.5273438,-0.0521 -0.9244792,0 -1.3867188,0.53386 -0.4622396,0.52734 -0.4622396,1.47786 0,1.05469 0.390625,1.47136 0.3971354,0.41666 1.1718751,0.41666 0.3515625,0 0.6901042,-0.11067 0.3385417,-0.11068 0.6184896,-0.29297 z"
         style="fill:#1a1a1a;fill-opacity:0.90588235;stroke-width:2.75775337"
         id="path169" />
      <path
         d="M 9.3294276,250.41701 H 6.9856775 v -0.80729 q -0.6510417,0.49479 -1.1914063,0.75521 -0.5403646,0.25391 -1.2890626,0.25391 -1.2109375,0 -1.8684896,-0.69662 -0.6510417,-0.69661 -0.6510417,-2.05729 v -4.75911 h 2.3567709 v 3.6263 q 0,0.55338 0.032552,0.92448 0.039063,0.36458 0.1692708,0.60547 0.1236979,0.24088 0.3710938,0.35156 0.2539063,0.11068 0.703125,0.11068 0.2994792,0 0.6640626,-0.11068 0.3645833,-0.11068 0.703125,-0.32552 v -5.18229 h 2.3437501 z"
         style="fill:#1a1a1a;fill-opacity:0.90588235;stroke-width:2.75775337"
         id="path171" />
      <path
         d="m 13.886716,250.41701 h -2.34375 v -7.31119 h 2.34375 z m 1.119792,-10.91145 v 0.1302 l -2.291667,2.42839 h -1.601562 l 1.608073,-2.55859 z"
         style="fill:#1a1a1a;fill-opacity:0.90588235;stroke-width:2.75775337"
         id="path173" />
      <path
         d="m 23.444006,250.41701 h -2.356771 v -3.6263 q 0,-0.44271 -0.04557,-0.8789 -0.04557,-0.44271 -0.15625,-0.65105 -0.130208,-0.24088 -0.384115,-0.35156 -0.247395,-0.11068 -0.696614,-0.11068 -0.319011,0 -0.651042,0.10417 -0.325521,0.10417 -0.709635,0.33203 v 5.18229 h -2.34375 v -7.31119 h 2.34375 v 0.80729 q 0.625,-0.48828 1.197916,-0.7487 0.579427,-0.26042 1.282552,-0.26042 1.184896,0 1.848959,0.69011 0.670573,0.6901 0.670573,2.0638 z"
         style="fill:#1a1a1a;fill-opacity:0.90588235;stroke-width:2.75775337"
         id="path175" />
      <path
         d="m 32.79948,247.19436 h -5.364584 q 0.05208,0.85937 0.651042,1.3151 0.605469,0.45573 1.777344,0.45573 0.742187,0 1.438802,-0.26693 0.696614,-0.26692 1.10026,-0.57291 h 0.260417 v 1.88151 q -0.794271,0.31901 -1.497396,0.46224 -0.703125,0.14323 -1.55599,0.14323 -2.200521,0 -3.372396,-0.98959 -1.171875,-0.98958 -1.171875,-2.81901 0,-1.80989 1.106771,-2.86458 1.113282,-1.0612 3.046875,-1.0612 1.783855,0 2.682292,0.90495 0.898438,0.89844 0.898438,2.59115 z m -2.33073,-1.3737 q -0.01953,-0.73568 -0.364583,-1.10677 -0.345052,-0.37109 -1.074219,-0.37109 -0.677083,0 -1.113281,0.35156 -0.436198,0.35156 -0.488281,1.1263 z"
         style="fill:#1a1a1a;fill-opacity:0.90588235;stroke-width:2.75775337"
         id="path177" />
      <path
         d="m 38.880214,248.50946 v -1.52344 q -0.475261,0.0391 -1.028646,0.11068 -0.553386,0.0651 -0.839844,0.15625 -0.351562,0.11068 -0.540364,0.32552 -0.182292,0.20834 -0.182292,0.55339 0,0.22786 0.03906,0.37109 0.03906,0.14323 0.195313,0.27344 0.149739,0.13021 0.358073,0.19531 0.208333,0.0586 0.651041,0.0586 0.351563,0 0.709636,-0.14323 0.364583,-0.14323 0.638021,-0.37761 z m 0,1.13281 q -0.188802,0.14323 -0.46875,0.34506 -0.279948,0.20182 -0.527344,0.31901 -0.345052,0.15625 -0.716146,0.22786 -0.371094,0.0781 -0.813802,0.0781 -1.041667,0 -1.744792,-0.64453 -0.703125,-0.64454 -0.703125,-1.64714 0,-0.80078 0.358073,-1.30859 0.358073,-0.50782 1.015625,-0.80079 0.651042,-0.29296 1.614584,-0.41666 0.963541,-0.1237 1.998698,-0.18229 v -0.0391 q 0,-0.60546 -0.494792,-0.83333 -0.494792,-0.23437 -1.458333,-0.23437 -0.579428,0 -1.23698,0.20833 -0.657552,0.20182 -0.94401,0.3125 h -0.214844 v -1.76432 q 0.371094,-0.0977 1.204427,-0.22787 0.839844,-0.13672 1.679688,-0.13672 1.998698,0 2.884115,0.61849 0.891927,0.61198 0.891927,1.92709 v 4.97395 h -2.324219 z"
         style="fill:#1a1a1a;fill-opacity:0.90588235;stroke-width:2.75775337"
         id="path179" />
      <path
         d="m 49.713547,248.09931 q 0,1.13281 -1.015625,1.82942 -1.015625,0.69011 -2.779948,0.69011 -0.976562,0 -1.770833,-0.18229 -0.794271,-0.1823 -1.276042,-0.40365 v -1.92708 h 0.214844 q 0.175781,0.12369 0.403646,0.27343 0.234375,0.14323 0.657552,0.3125 0.364583,0.14974 0.826823,0.26042 0.462239,0.10417 0.989583,0.10417 0.690104,0 1.022136,-0.14974 0.332031,-0.15625 0.332031,-0.45573 0,-0.26693 -0.195313,-0.38412 -0.195312,-0.12369 -0.742187,-0.23437 -0.260417,-0.0586 -0.709636,-0.1237 -0.442708,-0.0716 -0.807291,-0.16927 -0.996094,-0.26042 -1.477865,-0.80729 -0.481771,-0.55339 -0.481771,-1.3737 0,-1.05469 0.996094,-1.7513 1.002604,-0.70313 2.734375,-0.70313 0.820313,0 1.56901,0.16927 0.755209,0.16276 1.178386,0.35157 v 1.84895 h -0.201823 q -0.520833,-0.35807 -1.191406,-0.57942 -0.664063,-0.22787 -1.347657,-0.22787 -0.566406,0 -0.957031,0.15625 -0.384114,0.15625 -0.384114,0.44271 0,0.26042 0.175781,0.39714 0.175781,0.13672 0.826823,0.27343 0.358073,0.0716 0.768229,0.14323 0.416667,0.0651 0.833333,0.16927 0.92448,0.24089 1.367188,0.76172 0.442708,0.51433 0.442708,1.28907 z"
         style="fill:#1a1a1a;fill-opacity:0.90588235;stroke-width:2.75775337"
         id="path181" />
      <path
         d="m 62.936193,250.41701 h -2.34375 v -0.76171 q -0.605469,0.49479 -1.132812,0.72916 -0.527344,0.23438 -1.217448,0.23438 -1.334636,0 -2.135417,-1.02865 -0.800781,-1.02864 -0.800781,-2.77344 0,-0.93099 0.266927,-1.64713 0.273437,-0.72266 0.742187,-1.23698 0.442709,-0.48828 1.074219,-0.75521 0.631511,-0.27344 1.263021,-0.27344 0.657552,0 1.074219,0.14323 0.423177,0.13672 0.865885,0.35156 v -3.11197 h 2.34375 z m -2.34375,-2.01823 v -3.58723 q -0.247396,-0.10417 -0.520833,-0.14974 -0.273438,-0.0456 -0.501302,-0.0456 -0.924479,0 -1.386719,0.57943 -0.46224,0.57292 -0.46224,1.59505 0,1.07422 0.371094,1.5625 0.371094,0.48177 1.191406,0.48177 0.319011,0 0.677084,-0.11718 0.358073,-0.1237 0.63151,-0.31902 z"
         style="fill:#1a1a1a;fill-opacity:0.90588235;stroke-width:2.75775337"
         id="path183" />
      <path
         d="m 72.434896,250.41701 h -2.34375 v -0.80729 q -0.651041,0.49479 -1.191406,0.75521 -0.540365,0.25391 -1.289063,0.25391 -1.210937,0 -1.868489,-0.69662 -0.651042,-0.69661 -0.651042,-2.05729 v -4.75911 h 2.356771 v 3.6263 q 0,0.55338 0.03255,0.92448 0.03906,0.36458 0.169271,0.60547 0.123698,0.24088 0.371094,0.35156 0.253906,0.11068 0.703125,0.11068 0.299479,0 0.664062,-0.11068 0.364584,-0.11068 0.703125,-0.32552 v -5.18229 h 2.34375 z"
         style="fill:#1a1a1a;fill-opacity:0.90588235;stroke-width:2.75775337"
         id="path185" />
      <path
         d="m 79.947922,245.33889 h -0.208333 q -0.14974,-0.0521 -0.481771,-0.0781 -0.332031,-0.026 -0.553385,-0.026 -0.501303,0 -0.885417,0.0651 -0.384115,0.0651 -0.826823,0.22135 v 4.89583 h -2.34375 v -7.31119 h 2.34375 v 1.07421 q 0.774739,-0.66406 1.347656,-0.8789 0.572917,-0.22136 1.054688,-0.22136 0.123698,0 0.279948,0.007 0.15625,0.007 0.273437,0.0195 z"
         style="fill:#1a1a1a;fill-opacity:0.90588235;stroke-width:2.75775337"
         id="path187" />
      <path
         d="m 85.70312,248.50946 v -1.52344 q -0.47526,0.0391 -1.028646,0.11068 -0.553385,0.0651 -0.839843,0.15625 -0.351563,0.11068 -0.540365,0.32552 -0.182292,0.20834 -0.182292,0.55339 0,0.22786 0.03906,0.37109 0.03906,0.14323 0.195312,0.27344 0.14974,0.13021 0.358073,0.19531 0.208334,0.0586 0.651042,0.0586 0.351563,0 0.709635,-0.14323 0.364584,-0.14323 0.638021,-0.37761 z m 0,1.13281 q -0.188802,0.14323 -0.46875,0.34506 -0.279948,0.20182 -0.527343,0.31901 -0.345053,0.15625 -0.716146,0.22786 -0.371094,0.0781 -0.813802,0.0781 -1.041667,0 -1.744792,-0.64453 -0.703125,-0.64454 -0.703125,-1.64714 0,-0.80078 0.358073,-1.30859 0.358073,-0.50782 1.015625,-0.80079 0.651041,-0.29296 1.614583,-0.41666 0.963542,-0.1237 1.998698,-0.18229 v -0.0391 q 0,-0.60546 -0.494792,-0.83333 -0.494791,-0.23437 -1.458333,-0.23437 -0.579427,0 -1.236979,0.20833 -0.657552,0.20182 -0.944011,0.3125 h -0.214843 v -1.76432 q 0.371093,-0.0977 1.204427,-0.22787 0.839844,-0.13672 1.679687,-0.13672 1.998698,0 2.884115,0.61849 0.891927,0.61198 0.891927,1.92709 v 4.97395 H 85.70312 Z"
         style="fill:#1a1a1a;fill-opacity:0.90588235;stroke-width:2.75775337"
         id="path189" />
      <path
         d="m 97.526037,250.41701 h -2.356771 v -3.6263 q 0,-0.44271 -0.04557,-0.8789 -0.04557,-0.44271 -0.15625,-0.65105 -0.130208,-0.24088 -0.384114,-0.35156 -0.247396,-0.11068 -0.696615,-0.11068 -0.31901,0 -0.651042,0.10417 -0.325521,0.10417 -0.709635,0.33203 v 5.18229 h -2.34375 v -7.31119 h 2.34375 v 0.80729 q 0.625,-0.48828 1.197917,-0.7487 0.579427,-0.26042 1.282552,-0.26042 1.184896,0 1.848958,0.69011 0.670573,0.6901 0.670573,2.0638 z"
         style="fill:#1a1a1a;fill-opacity:0.90588235;stroke-width:2.75775337"
         id="path191" />
      <path
         d="m 104.35547,250.35191 q -0.37761,0.0977 -0.80078,0.14974 -0.42318,0.0586 -1.03516,0.0586 -1.36719,0 -2.03776,-0.55338 -0.664061,-0.55339 -0.664061,-1.89453 v -3.41797 h -0.963542 v -1.58854 h 0.963542 v -2.08985 h 2.343751 v 2.08985 h 2.19401 v 1.58854 h -2.19401 v 2.59114 q 0,0.38412 0.007,0.67058 0.007,0.28645 0.10417,0.51432 0.0911,0.22786 0.31901,0.36458 0.23437,0.13021 0.67708,0.13021 0.18229,0 0.47526,-0.0781 0.29948,-0.0781 0.41667,-0.14323 h 0.19531 z"
         style="fill:#1a1a1a;fill-opacity:0.90588235;stroke-width:2.75775337"
         id="path193" />
      <path
         d="m 112.95573,247.19436 h -5.36458 q 0.0521,0.85937 0.65104,1.3151 0.60547,0.45573 1.77734,0.45573 0.74219,0 1.4388,-0.26693 0.69662,-0.26692 1.10026,-0.57291 h 0.26042 v 1.88151 q -0.79427,0.31901 -1.49739,0.46224 -0.70313,0.14323 -1.55599,0.14323 -2.20053,0 -3.3724,-0.98959 -1.17188,-0.98958 -1.17188,-2.81901 0,-1.80989 1.10678,-2.86458 1.11328,-1.0612 3.04687,-1.0612 1.78385,0 2.68229,0.90495 0.89844,0.89844 0.89844,2.59115 z m -2.33073,-1.3737 q -0.0195,-0.73568 -0.36458,-1.10677 -0.34506,-0.37109 -1.07422,-0.37109 -0.67709,0 -1.11328,0.35156 -0.4362,0.35156 -0.48828,1.1263 z"
         style="fill:#1a1a1a;fill-opacity:0.90588235;stroke-width:2.75775337"
         id="path195" />
      <path
         d="m -71.077478,267.08369 h -2.34375 v -10.13021 h 2.34375 z"
         style="fill:#1a1a1a;fill-opacity:0.90588235;stroke-width:2.75775337"
         id="path197" />
      <path
         d="m -64.436852,265.17613 v -1.52343 q -0.475261,0.0391 -1.028646,0.11067 -0.553386,0.0651 -0.839844,0.15625 -0.351563,0.11068 -0.540365,0.32552 -0.182291,0.20834 -0.182291,0.55339 0,0.22786 0.03906,0.37109 0.03906,0.14323 0.195313,0.27344 0.149739,0.13021 0.358073,0.19531 0.208333,0.0586 0.651041,0.0586 0.351563,0 0.709636,-0.14323 0.364583,-0.14323 0.638021,-0.37761 z m 0,1.13282 q -0.188802,0.14323 -0.46875,0.34505 -0.279948,0.20182 -0.527344,0.31901 -0.345052,0.15625 -0.716146,0.22786 -0.371094,0.0781 -0.813802,0.0781 -1.041667,0 -1.744792,-0.64453 -0.703125,-0.64453 -0.703125,-1.64714 0,-0.80078 0.358073,-1.30859 0.358073,-0.50781 1.015625,-0.80078 0.651042,-0.29297 1.614583,-0.41667 0.963542,-0.1237 1.998698,-0.18229 v -0.0391 q 0,-0.60547 -0.494791,-0.83334 -0.494792,-0.23437 -1.458334,-0.23437 -0.579427,0 -1.236979,0.20833 -0.657552,0.20182 -0.94401,0.3125 h -0.214844 v -1.76432 q 0.371094,-0.0977 1.204427,-0.22787 0.839844,-0.13672 1.679688,-0.13672 1.998698,0 2.884114,0.61849 0.891927,0.61198 0.891927,1.92709 v 4.97396 h -2.324218 z"
         style="fill:#1a1a1a;fill-opacity:0.90588235;stroke-width:2.75775337"
         id="path199" />
      <path
         d="m -49.156904,264.69436 q 0.364583,-0.44271 0.540365,-1.04166 0.175781,-0.60547 0.175781,-1.41927 0,-0.8724 -0.201823,-1.48438 -0.201823,-0.61198 -0.527344,-0.98958 -0.332031,-0.39063 -0.768229,-0.56641 -0.429688,-0.17578 -0.898438,-0.17578 -0.47526,0 -0.898437,0.16927 -0.416667,0.16927 -0.768229,0.5599 -0.325521,0.36458 -0.533855,1.00911 -0.201823,0.63802 -0.201823,1.48438 0,0.86588 0.195313,1.47786 0.201823,0.60547 0.527344,0.98958 0.325521,0.38412 0.761719,0.56641 0.436198,0.18229 0.917968,0.18229 0.481771,0 0.917969,-0.18229 0.436198,-0.1888 0.761719,-0.57943 z m 0.266927,2.27214 q 0.02604,0.64453 0.351563,0.92448 0.32552,0.27995 1.113281,0.27995 0.266927,0 0.63151,-0.0911 0.364584,-0.0912 0.507813,-0.16276 h 0.247396 v 1.71875 q -0.364584,0.0846 -0.794271,0.14974 -0.423177,0.0651 -1.302084,0.0651 -0.774739,0 -1.354166,-0.19531 -0.572917,-0.1888 -0.957032,-0.54036 -0.377604,-0.34506 -0.566406,-0.81381 -0.188802,-0.46875 -0.221354,-1.04166 -2.174479,-0.1237 -3.391927,-1.45183 -1.210938,-1.33463 -1.210938,-3.5677 0,-2.33724 1.328125,-3.69141 1.328125,-1.36068 3.665365,-1.36068 2.330729,0 3.665365,1.36068 1.334635,1.35417 1.334635,3.69141 0,1.72526 -0.78125,2.98177 -0.78125,1.25 -2.265625,1.74479 z"
         style="fill:#1a1a1a;fill-opacity:0.90588235;stroke-width:2.75775337"
         id="path201" />
      <path
         d="m -36.780603,267.08369 h -2.34375 v -0.8073 q -0.651041,0.4948 -1.191406,0.75521 -0.540365,0.25391 -1.289063,0.25391 -1.210937,0 -1.868489,-0.69662 -0.651042,-0.69661 -0.651042,-2.05729 v -4.75911 h 2.356771 v 3.6263 q 0,0.55339 0.03255,0.92448 0.03906,0.36458 0.169271,0.60547 0.123698,0.24088 0.371094,0.35156 0.253906,0.11068 0.703125,0.11068 0.299479,0 0.664062,-0.11068 0.364584,-0.11068 0.703125,-0.32552 v -5.18229 h 2.34375 z"
         style="fill:#1a1a1a;fill-opacity:0.90588235;stroke-width:2.75775337"
         id="path203" />
      <path
         d="m -32.22331,267.08369 h -2.34375 v -7.3112 h 2.34375 z m 0.0651,-8.35287 h -2.473958 v -1.77734 h 2.473958 z"
         style="fill:#1a1a1a;fill-opacity:0.90588235;stroke-width:2.75775337"
         id="path205" />
      <path
         d="m -22.861329,261.90139 v 5.1823 H -25.2181 v -3.65235 q 0,-0.53385 -0.02604,-0.90495 -0.02604,-0.3776 -0.143229,-0.61198 -0.117187,-0.23437 -0.358073,-0.33854 -0.234375,-0.11067 -0.664062,-0.11067 -0.345053,0 -0.670573,0.14323 -0.325521,0.13671 -0.585938,0.29296 v 5.1823 h -2.34375 v -7.3112 h 2.34375 v 0.80729 q 0.605469,-0.47526 1.158854,-0.74219 0.553386,-0.26693 1.223959,-0.26693 0.722656,0 1.276041,0.32553 0.553386,0.31901 0.865886,0.94401 0.703125,-0.59245 1.367187,-0.93099 0.664063,-0.33855 1.302084,-0.33855 1.184896,0 1.796875,0.70964 0.61849,0.70964 0.61849,2.04427 v 4.75912 h -2.356771 v -3.65235 q 0,-0.54036 -0.02604,-0.91146 -0.01953,-0.37109 -0.136719,-0.60547 -0.110677,-0.23437 -0.351562,-0.33854 -0.240886,-0.11067 -0.677084,-0.11067 -0.292968,0 -0.572916,0.10416 -0.279948,0.0977 -0.683594,0.33203 z"
         style="fill:#1a1a1a;fill-opacity:0.90588235;stroke-width:2.75775337"
         id="path207" />
      <path
         d="m -13.557947,267.08369 h -2.34375 v -7.3112 h 2.34375 z m 0.06511,-8.35287 h -2.473959 v -1.77734 h 2.473959 z"
         style="fill:#1a1a1a;fill-opacity:0.90588235;stroke-width:2.75775337"
         id="path209" />
      <path
         d="m -3.870445,263.43134 q 0,1.80339 -1.0546876,2.84505 -1.0481771,1.03516 -2.9492189,1.03516 -1.9010417,0 -2.9557295,-1.03516 -1.048177,-1.04166 -1.048177,-2.84505 0,-1.8164 1.054688,-2.85156 1.0611976,-1.03516 2.9492185,-1.03516 1.9140626,0 2.9557293,1.04167 1.0481772,1.04167 1.0481772,2.84505 z m -2.8841147,1.77735 q 0.2278645,-0.27995 0.3385416,-0.67058 0.1171875,-0.39713 0.1171875,-1.09375 0,-0.64453 -0.1171875,-1.08073 -0.1171875,-0.43619 -0.3255208,-0.69661 -0.2083334,-0.26693 -0.5013021,-0.37761 -0.2929688,-0.11067 -0.6315105,-0.11067 -0.3385417,0 -0.6054687,0.0911 -0.2604167,0.0912 -0.5013022,0.36459 -0.2148437,0.2539 -0.3450521,0.69661 -0.1236979,0.44271 -0.1236979,1.11328 0,0.59896 0.1106771,1.04167 0.1106771,0.4362 0.3255209,0.70312 0.2083333,0.25391 0.4947916,0.3711 0.2929688,0.11719 0.6640626,0.11719 0.3190104,0 0.6054688,-0.10417 0.2929687,-0.11068 0.4947917,-0.36458 z"
         style="fill:#1a1a1a;fill-opacity:0.90588235;stroke-width:2.75775337"
         id="path211" />
      <path
         d="m 2.4837202,267.01858 q -0.3776042,0.0977 -0.8007813,0.14974 -0.4231771,0.0586 -1.03515625,0.0586 -1.36718757,0 -2.03776055,-0.55338 -0.6640625,-0.55339 -0.6640625,-1.89453 v -3.41797 h -0.9635417 v -1.58854 h 0.9635417 v -2.08985 h 2.34375011 v 2.08985 H 2.4837202 v 1.58854 H 0.28970971 v 2.59115 q 0,0.38411 0.00651,0.67057 0.00651,0.28646 0.10416667,0.51432 0.0911458,0.22787 0.31901043,0.36458 0.23437501,0.13021 0.67708337,0.13021 0.1822917,0 0.4752604,-0.0781 0.2994792,-0.0781 0.4166667,-0.14323 h 0.1953125 z"
         style="fill:#1a1a1a;fill-opacity:0.90588235;stroke-width:2.75775337"
         id="path213" />
      <path
         d="M 11.083981,263.86103 H 5.7193972 q 0.052083,0.85937 0.6510417,1.3151 0.6054688,0.45573 1.7773438,0.45573 0.7421875,0 1.4388022,-0.26692 0.6966141,-0.26693 1.1002601,-0.57292 h 0.260417 v 1.88151 q -0.794271,0.31901 -1.4973959,0.46224 -0.703125,0.14323 -1.5559896,0.14323 -2.200521,0 -3.372396,-0.98959 -1.1718751,-0.98958 -1.1718751,-2.81901 0,-1.80989 1.1067709,-2.86458 1.1132813,-1.0612 3.0468751,-1.0612 1.7838543,0 2.6822916,0.90495 0.898438,0.89844 0.898438,2.59115 z m -2.3307295,-1.3737 q -0.019531,-0.73568 -0.3645834,-1.10677 -0.3450521,-0.37109 -1.0742188,-0.37109 -0.6770833,0 -1.1132813,0.35156 -0.4361979,0.35156 -0.4882812,1.1263 z"
         style="fill:#1a1a1a;fill-opacity:0.90588235;stroke-width:2.75775337"
         id="path215" />
      <path
         d="m 18.037111,262.00556 h -0.208334 q -0.149739,-0.0521 -0.48177,-0.0781 -0.332032,-0.026 -0.553386,-0.026 -0.501302,0 -0.885417,0.0651 -0.384114,0.0651 -0.826823,0.22135 v 4.89584 h -2.34375 v -7.3112 h 2.34375 v 1.07422 q 0.77474,-0.66407 1.347657,-0.87891 0.572916,-0.22135 1.054687,-0.22135 0.123698,0 0.279948,0.007 0.15625,0.007 0.273438,0.0195 z"
         style="fill:#1a1a1a;fill-opacity:0.90588235;stroke-width:2.75775337"
         id="path217" />
      <path
         d="m 23.792317,265.17613 v -1.52343 q -0.475261,0.0391 -1.028646,0.11067 -0.553386,0.0651 -0.839844,0.15625 -0.351563,0.11068 -0.540365,0.32552 -0.182291,0.20834 -0.182291,0.55339 0,0.22786 0.03906,0.37109 0.03906,0.14323 0.195313,0.27344 0.149739,0.13021 0.358073,0.19531 0.208333,0.0586 0.651041,0.0586 0.351563,0 0.709636,-0.14323 0.364583,-0.14323 0.638021,-0.37761 z m 0,1.13282 q -0.188803,0.14323 -0.468751,0.34505 -0.279947,0.20182 -0.527343,0.31901 -0.345052,0.15625 -0.716146,0.22786 -0.371094,0.0781 -0.813802,0.0781 -1.041667,0 -1.744792,-0.64453 -0.703125,-0.64453 -0.703125,-1.64714 0,-0.80078 0.358073,-1.30859 0.358073,-0.50781 1.015625,-0.80078 0.651042,-0.29297 1.614583,-0.41667 0.963542,-0.1237 1.998698,-0.18229 v -0.0391 q 0,-0.60547 -0.494791,-0.83334 -0.494792,-0.23437 -1.458334,-0.23437 -0.579427,0 -1.236979,0.20833 -0.657552,0.20182 -0.94401,0.3125 h -0.214844 v -1.76432 q 0.371094,-0.0977 1.204427,-0.22787 0.839844,-0.13672 1.679688,-0.13672 1.998698,0 2.884114,0.61849 0.891927,0.61198 0.891927,1.92709 v 4.97396 h -2.324218 z"
         style="fill:#1a1a1a;fill-opacity:0.90588235;stroke-width:2.75775337"
         id="path219" />
      <path
         d="m 35.901692,263.32718 q 0,0.90494 -0.279948,1.64713 -0.273438,0.74219 -0.722657,1.22396 -0.46875,0.50781 -1.061198,0.76823 -0.592447,0.26041 -1.269531,0.26041 -0.625,0 -1.061198,-0.13671 -0.436198,-0.13021 -0.891927,-0.3711 v 3.04688 h -2.34375 v -9.99349 h 2.34375 v 0.76172 q 0.540365,-0.42969 1.100261,-0.69662 0.566406,-0.26693 1.302083,-0.26693 1.367188,0 2.122396,1.00261 0.761719,1.0026 0.761719,2.75391 z m -2.415365,0.0456 q 0,-1.06771 -0.364583,-1.54948 -0.364584,-0.48177 -1.152344,-0.48177 -0.332031,0 -0.683594,0.10416 -0.351562,0.0977 -0.670573,0.28646 v 3.67839 q 0.234375,0.0911 0.501302,0.11719 0.266927,0.026 0.527344,0.026 0.93099,0 1.386719,-0.54037 0.455729,-0.54687 0.455729,-1.64062 z"
         style="fill:#1a1a1a;fill-opacity:0.90588235;stroke-width:2.75775337"
         id="path221" />
      <path
         d="m 39.938155,267.08369 h -2.34375 v -7.3112 h 2.34375 z m 0.0651,-8.35287 h -2.473958 v -1.77734 h 2.473958 z"
         style="fill:#1a1a1a;fill-opacity:0.90588235;stroke-width:2.75775337"
         id="path223" />
      <path
         d="m 46.578777,265.17613 v -1.52343 q -0.47526,0.0391 -1.028645,0.11067 -0.553386,0.0651 -0.839844,0.15625 -0.351563,0.11068 -0.540365,0.32552 -0.182292,0.20834 -0.182292,0.55339 0,0.22786 0.03906,0.37109 0.03906,0.14323 0.195312,0.27344 0.14974,0.13021 0.358073,0.19531 0.208334,0.0586 0.651042,0.0586 0.351563,0 0.709636,-0.14323 0.364583,-0.14323 0.63802,-0.37761 z m 0,1.13282 q -0.188802,0.14323 -0.46875,0.34505 -0.279948,0.20182 -0.527343,0.31901 -0.345053,0.15625 -0.716146,0.22786 -0.371094,0.0781 -0.813802,0.0781 -1.041667,0 -1.744792,-0.64453 -0.703125,-0.64453 -0.703125,-1.64714 0,-0.80078 0.358073,-1.30859 0.358073,-0.50781 1.015625,-0.80078 0.651042,-0.29297 1.614583,-0.41667 0.963542,-0.1237 1.998698,-0.18229 v -0.0391 q 0,-0.60547 -0.494791,-0.83334 -0.494792,-0.23437 -1.458334,-0.23437 -0.579427,0 -1.236979,0.20833 -0.657552,0.20182 -0.944011,0.3125 H 42.24284 v -1.76432 q 0.371093,-0.0977 1.204427,-0.22787 0.839844,-0.13672 1.679687,-0.13672 1.998698,0 2.884115,0.61849 0.891927,0.61198 0.891927,1.92709 v 4.97396 h -2.324219 z"
         style="fill:#1a1a1a;fill-opacity:0.90588235;stroke-width:2.75775337"
         id="path225" />
      <path
         d="m 60.673835,269.76598 h -2.454428 q -1.25,-1.46485 -1.855468,-3.01433 -0.598959,-1.54947 -0.598959,-3.39192 0,-1.84245 0.598959,-3.39193 0.605468,-1.54948 1.855468,-3.01432 h 2.454428 v 0.1888 q -0.527344,0.47526 -1.009115,1.08073 -0.47526,0.59896 -0.885417,1.40625 -0.390625,0.77474 -0.638021,1.71875 -0.240885,0.94401 -0.240885,2.01172 0,1.11328 0.234375,2.01823 0.240885,0.90494 0.644531,1.71224 0.390625,0.76823 0.878907,1.39323 0.494791,0.63151 1.015625,1.09375 z"
         style="fill:#1a1a1a;fill-opacity:0.90588235;stroke-width:2.75775337"
         id="path227" />
      <path
         d="m 70.491543,263.32718 q 0,0.90494 -0.279948,1.64713 -0.273437,0.74219 -0.722656,1.22396 -0.46875,0.50781 -1.061198,0.76823 -0.592448,0.26041 -1.269531,0.26041 -0.625,0 -1.061198,-0.13671 -0.436198,-0.13021 -0.891928,-0.3711 v 3.04688 h -2.34375 v -9.99349 h 2.34375 v 0.76172 q 0.540365,-0.42969 1.100261,-0.69662 0.566406,-0.26693 1.302083,-0.26693 1.367188,0 2.122396,1.00261 0.761719,1.0026 0.761719,2.75391 z m -2.415365,0.0456 q 0,-1.06771 -0.364583,-1.54948 -0.364583,-0.48177 -1.152344,-0.48177 -0.332031,0 -0.683594,0.10416 -0.351562,0.0977 -0.670573,0.28646 v 3.67839 q 0.234375,0.0911 0.501303,0.11719 0.266927,0.026 0.527343,0.026 0.93099,0 1.386719,-0.54037 0.455729,-0.54687 0.455729,-1.64062 z"
         style="fill:#1a1a1a;fill-opacity:0.90588235;stroke-width:2.75775337"
         id="path229" />
      <path
         d="m 79.293616,267.08369 h -2.34375 v -0.76172 q -0.605469,0.49479 -1.132812,0.72916 -0.527344,0.23438 -1.217448,0.23438 -1.334636,0 -2.135417,-1.02865 -0.800782,-1.02864 -0.800782,-2.77343 0,-0.93099 0.266928,-1.64714 0.273437,-0.72266 0.742187,-1.23698 0.442708,-0.48828 1.074219,-0.75521 0.63151,-0.27344 1.263021,-0.27344 0.657552,0 1.074219,0.14323 0.423177,0.13672 0.865885,0.35157 v -3.11198 h 2.34375 z m -2.34375,-2.01823 v -3.58724 q -0.247396,-0.10417 -0.520833,-0.14974 -0.273438,-0.0456 -0.501302,-0.0456 -0.92448,0 -1.386719,0.57943 -0.46224,0.57292 -0.46224,1.59505 0,1.07422 0.371094,1.5625 0.371094,0.48177 1.191406,0.48177 0.319011,0 0.677084,-0.11718 0.358073,-0.1237 0.63151,-0.31901 z"
         style="fill:#1a1a1a;fill-opacity:0.90588235;stroke-width:2.75775337"
         id="path231" />
      <path
         d="m 86.246746,258.67223 h -0.175781 q -0.15625,-0.0456 -0.410156,-0.10417 -0.247396,-0.0586 -0.533855,-0.0586 -0.690104,0 -0.9375,0.24739 -0.240885,0.2474 -0.240885,0.95703 v 0.0586 h 1.809896 v 1.58854 h -1.731771 v 5.72266 h -2.34375 v -5.72266 H 80.68034 v -1.58854 h 1.002604 v -0.20183 q 0,-1.34114 0.709635,-2.01171 0.716146,-0.67058 2.161459,-0.67058 0.520833,0 0.94401,0.0391 0.423177,0.0326 0.748698,0.0911 z"
         style="fill:#1a1a1a;fill-opacity:0.90588235;stroke-width:2.75775337"
         id="path233" />
      <path
         d="m 92.021491,263.35973 q 0,1.84245 -0.605469,3.39192 -0.598958,1.54948 -1.848958,3.01433 h -2.454428 v -0.1888 q 0.520834,-0.46224 1.015625,-1.08724 0.494792,-0.625 0.878907,-1.39974 0.403646,-0.8073 0.638021,-1.71224 0.240885,-0.90495 0.240885,-2.01823 0,-1.06771 -0.247396,-2.01172 -0.240885,-0.94401 -0.63151,-1.71875 -0.410156,-0.80729 -0.891927,-1.40625 -0.475261,-0.60547 -1.002605,-1.08073 v -0.1888 h 2.454428 q 1.25,1.46484 1.848958,3.01432 0.605469,1.54948 0.605469,3.39193 z"
         style="fill:#1a1a1a;fill-opacity:0.90588235;stroke-width:2.75775337"
         id="path235" />
    </g>
    <g
       style="stroke-width:1.28523135"
       transform="matrix(0.13331682,0,0,0.1333169,173.22655,174.41844)"
       id="g1099">
      <path
         d="m -96.23788,308.38552 c 0,6.81955 -5.52909,12.35004 -12.34793,12.35004 -6.82201,0 -12.35145,-5.53049 -12.35145,-12.35004 0,-6.82025 5.52944,-12.35005 12.35145,-12.35005 6.81884,0 12.34793,5.5298 12.34793,12.35005 z"
         style="fill:none;stroke:#f97ca9;stroke-width:2.26700521;stroke-linecap:butt;stroke-linejoin:miter;stroke-miterlimit:10;stroke-dasharray:none;stroke-opacity:1"
         id="path1089"
         inkscape:connector-curvature="0" />
      <path
         d="m -110.46131,302.33213 v 0.44274 c 0,1.32786 7e-4,2.65465 0,3.9811 -0.001,0.60325 -0.13829,0.73589 -0.75565,0.7366 -0.31115,0 -0.62442,0 -1.02235,0 1.25659,1.39135 2.44086,2.70439 3.63713,4.03013 1.21356,-1.34867 2.39043,-2.655 3.62868,-4.03013 -0.41452,0 -0.74437,0 -1.07315,0 -0.54399,0 -0.7112,-0.16651 -0.7112,-0.71226 -0.003,-1.3402 -0.002,-2.68111 -0.002,-4.0199 v -0.42828 z m -1.00613,4.1529 v -4.22169 c 0,-0.14076 -0.007,-0.28222 0.002,-0.42368 0.0279,-0.33408 0.21449,-0.52846 0.54645,-0.52952 1.54693,-0.006 3.09351,-0.009 4.63974,0 0.3556,0.004 0.52951,0.22542 0.53198,0.61877 0.002,1.36631 0.001,2.73191 0.001,4.09892 v 0.45474 c 0.60254,0 1.16628,0.005 1.73002,-0.004 0.27234,-0.004 0.57361,0.0159 0.62794,0.31291 0.0353,0.20144 -0.0529,0.49107 -0.19015,0.6477 -1.49613,1.68698 -3.01025,3.35915 -4.5219,5.03097 -0.37536,0.41557 -0.62195,0.42439 -0.9906,0.0197 -1.51553,-1.67111 -3.02331,-3.3468 -4.53425,-5.02144 -0.17639,-0.19614 -0.34326,-0.39687 -0.20849,-0.68756 0.13299,-0.28328 0.3817,-0.30445 0.65228,-0.30057 0.55351,0.008 1.10631,0.004 1.71344,0.004"
         style="fill:#4d4d4d;fill-opacity:1;fill-rule:evenodd;stroke:none;stroke-width:0.45340109"
         id="path1091"
         inkscape:connector-curvature="0" />
      <path
         d="m -110.46131,302.33213 v 0.44274 c 0,1.32786 7e-4,2.65465 0,3.9811 -0.001,0.60325 -0.13829,0.73589 -0.75565,0.7366 -0.31115,0 -0.62442,0 -1.02235,0 1.25659,1.39135 2.44086,2.70439 3.63713,4.03013 1.21356,-1.34867 2.39043,-2.655 3.62868,-4.03013 -0.41452,0 -0.74437,0 -1.07315,0 -0.54399,0 -0.7112,-0.16651 -0.7112,-0.71226 -0.003,-1.3402 -0.002,-2.68111 -0.002,-4.0199 v -0.42828 z m -1.00613,4.1529 v -4.22169 c 0,-0.14076 -0.007,-0.28222 0.002,-0.42368 0.0279,-0.33408 0.21449,-0.52846 0.54645,-0.52952 1.54693,-0.006 3.09351,-0.009 4.63974,0 0.3556,0.004 0.52951,0.22542 0.53198,0.61877 0.002,1.36631 0.001,2.73191 0.001,4.09892 v 0.45474 c 0.60254,0 1.16628,0.005 1.73002,-0.004 0.27234,-0.004 0.57361,0.0159 0.62794,0.31291 0.0353,0.20144 -0.0529,0.49107 -0.19015,0.6477 -1.49613,1.68698 -3.01025,3.35915 -4.5219,5.03097 -0.37536,0.41557 -0.62195,0.42439 -0.9906,0.0197 -1.51553,-1.67111 -3.02331,-3.3468 -4.53425,-5.02144 -0.17639,-0.19614 -0.34326,-0.39687 -0.20849,-0.68756 0.13299,-0.28328 0.3817,-0.30445 0.65228,-0.30057 0.55351,0.008 1.10631,0.004 1.71344,0.004 z"
         style="fill:#f97ca9;fill-opacity:1;stroke:#f97ca9;stroke-width:0.22670054;stroke-linecap:butt;stroke-linejoin:miter;stroke-miterlimit:10;stroke-dasharray:none;stroke-opacity:1"
         id="path1093"
         inkscape:connector-curvature="0" />
      <path
         d="m -108.61234,314.97876 c -1.48237,0 -2.96545,0 -4.44782,0 -1.44956,0 -2.37031,-0.9204 -2.37137,-2.36114 0,-0.37289 -0.005,-0.74789 10e-4,-1.12184 0.004,-0.31926 0.16439,-0.51787 0.49036,-0.52211 0.32844,-0.006 0.49812,0.19897 0.51364,0.50765 0.0173,0.3743 0.004,0.74824 0.006,1.12113 0.002,0.89782 0.48013,1.37654 1.39065,1.37724 2.24331,0.004 4.48592,0 6.72959,0 0.72284,0 1.44427,0.005 2.16535,0 0.8583,-0.008 1.3402,-0.49459 1.3469,-1.3462 0.002,-0.35983 -0.007,-0.72037 0.003,-1.08126 0.0113,-0.37888 0.21379,-0.6029 0.52388,-0.57997 0.35278,0.024 0.4833,0.24377 0.47872,0.57644 -0.005,0.375 0.002,0.74718 -7.1e-4,1.12183 -0.0116,1.39524 -0.93274,2.30541 -2.34138,2.30752 -1.49578,0.005 -2.99015,0.004 -4.48734,0.004"
         style="fill:#4d4d4d;fill-opacity:1;fill-rule:evenodd;stroke:none;stroke-width:0.45340109"
         id="path1095"
         inkscape:connector-curvature="0" />
      <path
         d="m -108.61234,314.97876 c -1.48237,0 -2.96545,0 -4.44782,0 -1.44956,0 -2.37031,-0.9204 -2.37137,-2.36114 0,-0.37289 -0.005,-0.74789 10e-4,-1.12184 0.004,-0.31926 0.16439,-0.51787 0.49036,-0.52211 0.32844,-0.006 0.49812,0.19897 0.51364,0.50765 0.0173,0.3743 0.004,0.74824 0.006,1.12113 0.002,0.89782 0.48013,1.37654 1.39065,1.37724 2.24331,0.004 4.48592,0 6.72959,0 0.72284,0 1.44427,0.005 2.16535,0 0.8583,-0.008 1.3402,-0.49459 1.3469,-1.3462 0.002,-0.35983 -0.007,-0.72037 0.003,-1.08126 0.0113,-0.37888 0.21379,-0.6029 0.52388,-0.57997 0.35278,0.024 0.4833,0.24377 0.47872,0.57644 -0.005,0.375 0.002,0.74718 -7.1e-4,1.12183 -0.0116,1.39524 -0.93274,2.30541 -2.34138,2.30752 -1.49578,0.005 -2.99015,0.004 -4.48734,0.004 z"
         style="fill:#f97ca9;fill-opacity:1;stroke:#f97ca9;stroke-width:0.22670054;stroke-linecap:butt;stroke-linejoin:miter;stroke-miterlimit:10;stroke-dasharray:none;stroke-opacity:1"
         id="path1097"
         inkscape:connector-curvature="0" />
    </g>
  </g>
</svg>
