<?xml version="1.0" encoding="UTF-8" standalone="no"?>
<svg
   xmlns:dc="http://purl.org/dc/elements/1.1/"
   xmlns:cc="http://creativecommons.org/ns#"
   xmlns:rdf="http://www.w3.org/1999/02/22-rdf-syntax-ns#"
   xmlns:svg="http://www.w3.org/2000/svg"
   xmlns="http://www.w3.org/2000/svg"
   id="svg5736"
   version="1.1"
   viewBox="0 0 132.21979 156.82111"
   height="156.82111mm"
   width="132.21979mm">
  <defs
     id="defs5730" />
  <metadata
     id="metadata5733">
    <rdf:RDF>
      <cc:Work
         rdf:about="">
        <dc:format>image/svg+xml</dc:format>
        <dc:type
           rdf:resource="http://purl.org/dc/dcmitype/StillImage" />
        <dc:title></dc:title>
      </cc:Work>
    </rdf:RDF>
  </metadata>
  <g
     transform="translate(-46.527078,-75.336436)"
     id="layer1">
    <g
       style="fill:#60c160;fill-opacity:1"
       transform="matrix(1.1013538,0,0,-1.1013538,-1068.654,791.7075)"
       id="g5716">
      <path
         d="m 1121.3701,551.4355 c -4.715,-5.258 -10.758,-6.711 -10.758,-6.711 0,0 2.596,11.227 4.339,14.258 1.612,2.805 2.239,6.125 7.081,4.024 3.285,-1.422 4.553,-5.75 -0.662,-11.571 m 8.236,15.051 c -6.845,6.622 -16.463,5.661 -20.884,-3.293 -5.424,-10.978 -5.395,-22.515 -5.395,-22.515 0,0 -11.991,-4.007 -18.936,-3.172 -6.947,0.833 -9.579,1.04 -9.579,1.04 l -1.467,-5.894 c 0,0 23.739,-6.955 43.037,6.659 15.011,10.593 20.07,20.555 13.224,27.175"
         style="fill:#60c160;fill-opacity:1;fill-rule:nonzero;stroke:none"
         id="path1786" />
      <path
         d="m 1109.6416,533.2295 -6.799,-2.074 c 0,0 -0.436,-8.475 0.567,-12.28 0.997,-3.808 5.617,-10.819 5.617,-10.819 l 4.529,3.06 c 0,0 -2.863,6.993 -3.768,10.983 -0.904,3.994 -0.146,11.13 -0.146,11.13"
         style="fill:#60c160;fill-opacity:1;fill-rule:nonzero;stroke:none"
         id="path1790" />
      <path
         d="m 1066.1592,563.0469 c -2.672,0.043 -4.506,2.043 -4.492,4.57 0.013,2.534 1.577,4.491 4.175,4.637 1.105,0.059 2.158,0.01 3.158,0.01 v 28.284 c -1,0 -1.877,-0.034 -2.906,0.005 -2.799,0.105 -4.595,2.006 -4.587,4.588 0.01,2.638 1.975,4.555 4.771,4.629 2.451,0.062 4.948,0.038 7.403,0.017 3.608,-0.029 5.326,-1.644 5.346,-5.261 0.045,-8.491 0.028,-16.98 0.031,-25.472 0,-2.159 0.01,-4.321 0.01,-6.796 1.409,0 2.459,0.041 3.5,-0.008 2.684,-0.125 4.685,-2.177 4.658,-4.728 -0.032,-2.456 -1.986,-4.459 -4.644,-4.493 -5.472,-0.066 -10.945,-0.068 -16.418,0.018 m 7.586,67.686 c 4.736,0.017 8.738,-3.951 8.738,-8.668 0,-4.877 -3.916,-8.759 -8.853,-8.775 -4.709,-0.013 -8.604,3.97 -8.596,8.788 0.01,4.785 3.884,8.638 8.711,8.655 m -45.189,-2.192 c -1.423,-0.037 -2.643,-0.007 -4.024,-0.007 l 0.11,9.085 c 1.551,0 2.899,0.11 4.184,0.08 2.781,-0.058 4.721,-1.646 4.971,-4.064 0.013,-0.143 -0.389,-0.288 -0.386,-0.434 0,-0.009 -0.411,-0.02 -0.411,-0.027 v -0.009 c 0,-2.673 -1.51,-4.548 -4.444,-4.624 m 0,-21.056 c -1.423,-0.036 -2.643,-0.007 -4.024,-0.005 l 0.11,9.085 c 1.551,0 2.899,0.108 4.184,0.08 2.781,-0.06 4.721,-1.651 4.971,-4.067 0.013,-0.142 -0.389,-0.286 -0.386,-0.432 0,-0.011 -0.411,-0.019 -0.411,-0.029 v -0.008 c 0,-2.673 -1.51,-4.547 -4.444,-4.624 m 0,-19.791 c -1.423,-0.04 -2.643,-0.006 -4.024,-0.005 l 0.11,9.084 c 1.551,0 2.899,0.107 4.184,0.079 2.781,-0.059 4.721,-1.647 4.971,-4.067 0.013,-0.142 -0.389,-0.285 -0.386,-0.431 0,-0.01 -0.411,-0.02 -0.411,-0.028 v -0.006 c 0,-2.675 -1.51,-4.55 -4.444,-4.626 m 0,-20.634 c -1.423,-0.036 -2.643,-0.007 -4.024,-0.007 l 0.11,9.086 c 1.551,0 2.899,0.107 4.184,0.079 2.781,-0.06 4.721,-1.647 4.971,-4.068 0.013,-0.139 -0.389,-0.285 -0.386,-0.432 0,-0.009 -0.411,-0.017 -0.411,-0.026 v -0.01 c 0,-2.674 -1.51,-4.546 -4.444,-4.622 m 0,-21.056 c -1.423,-0.033 -2.643,-0.007 -4.024,-0.004 l 0.11,9.083 c 1.551,0 2.899,0.109 4.184,0.081 2.781,-0.059 4.721,-1.647 4.971,-4.067 0.013,-0.143 -0.389,-0.286 -0.386,-0.435 0,-0.009 -0.411,-0.015 -0.411,-0.023 v -0.009 c 0,-2.673 -1.51,-4.551 -4.444,-4.626 m 69.214,0.231 c 0,0 -0.029,11.539 5.393,22.517 4.379,8.863 13.846,9.884 20.679,3.476 0,25.241 0,47.467 -0.01,72.713 0,3.903 -1.633,5.506 -5.49,5.505 -7.792,-0.002 -15.58,-0.024 -23.368,-0.024 -22.313,0.005 -44.631,0.018 -66.947,0.02 -3.939,0 -5.603,-1.686 -5.613,-5.627 -0.01,-3.137 0,-3.252 0,-6.64 -1.784,0 -3.31,0.033 -4.835,-0.004 -2.993,-0.075 -4.928,-1.882 -4.956,-4.589 -0.03,-2.73 1.742,-4.577 4.73,-4.667 1.588,-0.047 1.645,-0.007 4.645,-0.007 v -11.317 c -3,0 -3.108,0.037 -4.635,-0.01 -2.945,-0.092 -4.833,-1.995 -4.81,-4.689 0.028,-2.724 1.857,-4.506 4.859,-4.558 1.578,-0.029 1.586,-0.008 4.586,-0.008 v -11.355 c -3,0 -3.133,0.039 -4.668,-0.009 -2.951,-0.091 -4.794,-1.967 -4.773,-4.708 0.018,-2.615 2.226,-4.439 5.089,-4.535 1.592,-0.053 1.352,-0.01 5.352,-0.01 v -8.2 -3.146 c -4,0 -3.738,0.045 -5.33,-0.007 -2.834,-0.089 -4.876,-1.934 -4.898,-4.557 -0.027,-2.725 1.697,-4.613 4.622,-4.677 1.586,-0.035 1.606,-0.006 4.606,-0.006 v -11.368 c -3,0 -3.192,0.035 -4.783,-0.007 -2.858,-0.078 -4.632,-1.876 -4.665,-4.548 -0.032,-2.646 1.864,-4.57 4.658,-4.681 1.603,-0.064 3.223,-0.014 5.186,-0.014 0,-3.441 0.01,-6.588 0.01,-9.73 0.011,-3.825 1.699,-5.552 5.492,-5.552 25.002,-0.008 13.331,-0.012 38.333,-0.006 l 3.02,12.896 c 0,0 2.636,-0.209 9.579,-1.043 6.945,-0.833 18.94,3.172 18.94,3.172"
         style="fill:#60c160;fill-opacity:1;fill-rule:nonzero;stroke:none"
         id="path1794" />
    </g>
  </g>
</svg>
