<?xml version="1.0" encoding="UTF-8" standalone="no"?>
<svg
   xmlns:dc="http://purl.org/dc/elements/1.1/"
   xmlns:cc="http://creativecommons.org/ns#"
   xmlns:rdf="http://www.w3.org/1999/02/22-rdf-syntax-ns#"
   xmlns:svg="http://www.w3.org/2000/svg"
   xmlns="http://www.w3.org/2000/svg"
   xmlns:sodipodi="http://sodipodi.sourceforge.net/DTD/sodipodi-0.dtd"
   xmlns:inkscape="http://www.inkscape.org/namespaces/inkscape"
   viewBox="0 0 99.894531 99.896493"
   version="1.1"
   id="svg-descarga"
   sodipodi:docname="descargar-documenos.svg"
   inkscape:version="0.92.5 (2060ec1f9f, 2020-04-08)"
   width="99.894531"
   height="99.896492">
  <sodipodi:namedview
     pagecolor="#ffffff"
     bordercolor="#666666"
     borderopacity="1"
     objecttolerance="10"
     gridtolerance="10"
     guidetolerance="10"
     inkscape:pageopacity="0"
     inkscape:pageshadow="2"
     inkscape:window-width="1440"
     inkscape:window-height="825"
     id="namedview12"
     showgrid="false"
     inkscape:zoom="3.8124062"
     inkscape:cx="64.526817"
     inkscape:cy="33.618275"
     inkscape:window-x="0"
     inkscape:window-y="0"
     inkscape:window-maximized="1"
     inkscape:current-layer="svg-descarga"
     fit-margin-top="0"
     fit-margin-left="0"
     fit-margin-right="0"
     fit-margin-bottom="0" />
  <defs
     id="defs7202" />
  <metadata
     id="metadata7205">
    <rdf:RDF>
      <cc:Work
         rdf:about="">
        <dc:format>image/svg+xml</dc:format>
        <dc:type
           rdf:resource="http://purl.org/dc/dcmitype/StillImage" />
        <dc:title></dc:title>
      </cc:Work>
    </rdf:RDF>
  </metadata>
  <path
     inkscape:connector-curvature="0"
     style="color:#000000;font-style:normal;font-variant:normal;font-weight:normal;font-stretch:normal;font-size:medium;line-height:normal;font-family:sans-serif;font-variant-ligatures:normal;font-variant-position:normal;font-variant-caps:normal;font-variant-numeric:normal;font-variant-alternates:normal;font-feature-settings:normal;text-indent:0;text-align:start;text-decoration:none;text-decoration-line:none;text-decoration-style:solid;text-decoration-color:#000000;letter-spacing:normal;word-spacing:normal;text-transform:none;writing-mode:lr-tb;direction:ltr;text-orientation:mixed;dominant-baseline:auto;baseline-shift:baseline;text-anchor:start;white-space:normal;shape-padding:0;clip-rule:nonzero;display:inline;overflow:visible;visibility:visible;opacity:1;isolation:auto;mix-blend-mode:normal;color-interpolation:sRGB;color-interpolation-filters:linearRGB;solid-color:#000000;solid-opacity:1;vector-effect:none;fill-opacity:1;fill-rule:nonzero;stroke:none;stroke-width:4.08999968;stroke-linecap:butt;stroke-linejoin:miter;stroke-miterlimit:4;stroke-dasharray:none;stroke-dashoffset:0;stroke-opacity:1;color-rendering:auto;image-rendering:auto;shape-rendering:auto;text-rendering:auto;enable-background:accumulate"
     d="M 49.953125,0 C 22.38928,0 0,22.390628 0,49.949219 c 0,27.556869 22.38928,49.94727 49.953125,49.94727 27.556962,0 49.941404,-22.390586 49.941404,-49.94727 C 99.894529,22.390813 77.510087,0 49.953125,0 Z m 0,4.089844 c 25.345826,0 45.851564,20.511399 45.851564,45.859375 0,25.346104 -20.505738,45.85742 -45.851564,45.85742 -25.35331,0 -45.8632851,-20.511501 -45.8632851,-45.85742 0,-25.347791 20.5099751,-45.859375 45.8632851,-45.859375 z m 0.212891,17.189453 c -3.130506,7.09e-4 -6.26137,0.01133 -9.392578,0.02539 -1.34583,0.0037 -2.098394,0.791204 -2.208984,2.144531 -0.02999,0.567947 0,1.145022 0,1.714844 v 17.091797 h -0.01563 c -2.461105,0 -4.701403,0.01819 -6.939453,-0.01367 -1.094658,-0.01687 -2.102668,0.0734 -2.640625,1.216797 -0.545455,1.177132 0.129519,1.990405 0.841797,2.785156 6.121837,6.776008 12.222543,13.56529 18.359375,20.328125 1.490159,1.641986 2.489773,1.603145 4.013672,-0.08008 6.119962,-6.76851 12.248379,-13.534948 18.302734,-20.367188 0.558577,-0.633552 0.915815,-1.807597 0.771485,-2.621093 -0.219307,-1.205249 -1.440892,-1.280699 -2.544922,-1.267579 -2.281162,0.03374 -4.563262,0.0098 -7,0.0098 v -1.83789 -16.59375 c -0.0094,-1.593252 -0.712873,-2.49646 -2.154297,-2.50586 -3.132146,-0.0206 -6.262072,-0.03 -9.392578,-0.0293 z m -7.533203,4.164063 h 14.994141 v 1.730468 16.275391 c 0,2.20806 0.678423,2.879166 2.880859,2.884766 1.332709,0.0019 2.666228,0 4.345703,0 C 59.841332,51.900995 55.073075,57.190223 50.16211,62.650391 45.320498,57.283944 40.52466,51.9666 35.4375,46.333985 c 1.610122,0 2.877191,0.0019 4.138672,0 2.500468,-0.0037 3.056641,-0.539981 3.056641,-2.980469 V 27.234375 Z m 33.207031,34.972656 c -1.259607,-0.08997 -2.07814,0.81259 -2.125,2.349609 -0.04498,1.458295 -0.01953,2.920613 -0.01953,4.378907 -0.02624,3.445173 -1.981631,5.413525 -5.451172,5.447265 -2.920337,0.02624 -5.841696,0.0078 -8.769531,0.0078 -9.083411,0 -18.16073,0.0016 -27.244141,-0.0078 -3.685098,-0.0037 -5.612119,-1.941761 -5.630859,-5.578125 -0.0056,-1.507029 0.04771,-3.022583 -0.02539,-4.537109 -0.05998,-1.252109 -0.747134,-2.081011 -2.074219,-2.056641 -1.323332,0.01874 -1.969542,0.823921 -1.988282,2.119141 -0.0187,1.510778 0,3.028206 0,4.537109 0.004,5.835052 3.732774,9.554947 9.601564,9.560547 6.001875,0.0074 12.004063,0.0039 18.007812,0.0039 h 0.0059 c 6.058106,0 12.111578,0.01101 18.164062,-0.0059 5.707591,-0.01125 9.433765,-3.696218 9.484375,-9.345703 0.0019,-1.514526 -0.01867,-3.022741 0.002,-4.541016 0.02062,-1.343955 -0.511071,-2.236431 -1.9375,-2.332031 z"
     id="path988-3" />
</svg>
