<?xml version="1.0" encoding="UTF-8" standalone="no"?>
<svg
   xmlns:dc="http://purl.org/dc/elements/1.1/"
   xmlns:cc="http://creativecommons.org/ns#"
   xmlns:rdf="http://www.w3.org/1999/02/22-rdf-syntax-ns#"
   xmlns:svg="http://www.w3.org/2000/svg"
   xmlns="http://www.w3.org/2000/svg"
   id="svg7208"
   version="1.1"
   viewBox="0 0 100 100.00187"
   height="100.00187mm"
   width="100mm">
  <defs
     id="defs7202" />
  <metadata
     id="metadata7205">
    <rdf:RDF>
      <cc:Work
         rdf:about="">
        <dc:format>image/svg+xml</dc:format>
        <dc:type
           rdf:resource="http://purl.org/dc/dcmitype/StillImage" />
        <dc:title></dc:title>
      </cc:Work>
    </rdf:RDF>
  </metadata>
  <g
     transform="translate(118.26754,-34.807478)"
     id="layer1">
    <g
       id="g7123"
       transform="matrix(1.8744142,0,0,-1.8744142,-2128.8928,582.23202)">
      <path
         d="m 1126.0186,265.375 c 0,-14.73 -11.942,-26.675 -26.672,-26.675 -14.734,0 -26.678,11.945 -26.678,26.675 0,14.731 11.944,26.676 26.678,26.676 14.73,0 26.672,-11.945 26.672,-26.676"
         style="fill:#ffffff;fill-opacity:1;fill-rule:nonzero;stroke:none"
         id="path988" />
      <path
         id="path998"
         style="fill:#4d4d4d;fill-opacity:1;fill-rule:evenodd;stroke:none"
         d="m 1095.4414,278.4492 v -0.956 c 0,-2.866 0,-5.732 0,-8.599 0,-1.302 -0.297,-1.589 -1.631,-1.591 -0.673,-10e-4 -1.349,0 -2.208,0 2.714,-3.005 5.273,-5.841 7.856,-8.704 2.62,2.913 5.164,5.734 7.838,8.704 -0.896,0 -1.608,-10e-4 -2.319,0 -1.175,0.003 -1.537,0.361 -1.537,1.539 0,2.894 0,5.791 0,8.683 v 0.924 z m -2.171,-8.97 v 9.119 c 0,0.304 -0.016,0.612 0,0.915 0.059,0.722 0.461,1.142 1.179,1.144 3.341,0.015 6.68,0.02 10.022,-0.002 0.769,-0.005 1.144,-0.487 1.149,-1.337 0,-2.951 0,-5.9 0,-8.853 v -0.981 c 1.3,0 2.518,-0.012 3.735,0.006 0.589,0.007 1.24,-0.034 1.357,-0.677 0.077,-0.434 -0.113,-1.06 -0.411,-1.398 -3.23,-3.645 -6.5,-7.255 -9.765,-10.866 -0.813,-0.898 -1.346,-0.919 -2.141,-0.043 -3.274,3.608 -6.529,7.23 -9.795,10.845 -0.38,0.424 -0.74,0.858 -0.449,1.486 0.287,0.61 0.825,0.658 1.409,0.649 1.194,-0.017 2.389,-0.007 3.702,-0.007" />
      <path
         id="path1002"
         style="fill:none;stroke:#4d4d4d;stroke-width:0.5;stroke-linecap:butt;stroke-linejoin:miter;stroke-miterlimit:10;stroke-dasharray:none;stroke-opacity:1"
         d="m 1095.4414,278.4492 v -0.956 c 0,-2.866 0,-5.732 0,-8.599 0,-1.302 -0.297,-1.589 -1.631,-1.591 -0.673,-10e-4 -1.349,0 -2.208,0 2.714,-3.005 5.273,-5.841 7.856,-8.704 2.62,2.913 5.164,5.734 7.838,8.704 -0.896,0 -1.608,-10e-4 -2.319,0 -1.175,0.003 -1.537,0.361 -1.537,1.539 0,2.894 0,5.791 0,8.683 v 0.924 z m -2.171,-8.97 v 9.119 c 0,0.304 -0.016,0.612 0,0.915 0.059,0.722 0.461,1.142 1.179,1.144 3.341,0.015 6.68,0.02 10.022,-0.002 0.769,-0.005 1.144,-0.487 1.149,-1.337 0,-2.951 0,-5.9 0,-8.853 v -0.981 c 1.3,0 2.518,-0.012 3.735,0.006 0.589,0.007 1.24,-0.034 1.357,-0.677 0.077,-0.434 -0.113,-1.06 -0.411,-1.398 -3.23,-3.645 -6.5,-7.255 -9.765,-10.866 -0.813,-0.898 -1.346,-0.919 -2.141,-0.043 -3.274,3.608 -6.529,7.23 -9.795,10.845 -0.38,0.424 -0.74,0.858 -0.449,1.486 0.287,0.61 0.825,0.658 1.409,0.649 1.194,-0.017 2.389,-0.007 3.702,-0.007 z" />
      <path
         id="path1006"
         style="fill:#4d4d4d;fill-opacity:1;fill-rule:evenodd;stroke:none"
         d="m 1099.4365,251.1348 c -3.203,0 -6.405,-0.002 -9.607,0.002 -3.131,0.003 -5.121,1.988 -5.123,5.101 0,0.805 -0.01,1.615 0,2.421 0.01,0.691 0.355,1.12 1.061,1.13 0.708,0.013 1.075,-0.429 1.107,-1.097 0.039,-0.808 0.01,-1.617 0.013,-2.421 0.01,-1.94 1.038,-2.974 3.004,-2.976 4.846,-0.005 9.689,-0.004 14.535,-0.004 1.562,0 3.121,-0.01 4.679,0.004 1.851,0.018 2.894,1.069 2.908,2.907 0,0.778 -0.014,1.558 0.01,2.336 0.025,0.82 0.462,1.301 1.134,1.253 0.761,-0.051 1.044,-0.527 1.033,-1.244 -0.011,-0.81 0,-1.615 -10e-4,-2.423 -0.027,-3.014 -2.014,-4.98 -5.059,-4.986 -3.229,-0.009 -6.459,-0.003 -9.691,-0.003" />
      <path
         id="path1010"
         style="fill:none;stroke:#4d4d4d;stroke-width:0.5;stroke-linecap:butt;stroke-linejoin:miter;stroke-miterlimit:10;stroke-dasharray:none;stroke-opacity:1"
         d="m 1099.4365,251.1348 c -3.203,0 -6.405,-0.002 -9.607,0.002 -3.131,0.003 -5.121,1.988 -5.123,5.101 0,0.805 -0.01,1.615 0,2.421 0.01,0.691 0.355,1.12 1.061,1.13 0.708,0.013 1.075,-0.429 1.107,-1.097 0.039,-0.808 0.01,-1.617 0.013,-2.421 0.01,-1.94 1.038,-2.974 3.004,-2.976 4.846,-0.005 9.689,-0.004 14.535,-0.004 1.562,0 3.121,-0.01 4.679,0.004 1.851,0.018 2.894,1.069 2.908,2.907 0,0.778 -0.014,1.558 0.01,2.336 0.025,0.82 0.462,1.301 1.134,1.253 0.761,-0.051 1.044,-0.527 1.033,-1.244 -0.011,-0.81 0,-1.615 -10e-4,-2.423 -0.027,-3.014 -2.014,-4.98 -5.059,-4.986 -3.229,-0.009 -6.459,-0.003 -9.691,-0.003 z" />
    </g>
  </g>
</svg>
