<?xml version="1.0" encoding="UTF-8" standalone="no"?>
<!-- Created with Inkscape (http://www.inkscape.org/) -->

<svg
   xmlns:dc="http://purl.org/dc/elements/1.1/"
   xmlns:cc="http://creativecommons.org/ns#"
   xmlns:rdf="http://www.w3.org/1999/02/22-rdf-syntax-ns#"
   xmlns:svg="http://www.w3.org/2000/svg"
   xmlns="http://www.w3.org/2000/svg"
   xmlns:sodipodi="http://sodipodi.sourceforge.net/DTD/sodipodi-0.dtd"
   xmlns:inkscape="http://www.inkscape.org/namespaces/inkscape"
   width="210mm"
   height="297mm"
   viewBox="0 0 210 297"
   version="1.1"
   id="svg8186"
   inkscape:version="0.92.5 (2060ec1f9f, 2020-04-08)"
   sodipodi:docname="dibujo.svg">
  <defs
     id="defs8180">
    <clipPath
       clipPathUnits="userSpaceOnUse"
       id="clipPath4164">
      <path
         d="M 142,876 H 377 V 550 H 142 Z"
         id="path4162"
         inkscape:connector-curvature="0" />
    </clipPath>
    <clipPath
       clipPathUnits="userSpaceOnUse"
       id="clipPath84">
      <path
         d="M 0,2441 H 1400 V 0 H 0 Z"
         id="path82"
         inkscape:connector-curvature="0" />
    </clipPath>
  </defs>
  <sodipodi:namedview
     id="base"
     pagecolor="#ffffff"
     bordercolor="#666666"
     borderopacity="1.0"
     inkscape:pageopacity="0.0"
     inkscape:pageshadow="2"
     inkscape:zoom="0.35"
     inkscape:cx="400"
     inkscape:cy="560"
     inkscape:document-units="mm"
     inkscape:current-layer="layer1"
     showgrid="false"
     inkscape:window-width="1366"
     inkscape:window-height="652"
     inkscape:window-x="0"
     inkscape:window-y="27"
     inkscape:window-maximized="1" />
  <metadata
     id="metadata8183">
    <rdf:RDF>
      <cc:Work
         rdf:about="">
        <dc:format>image/svg+xml</dc:format>
        <dc:type
           rdf:resource="http://purl.org/dc/dcmitype/StillImage" />
        <dc:title></dc:title>
      </cc:Work>
    </rdf:RDF>
  </metadata>
  <g
     inkscape:label="Capa 1"
     inkscape:groupmode="layer"
     id="layer1">
    <path
       d="M 147.36115,178.56628 H 64.458374 V 63.913516 h 82.902776 z"
       style="fill:#ffffff;fill-opacity:1;fill-rule:nonzero;stroke:none;stroke-width:0.35277775"
       id="path76"
       inkscape:connector-curvature="0" />
    <g
       transform="matrix(0.35277777,0,0,-0.35277777,14.363934,372.94684)"
       id="g78">
      <g
         id="g80"
         clip-path="url(#clipPath84)">
        <g
           id="g86"
           transform="translate(295.4082,428.8711)">
          <path
             d="m 0,0 c 0,-19.93 -16.158,-36.092 -36.086,-36.092 -19.936,0 -36.096,16.162 -36.096,36.092 0,19.932 16.16,36.092 36.096,36.092 C -16.158,36.092 0,19.932 0,0 Z"
             style="fill:none;stroke:#f97ca9;stroke-width:5;stroke-linecap:butt;stroke-linejoin:miter;stroke-miterlimit:10;stroke-dasharray:none;stroke-opacity:1"
             id="path88"
             inkscape:connector-curvature="0" />
        </g>
        <g
           id="g90"
           transform="translate(254.0391,446.5605)">
          <path
             d="m 0,0 v -1.293 c 0,-3.88 0.002,-7.758 0,-11.635 -0.004,-1.762 -0.404,-2.15 -2.207,-2.152 -0.91,-0.004 -1.826,0 -2.988,0 3.672,-4.066 7.132,-7.903 10.627,-11.776 3.548,3.94 6.987,7.756 10.606,11.776 -1.212,0 -2.175,-0.004 -3.136,0 -1.59,0.004 -2.08,0.486 -2.08,2.08 -0.008,3.918 -0.006,7.837 -0.006,11.75 V 0 Z M -2.939,-12.137 V 0.202 c 0,0.411 -0.022,0.825 0.005,1.237 0.082,0.977 0.626,1.545 1.596,1.549 4.522,0.018 9.041,0.026 13.561,-0.004 1.039,-0.005 1.547,-0.658 1.554,-1.808 0.006,-3.992 0.004,-7.985 0.004,-11.979 v -1.328 c 1.761,0 3.408,-0.015 5.055,0.009 0.797,0.011 1.678,-0.046 1.836,-0.915 0.103,-0.588 -0.154,-1.435 -0.557,-1.893 -4.371,-4.929 -8.795,-9.816 -13.213,-14.703 -1.097,-1.213 -1.82,-1.24 -2.896,-0.056 -4.429,4.882 -8.834,9.781 -13.25,14.673 -0.516,0.575 -1.004,1.161 -0.61,2.01 0.389,0.828 1.116,0.891 1.907,0.879 1.617,-0.024 3.232,-0.01 5.008,-0.01"
             style="fill:#4d4d4d;fill-opacity:1;fill-rule:evenodd;stroke:none"
             id="path92"
             inkscape:connector-curvature="0" />
        </g>
        <g
           id="g94"
           transform="translate(254.0391,446.5605)">
          <path
             d="m 0,0 v -1.293 c 0,-3.88 0.002,-7.758 0,-11.635 -0.004,-1.762 -0.404,-2.15 -2.207,-2.152 -0.91,-0.004 -1.826,0 -2.988,0 3.672,-4.066 7.132,-7.903 10.627,-11.776 3.548,3.94 6.987,7.756 10.606,11.776 -1.212,0 -2.175,-0.004 -3.136,0 -1.59,0.004 -2.08,0.486 -2.08,2.08 -0.008,3.918 -0.006,7.837 -0.006,11.75 V 0 Z M -2.939,-12.137 V 0.202 c 0,0.411 -0.022,0.825 0.005,1.237 0.082,0.977 0.626,1.545 1.596,1.549 4.522,0.018 9.041,0.026 13.561,-0.004 1.039,-0.005 1.547,-0.658 1.554,-1.808 0.006,-3.992 0.004,-7.985 0.004,-11.979 v -1.328 c 1.761,0 3.408,-0.015 5.055,0.009 0.797,0.011 1.678,-0.046 1.836,-0.915 0.103,-0.588 -0.154,-1.435 -0.557,-1.893 -4.371,-4.929 -8.795,-9.816 -13.213,-14.703 -1.097,-1.213 -1.82,-1.24 -2.896,-0.056 -4.429,4.882 -8.834,9.781 -13.25,14.673 -0.516,0.575 -1.004,1.161 -0.61,2.01 0.389,0.828 1.116,0.891 1.907,0.879 1.617,-0.024 3.232,-0.01 5.008,-0.01 z"
             style="fill:none;stroke:#4d4d4d;stroke-width:0.5;stroke-linecap:butt;stroke-linejoin:miter;stroke-miterlimit:10;stroke-dasharray:none;stroke-opacity:1"
             id="path96"
             inkscape:connector-curvature="0" />
        </g>
        <g
           id="g98"
           transform="translate(259.4434,409.6035)">
          <path
             d="m 0,0 c -4.332,0 -8.666,-0.002 -13,0.003 -4.234,0.003 -6.926,2.69 -6.93,6.9 0,1.091 -0.012,2.187 0.004,3.279 0.012,0.933 0.48,1.513 1.434,1.527 0.959,0.018 1.455,-0.582 1.5,-1.484 0.051,-1.094 0.012,-2.188 0.017,-3.277 0.006,-2.624 1.403,-4.022 4.064,-4.025 6.556,-0.007 13.11,-0.005 19.666,-0.005 2.112,0 4.222,-0.014 6.329,0.005 2.508,0.024 3.916,1.446 3.936,3.934 0.005,1.051 -0.02,2.106 0.007,3.16 0.034,1.108 0.625,1.761 1.532,1.696 1.031,-0.07 1.413,-0.713 1.4,-1.687 C 19.942,8.932 19.965,7.844 19.957,6.75 19.922,2.672 17.23,0.012 13.113,0.005 8.742,-0.01 4.375,0 0,0"
             style="fill:#4d4d4d;fill-opacity:1;fill-rule:evenodd;stroke:none"
             id="path100"
             inkscape:connector-curvature="0" />
        </g>
        <g
           id="g102"
           transform="translate(259.4434,409.6035)">
          <path
             d="m 0,0 c -4.332,0 -8.666,-0.002 -13,0.003 -4.234,0.003 -6.926,2.69 -6.93,6.9 0,1.091 -0.012,2.187 0.004,3.279 0.012,0.933 0.48,1.513 1.434,1.527 0.959,0.018 1.455,-0.582 1.5,-1.484 0.051,-1.094 0.012,-2.188 0.017,-3.277 0.006,-2.624 1.403,-4.022 4.064,-4.025 6.556,-0.007 13.11,-0.005 19.666,-0.005 2.112,0 4.222,-0.014 6.329,0.005 2.508,0.024 3.916,1.446 3.936,3.934 0.005,1.051 -0.02,2.106 0.007,3.16 0.034,1.108 0.625,1.761 1.532,1.696 1.031,-0.07 1.413,-0.713 1.4,-1.687 C 19.942,8.932 19.965,7.844 19.957,6.75 19.922,2.672 17.23,0.012 13.113,0.005 8.742,-0.01 4.375,0 0,0 Z"
             style="fill:none;stroke:#4d4d4d;stroke-width:0.5;stroke-linecap:butt;stroke-linejoin:miter;stroke-miterlimit:10;stroke-dasharray:none;stroke-opacity:1"
             id="path104"
             inkscape:connector-curvature="0" />
        </g>
      </g>
    </g>
    <text
       y="193.0343"
       x="32.635353"
       style="font-variant:normal;font-weight:bold;font-stretch:normal;font-size:7.2449975px;font-family:Verdana;-inkscape-font-specification:Verdana-Bold;writing-mode:lr-tb;fill:#4d4d4d;fill-opacity:1;fill-rule:nonzero;stroke:none;stroke-width:0.35277775"
       id="text110">
      <tspan
         style="stroke-width:0.35277775"
         x="32.635353 38.648705 43.459373 47.755669 52.015724 56.85537 60.456139 65.520393 70.360054 75.315636 80.560997 83.038795 87.878456 92.174736 94.652519 97.709908 100.18771 104.44776 109.28742 113.54748 116.02528 121.00259 126.16102 128.63881 133.44951 138.60793 141.08572 146.22968 151.38811 156.45236 159.75246 162.23024 167.29448 172.26817 176.56447"
         y="193.0343"
         sodipodi:role="line"
         id="tspan106">Descarga Clasificación en Subtipos</tspan>
      <tspan
         style="stroke-width:0.35277775"
         x="30.128588 36.996841 41.970528 44.448326 49.258995 53.519051 58.677498 61.155281 65.994942 69.595711 74.40638 78.70266 81.180458 86.244713 91.055382 93.53318 98.778557 103.61822 108.77665 113.03671 117.84737 121.44814 123.92594 128.9902 133.80087 136.27866 143.14693 147.98659 155.65178 160.49144 164.42549 169.48973 174.55397 177.61134"
         y="203.32944"
         sodipodi:role="line"
         id="tspan108">Moleculares de Cáncer de Mama(pdf)</tspan>
    </text>
    <g
       transform="matrix(0.35277777,0,0,-0.35277777,14.363934,372.94684)"
       id="g4158">
      <g
         id="g4160" />
      <g
         id="g4172">
        <g
           clip-path="url(#clipPath4164)"
           id="g4170"
           style="opacity:0.80000299">
          <g
             transform="translate(377,573.7607)"
             id="g4168">
            <path
               d="m 0,0 c 0,-12.731 -2.1,-23.761 -5.6,-23.761 h -222.739 c -3.498,0 -6.661,11.03 -6.661,23.761 v 280.313 c 0,12.732 3.163,21.926 6.661,21.926 H -5.6 c 3.5,0 5.6,-9.194 5.6,-21.926 z"
               style="fill:#9f4496;fill-opacity:1;fill-rule:nonzero;stroke:none"
               id="path4166"
               inkscape:connector-curvature="0" />
          </g>
        </g>
      </g>
    </g>
    <g
       id="g4174"
       transform="matrix(0.35277777,0,0,-0.35277777,98.600634,137.03532)">
      <path
         d="m 0,0 c -4.91,0 -8.885,3.979 -8.885,8.886 0,4.907 3.975,8.885 8.885,8.885 4.906,0 8.884,-3.978 8.884,-8.885 C 8.884,3.979 4.906,0 0,0 m -0.381,25.324 c -8.875,0 -16.067,-7.194 -16.067,-16.067 0,-8.875 7.192,-16.068 16.067,-16.068 8.871,0 16.067,7.193 16.067,16.068 0,8.873 -7.196,16.067 -16.067,16.067"
         style="fill:#ffffff;fill-opacity:1;fill-rule:nonzero;stroke:none"
         id="path4176"
         inkscape:connector-curvature="0" />
    </g>
    <g
       id="g4178"
       transform="matrix(0.35277777,0,0,-0.35277777,106.30904,110.81606)">
      <path
         d="m 0,0 c -0.023,-0.021 -0.042,-0.042 -0.064,-0.062 -6.063,2.047 -12.541,3.181 -19.288,3.181 -33.377,0 -60.531,-27.154 -60.531,-60.531 0,-33.377 27.154,-60.531 60.531,-60.531 33.374,0 60.531,27.154 60.531,60.531 0,0.396 -0.017,0.788 -0.027,1.183 l -9.215,4.163 c 0.184,-1.758 0.278,-3.54 0.278,-5.346 0,-28.435 -23.132,-51.568 -51.567,-51.568 -28.437,0 -51.568,23.133 -51.568,51.568 0,28.434 23.131,51.568 51.568,51.568 9.067,0 17.593,-2.361 25.002,-6.488 z"
         style="fill:#ffffff;fill-opacity:1;fill-rule:nonzero;stroke:none"
         id="path4180"
         inkscape:connector-curvature="0" />
    </g>
    <g
       id="g4182"
       transform="matrix(0.35277777,0,0,-0.35277777,113.80077,120.27716)">
      <path
         d="m 0,0 c 1.363,-1.534 2.549,-3.296 4.132,-4.556 3.752,-2.986 7.981,-3.277 12.146,-0.99 4.359,2.391 6.378,6.25 5.89,11.254 -0.474,4.844 -3.921,7.464 -7.604,9.87 L 5.806,14.588 C 2.893,12.746 0.879,10.19 -0.249,6.934 Z m 47.532,7.507 c 1.794,-4.624 5.772,-6.396 10.124,-7.434 1.969,-0.468 4.081,-0.297 4.969,-2.647 -2.104,-5.19 -2.533,-10.476 -1.737,-16.063 0.876,-6.142 1.421,-12.393 0.106,-18.568 -1.435,-6.744 -5.164,-7.868 -10.221,-3.204 -17.277,15.931 -33.648,17.506 -54.081,5.22 -1.286,-0.774 -2.585,-1.577 -3.972,-2.137 -4.852,-1.958 -8.268,0.143 -8.523,5.411 -0.231,4.743 0.945,9.332 2.17,13.883 l 1.38,5.668 c -0.178,1.699 -0.471,3.346 -1.585,4.744 -5.361,6.726 -6.774,14.674 -6.365,22.897 0.368,7.414 -2.781,12.444 -8.557,16.621 -3.054,2.208 -7.124,4.903 -2.15,9.293 l 12.929,2.768 c 4.925,-0.051 8.834,1.719 12.585,5.157 7.018,6.43 15.616,9.853 25.213,9.962 10.453,0.117 19.492,3.285 27.244,10.49 4.802,4.462 9.059,2.832 10.373,-3.641 0.833,-4.102 0.458,-8.282 0.056,-12.405 C 56.717,45.531 58.732,38.598 64.724,33.033 63.085,31.193 60.86,32.13 58.903,31.801 53.94,30.968 46.092,28.203 44.994,19.051 44.115,11.727 47.532,7.507 47.532,7.507 m -31.79,22.152 3.536,3.217 c 1.926,3.158 2.039,6.237 -0.313,9.268 -2.478,3.19 -5.765,2.736 -9.111,2.114 L 5.582,38.467 c 0.087,-6.009 3.67,-8.258 9.134,-8.479"
         style="fill:#ffffff;fill-opacity:1;fill-rule:evenodd;stroke:none"
         id="path4184"
         inkscape:connector-curvature="0" />
    </g>
    <g
       id="g4186"
       transform="matrix(0.35277777,0,0,-0.35277777,103.9588,113.5563)">
      <path
         d="m 0,0 c -0.431,-9.038 -0.433,-17.244 3.919,-25.725 -6.56,1.422 -11.9,2.775 -16.451,6.091 -5.598,4.078 -5.375,9.3 0.36,13.107 0.47,0.31 0.967,0.577 1.464,0.842 C -7.428,-3.938 -4.145,-2.198 0,0"
         style="fill:#ffffff;fill-opacity:1;fill-rule:evenodd;stroke:none"
         id="path4188"
         inkscape:connector-curvature="0" />
    </g>
    <g
       id="g4190"
       transform="matrix(0.35277777,0,0,-0.35277777,118.41372,96.889642)">
      <path
         d="m 0,0 c -7.724,-1.941 -14.201,-5.021 -20.788,-9.39 -0.048,4.924 -0.768,8.922 -1.423,12.938 -0.971,5.961 2.291,8.482 7.985,6.219 C -8.982,7.684 -4.66,4.191 0,0"
         style="fill:#ffffff;fill-opacity:1;fill-rule:evenodd;stroke:none"
         id="path4192"
         inkscape:connector-curvature="0" />
    </g>
    <g
       id="g4194"
       transform="matrix(0.35277777,0,0,-0.35277777,137.05721,124.16617)">
      <path
         d="M 0,0 C 0.03,3.246 6.751,12.02 9.161,11.959 10.79,11.919 17.448,1.61 17.337,-1.086 17.229,-3.656 16.312,-5.972 13.219,-6.163 8.396,-6.462 -0.022,-2.46 0,0"
         style="fill:#ffffff;fill-opacity:1;fill-rule:evenodd;stroke:none"
         id="path4196"
         inkscape:connector-curvature="0" />
    </g>
    <g
       id="g4198"
       transform="matrix(0.35277777,0,0,-0.35277777,142.62863,104.474)">
      <path
         d="m 0,0 c -0.037,-1.94 -7.212,-10.686 -8.85,-10.36 -2.541,0.506 -3.819,2.893 -5.285,4.783 -1.981,2.555 -4.39,5.855 -3.366,8.637 1.064,2.887 5.316,1.955 8.194,2.301 C -3.19,6.098 0.078,4.044 0,0"
         style="fill:#ffffff;fill-opacity:1;fill-rule:evenodd;stroke:none"
         id="path4200"
         inkscape:connector-curvature="0" />
    </g>
    <g
       id="g4202"
       transform="matrix(0.35277777,0,0,-0.35277777,120.21758,132.8509)">
      <path
         d="m 0,0 c 3.644,1.457 7.074,1.173 10.368,0.62 2.313,-0.388 6.012,0.309 6.14,-3.341 0.124,-3.474 -0.078,-7.464 -4.217,-9.089 C 8.803,-13.18 6.497,-11.098 4.782,-8.4 3.085,-5.728 1.635,-2.896 0,0"
         style="fill:#ffffff;fill-opacity:1;fill-rule:evenodd;stroke:none"
         id="path4204"
         inkscape:connector-curvature="0" />
    </g>
    <g
       id="g4206"
       transform="matrix(0.35277777,0,0,-0.35277777,133.33167,116.59591)">
      <path
         d="m 0,0 c 3.232,-3.227 7.004,-4.032 11.204,-2.211 4.332,1.88 5.523,5.535 4.608,9.758 -0.99,4.569 -4.416,5.74 -8.833,6.153 C 1.792,14.185 -1.852,11.325 -2.82,7.574 -3.327,5.618 0,0 0,0"
         style="fill:#ffffff;fill-opacity:1;fill-rule:evenodd;stroke:none"
         id="path4208"
         inkscape:connector-curvature="0" />
    </g>
  </g>
</svg>
