<?xml version="1.0" encoding="UTF-8" standalone="no"?>
<!-- Created with Inkscape (http://www.inkscape.org/) -->

<svg
   xmlns:dc="http://purl.org/dc/elements/1.1/"
   xmlns:cc="http://creativecommons.org/ns#"
   xmlns:rdf="http://www.w3.org/1999/02/22-rdf-syntax-ns#"
   xmlns:svg="http://www.w3.org/2000/svg"
   xmlns="http://www.w3.org/2000/svg"
   xmlns:sodipodi="http://sodipodi.sourceforge.net/DTD/sodipodi-0.dtd"
   xmlns:inkscape="http://www.inkscape.org/namespaces/inkscape"
   width="36.452995mm"
   height="50.955467mm"
   viewBox="0 0 36.452995 50.955467"
   version="1.1"
   id="svg2672"
   inkscape:version="0.92.5 (2060ec1f9f, 2020-04-08)"
   sodipodi:docname="disminucion-plaquetas.svg">
  <defs
     id="defs2666" />
  <sodipodi:namedview
     id="base"
     pagecolor="#ffffff"
     bordercolor="#666666"
     borderopacity="1.0"
     inkscape:pageopacity="0.0"
     inkscape:pageshadow="2"
     inkscape:zoom="0.81210937"
     inkscape:cx="-331.49726"
     inkscape:cy="110.80076"
     inkscape:document-units="mm"
     inkscape:current-layer="layer1"
     showgrid="false"
     fit-margin-top="0"
     fit-margin-left="0"
     fit-margin-right="0"
     fit-margin-bottom="0"
     showborder="false"
     inkscape:window-width="1440"
     inkscape:window-height="788"
     inkscape:window-x="0"
     inkscape:window-y="27"
     inkscape:window-maximized="1" />
  <metadata
     id="metadata2669">
    <rdf:RDF>
      <cc:Work
         rdf:about="">
        <dc:format>image/svg+xml</dc:format>
        <dc:type
           rdf:resource="http://purl.org/dc/dcmitype/StillImage" />
        <dc:title></dc:title>
      </cc:Work>
    </rdf:RDF>
  </metadata>
  <g
     inkscape:label="Capa 1"
     inkscape:groupmode="layer"
     id="layer1"
     transform="translate(-193.54198,-127.1939)">
    <g
       transform="matrix(0.35277777,0,0,-0.35277777,-273.47724,607.94456)"
       id="g2643">
      <path
         d="m 1348.001,1310.5693 c -3.681,-8.707 -7.073,-16.358 -10.163,-24.13 -5.231,-13.159 -10.916,-26.201 -13.608,-40.193 -2.291,-11.914 5.604,-23.961 17.368,-27.016 9.703,-2.519 18.029,0.231 24.608,7.537 6.223,6.91 7.343,15.083 4.794,23.98 -3.768,13.157 -8.79,25.854 -13.853,38.534 -2.725,6.82 -5.788,13.504 -9.146,21.288"
         style="fill:#ffffff;fill-opacity:1;fill-rule:evenodd;stroke:none"
         id="path1744"
         inkscape:connector-curvature="0" />
      <path
         d="m 1348.0371,1293.1709 c -5.844,-14.103 -11.295,-27.3 -15.363,-41.007 -1.045,-3.521 -2.423,-7.079 -2.067,-10.847 0.971,-10.247 10.163,-17.383 20.21,-15.816 9.924,1.548 16.415,10.911 14.039,20.993 -3.728,15.824 -10.331,30.639 -16.819,46.677 m -0.036,17.398 c 3.358,-7.784 6.421,-14.468 9.145,-21.288 5.064,-12.68 10.086,-25.376 13.854,-38.533 2.549,-8.898 1.429,-17.07 -4.794,-23.98 -6.579,-7.307 -14.905,-10.057 -24.608,-7.537 -11.764,3.054 -19.659,15.101 -17.368,27.015 2.692,13.992 8.377,27.034 13.608,40.193 3.09,7.772 6.482,15.424 10.163,24.13"
         style="fill:#5f5e5f;fill-opacity:1;fill-rule:evenodd;stroke:none"
         id="path1748"
         inkscape:connector-curvature="0" />
      <path
         d="m 1348.1289,1279.6104 c -0.982,-1.844 -1.752,-2.989 -2.238,-4.245 -3.633,-9.377 -7.674,-18.605 -10.242,-28.371 -1.411,-5.361 0.148,-10.825 4.63,-13.988 4.569,-3.222 9.488,-3.228 14.426,-0.622 4.044,2.135 6.515,7.135 5.979,12.312 -0.412,3.965 -1.736,7.709 -3.084,11.414 -2.817,7.738 -5.651,15.478 -9.471,23.5 m -0.092,13.561 c 6.488,-16.038 13.091,-30.853 16.82,-46.677 2.376,-10.082 -4.116,-19.446 -14.04,-20.993 -10.046,-1.568 -19.239,5.569 -20.209,15.815 -0.357,3.769 1.021,7.327 2.066,10.847 4.068,13.708 9.519,26.905 15.363,41.008"
         style="fill:#ffffff;fill-opacity:1;fill-rule:evenodd;stroke:none"
         id="path1800"
         inkscape:connector-curvature="0" />
      <path
         d="m 1348.1465,1282.5029 c 4.208,-8.837 7.33,-17.365 10.434,-25.892 1.484,-4.08 2.943,-8.206 3.396,-12.574 0.592,-5.703 -2.131,-11.211 -6.586,-13.563 -5.441,-2.872 -10.861,-2.866 -15.892,0.684 -4.94,3.485 -6.657,9.506 -5.103,15.411 2.831,10.76 7.281,20.927 11.283,31.258 0.536,1.383 1.384,2.645 2.468,4.676"
         style="fill:#cd1419;fill-opacity:1;fill-rule:evenodd;stroke:none"
         id="path1992"
         inkscape:connector-curvature="0" />
      <path
         d="m 1392.5332,1362.7578 c -2.942,-6.961 -5.655,-13.079 -8.126,-19.293 -4.182,-10.52 -8.728,-20.948 -10.879,-32.136 -1.831,-9.525 4.481,-19.156 13.886,-21.599 7.758,-2.014 14.415,0.184 19.675,6.027 4.975,5.524 5.87,12.058 3.833,19.172 -3.013,10.519 -7.029,20.67 -11.077,30.808 -2.178,5.453 -4.626,10.797 -7.312,17.021"
         style="fill:#ffffff;fill-opacity:1;fill-rule:evenodd;stroke:none"
         id="path1996"
         inkscape:connector-curvature="0" />
      <path
         d="m 1392.5625,1348.8477 c -4.673,-11.276 -9.031,-21.827 -12.283,-32.787 -0.836,-2.815 -1.938,-5.66 -1.653,-8.672 0.776,-8.193 8.125,-13.899 16.159,-12.645 7.934,1.236 13.124,8.723 11.224,16.784 -2.98,12.652 -8.26,24.497 -13.447,37.32 m -0.029,13.91 c 2.685,-6.223 5.133,-11.568 7.312,-17.02 4.048,-10.139 8.064,-20.289 11.076,-30.809 2.037,-7.114 1.143,-13.648 -3.833,-19.172 -5.259,-5.843 -11.917,-8.041 -19.674,-6.027 -9.406,2.443 -15.717,12.074 -13.886,21.599 2.151,11.188 6.697,21.616 10.879,32.136 2.47,6.214 5.183,12.332 8.126,19.293"
         style="fill:#5f5e5f;fill-opacity:1;fill-rule:evenodd;stroke:none"
         id="path2000"
         inkscape:connector-curvature="0" />
      <path
         d="m 1392.6367,1338.0054 c -0.787,-1.474 -1.402,-2.39 -1.791,-3.394 -2.904,-7.497 -6.135,-14.876 -8.189,-22.684 -1.127,-4.286 0.12,-8.655 3.704,-11.184 3.651,-2.575 7.585,-2.58 11.533,-0.496 3.233,1.707 5.209,5.703 4.78,9.843 -0.329,3.17 -1.388,6.164 -2.465,9.125 -2.253,6.188 -4.518,12.376 -7.572,18.79 m -0.074,10.842 c 5.187,-12.823 10.467,-24.668 13.447,-37.32 1.899,-8.061 -3.29,-15.547 -11.225,-16.784 -8.033,-1.254 -15.382,4.452 -16.158,12.645 -0.285,3.013 0.817,5.858 1.653,8.673 3.252,10.959 7.61,21.51 12.283,32.786"
         style="fill:#ffffff;fill-opacity:1;fill-rule:evenodd;stroke:none"
         id="path2004"
         inkscape:connector-curvature="0" />
      <path
         d="m 1392.7432,1342.5513 c 3.553,-7.462 6.188,-14.663 8.81,-21.863 1.253,-3.445 2.486,-6.929 2.868,-10.617 0.499,-4.817 -1.8,-9.467 -5.562,-11.454 -4.595,-2.425 -9.17,-2.419 -13.42,0.578 -4.17,2.942 -5.62,8.027 -4.308,13.014 2.39,9.085 6.148,17.671 9.528,26.393 0.452,1.169 1.169,2.234 2.084,3.949"
         style="fill:#cd1419;fill-opacity:1;fill-rule:evenodd;stroke:none"
         id="path2008"
         inkscape:connector-curvature="0" />
      <path
         d="m 1411.9063,1293.4399 c -2.313,-5.473 -4.446,-10.284 -6.389,-15.169 -3.287,-8.272 -6.861,-16.47 -8.553,-25.267 -1.44,-7.489 3.522,-15.062 10.917,-16.982 6.1,-1.584 11.334,0.145 15.47,4.738 3.911,4.344 4.616,9.481 3.014,15.075 -2.369,8.271 -5.526,16.251 -8.709,24.223 -1.713,4.287 -3.639,8.488 -5.75,13.382"
         style="fill:#ffffff;fill-opacity:1;fill-rule:evenodd;stroke:none"
         id="path2012"
         inkscape:connector-curvature="0" />
      <path
         d="m 1411.9287,1282.5029 c -3.673,-8.866 -7.1,-17.162 -9.657,-25.778 -0.656,-2.213 -1.523,-4.451 -1.299,-6.819 0.61,-6.442 6.389,-10.928 12.705,-9.942 6.238,0.972 10.318,6.858 8.824,13.197 -2.344,9.947 -6.493,19.26 -10.573,29.342 m -0.022,10.937 c 2.111,-4.894 4.037,-9.095 5.75,-13.382 3.182,-7.972 6.339,-15.952 8.709,-24.223 1.601,-5.594 0.897,-10.731 -3.014,-15.075 -4.137,-4.593 -9.37,-6.322 -15.471,-4.738 -7.394,1.92 -12.356,9.493 -10.917,16.982 1.693,8.797 5.267,16.995 8.554,25.267 1.942,4.885 4.076,9.696 6.389,15.169"
         style="fill:#5f5e5f;fill-opacity:1;fill-rule:evenodd;stroke:none"
         id="path2016"
         inkscape:connector-curvature="0" />
      <path
         d="m 1411.9883,1273.9785 c -0.619,-1.159 -1.103,-1.879 -1.408,-2.669 -2.284,-5.894 -4.823,-11.696 -6.439,-17.835 -0.885,-3.37 0.094,-6.805 2.911,-8.793 2.873,-2.025 5.964,-2.029 9.069,-0.39 2.543,1.342 4.096,4.484 3.759,7.739 -0.259,2.492 -1.091,4.846 -1.939,7.175 -1.771,4.864 -3.553,9.73 -5.953,14.773 m -0.06,8.524 c 4.081,-10.082 8.23,-19.395 10.574,-29.342 1.494,-6.338 -2.586,-12.224 -8.825,-13.197 -6.316,-0.985 -12.094,3.5 -12.705,9.942 -0.223,2.369 0.643,4.606 1.299,6.819 2.558,8.617 5.985,16.912 9.657,25.778"
         style="fill:#ffffff;fill-opacity:1;fill-rule:evenodd;stroke:none"
         id="path2020"
         inkscape:connector-curvature="0" />
      <path
         d="m 1412.001,1276.6289 c 2.706,-5.685 4.716,-11.17 6.712,-16.655 0.955,-2.625 1.893,-5.279 2.184,-8.089 0.38,-3.669 -1.371,-7.212 -4.237,-8.725 -3.5,-1.847 -6.985,-1.843 -10.222,0.441 -3.178,2.241 -4.283,6.114 -3.283,9.913 1.822,6.921 4.684,13.462 7.259,20.107 0.344,0.89 0.89,1.701 1.587,3.008"
         style="fill:#cd1419;fill-opacity:1;fill-rule:evenodd;stroke:none"
         id="path2024"
         inkscape:connector-curvature="0" />
    </g>
  </g>
</svg>
