<?xml version="1.0" encoding="UTF-8" standalone="no"?>
<!-- Created with Inkscape (http://www.inkscape.org/) -->

<svg
   xmlns:dc="http://purl.org/dc/elements/1.1/"
   xmlns:cc="http://creativecommons.org/ns#"
   xmlns:rdf="http://www.w3.org/1999/02/22-rdf-syntax-ns#"
   xmlns:svg="http://www.w3.org/2000/svg"
   xmlns="http://www.w3.org/2000/svg"
   xmlns:sodipodi="http://sodipodi.sourceforge.net/DTD/sodipodi-0.dtd"
   xmlns:inkscape="http://www.inkscape.org/namespaces/inkscape"
   width="42.545506mm"
   height="41.657112mm"
   viewBox="0 0 42.545506 41.657112"
   version="1.1"
   id="svg2592"
   inkscape:version="0.92.5 (2060ec1f9f, 2020-04-08)"
   sodipodi:docname="disminucion-globulos-rojos.svg">
  <defs
     id="defs2586" />
  <sodipodi:namedview
     id="base"
     pagecolor="#ffffff"
     bordercolor="#666666"
     borderopacity="1.0"
     inkscape:pageopacity="0.0"
     inkscape:pageshadow="2"
     inkscape:zoom="0.81210937"
     inkscape:cx="-5.9867168"
     inkscape:cy="133.86398"
     inkscape:document-units="mm"
     inkscape:current-layer="layer1"
     showgrid="false"
     fit-margin-top="0"
     fit-margin-left="0"
     fit-margin-right="0"
     fit-margin-bottom="0"
     showborder="false"
     inkscape:window-width="1440"
     inkscape:window-height="788"
     inkscape:window-x="0"
     inkscape:window-y="27"
     inkscape:window-maximized="1" />
  <metadata
     id="metadata2589">
    <rdf:RDF>
      <cc:Work
         rdf:about="">
        <dc:format>image/svg+xml</dc:format>
        <dc:type
           rdf:resource="http://purl.org/dc/dcmitype/StillImage" />
        <dc:title></dc:title>
      </cc:Work>
    </rdf:RDF>
  </metadata>
  <g
     inkscape:label="Capa 1"
     inkscape:groupmode="layer"
     id="layer1"
     transform="translate(-107.41732,-142.5944)">
    <g
       transform="matrix(0.35277777,0,0,-0.35277777,-361.99905,756.8404)"
       id="g2569">
      <path
         d="m 1363.3721,1664.7759 c 1.195,-1.681 2.353,-3.389 3.592,-5.037 9.734,-12.947 20.956,-24.508 32.911,-35.4 1.832,-1.669 3.113,-1.667 4.935,-0.01 9.192,8.372 17.996,17.118 25.933,26.696 7.144,8.621 13.889,17.539 17.939,28.125 2.773,7.252 3.908,14.541 0.156,21.933 -7.122,14.037 -27.393,17.031 -39.494,8.714 -2.773,-1.905 -4.738,-4.545 -7.05,-6.874 -10.74,11.49 -24.058,14.701 -35.353,8.621 -4.502,9.669 -8.543,19.557 -13.762,29.624 -2.8,-6.002 -5.462,-11.438 -7.895,-16.975 -5.321,-12.107 -10.947,-24.101 -14.14,-37.026 -0.686,-2.782 -0.709,-5.512 0.066,-8.268 3.818,-13.604 18.407,-20.015 32.162,-14.125"
         style="fill:#ffffff;fill-opacity:1;fill-rule:evenodd;stroke:none"
         id="path2028"
         inkscape:connector-curvature="0" />
      <path
         d="m 1366.9424,1711.5454 c 11.294,6.081 24.611,2.87 35.352,-8.62 2.312,2.328 4.277,4.968 7.049,6.874 12.102,8.317 32.372,5.322 39.495,-8.714 3.751,-7.393 2.617,-14.682 -0.157,-21.933 -4.05,-10.587 -10.795,-19.504 -17.938,-28.126 -7.938,-9.578 -16.741,-18.323 -25.933,-26.695 -1.822,-1.66 -3.103,-1.661 -4.935,0.01 -11.955,10.891 -23.177,22.453 -32.912,35.4 -1.239,1.648 -2.396,3.356 -3.592,5.035 2.019,0.721 3.234,2.775 5.394,3.27 8.744,-13.203 19.677,-24.471 31.027,-35.402 2.161,-2.081 3.41,-1.695 5.233,0.163 6.597,6.722 13.542,13.116 19.563,20.38 7.933,9.567 15.63,19.292 19.559,31.381 2.216,6.82 1.222,12.792 -4.002,17.952 -10.724,10.593 -30.225,6.122 -34.233,-6.966 -0.524,-1.711 -1.645,-2.96 -3.554,-2.967 -1.893,-0.01 -2.966,1.217 -3.636,2.888 -0.693,1.726 -1.361,3.457 -2.551,4.944 -6.37,7.947 -17.181,10.23 -26.958,5.66 -1.062,1.696 -2.687,3.158 -2.271,5.468"
         style="fill:#cd1419;fill-opacity:1;fill-rule:evenodd;stroke:none"
         id="path2032"
         inkscape:connector-curvature="0" />
      <path
         d="m 1353.2246,1729.6328 c -0.311,-0.574 -0.467,-0.83 -0.592,-1.101 -6.08,-13.239 -12.127,-26.482 -16.367,-40.477 -2.769,-9.139 2.704,-16.587 9.722,-19.257 7.12,-2.708 13.872,-1.797 19.749,3.245 5.57,4.779 6.228,10.834 4.13,17.505 -2.827,8.986 -6.419,17.673 -10.236,26.27 -1.987,4.478 -3.679,9.103 -6.406,13.815 m 15.541,-61.588 c -2.16,-0.495 -3.375,-2.55 -5.395,-3.27 -13.753,-5.889 -28.342,0.522 -32.161,14.126 -0.774,2.756 -0.752,5.486 -0.065,8.268 3.192,12.925 8.818,24.919 14.14,37.026 2.432,5.537 5.094,10.973 7.894,16.975 5.22,-10.067 9.261,-19.955 13.764,-29.624 -0.416,-2.31 1.209,-3.773 2.271,-5.47 1.575,-4.573 3.079,-9.172 4.743,-13.713 3.381,-9.221 2.13,-17.405 -5.191,-24.318"
         style="fill:#5f5e5f;fill-opacity:1;fill-rule:evenodd;stroke:none"
         id="path2036"
         inkscape:connector-curvature="0" />
      <path
         d="m 1368.7656,1668.0444 c 7.321,6.913 8.572,15.097 5.191,24.318 -1.664,4.541 -3.168,9.14 -4.743,13.714 9.777,4.571 20.588,2.288 26.957,-5.659 1.191,-1.487 1.859,-3.218 2.552,-4.944 0.67,-1.671 1.743,-2.897 3.636,-2.888 1.909,0.01 3.03,1.256 3.553,2.967 4.008,13.088 23.509,17.559 34.234,6.966 5.224,-5.16 6.218,-11.132 4.002,-17.953 -3.929,-12.088 -11.626,-21.813 -19.559,-31.38 -6.021,-7.264 -12.967,-13.658 -19.563,-20.38 -1.823,-1.858 -3.072,-2.244 -5.234,-0.163 -11.349,10.931 -22.282,22.199 -31.026,35.402"
         style="fill:#ffffff;fill-opacity:1;fill-rule:evenodd;stroke:none"
         id="path2040"
         inkscape:connector-curvature="0" />
      <path
         d="m 1353.6143,1682.1787 c -3.519,0 -7.036,0.012 -10.555,0 -3.224,-0.014 -3.607,-0.597 -2.341,-3.651 1.992,-4.797 5.898,-6.996 10.785,-7.758 6.041,-0.941 12.591,2.807 14.51,8.217 0.736,2.071 0.588,3.35 -2.157,3.229 -3.407,-0.15 -6.828,-0.035 -10.242,-0.033 m -0.39,47.454 c 2.727,-4.712 4.419,-9.337 6.407,-13.815 3.816,-8.597 7.409,-17.284 10.235,-26.27 2.099,-6.671 1.44,-12.725 -4.13,-17.505 -5.877,-5.042 -12.629,-5.953 -19.749,-3.245 -7.018,2.67 -12.49,10.118 -9.722,19.257 4.241,13.996 10.287,27.238 16.368,40.478 0.125,0.27 0.281,0.526 0.591,1.1"
         style="fill:#ffffff;fill-opacity:1;fill-rule:evenodd;stroke:none"
         id="path2044"
         inkscape:connector-curvature="0" />
      <path
         d="m 1353.6143,1682.1777 c 3.414,-10e-4 6.835,-0.116 10.242,0.034 2.745,0.121 2.893,-1.158 2.157,-3.229 -1.919,-5.41 -8.469,-9.158 -14.51,-8.217 -4.887,0.762 -8.793,2.961 -10.785,7.758 -1.266,3.054 -0.883,3.637 2.341,3.651 3.519,0.016 7.036,0 10.555,0"
         style="fill:#cd1419;fill-opacity:1;fill-rule:evenodd;stroke:none"
         id="path2048"
         inkscape:connector-curvature="0" />
    </g>
  </g>
</svg>
