<?xml version="1.0" encoding="UTF-8" standalone="no"?>
<!-- Created with Inkscape (http://www.inkscape.org/) -->

<svg
   xmlns:dc="http://purl.org/dc/elements/1.1/"
   xmlns:cc="http://creativecommons.org/ns#"
   xmlns:rdf="http://www.w3.org/1999/02/22-rdf-syntax-ns#"
   xmlns:svg="http://www.w3.org/2000/svg"
   xmlns="http://www.w3.org/2000/svg"
   xmlns:sodipodi="http://sodipodi.sourceforge.net/DTD/sodipodi-0.dtd"
   xmlns:inkscape="http://www.inkscape.org/namespaces/inkscape"
   width="44.034412mm"
   height="40.850182mm"
   viewBox="0 0 44.034412 40.850182"
   version="1.1"
   id="svg2860"
   inkscape:version="0.92.5 (2060ec1f9f, 2020-04-08)"
   sodipodi:docname="disminucion-globulos-blancos.svg">
  <defs
     id="defs2854" />
  <sodipodi:namedview
     id="base"
     pagecolor="#ffffff"
     bordercolor="#666666"
     borderopacity="1.0"
     inkscape:pageopacity="0.0"
     inkscape:pageshadow="2"
     inkscape:zoom="0.81210937"
     inkscape:cx="-62.278376"
     inkscape:cy="265.32611"
     inkscape:document-units="mm"
     inkscape:current-layer="layer1"
     showgrid="false"
     fit-margin-top="0"
     fit-margin-left="0"
     fit-margin-right="0"
     fit-margin-bottom="0"
     showborder="false"
     inkscape:window-width="1440"
     inkscape:window-height="788"
     inkscape:window-x="0"
     inkscape:window-y="27"
     inkscape:window-maximized="1" />
  <metadata
     id="metadata2857">
    <rdf:RDF>
      <cc:Work
         rdf:about="">
        <dc:format>image/svg+xml</dc:format>
        <dc:type
           rdf:resource="http://purl.org/dc/dcmitype/StillImage" />
        <dc:title></dc:title>
      </cc:Work>
    </rdf:RDF>
  </metadata>
  <g
     inkscape:label="Capa 1"
     inkscape:groupmode="layer"
     id="layer1"
     transform="translate(-122.31115,-178.18402)">
    <g
       transform="matrix(0.35277777,0,0,-0.35277777,-536.21718,792.05938)"
       id="g2760">
      <path
         d="m 1923.457,1740.0093 c -17.014,0 -34.027,0 -51.041,0 -1.069,0 -2.147,-0.01 -3.205,-0.125 -1.717,-0.192 -2.539,-1.414 -2.516,-2.948 0.022,-1.396 0.94,-2.513 2.41,-2.692 1.645,-0.2 3.323,-0.188 4.987,-0.189 29.381,-0.01 58.763,0 88.144,-0.01 3.947,-10e-4 3.744,0.069 2.278,-3.441 -4.91,-11.739 -4.811,-23.614 -0.217,-35.396 1.545,-3.96 1.824,-3.826 -2.567,-3.823 -29.02,0.01 -58.042,0.011 -87.062,0.01 -1.782,0 -3.577,0.064 -5.34,-0.131 -1.58,-0.176 -2.605,-1.169 -2.6,-2.874 0.01,-1.7 0.977,-2.667 2.62,-2.808 1.892,-0.162 3.798,-0.229 5.699,-0.23 32.803,-0.013 65.605,0.074 98.408,-0.075 6.703,-0.032 11.023,2.861 13.788,8.674 5.288,11.122 5.528,22.675 1.496,33.99 -3.233,9.077 -6.373,12.432 -17.478,12.163 -15.926,-0.384 -31.868,-0.097 -47.804,-0.091"
         style="fill:#ffffff;fill-opacity:1;fill-rule:evenodd;stroke:none"
         id="path1844"
         inkscape:connector-curvature="0" />
      <path
         d="m 1923.2314,1624.3647 c 17.122,0 34.245,0.062 51.366,-0.041 4.866,-0.029 8.377,1.898 11.086,5.85 7.428,10.832 7.476,32.036 0.104,42.846 -2.782,4.078 -6.402,5.964 -11.401,5.95 -33.904,-0.088 -67.81,-0.034 -101.715,-0.078 -2.351,0 -5.826,0.775 -5.888,-2.813 -0.067,-3.859 3.488,-3.089 5.985,-3.091 29.962,-0.032 59.923,-0.046 89.885,0.017 2.65,0.01 3.559,0 2.149,-3.124 -5.36,-11.865 -5.138,-23.969 -0.355,-35.972 1.484,-3.722 1.724,-3.634 -2.355,-3.634 -29.733,0 -59.466,-10e-4 -89.2,-0.011 -1.305,-10e-4 -2.619,-0.022 -3.913,-0.17 -1.601,-0.184 -2.185,-1.451 -2.241,-2.799 -0.061,-1.437 0.789,-2.507 2.256,-2.772 1.042,-0.187 2.131,-0.149 3.199,-0.149 17.012,-0.01 34.025,-0.01 51.038,-0.01"
         style="fill:#ffffff;fill-opacity:1;fill-rule:evenodd;stroke:none"
         id="path1848"
         inkscape:connector-curvature="0" />
      <path
         d="m 1913.1074,1724.1421 c -0.081,2.929 -1.41,4.407 -4.172,4.495 -4.132,0.132 -9.38,-4.081 -10.131,-8.141 -0.485,-2.631 1.035,-4.808 3.598,-5.149 4.535,-0.605 10.63,4.529 10.705,8.795"
         style="fill:#ffffff;fill-opacity:1;fill-rule:evenodd;stroke:none"
         id="path1852"
         inkscape:connector-curvature="0" />
      <path
         d="m 1985.2871,1712.5669 c -0.037,6.24 -0.809,12.298 -4.233,17.736 -3.08,4.893 -6.73,4.924 -9.801,0.11 -2.083,-3.264 -3.341,-6.83 -3.78,-10.626 -1.025,-8.836 -1.068,-17.585 4.207,-25.357 2.815,-4.146 6.243,-4.02 9,0.158 3.601,5.457 4.626,11.592 4.607,17.979 m -61.83,27.439 c 15.935,0 31.878,-0.29 47.804,0.095 11.105,0.268 14.245,-3.086 17.478,-12.164 4.032,-11.314 3.792,-22.868 -1.496,-33.989 -2.765,-5.814 -7.085,-8.706 -13.788,-8.675 -32.803,0.149 -65.606,0.063 -98.408,0.075 -1.901,10e-4 -3.807,0.069 -5.699,0.23 -1.643,0.141 -2.613,1.108 -2.62,2.809 -0.01,1.704 1.02,2.698 2.6,2.873 1.763,0.196 3.558,0.132 5.34,0.132 29.02,0 58.042,10e-4 87.062,-0.01 4.391,0 4.112,-0.136 2.567,3.824 -4.594,11.782 -4.693,23.656 0.217,35.395 1.466,3.51 1.669,3.441 -2.278,3.441 -29.381,0 -58.763,-10e-4 -88.144,0.01 -1.664,10e-4 -3.342,-0.011 -4.987,0.19 -1.47,0.178 -2.388,1.295 -2.41,2.691 -0.023,1.534 0.799,2.756 2.516,2.948 1.058,0.12 2.136,0.125 3.205,0.125 17.014,0.01 34.027,0.01 51.041,0"
         style="fill:#5f5e5f;fill-opacity:1;fill-rule:evenodd;stroke:none"
         id="path1856"
         inkscape:connector-curvature="0" />
      <path
         d="m 1985.2666,1651.1372 c 0.129,6.393 -0.815,12.553 -4.209,18.106 -3.036,4.966 -6.997,5.135 -9.719,0.024 -6.295,-11.821 -6.268,-23.854 0.2,-35.626 2.486,-4.524 6.306,-4.403 9.132,-0.139 3.55,5.359 4.556,11.371 4.596,17.635 m -62.035,-26.771 c -17.013,0 -34.027,0 -51.038,0.01 -1.069,0 -2.157,-0.038 -3.199,0.149 -1.467,0.264 -2.317,1.335 -2.256,2.772 0.056,1.348 0.64,2.614 2.241,2.799 1.294,0.147 2.608,0.168 3.913,0.169 29.733,0.01 59.467,0.01 89.2,0.012 4.079,0 3.839,-0.088 2.355,3.633 -4.784,12.003 -5.005,24.108 0.355,35.972 1.41,3.125 0.501,3.13 -2.149,3.125 -29.962,-0.064 -59.923,-0.05 -89.885,-0.017 -2.497,0 -6.052,-0.768 -5.985,3.09 0.062,3.588 3.537,2.811 5.888,2.814 33.905,0.044 67.811,-0.01 101.715,0.078 4.999,0.014 8.619,-1.872 11.401,-5.951 7.372,-10.81 7.324,-32.013 -0.104,-42.846 -2.709,-3.951 -6.22,-5.879 -11.086,-5.849 -17.121,0.103 -34.244,0.041 -51.366,0.042"
         style="fill:#5f5e5f;fill-opacity:1;fill-rule:evenodd;stroke:none"
         id="path1860"
         inkscape:connector-curvature="0" />
      <path
         d="m 1985.2871,1712.5669 c 0.019,-6.387 -1.006,-12.522 -4.607,-17.979 -2.757,-4.178 -6.185,-4.304 -9,-0.158 -5.275,7.772 -5.232,16.521 -4.207,25.357 0.439,3.796 1.697,7.362 3.78,10.626 3.071,4.814 6.721,4.783 9.801,-0.11 3.424,-5.438 4.196,-11.496 4.233,-17.736"
         style="fill:#ffffff;fill-opacity:1;fill-rule:evenodd;stroke:none"
         id="path1864"
         inkscape:connector-curvature="0" />
      <path
         d="m 1985.2676,1651.1401 c -0.041,-6.267 -1.047,-12.279 -4.597,-17.638 -2.826,-4.264 -6.646,-4.385 -9.132,0.139 -6.468,11.772 -6.495,23.805 -0.2,35.626 2.722,5.111 6.683,4.942 9.719,-0.023 3.394,-5.554 4.338,-11.714 4.21,-18.104"
         style="fill:#ffffff;fill-opacity:1;fill-rule:evenodd;stroke:none"
         id="path1868"
         inkscape:connector-curvature="0" />
      <path
         d="m 1902.5723,1719.5073 c 3.474,-0.558 4.922,1.651 6.381,3.777 0.215,0.314 0.287,0.981 0.098,1.266 -0.391,0.585 -1.037,0.317 -1.587,0.098 -2.277,-0.908 -4.054,-2.307 -4.892,-5.141 m 10.535,4.635 c -0.075,-4.266 -6.17,-9.401 -10.705,-8.795 -2.562,0.341 -4.083,2.518 -3.598,5.149 0.751,4.059 5.999,8.273 10.131,8.141 2.762,-0.088 4.091,-1.566 4.172,-4.495"
         style="fill:#ffffff;fill-opacity:1;fill-rule:evenodd;stroke:none"
         id="path1872"
         inkscape:connector-curvature="0" />
      <path
         d="m 1902.5723,1719.5073 c 0.838,2.834 2.615,4.233 4.892,5.141 0.55,0.219 1.196,0.487 1.587,-0.098 0.189,-0.285 0.117,-0.952 -0.098,-1.266 -1.459,-2.126 -2.907,-4.335 -6.381,-3.777"
         style="fill:#cd1419;fill-opacity:1;fill-rule:evenodd;stroke:none"
         id="path1876"
         inkscape:connector-curvature="0" />
      <path
         d="m 1915.2744,1696.5522 c 2.753,2.189 2.099,4.749 1.512,7.259 -0.087,0.371 -0.531,0.874 -0.869,0.926 -0.696,0.106 -0.933,-0.552 -1.142,-1.106 -0.865,-2.293 -1.029,-4.549 0.499,-7.079 m 3.679,10.906 c 3.099,-2.931 2.784,-10.894 -0.721,-13.837 -1.979,-1.663 -4.612,-1.317 -6.229,0.816 -2.492,3.29 -2.066,10.008 0.817,12.97 1.927,1.98 3.914,1.966 6.133,0.051"
         style="fill:#ffffff;fill-opacity:1;fill-rule:evenodd;stroke:none"
         id="path1880"
         inkscape:connector-curvature="0" />
      <path
         d="m 1915.2744,1696.5522 c -1.528,2.53 -1.364,4.786 -0.499,7.079 0.209,0.554 0.446,1.212 1.142,1.106 0.338,-0.052 0.782,-0.555 0.869,-0.926 0.587,-2.51 1.241,-5.07 -1.512,-7.259"
         style="fill:#cd1419;fill-opacity:1;fill-rule:evenodd;stroke:none"
         id="path1884"
         inkscape:connector-curvature="0" />
      <path
         d="m 1886.2217,1701.3882 c 1.172,2.686 0.597,4.589 -1.866,5.842 -3.684,1.875 -10.225,0.292 -12.629,-3.064 -1.559,-2.175 -1.108,-4.792 1.066,-6.19 3.85,-2.476 11.548,-0.417 13.429,3.412"
         style="fill:#ffffff;fill-opacity:1;fill-rule:evenodd;stroke:none"
         id="path1888"
         inkscape:connector-curvature="0" />
      <path
         d="m 1874.7148,1701.6704 c 2.908,-1.981 5.158,-0.598 7.381,0.707 0.329,0.192 0.679,0.766 0.628,1.104 -0.105,0.695 -0.804,0.728 -1.396,0.763 -2.445,0.147 -4.649,-0.365 -6.613,-2.574 m 11.507,-0.282 c -1.881,-3.829 -9.579,-5.888 -13.429,-3.412 -2.174,1.398 -2.625,4.014 -1.066,6.19 2.404,3.356 8.945,4.939 12.629,3.064 2.463,-1.253 3.038,-3.157 1.866,-5.842"
         style="fill:#ffffff;fill-opacity:1;fill-rule:evenodd;stroke:none"
         id="path1892"
         inkscape:connector-curvature="0" />
      <path
         d="m 1874.7148,1701.6704 c 1.964,2.209 4.168,2.721 6.613,2.574 0.592,-0.035 1.291,-0.068 1.396,-0.763 0.051,-0.338 -0.299,-0.912 -0.628,-1.104 -2.223,-1.305 -4.473,-2.688 -7.381,-0.707"
         style="fill:#cd1419;fill-opacity:1;fill-rule:evenodd;stroke:none"
         id="path1896"
         inkscape:connector-curvature="0" />
      <path
         d="m 1942.917,1709.1509 c 0.084,3.518 -2.302,4.655 -4.604,5.812 -0.34,0.171 -1.012,0.153 -1.268,-0.073 -0.527,-0.467 -0.174,-1.071 0.117,-1.587 1.207,-2.132 2.833,-3.704 5.755,-4.152 m -6.017,9.813 c 4.237,0.501 10.149,-4.842 10.163,-9.418 0.01,-2.586 -1.944,-4.386 -4.618,-4.26 -4.123,0.194 -9.007,4.826 -9.434,8.937 -0.286,2.747 0.999,4.265 3.889,4.741"
         style="fill:#ffffff;fill-opacity:1;fill-rule:evenodd;stroke:none"
         id="path1900"
         inkscape:connector-curvature="0" />
      <path
         d="m 1942.917,1709.1509 c -2.922,0.448 -4.548,2.02 -5.755,4.152 -0.291,0.516 -0.644,1.12 -0.117,1.587 0.256,0.226 0.928,0.244 1.268,0.073 2.302,-1.157 4.688,-2.294 4.604,-5.812"
         style="fill:#cd1419;fill-opacity:1;fill-rule:evenodd;stroke:none"
         id="path1904"
         inkscape:connector-curvature="0" />
      <path
         d="m 1910.041,1665.1831 c -0.08,2.929 -1.41,4.406 -4.172,4.495 -4.131,0.132 -9.38,-4.082 -10.13,-8.141 -0.486,-2.631 1.034,-4.809 3.597,-5.15 4.535,-0.605 10.63,4.53 10.705,8.796"
         style="fill:#ffffff;fill-opacity:1;fill-rule:evenodd;stroke:none"
         id="path1908"
         inkscape:connector-curvature="0" />
      <path
         d="m 1899.5059,1660.5479 c 3.474,-0.558 4.923,1.652 6.381,3.777 0.215,0.314 0.288,0.981 0.098,1.265 -0.391,0.586 -1.037,0.318 -1.586,0.099 -2.278,-0.907 -4.055,-2.307 -4.893,-5.141 m 10.535,4.635 c -0.075,-4.265 -6.17,-9.401 -10.705,-8.796 -2.562,0.342 -4.083,2.519 -3.597,5.15 0.75,4.059 5.999,8.273 10.13,8.141 2.762,-0.088 4.092,-1.566 4.172,-4.495"
         style="fill:#ffffff;fill-opacity:1;fill-rule:evenodd;stroke:none"
         id="path1912"
         inkscape:connector-curvature="0" />
      <path
         d="m 1899.5059,1660.5479 c 0.838,2.834 2.615,4.234 4.893,5.141 0.549,0.219 1.195,0.487 1.586,-0.099 0.19,-0.284 0.117,-0.951 -0.098,-1.265 -1.458,-2.125 -2.907,-4.335 -6.381,-3.777"
         style="fill:#cd1419;fill-opacity:1;fill-rule:evenodd;stroke:none"
         id="path1916"
         inkscape:connector-curvature="0" />
      <path
         d="m 1915.2109,1638.4619 c 0.443,3.491 -1.812,4.866 -3.984,6.253 -0.322,0.205 -0.991,0.256 -1.269,0.057 -0.572,-0.41 -0.283,-1.046 -0.046,-1.589 0.982,-2.246 2.439,-3.976 5.299,-4.721 m -4.979,10.377 c 4.266,0.066 9.598,-5.856 9.143,-10.41 -0.257,-2.573 -2.383,-4.163 -5.029,-3.764 -4.081,0.616 -8.465,5.724 -8.469,9.857 0,2.763 1.431,4.14 4.355,4.317"
         style="fill:#ffffff;fill-opacity:1;fill-rule:evenodd;stroke:none"
         id="path1920"
         inkscape:connector-curvature="0" />
      <path
         d="m 1915.2109,1638.4619 c -2.86,0.745 -4.317,2.475 -5.299,4.721 -0.237,0.543 -0.526,1.179 0.046,1.589 0.278,0.199 0.947,0.148 1.269,-0.057 2.172,-1.387 4.427,-2.762 3.984,-6.253"
         style="fill:#cd1419;fill-opacity:1;fill-rule:evenodd;stroke:none"
         id="path1924"
         inkscape:connector-curvature="0" />
      <path
         d="m 1942.9365,1663.8052 c 2.714,-2.239 5.081,-1.067 7.415,0.027 0.345,0.162 0.745,0.7 0.726,1.042 -0.04,0.702 -0.734,0.798 -1.32,0.888 -2.422,0.37 -4.663,0.063 -6.821,-1.957 m 11.433,-1.336 c -2.225,-3.641 -10.08,-4.984 -13.686,-2.165 -2.037,1.591 -2.246,4.238 -0.494,6.261 2.701,3.121 9.361,4.097 12.857,1.893 2.336,-1.475 2.735,-3.422 1.323,-5.989"
         style="fill:#ffffff;fill-opacity:1;fill-rule:evenodd;stroke:none"
         id="path1928"
         inkscape:connector-curvature="0" />
      <path
         d="m 1942.9365,1663.8052 c 2.158,2.02 4.399,2.327 6.821,1.957 0.586,-0.09 1.28,-0.186 1.32,-0.888 0.019,-0.342 -0.381,-0.88 -0.726,-1.042 -2.334,-1.094 -4.701,-2.266 -7.415,-0.027"
         style="fill:#cd1419;fill-opacity:1;fill-rule:evenodd;stroke:none"
         id="path1932"
         inkscape:connector-curvature="0" />
      <path
         d="m 1883.1553,1642.4292 c 1.173,2.686 0.597,4.588 -1.865,5.842 -3.684,1.875 -10.226,0.291 -12.63,-3.064 -1.559,-2.175 -1.108,-4.792 1.066,-6.19 3.85,-2.476 11.549,-0.417 13.429,3.412"
         style="fill:#ffffff;fill-opacity:1;fill-rule:evenodd;stroke:none"
         id="path1936"
         inkscape:connector-curvature="0" />
      <path
         d="m 1871.6484,1642.7104 c 2.908,-1.981 5.158,-0.597 7.381,0.707 0.33,0.193 0.68,0.766 0.628,1.105 -0.105,0.695 -0.804,0.727 -1.396,0.763 -2.445,0.146 -4.648,-0.365 -6.613,-2.575 m 11.507,-0.281 c -1.88,-3.829 -9.579,-5.888 -13.429,-3.412 -2.174,1.398 -2.625,4.014 -1.066,6.19 2.404,3.355 8.946,4.939 12.63,3.064 2.462,-1.254 3.038,-3.157 1.865,-5.842"
         style="fill:#ffffff;fill-opacity:1;fill-rule:evenodd;stroke:none"
         id="path1940"
         inkscape:connector-curvature="0" />
      <path
         d="m 1871.6484,1642.7104 c 1.965,2.21 4.168,2.721 6.613,2.575 0.592,-0.036 1.291,-0.068 1.396,-0.763 0.052,-0.339 -0.298,-0.912 -0.628,-1.105 -2.223,-1.304 -4.473,-2.688 -7.381,-0.707"
         style="fill:#cd1419;fill-opacity:1;fill-rule:evenodd;stroke:none"
         id="path1944"
         inkscape:connector-curvature="0" />
      <path
         d="m 1939.8506,1650.1919 c 0.084,3.518 -2.302,4.654 -4.604,5.812 -0.34,0.171 -1.012,0.153 -1.268,-0.074 -0.527,-0.466 -0.175,-1.07 0.117,-1.586 1.207,-2.132 2.833,-3.704 5.755,-4.152 m -6.017,9.812 c 4.238,0.502 10.149,-4.842 10.163,-9.418 0.01,-2.585 -1.944,-4.386 -4.617,-4.26 -4.124,0.195 -9.008,4.826 -9.435,8.937 -0.286,2.748 0.999,4.265 3.889,4.741"
         style="fill:#ffffff;fill-opacity:1;fill-rule:evenodd;stroke:none"
         id="path1948"
         inkscape:connector-curvature="0" />
      <path
         d="m 1939.8506,1650.1919 c -2.922,0.448 -4.548,2.02 -5.755,4.152 -0.292,0.516 -0.644,1.12 -0.117,1.586 0.256,0.227 0.928,0.245 1.268,0.074 2.302,-1.158 4.688,-2.294 4.604,-5.812"
         style="fill:#cd1419;fill-opacity:1;fill-rule:evenodd;stroke:none"
         id="path1952"
         inkscape:connector-curvature="0" />
      <path
         d="m 1887.9141,1665.1831 c -0.08,2.929 -1.41,4.406 -4.171,4.495 -4.132,0.132 -9.38,-4.082 -10.13,-8.141 -0.486,-2.631 1.033,-4.809 3.596,-5.15 4.537,-0.605 10.631,4.53 10.705,8.796"
         style="fill:#ffffff;fill-opacity:1;fill-rule:evenodd;stroke:none"
         id="path1956"
         inkscape:connector-curvature="0" />
      <path
         d="m 1877.3789,1660.5479 c 3.475,-0.558 4.924,1.652 6.381,3.777 0.217,0.314 0.289,0.981 0.099,1.265 -0.39,0.586 -1.037,0.318 -1.587,0.099 -2.277,-0.907 -4.053,-2.307 -4.893,-5.141 m 10.535,4.635 c -0.074,-4.265 -6.168,-9.401 -10.705,-8.796 -2.562,0.342 -4.082,2.519 -3.596,5.15 0.75,4.059 5.998,8.273 10.13,8.141 2.761,-0.088 4.091,-1.566 4.171,-4.495"
         style="fill:#ffffff;fill-opacity:1;fill-rule:evenodd;stroke:none"
         id="path1960"
         inkscape:connector-curvature="0" />
      <path
         d="m 1877.3789,1660.5479 c 0.84,2.834 2.616,4.234 4.893,5.141 0.55,0.219 1.197,0.487 1.587,-0.099 0.19,-0.284 0.118,-0.951 -0.099,-1.265 -1.457,-2.125 -2.906,-4.335 -6.381,-3.777"
         style="fill:#cd1419;fill-opacity:1;fill-rule:evenodd;stroke:none"
         id="path1964"
         inkscape:connector-curvature="0" />
      <path
         d="m 1895.1953,1637.5923 c 2.754,2.19 2.1,4.75 1.512,7.259 -0.086,0.371 -0.53,0.875 -0.868,0.927 -0.697,0.106 -0.933,-0.552 -1.143,-1.107 -0.864,-2.293 -1.028,-4.549 0.499,-7.079 m 3.68,10.906 c 3.099,-2.93 2.784,-10.894 -0.721,-13.836 -1.98,-1.663 -4.612,-1.318 -6.229,0.815 -2.492,3.29 -2.066,10.008 0.817,12.97 1.927,1.98 3.914,1.966 6.133,0.051"
         style="fill:#ffffff;fill-opacity:1;fill-rule:evenodd;stroke:none"
         id="path1968"
         inkscape:connector-curvature="0" />
      <path
         d="m 1895.1953,1637.5923 c -1.527,2.53 -1.363,4.786 -0.499,7.079 0.21,0.555 0.446,1.213 1.143,1.107 0.338,-0.052 0.782,-0.556 0.868,-0.927 0.588,-2.509 1.242,-5.069 -1.512,-7.259"
         style="fill:#cd1419;fill-opacity:1;fill-rule:evenodd;stroke:none"
         id="path1972"
         inkscape:connector-curvature="0" />
      <path
         d="m 1932.6846,1636.7983 c 2.907,-1.981 5.158,-0.597 7.381,0.707 0.329,0.193 0.679,0.766 0.628,1.105 -0.106,0.695 -0.804,0.727 -1.396,0.763 -2.446,0.146 -4.649,-0.365 -6.613,-2.575 m 11.507,-0.281 c -1.881,-3.829 -9.58,-5.888 -13.429,-3.412 -2.175,1.398 -2.625,4.014 -1.067,6.19 2.404,3.355 8.947,4.939 12.631,3.064 2.461,-1.254 3.037,-3.157 1.865,-5.842"
         style="fill:#ffffff;fill-opacity:1;fill-rule:evenodd;stroke:none"
         id="path1976"
         inkscape:connector-curvature="0" />
      <path
         d="m 1932.6846,1636.7983 c 1.964,2.21 4.167,2.721 6.613,2.575 0.592,-0.036 1.29,-0.068 1.396,-0.763 0.051,-0.339 -0.299,-0.912 -0.628,-1.105 -2.223,-1.304 -4.474,-2.688 -7.381,-0.707"
         style="fill:#cd1419;fill-opacity:1;fill-rule:evenodd;stroke:none"
         id="path1980"
         inkscape:connector-curvature="0" />
      <path
         d="m 1923.9844,1653.3521 c 0.084,3.518 -2.302,4.654 -4.604,5.812 -0.34,0.171 -1.011,0.153 -1.268,-0.074 -0.526,-0.466 -0.174,-1.07 0.117,-1.586 1.207,-2.132 2.833,-3.704 5.755,-4.152 m -6.016,9.812 c 4.237,0.502 10.149,-4.842 10.162,-9.418 0.01,-2.585 -1.944,-4.385 -4.617,-4.259 -4.123,0.194 -9.008,4.825 -9.435,8.936 -0.285,2.748 0.998,4.265 3.89,4.741"
         style="fill:#ffffff;fill-opacity:1;fill-rule:evenodd;stroke:none"
         id="path1984"
         inkscape:connector-curvature="0" />
      <path
         d="m 1923.9844,1653.3521 c -2.922,0.448 -4.548,2.02 -5.755,4.152 -0.291,0.516 -0.643,1.12 -0.117,1.586 0.257,0.227 0.928,0.245 1.268,0.074 2.302,-1.158 4.688,-2.294 4.604,-5.812"
         style="fill:#cd1419;fill-opacity:1;fill-rule:evenodd;stroke:none"
         id="path1988"
         inkscape:connector-curvature="0" />
    </g>
  </g>
</svg>
