<?xml version="1.0" encoding="UTF-8" standalone="no"?>
<!-- Created with Inkscape (http://www.inkscape.org/) -->

<svg
   xmlns:dc="http://purl.org/dc/elements/1.1/"
   xmlns:cc="http://creativecommons.org/ns#"
   xmlns:rdf="http://www.w3.org/1999/02/22-rdf-syntax-ns#"
   xmlns:svg="http://www.w3.org/2000/svg"
   xmlns="http://www.w3.org/2000/svg"
   xmlns:sodipodi="http://sodipodi.sourceforge.net/DTD/sodipodi-0.dtd"
   xmlns:inkscape="http://www.inkscape.org/namespaces/inkscape"
   width="43.596825mm"
   height="34.298164mm"
   viewBox="0 0 43.596825 34.298164"
   version="1.1"
   id="svg22"
   inkscape:version="0.92.5 (2060ec1f9f, 2020-04-08)"
   sodipodi:docname="enlace.svg">
  <defs
     id="defs16" />
  <sodipodi:namedview
     id="base"
     pagecolor="#ffffff"
     bordercolor="#666666"
     borderopacity="1.0"
     inkscape:pageopacity="0.0"
     inkscape:pageshadow="2"
     inkscape:zoom="0.88730469"
     inkscape:cx="156.11913"
     inkscape:cy="115.40807"
     inkscape:document-units="mm"
     inkscape:current-layer="layer1"
     showgrid="false"
     fit-margin-top="0"
     fit-margin-left="0"
     fit-margin-right="0"
     fit-margin-bottom="0"
     inkscape:window-width="1440"
     inkscape:window-height="825"
     inkscape:window-x="0"
     inkscape:window-y="0"
     inkscape:window-maximized="1" />
  <metadata
     id="metadata19">
    <rdf:RDF>
      <cc:Work
         rdf:about="">
        <dc:format>image/svg+xml</dc:format>
        <dc:type
           rdf:resource="http://purl.org/dc/dcmitype/StillImage" />
        <dc:title></dc:title>
      </cc:Work>
    </rdf:RDF>
  </metadata>
  <g
     inkscape:label="Capa 1"
     inkscape:groupmode="layer"
     id="layer1"
     transform="translate(-59.308528,-145.07022)">
    <g
       transform="matrix(3.9631809,0,0,3.9631809,-82.384978,-36.408784)"
       id="g14"
       style="stroke:none;stroke-width:0.25232258">
      <path
         style="fill-opacity:1;fill-rule:nonzero;stroke:none;stroke-width:0.01286347"
         d="m 286.70312,548.29688 c -8.44231,0 -16.63292,1.65328 -24.3457,4.91601 -7.44819,3.15006 -14.13794,7.65892 -19.88086,13.40234 -5.74291,5.74241 -10.25228,12.4307 -13.40234,19.87891 -3.26222,7.71278 -4.91602,15.90388 -4.91602,24.3457 0,8.4418 1.6538,16.63292 4.91602,24.34571 3.15006,7.44771 7.65943,14.13549 13.40234,19.8789 5.74292,5.74239 12.43267,10.25227 19.88086,13.40235 7.71278,3.2622 15.90339,4.91601 24.3457,4.91601 8.44129,0 16.63293,-1.65381 24.34571,-4.91601 7.44768,-3.15008 14.1355,-7.65996 19.8789,-13.40235 2.75872,-2.7592 5.22482,-5.74128 7.40039,-8.91601 l 10.53126,28.35351 10.73828,-13.74609 16.7539,17.17187 6.29102,-6.13867 6.29101,-6.13672 -16.75195,-17.17382 14.00586,-10.39649 -38.09961,-15.23633 c 0.76367,-3.92769 1.1582,-7.93622 1.1582,-12.00586 0,-8.44182 -1.6543,-16.63292 -4.91601,-24.3457 -3.15058,-7.44821 -7.65994,-14.1365 -13.40235,-19.87891 -5.7434,-5.74342 -12.43122,-10.25228 -19.8789,-13.40234 -7.71278,-3.26273 -15.90442,-4.91601 -24.34571,-4.91601 z m -11.95312,7.5625 c -2.39608,2.12485 -5.04706,4.73463 -7.70312,7.83984 -4.93641,5.77145 -8.87238,12.07205 -11.69922,18.72851 -0.81516,1.92043 -1.53395,3.87209 -2.16407,5.84961 h -18.03711 c 2.77689,-6.34038 6.73983,-12.17196 11.78125,-17.21289 7.74746,-7.74744 17.35961,-12.95226 27.82227,-15.20507 z m 25.01953,0.25195 c 10.02983,2.37517 19.2354,7.48149 26.70703,14.95312 5.04142,5.04093 9.00386,10.87251 11.78125,17.21289 h -17.20508 c -0.62956,-1.97752 -1.34842,-3.92918 -2.16406,-5.84961 -2.82686,-6.65646 -6.76137,-12.95706 -11.69726,-18.72851 -2.55258,-2.98438 -5.10125,-5.50994 -7.42188,-7.58789 z m -9.91992,0.0801 c 2.94715,2.1167 7.75015,5.97556 12.55859,11.59765 4.51736,5.28205 8.11198,11.03603 10.6875,17.09961 0.47454,1.11803 0.91108,2.24825 1.31641,3.38867 h -24.5625 z m -6.29492,0.61718 v 31.46875 h -23.73047 c 0.38945,-1.09661 0.80786,-2.18411 1.26172,-3.25976 2.55054,-6.04473 6.11557,-11.78283 10.5957,-17.05469 4.40876,-5.18824 8.85808,-8.90964 11.87305,-11.1543 z m -50.72461,37.76172 h 18.68359 c -0.99715,4.66623 -1.5039,9.45749 -1.5039,14.33985 0,5.18876 0.56719,10.34117 1.69335,15.41015 h -19.63085 c -1.06755,-4.35931 -1.61915,-8.87697 -1.61915,-13.48047 0,-5.59203 0.81191,-11.06087 2.37696,-16.26953 z m 25.13672,0 h 25.58789 v 29.75 h -25.38672 c -1.23831,-5.06284 -1.86524,-10.21784 -1.86524,-15.41015 0,-4.89664 0.5613,-9.69097 1.66407,-14.33985 z m 31.88281,0 h 26.42187 c 1.10216,4.64888 1.66211,9.44269 1.66211,14.33985 0,5.19231 -0.62497,10.34731 -1.86328,15.41015 h -26.2207 z m 32.87305,0 h 17.85156 c 1.5651,5.20866 2.37695,10.6775 2.37695,16.26953 0,3.2599 -0.28173,6.47493 -0.82226,9.62305 l -15.66993,-6.26562 3.75977,10.12304 h -7.68359 c 1.12566,-5.06898 1.6914,-10.22139 1.6914,-15.41015 0,-4.88236 -0.50616,-9.67362 -1.5039,-14.33985 z m -88.70704,36.04492 h 19.39063 c 0.56995,1.79096 1.20719,3.56967 1.91992,5.33204 2.80951,6.94961 6.72071,13.6748 11.625,19.99023 3.2036,4.12426 6.3985,7.51966 9.13867,10.1543 -10.98162,-2.08558 -21.08532,-7.40121 -29.16211,-15.47852 -5.77195,-5.77146 -10.13063,-12.57737 -12.91211,-19.99805 z m 26.02344,0 h 23.51563 v 33.77149 c -2.99356,-2.59743 -7.3108,-6.74862 -11.63086,-12.31055 -4.54844,-5.8566 -8.1699,-12.07703 -10.76172,-18.48828 -0.39919,-0.98591 -0.77284,-1.97697 -1.12305,-2.97266 z m 29.81055,0 h 24.3457 c -0.33598,0.95686 -0.69345,1.90825 -1.07422,2.85547 -2.57143,6.39238 -6.16479,12.59658 -10.68164,18.44141 -4.76103,6.16096 -9.56722,10.6307 -12.58984,13.17969 z m 30.98242,0 h 11.72461 l 3.01563,8.11719 c -2.45824,4.29351 -5.50264,8.28811 -9.09571,11.88086 -7.81882,7.8188 -17.53558,13.0489 -28.10937,15.26758 2.68971,-2.60358 5.80002,-5.92918 8.91797,-9.94336 4.90428,-6.31543 8.81548,-13.04062 11.625,-19.99023 0.71269,-1.76237 1.35138,-3.54108 1.92187,-5.33204 z"
         transform="matrix(0.06676035,0,0,0.06676035,20.78759,9.186758)"
         id="path114"
         inkscape:connector-curvature="0" />
    </g>
  </g>
</svg>
