<?xml version="1.0" encoding="UTF-8" standalone="no"?>
<!-- Created with Inkscape (http://www.inkscape.org/) -->

<svg
   xmlns:dc="http://purl.org/dc/elements/1.1/"
   xmlns:cc="http://creativecommons.org/ns#"
   xmlns:rdf="http://www.w3.org/1999/02/22-rdf-syntax-ns#"
   xmlns:svg="http://www.w3.org/2000/svg"
   xmlns="http://www.w3.org/2000/svg"
   xmlns:sodipodi="http://sodipodi.sourceforge.net/DTD/sodipodi-0.dtd"
   xmlns:inkscape="http://www.inkscape.org/namespaces/inkscape"
   width="46.659798mm"
   height="46.659798mm"
   viewBox="0 0 46.659798 46.659798"
   version="1.1"
   id="svg3558"
   inkscape:version="0.92.5 (2060ec1f9f, 2020-04-08)"
   sodipodi:docname="evitar-aglomeramiento.svg">
  <defs
     id="defs3552" />
  <sodipodi:namedview
     id="base"
     pagecolor="#ffffff"
     bordercolor="#666666"
     borderopacity="1.0"
     inkscape:pageopacity="0.0"
     inkscape:pageshadow="2"
     inkscape:zoom="0.81210937"
     inkscape:cx="-49.928852"
     inkscape:cy="111.30252"
     inkscape:document-units="mm"
     inkscape:current-layer="layer1"
     showgrid="false"
     fit-margin-top="0"
     fit-margin-left="0"
     fit-margin-right="0"
     fit-margin-bottom="0"
     showborder="false"
     inkscape:window-width="1440"
     inkscape:window-height="788"
     inkscape:window-x="0"
     inkscape:window-y="27"
     inkscape:window-maximized="1" />
  <metadata
     id="metadata3555">
    <rdf:RDF>
      <cc:Work
         rdf:about="">
        <dc:format>image/svg+xml</dc:format>
        <dc:type
           rdf:resource="http://purl.org/dc/dcmitype/StillImage" />
        <dc:title></dc:title>
      </cc:Work>
    </rdf:RDF>
  </metadata>
  <g
     inkscape:label="Capa 1"
     inkscape:groupmode="layer"
     id="layer1"
     transform="translate(-119.04368,-131.62233)">
    <g
       transform="matrix(0.35277777,0,0,-0.35277777,-138.15051,297.60984)"
       id="g3529">
      <path
         inkscape:connector-curvature="0"
         id="path2306"
         style="fill:#045e73;fill-opacity:1;fill-rule:nonzero;stroke:none"
         d="m 859.8184,402.8848 c 0,-34.867 -28.266,-63.133 -63.133,-63.133 -34.865,0 -63.131,28.266 -63.131,63.133 0,34.865 28.266,63.131 63.131,63.131 34.867,0 63.133,-28.266 63.133,-63.131" />
      <path
         inkscape:connector-curvature="0"
         id="path2310"
         style="fill:#045e73;fill-opacity:1;fill-rule:nonzero;stroke:none"
         d="m 816.3535,405.793 c -1.232,0 -2.029,1.035 -2.314,1.475 v 1.179 c 0.732,-0.22 1.509,-0.341 2.314,-0.341 0.805,0 1.58,0.121 2.314,0.341 v -1.177 c -0.289,-0.446 -1.084,-1.477 -2.314,-1.477 m -5.783,10.412 v 1.156 h 5.304 c 1.008,0 1.969,0.289 2.793,0.83 0.823,-0.541 1.786,-0.83 2.791,-0.83 h 0.679 v -1.156 c 0,-3.189 -2.595,-5.785 -5.784,-5.785 -3.189,0 -5.783,2.596 -5.783,5.785 m 5.783,9.254 c 3.189,0 5.784,-2.594 5.784,-5.783 h -0.679 c -0.734,0 -1.455,0.299 -1.972,0.816 l -0.819,0.819 -0.818,-0.819 c -0.519,-0.517 -1.24,-0.816 -1.975,-0.816 h -5.304 c 0,3.189 2.594,5.783 5.783,5.783 m -8.098,-31.334 c -1.023,0.775 -2.295,1.256 -3.67,1.256 h -1.4 l -1.423,2.846 -1.089,-0.727 c -2.082,-1.387 -4.502,-2.119 -7.002,-2.119 h -4.884 c -1.375,0 -2.647,-0.481 -3.67,-1.256 v 1.713 c 0,6.125 4.986,11.111 11.113,11.111 2.969,0 5.76,-1.154 7.859,-3.254 l 1.227,-1.228 0.26,-0.086 c 1.601,-0.535 2.679,-2.027 2.679,-3.717 z m 8.098,3.57 c 3.189,0 5.784,-2.595 5.784,-5.785 h -5.305 c -0.736,0 -1.456,0.299 -1.975,0.819 l -0.818,0.818 -0.818,-0.818 c -0.518,-0.52 -1.239,-0.819 -1.975,-0.819 h -0.676 c 0,3.19 2.594,5.785 5.783,5.785 m 0,-15.041 c -3.189,0 -5.783,2.596 -5.783,5.785 v 1.159 h 0.676 c 1.009,0 1.97,0.287 2.793,0.828 0.822,-0.541 1.785,-0.828 2.793,-0.828 h 5.305 v -1.159 c 0,-3.189 -2.595,-5.785 -5.784,-5.785 m 2.314,-3.15 c -0.289,-0.445 -1.084,-1.477 -2.314,-1.477 -1.232,0 -2.029,1.037 -2.314,1.477 v 1.18 c 0.732,-0.221 1.509,-0.342 2.314,-0.342 0.805,0 1.58,0.121 2.314,0.342 z m 9.094,-3.908 c 1.481,-0.444 2.475,-1.78 2.475,-3.324 v -8.127 h -4.627 v 8.099 h -2.315 v -8.099 h -4.627 c -1.914,0 -3.472,-1.557 -3.472,-3.471 v -2.313 h -5.783 v 9.254 h -2.315 v -9.254 h -5.906 l -1.014,9.129 0.686,2.057 2.42,-1.453 1.363,6.82 6.066,-1.398 c 2.639,-0.612 4.483,-2.928 4.483,-5.637 v -1.42 h 2.314 v 1.42 c 0,3.791 -2.581,7.037 -6.275,7.891 l -3.229,0.744 4.389,1.316 c 0.672,-0.875 1.975,-2.115 3.959,-2.115 1.984,0 3.285,1.24 3.961,2.115 z m -53.056,-11.451 h -4.627 v 8.099 h -2.315 v -8.099 h -4.627 v 8.127 c 0,1.544 0.994,2.88 2.473,3.324 l 7.451,2.234 c 0.672,-0.875 1.975,-2.115 3.959,-2.115 1.984,0 3.286,1.24 3.959,2.115 l 4.389,-1.316 -3.229,-0.744 c -3.695,-0.854 -6.275,-4.1 -6.275,-7.891 v -1.42 h 2.312 v 1.42 c 0,2.709 1.846,5.025 4.485,5.637 l 6.064,1.398 1.363,-6.82 2.422,1.453 0.684,-2.057 -1.014,-9.129 h -5.904 v 9.254 h -2.315 v -9.254 h -5.785 v 2.313 c 0,1.914 -1.556,3.471 -3.47,3.471 m 2.314,16.197 c 0.803,0 1.58,0.121 2.314,0.342 v -1.18 c -0.287,-0.445 -1.084,-1.477 -2.314,-1.477 -1.23,0 -2.027,1.034 -2.314,1.477 v 1.178 c 0.734,-0.219 1.509,-0.34 2.314,-0.34 m -5.785,8.097 v 1.159 h 5.306 c 1.008,0 1.969,0.287 2.793,0.828 0.823,-0.541 1.784,-0.828 2.791,-0.828 h 0.679 v -1.159 c 0,-3.189 -2.595,-5.785 -5.784,-5.785 -3.189,0 -5.785,2.596 -5.785,5.785 m 5.785,9.256 c 3.189,0 5.784,-2.595 5.784,-5.785 h -0.679 c -0.734,0 -1.455,0.299 -1.974,0.819 l -0.817,0.818 -0.818,-0.818 c -0.519,-0.52 -1.24,-0.819 -1.975,-0.819 h -5.306 c 0,3.19 2.596,5.785 5.785,5.785 m 11.074,-13.83 c 0.596,-1.498 1.571,-2.802 2.809,-3.795 v -2.281 l -1.094,-0.25 c -0.234,0.106 -0.471,0.199 -0.715,0.272 l -7.447,2.234 v 1.758 c 1.301,0.908 2.318,2.187 2.906,3.685 0.958,-0.939 2.207,-1.507 3.541,-1.623 m -0.613,2.461 c -0.552,0.19 -1.061,0.496 -1.461,0.936 -0.666,0.732 -0.978,1.685 -0.885,2.679 0.125,1.309 1.051,2.405 2.296,2.877 v -5.535 c 0,-0.322 0.019,-0.642 0.05,-0.957 m 16.146,0.957 c 0,-3.828 -3.113,-6.941 -6.941,-6.941 -3.828,0 -6.941,3.113 -6.941,6.941 v 5.783 h 3.927 c 2.522,0 4.975,0.629 7.168,1.832 l 0.916,-1.832 h 1.871 z m 3.727,-0.021 c -0.402,-0.44 -0.91,-0.746 -1.463,-0.936 0.033,0.315 0.051,0.635 0.051,0.957 v 5.535 c 1.244,-0.472 2.172,-1.568 2.297,-2.877 0.095,-0.994 -0.219,-1.945 -0.885,-2.679 m -8.596,-13.756 2.821,2.117 0.814,-0.189 -0.734,-3.668 z m -0.591,-4.734 h -2.961 l -0.664,1.994 2.144,1.285 2.145,-1.285 z m -2.758,-2.313 h 2.556 l 0.901,-8.098 h -4.358 z m -3.614,9.164 2.821,-2.117 -2.901,-1.74 -0.734,3.668 z m 4.891,2.404 c 1.229,0 2.398,0.246 3.471,0.682 v -1.26 l -3.471,-2.603 -3.469,2.603 v 1.26 c 1.071,-0.436 2.242,-0.682 3.469,-0.682 m 12.133,7.461 c 0.59,-1.498 1.607,-2.777 2.908,-3.685 v -1.758 l -7.445,-2.234 c -0.246,-0.073 -0.485,-0.166 -0.717,-0.272 l -1.095,0.25 v 2.281 c 1.238,0.993 2.212,2.297 2.81,3.795 1.334,0.116 2.582,0.684 3.539,1.623 m -31.799,20.305 c -1.23,0 -2.027,1.033 -2.314,1.475 v 1.179 c 0.734,-0.22 1.509,-0.341 2.314,-0.341 0.803,0 1.58,0.121 2.314,0.341 v -1.177 c -0.287,-0.446 -1.084,-1.477 -2.314,-1.477 m -5.785,10.412 v 1.156 h 0.678 c 1.007,0 1.97,0.289 2.793,0.83 0.822,-0.541 1.785,-0.83 2.793,-0.83 h 5.305 v -1.156 c 0,-3.189 -2.595,-5.785 -5.784,-5.785 -3.189,0 -5.785,2.596 -5.785,5.785 m 5.785,9.254 c 3.189,0 5.784,-2.594 5.784,-5.783 h -5.305 c -0.735,0 -1.456,0.299 -1.975,0.816 l -0.818,0.819 -0.818,-0.819 c -0.518,-0.517 -1.239,-0.816 -1.975,-0.816 h -0.678 c 0,3.189 2.596,5.783 5.785,5.783 m 55.529,-34.705 v 9.281 c 0,2.574 -1.656,4.803 -4.121,5.541 l -7.447,2.235 v 1.757 c 2.096,1.465 3.471,3.891 3.471,6.635 v 3.473 c 0,4.465 -3.633,8.097 -8.098,8.097 -4.466,0 -8.098,-3.632 -8.098,-8.097 v -3.471 c 0,-2.746 1.375,-5.172 3.471,-6.637 v -1.757 l -6.562,-1.969 c -2.465,2.203 -5.602,3.422 -8.934,3.422 -3.318,0 -6.354,-1.215 -8.699,-3.219 l -5.885,1.766 v 1.757 c 2.096,1.465 3.471,3.891 3.471,6.635 v 3.473 c 0,4.465 -3.633,8.097 -8.098,8.097 -4.466,0 -8.098,-3.632 -8.098,-8.097 v -3.471 c 0,-2.746 1.375,-5.172 3.471,-6.637 v -1.757 l -7.447,-2.235 c -2.465,-0.738 -4.123,-2.967 -4.123,-5.541 v -9.281 h 2.314 v 9.281 c 0,1.545 0.994,2.881 2.473,3.324 l 7.451,2.237 c 0.672,-0.875 1.975,-2.117 3.959,-2.117 1.984,0 3.286,1.242 3.959,2.117 l 4.744,-1.424 c -1.506,-1.895 -2.508,-4.199 -2.812,-6.721 -1.477,1.571 -3.569,2.557 -5.891,2.557 -4.466,0 -8.098,-3.633 -8.098,-8.098 v -3.471 c 0,-2.746 1.375,-5.171 3.471,-6.634 v -1.758 l -7.447,-2.234 c -2.465,-0.741 -4.123,-2.969 -4.123,-5.541 v -10.44 h 13.883 c 0.638,0 1.158,-0.519 1.158,-1.158 v -4.627 h 41.646 v 4.627 c 0,0.639 0.52,1.158 1.158,1.158 h 13.881 v 10.44 c 0,2.572 -1.656,4.8 -4.121,5.539 l -7.447,2.234 v 1.758 c 2.096,1.465 3.471,3.89 3.471,6.636 v 3.469 c 0,4.467 -3.633,8.1 -8.098,8.1 -2.266,0 -4.312,-0.938 -5.783,-2.442 v 1.096 c 0,2.285 -1.242,4.342 -3.18,5.43 l 5.004,1.502 c 0.672,-0.873 1.975,-2.115 3.959,-2.115 1.984,0 3.285,1.242 3.961,2.117 l 7.448,-2.237 c 1.48,-0.443 2.474,-1.779 2.474,-3.324 v -9.281 z" />
      <path
         inkscape:connector-curvature="0"
         id="path2314"
         style="fill:none;stroke:#045e73;stroke-width:3;stroke-linecap:butt;stroke-linejoin:miter;stroke-miterlimit:10;stroke-dasharray:none;stroke-opacity:1"
         d="m 859.8184,402.8848 c 0,-34.867 -28.266,-63.133 -63.133,-63.133 -34.865,0 -63.131,28.266 -63.131,63.133 0,34.865 28.266,63.131 63.131,63.131 34.867,0 63.133,-28.266 63.133,-63.131 z" />
      <path
         inkscape:connector-curvature="0"
         id="path2318"
         style="fill:#045e73;fill-opacity:1;fill-rule:nonzero;stroke:none"
         d="m 795.6875,428.6055 c -6.244,0 -11.326,5.082 -11.326,11.328 0,6.246 5.082,11.326 11.326,11.326 6.246,0 11.328,-5.08 11.328,-11.326 0,-6.246 -5.082,-11.328 -11.328,-11.328 m -12.129,17.994 c -1.092,-1.978 -1.715,-4.25 -1.715,-6.666 0,-2.93 0.916,-5.65 2.477,-7.892 l 0.814,-0.969 c 0.69,-0.821 1.436,-1.602 2.294,-2.242 2.757,-2.057 6.3,-3.112 10.087,-2.623 6.227,0.8 11.219,5.88 11.926,12.117 0.946,8.351 -5.59,15.453 -13.754,15.453 -1.408,0 -2.766,-0.211 -4.049,-0.604 l -0.015,-0.007 c -3.334,-1.249 -6.166,-3.555 -8.065,-6.567" />
      <path
         inkscape:connector-curvature="0"
         id="path2322"
         style="fill:#045e73;fill-opacity:1;fill-rule:nonzero;stroke:none"
         d="m 801.918,439.0547 -7.109,7.109 c 1.922,0.27 3.91,-0.361 5.329,-1.781 1.421,-1.42 2.05,-3.408 1.78,-5.328 m 0,7.107 c -2.633,2.633 -6.658,3.327 -10.02,1.727 -0.369,-0.178 -0.63,-0.523 -0.699,-0.928 -0.068,-0.404 0.065,-0.816 0.357,-1.103 0.01,-0.012 0.022,-0.024 0.032,-0.033 l 9.978,-9.977 c 0.012,-0.014 0.026,-0.027 0.038,-0.041 0.24,-0.244 0.566,-0.381 0.902,-0.381 0.068,0 0.137,0.006 0.205,0.018 0.406,0.066 0.754,0.328 0.932,0.699 1.601,3.361 0.908,7.389 -1.725,10.019" />
      <path
         inkscape:connector-curvature="0"
         id="path2326"
         style="fill:#045e73;fill-opacity:1;fill-rule:nonzero;stroke:none"
         d="m 791.2383,435.4824 c -1.426,1.426 -2.055,3.422 -1.777,5.352 l 7.127,-7.129 c -1.928,-0.278 -3.924,0.353 -5.35,1.777 m 8.549,-1.414 -9.979,9.977 c -0.013,0.013 -0.027,0.027 -0.041,0.042 -0.287,0.29 -0.699,0.418 -1.101,0.35 -0.404,-0.068 -0.746,-0.328 -0.922,-0.695 -1.613,-3.365 -0.924,-7.399 1.715,-10.039 1.687,-1.688 3.947,-2.578 6.236,-2.578 1.291,0 2.59,0.283 3.803,0.865 0.371,0.178 0.633,0.525 0.697,0.931 0.065,0.409 -0.072,0.821 -0.367,1.108 -0.014,0.014 -0.027,0.025 -0.041,0.039" />
      <path
         d="m 856.8184,405.8848 c 0,-34.867 -28.266,-63.133 -63.133,-63.133 -34.865,0 -63.131,28.266 -63.131,63.133 0,34.865 28.266,63.131 63.131,63.131 34.867,0 63.133,-28.266 63.133,-63.131"
         style="fill:#ffffff;fill-opacity:1;fill-rule:nonzero;stroke:none"
         id="path2336"
         inkscape:connector-curvature="0" />
      <path
         d="m 813.3535,408.793 c -1.232,0 -2.029,1.035 -2.314,1.475 v 1.179 c 0.732,-0.22 1.509,-0.341 2.314,-0.341 0.805,0 1.58,0.121 2.314,0.341 v -1.177 c -0.289,-0.446 -1.084,-1.477 -2.314,-1.477 m -5.783,10.412 v 1.156 h 5.304 c 1.008,0 1.969,0.289 2.793,0.83 0.823,-0.541 1.786,-0.83 2.791,-0.83 h 0.679 v -1.156 c 0,-3.189 -2.595,-5.785 -5.784,-5.785 -3.189,0 -5.783,2.596 -5.783,5.785 m 5.783,9.254 c 3.189,0 5.784,-2.594 5.784,-5.783 h -0.679 c -0.734,0 -1.455,0.299 -1.972,0.816 l -0.819,0.819 -0.818,-0.819 c -0.519,-0.517 -1.24,-0.816 -1.975,-0.816 h -5.304 c 0,3.189 2.594,5.783 5.783,5.783 m -8.098,-31.334 c -1.023,0.775 -2.295,1.256 -3.67,1.256 h -1.4 l -1.423,2.846 -1.089,-0.727 c -2.082,-1.387 -4.502,-2.119 -7.002,-2.119 h -4.884 c -1.375,0 -2.647,-0.481 -3.67,-1.256 v 1.713 c 0,6.125 4.986,11.111 11.113,11.111 2.969,0 5.76,-1.154 7.859,-3.254 l 1.227,-1.228 0.26,-0.086 c 1.601,-0.535 2.679,-2.027 2.679,-3.717 z m 8.098,3.57 c 3.189,0 5.784,-2.595 5.784,-5.785 h -5.305 c -0.736,0 -1.456,0.299 -1.975,0.819 l -0.818,0.818 -0.818,-0.818 c -0.518,-0.52 -1.239,-0.819 -1.975,-0.819 h -0.676 c 0,3.19 2.594,5.785 5.783,5.785 m 0,-15.041 c -3.189,0 -5.783,2.596 -5.783,5.785 v 1.159 h 0.676 c 1.009,0 1.97,0.287 2.793,0.828 0.822,-0.541 1.785,-0.828 2.793,-0.828 h 5.305 v -1.159 c 0,-3.189 -2.595,-5.785 -5.784,-5.785 m 2.314,-3.15 c -0.289,-0.445 -1.084,-1.477 -2.314,-1.477 -1.232,0 -2.029,1.037 -2.314,1.477 v 1.18 c 0.732,-0.221 1.509,-0.342 2.314,-0.342 0.805,0 1.58,0.121 2.314,0.342 z m 9.094,-3.908 c 1.481,-0.444 2.475,-1.78 2.475,-3.324 v -8.127 h -4.627 v 8.099 h -2.315 v -8.099 h -4.627 c -1.914,0 -3.472,-1.557 -3.472,-3.471 v -2.313 h -5.783 v 9.254 h -2.315 v -9.254 h -5.906 l -1.014,9.129 0.686,2.057 2.42,-1.453 1.363,6.82 6.066,-1.398 c 2.639,-0.612 4.483,-2.928 4.483,-5.637 v -1.42 h 2.314 v 1.42 c 0,3.791 -2.581,7.037 -6.275,7.891 l -3.229,0.744 4.389,1.316 c 0.672,-0.875 1.975,-2.115 3.959,-2.115 1.984,0 3.285,1.24 3.961,2.115 z m -53.056,-11.451 h -4.627 v 8.099 h -2.315 v -8.099 h -4.627 v 8.127 c 0,1.544 0.994,2.88 2.473,3.324 l 7.451,2.234 c 0.672,-0.875 1.975,-2.115 3.959,-2.115 1.984,0 3.286,1.24 3.959,2.115 l 4.389,-1.316 -3.229,-0.744 c -3.695,-0.854 -6.275,-4.1 -6.275,-7.891 v -1.42 h 2.312 v 1.42 c 0,2.709 1.846,5.025 4.485,5.637 l 6.064,1.398 1.363,-6.82 2.422,1.453 0.684,-2.057 -1.014,-9.129 h -5.904 v 9.254 h -2.315 v -9.254 h -5.785 v 2.313 c 0,1.914 -1.556,3.471 -3.47,3.471 m 2.314,16.197 c 0.803,0 1.58,0.121 2.314,0.342 v -1.18 c -0.287,-0.445 -1.084,-1.477 -2.314,-1.477 -1.23,0 -2.027,1.034 -2.314,1.477 v 1.178 c 0.734,-0.219 1.509,-0.34 2.314,-0.34 m -5.785,8.097 v 1.159 h 5.306 c 1.008,0 1.969,0.287 2.793,0.828 0.823,-0.541 1.784,-0.828 2.791,-0.828 h 0.679 v -1.159 c 0,-3.189 -2.595,-5.785 -5.784,-5.785 -3.189,0 -5.785,2.596 -5.785,5.785 m 5.785,9.256 c 3.189,0 5.784,-2.595 5.784,-5.785 h -0.679 c -0.734,0 -1.455,0.299 -1.974,0.819 l -0.817,0.818 -0.818,-0.818 c -0.519,-0.52 -1.24,-0.819 -1.975,-0.819 h -5.306 c 0,3.19 2.596,5.785 5.785,5.785 m 11.074,-13.83 c 0.596,-1.498 1.571,-2.802 2.809,-3.795 v -2.281 l -1.094,-0.25 c -0.234,0.106 -0.471,0.199 -0.715,0.272 l -7.447,2.234 v 1.758 c 1.301,0.908 2.318,2.187 2.906,3.685 0.958,-0.939 2.207,-1.507 3.541,-1.623 m -0.613,2.461 c -0.552,0.19 -1.061,0.496 -1.461,0.936 -0.666,0.732 -0.978,1.685 -0.885,2.679 0.125,1.309 1.051,2.405 2.296,2.877 v -5.535 c 0,-0.322 0.019,-0.642 0.05,-0.957 m 16.146,0.957 c 0,-3.828 -3.113,-6.941 -6.941,-6.941 -3.828,0 -6.941,3.113 -6.941,6.941 v 5.783 h 3.927 c 2.522,0 4.975,0.629 7.168,1.832 l 0.916,-1.832 h 1.871 z m 3.727,-0.021 c -0.402,-0.44 -0.91,-0.746 -1.463,-0.936 0.033,0.315 0.051,0.635 0.051,0.957 v 5.535 c 1.244,-0.472 2.172,-1.568 2.297,-2.877 0.095,-0.994 -0.219,-1.945 -0.885,-2.679 m -8.596,-13.756 2.821,2.117 0.814,-0.189 -0.734,-3.668 z m -0.591,-4.734 h -2.961 l -0.664,1.994 2.144,1.285 2.145,-1.285 z m -2.758,-2.313 h 2.556 l 0.901,-8.098 h -4.358 z m -3.614,9.164 2.821,-2.117 -2.901,-1.74 -0.734,3.668 z m 4.891,2.404 c 1.229,0 2.398,0.246 3.471,0.682 v -1.26 l -3.471,-2.603 -3.469,2.603 v 1.26 c 1.071,-0.436 2.242,-0.682 3.469,-0.682 m 12.133,7.461 c 0.59,-1.498 1.607,-2.777 2.908,-3.685 v -1.758 l -7.445,-2.234 c -0.246,-0.073 -0.485,-0.166 -0.717,-0.272 l -1.095,0.25 v 2.281 c 1.238,0.993 2.212,2.297 2.81,3.795 1.334,0.116 2.582,0.684 3.539,1.623 m -31.799,20.305 c -1.23,0 -2.027,1.033 -2.314,1.475 v 1.179 c 0.734,-0.22 1.509,-0.341 2.314,-0.341 0.803,0 1.58,0.121 2.314,0.341 v -1.177 c -0.287,-0.446 -1.084,-1.477 -2.314,-1.477 m -5.785,10.412 v 1.156 h 0.678 c 1.007,0 1.97,0.289 2.793,0.83 0.822,-0.541 1.785,-0.83 2.793,-0.83 h 5.305 v -1.156 c 0,-3.189 -2.595,-5.785 -5.784,-5.785 -3.189,0 -5.785,2.596 -5.785,5.785 m 5.785,9.254 c 3.189,0 5.784,-2.594 5.784,-5.783 h -5.305 c -0.735,0 -1.456,0.299 -1.975,0.816 l -0.818,0.819 -0.818,-0.819 c -0.518,-0.517 -1.239,-0.816 -1.975,-0.816 h -0.678 c 0,3.189 2.596,5.783 5.785,5.783 m 55.529,-34.705 v 9.281 c 0,2.574 -1.656,4.803 -4.121,5.541 l -7.447,2.235 v 1.757 c 2.096,1.465 3.471,3.891 3.471,6.635 v 3.473 c 0,4.465 -3.633,8.097 -8.098,8.097 -4.466,0 -8.098,-3.632 -8.098,-8.097 v -3.471 c 0,-2.746 1.375,-5.172 3.471,-6.637 v -1.757 l -6.562,-1.969 c -2.465,2.203 -5.602,3.422 -8.934,3.422 -3.318,0 -6.354,-1.215 -8.699,-3.219 l -5.885,1.766 v 1.757 c 2.096,1.465 3.471,3.891 3.471,6.635 v 3.473 c 0,4.465 -3.633,8.097 -8.098,8.097 -4.466,0 -8.098,-3.632 -8.098,-8.097 v -3.471 c 0,-2.746 1.375,-5.172 3.471,-6.637 v -1.757 l -7.447,-2.235 c -2.465,-0.738 -4.123,-2.967 -4.123,-5.541 v -9.281 h 2.314 v 9.281 c 0,1.545 0.994,2.881 2.473,3.324 l 7.451,2.237 c 0.672,-0.875 1.975,-2.117 3.959,-2.117 1.984,0 3.286,1.242 3.959,2.117 l 4.744,-1.424 c -1.506,-1.895 -2.508,-4.199 -2.812,-6.721 -1.477,1.571 -3.569,2.557 -5.891,2.557 -4.466,0 -8.098,-3.633 -8.098,-8.098 v -3.471 c 0,-2.746 1.375,-5.171 3.471,-6.634 v -1.758 l -7.447,-2.234 c -2.465,-0.741 -4.123,-2.969 -4.123,-5.541 v -10.44 h 13.883 c 0.638,0 1.158,-0.519 1.158,-1.158 v -4.627 h 41.646 v 4.627 c 0,0.639 0.52,1.158 1.158,1.158 h 13.881 v 10.44 c 0,2.572 -1.656,4.8 -4.121,5.539 l -7.447,2.234 v 1.758 c 2.096,1.465 3.471,3.89 3.471,6.636 v 3.469 c 0,4.467 -3.633,8.1 -8.098,8.1 -2.266,0 -4.312,-0.938 -5.783,-2.442 v 1.096 c 0,2.285 -1.242,4.342 -3.18,5.43 l 5.004,1.502 c 0.672,-0.873 1.975,-2.115 3.959,-2.115 1.984,0 3.285,1.242 3.961,2.117 l 7.448,-2.237 c 1.48,-0.443 2.474,-1.779 2.474,-3.324 v -9.281 z"
         style="fill:#00b7b7;fill-opacity:1;fill-rule:nonzero;stroke:none"
         id="path2340"
         inkscape:connector-curvature="0" />
      <path
         d="m 856.8184,405.8848 c 0,-34.867 -28.266,-63.133 -63.133,-63.133 -34.865,0 -63.131,28.266 -63.131,63.133 0,34.865 28.266,63.131 63.131,63.131 34.867,0 63.133,-28.266 63.133,-63.131 z"
         style="fill:none;stroke:#00b7b7;stroke-width:3;stroke-linecap:butt;stroke-linejoin:miter;stroke-miterlimit:10;stroke-dasharray:none;stroke-opacity:1"
         id="path2344"
         inkscape:connector-curvature="0" />
      <path
         d="m 792.6875,431.6055 c -6.244,0 -11.326,5.082 -11.326,11.328 0,6.246 5.082,11.326 11.326,11.326 6.246,0 11.328,-5.08 11.328,-11.326 0,-6.246 -5.082,-11.328 -11.328,-11.328 m -12.129,17.994 c -1.092,-1.978 -1.715,-4.25 -1.715,-6.666 0,-2.93 0.916,-5.65 2.477,-7.892 l 0.814,-0.969 c 0.69,-0.821 1.436,-1.602 2.294,-2.242 2.757,-2.057 6.3,-3.112 10.087,-2.623 6.227,0.8 11.219,5.88 11.926,12.117 0.946,8.351 -5.59,15.453 -13.754,15.453 -1.408,0 -2.766,-0.211 -4.049,-0.604 l -0.015,-0.007 c -3.334,-1.249 -6.166,-3.555 -8.065,-6.567"
         style="fill:#cd1419;fill-opacity:1;fill-rule:nonzero;stroke:none"
         id="path2348"
         inkscape:connector-curvature="0" />
      <path
         d="m 798.918,442.0547 -7.109,7.109 c 1.922,0.27 3.91,-0.361 5.329,-1.781 1.421,-1.42 2.05,-3.408 1.78,-5.328 m 0,7.107 c -2.633,2.633 -6.658,3.327 -10.02,1.727 -0.369,-0.178 -0.63,-0.523 -0.699,-0.928 -0.068,-0.404 0.065,-0.816 0.357,-1.103 0.01,-0.012 0.022,-0.024 0.032,-0.033 l 9.978,-9.977 c 0.012,-0.014 0.026,-0.027 0.038,-0.041 0.24,-0.244 0.566,-0.381 0.902,-0.381 0.068,0 0.137,0.006 0.205,0.018 0.406,0.066 0.754,0.328 0.932,0.699 1.601,3.361 0.908,7.389 -1.725,10.019"
         style="fill:#cd1419;fill-opacity:1;fill-rule:nonzero;stroke:none"
         id="path2352"
         inkscape:connector-curvature="0" />
      <path
         d="m 788.2383,438.4824 c -1.426,1.426 -2.055,3.422 -1.777,5.352 l 7.127,-7.129 c -1.928,-0.278 -3.924,0.353 -5.35,1.777 m 8.549,-1.414 -9.979,9.977 c -0.013,0.013 -0.027,0.027 -0.041,0.042 -0.287,0.29 -0.699,0.418 -1.101,0.35 -0.404,-0.068 -0.746,-0.328 -0.922,-0.695 -1.613,-3.365 -0.924,-7.399 1.715,-10.039 1.687,-1.688 3.947,-2.578 6.236,-2.578 1.291,0 2.59,0.283 3.803,0.865 0.371,0.178 0.633,0.525 0.697,0.931 0.065,0.409 -0.072,0.821 -0.367,1.108 -0.014,0.014 -0.027,0.025 -0.041,0.039"
         style="fill:#cd1419;fill-opacity:1;fill-rule:nonzero;stroke:none"
         id="path2356"
         inkscape:connector-curvature="0" />
    </g>
  </g>
</svg>
