<?xml version="1.0" encoding="UTF-8" standalone="no"?>
<!-- Created with Inkscape (http://www.inkscape.org/) -->

<svg
   xmlns:dc="http://purl.org/dc/elements/1.1/"
   xmlns:cc="http://creativecommons.org/ns#"
   xmlns:rdf="http://www.w3.org/1999/02/22-rdf-syntax-ns#"
   xmlns:svg="http://www.w3.org/2000/svg"
   xmlns="http://www.w3.org/2000/svg"
   xmlns:sodipodi="http://sodipodi.sourceforge.net/DTD/sodipodi-0.dtd"
   xmlns:inkscape="http://www.inkscape.org/namespaces/inkscape"
   width="46.659447mm"
   height="46.659798mm"
   viewBox="0 0 46.659447 46.659798"
   version="1.1"
   id="svg3654"
   inkscape:version="0.92.5 (2060ec1f9f, 2020-04-08)"
   sodipodi:docname="evitar-cortes-de-piel.svg">
  <defs
     id="defs3648" />
  <sodipodi:namedview
     id="base"
     pagecolor="#ffffff"
     bordercolor="#666666"
     borderopacity="1.0"
     inkscape:pageopacity="0.0"
     inkscape:pageshadow="2"
     inkscape:zoom="0.81210937"
     inkscape:cx="9.1757982"
     inkscape:cy="-22.915877"
     inkscape:document-units="mm"
     inkscape:current-layer="layer1"
     showgrid="false"
     fit-margin-top="0"
     fit-margin-left="0"
     fit-margin-right="0"
     fit-margin-bottom="0"
     showborder="false"
     inkscape:window-width="1440"
     inkscape:window-height="788"
     inkscape:window-x="0"
     inkscape:window-y="27"
     inkscape:window-maximized="1" />
  <metadata
     id="metadata3651">
    <rdf:RDF>
      <cc:Work
         rdf:about="">
        <dc:format>image/svg+xml</dc:format>
        <dc:type
           rdf:resource="http://purl.org/dc/dcmitype/StillImage" />
        <dc:title></dc:title>
      </cc:Work>
    </rdf:RDF>
  </metadata>
  <g
     inkscape:label="Capa 1"
     inkscape:groupmode="layer"
     id="layer1"
     transform="translate(-103.40557,-96.110375)">
    <g
       transform="matrix(0.35277777,0,0,-0.35277777,-297.44184,262.09789)"
       id="g3623">
      <path
         inkscape:connector-curvature="0"
         id="path2722"
         style="fill:#045e73;fill-opacity:1;fill-rule:nonzero;stroke:none"
         d="m 1267.0234,402.8848 c 0,-34.867 -28.264,-63.133 -63.131,-63.133 -34.867,0 -63.132,28.266 -63.132,63.133 0,34.865 28.265,63.131 63.132,63.131 34.867,0 63.131,-28.266 63.131,-63.131" />
      <path
         inkscape:connector-curvature="0"
         id="path2726"
         style="fill:none;stroke:#045e73;stroke-width:3;stroke-linecap:butt;stroke-linejoin:miter;stroke-miterlimit:10;stroke-dasharray:none;stroke-opacity:1"
         d="m 1267.0234,402.8848 c 0,-34.867 -28.264,-63.133 -63.131,-63.133 -34.867,0 -63.132,28.266 -63.132,63.133 0,34.865 28.265,63.131 63.132,63.131 34.867,0 63.131,-28.266 63.131,-63.131 z" />
      <path
         inkscape:connector-curvature="0"
         id="path2730"
         style="fill:#045e73;fill-opacity:1;fill-rule:nonzero;stroke:none"
         d="m 1192.5215,382.8867 c -0.539,0.305 -0.926,0.801 -1.09,1.398 -0.166,0.596 -0.088,1.221 0.217,1.758 l 7.535,13.68 1.41,-1.191 c 0.016,0.003 0.033,-0.45 0.049,-0.444 m 8.178,-9.631 17.951,-17.951 c 0.902,-0.902 0.902,-2.373 0,-3.275 -0.904,-0.903 -2.371,-0.903 -3.275,0 -0.034,0.033 -0.068,0.064 -0.102,0.092 l -9.705,9.808 c -0.588,0.594 -1.543,0.598 -2.136,0.01 -0.593,-0.584 -0.596,-1.541 -0.011,-2.133 l 9.811,-9.914 c 0,0 0,-0.002 0,-0.002 0.902,-0.902 0.902,-2.373 0,-3.275 -0.438,-0.438 -1.02,-0.678 -1.639,-0.678 -0.619,0 -1.199,0.24 -1.636,0.678 l -6.563,6.631 c -0.586,0.593 -1.541,0.597 -2.135,0.011 -0.592,-0.588 -0.595,-1.543 -0.01,-2.134 l 6.46,-6.53 c 0.034,-0.041 0.069,-0.08 0.106,-0.119 0.904,-0.902 0.904,-2.371 0,-3.273 -0.902,-0.903 -2.371,-0.903 -3.274,0 l -3.582,3.619 c -0.587,0.594 -1.543,0.597 -2.134,0.011 -0.594,-0.585 -0.598,-1.542 -0.012,-2.134 l 3.482,-3.518 c 0.034,-0.041 0.067,-0.08 0.106,-0.117 0.902,-0.904 0.902,-2.373 0,-3.275 -0.902,-0.903 -2.371,-0.903 -3.274,0 -0.105,0.103 -0.226,0.183 -0.341,0.273 -0.1,0.074 -0.125,0.127 -0.077,0.246 0.05,0.123 0.125,0.233 0.174,0.354 0.057,0.136 0.1,0.277 0.145,0.418 0.23,0.746 0.299,1.546 0.195,2.322 -0.201,1.484 -1.017,2.826 -2.254,3.674 -0.67,0.457 -1.443,0.756 -2.246,0.869 0.389,1.715 -0.078,3.574 -1.293,4.857 -0.998,1.057 -2.349,1.651 -3.803,1.67 h -0.158 c 0.033,1.385 -0.47,2.762 -1.428,3.772 -1,1.054 -2.349,1.648 -3.8,1.668 -0.432,0.007 -0.867,-0.039 -1.289,-0.137 -0.18,1.25 -0.809,2.408 -1.764,3.236 -0.947,0.821 -2.141,1.276 -3.412,1.293 -1.336,0.02 -2.651,-0.474 -3.643,-1.371 l -5.836,7.863 13.959,17.004 4.45,-1.217 m 3.781,-47.396 c -0.903,0.902 -0.903,2.371 0,3.273 l 1.842,1.84 c 0.054,0.057 0.113,0.11 0.173,0.158 0,0.002 0,0.004 0,0.004 0.299,0.243 0.653,0.407 1.026,0.477 0.01,0.002 0.019,0.002 0.027,0.004 0.065,0.012 0.131,0.021 0.195,0.027 0.028,0.002 0.055,0.002 0.08,0.004 0.055,0.002 0.108,0.006 0.163,0.006 0.63,-0.01 1.216,-0.266 1.652,-0.727 0.053,-0.054 0.103,-0.113 0.148,-0.173 0.696,-0.909 0.602,-2.256 -0.259,-3.12 l -1.777,-1.775 c -0.901,-0.902 -2.37,-0.9 -3.274,0.002 m -6.137,4.744 c -0.437,0.438 -0.678,1.02 -0.678,1.637 0,0.619 0.241,1.201 0.678,1.639 l 3.568,3.568 c 0.731,0.73 1.903,0.887 2.799,0.367 0.817,-0.476 1.246,-1.41 1.106,-2.34 -0.078,-0.511 -0.321,-0.992 -0.688,-1.357 l -3.511,-3.514 c -0.438,-0.435 -1.018,-0.678 -1.637,-0.678 -0.617,0 -1.199,0.243 -1.637,0.678 m -5.389,5.442 c -0.437,0.437 -0.679,1.019 -0.679,1.638 0,0.617 0.242,1.199 0.679,1.635 l 3.569,3.57 c 0.683,0.684 1.758,0.871 2.633,0.455 0.9,-0.429 1.406,-1.408 1.275,-2.39 -0.072,-0.526 -0.316,-1.022 -0.689,-1.397 l -3.514,-3.511 c -0.438,-0.438 -1.018,-0.678 -1.637,-0.678 -0.619,0 -1.199,0.24 -1.637,0.678 m -4.736,9.394 1.84,1.842 c 0.057,0.055 0.115,0.107 0.176,0.156 0.359,0.295 0.795,0.469 1.258,0.51 0.011,0.002 0.025,0.002 0.039,0.002 0.066,0.006 0.13,0.01 0.197,0.008 0.631,-0.008 1.217,-0.266 1.651,-0.725 0.853,-0.902 0.808,-2.375 -0.102,-3.283 l -1.784,-1.783 c -0.904,-0.905 -2.371,-0.905 -3.275,0 -0.902,0.902 -0.902,2.371 0,3.273 m -0.859,34.266 6.097,-3.877 -13.265,-16.162 -5.317,4.576 z m 17.691,-4.51 -8.728,2.387 -8.481,5.394 c -0.648,0.412 -1.503,0.272 -1.984,-0.326 l -14.25,-17.65 c -0.512,-0.635 -0.428,-1.561 0.189,-2.092 l 7.471,-6.428 6.699,-9.031 c -1.959,-2.088 -1.922,-5.379 0.117,-7.418 0.905,-0.904 2.055,-1.414 3.237,-1.533 -0.041,-0.268 -0.063,-0.541 -0.063,-0.815 0,-1.426 0.555,-2.765 1.563,-3.773 1.007,-1.008 2.347,-1.563 3.771,-1.563 0.02,0 0.038,0.002 0.057,0.002 0,-0.037 0,-0.072 0,-0.109 0,-1.424 0.554,-2.764 1.562,-3.772 1.008,-1.005 2.348,-1.562 3.772,-1.562 0.281,0 0.558,0.023 0.832,0.064 0.117,-1.183 0.627,-2.34 1.535,-3.246 1.039,-1.039 2.404,-1.56 3.771,-1.56 1.366,0 2.733,0.521 3.772,1.56 l 0.816,0.817 0.342,-0.278 c 1.031,-0.998 2.371,-1.498 3.709,-1.498 1.367,0 2.733,0.52 3.772,1.561 1.06,1.06 1.58,2.463 1.558,3.855 1.395,-0.021 2.795,0.498 3.856,1.559 1.06,1.06 1.58,2.461 1.559,3.853 1.452,-0.023 2.827,0.534 3.855,1.561 1.062,1.06 1.582,2.461 1.56,3.855 1.393,-0.019 2.793,0.498 3.856,1.559 1.81,1.812 2.043,4.611 0.701,6.678" />
      <path
         inkscape:connector-curvature="0"
         id="path2734"
         style="fill:#045e73;fill-opacity:1;fill-rule:nonzero;stroke:none"
         d="m 1203.8926,420.043 c -6.246,0 -11.328,5.082 -11.328,11.328 0,6.246 5.082,11.326 11.328,11.326 6.245,0 11.327,-5.08 11.327,-11.326 0,-6.246 -5.082,-11.328 -11.327,-11.328 m -12.131,17.994 c -1.092,-1.978 -1.713,-4.252 -1.713,-6.666 0,-2.932 0.916,-5.65 2.475,-7.892 l 0.814,-0.969 c 0.69,-0.821 1.436,-1.602 2.295,-2.244 2.756,-2.055 6.299,-3.11 10.087,-2.621 6.226,0.8 11.218,5.878 11.927,12.117 0.945,8.349 -5.59,15.453 -13.754,15.453 -1.408,0 -2.768,-0.213 -4.049,-0.604 l -0.015,-0.007 c -3.334,-1.25 -6.166,-3.555 -8.067,-6.567" />
      <path
         inkscape:connector-curvature="0"
         id="path2738"
         style="fill:#045e73;fill-opacity:1;fill-rule:nonzero;stroke:none"
         d="m 1210.123,430.4902 -7.11,7.111 c 1.923,0.268 3.909,-0.361 5.329,-1.781 1.42,-1.42 2.051,-3.408 1.781,-5.33 m 0,7.109 c -2.631,2.633 -6.658,3.327 -10.018,1.725 -0.371,-0.176 -0.631,-0.521 -0.699,-0.926 -0.068,-0.404 0.065,-0.816 0.356,-1.105 0.011,-0.012 0.021,-0.022 0.033,-0.032 l 9.976,-9.976 c 0.014,-0.016 0.026,-0.027 0.04,-0.041 0.238,-0.246 0.564,-0.381 0.9,-0.381 0.068,0 0.138,0.006 0.207,0.018 0.406,0.066 0.754,0.328 0.93,0.699 1.601,3.361 0.908,7.387 -1.725,10.019" />
      <path
         inkscape:connector-curvature="0"
         id="path2742"
         style="fill:#045e73;fill-opacity:1;fill-rule:nonzero;stroke:none"
         d="m 1199.4434,426.9199 c -1.426,1.426 -2.056,3.422 -1.779,5.352 l 7.129,-7.129 c -1.928,-0.278 -3.924,0.351 -5.35,1.777 m 8.547,-1.416 -9.977,9.977 c -0.013,0.015 -0.027,0.029 -0.042,0.043 -0.288,0.291 -0.698,0.419 -1.1,0.351 -0.403,-0.068 -0.748,-0.328 -0.924,-0.695 -1.613,-3.365 -0.924,-7.401 1.715,-10.039 1.689,-1.688 3.947,-2.578 6.238,-2.578 1.289,0 2.588,0.281 3.801,0.863 0.371,0.178 0.633,0.527 0.699,0.933 0.064,0.407 -0.072,0.821 -0.369,1.108 -0.014,0.012 -0.027,0.025 -0.041,0.037" />
      <path
         inkscape:connector-curvature="0"
         id="path2746"
         style="fill:#045e73;fill-opacity:1;fill-rule:evenodd;stroke:none"
         d="m 1214.3789,407.7402 c 1.268,-2.662 2.207,-5.229 3.141,-7.795 0.447,-1.228 0.886,-2.471 1.023,-3.787 0.177,-1.715 -0.643,-3.375 -1.982,-4.082 -1.639,-0.865 -3.27,-0.861 -4.786,0.207 -1.486,1.049 -2.003,2.861 -1.535,4.639 0.852,3.238 2.192,6.3 3.396,9.41 0.161,0.416 0.417,0.795 0.743,1.408" />
      <path
         d="m 1264.0234,405.8848 c 0,-34.867 -28.264,-63.133 -63.131,-63.133 -34.867,0 -63.132,28.266 -63.132,63.133 0,34.865 28.265,63.131 63.132,63.131 34.867,0 63.131,-28.266 63.131,-63.131"
         style="fill:#ffffff;fill-opacity:1;fill-rule:nonzero;stroke:none"
         id="path2756"
         inkscape:connector-curvature="0" />
      <path
         d="m 1264.0234,405.8848 c 0,-34.867 -28.264,-63.133 -63.131,-63.133 -34.867,0 -63.132,28.266 -63.132,63.133 0,34.865 28.265,63.131 63.132,63.131 34.867,0 63.131,-28.266 63.131,-63.131 z"
         style="fill:none;stroke:#00b7b7;stroke-width:3;stroke-linecap:butt;stroke-linejoin:miter;stroke-miterlimit:10;stroke-dasharray:none;stroke-opacity:1"
         id="path2760"
         inkscape:connector-curvature="0" />
      <path
         d="m 1189.5215,385.8867 c -0.539,0.305 -0.926,0.801 -1.09,1.398 -0.166,0.596 -0.088,1.221 0.217,1.758 l 7.535,13.68 1.41,-1.191 c 0.016,0.003 0.033,-0.45 0.049,-0.444 m 8.178,-9.631 17.951,-17.951 c 0.902,-0.902 0.902,-2.373 0,-3.275 -0.904,-0.903 -2.371,-0.903 -3.275,0 -0.034,0.033 -0.068,0.064 -0.102,0.092 l -9.705,9.808 c -0.588,0.594 -1.543,0.598 -2.136,0.01 -0.593,-0.584 -0.596,-1.541 -0.011,-2.133 l 9.811,-9.914 c 0,0 0,-0.002 0,-0.002 0.902,-0.902 0.902,-2.373 0,-3.275 -0.438,-0.438 -1.02,-0.678 -1.639,-0.678 -0.619,0 -1.199,0.24 -1.636,0.678 l -6.563,6.631 c -0.586,0.593 -1.541,0.597 -2.135,0.011 -0.592,-0.588 -0.595,-1.543 -0.01,-2.134 l 6.46,-6.53 c 0.034,-0.041 0.069,-0.08 0.106,-0.119 0.904,-0.902 0.904,-2.371 0,-3.273 -0.902,-0.903 -2.371,-0.903 -3.274,0 l -3.582,3.619 c -0.587,0.594 -1.543,0.597 -2.134,0.011 -0.594,-0.585 -0.598,-1.542 -0.012,-2.134 l 3.482,-3.518 c 0.034,-0.041 0.067,-0.08 0.106,-0.117 0.902,-0.904 0.902,-2.373 0,-3.275 -0.902,-0.903 -2.371,-0.903 -3.274,0 -0.105,0.103 -0.226,0.183 -0.341,0.273 -0.1,0.074 -0.125,0.127 -0.077,0.246 0.05,0.123 0.125,0.233 0.174,0.354 0.057,0.136 0.1,0.277 0.145,0.418 0.23,0.746 0.299,1.546 0.195,2.322 -0.201,1.484 -1.017,2.826 -2.254,3.674 -0.67,0.457 -1.443,0.756 -2.246,0.869 0.389,1.715 -0.078,3.574 -1.293,4.857 -0.998,1.057 -2.349,1.651 -3.803,1.67 h -0.158 c 0.033,1.385 -0.47,2.762 -1.428,3.772 -1,1.054 -2.349,1.648 -3.8,1.668 -0.432,0.007 -0.867,-0.039 -1.289,-0.137 -0.18,1.25 -0.809,2.408 -1.764,3.236 -0.947,0.821 -2.141,1.276 -3.412,1.293 -1.336,0.02 -2.651,-0.474 -3.643,-1.371 l -5.836,7.863 13.959,17.004 4.45,-1.217 m 3.781,-47.396 c -0.903,0.902 -0.903,2.371 0,3.273 l 1.842,1.84 c 0.054,0.057 0.113,0.11 0.173,0.158 0,0.002 0,0.004 0,0.004 0.299,0.243 0.653,0.407 1.026,0.477 0.01,0.002 0.019,0.002 0.027,0.004 0.065,0.012 0.131,0.021 0.195,0.027 0.028,0.002 0.055,0.002 0.08,0.004 0.055,0.002 0.108,0.006 0.163,0.006 0.63,-0.01 1.216,-0.266 1.652,-0.727 0.053,-0.054 0.103,-0.113 0.148,-0.173 0.696,-0.909 0.602,-2.256 -0.259,-3.12 l -1.777,-1.775 c -0.901,-0.902 -2.37,-0.9 -3.274,0.002 m -6.137,4.744 c -0.437,0.438 -0.678,1.02 -0.678,1.637 0,0.619 0.241,1.201 0.678,1.639 l 3.568,3.568 c 0.731,0.73 1.903,0.887 2.799,0.367 0.817,-0.476 1.246,-1.41 1.106,-2.34 -0.078,-0.511 -0.321,-0.992 -0.688,-1.357 l -3.511,-3.514 c -0.438,-0.435 -1.018,-0.678 -1.637,-0.678 -0.617,0 -1.199,0.243 -1.637,0.678 m -5.389,5.442 c -0.437,0.437 -0.679,1.019 -0.679,1.638 0,0.617 0.242,1.199 0.679,1.635 l 3.569,3.57 c 0.683,0.684 1.758,0.871 2.633,0.455 0.9,-0.429 1.406,-1.408 1.275,-2.39 -0.072,-0.526 -0.316,-1.022 -0.689,-1.397 l -3.514,-3.511 c -0.438,-0.438 -1.018,-0.678 -1.637,-0.678 -0.619,0 -1.199,0.24 -1.637,0.678 m -4.736,9.394 1.84,1.842 c 0.057,0.055 0.115,0.107 0.176,0.156 0.359,0.295 0.795,0.469 1.258,0.51 0.011,0.002 0.025,0.002 0.039,0.002 0.066,0.006 0.13,0.01 0.197,0.008 0.631,-0.008 1.217,-0.266 1.651,-0.725 0.853,-0.902 0.808,-2.375 -0.102,-3.283 l -1.784,-1.783 c -0.904,-0.905 -2.371,-0.905 -3.275,0 -0.902,0.902 -0.902,2.371 0,3.273 m -0.859,34.266 6.097,-3.877 -13.265,-16.162 -5.317,4.576 z m 17.691,-4.51 -8.728,2.387 -8.481,5.394 c -0.648,0.412 -1.503,0.272 -1.984,-0.326 l -14.25,-17.65 c -0.512,-0.635 -0.428,-1.561 0.189,-2.092 l 7.471,-6.428 6.699,-9.031 c -1.959,-2.088 -1.922,-5.379 0.117,-7.418 0.905,-0.904 2.055,-1.414 3.237,-1.533 -0.041,-0.268 -0.063,-0.541 -0.063,-0.815 0,-1.426 0.555,-2.765 1.563,-3.773 1.007,-1.008 2.347,-1.563 3.771,-1.563 0.02,0 0.038,0.002 0.057,0.002 0,-0.037 0,-0.072 0,-0.109 0,-1.424 0.554,-2.764 1.562,-3.772 1.008,-1.005 2.348,-1.562 3.772,-1.562 0.281,0 0.558,0.023 0.832,0.064 0.117,-1.183 0.627,-2.34 1.535,-3.246 1.039,-1.039 2.404,-1.56 3.771,-1.56 1.366,0 2.733,0.521 3.772,1.56 l 0.816,0.817 0.342,-0.278 c 1.031,-0.998 2.371,-1.498 3.709,-1.498 1.367,0 2.733,0.52 3.772,1.561 1.06,1.06 1.58,2.463 1.558,3.855 1.395,-0.021 2.795,0.498 3.856,1.559 1.06,1.06 1.58,2.461 1.559,3.853 1.452,-0.023 2.827,0.534 3.855,1.561 1.062,1.06 1.582,2.461 1.56,3.855 1.393,-0.019 2.793,0.498 3.856,1.559 1.81,1.812 2.043,4.611 0.701,6.678"
         style="fill:#00b7b7;fill-opacity:1;fill-rule:nonzero;stroke:none"
         id="path2764"
         inkscape:connector-curvature="0" />
      <path
         d="m 1200.8926,423.043 c -6.246,0 -11.328,5.082 -11.328,11.328 0,6.246 5.082,11.326 11.328,11.326 6.245,0 11.327,-5.08 11.327,-11.326 0,-6.246 -5.082,-11.328 -11.327,-11.328 m -12.131,17.994 c -1.092,-1.978 -1.713,-4.252 -1.713,-6.666 0,-2.932 0.916,-5.65 2.475,-7.892 l 0.814,-0.969 c 0.69,-0.821 1.436,-1.602 2.295,-2.244 2.756,-2.055 6.299,-3.11 10.087,-2.621 6.226,0.8 11.218,5.878 11.927,12.117 0.945,8.349 -5.59,15.453 -13.754,15.453 -1.408,0 -2.768,-0.213 -4.049,-0.604 l -0.015,-0.007 c -3.334,-1.25 -6.166,-3.555 -8.067,-6.567"
         style="fill:#cd1419;fill-opacity:1;fill-rule:nonzero;stroke:none"
         id="path2768"
         inkscape:connector-curvature="0" />
      <path
         d="m 1207.123,433.4902 -7.11,7.111 c 1.923,0.268 3.909,-0.361 5.329,-1.781 1.42,-1.42 2.051,-3.408 1.781,-5.33 m 0,7.109 c -2.631,2.633 -6.658,3.327 -10.018,1.725 -0.371,-0.176 -0.631,-0.521 -0.699,-0.926 -0.068,-0.404 0.065,-0.816 0.356,-1.105 0.011,-0.012 0.021,-0.022 0.033,-0.032 l 9.976,-9.976 c 0.014,-0.016 0.026,-0.027 0.04,-0.041 0.238,-0.246 0.564,-0.381 0.9,-0.381 0.068,0 0.138,0.006 0.207,0.018 0.406,0.066 0.754,0.328 0.93,0.699 1.601,3.361 0.908,7.387 -1.725,10.019"
         style="fill:#cd1419;fill-opacity:1;fill-rule:nonzero;stroke:none"
         id="path2772"
         inkscape:connector-curvature="0" />
      <path
         d="m 1196.4434,429.9199 c -1.426,1.426 -2.056,3.422 -1.779,5.352 l 7.129,-7.129 c -1.928,-0.278 -3.924,0.351 -5.35,1.777 m 8.547,-1.416 -9.977,9.977 c -0.013,0.015 -0.027,0.029 -0.042,0.043 -0.288,0.291 -0.698,0.419 -1.1,0.351 -0.403,-0.068 -0.748,-0.328 -0.924,-0.695 -1.613,-3.365 -0.924,-7.401 1.715,-10.039 1.689,-1.688 3.947,-2.578 6.238,-2.578 1.289,0 2.588,0.281 3.801,0.863 0.371,0.178 0.633,0.527 0.699,0.933 0.064,0.407 -0.072,0.821 -0.369,1.108 -0.014,0.012 -0.027,0.025 -0.041,0.037"
         style="fill:#cd1419;fill-opacity:1;fill-rule:nonzero;stroke:none"
         id="path2776"
         inkscape:connector-curvature="0" />
      <path
         d="m 1211.3789,410.7402 c 1.268,-2.662 2.207,-5.229 3.141,-7.795 0.447,-1.228 0.886,-2.471 1.023,-3.787 0.177,-1.715 -0.643,-3.375 -1.982,-4.082 -1.639,-0.865 -3.27,-0.861 -4.786,0.207 -1.486,1.049 -2.003,2.861 -1.535,4.639 0.852,3.238 2.192,6.3 3.396,9.41 0.161,0.416 0.417,0.795 0.743,1.408"
         style="fill:#cd1419;fill-opacity:1;fill-rule:evenodd;stroke:none"
         id="path2780"
         inkscape:connector-curvature="0" />
    </g>
  </g>
</svg>
