<?xml version="1.0" encoding="UTF-8" standalone="no"?>
<svg
   xmlns:dc="http://purl.org/dc/elements/1.1/"
   xmlns:cc="http://creativecommons.org/ns#"
   xmlns:rdf="http://www.w3.org/1999/02/22-rdf-syntax-ns#"
   xmlns:svg="http://www.w3.org/2000/svg"
   xmlns="http://www.w3.org/2000/svg"
   id="icon-facebook"
   version="1.1"
   viewBox="0 0 38.091831 38.091183">
  <defs
     id="defs4325" />
  <metadata
     id="metadata4328">
    <rdf:RDF>
      <cc:Work
         rdf:about="">
        <dc:format>image/svg+xml</dc:format>
        <dc:type
           rdf:resource="http://purl.org/dc/dcmitype/StillImage" />
        <dc:title></dc:title>
      </cc:Work>
    </rdf:RDF>
  </metadata>
  <g
     transform="translate(114.29591,-76.115121)"
     id="layer1">
    <path
       id="path306"
       transform="matrix(0.26458333,0,0,0.26458333,-114.29591,76.115121)"
       d="M 71.976562 0 C 32.251245 0 -0.00390625 32.245676 -0.00390625 71.980469 C -0.00390625 111.71296 32.251018 143.96875 71.976562 143.96875 C 111.71596 143.96875 143.97266 111.71288 143.97266 71.980469 C 143.97266 32.245747 111.71574 0 71.976562 0 z M 71.976562 3.5429688 C 109.79977 3.5429688 140.42188 34.162244 140.42188 71.980469 C 140.42188 109.79628 109.79955 140.41797 71.976562 140.41797 C 34.168108 140.41797 3.546875 109.79621 3.546875 71.980469 C 3.546875 34.162316 34.167919 3.5429688 71.976562 3.5429688 z M 79.742188 29.544922 C 67.019217 29.544922 61.285156 35.144533 61.285156 45.865234 L 61.285156 57.292969 L 52.396484 57.292969 L 52.396484 71.800781 L 61.285156 71.800781 L 61.285156 114.42188 L 78.376953 114.42188 L 78.376953 71.623047 L 90.298828 71.623047 L 91.572266 57.292969 L 78.376953 57.292969 L 78.376953 49.130859 C 78.376953 45.750374 79.055231 44.421875 82.322266 44.421875 L 91.572266 44.421875 L 91.572266 29.544922 L 79.742188 29.544922 z " />
  </g>
</svg>
