<?xml version="1.0" encoding="UTF-8" standalone="no"?>
<!-- Created with Inkscape (http://www.inkscape.org/) -->

<svg
   xmlns:dc="http://purl.org/dc/elements/1.1/"
   xmlns:cc="http://creativecommons.org/ns#"
   xmlns:rdf="http://www.w3.org/1999/02/22-rdf-syntax-ns#"
   xmlns:svg="http://www.w3.org/2000/svg"
   xmlns="http://www.w3.org/2000/svg"
   xmlns:sodipodi="http://sodipodi.sourceforge.net/DTD/sodipodi-0.dtd"
   xmlns:inkscape="http://www.inkscape.org/namespaces/inkscape"
   version="1.1"
   id="svg2"
   xml:space="preserve"
   width="259.22601"
   height="259.22601"
   viewBox="0 0 259.22602 259.22601"
   sodipodi:docname="favicon.svg"
   inkscape:version="0.92.5 (2060ec1f9f, 2020-04-08)"
   inkscape:export-filename="/home/david/Documentos/Trabajos/Clientes/Lluvia/canceravanzadodemana/multimedia/vectores/favicon.png"
   inkscape:export-xdpi="94.805298"
   inkscape:export-ydpi="94.805298"><metadata
     id="metadata8"><rdf:RDF><cc:Work
         rdf:about=""><dc:format>image/svg+xml</dc:format><dc:type
           rdf:resource="http://purl.org/dc/dcmitype/StillImage" /><dc:title></dc:title></cc:Work></rdf:RDF></metadata><defs
     id="defs6"><clipPath
       clipPathUnits="userSpaceOnUse"
       id="clipPath18"><path
         d="M 0,841.89 H 595.28 V 0 H 0 Z"
         id="path16"
         inkscape:connector-curvature="0" /></clipPath><clipPath
       clipPathUnits="userSpaceOnUse"
       id="clipPath106"><path
         d="m 328.129,446.808 h 68.885 v -68.885 h -68.885 z"
         id="path104"
         inkscape:connector-curvature="0" /></clipPath><clipPath
       clipPathUnits="userSpaceOnUse"
       id="clipPath122"><path
         d="M 348.369,419.587 H 368.93 V 399.026 H 348.369 Z"
         id="path120"
         inkscape:connector-curvature="0" /></clipPath><clipPath
       clipPathUnits="userSpaceOnUse"
       id="clipPath138"><path
         d="M 372.166,464.841 H 408.9 v -36.733 h -36.734 z"
         id="path136"
         inkscape:connector-curvature="0" /></clipPath><clipPath
       clipPathUnits="userSpaceOnUse"
       id="clipPath154"><path
         d="m 280.129,446.808 h 68.885 v -68.885 h -68.885 z"
         id="path152"
         inkscape:connector-curvature="0" /></clipPath><clipPath
       clipPathUnits="userSpaceOnUse"
       id="clipPath170"><path
         d="M 300.369,419.587 H 320.93 V 399.026 H 300.369 Z"
         id="path168"
         inkscape:connector-curvature="0" /></clipPath><clipPath
       clipPathUnits="userSpaceOnUse"
       id="clipPath186"><path
         d="M 324.166,464.841 H 360.9 v -36.733 h -36.734 z"
         id="path184"
         inkscape:connector-curvature="0" /></clipPath><clipPath
       clipPathUnits="userSpaceOnUse"
       id="clipPath202"><path
         d="m 231.129,446.808 h 68.885 v -68.885 h -68.885 z"
         id="path200"
         inkscape:connector-curvature="0" /></clipPath><clipPath
       clipPathUnits="userSpaceOnUse"
       id="clipPath218"><path
         d="M 251.369,419.587 H 271.93 V 399.026 H 251.369 Z"
         id="path216"
         inkscape:connector-curvature="0" /></clipPath><clipPath
       clipPathUnits="userSpaceOnUse"
       id="clipPath234"><path
         d="M 275.166,464.841 H 311.9 v -36.733 h -36.734 z"
         id="path232"
         inkscape:connector-curvature="0" /></clipPath></defs><sodipodi:namedview
     pagecolor="#ffffff"
     bordercolor="#666666"
     borderopacity="1"
     objecttolerance="10"
     gridtolerance="10"
     guidetolerance="10"
     inkscape:pageopacity="0"
     inkscape:pageshadow="2"
     inkscape:window-width="1440"
     inkscape:window-height="784"
     id="namedview4"
     showgrid="false"
     fit-margin-top="0"
     fit-margin-left="0"
     fit-margin-right="0"
     fit-margin-bottom="0"
     inkscape:zoom="1.189304"
     inkscape:cx="178.61097"
     inkscape:cy="92.10268"
     inkscape:window-x="0"
     inkscape:window-y="27"
     inkscape:window-maximized="1"
     inkscape:current-layer="g10" /><g
     id="g10"
     inkscape:groupmode="layer"
     inkscape:label="logo cancer de mama"
     transform="matrix(1.3333333,0,0,-1.3333333,18.093222,669.18378)"><g
       id="g1548"><rect
         ry="0"
         transform="scale(1,-1)"
         y="-501.88785"
         x="-13.569917"
         height="194.41951"
         width="194.41951"
         id="rect1117"
         style="opacity:1;fill:none;fill-opacity:1;fill-rule:nonzero;stroke:none;stroke-width:2.83464575;stroke-linecap:round;stroke-linejoin:round;stroke-miterlimit:4;stroke-dasharray:none;stroke-opacity:1" /><g
         transform="translate(3.702519e-6,-2.033747e-6)"
         id="g1535"><g
           clip-path="url(#clipPath106)"
           id="g112"
           style="opacity:1"
           transform="matrix(1.9439738,0,0,1.9439738,-632.74299,-414.47757)"><g
             transform="translate(362.5703,438.8311)"
             id="g110"><path
               d="m 0,0 c -14.592,0 -26.465,-11.873 -26.465,-26.465 0,-14.594 11.873,-26.467 26.465,-26.467 14.594,0 26.467,11.873 26.467,26.467 C 26.467,-11.873 14.594,0 0,0 m 0,-60.908 c -18.992,0 -34.441,15.451 -34.441,34.443 0,18.99 15.449,34.442 34.441,34.442 18.99,0 34.443,-15.452 34.443,-34.442 C 34.443,-45.457 18.99,-60.908 0,-60.908"
               style="fill:#00b7b7;fill-opacity:1;fill-rule:nonzero;stroke:none"
               id="path108"
               inkscape:connector-curvature="0"
               mask="none"
               clip-path="none" /></g></g><g
           clip-path="url(#clipPath122)"
           id="g128"
           style="opacity:1"
           transform="matrix(1.9439738,0,0,1.9439738,-632.74299,-414.47757)"><g
             transform="translate(358.6504,413.2061)"
             id="g126"><path
               d="m 0,0 c -2.15,0 -3.9,-1.75 -3.9,-3.9 0,-2.151 1.75,-3.899 3.9,-3.899 2.148,0 3.898,1.748 3.898,3.899 C 3.898,-1.75 2.148,0 0,0 m 0,-14.18 c -5.67,0 -10.281,4.612 -10.281,10.28 C -10.281,1.77 -5.67,6.381 0,6.381 5.668,6.381 10.279,1.77 10.279,-3.9 10.279,-9.568 5.668,-14.18 0,-14.18"
               style="fill:#00b7b7;fill-opacity:1;fill-rule:nonzero;stroke:none"
               id="path124"
               inkscape:connector-curvature="0"
               mask="none"
               clip-path="none" /></g></g><g
           clip-path="url(#clipPath138)"
           id="g144"
           style="opacity:1"
           transform="matrix(1.9439738,0,0,1.9439738,-632.74299,-414.47757)"><g
             transform="translate(390.5352,456.8662)"
             id="g142"><path
               d="m 0,0 c -5.73,0 -10.393,-4.662 -10.393,-10.389 0,-5.73 4.663,-10.392 10.393,-10.392 5.729,0 10.389,4.662 10.389,10.392 C 10.389,-4.662 5.729,0 0,0 m 0,-28.758 c -10.129,0 -18.369,8.238 -18.369,18.369 0,10.125 8.24,18.364 18.369,18.364 10.125,0 18.365,-8.239 18.365,-18.364 0,-10.131 -8.24,-18.369 -18.365,-18.369"
               style="opacity:1;fill:#00b7b7;fill-opacity:0.99033813;fill-rule:nonzero;stroke:none"
               id="path140"
               inkscape:connector-curvature="0"
               mask="none"
               clip-path="none" /></g></g></g></g><g
       clip-path="url(#clipPath154)"
       id="g160"
       style="opacity:0.69999701"
       transform="matrix(1.9439738,0,0,1.9439738,-632.74299,-414.47757)"><g
         transform="translate(314.5703,438.8311)"
         id="g158" /></g><g
       clip-path="url(#clipPath170)"
       id="g176"
       style="opacity:0.69999701"
       transform="matrix(1.9439738,0,0,1.9439738,-632.74299,-414.47757)"><g
         transform="translate(310.6504,413.2061)"
         id="g174" /></g><g
       clip-path="url(#clipPath186)"
       id="g192"
       style="opacity:0.69999701"
       transform="matrix(1.9439738,0,0,1.9439738,-632.74299,-414.47757)"><g
         transform="translate(342.5352,456.8662)"
         id="g190" /></g><g
       clip-path="url(#clipPath202)"
       id="g208"
       style="opacity:0.69999701"
       transform="matrix(1.9439738,0,0,1.9439738,-632.74299,-414.47757)"><g
         transform="translate(265.5703,438.8311)"
         id="g206" /></g><g
       clip-path="url(#clipPath218)"
       id="g224"
       style="opacity:0.69999701"
       transform="matrix(1.9439738,0,0,1.9439738,-632.74299,-414.47757)"><g
         transform="translate(261.6504,413.2061)"
         id="g222" /></g><g
       clip-path="url(#clipPath234)"
       id="g240"
       style="opacity:0.69999701"
       transform="matrix(1.9439738,0,0,1.9439738,-632.74299,-414.47757)"><g
         transform="translate(293.5352,456.8662)"
         id="g238" /></g></g></svg>