<?xml version="1.0" encoding="UTF-8" standalone="no"?>
<svg
   xmlns:dc="http://purl.org/dc/elements/1.1/"
   xmlns:cc="http://creativecommons.org/ns#"
   xmlns:rdf="http://www.w3.org/1999/02/22-rdf-syntax-ns#"
   xmlns:svg="http://www.w3.org/2000/svg"
   xmlns="http://www.w3.org/2000/svg"
   id="fuveicam"
   version="1.1"
   viewBox="0 0 168.2769 117.49594">
  <defs
     id="defs5242" />
  <metadata
     id="metadata5245">
    <rdf:RDF>
      <cc:Work
         rdf:about="">
        <dc:format>image/svg+xml</dc:format>
        <dc:type
           rdf:resource="http://purl.org/dc/dcmitype/StillImage" />
        <dc:title></dc:title>
      </cc:Work>
    </rdf:RDF>
  </metadata>
  <g
     transform="translate(-7.3317923,-82.147808)"
     id="layer1">
    <g
       transform="matrix(1.2923501,0,0,-1.2923501,-106.15115,1463.6203)"
       id="g5139">
      <path
         id="path1212"
         style="fill:#fa96ba;fill-opacity:1;fill-rule:nonzero;stroke:none"
         d="m 114.2832,1022.5317 c -0.031,0.429 -0.059,0.892 -0.098,1.131 z" />
      <path
         id="path1216"
         style="fill:#fa96ba;fill-opacity:1;fill-rule:nonzero;stroke:none"
         d="m 114.3306,1021.9795 -0.047,0.552 c 0.014,-0.201 0.03,-0.393 0.047,-0.552" />
      <path
         id="path1220"
         style="fill:#fa96ba;fill-opacity:1;fill-rule:nonzero;stroke:none"
         d="m 122.5083,1032.311 c -1.987,-4.362 -3.11,-5.478 -4.081,-6.536 -0.922,-1.006 -2.374,-2.639 -3.76,-3.809 -10e-4,0 0.333,0.01 0.333,0.013 v -0.013 c 0,0.552 -0.651,2.797 -0.722,3.344 -0.243,1.837 -0.556,3.648 -0.51,5.348 0.031,1.695 0.197,3.31 0.701,4.459 0.241,0.587 0.509,0.988 0.82,1.267 0.316,0.275 0.639,0.461 1.124,0.593 0.132,0.021 0.251,0.044 0.38,0.074 0.132,0.026 0.29,0.017 0.434,0.033 l 0.223,0.018 c 0.017,10e-4 -0.017,0 -0.049,0 h 0.084 l 0.174,-0.01 0.69,-0.026 c 0.268,0 0.367,-0.036 0.528,-0.053 l 0.448,-0.051 c 0.311,-0.085 0.663,-0.12 0.943,-0.228 0.615,-0.163 1.07,-0.44 1.469,-0.698 0.304,-0.237 0.511,-0.494 0.68,-0.771 0.025,-0.074 0.41,-1.006 0.302,-1.932 -0.03,-0.26 -0.211,-1.026 -0.211,-1.026 m -23.587,-19.215 c -3.31,-1.5 -10.335,-4.189 -11.11,-4.521 l 2.442,-1.824 -0.43,-2.773 c 0,0 6.226,2.422 7.377,2.935 0.496,0.221 4.017,1.855 4.641,2.113 1.826,0.761 5.989,3.129 8.064,4.35 0.138,-0.503 0.188,-0.685 0.264,-0.969 0.271,-1.008 0.547,-2.011 0.836,-3.03 0.153,-0.515 0.267,-0.962 0.453,-1.521 0.193,-0.548 0.387,-1.099 0.582,-1.653 l 0.299,-0.825 0.367,-0.787 0.743,-1.576 c 0.543,-1.022 1.149,-2.007 1.746,-3 2.549,-3.86 5.775,-7.268 9.458,-10.141 3.672,-2.887 7.817,-5.192 12.158,-7.001 4.347,-1.793 8.91,-3.142 13.558,-3.85 l 1.738,-0.3 c 0.589,-0.074 1.19,-0.125 1.785,-0.187 l 3.569,-0.346 3.356,-0.093 1.678,-0.048 1.832,0.032 c 4.596,0.105 9.189,0.475 13.702,1.265 4.511,0.776 8.953,1.921 13.171,3.594 1.064,0.391 2.089,0.879 3.125,1.326 1.011,0.509 2.035,0.977 3.008,1.546 0.994,0.527 1.942,1.138 2.89,1.731 0.921,0.639 1.854,1.255 2.718,1.962 3.527,2.722 6.501,6.101 8.599,9.859 1.034,1.885 1.856,3.851 2.469,5.845 0.533,2.926 4.012,2.363 4.012,6.641 -0.259,2.345 -1.737,2.821 -2.468,3.947 -0.259,3.233 -0.962,6.197 -1.969,8.913 -0.977,2.904 -2.347,5.593 -4.005,7.938 -1.004,1.443 -2.092,2.766 -3.22,3.987 -2.936,3.4 -6.103,6.139 -8.758,8.323 -3.007,2.474 -5.603,4.609 -6.681,6.652 -1.901,3.601 -0.662,8.868 3.011,12.807 1.03,1.104 0.954,2.82 -0.169,3.832 -1.124,1.013 -2.868,0.939 -3.898,-0.166 -5.293,-5.674 -6.837,-13.299 -3.843,-18.972 1.587,-3.007 4.577,-5.467 8.039,-8.315 6.655,-5.474 15.547,-11.68 16.529,-23.924 0.1,-1.907 0.054,-3.417 -0.132,-5.186 -0.222,-1.713 -0.571,-3.426 -1.119,-5.099 -0.566,-1.666 -1.302,-3.293 -2.211,-4.848 -1.861,-3.087 -4.384,-5.903 -7.488,-8.195 -0.753,-0.596 -1.581,-1.116 -2.39,-1.659 -0.846,-0.502 -1.68,-1.022 -2.571,-1.471 -0.863,-0.486 -1.79,-0.883 -2.695,-1.32 -0.937,-0.381 -1.857,-0.803 -2.826,-1.136 -3.826,-1.431 -7.913,-2.41 -12.099,-3.081 -4.187,-0.677 -8.495,-0.967 -12.827,-1.01 l -1.521,-0.011 -1.676,0.069 -3.354,0.138 -3.113,0.356 c -0.519,0.064 -1.037,0.111 -1.557,0.182 l -1.568,0.296 c -4.209,0.677 -8.283,1.927 -12.131,3.552 -3.842,1.636 -7.474,3.696 -10.64,6.235 -3.164,2.53 -5.955,5.436 -8.07,8.651 -0.485,0.822 -0.991,1.633 -1.434,2.461 l -0.594,1.264 -0.3,0.628 -0.228,0.642 -0.456,1.278 c -0.145,0.421 -0.291,0.973 -0.432,1.446 -0.274,0.962 -0.548,1.935 -0.803,2.9 -0.265,1.001 -0.518,1.996 -0.763,2.988 2.162,1.335 4.477,2.96 6.249,4.773 0.566,0.58 1.802,2.128 3.007,3.853 l 0.024,-0.028 c 1.01,1.288 1.939,2.763 2.637,4.5 0.055,0.127 0.105,0.252 0.148,0.371 0.201,0.454 0.302,0.998 0.444,1.503 0.123,0.52 0.182,1.09 0.237,1.65 0.038,1.16 -0.092,2.413 -0.601,3.632 -0.519,1.203 -1.351,2.303 -2.361,3.126 -1.014,0.784 -2.137,1.391 -3.261,1.745 -0.567,0.212 -1.123,0.308 -1.693,0.455 l -0.911,0.137 c -0.295,0.04 -0.649,0.093 -0.844,0.097 l -0.691,0.044 -0.174,0.012 -0.086,0.01 c 0.082,0 -0.207,0.01 -0.223,0.01 l -0.471,-0.013 c -0.317,-0.016 -0.624,-0.011 -0.952,-0.053 l -0.991,-0.156 c -1.335,-0.282 -2.737,-0.909 -3.838,-1.865 -1.107,-0.945 -1.9,-2.119 -2.402,-3.254 -1.024,-2.294 -1.288,-4.509 -1.382,-6.633 -0.088,-2.133 0.055,-4.206 0.294,-6.261 0.251,-2.093 0.638,-4.126 1.06,-6.196 -0.001,0 -0.775,-0.463 -0.775,-0.463 0,0 -6.766,-3.771 -9.114,-4.835" />
      <path
         id="path1224"
         style="fill:#d67b9f;fill-opacity:1;fill-rule:nonzero;stroke:none"
         d="m 105.9209,1011.1055 c 4.131,1.984 11.271,6.164 15.379,10.078 7.01,6.682 6.694,12.728 3.09,16.089 -2.686,2.504 3.701,-5.109 -4.826,-14.113 -8.527,-9.002 -29.31,-16.408 -29.31,-16.408 -0.228,-0.952 -0.695,-2.917 -0.695,-2.917 l 7.641,3.079 c 0,0 4.16,2 8.721,4.192" />
      <path
         id="path1228"
         style="fill:#d67b9f;fill-opacity:1;fill-rule:nonzero;stroke:none"
         d="m 161.4131,980.3823 c 25.316,-1.134 53.756,9.585 51.262,37.804 -1.97,22.299 -29.17,22.816 -25.19,41.086 1.515,6.957 5.604,8.347 5.986,9.203 -1.116,0.765 -2.662,0.622 -3.607,-0.392 -5.293,-5.675 -6.837,-13.299 -3.843,-18.972 1.587,-3.007 4.577,-5.467 8.039,-8.315 6.655,-5.474 15.547,-11.681 16.529,-23.925 0.1,-1.906 0.054,-3.416 -0.132,-5.185 -0.222,-1.714 -0.571,-3.426 -1.119,-5.099 -0.566,-1.666 -1.302,-3.293 -2.211,-4.849 -1.86,-3.086 -4.383,-5.902 -7.488,-8.194 -0.752,-0.596 -1.581,-1.116 -2.39,-1.659 -0.846,-0.502 -1.68,-1.023 -2.57,-1.471 -0.864,-0.486 -1.791,-0.883 -2.696,-1.321 -0.937,-0.38 -1.857,-0.802 -2.825,-1.135 -3.827,-1.431 -7.913,-2.41 -12.099,-3.081 -4.188,-0.677 -8.496,-0.968 -12.828,-1.01 l -1.521,-0.011 -1.675,0.069 -3.354,0.138 -3.114,0.356 c -0.519,0.064 -1.037,0.111 -1.556,0.182 l -1.569,0.296 c -4.209,0.676 -8.282,1.927 -12.131,3.551 -3.842,1.637 -7.474,3.697 -10.64,6.235 -3.164,2.531 -5.954,5.437 -8.07,8.652 -0.485,0.821 -0.991,1.632 -1.434,2.461 l -0.594,1.263 -0.3,0.629 -0.228,0.641 -0.456,1.279 c -0.145,0.421 -0.291,0.973 -0.432,1.446 -0.274,0.962 -0.548,1.934 -0.803,2.899 -0.284,1.073 -0.556,2.139 -0.816,3.201 -0.006,0.029 -0.254,1.013 -0.524,2.085 l -2.858,-2.018 c 3.355,-15.732 16.535,-35.372 49.257,-36.839" />
      <path
         d="m 109.9053,1013.2002 c 0,0 0.696,-2.426 0.968,-3.367 0,0 5.737,4.089 5.285,4.834 l -0.561,2.049 z"
         style="fill:#333333;fill-opacity:1;fill-rule:nonzero;stroke:none"
         id="path1238" />
      <path
         id="path1248"
         style="fill:#d67b9f;fill-opacity:1;fill-rule:nonzero;stroke:none"
         d="m 120.4282,1039.4653 c -2.258,0.398 -6.093,0.77 -8.654,-2.718 -1.723,-2.346 -0.791,-11.396 -0.091,-16.498 l 2.641,1.761 c -0.093,0.613 -0.311,2.766 -0.381,3.299 -0.242,1.838 -0.388,3.649 -0.342,5.349 0.03,1.695 0.28,3.31 0.785,4.459 0.24,0.587 0.55,0.988 0.861,1.266 0.317,0.275 0.66,0.462 1.145,0.593 0.132,0.021 0.261,0.045 0.391,0.074 0.133,0.026 0.295,0.018 0.439,0.034 l 0.225,0.017 c 0.018,0 -0.015,0 -0.047,0 h 0.085 l 0.174,-0.01 0.69,-0.025 c 0.268,0 0.368,-0.036 0.528,-0.054 l 0.448,-0.051 c 0.311,-0.084 0.664,-0.12 0.943,-0.227 0.615,-0.164 1.07,-0.44 1.469,-0.699 0.366,-0.286 0.596,-0.597 0.782,-0.945 0.783,-0.944 1.517,-2.752 1.483,-3.672 -0.013,-0.353 -0.016,-1.592 -0.073,-1.916 l 1.396,2.165 c 2.102,4.602 -2.639,7.396 -4.897,7.794" />
      <path
         id="path1252"
         style="fill:#fa96ba;fill-opacity:1;fill-rule:nonzero;stroke:none"
         d="m 156.6934,997.5767 c -0.286,0 -0.549,0.042 -0.791,0.126 -0.242,0.085 -0.45,0.21 -0.624,0.377 -0.173,0.167 -0.308,0.375 -0.403,0.625 -0.096,0.249 -0.144,0.538 -0.144,0.865 0,0.304 0.045,0.581 0.137,0.828 0.092,0.248 0.223,0.461 0.398,0.638 0.166,0.17 0.373,0.302 0.62,0.395 0.247,0.093 0.517,0.139 0.809,0.139 0.162,0 0.308,-0.01 0.438,-0.027 0.13,-0.018 0.25,-0.042 0.36,-0.071 0.115,-0.033 0.22,-0.069 0.314,-0.109 0.093,-0.041 0.176,-0.078 0.246,-0.113 v -0.932 h -0.113 c -0.048,0.041 -0.109,0.09 -0.182,0.147 -0.073,0.056 -0.156,0.112 -0.25,0.166 -0.094,0.055 -0.196,0.101 -0.306,0.139 -0.111,0.038 -0.228,0.057 -0.354,0.057 -0.139,0 -0.272,-0.022 -0.398,-0.066 -0.125,-0.043 -0.241,-0.116 -0.348,-0.218 -0.101,-0.098 -0.184,-0.227 -0.247,-0.388 -0.063,-0.162 -0.094,-0.358 -0.094,-0.587 0,-0.241 0.035,-0.442 0.102,-0.604 0.068,-0.161 0.154,-0.288 0.257,-0.381 0.105,-0.094 0.222,-0.162 0.351,-0.202 0.129,-0.04 0.257,-0.061 0.382,-0.061 0.121,0 0.24,0.018 0.358,0.055 0.118,0.035 0.226,0.084 0.327,0.146 0.084,0.05 0.162,0.102 0.234,0.16 0.072,0.055 0.131,0.104 0.178,0.145 h 0.103 v -0.918 c -0.096,-0.044 -0.189,-0.083 -0.276,-0.122 -0.088,-0.038 -0.18,-0.07 -0.276,-0.098 -0.126,-0.036 -0.244,-0.063 -0.354,-0.082 -0.11,-0.02 -0.262,-0.029 -0.454,-0.029" />
      <path
         id="path1256"
         style="fill:#fa96ba;fill-opacity:1;fill-rule:nonzero;stroke:none"
         d="m 160.4854,998.4097 v 0.602 c -0.125,-0.01 -0.262,-0.024 -0.408,-0.042 -0.147,-0.018 -0.258,-0.039 -0.333,-0.063 -0.093,-0.029 -0.164,-0.072 -0.213,-0.128 -0.049,-0.056 -0.073,-0.129 -0.073,-0.22 0,-0.06 0.005,-0.108 0.015,-0.147 0.01,-0.037 0.036,-0.073 0.077,-0.107 0.04,-0.035 0.087,-0.06 0.142,-0.077 0.056,-0.016 0.142,-0.024 0.258,-0.024 0.093,0 0.188,0.019 0.283,0.057 0.096,0.038 0.18,0.087 0.252,0.149 m 0.495,3.568 v -0.051 l -0.908,-0.963 h -0.635 l 0.638,1.014 z m -0.495,-4.019 c -0.05,-0.038 -0.112,-0.083 -0.187,-0.137 -0.073,-0.053 -0.143,-0.095 -0.208,-0.126 -0.091,-0.042 -0.186,-0.072 -0.284,-0.092 -0.098,-0.02 -0.206,-0.029 -0.323,-0.029 -0.275,0 -0.505,0.085 -0.691,0.255 -0.186,0.17 -0.279,0.388 -0.279,0.653 0,0.212 0.047,0.385 0.142,0.519 0.095,0.134 0.229,0.24 0.402,0.317 0.173,0.078 0.386,0.133 0.64,0.166 0.255,0.032 0.519,0.057 0.793,0.071 v 0.016 c 0,0.16 -0.065,0.271 -0.195,0.332 -0.132,0.061 -0.325,0.091 -0.579,0.091 -0.153,0 -0.317,-0.026 -0.491,-0.081 -0.174,-0.054 -0.298,-0.096 -0.374,-0.125 h -0.085 v 0.7 c 0.098,0.025 0.258,0.056 0.478,0.091 0.221,0.036 0.444,0.054 0.665,0.054 0.528,0 0.91,-0.082 1.145,-0.245 0.235,-0.162 0.352,-0.418 0.352,-0.765 v -1.972 h -0.921 z" />
      <path
         id="path1260"
         style="fill:#fa96ba;fill-opacity:1;fill-rule:nonzero;stroke:none"
         d="m 165.1724,997.6514 h -0.932 v 1.438 c 0,0.117 -0.005,0.233 -0.018,0.349 -0.012,0.117 -0.032,0.202 -0.062,0.258 -0.034,0.063 -0.084,0.11 -0.151,0.139 -0.066,0.029 -0.158,0.044 -0.277,0.044 -0.084,0 -0.17,-0.014 -0.257,-0.041 -0.087,-0.028 -0.181,-0.072 -0.283,-0.132 v -2.055 h -0.931 v 2.899 h 0.931 v -0.32 c 0.166,0.129 0.324,0.228 0.476,0.296 0.152,0.069 0.321,0.104 0.506,0.104 0.313,0 0.558,-0.091 0.734,-0.274 0.176,-0.183 0.264,-0.455 0.264,-0.818 z" />
      <path
         id="path1264"
         style="fill:#fa96ba;fill-opacity:1;fill-rule:nonzero;stroke:none"
         d="m 167.5371,997.5742 c -0.253,0 -0.484,0.03 -0.693,0.09 -0.209,0.06 -0.391,0.154 -0.547,0.279 -0.152,0.126 -0.271,0.284 -0.356,0.475 -0.084,0.191 -0.126,0.415 -0.126,0.671 0,0.27 0.046,0.504 0.136,0.7 0.09,0.196 0.216,0.358 0.378,0.487 0.156,0.123 0.337,0.213 0.541,0.269 0.206,0.057 0.418,0.085 0.639,0.085 0.197,0 0.38,-0.021 0.547,-0.064 0.167,-0.043 0.322,-0.099 0.467,-0.168 v -0.793 h -0.132 c -0.035,0.032 -0.079,0.067 -0.129,0.109 -0.051,0.041 -0.114,0.082 -0.188,0.121 -0.07,0.038 -0.147,0.069 -0.231,0.094 -0.085,0.025 -0.183,0.038 -0.295,0.038 -0.247,0 -0.437,-0.079 -0.57,-0.236 -0.133,-0.158 -0.2,-0.372 -0.2,-0.642 0,-0.279 0.069,-0.49 0.205,-0.635 0.136,-0.144 0.33,-0.217 0.581,-0.217 0.117,0 0.222,0.014 0.316,0.04 0.094,0.027 0.171,0.058 0.233,0.094 0.058,0.035 0.11,0.071 0.154,0.109 0.045,0.037 0.086,0.075 0.124,0.111 h 0.132 v -0.793 c -0.147,-0.068 -0.299,-0.123 -0.459,-0.163 -0.159,-0.041 -0.334,-0.061 -0.527,-0.061" />
      <path
         id="path1268"
         style="fill:#fa96ba;fill-opacity:1;fill-rule:nonzero;stroke:none"
         d="m 171.0684,999.4741 c -0.005,0.194 -0.054,0.34 -0.145,0.439 -0.091,0.098 -0.233,0.147 -0.426,0.147 -0.179,0 -0.325,-0.047 -0.441,-0.14 -0.116,-0.093 -0.179,-0.241 -0.194,-0.446 z m 0.924,-0.545 h -2.127 c 0.014,-0.227 0.1,-0.401 0.26,-0.521 0.158,-0.121 0.393,-0.181 0.703,-0.181 0.196,0 0.386,0.035 0.57,0.106 0.184,0.07 0.33,0.146 0.436,0.227 h 0.104 v -0.746 c -0.21,-0.084 -0.408,-0.145 -0.594,-0.183 -0.186,-0.038 -0.391,-0.057 -0.617,-0.057 -0.582,0 -1.027,0.13 -1.337,0.392 -0.31,0.262 -0.465,0.634 -0.465,1.118 0,0.478 0.147,0.857 0.44,1.137 0.294,0.279 0.696,0.42 1.207,0.42 0.472,0 0.826,-0.12 1.064,-0.358 0.237,-0.238 0.356,-0.581 0.356,-1.028 z" />
      <path
         id="path1272"
         style="fill:#fa96ba;fill-opacity:1;fill-rule:nonzero;stroke:none"
         d="m 174.7485,999.665 h -0.082 c -0.04,0.014 -0.104,0.024 -0.191,0.031 -0.087,0.007 -0.16,0.011 -0.219,0.011 -0.132,0 -0.248,-0.01 -0.35,-0.026 -0.101,-0.018 -0.21,-0.047 -0.327,-0.088 v -1.942 h -0.932 v 2.899 h 0.932 v -0.426 c 0.204,0.176 0.381,0.292 0.534,0.35 0.15,0.058 0.289,0.087 0.416,0.087 0.033,0 0.07,0 0.111,0 0.041,0 0.078,0 0.108,-0.01 z" />
      <path
         id="path1276"
         style="fill:#666666;fill-opacity:1;fill-rule:nonzero;stroke:none"
         d="m 129.603,1013.5371 h -2.083 v -1.097 h 1.791 v -0.459 h -1.791 v -1.873 h -0.549 v 3.889 h 2.632 z" />
      <path
         id="path1280"
         style="fill:#666666;fill-opacity:1;fill-rule:nonzero;stroke:none"
         d="m 132.7041,1010.1084 h -0.52 v 0.324 c -0.175,-0.131 -0.343,-0.231 -0.503,-0.301 -0.161,-0.069 -0.338,-0.104 -0.532,-0.104 -0.325,0 -0.578,0.094 -0.758,0.281 -0.181,0.187 -0.272,0.462 -0.272,0.823 v 1.894 h 0.521 v -1.661 c 0,-0.148 0.007,-0.275 0.022,-0.38 0.015,-0.105 0.046,-0.195 0.094,-0.27 0.05,-0.077 0.115,-0.133 0.194,-0.168 0.079,-0.034 0.194,-0.051 0.346,-0.051 0.134,0 0.281,0.032 0.44,0.099 0.16,0.066 0.309,0.15 0.448,0.253 v 2.178 h 0.52 z" />
      <path
         id="path1284"
         style="fill:#666666;fill-opacity:1;fill-rule:nonzero;stroke:none"
         d="m 136.2676,1010.1084 h -0.521 v 1.661 c 0,0.133 -0.007,0.259 -0.024,0.377 -0.017,0.118 -0.047,0.209 -0.091,0.276 -0.047,0.072 -0.113,0.127 -0.199,0.163 -0.087,0.035 -0.2,0.053 -0.338,0.053 -0.142,0 -0.291,-0.033 -0.446,-0.099 -0.154,-0.066 -0.303,-0.151 -0.445,-0.253 v -2.178 h -0.521 v 2.917 h 0.521 v -0.324 c 0.162,0.127 0.33,0.227 0.503,0.298 0.173,0.071 0.352,0.107 0.534,0.107 0.334,0 0.589,-0.095 0.764,-0.285 0.176,-0.19 0.263,-0.463 0.263,-0.82 z" />
      <path
         id="path1288"
         style="fill:#666666;fill-opacity:1;fill-rule:nonzero;stroke:none"
         d="m 139.2109,1010.8267 v 1.673 c -0.14,0.06 -0.265,0.101 -0.376,0.123 -0.111,0.023 -0.232,0.035 -0.362,0.035 -0.292,0 -0.519,-0.097 -0.681,-0.288 -0.163,-0.191 -0.244,-0.463 -0.244,-0.815 0,-0.346 0.063,-0.609 0.188,-0.789 0.126,-0.181 0.326,-0.271 0.603,-0.271 0.148,0 0.298,0.031 0.449,0.093 0.152,0.062 0.293,0.142 0.423,0.239 m 0.521,-0.718 h -0.521 v 0.305 c -0.149,-0.122 -0.305,-0.216 -0.467,-0.284 -0.163,-0.068 -0.339,-0.102 -0.529,-0.102 -0.369,0 -0.662,0.133 -0.879,0.402 -0.216,0.268 -0.325,0.64 -0.325,1.115 0,0.247 0.037,0.467 0.112,0.66 0.075,0.194 0.176,0.358 0.303,0.494 0.126,0.132 0.272,0.233 0.439,0.303 0.167,0.07 0.34,0.105 0.519,0.105 0.162,0 0.306,-0.017 0.431,-0.049 0.126,-0.032 0.258,-0.082 0.396,-0.15 v 1.264 h 0.521 z" />
      <path
         id="path1292"
         style="fill:#666666;fill-opacity:1;fill-rule:nonzero;stroke:none"
         d="m 142.5947,1010.8267 v 0.812 c -0.158,-0.01 -0.345,-0.021 -0.561,-0.039 -0.214,-0.018 -0.384,-0.043 -0.51,-0.076 -0.15,-0.04 -0.27,-0.103 -0.362,-0.187 -0.092,-0.084 -0.139,-0.2 -0.139,-0.348 0,-0.168 0.054,-0.293 0.161,-0.377 0.107,-0.085 0.27,-0.127 0.489,-0.127 0.183,0 0.35,0.033 0.501,0.1 0.152,0.067 0.292,0.148 0.421,0.242 m 0.518,-0.718 h -0.518 v 0.311 c -0.046,-0.03 -0.108,-0.071 -0.187,-0.125 -0.078,-0.052 -0.154,-0.095 -0.229,-0.126 -0.085,-0.04 -0.186,-0.073 -0.298,-0.101 -0.113,-0.027 -0.244,-0.04 -0.396,-0.04 -0.279,0 -0.515,0.087 -0.708,0.26 -0.194,0.175 -0.291,0.397 -0.291,0.666 0,0.222 0.05,0.4 0.151,0.538 0.101,0.136 0.244,0.244 0.431,0.322 0.188,0.078 0.414,0.131 0.677,0.159 0.265,0.028 0.547,0.048 0.85,0.063 v 0.076 c 0,0.111 -0.021,0.203 -0.062,0.277 -0.042,0.072 -0.101,0.13 -0.178,0.172 -0.074,0.04 -0.163,0.067 -0.266,0.081 -0.104,0.014 -0.211,0.02 -0.324,0.02 -0.137,0 -0.289,-0.017 -0.457,-0.05 -0.168,-0.035 -0.341,-0.084 -0.52,-0.148 h -0.028 v 0.499 c 0.102,0.026 0.249,0.054 0.44,0.086 0.192,0.031 0.381,0.047 0.568,0.047 0.217,0 0.406,-0.018 0.568,-0.051 0.162,-0.034 0.302,-0.092 0.42,-0.174 0.116,-0.08 0.204,-0.183 0.265,-0.31 0.061,-0.127 0.092,-0.285 0.092,-0.473 z" />
      <path
         id="path1296"
         style="fill:#666666;fill-opacity:1;fill-rule:nonzero;stroke:none"
         d="m 146.355,1010.2915 c -0.173,-0.079 -0.338,-0.14 -0.494,-0.183 -0.155,-0.044 -0.321,-0.066 -0.497,-0.066 -0.223,0 -0.428,0.031 -0.614,0.093 -0.187,0.062 -0.347,0.156 -0.479,0.281 -0.135,0.125 -0.24,0.284 -0.313,0.475 -0.074,0.192 -0.11,0.416 -0.11,0.671 0,0.478 0.138,0.852 0.417,1.123 0.277,0.272 0.644,0.408 1.099,0.408 0.178,0 0.352,-0.024 0.522,-0.071 0.171,-0.047 0.327,-0.105 0.469,-0.172 v -0.546 h -0.027 c -0.16,0.117 -0.323,0.206 -0.492,0.269 -0.169,0.063 -0.334,0.094 -0.494,0.094 -0.296,0 -0.528,-0.093 -0.698,-0.281 -0.171,-0.187 -0.257,-0.462 -0.257,-0.824 0,-0.351 0.084,-0.622 0.251,-0.811 0.167,-0.189 0.401,-0.283 0.704,-0.283 0.105,0 0.212,0.013 0.321,0.039 0.109,0.026 0.206,0.061 0.294,0.103 0.075,0.036 0.146,0.075 0.212,0.116 0.067,0.041 0.12,0.076 0.159,0.106 h 0.027 z" />
      <path
         d="m 147.502,1010.108 h -0.521 v 2.917 h 0.521 z m 0.033,3.406 h -0.586 v 0.509 h 0.586 z"
         style="fill:#666666;fill-opacity:1;fill-rule:nonzero;stroke:none"
         id="path1298" />
      <path
         id="path1302"
         style="fill:#666666;fill-opacity:1;fill-rule:nonzero;stroke:none"
         d="m 150.5566,1014.4854 -0.756,-0.977 h -0.412 l 0.495,0.977 z m 0.028,-2.919 c 0,0.377 -0.079,0.657 -0.236,0.841 -0.157,0.184 -0.374,0.276 -0.653,0.276 -0.282,0 -0.501,-0.092 -0.658,-0.276 -0.155,-0.184 -0.232,-0.464 -0.232,-0.841 0,-0.367 0.077,-0.644 0.234,-0.832 0.157,-0.189 0.376,-0.284 0.656,-0.284 0.277,0 0.494,0.094 0.652,0.281 0.157,0.187 0.237,0.465 0.237,0.835 m 0.536,0 c 0,-0.477 -0.129,-0.851 -0.387,-1.126 -0.259,-0.275 -0.604,-0.413 -1.038,-0.413 -0.437,0 -0.785,0.138 -1.042,0.413 -0.257,0.275 -0.386,0.649 -0.386,1.126 0,0.475 0.129,0.85 0.386,1.126 0.257,0.275 0.605,0.414 1.042,0.414 0.434,0 0.779,-0.139 1.038,-0.414 0.258,-0.276 0.387,-0.651 0.387,-1.126" />
      <path
         id="path1306"
         style="fill:#666666;fill-opacity:1;fill-rule:nonzero;stroke:none"
         d="m 154.4658,1010.1084 h -0.52 v 1.661 c 0,0.133 -0.009,0.259 -0.025,0.377 -0.017,0.118 -0.047,0.209 -0.091,0.276 -0.047,0.072 -0.113,0.127 -0.2,0.163 -0.086,0.035 -0.199,0.053 -0.337,0.053 -0.142,0 -0.291,-0.033 -0.446,-0.099 -0.155,-0.066 -0.303,-0.151 -0.445,-0.253 v -2.178 h -0.521 v 2.917 h 0.521 v -0.324 c 0.161,0.127 0.33,0.227 0.503,0.298 0.173,0.071 0.351,0.107 0.534,0.107 0.334,0 0.589,-0.095 0.764,-0.285 0.175,-0.19 0.263,-0.463 0.263,-0.82 z" />
      <path
         id="path1310"
         style="fill:#666666;fill-opacity:1;fill-rule:nonzero;stroke:none"
         d="m 160.6592,1013.9971 -1.5,-3.889 h -0.73 l -1.499,3.889 h 0.585 l 1.293,-3.421 1.292,3.421 z" />
      <path
         id="path1314"
         style="fill:#666666;fill-opacity:1;fill-rule:nonzero;stroke:none"
         d="m 163.0029,1011.8916 c -0.002,0.258 -0.07,0.457 -0.207,0.598 -0.135,0.141 -0.341,0.212 -0.617,0.212 -0.28,0 -0.501,-0.078 -0.666,-0.233 -0.165,-0.155 -0.259,-0.347 -0.281,-0.577 z m 0.507,-0.375 h -2.278 c 0,-0.18 0.029,-0.336 0.085,-0.47 0.058,-0.133 0.136,-0.241 0.236,-0.327 0.096,-0.083 0.21,-0.146 0.342,-0.188 0.131,-0.042 0.277,-0.063 0.435,-0.063 0.211,0 0.423,0.04 0.635,0.119 0.214,0.079 0.365,0.157 0.455,0.233 h 0.028 v -0.534 c -0.174,-0.07 -0.354,-0.129 -0.537,-0.176 -0.182,-0.047 -0.373,-0.07 -0.575,-0.07 -0.513,0 -0.913,0.131 -1.201,0.393 -0.288,0.262 -0.432,0.634 -0.432,1.116 0,0.477 0.138,0.856 0.414,1.136 0.277,0.28 0.638,0.421 1.089,0.421 0.417,0 0.738,-0.115 0.965,-0.345 0.226,-0.23 0.339,-0.557 0.339,-0.979 z" />
      <path
         id="path1318"
         style="fill:#666666;fill-opacity:1;fill-rule:nonzero;stroke:none"
         d="m 166.8374,1010.1084 h -0.52 v 1.661 c 0,0.133 -0.008,0.259 -0.025,0.377 -0.017,0.118 -0.047,0.209 -0.091,0.276 -0.046,0.072 -0.113,0.127 -0.199,0.163 -0.087,0.035 -0.2,0.053 -0.338,0.053 -0.142,0 -0.29,-0.033 -0.446,-0.099 -0.154,-0.066 -0.303,-0.151 -0.445,-0.253 v -2.178 h -0.52 v 2.917 h 0.52 v -0.324 c 0.162,0.127 0.33,0.227 0.504,0.298 0.173,0.071 0.351,0.107 0.534,0.107 0.334,0 0.589,-0.095 0.763,-0.285 0.176,-0.19 0.263,-0.463 0.263,-0.82 z" />
      <path
         id="path1322"
         style="fill:#666666;fill-opacity:1;fill-rule:nonzero;stroke:none"
         d="m 169.875,1011.8916 c -0.002,0.258 -0.07,0.457 -0.206,0.598 -0.136,0.141 -0.342,0.212 -0.619,0.212 -0.278,0 -0.5,-0.078 -0.665,-0.233 -0.165,-0.155 -0.259,-0.347 -0.281,-0.577 z m 0.507,-0.375 h -2.278 c 0,-0.18 0.029,-0.336 0.086,-0.47 0.057,-0.133 0.135,-0.241 0.235,-0.327 0.096,-0.083 0.21,-0.146 0.343,-0.188 0.131,-0.042 0.276,-0.063 0.435,-0.063 0.21,0 0.422,0.04 0.635,0.119 0.213,0.079 0.365,0.157 0.455,0.233 h 0.028 v -0.534 c -0.176,-0.07 -0.355,-0.129 -0.537,-0.176 -0.182,-0.047 -0.375,-0.07 -0.576,-0.07 -0.513,0 -0.913,0.131 -1.201,0.393 -0.287,0.262 -0.432,0.634 -0.432,1.116 0,0.477 0.138,0.856 0.414,1.136 0.276,0.28 0.639,0.421 1.089,0.421 0.417,0 0.738,-0.115 0.965,-0.345 0.226,-0.23 0.339,-0.557 0.339,-0.979 z" />
      <path
         id="path1326"
         style="fill:#666666;fill-opacity:1;fill-rule:nonzero;stroke:none"
         d="m 173.3667,1010.1084 h -2.496 v 0.363 l 1.802,2.144 h -1.764 v 0.41 h 2.411 v -0.35 l -1.81,-2.152 h 1.857 z" />
      <path
         id="path1330"
         style="fill:#666666;fill-opacity:1;fill-rule:nonzero;stroke:none"
         d="m 176.1221,1011.5659 c 0,0.377 -0.079,0.658 -0.236,0.842 -0.156,0.183 -0.374,0.276 -0.652,0.276 -0.282,0 -0.501,-0.093 -0.657,-0.276 -0.156,-0.184 -0.234,-0.465 -0.234,-0.842 0,-0.366 0.078,-0.644 0.235,-0.832 0.157,-0.189 0.376,-0.283 0.656,-0.283 0.276,0 0.493,0.094 0.651,0.28 0.158,0.188 0.237,0.465 0.237,0.835 m 0.537,0 c 0,-0.476 -0.129,-0.851 -0.387,-1.126 -0.258,-0.275 -0.604,-0.412 -1.038,-0.412 -0.438,0 -0.785,0.137 -1.042,0.412 -0.258,0.275 -0.386,0.65 -0.386,1.126 0,0.475 0.128,0.851 0.386,1.126 0.257,0.276 0.604,0.415 1.042,0.415 0.434,0 0.78,-0.139 1.038,-0.415 0.258,-0.275 0.387,-0.651 0.387,-1.126" />
      <path
         d="m 177.945,1010.108 h -0.52 v 4.063 h 0.52 z"
         style="fill:#666666;fill-opacity:1;fill-rule:nonzero;stroke:none"
         id="path1332" />
      <path
         id="path1336"
         style="fill:#666666;fill-opacity:1;fill-rule:nonzero;stroke:none"
         d="m 180.814,1010.8267 v 0.812 c -0.159,-0.01 -0.346,-0.021 -0.561,-0.039 -0.215,-0.018 -0.385,-0.043 -0.511,-0.076 -0.148,-0.04 -0.27,-0.103 -0.362,-0.187 -0.092,-0.084 -0.138,-0.2 -0.138,-0.348 0,-0.168 0.053,-0.293 0.161,-0.377 0.106,-0.085 0.269,-0.127 0.489,-0.127 0.183,0 0.349,0.033 0.501,0.1 0.151,0.067 0.291,0.148 0.421,0.242 m 0.517,-0.718 h -0.517 v 0.311 c -0.046,-0.03 -0.108,-0.071 -0.187,-0.125 -0.078,-0.052 -0.154,-0.095 -0.229,-0.126 -0.086,-0.04 -0.186,-0.073 -0.298,-0.101 -0.113,-0.027 -0.244,-0.04 -0.396,-0.04 -0.279,0 -0.515,0.087 -0.708,0.26 -0.194,0.175 -0.292,0.397 -0.292,0.666 0,0.222 0.051,0.4 0.152,0.538 0.1,0.136 0.243,0.244 0.43,0.322 0.188,0.078 0.414,0.131 0.678,0.159 0.264,0.028 0.547,0.048 0.85,0.063 v 0.076 c 0,0.111 -0.021,0.203 -0.063,0.277 -0.041,0.072 -0.1,0.13 -0.178,0.172 -0.074,0.04 -0.163,0.067 -0.266,0.081 -0.103,0.014 -0.211,0.02 -0.324,0.02 -0.136,0 -0.289,-0.017 -0.456,-0.05 -0.168,-0.035 -0.341,-0.084 -0.521,-0.148 h -0.027 v 0.499 c 0.102,0.026 0.248,0.054 0.44,0.086 0.192,0.031 0.381,0.047 0.567,0.047 0.218,0 0.407,-0.018 0.569,-0.051 0.161,-0.034 0.301,-0.092 0.419,-0.174 0.116,-0.08 0.204,-0.183 0.266,-0.31 0.061,-0.127 0.091,-0.285 0.091,-0.473 z" />
      <path
         id="path1340"
         style="fill:#666666;fill-opacity:1;fill-rule:nonzero;stroke:none"
         d="m 184.8721,1010.1084 h -0.52 v 1.661 c 0,0.133 -0.008,0.259 -0.025,0.377 -0.016,0.118 -0.047,0.209 -0.091,0.276 -0.046,0.072 -0.113,0.127 -0.199,0.163 -0.087,0.035 -0.199,0.053 -0.338,0.053 -0.142,0 -0.29,-0.033 -0.445,-0.099 -0.155,-0.066 -0.304,-0.151 -0.446,-0.253 v -2.178 h -0.52 v 2.917 h 0.52 v -0.324 c 0.162,0.127 0.33,0.227 0.503,0.298 0.174,0.071 0.353,0.107 0.535,0.107 0.334,0 0.589,-0.095 0.763,-0.285 0.176,-0.19 0.263,-0.463 0.263,-0.82 z" />
      <path
         id="path1344"
         style="fill:#666666;fill-opacity:1;fill-rule:nonzero;stroke:none"
         d="m 187.7139,1010.8267 v 0.812 c -0.16,-0.01 -0.346,-0.021 -0.561,-0.039 -0.215,-0.018 -0.385,-0.043 -0.511,-0.076 -0.149,-0.04 -0.27,-0.103 -0.362,-0.187 -0.092,-0.084 -0.138,-0.2 -0.138,-0.348 0,-0.168 0.053,-0.293 0.16,-0.377 0.107,-0.085 0.271,-0.127 0.49,-0.127 0.183,0 0.349,0.033 0.501,0.1 0.151,0.067 0.291,0.148 0.421,0.242 m 0.517,-0.718 h -0.517 v 0.311 c -0.047,-0.03 -0.108,-0.071 -0.187,-0.125 -0.079,-0.052 -0.155,-0.095 -0.229,-0.126 -0.086,-0.04 -0.186,-0.073 -0.298,-0.101 -0.113,-0.027 -0.245,-0.04 -0.396,-0.04 -0.279,0 -0.515,0.087 -0.708,0.26 -0.195,0.175 -0.291,0.397 -0.291,0.666 0,0.222 0.05,0.4 0.151,0.538 0.1,0.136 0.243,0.244 0.429,0.322 0.189,0.078 0.415,0.131 0.679,0.159 0.264,0.028 0.547,0.048 0.85,0.063 v 0.076 c 0,0.111 -0.021,0.203 -0.062,0.277 -0.042,0.072 -0.101,0.13 -0.179,0.172 -0.074,0.04 -0.163,0.067 -0.266,0.081 -0.103,0.014 -0.211,0.02 -0.324,0.02 -0.136,0 -0.288,-0.017 -0.456,-0.05 -0.168,-0.035 -0.342,-0.084 -0.52,-0.148 h -0.028 v 0.499 c 0.101,0.026 0.248,0.054 0.44,0.086 0.192,0.031 0.381,0.047 0.567,0.047 0.218,0 0.407,-0.018 0.568,-0.051 0.162,-0.034 0.302,-0.092 0.42,-0.174 0.117,-0.08 0.205,-0.183 0.266,-0.31 0.061,-0.127 0.091,-0.285 0.091,-0.473 z" />
      <path
         id="path1348"
         style="fill:#666666;fill-opacity:1;fill-rule:nonzero;stroke:none"
         d="m 193.3184,1011.5889 c 0,0.352 -0.064,0.615 -0.191,0.789 -0.127,0.174 -0.323,0.261 -0.587,0.261 -0.149,0 -0.3,-0.03 -0.451,-0.091 -0.151,-0.062 -0.296,-0.142 -0.434,-0.241 v -1.653 c 0.147,-0.062 0.274,-0.105 0.38,-0.127 0.106,-0.023 0.227,-0.034 0.361,-0.034 0.29,0 0.516,0.092 0.678,0.276 0.162,0.185 0.244,0.458 0.244,0.82 m 0.537,0.013 c 0,-0.237 -0.036,-0.453 -0.107,-0.649 -0.073,-0.196 -0.175,-0.361 -0.305,-0.497 -0.122,-0.129 -0.266,-0.229 -0.431,-0.299 -0.165,-0.07 -0.34,-0.106 -0.524,-0.106 -0.16,0 -0.306,0.017 -0.436,0.05 -0.13,0.033 -0.262,0.084 -0.397,0.154 v -1.222 h -0.521 v 3.993 h 0.521 v -0.306 c 0.138,0.11 0.294,0.202 0.466,0.275 0.173,0.074 0.357,0.112 0.552,0.112 0.373,0 0.663,-0.133 0.87,-0.399 0.209,-0.265 0.312,-0.634 0.312,-1.106" />
      <path
         id="path1352"
         style="fill:#666666;fill-opacity:1;fill-rule:nonzero;stroke:none"
         d="m 196.5059,1010.8267 v 0.812 c -0.159,-0.01 -0.346,-0.021 -0.561,-0.039 -0.215,-0.018 -0.385,-0.043 -0.51,-0.076 -0.15,-0.04 -0.271,-0.103 -0.363,-0.187 -0.092,-0.084 -0.138,-0.2 -0.138,-0.348 0,-0.168 0.053,-0.293 0.16,-0.377 0.107,-0.085 0.271,-0.127 0.49,-0.127 0.183,0 0.35,0.033 0.501,0.1 0.151,0.067 0.291,0.148 0.421,0.242 m 0.517,-0.718 h -0.517 v 0.311 c -0.047,-0.03 -0.109,-0.071 -0.187,-0.125 -0.079,-0.052 -0.155,-0.095 -0.229,-0.126 -0.086,-0.04 -0.186,-0.073 -0.299,-0.101 -0.112,-0.027 -0.244,-0.04 -0.395,-0.04 -0.279,0 -0.515,0.087 -0.708,0.26 -0.194,0.175 -0.291,0.397 -0.291,0.666 0,0.222 0.05,0.4 0.151,0.538 0.1,0.136 0.244,0.244 0.43,0.322 0.188,0.078 0.414,0.131 0.678,0.159 0.263,0.028 0.546,0.048 0.85,0.063 v 0.076 c 0,0.111 -0.021,0.203 -0.063,0.277 -0.041,0.072 -0.101,0.13 -0.178,0.172 -0.074,0.04 -0.163,0.067 -0.266,0.081 -0.103,0.014 -0.211,0.02 -0.325,0.02 -0.135,0 -0.288,-0.017 -0.455,-0.05 -0.168,-0.035 -0.341,-0.084 -0.521,-0.148 h -0.027 v 0.499 c 0.101,0.026 0.248,0.054 0.44,0.086 0.191,0.031 0.381,0.047 0.567,0.047 0.218,0 0.407,-0.018 0.569,-0.051 0.161,-0.034 0.301,-0.092 0.419,-0.174 0.116,-0.08 0.205,-0.183 0.266,-0.31 0.061,-0.127 0.091,-0.285 0.091,-0.473 z" />
      <path
         id="path1356"
         style="fill:#666666;fill-opacity:1;fill-rule:nonzero;stroke:none"
         d="m 199.9082,1012.4897 h -0.028 c -0.076,0.018 -0.152,0.03 -0.225,0.038 -0.073,0.01 -0.16,0.012 -0.259,0.012 -0.16,0 -0.316,-0.033 -0.465,-0.101 -0.149,-0.067 -0.294,-0.154 -0.431,-0.26 v -2.07 h -0.521 v 2.917 h 0.521 v -0.432 c 0.206,0.158 0.388,0.268 0.546,0.333 0.158,0.065 0.319,0.099 0.483,0.099 0.09,0 0.156,0 0.196,-0.01 0.041,0 0.102,-0.012 0.183,-0.025 z" />
      <path
         id="path1360"
         style="fill:#666666;fill-opacity:1;fill-rule:nonzero;stroke:none"
         d="m 202.1377,1010.8267 v 0.812 c -0.159,-0.01 -0.345,-0.021 -0.56,-0.039 -0.215,-0.018 -0.385,-0.043 -0.511,-0.076 -0.149,-0.04 -0.27,-0.103 -0.363,-0.187 -0.092,-0.084 -0.137,-0.2 -0.137,-0.348 0,-0.168 0.052,-0.293 0.16,-0.377 0.106,-0.085 0.27,-0.127 0.49,-0.127 0.182,0 0.349,0.033 0.5,0.1 0.152,0.067 0.292,0.148 0.421,0.242 m 0.518,-0.718 h -0.518 v 0.311 c -0.046,-0.03 -0.108,-0.071 -0.187,-0.125 -0.079,-0.052 -0.154,-0.095 -0.228,-0.126 -0.087,-0.04 -0.187,-0.073 -0.299,-0.101 -0.112,-0.027 -0.244,-0.04 -0.396,-0.04 -0.279,0 -0.514,0.087 -0.708,0.26 -0.194,0.175 -0.29,0.397 -0.29,0.666 0,0.222 0.049,0.4 0.15,0.538 0.101,0.136 0.244,0.244 0.43,0.322 0.189,0.078 0.414,0.131 0.678,0.159 0.264,0.028 0.547,0.048 0.85,0.063 v 0.076 c 0,0.111 -0.021,0.203 -0.062,0.277 -0.042,0.072 -0.101,0.13 -0.179,0.172 -0.073,0.04 -0.162,0.067 -0.265,0.081 -0.103,0.014 -0.211,0.02 -0.324,0.02 -0.136,0 -0.289,-0.017 -0.457,-0.05 -0.168,-0.035 -0.341,-0.084 -0.52,-0.148 h -0.027 v 0.499 c 0.101,0.026 0.247,0.054 0.439,0.086 0.192,0.031 0.382,0.047 0.568,0.047 0.218,0 0.407,-0.018 0.568,-0.051 0.162,-0.034 0.301,-0.092 0.419,-0.174 0.116,-0.08 0.206,-0.183 0.266,-0.31 0.061,-0.127 0.092,-0.285 0.092,-0.473 z" />
      <path
         d="m 127.045,1003.834 h -0.506 v 3.955 h 0.506 z"
         style="fill:#666666;fill-opacity:1;fill-rule:nonzero;stroke:none"
         id="path1362" />
      <path
         id="path1366"
         style="fill:#666666;fill-opacity:1;fill-rule:nonzero;stroke:none"
         d="m 129.8374,1004.5332 v 0.79 c -0.155,-0.01 -0.336,-0.021 -0.546,-0.038 -0.209,-0.017 -0.375,-0.042 -0.496,-0.074 -0.146,-0.039 -0.264,-0.099 -0.354,-0.181 -0.089,-0.083 -0.134,-0.195 -0.134,-0.34 0,-0.162 0.052,-0.284 0.156,-0.367 0.104,-0.082 0.263,-0.123 0.477,-0.123 0.178,0 0.34,0.032 0.487,0.098 0.148,0.065 0.284,0.143 0.41,0.235 m 0.503,-0.699 h -0.503 v 0.303 c -0.045,-0.029 -0.106,-0.069 -0.182,-0.121 -0.076,-0.052 -0.151,-0.093 -0.222,-0.124 -0.085,-0.038 -0.181,-0.071 -0.291,-0.097 -0.11,-0.027 -0.238,-0.04 -0.385,-0.04 -0.272,0 -0.501,0.085 -0.69,0.254 -0.188,0.17 -0.283,0.386 -0.283,0.649 0,0.214 0.05,0.389 0.147,0.521 0.098,0.133 0.238,0.238 0.419,0.314 0.183,0.077 0.403,0.128 0.66,0.156 0.256,0.027 0.532,0.047 0.827,0.06 v 0.074 c 0,0.109 -0.021,0.198 -0.061,0.27 -0.04,0.071 -0.098,0.126 -0.174,0.167 -0.071,0.039 -0.158,0.065 -0.259,0.079 -0.1,0.013 -0.205,0.02 -0.315,0.02 -0.132,0 -0.28,-0.016 -0.443,-0.05 -0.165,-0.032 -0.333,-0.08 -0.507,-0.143 h -0.028 v 0.486 c 0.1,0.025 0.242,0.053 0.429,0.084 0.187,0.03 0.371,0.045 0.552,0.045 0.212,0 0.397,-0.017 0.554,-0.049 0.157,-0.034 0.293,-0.09 0.408,-0.169 0.113,-0.078 0.199,-0.179 0.259,-0.303 0.059,-0.124 0.088,-0.277 0.088,-0.459 z" />
      <path
         id="path1370"
         style="fill:#666666;fill-opacity:1;fill-rule:nonzero;stroke:none"
         d="m 135.8491,1003.834 h -2.642 v 3.784 h 2.642 v -0.447 h -2.109 v -1.037 h 2.109 v -0.447 h -2.109 v -1.406 h 2.109 z" />
      <path
         id="path1374"
         style="fill:#666666;fill-opacity:1;fill-rule:nonzero;stroke:none"
         d="m 138.5449,1004.5332 v 1.628 c -0.137,0.058 -0.259,0.098 -0.367,0.121 -0.108,0.021 -0.226,0.033 -0.353,0.033 -0.283,0 -0.504,-0.094 -0.662,-0.281 -0.159,-0.186 -0.237,-0.45 -0.237,-0.792 0,-0.337 0.061,-0.593 0.183,-0.769 0.122,-0.175 0.317,-0.263 0.587,-0.263 0.144,0 0.289,0.03 0.436,0.09 0.147,0.06 0.285,0.138 0.413,0.233 m 0.506,-0.699 h -0.506 v 0.297 c -0.146,-0.119 -0.298,-0.211 -0.456,-0.277 -0.158,-0.066 -0.329,-0.099 -0.514,-0.099 -0.359,0 -0.644,0.13 -0.855,0.391 -0.211,0.262 -0.317,0.623 -0.317,1.085 0,0.241 0.037,0.455 0.109,0.644 0.073,0.188 0.171,0.348 0.295,0.48 0.122,0.129 0.265,0.227 0.426,0.295 0.164,0.068 0.333,0.101 0.506,0.101 0.158,0 0.298,-0.015 0.42,-0.047 0.122,-0.031 0.251,-0.08 0.386,-0.146 v 1.23 h 0.506 z" />
      <path
         id="path1378"
         style="fill:#666666;fill-opacity:1;fill-rule:nonzero;stroke:none"
         d="m 142.4971,1003.834 h -0.506 v 0.315 c -0.171,-0.127 -0.334,-0.224 -0.491,-0.292 -0.155,-0.068 -0.328,-0.102 -0.517,-0.102 -0.316,0 -0.562,0.091 -0.738,0.273 -0.176,0.183 -0.264,0.45 -0.264,0.803 v 1.842 h 0.507 v -1.616 c 0,-0.144 0.007,-0.268 0.021,-0.37 0.014,-0.103 0.045,-0.19 0.092,-0.263 0.048,-0.075 0.111,-0.129 0.188,-0.163 0.077,-0.034 0.189,-0.051 0.337,-0.051 0.131,0 0.274,0.032 0.43,0.097 0.155,0.064 0.3,0.146 0.435,0.246 v 2.12 h 0.506 z" />
      <path
         id="path1382"
         style="fill:#666666;fill-opacity:1;fill-rule:nonzero;stroke:none"
         d="m 145.6738,1004.0117 c -0.169,-0.076 -0.328,-0.135 -0.48,-0.178 -0.152,-0.042 -0.313,-0.063 -0.484,-0.063 -0.217,0 -0.417,0.03 -0.598,0.09 -0.181,0.06 -0.336,0.151 -0.466,0.274 -0.131,0.121 -0.233,0.275 -0.304,0.461 -0.072,0.187 -0.107,0.405 -0.107,0.654 0,0.464 0.134,0.829 0.405,1.093 0.27,0.264 0.627,0.397 1.07,0.397 0.172,0 0.341,-0.024 0.508,-0.069 0.165,-0.047 0.318,-0.102 0.456,-0.168 v -0.532 h -0.027 c -0.154,0.114 -0.313,0.202 -0.478,0.263 -0.164,0.06 -0.324,0.091 -0.48,0.091 -0.287,0 -0.515,-0.091 -0.68,-0.273 -0.167,-0.183 -0.25,-0.45 -0.25,-0.802 0,-0.342 0.082,-0.605 0.244,-0.789 0.163,-0.184 0.391,-0.276 0.686,-0.276 0.102,0 0.206,0.013 0.312,0.038 0.106,0.025 0.201,0.059 0.285,0.1 0.074,0.035 0.144,0.073 0.208,0.112 0.064,0.04 0.116,0.075 0.153,0.103 h 0.027 z" />
      <path
         id="path1386"
         style="fill:#666666;fill-opacity:1;fill-rule:nonzero;stroke:none"
         d="m 148.1128,1004.5332 v 0.79 c -0.154,-0.01 -0.336,-0.021 -0.545,-0.038 -0.209,-0.017 -0.374,-0.042 -0.497,-0.074 -0.145,-0.039 -0.263,-0.099 -0.353,-0.181 -0.089,-0.083 -0.134,-0.195 -0.134,-0.34 0,-0.162 0.051,-0.284 0.155,-0.367 0.105,-0.082 0.264,-0.123 0.478,-0.123 0.178,0 0.339,0.032 0.486,0.098 0.148,0.065 0.285,0.143 0.41,0.235 m 0.503,-0.699 h -0.503 v 0.303 c -0.044,-0.029 -0.105,-0.069 -0.181,-0.121 -0.076,-0.052 -0.151,-0.093 -0.222,-0.124 -0.085,-0.038 -0.181,-0.071 -0.291,-0.097 -0.11,-0.027 -0.238,-0.04 -0.386,-0.04 -0.271,0 -0.501,0.085 -0.689,0.254 -0.189,0.17 -0.283,0.386 -0.283,0.649 0,0.214 0.049,0.389 0.147,0.521 0.098,0.133 0.238,0.238 0.418,0.314 0.184,0.077 0.404,0.128 0.66,0.156 0.257,0.027 0.533,0.047 0.827,0.06 v 0.074 c 0,0.109 -0.02,0.198 -0.06,0.27 -0.041,0.071 -0.099,0.126 -0.174,0.167 -0.072,0.039 -0.158,0.065 -0.258,0.079 -0.101,0.013 -0.206,0.02 -0.315,0.02 -0.133,0 -0.281,-0.016 -0.445,-0.05 -0.164,-0.032 -0.332,-0.08 -0.506,-0.143 h -0.027 v 0.486 c 0.098,0.025 0.241,0.053 0.428,0.084 0.187,0.03 0.371,0.045 0.552,0.045 0.212,0 0.396,-0.017 0.554,-0.049 0.157,-0.034 0.293,-0.09 0.408,-0.169 0.113,-0.078 0.199,-0.179 0.259,-0.303 0.059,-0.124 0.087,-0.277 0.087,-0.459 z" />
      <path
         id="path1390"
         style="fill:#666666;fill-opacity:1;fill-rule:nonzero;stroke:none"
         d="m 151.7725,1004.0117 c -0.169,-0.076 -0.329,-0.135 -0.481,-0.178 -0.151,-0.042 -0.313,-0.063 -0.483,-0.063 -0.218,0 -0.417,0.03 -0.598,0.09 -0.181,0.06 -0.337,0.151 -0.466,0.274 -0.131,0.121 -0.233,0.275 -0.304,0.461 -0.072,0.187 -0.108,0.405 -0.108,0.654 0,0.464 0.135,0.829 0.405,1.093 0.27,0.264 0.627,0.397 1.071,0.397 0.172,0 0.341,-0.024 0.508,-0.069 0.165,-0.047 0.317,-0.102 0.456,-0.168 v -0.532 h -0.026 c -0.155,0.114 -0.315,0.202 -0.479,0.263 -0.164,0.06 -0.324,0.091 -0.48,0.091 -0.288,0 -0.515,-0.091 -0.681,-0.273 -0.166,-0.183 -0.249,-0.45 -0.249,-0.802 0,-0.342 0.082,-0.605 0.244,-0.789 0.162,-0.184 0.391,-0.276 0.686,-0.276 0.102,0 0.206,0.013 0.312,0.038 0.106,0.025 0.201,0.059 0.285,0.1 0.074,0.035 0.143,0.073 0.207,0.112 0.065,0.04 0.117,0.075 0.155,0.103 h 0.026 z" />
      <path
         d="m 152.89,1003.834 h -0.507 v 2.839 h 0.507 z m 0.032,3.314 h -0.572 v 0.496 h 0.572 z"
         style="fill:#666666;fill-opacity:1;fill-rule:nonzero;stroke:none"
         id="path1392" />
      <path
         id="path1396"
         style="fill:#666666;fill-opacity:1;fill-rule:nonzero;stroke:none"
         d="m 155.8613,1008.0933 -0.735,-0.951 h -0.401 l 0.482,0.951 z m 0.027,-2.841 c 0,0.367 -0.076,0.641 -0.229,0.82 -0.153,0.178 -0.364,0.267 -0.635,0.267 -0.275,0 -0.488,-0.089 -0.641,-0.267 -0.151,-0.179 -0.226,-0.453 -0.226,-0.82 0,-0.356 0.075,-0.626 0.228,-0.809 0.153,-0.184 0.366,-0.276 0.639,-0.276 0.269,0 0.481,0.091 0.634,0.273 0.153,0.182 0.23,0.452 0.23,0.812 m 0.522,0 c 0,-0.463 -0.125,-0.827 -0.376,-1.096 -0.252,-0.267 -0.589,-0.401 -1.01,-0.401 -0.426,0 -0.764,0.134 -1.015,0.401 -0.25,0.269 -0.375,0.633 -0.375,1.096 0,0.463 0.125,0.828 0.375,1.096 0.251,0.269 0.589,0.403 1.015,0.403 0.421,0 0.758,-0.134 1.01,-0.403 0.251,-0.268 0.376,-0.633 0.376,-1.096" />
      <path
         id="path1400"
         style="fill:#666666;fill-opacity:1;fill-rule:nonzero;stroke:none"
         d="m 159.666,1003.834 h -0.506 v 1.616 c 0,0.131 -0.009,0.253 -0.024,0.368 -0.017,0.114 -0.047,0.204 -0.089,0.267 -0.045,0.072 -0.11,0.124 -0.194,0.16 -0.085,0.034 -0.194,0.051 -0.329,0.051 -0.138,0 -0.282,-0.031 -0.434,-0.096 -0.15,-0.064 -0.295,-0.146 -0.433,-0.246 v -2.12 h -0.507 v 2.839 h 0.507 v -0.315 c 0.157,0.123 0.322,0.22 0.49,0.289 0.169,0.07 0.342,0.104 0.52,0.104 0.325,0 0.573,-0.092 0.743,-0.277 0.171,-0.184 0.256,-0.45 0.256,-0.798 z" />
      <path
         id="path1404"
         style="fill:#666666;fill-opacity:1;fill-rule:nonzero;stroke:none"
         d="m 164.5176,1005.5698 c -10e-4,0.25 -0.069,0.445 -0.201,0.582 -0.132,0.137 -0.332,0.206 -0.601,0.206 -0.272,0 -0.488,-0.076 -0.649,-0.226 -0.16,-0.151 -0.251,-0.338 -0.272,-0.562 z m 0.493,-0.366 h -2.216 c 0,-0.174 0.027,-0.326 0.083,-0.456 0.055,-0.13 0.131,-0.236 0.229,-0.319 0.093,-0.081 0.204,-0.142 0.332,-0.183 0.129,-0.041 0.27,-0.061 0.425,-0.061 0.205,0 0.41,0.038 0.618,0.115 0.207,0.078 0.355,0.153 0.443,0.228 h 0.027 v -0.52 c -0.171,-0.068 -0.346,-0.125 -0.523,-0.171 -0.178,-0.046 -0.365,-0.069 -0.56,-0.069 -0.499,0 -0.889,0.128 -1.169,0.383 -0.28,0.255 -0.42,0.617 -0.42,1.086 0,0.464 0.134,0.833 0.403,1.105 0.268,0.273 0.621,0.41 1.059,0.41 0.406,0 0.719,-0.112 0.939,-0.335 0.22,-0.224 0.33,-0.542 0.33,-0.953 z" />
      <path
         id="path1408"
         style="fill:#666666;fill-opacity:1;fill-rule:nonzero;stroke:none"
         d="m 169.0835,1003.834 h -1.583 v 0.386 h 0.524 v 3.012 h -0.524 v 0.386 h 1.583 v -0.386 h -0.525 v -3.012 h 0.525 z" />
      <path
         id="path1412"
         style="fill:#666666;fill-opacity:1;fill-rule:nonzero;stroke:none"
         d="m 172.4219,1003.834 h -0.506 v 1.616 c 0,0.131 -0.008,0.253 -0.024,0.368 -0.016,0.114 -0.046,0.204 -0.09,0.267 -0.045,0.072 -0.109,0.124 -0.193,0.16 -0.084,0.034 -0.194,0.051 -0.329,0.051 -0.138,0 -0.282,-0.031 -0.434,-0.096 -0.151,-0.064 -0.295,-0.146 -0.433,-0.246 v -2.12 h -0.507 v 2.839 h 0.507 v -0.315 c 0.158,0.123 0.322,0.22 0.49,0.289 0.169,0.07 0.342,0.104 0.52,0.104 0.325,0 0.573,-0.092 0.743,-0.277 0.171,-0.184 0.256,-0.45 0.256,-0.798 z" />
      <path
         id="path1416"
         style="fill:#666666;fill-opacity:1;fill-rule:nonzero;stroke:none"
         d="m 175.9009,1006.6729 -1.217,-2.839 h -0.51 l -1.209,2.839 h 0.55 l 0.932,-2.259 0.923,2.259 z" />
      <path
         id="path1420"
         style="fill:#666666;fill-opacity:1;fill-rule:nonzero;stroke:none"
         d="m 178.4961,1005.5698 c -0.002,0.25 -0.068,0.445 -0.201,0.582 -0.132,0.137 -0.332,0.206 -0.602,0.206 -0.271,0 -0.486,-0.076 -0.648,-0.226 -0.159,-0.151 -0.251,-0.338 -0.273,-0.562 z m 0.493,-0.366 h -2.217 c 0,-0.174 0.028,-0.326 0.084,-0.456 0.055,-0.13 0.132,-0.236 0.229,-0.319 0.093,-0.081 0.204,-0.142 0.332,-0.183 0.129,-0.041 0.27,-0.061 0.425,-0.061 0.205,0 0.41,0.038 0.618,0.115 0.207,0.078 0.354,0.153 0.443,0.228 h 0.027 v -0.52 c -0.171,-0.068 -0.345,-0.125 -0.523,-0.171 -0.178,-0.046 -0.364,-0.069 -0.56,-0.069 -0.499,0 -0.889,0.128 -1.169,0.383 -0.28,0.255 -0.42,0.617 -0.42,1.086 0,0.464 0.134,0.833 0.403,1.105 0.268,0.273 0.621,0.41 1.059,0.41 0.406,0 0.719,-0.112 0.939,-0.335 0.22,-0.224 0.33,-0.542 0.33,-0.953 z" />
      <path
         id="path1424"
         style="fill:#666666;fill-opacity:1;fill-rule:nonzero;stroke:none"
         d="m 181.8618,1004.6523 c 0,-0.259 -0.114,-0.472 -0.341,-0.638 -0.226,-0.166 -0.537,-0.249 -0.93,-0.249 -0.223,0 -0.427,0.025 -0.613,0.075 -0.186,0.05 -0.342,0.105 -0.468,0.164 v 0.537 h 0.027 c 0.16,-0.115 0.339,-0.204 0.533,-0.271 0.196,-0.067 0.384,-0.101 0.563,-0.101 0.223,0 0.397,0.034 0.523,0.102 0.125,0.068 0.189,0.174 0.189,0.32 0,0.112 -0.034,0.197 -0.102,0.254 -0.069,0.058 -0.2,0.106 -0.394,0.147 -0.071,0.015 -0.165,0.034 -0.281,0.054 -0.116,0.021 -0.221,0.043 -0.317,0.066 -0.264,0.066 -0.451,0.163 -0.561,0.291 -0.111,0.128 -0.165,0.285 -0.165,0.472 0,0.116 0.025,0.226 0.076,0.33 0.051,0.103 0.129,0.196 0.233,0.277 0.101,0.08 0.228,0.143 0.384,0.189 0.155,0.046 0.328,0.07 0.521,0.07 0.179,0 0.361,-0.021 0.545,-0.062 0.184,-0.042 0.337,-0.092 0.459,-0.152 v -0.51 h -0.027 c -0.129,0.09 -0.286,0.165 -0.471,0.227 -0.185,0.062 -0.366,0.093 -0.544,0.093 -0.185,0 -0.341,-0.034 -0.469,-0.101 -0.127,-0.066 -0.191,-0.166 -0.191,-0.298 0,-0.117 0.039,-0.205 0.116,-0.265 0.075,-0.059 0.198,-0.107 0.367,-0.144 0.093,-0.021 0.197,-0.041 0.313,-0.062 0.115,-0.02 0.213,-0.038 0.29,-0.055 0.235,-0.051 0.416,-0.138 0.544,-0.262 0.127,-0.125 0.191,-0.291 0.191,-0.498" />
      <path
         id="path1428"
         style="fill:#666666;fill-opacity:1;fill-rule:nonzero;stroke:none"
         d="m 184.104,1003.8594 c -0.095,-0.023 -0.199,-0.043 -0.311,-0.058 -0.112,-0.016 -0.212,-0.023 -0.3,-0.023 -0.307,0 -0.54,0.078 -0.701,0.233 -0.159,0.157 -0.239,0.407 -0.239,0.75 v 1.51 h -0.342 v 0.401 h 0.342 v 0.816 h 0.507 v -0.816 h 1.044 v -0.401 h -1.044 v -1.294 c 0,-0.149 0.003,-0.265 0.01,-0.349 0.007,-0.084 0.033,-0.163 0.076,-0.235 0.04,-0.068 0.094,-0.117 0.163,-0.149 0.068,-0.031 0.174,-0.047 0.316,-0.047 0.082,0 0.168,0.012 0.259,0.034 0.09,0.024 0.154,0.043 0.193,0.058 h 0.027 z" />
      <path
         d="m 185.183,1003.834 h -0.506 v 2.839 h 0.506 z m 0.033,3.314 h -0.571 v 0.496 h 0.571 z"
         style="fill:#666666;fill-opacity:1;fill-rule:nonzero;stroke:none"
         id="path1430" />
      <path
         id="path1434"
         style="fill:#666666;fill-opacity:1;fill-rule:nonzero;stroke:none"
         d="m 188.0752,1004.6143 v 1.547 c -0.135,0.058 -0.26,0.099 -0.376,0.124 -0.116,0.025 -0.231,0.037 -0.346,0.037 -0.279,0 -0.498,-0.088 -0.657,-0.265 -0.16,-0.176 -0.24,-0.432 -0.24,-0.767 0,-0.319 0.059,-0.56 0.178,-0.724 0.118,-0.165 0.315,-0.246 0.589,-0.246 0.147,0 0.295,0.026 0.443,0.079 0.149,0.053 0.285,0.125 0.409,0.215 m 0.506,-0.458 c 0,-0.481 -0.116,-0.834 -0.348,-1.059 -0.231,-0.226 -0.588,-0.338 -1.069,-0.338 -0.159,0 -0.315,0.01 -0.467,0.032 -0.152,0.021 -0.302,0.051 -0.448,0.09 v 0.487 h 0.026 c 0.083,-0.029 0.215,-0.067 0.394,-0.112 0.179,-0.045 0.359,-0.068 0.538,-0.068 0.173,0 0.315,0.02 0.429,0.059 0.113,0.039 0.2,0.093 0.263,0.162 0.063,0.066 0.108,0.146 0.136,0.239 0.026,0.093 0.04,0.198 0.04,0.313 v 0.259 c -0.153,-0.115 -0.299,-0.201 -0.438,-0.258 -0.139,-0.056 -0.317,-0.085 -0.532,-0.085 -0.359,0 -0.644,0.122 -0.855,0.367 -0.211,0.245 -0.317,0.591 -0.317,1.036 0,0.244 0.037,0.454 0.109,0.631 0.074,0.178 0.172,0.33 0.299,0.459 0.115,0.12 0.258,0.214 0.424,0.281 0.167,0.067 0.333,0.1 0.499,0.1 0.174,0 0.32,-0.016 0.438,-0.05 0.117,-0.032 0.242,-0.083 0.373,-0.15 l 0.032,0.122 h 0.474 z" />
      <path
         id="path1438"
         style="fill:#666666;fill-opacity:1;fill-rule:nonzero;stroke:none"
         d="m 191.3677,1004.5332 v 0.79 c -0.154,-0.01 -0.336,-0.021 -0.544,-0.038 -0.211,-0.017 -0.376,-0.042 -0.498,-0.074 -0.146,-0.039 -0.263,-0.099 -0.353,-0.181 -0.09,-0.083 -0.134,-0.195 -0.134,-0.34 0,-0.162 0.051,-0.284 0.156,-0.367 0.103,-0.082 0.263,-0.123 0.477,-0.123 0.177,0 0.339,0.032 0.486,0.098 0.148,0.065 0.284,0.143 0.41,0.235 m 0.503,-0.699 h -0.503 v 0.303 c -0.044,-0.029 -0.105,-0.069 -0.182,-0.121 -0.076,-0.052 -0.15,-0.093 -0.222,-0.124 -0.085,-0.038 -0.181,-0.071 -0.291,-0.097 -0.109,-0.027 -0.238,-0.04 -0.385,-0.04 -0.271,0 -0.501,0.085 -0.69,0.254 -0.188,0.17 -0.283,0.386 -0.283,0.649 0,0.214 0.05,0.389 0.148,0.521 0.097,0.133 0.237,0.238 0.418,0.314 0.184,0.077 0.404,0.128 0.66,0.156 0.257,0.027 0.533,0.047 0.827,0.06 v 0.074 c 0,0.109 -0.02,0.198 -0.06,0.27 -0.041,0.071 -0.099,0.126 -0.174,0.167 -0.072,0.039 -0.158,0.065 -0.259,0.079 -0.1,0.013 -0.205,0.02 -0.315,0.02 -0.132,0 -0.281,-0.016 -0.444,-0.05 -0.164,-0.032 -0.332,-0.08 -0.506,-0.143 h -0.027 v 0.486 c 0.098,0.025 0.242,0.053 0.428,0.084 0.187,0.03 0.37,0.045 0.552,0.045 0.212,0 0.396,-0.017 0.554,-0.049 0.156,-0.034 0.293,-0.09 0.408,-0.169 0.113,-0.078 0.198,-0.179 0.258,-0.303 0.059,-0.124 0.088,-0.277 0.088,-0.459 z" />
      <path
         id="path1442"
         style="fill:#666666;fill-opacity:1;fill-rule:nonzero;stroke:none"
         d="m 195.0269,1004.0117 c -0.168,-0.076 -0.329,-0.135 -0.48,-0.178 -0.152,-0.042 -0.313,-0.063 -0.484,-0.063 -0.217,0 -0.416,0.03 -0.598,0.09 -0.182,0.06 -0.337,0.151 -0.466,0.274 -0.131,0.121 -0.232,0.275 -0.304,0.461 -0.073,0.187 -0.108,0.405 -0.108,0.654 0,0.464 0.135,0.829 0.405,1.093 0.27,0.264 0.627,0.397 1.071,0.397 0.172,0 0.341,-0.024 0.508,-0.069 0.165,-0.047 0.318,-0.102 0.456,-0.168 v -0.532 h -0.027 c -0.155,0.114 -0.313,0.202 -0.478,0.263 -0.163,0.06 -0.324,0.091 -0.481,0.091 -0.287,0 -0.514,-0.091 -0.68,-0.273 -0.166,-0.183 -0.249,-0.45 -0.249,-0.802 0,-0.342 0.082,-0.605 0.244,-0.789 0.162,-0.184 0.391,-0.276 0.685,-0.276 0.103,0 0.207,0.013 0.313,0.038 0.106,0.025 0.201,0.059 0.285,0.1 0.074,0.035 0.143,0.073 0.208,0.112 0.064,0.04 0.116,0.075 0.153,0.103 h 0.027 z" />
      <path
         d="m 196.144,1003.834 h -0.506 v 2.839 h 0.506 z m 0.032,3.314 h -0.571 v 0.496 h 0.571 z"
         style="fill:#666666;fill-opacity:1;fill-rule:nonzero;stroke:none"
         id="path1444" />
      <path
         id="path1448"
         style="fill:#666666;fill-opacity:1;fill-rule:nonzero;stroke:none"
         d="m 199.1162,1008.0933 -0.736,-0.951 h -0.401 l 0.482,0.951 z m 0.026,-2.841 c 0,0.367 -0.076,0.641 -0.228,0.82 -0.153,0.178 -0.365,0.267 -0.636,0.267 -0.275,0 -0.487,-0.089 -0.639,-0.267 -0.152,-0.179 -0.228,-0.453 -0.228,-0.82 0,-0.356 0.076,-0.626 0.229,-0.809 0.153,-0.184 0.365,-0.276 0.638,-0.276 0.27,0 0.481,0.091 0.634,0.273 0.154,0.182 0.23,0.452 0.23,0.812 m 0.523,0 c 0,-0.463 -0.125,-0.827 -0.377,-1.096 -0.252,-0.267 -0.588,-0.401 -1.01,-0.401 -0.425,0 -0.763,0.134 -1.014,0.401 -0.251,0.269 -0.376,0.633 -0.376,1.096 0,0.463 0.125,0.828 0.376,1.096 0.251,0.269 0.589,0.403 1.014,0.403 0.422,0 0.758,-0.134 1.01,-0.403 0.252,-0.268 0.377,-0.633 0.377,-1.096" />
      <path
         id="path1452"
         style="fill:#666666;fill-opacity:1;fill-rule:nonzero;stroke:none"
         d="m 202.9209,1003.834 h -0.507 v 1.616 c 0,0.131 -0.008,0.253 -0.024,0.368 -0.016,0.114 -0.046,0.204 -0.089,0.267 -0.045,0.072 -0.109,0.124 -0.194,0.16 -0.084,0.034 -0.193,0.051 -0.328,0.051 -0.139,0 -0.283,-0.031 -0.434,-0.096 -0.151,-0.064 -0.296,-0.146 -0.434,-0.246 v -2.12 h -0.506 v 2.839 h 0.506 v -0.315 c 0.158,0.123 0.322,0.22 0.49,0.289 0.169,0.07 0.343,0.104 0.52,0.104 0.325,0 0.573,-0.092 0.744,-0.277 0.171,-0.184 0.256,-0.45 0.256,-0.798 z" />
      <path
         id="path1456"
         style="fill:#fa96ba;fill-opacity:1;fill-rule:nonzero;stroke:none"
         d="m 128.2832,997.6538 c -0.257,0 -0.491,0.029 -0.704,0.087 -0.212,0.057 -0.397,0.146 -0.554,0.267 -0.156,0.12 -0.276,0.271 -0.362,0.455 -0.085,0.183 -0.129,0.397 -0.129,0.643 0,0.258 0.047,0.482 0.139,0.67 0.091,0.188 0.219,0.343 0.383,0.467 0.16,0.117 0.343,0.203 0.551,0.257 0.207,0.054 0.424,0.082 0.647,0.082 0.2,0 0.385,-0.021 0.555,-0.062 0.17,-0.041 0.328,-0.095 0.475,-0.161 v -0.759 h -0.134 c -0.036,0.03 -0.08,0.064 -0.132,0.104 -0.051,0.039 -0.114,0.078 -0.19,0.117 -0.071,0.036 -0.149,0.065 -0.234,0.089 -0.086,0.025 -0.186,0.036 -0.3,0.036 -0.25,0 -0.444,-0.076 -0.579,-0.226 -0.135,-0.15 -0.203,-0.356 -0.203,-0.614 0,-0.267 0.07,-0.47 0.209,-0.609 0.138,-0.138 0.335,-0.208 0.589,-0.208 0.119,0 0.226,0.013 0.321,0.039 0.095,0.025 0.174,0.056 0.236,0.09 0.06,0.033 0.112,0.068 0.157,0.104 0.046,0.036 0.088,0.072 0.126,0.107 h 0.134 v -0.76 c -0.149,-0.066 -0.304,-0.118 -0.465,-0.156 -0.162,-0.039 -0.34,-0.059 -0.536,-0.059" />
      <path
         id="path1460"
         style="fill:#fa96ba;fill-opacity:1;fill-rule:nonzero;stroke:none"
         d="m 131.7119,998.4399 c 0.062,0.071 0.107,0.157 0.138,0.256 0.03,0.1 0.046,0.238 0.046,0.414 0,0.164 -0.016,0.3 -0.047,0.411 -0.032,0.11 -0.075,0.199 -0.132,0.264 -0.055,0.068 -0.122,0.116 -0.201,0.144 -0.078,0.028 -0.163,0.042 -0.255,0.042 -0.09,0 -0.171,-0.011 -0.242,-0.034 -0.07,-0.023 -0.139,-0.07 -0.203,-0.139 -0.058,-0.065 -0.104,-0.152 -0.138,-0.265 -0.034,-0.112 -0.05,-0.253 -0.05,-0.423 0,-0.151 0.014,-0.283 0.044,-0.394 0.03,-0.111 0.073,-0.201 0.131,-0.268 0.055,-0.064 0.123,-0.112 0.2,-0.141 0.079,-0.03 0.167,-0.045 0.267,-0.045 0.085,0 0.167,0.014 0.244,0.041 0.078,0.027 0.144,0.073 0.198,0.137 m 1.162,0.675 c 0,-0.456 -0.142,-0.816 -0.424,-1.078 -0.282,-0.264 -0.678,-0.395 -1.189,-0.395 -0.509,0 -0.906,0.131 -1.188,0.395 -0.282,0.262 -0.424,0.622 -0.424,1.078 0,0.461 0.143,0.822 0.427,1.083 0.283,0.263 0.679,0.394 1.185,0.394 0.514,0 0.911,-0.132 1.192,-0.396 0.28,-0.264 0.421,-0.624 0.421,-1.081" />
      <path
         id="path1464"
         style="fill:#fa96ba;fill-opacity:1;fill-rule:nonzero;stroke:none"
         d="m 136.4624,997.728 h -0.946 v 1.377 c 0,0.112 -0.007,0.224 -0.019,0.335 -0.012,0.112 -0.033,0.193 -0.062,0.247 -0.035,0.061 -0.087,0.105 -0.154,0.133 -0.067,0.028 -0.161,0.042 -0.281,0.042 -0.086,0 -0.173,-0.013 -0.26,-0.039 -0.089,-0.027 -0.185,-0.069 -0.288,-0.127 v -1.968 h -0.946 v 2.777 h 0.946 v -0.307 c 0.167,0.124 0.328,0.218 0.483,0.285 0.154,0.066 0.326,0.099 0.515,0.099 0.317,0 0.565,-0.088 0.744,-0.262 0.179,-0.175 0.268,-0.437 0.268,-0.784 z" />
      <path
         id="path1468"
         style="fill:#fa96ba;fill-opacity:1;fill-rule:nonzero;stroke:none"
         d="m 139.1685,997.7524 c -0.102,-0.024 -0.209,-0.043 -0.322,-0.058 -0.114,-0.013 -0.253,-0.021 -0.417,-0.021 -0.367,0 -0.64,0.07 -0.819,0.211 -0.179,0.139 -0.269,0.379 -0.269,0.72 v 1.297 h -0.388 v 0.604 h 0.388 v 0.793 h 0.947 v -0.793 h 0.88 v -0.604 h -0.88 v -0.985 c 0,-0.098 0,-0.183 0.002,-0.256 0.002,-0.072 0.016,-0.137 0.042,-0.195 0.024,-0.058 0.067,-0.104 0.129,-0.137 0.061,-0.034 0.152,-0.051 0.271,-0.051 0.048,0 0.112,0.01 0.191,0.03 0.08,0.019 0.135,0.037 0.166,0.054 h 0.079 z" />
      <path
         id="path1472"
         style="fill:#fa96ba;fill-opacity:1;fill-rule:nonzero;stroke:none"
         d="m 141.8218,999.6567 h -0.083 c -0.041,0.014 -0.105,0.023 -0.194,0.03 -0.089,0.007 -0.163,0.01 -0.222,0.01 -0.135,0 -0.253,-0.009 -0.356,-0.025 -0.103,-0.016 -0.214,-0.044 -0.332,-0.084 v -1.86 h -0.946 v 2.778 h 0.946 v -0.409 c 0.208,0.168 0.388,0.28 0.541,0.335 0.153,0.055 0.295,0.083 0.424,0.083 0.033,0 0.07,-10e-4 0.112,0 0.042,-10e-4 0.079,0 0.11,-0.01 z" />
      <path
         id="path1476"
         style="fill:#fa96ba;fill-opacity:1;fill-rule:nonzero;stroke:none"
         d="m 144.0957,998.4546 v 0.577 c -0.127,-0.01 -0.266,-0.024 -0.414,-0.04 -0.149,-0.018 -0.261,-0.038 -0.338,-0.061 -0.094,-0.028 -0.167,-0.069 -0.217,-0.122 -0.049,-0.054 -0.074,-0.124 -0.074,-0.211 0,-0.058 0.005,-0.104 0.016,-0.141 0.01,-0.036 0.036,-0.07 0.079,-0.103 0.039,-0.033 0.088,-0.057 0.144,-0.073 0.055,-0.015 0.143,-0.023 0.262,-0.023 0.094,0 0.189,0.018 0.287,0.054 0.096,0.036 0.181,0.084 0.255,0.143 m 0,-0.432 c -0.051,-0.036 -0.113,-0.08 -0.188,-0.131 -0.076,-0.052 -0.147,-0.091 -0.213,-0.122 -0.092,-0.039 -0.189,-0.068 -0.288,-0.087 -0.1,-0.019 -0.209,-0.029 -0.328,-0.029 -0.28,0 -0.514,0.082 -0.703,0.245 -0.188,0.163 -0.282,0.372 -0.282,0.626 0,0.202 0.048,0.368 0.144,0.497 0.096,0.128 0.232,0.23 0.409,0.304 0.174,0.074 0.391,0.127 0.65,0.158 0.258,0.031 0.527,0.054 0.804,0.069 v 0.015 c 0,0.154 -0.067,0.26 -0.199,0.318 -0.133,0.058 -0.328,0.088 -0.587,0.088 -0.156,0 -0.322,-0.026 -0.498,-0.078 -0.176,-0.052 -0.303,-0.092 -0.38,-0.12 h -0.086 v 0.67 c 0.099,0.025 0.262,0.054 0.486,0.088 0.224,0.034 0.449,0.051 0.675,0.051 0.536,0 0.923,-0.078 1.162,-0.234 0.238,-0.156 0.358,-0.4 0.358,-0.733 v -1.89 h -0.936 z" />
      <path
         id="path1480"
         style="fill:#fa96ba;fill-opacity:1;fill-rule:nonzero;stroke:none"
         d="m 149.6074,999.4741 c -0.005,0.186 -0.054,0.326 -0.147,0.42 -0.093,0.094 -0.237,0.141 -0.433,0.141 -0.181,0 -0.33,-0.044 -0.447,-0.133 -0.118,-0.089 -0.183,-0.232 -0.197,-0.428 z m 0.937,-0.522 h -2.158 c 0.013,-0.218 0.101,-0.384 0.263,-0.499 0.162,-0.116 0.399,-0.174 0.714,-0.174 0.199,0 0.392,0.034 0.579,0.102 0.187,0.067 0.335,0.14 0.443,0.218 h 0.105 v -0.715 c -0.213,-0.081 -0.414,-0.139 -0.602,-0.176 -0.189,-0.036 -0.398,-0.054 -0.627,-0.054 -0.591,0 -1.043,0.125 -1.358,0.376 -0.314,0.25 -0.472,0.607 -0.472,1.07 0,0.459 0.15,0.822 0.447,1.089 0.298,0.268 0.707,0.403 1.226,0.403 0.479,0 0.838,-0.115 1.079,-0.343 0.241,-0.229 0.361,-0.557 0.361,-0.985 z" />
      <path
         d="m 152.114,997.728 h -0.946 v 3.848 h 0.946 z"
         style="fill:#fa96ba;fill-opacity:1;fill-rule:nonzero;stroke:none"
         id="path1482" />
      <path
         id="path1486"
         style="fill:#fa96ba;fill-opacity:1;fill-rule:nonzero;stroke:none"
         d="m 178.9346,998.4922 v 1.365 c -0.066,0.026 -0.137,0.045 -0.209,0.057 -0.074,0.012 -0.141,0.017 -0.202,0.017 -0.247,0 -0.433,-0.073 -0.556,-0.219 -0.124,-0.146 -0.187,-0.348 -0.187,-0.608 0,-0.272 0.05,-0.47 0.15,-0.593 0.099,-0.123 0.258,-0.185 0.479,-0.185 0.085,0 0.175,0.016 0.271,0.046 0.096,0.031 0.181,0.071 0.254,0.12 m 0.946,-0.764 h -0.946 v 0.289 c -0.163,-0.125 -0.314,-0.217 -0.456,-0.276 -0.141,-0.06 -0.304,-0.09 -0.489,-0.09 -0.358,0 -0.644,0.13 -0.859,0.391 -0.214,0.261 -0.322,0.612 -0.322,1.054 0,0.235 0.037,0.444 0.109,0.626 0.073,0.182 0.171,0.338 0.297,0.469 0.119,0.123 0.263,0.219 0.432,0.287 0.169,0.07 0.339,0.104 0.508,0.104 0.176,0 0.32,-0.019 0.433,-0.054 0.113,-0.035 0.228,-0.08 0.347,-0.135 v 1.182 h 0.946 z" />
      <path
         id="path1490"
         style="fill:#fa96ba;fill-opacity:1;fill-rule:nonzero;stroke:none"
         d="m 182.6885,999.4741 c -0.005,0.186 -0.054,0.326 -0.146,0.42 -0.093,0.094 -0.238,0.141 -0.434,0.141 -0.181,0 -0.33,-0.044 -0.447,-0.133 -0.118,-0.089 -0.183,-0.232 -0.197,-0.428 z m 0.937,-0.522 h -2.158 c 0.013,-0.218 0.101,-0.384 0.263,-0.499 0.162,-0.116 0.4,-0.174 0.714,-0.174 0.2,0 0.392,0.034 0.579,0.102 0.187,0.067 0.335,0.14 0.443,0.218 h 0.105 v -0.715 c -0.213,-0.081 -0.414,-0.139 -0.602,-0.176 -0.189,-0.036 -0.398,-0.054 -0.627,-0.054 -0.59,0 -1.043,0.125 -1.357,0.376 -0.315,0.25 -0.472,0.607 -0.472,1.07 0,0.459 0.149,0.822 0.446,1.089 0.298,0.268 0.707,0.403 1.226,0.403 0.479,0 0.838,-0.115 1.079,-0.343 0.241,-0.229 0.361,-0.557 0.361,-0.985 z" />
      <path
         id="path1494"
         style="fill:#fa96ba;fill-opacity:1;fill-rule:nonzero;stroke:none"
         d="m 190.1836,997.728 h -1 v 2.465 l -0.724,-1.599 h -0.694 l -0.724,1.599 v -2.465 h -0.949 v 3.682 h 1.169 l 0.878,-1.847 0.875,1.847 h 1.169 z" />
      <path
         id="path1498"
         style="fill:#fa96ba;fill-opacity:1;fill-rule:nonzero;stroke:none"
         d="m 192.8657,998.4546 v 0.577 c -0.127,-0.01 -0.265,-0.024 -0.414,-0.04 -0.148,-0.018 -0.26,-0.038 -0.337,-0.061 -0.095,-0.028 -0.167,-0.069 -0.217,-0.122 -0.05,-0.054 -0.074,-0.124 -0.074,-0.211 0,-0.058 0.004,-0.104 0.015,-0.141 0.01,-0.036 0.037,-0.07 0.079,-0.103 0.04,-0.033 0.088,-0.057 0.144,-0.073 0.056,-0.015 0.143,-0.023 0.262,-0.023 0.094,0 0.19,0.018 0.287,0.054 0.097,0.036 0.182,0.084 0.255,0.143 m 0,-0.432 c -0.051,-0.036 -0.113,-0.08 -0.188,-0.131 -0.075,-0.052 -0.146,-0.091 -0.212,-0.122 -0.093,-0.039 -0.189,-0.068 -0.288,-0.087 -0.1,-0.019 -0.209,-0.029 -0.329,-0.029 -0.279,0 -0.513,0.082 -0.701,0.245 -0.19,0.163 -0.283,0.372 -0.283,0.626 0,0.202 0.047,0.368 0.144,0.497 0.096,0.128 0.232,0.23 0.408,0.304 0.175,0.074 0.392,0.127 0.651,0.158 0.257,0.031 0.526,0.054 0.804,0.069 v 0.015 c 0,0.154 -0.066,0.26 -0.199,0.318 -0.134,0.058 -0.329,0.088 -0.587,0.088 -0.156,0 -0.322,-0.026 -0.498,-0.078 -0.177,-0.052 -0.304,-0.092 -0.38,-0.12 h -0.087 v 0.67 c 0.1,0.025 0.262,0.054 0.486,0.088 0.225,0.034 0.45,0.051 0.675,0.051 0.537,0 0.924,-0.078 1.163,-0.234 0.238,-0.156 0.357,-0.4 0.357,-0.733 v -1.89 h -0.936 z" />
      <path
         id="path1502"
         style="fill:#fa96ba;fill-opacity:1;fill-rule:nonzero;stroke:none"
         d="m 197.501,999.6963 v -1.968 h -0.945 v 1.387 c 0,0.135 -0.004,0.25 -0.011,0.345 -0.007,0.094 -0.026,0.172 -0.058,0.231 -0.031,0.059 -0.079,0.103 -0.143,0.13 -0.063,0.027 -0.154,0.041 -0.268,0.041 -0.093,0 -0.183,-0.018 -0.27,-0.054 -0.088,-0.035 -0.167,-0.072 -0.236,-0.112 v -1.968 h -0.946 v 2.777 h 0.946 v -0.307 c 0.161,0.12 0.318,0.215 0.466,0.282 0.149,0.068 0.312,0.102 0.491,0.102 0.195,0 0.365,-0.041 0.514,-0.123 0.148,-0.082 0.264,-0.202 0.348,-0.36 0.188,0.15 0.371,0.268 0.549,0.354 0.178,0.086 0.353,0.129 0.524,0.129 0.317,0 0.559,-0.091 0.724,-0.27 0.164,-0.179 0.247,-0.439 0.247,-0.777 v -1.807 h -0.947 v 1.387 c 0,0.137 -0.003,0.252 -0.009,0.346 -0.005,0.094 -0.024,0.171 -0.056,0.23 -0.029,0.059 -0.077,0.103 -0.142,0.13 -0.064,0.027 -0.155,0.041 -0.272,0.041 -0.079,0 -0.155,-0.013 -0.231,-0.039 -0.075,-0.025 -0.167,-0.067 -0.275,-0.127" />
      <path
         id="path1506"
         style="fill:#fa96ba;fill-opacity:1;fill-rule:nonzero;stroke:none"
         d="m 202.0439,998.4546 v 0.577 c -0.127,-0.01 -0.265,-0.024 -0.414,-0.04 -0.148,-0.018 -0.261,-0.038 -0.338,-0.061 -0.095,-0.028 -0.166,-0.069 -0.216,-0.122 -0.05,-0.054 -0.075,-0.124 -0.075,-0.211 0,-0.058 0.005,-0.104 0.016,-0.141 0.01,-0.036 0.037,-0.07 0.079,-0.103 0.039,-0.033 0.088,-0.057 0.144,-0.073 0.056,-0.015 0.143,-0.023 0.262,-0.023 0.094,0 0.189,0.018 0.287,0.054 0.097,0.036 0.182,0.084 0.255,0.143 m 0,-0.432 c -0.051,-0.036 -0.113,-0.08 -0.188,-0.131 -0.076,-0.052 -0.146,-0.091 -0.212,-0.122 -0.093,-0.039 -0.189,-0.068 -0.289,-0.087 -0.1,-0.019 -0.208,-0.029 -0.328,-0.029 -0.279,0 -0.513,0.082 -0.702,0.245 -0.189,0.163 -0.283,0.372 -0.283,0.626 0,0.202 0.048,0.368 0.144,0.497 0.096,0.128 0.232,0.23 0.409,0.304 0.175,0.074 0.391,0.127 0.65,0.158 0.258,0.031 0.527,0.054 0.804,0.069 v 0.015 c 0,0.154 -0.066,0.26 -0.198,0.318 -0.134,0.058 -0.329,0.088 -0.588,0.088 -0.155,0 -0.322,-0.026 -0.498,-0.078 -0.176,-0.052 -0.302,-0.092 -0.38,-0.12 h -0.086 v 0.67 c 0.099,0.025 0.261,0.054 0.486,0.088 0.224,0.034 0.45,0.051 0.675,0.051 0.537,0 0.924,-0.078 1.162,-0.234 0.238,-0.156 0.358,-0.4 0.358,-0.733 v -1.89 h -0.936 z" />
      <path
         id="path1510"
         style="fill:#666666;fill-opacity:1;fill-rule:nonzero;stroke:none"
         d="m 133.5986,1024.731 h -4.493 v -2.082 h 4.166 v -2.165 h -4.166 v -4.779 h -2.506 v 11.19 h 6.999 z" />
      <path
         id="path1514"
         style="fill:#666666;fill-opacity:1;fill-rule:nonzero;stroke:none"
         d="m 143.7837,1019.7554 c 0,-1.383 -0.368,-2.442 -1.102,-3.179 -0.734,-0.736 -1.817,-1.105 -3.246,-1.105 -1.431,0 -2.512,0.369 -3.245,1.105 -0.733,0.737 -1.098,1.794 -1.098,3.172 v 7.147 h 2.531 v -6.982 c 0,-0.777 0.142,-1.356 0.428,-1.736 0.283,-0.381 0.744,-0.571 1.384,-0.571 0.629,0 1.089,0.182 1.38,0.548 0.291,0.366 0.436,0.952 0.436,1.759 v 6.982 h 2.532 z" />
      <path
         id="path1518"
         style="fill:#666666;fill-opacity:1;fill-rule:nonzero;stroke:none"
         d="m 154.8867,1026.895 -3.562,-11.19 h -2.82 l -3.562,11.19 h 2.646 l 2.361,-7.856 2.361,7.856 z" />
      <path
         id="path1522"
         style="fill:#666666;fill-opacity:1;fill-rule:nonzero;stroke:none"
         d="m 163.2485,1015.7046 h -7.065 v 11.19 h 7.065 v -2.164 h -4.559 v -1.931 h 4.231 v -2.164 h -4.231 v -2.766 h 4.559 z" />
      <path
         id="path1526"
         style="fill:#666666;fill-opacity:1;fill-rule:nonzero;stroke:none"
         d="m 170.5332,1015.7046 h -5.72 v 1.984 h 1.6 v 7.223 h -1.6 v 1.983 h 5.72 v -1.983 h -1.6 v -7.223 h 1.6 z" />
      <path
         id="path1530"
         style="fill:#666666;fill-opacity:1;fill-rule:nonzero;stroke:none"
         d="m 176.8936,1015.4863 c -0.726,0 -1.396,0.124 -2.011,0.369 -0.614,0.245 -1.142,0.611 -1.584,1.097 -0.442,0.487 -0.784,1.093 -1.026,1.818 -0.243,0.727 -0.364,1.567 -0.364,2.518 0,0.887 0.116,1.691 0.347,2.413 0.232,0.722 0.569,1.341 1.011,1.856 0.424,0.497 0.95,0.88 1.577,1.15 0.627,0.271 1.313,0.406 2.056,0.406 0.411,0 0.782,-0.026 1.113,-0.079 0.33,-0.052 0.635,-0.122 0.914,-0.207 0.294,-0.095 0.559,-0.202 0.798,-0.319 0.238,-0.117 0.447,-0.227 0.626,-0.327 v -2.713 h -0.288 c -0.123,0.119 -0.277,0.262 -0.463,0.426 -0.185,0.165 -0.396,0.327 -0.633,0.487 -0.24,0.159 -0.501,0.293 -0.781,0.403 -0.279,0.11 -0.58,0.164 -0.898,0.164 -0.354,0 -0.691,-0.063 -1.011,-0.19 -0.318,-0.128 -0.614,-0.34 -0.885,-0.634 -0.258,-0.285 -0.467,-0.663 -0.626,-1.133 -0.161,-0.47 -0.24,-1.04 -0.24,-1.71 0,-0.7 0.086,-1.285 0.259,-1.755 0.172,-0.47 0.391,-0.84 0.653,-1.11 0.266,-0.275 0.564,-0.471 0.892,-0.589 0.328,-0.117 0.652,-0.176 0.971,-0.176 0.305,0 0.609,0.052 0.908,0.157 0.3,0.105 0.577,0.246 0.831,0.426 0.213,0.145 0.412,0.299 0.597,0.463 0.183,0.165 0.333,0.307 0.452,0.427 h 0.262 v -2.676 c -0.245,-0.126 -0.478,-0.243 -0.702,-0.353 -0.222,-0.11 -0.458,-0.206 -0.701,-0.286 -0.32,-0.105 -0.62,-0.185 -0.899,-0.24 -0.28,-0.055 -0.665,-0.083 -1.155,-0.083" />
      <path
         id="path1534"
         style="fill:#666666;fill-opacity:1;fill-rule:nonzero;stroke:none"
         d="m 187.2319,1020.0186 -1.201,4.009 -1.202,-4.009 z m 3.888,-4.314 h -2.602 l -0.68,2.262 h -3.615 l -0.679,-2.262 h -2.539 l 3.607,11.19 h 2.9 z" />
      <path
         id="path1538"
         style="fill:#666666;fill-opacity:1;fill-rule:nonzero;stroke:none"
         d="m 202.6553,1015.7046 h -2.506 v 7.493 l -1.81,-4.863 h -1.738 l -1.81,4.863 v -7.493 h -2.375 v 11.19 h 2.925 l 2.198,-5.613 2.191,5.613 h 2.925 z" />
      <path
         id="path1542"
         style="fill:#fa96ba;fill-opacity:1;fill-rule:nonzero;stroke:none"
         d="m 181.0029,1015.187 c -0.03,0.422 -0.058,0.876 -0.096,1.112 z" />
      <path
         id="path1546"
         style="fill:#fa96ba;fill-opacity:1;fill-rule:nonzero;stroke:none"
         d="m 181.0508,1014.6445 -0.048,0.542 c 0.014,-0.198 0.03,-0.386 0.048,-0.542" />
    </g>
  </g>
</svg>
