<?xml version="1.0" encoding="UTF-8" standalone="no"?>
<!-- Created with Inkscape (http://www.inkscape.org/) -->

<svg
   xmlns:dc="http://purl.org/dc/elements/1.1/"
   xmlns:cc="http://creativecommons.org/ns#"
   xmlns:rdf="http://www.w3.org/1999/02/22-rdf-syntax-ns#"
   xmlns:svg="http://www.w3.org/2000/svg"
   xmlns="http://www.w3.org/2000/svg"
   xmlns:sodipodi="http://sodipodi.sourceforge.net/DTD/sodipodi-0.dtd"
   xmlns:inkscape="http://www.inkscape.org/namespaces/inkscape"
   width="52.774151mm"
   height="30.285854mm"
   viewBox="0 0 52.774151 30.285854"
   version="1.1"
   id="svg1648"
   inkscape:version="0.92.5 (2060ec1f9f, 2020-04-08)"
   sodipodi:docname="globulos-rojos.svg">
  <defs
     id="defs1642" />
  <sodipodi:namedview
     id="base"
     pagecolor="#ffffff"
     bordercolor="#666666"
     borderopacity="1.0"
     inkscape:pageopacity="0.0"
     inkscape:pageshadow="2"
     inkscape:zoom="0.81210937"
     inkscape:cx="335.95963"
     inkscape:cy="86.516425"
     inkscape:document-units="mm"
     inkscape:current-layer="layer1"
     showgrid="false"
     fit-margin-top="0"
     fit-margin-left="0"
     fit-margin-right="0"
     fit-margin-bottom="0"
     showborder="false"
     inkscape:window-width="1440"
     inkscape:window-height="788"
     inkscape:window-x="0"
     inkscape:window-y="27"
     inkscape:window-maximized="1" />
  <metadata
     id="metadata1645">
    <rdf:RDF>
      <cc:Work
         rdf:about="">
        <dc:format>image/svg+xml</dc:format>
        <dc:type
           rdf:resource="http://purl.org/dc/dcmitype/StillImage" />
        <dc:title></dc:title>
      </cc:Work>
    </rdf:RDF>
  </metadata>
  <g
     inkscape:label="Capa 1"
     inkscape:groupmode="layer"
     id="layer1"
     transform="translate(35.183611,-141.43828)">
    <g
       transform="matrix(0.35277777,0,0,-0.35277777,-113.40268,811.43902)"
       id="g1617">
      <path
         d="m 358.9204,1817.0615 c -9.417,-5.937 -33.572,-6.863 -59.869,13.72 -26.287,20.583 -24.179,52.72 -4.405,59.995 19.769,7.284 47.461,-12.94 60.537,-25.144 8.2,-7.662 16.623,-17.583 16.114,-28.749 -0.368,-8.065 -6.077,-15.843 -12.377,-19.822"
         style="fill:#e0071d;fill-opacity:1;fill-rule:nonzero;stroke:none"
         id="path172"
         inkscape:connector-curvature="0" />
      <path
         inkscape:connector-curvature="0"
         id="path182"
         style="fill:#aa191a;fill-opacity:1;fill-rule:nonzero;stroke:none"
         d="m 355.1978,1842.9614 c 0,0 -8.806,-6.718 -28.507,2.253 -6.95,3.17 -13.565,7.784 -18.238,13.905 -2.95,3.877 -9.125,13.25 -3.125,17.389 3.833,2.646 12.082,-0.068 15.964,-1.415 9,-3.136 11.797,-4.736 18.233,-8.603 15.455,-9.286 23.989,-18.775 15.673,-23.529" />
      <path
         inkscape:connector-curvature="0"
         id="path198"
         style="fill:#ffffff;fill-opacity:1;fill-rule:nonzero;stroke:none"
         d="m 364.6772,1835.7495 c 0,0 -7.546,-10.309 -26.984,-12.538 -5.584,-0.596 2.525,-7.361 19.831,-0.867 13.784,6.14 12.353,17.118 7.153,13.405" />
      <path
         inkscape:connector-curvature="0"
         id="path202"
         style="fill:#ffffff;fill-opacity:1;fill-rule:nonzero;stroke:none"
         d="m 323.1528,1824.6655 c -0.3,-0.824 0.785,-1.982 2.442,-2.583 1.644,-0.606 3.229,-0.427 3.529,0.397 0.3,0.819 -0.785,1.978 -2.438,2.588 -1.643,0.606 -3.237,0.422 -3.533,-0.402" />
      <path
         inkscape:connector-curvature="0"
         id="path218"
         style="fill:#aa191a;fill-opacity:1;fill-rule:nonzero;stroke:none"
         d="m 313.436,1872.4229 c 2.976,-6.456 10.909,-14.428 23.107,-20.879 10.459,-5.525 17.598,-5.714 21.781,-4.866 -0.31,-1.429 -1.318,-2.684 -3.126,-3.716 0,0 -8.806,-6.718 -28.507,2.253 -6.95,3.169 -13.566,7.783 -18.238,13.904 -2.951,3.878 -9.125,13.251 -3.125,17.389 1.037,0.723 2.422,1.052 3.95,1.105 1.565,-0.944 3.004,-2.684 4.158,-5.19" />
      <path
         inkscape:connector-curvature="0"
         id="path234"
         style="fill:#aa191a;fill-opacity:1;fill-rule:nonzero;stroke:none"
         d="m 306.4131,1867.8765 c 3.252,0.229 2.733,-0.169 12.169,-11.137 11.084,-12.223 26.637,-14.176 34.852,-14.714 -3.447,-1.473 -12.078,-3.489 -26.743,3.189 -6.95,3.17 -13.566,7.784 -18.238,13.905 -0.135,0.184 -0.28,0.378 -0.426,0.576 -2.428,4.052 -3.228,8.065 -1.614,8.181" />
      <path
         d="m 316.0718,1823.2119 c 28.915,-16.575 48.184,-0.747 50.889,1.696 -2.211,-3.218 -5.051,-5.966 -8.04,-7.846 -9.417,-5.937 -33.572,-6.863 -59.869,13.72 -21.262,16.658 -23.946,40.856 -13.73,53.365 -9.655,-13.474 0.707,-43.716 30.75,-60.935"
         style="fill:#585758;fill-opacity:1;fill-rule:nonzero;stroke:none"
         id="path256"
         inkscape:connector-curvature="0" />
      <path
         d="m 236.542,1818.0063 c 10.022,-4.836 34.128,-3.02 57.925,20.404 23.791,23.423 18.067,55.114 -2.404,60.111 -20.462,5.001 -45.693,-18.228 -57.31,-31.827 -7.279,-8.544 -14.53,-19.352 -12.76,-30.392 1.284,-7.968 7.831,-15.054 14.549,-18.296"
         style="fill:#e0071d;fill-opacity:1;fill-rule:nonzero;stroke:none"
         id="path272"
         inkscape:connector-curvature="0" />
      <path
         inkscape:connector-curvature="0"
         id="path282"
         style="fill:#aa191a;fill-opacity:1;fill-rule:nonzero;stroke:none"
         d="m 237.3027,1844.1626 c 0,0 9.519,-5.675 28.07,5.462 6.548,3.936 12.601,9.262 16.552,15.877 2.49,4.183 7.565,14.201 1.143,17.637 -4.114,2.195 -12.005,-1.435 -15.708,-3.223 -8.587,-4.129 -11.19,-6.034 -17.151,-10.605 -14.297,-10.972 -21.708,-21.363 -12.906,-25.148" />
      <path
         inkscape:connector-curvature="0"
         id="path298"
         style="fill:#ffffff;fill-opacity:1;fill-rule:nonzero;stroke:none"
         d="m 228.7046,1835.9292 c 0,0 8.656,-9.397 28.226,-9.407 5.612,0.033 -1.677,-7.604 -19.599,-3.107 -14.399,4.546 -14.215,15.611 -8.627,12.514" />
      <path
         inkscape:connector-curvature="0"
         id="path302"
         style="fill:#ffffff;fill-opacity:1;fill-rule:nonzero;stroke:none"
         d="m 271.2085,1829.604 c 0.397,-0.785 -0.553,-2.055 -2.128,-2.835 -1.57,-0.795 -3.16,-0.795 -3.552,-0.01 -0.393,0.781 0.557,2.055 2.127,2.845 1.566,0.785 3.165,0.785 3.553,0" />
      <path
         inkscape:connector-curvature="0"
         id="path318"
         style="fill:#aa191a;fill-opacity:1;fill-rule:nonzero;stroke:none"
         d="m 275.4639,1878.1563 c -2.225,-6.747 -9.208,-15.572 -20.593,-23.36 -9.766,-6.669 -16.842,-7.667 -21.097,-7.299 0.471,-1.382 1.619,-2.51 3.529,-3.335 0,0 9.518,-5.674 28.07,5.463 6.548,3.935 12.601,9.261 16.551,15.877 2.491,4.182 7.565,14.2 1.144,17.636 -1.114,0.596 -2.535,0.766 -4.052,0.645 -1.454,-1.12 -2.689,-3.005 -3.552,-5.627" />
      <path
         inkscape:connector-curvature="0"
         id="path334"
         style="fill:#aa191a;fill-opacity:1;fill-rule:nonzero;stroke:none"
         d="m 282.9561,1874.4341 c -3.256,-0.141 -2.689,-0.48 -10.827,-12.446 -9.63,-13.395 -24.867,-17.098 -32.97,-18.557 3.6,-1.071 12.397,-2.103 26.214,6.194 6.547,3.935 12.601,9.262 16.551,15.877 0.112,0.199 0.238,0.407 0.359,0.62 1.953,4.299 2.292,8.38 0.673,8.312" />
      <path
         d="m 278.4102,1828.9644 c -26.849,-19.739 -47.787,-6.189 -50.757,-4.076 2.564,-2.937 5.699,-5.35 8.889,-6.882 10.022,-4.836 34.128,-3.02 57.925,20.404 19.24,18.95 19.182,43.303 7.609,54.571 11.112,-12.295 4.235,-43.506 -23.666,-64.017"
         style="fill:#585758;fill-opacity:1;fill-rule:nonzero;stroke:none"
         id="path356"
         inkscape:connector-curvature="0" />
    </g>
  </g>
</svg>
