<?xml version="1.0" encoding="UTF-8" standalone="no"?>
<!-- Created with Inkscape (http://www.inkscape.org/) -->

<svg
   xmlns:dc="http://purl.org/dc/elements/1.1/"
   xmlns:cc="http://creativecommons.org/ns#"
   xmlns:rdf="http://www.w3.org/1999/02/22-rdf-syntax-ns#"
   xmlns:svg="http://www.w3.org/2000/svg"
   xmlns="http://www.w3.org/2000/svg"
   xmlns:sodipodi="http://sodipodi.sourceforge.net/DTD/sodipodi-0.dtd"
   xmlns:inkscape="http://www.inkscape.org/namespaces/inkscape"
   viewBox="0 0 38.089664 38.091732"
   version="1.1"
   id="icon-google-plus"
   inkscape:version="0.92.5 (2060ec1f9f, 2020-04-08)"
   sodipodi:docname="google-plus.svg">
  <defs
     id="defs3732" />
  <sodipodi:namedview
     id="base"
     pagecolor="#ffffff"
     bordercolor="#666666"
     borderopacity="1.0"
     inkscape:pageopacity="0.0"
     inkscape:pageshadow="2"
     inkscape:zoom="1.979899"
     inkscape:cx="251.08815"
     inkscape:cy="71.09645"
     inkscape:document-units="mm"
     inkscape:current-layer="layer1"
     showgrid="false"
     fit-margin-top="0"
     fit-margin-left="0"
     fit-margin-right="0"
     fit-margin-bottom="0"
     inkscape:window-width="1440"
     inkscape:window-height="784"
     inkscape:window-x="0"
     inkscape:window-y="27"
     inkscape:window-maximized="1" />
  <metadata
     id="metadata3735">
    <rdf:RDF>
      <cc:Work
         rdf:about="">
        <dc:format>image/svg+xml</dc:format>
        <dc:type
           rdf:resource="http://purl.org/dc/dcmitype/StillImage" />
        <dc:title></dc:title>
      </cc:Work>
    </rdf:RDF>
  </metadata>
  <g
     inkscape:label="Capa 1"
     inkscape:groupmode="layer"
     id="layer1"
     transform="translate(146.04483,-79.894347)">
    <path
       d="m -480,301.96289 c -39.73689,0 -71.98047,32.24777 -71.98047,71.98242 0,39.73235 32.24335,71.98633 71.98047,71.98633 39.73013,0 71.98047,-32.2539 71.98047,-71.98633 0,-39.73472 -32.25057,-71.98242 -71.98047,-71.98242 z m 0,3.55078 c 37.81346,0 68.4375,30.61341 68.4375,68.43164 0,37.81583 -30.62427,68.44336 -68.4375,68.44336 -37.8206,0 -68.4375,-30.62749 -68.4375,-68.44336 0,-37.8183 30.61667,-68.43164 68.4375,-68.43164 z m -19.04883,37.93164 c -16.84335,0 -30.50195,13.65661 -30.50195,30.5 0,16.84809 13.6586,30.51172 30.50195,30.51172 16.17918,0 27.875,-12.348 27.875,-29.19141 l -0.0488,-3.14843 h -28.36718 l 0.0332,8.12695 h 19.125 c -2.26235,9.89325 -9.24158,15.95899 -18.61719,15.95898 -12.28792,0 -22.24609,-9.96035 -22.24609,-22.25781 0,-12.28566 9.95817,-22.25 22.24609,-22.25 5.84856,0 11.16129,2.25205 15.13281,5.9375 l 6.27149,-5.41015 c -5.50095,-5.42529 -13.05937,-8.77735 -21.4043,-8.77735 z m 49.41406,17.30078 v 11.70703 h -11.70703 v 7.47071 h 11.70703 v 11.70898 h 7.47071 v -11.70898 h 11.71289 v -7.47071 h -11.71289 v -11.70703 z"
       transform="scale(0.26458333)"
       id="path294"
       inkscape:connector-curvature="0" />
  </g>
</svg>
