<?xml version="1.0" encoding="UTF-8" standalone="no"?>
<svg
   xmlns:dc="http://purl.org/dc/elements/1.1/"
   xmlns:cc="http://creativecommons.org/ns#"
   xmlns:rdf="http://www.w3.org/1999/02/22-rdf-syntax-ns#"
   xmlns:svg="http://www.w3.org/2000/svg"
   xmlns="http://www.w3.org/2000/svg"
   xmlns:sodipodi="http://sodipodi.sourceforge.net/DTD/sodipodi-0.dtd"
   xmlns:inkscape="http://www.inkscape.org/namespaces/inkscape"
   id="svg5736"
   version="1.1"
   viewBox="0 0 132.2195 156.82143"
   height="156.82143mm"
   width="132.2195mm"
   sodipodi:docname="guia-icon.svg"
   inkscape:version="0.92.5 (2060ec1f9f, 2020-04-08)">
  <sodipodi:namedview
     pagecolor="#ffffff"
     bordercolor="#666666"
     borderopacity="1"
     objecttolerance="10"
     gridtolerance="10"
     guidetolerance="10"
     inkscape:pageopacity="0"
     inkscape:pageshadow="2"
     inkscape:window-width="1366"
     inkscape:window-height="652"
     id="namedview10"
     showgrid="false"
     inkscape:zoom="0.39817132"
     inkscape:cx="520.09322"
     inkscape:cy="123.54007"
     inkscape:window-x="0"
     inkscape:window-y="27"
     inkscape:window-maximized="1"
     inkscape:current-layer="svg5736"
     fit-margin-top="0"
     fit-margin-left="0"
     fit-margin-right="0"
     fit-margin-bottom="0" />
  <defs
     id="defs5730" />
  <metadata
     id="metadata5733">
    <rdf:RDF>
      <cc:Work
         rdf:about="">
        <dc:format>image/svg+xml</dc:format>
        <dc:type
           rdf:resource="http://purl.org/dc/dcmitype/StillImage" />
        <dc:title></dc:title>
      </cc:Work>
    </rdf:RDF>
  </metadata>
  <path
     style="fill-opacity:1;fill-rule:nonzero;stroke:none;stroke-width:1.10135365"
     d="M 116.51477,5.1355219e-7 C 107.93302,0.00261522 99.355702,0.02687226 90.77836,0.02687226 66.203852,0.02136549 41.623722,0.00737086 17.04591,0.00516816 c -4.338233,0 -6.171037,1.85660244 -6.182051,6.19703764 -0.01101,3.4549469 0,3.5818617 0,7.3132482 -1.9648152,0 -3.6451752,-0.03662 -5.3247396,0.0041 -3.2963519,0.0826 -5.42774363,2.072588 -5.45858153,5.053954 -0.03304062,3.006696 1.91865603,5.041132 5.20950113,5.140254 1.7489498,0.05176 1.8119053,0.0078 5.115967,0.0078 V 36.1854 c -3.3040617,0 -3.422831,-0.04091 -5.1045983,0.01085 -3.2434869,0.101328 -5.32319885,2.197497 -5.29786771,5.164545 0.03083791,3.000087 2.04534721,4.962575 5.35161111,5.019847 1.7379366,0.03194 1.7467932,0.0088 5.0508549,0.0088 v 12.506214 c -3.3040617,0 -3.4507104,-0.04303 -5.1412884,0.0098 -3.2500952,0.100224 -5.27965516,2.166403 -5.25652673,5.185214 0.01982436,2.88004 2.45164993,4.888796 5.60482583,4.994526 1.7533551,0.05837 1.4887982,0.01085 5.8942143,0.01085 v 9.030973 3.464904 c -4.4054161,0 -4.1165712,-0.04951 -5.8699263,0.0078 -3.1212368,0.09802 -5.37027305,2.129965 -5.39450283,5.018815 -0.0297366,3.00119 1.86866873,5.080622 5.09012853,5.151107 1.7467471,0.03855 1.7690139,0.0067 5.0730756,0.0067 v 12.520165 c -3.3040617,0 -3.5156418,-0.0383 -5.2678957,0.008 -3.1476692,0.0859 -5.10132622,2.06566 -5.13767089619,5.00848 -0.0352433238,2.91389 2.05273689619,5.03299 5.12991939619,5.15525 1.7654701,0.0705 3.5498386,0.0155 5.7117962,0.0155 0,3.78976 0.01085,7.25569 0.01085,10.71614 0.01211,4.21268 1.871292,6.11487 6.048726,6.11487 27.536048,0.009 14.682047,0.0129 42.218094,0.007 L 62.446238,117.119 c 0,0 2.903046,0.23024 10.549742,1.14877 7.648903,0.91743 20.85971,-3.49384 20.85971,-3.49384 l 0.0021,-5.3e-4 c 0,0 -0.03185,-12.70834 5.939689,-24.799004 4.822831,-9.761297 15.249291,-10.88618 22.774831,-3.828706 0,-27.79927 1.5e-4,-52.277671 -0.0108,-80.0824492 0,-4.2985837 -1.79874,-6.06429695 -6.04666,-6.063195596864 z M 16.849023,14.039453 c 0.364892,-0.0067 0.723127,-0.0083 1.076937,0 3.062865,0.06388 5.199263,1.812623 5.474601,4.475696 0.01432,0.157494 -0.428084,0.317209 -0.42478,0.478007 0,0.0099 -0.452686,0.02226 -0.452686,0.02997 v 0.0098 c 0,2.943919 -1.662902,5.009009 -4.894275,5.092712 -1.567226,0.04075 -2.911317,0.0078 -4.432287,0.0078 l 0.12144,-10.005591 c 1.28115,0 2.436373,-0.06823 3.53105,-0.08837 z m 50.548852,7.671884 c 5.216011,-0.01872 9.623186,4.351618 9.623186,9.546703 0,5.371304 -4.312409,9.646904 -9.749792,9.664528 -5.186275,0.01431 -9.476452,-4.372674 -9.467641,-9.678998 0.01101,-5.269977 4.278013,-9.51351 9.594247,-9.532233 z M 17.92596,37.227185 c 3.062865,0.06608 5.199263,1.818442 5.474601,4.479314 0.01432,0.15639 -0.428084,0.31514 -0.42478,0.475938 0,0.01212 -0.452686,0.02103 -0.452686,0.03204 v 0.0088 c 0,2.943918 -1.662902,5.007909 -4.894275,5.092713 -1.567226,0.03965 -2.911317,0.0074 -4.432287,0.0052 l 0.12144,-10.005592 c 1.708199,0 3.192747,-0.119203 4.607987,-0.08837 z m 45.317647,7.528222 c 1.362924,0.0011 2.726391,0.01323 4.078303,0.02479 3.973684,0.03194 5.865469,1.810883 5.887498,5.794478 0.04956,9.351598 0.03081,18.70089 0.0341,28.053586 0,2.377823 0.01138,4.758965 0.01138,7.484813 1.551807,0 2.708036,-0.04516 3.854545,0.0088 2.956033,0.137668 5.159655,2.397879 5.129919,5.207434 -0.03524,2.704926 -2.187017,4.910572 -5.114417,4.948018 -6.026608,0.07269 -12.05439,0.07507 -18.082099,-0.01963 h -0.0057 c -2.942818,-0.04736 -4.962403,-2.250162 -4.946983,-5.033285 0.01431,-2.79083 1.736851,-4.945867 4.598167,-5.106665 1.216996,-0.06498 2.376471,-0.01138 3.477823,-0.01138 V 54.955819 c -1.101352,0 -2.067028,0.03726 -3.20032,-0.0057 -3.08269,-0.115641 -5.060699,-2.209225 -5.051888,-5.052919 0.01101,-2.905371 2.175076,-5.016381 5.254461,-5.097881 1.349708,-0.03414 2.712278,-0.04489 4.075202,-0.04393 z M 17.92596,59.02637 c 3.062865,0.06498 5.199263,1.814039 5.474601,4.479314 0.01432,0.156392 -0.428084,0.313592 -0.42478,0.47439 0,0.01101 -0.452686,0.0222 -0.452686,0.03101 v 0.0067 c 0,2.946122 -1.662902,5.011076 -4.894275,5.094779 -1.567226,0.04405 -2.911317,0.0068 -4.432287,0.0057 l 0.12144,-10.005073 c 1.708199,0 3.192747,-0.117653 4.607987,-0.08682 z m 0,22.725229 c 3.062865,0.06608 5.199263,1.81397 5.474601,4.480346 0.01432,0.15309 -0.428084,0.314041 -0.42478,0.47594 0,0.0099 -0.452686,0.01849 -0.452686,0.02842 v 0.01138 c 0,2.945021 -1.662902,5.006424 -4.894275,5.090128 -1.567226,0.03965 -2.911317,0.0078 -4.432287,0.0078 l 0.12144,-10.006623 c 1.708199,0 3.192747,-0.118169 4.607987,-0.08733 z M 118.0015,87.73056 c -4.79865,0.05675 -9.34877,2.818794 -12.08763,8.3659 -5.973746,12.09066 -5.941755,24.79694 -5.941755,24.79694 0,0 -13.206156,4.41295 -20.855059,3.49332 -7.651104,-0.91742 -10.549744,-1.14515 -10.549744,-1.14515 l -1.615922,6.49108 c 0,0 26.145246,7.65991 47.39918,-7.33392 16.53241,-11.66664 22.10383,-22.638478 14.56396,-29.92944 -3.29821,-3.190758 -7.18074,-4.782865 -10.91303,-4.73873 z m -0.32142,7.841901 c 0.78221,0.0032 1.7263,0.223496 2.89284,0.729671 3.61794,1.566124 5.01493,6.332948 -0.72863,12.743918 -5.19288,5.79092 -11.84838,7.39129 -11.84838,7.39129 0,0 2.85886,-12.36524 4.77852,-15.70344 1.38702,-2.413511 2.11202,-5.172935 4.90565,-5.161439 z m -99.75412,9.366869 c 3.062865,0.065 5.199263,1.81403 5.474601,4.47931 0.01432,0.15749 -0.428084,0.31494 -0.42478,0.47905 0,0.01 -0.452686,0.0165 -0.452686,0.0253 v 0.01 c 0,2.94392 -1.662902,5.01218 -4.894275,5.09478 v 5.3e-4 c -1.567226,0.0363 -2.911317,0.008 -4.432287,0.004 l 0.12144,-10.00404 c 1.708199,0 3.192747,-0.11974 4.607987,-0.0889 z m 89.00077,24.1577 -7.487917,2.28461 c 0,0 -0.48041,9.33359 0.624257,13.52424 1.09805,4.19395 6.18618,11.91555 6.18618,11.91555 l 4.98833,-3.36982 c 0,0 -3.15341,-7.70202 -4.15014,-12.09641 -0.99562,-4.39882 -0.16071,-12.25817 -0.16071,-12.25817 z"
     id="path1786"
     inkscape:connector-curvature="0" />
</svg>
