<?xml version="1.0" encoding="UTF-8" standalone="no"?>
<svg
   xmlns:dc="http://purl.org/dc/elements/1.1/"
   xmlns:cc="http://creativecommons.org/ns#"
   xmlns:rdf="http://www.w3.org/1999/02/22-rdf-syntax-ns#"
   xmlns:svg="http://www.w3.org/2000/svg"
   xmlns="http://www.w3.org/2000/svg"
   id="svg1709"
   version="1.1"
   viewBox="0 0 64.217346 103.64583"
   height="103.64583mm"
   width="64.217346mm">
  <defs
     id="defs1703">
    <clipPath
       id="clipPath158"
       clipPathUnits="userSpaceOnUse">
      <path
         id="path156"
         d="M 0,560 H 960 V 0 H 0 Z" />
    </clipPath>
  </defs>
  <metadata
     id="metadata1706">
    <rdf:RDF>
      <cc:Work
         rdf:about="">
        <dc:format>image/svg+xml</dc:format>
        <dc:type
           rdf:resource="http://purl.org/dc/dcmitype/StillImage" />
        <dc:title></dc:title>
      </cc:Work>
    </rdf:RDF>
  </metadata>
  <g
     transform="translate(-79.772284,-90.206842)"
     id="layer1">
    <g
       id="g152"
       transform="matrix(0.94642063,0,0,-0.94642063,-374.81985,567.8164)">
      <g
         clip-path="url(#clipPath158)"
         id="g154">
        <g
           transform="translate(539.9316,456.3105)"
           id="g160">
          <path
             id="path162"
             style="fill-opacity:1;fill-rule:nonzero;stroke:none"
             d="M 0,0 C -1.371,0.083 -2.934,-0.351 -2.797,1.864 -2.65,4.344 -0.781,3.427 0.489,3.573 1.871,3.732 3.258,3.709 3.18,1.673 3.082,-0.886 1.09,0.356 0,0 m 3.149,-12.077 c -0.121,-2.213 -1.836,-1.478 -3.061,-1.626 -1.363,-0.029 -2.856,-0.335 -2.885,1.818 -0.029,2.19 1.527,1.843 2.855,1.836 1.449,0 3.233,0.401 3.091,-2.028 M 3.17,15.357 c -0.131,-2.19 -1.848,-1.403 -2.899,-1.648 -1.352,0.187 -3.039,-0.445 -3.039,1.771 0,2.553 1.938,1.623 3.223,1.755 1.367,0.141 2.84,0.231 2.715,-1.878 m -48.191,7.484 c -3.102,0.038 -3.93,-0.813 -3.868,-3.88 0.2,-9.83 0.16,-19.67 0.01,-29.499 -0.033,-2.36 0.736,-3.408 2.942,-4.004 3.699,-0.993 7.411,-1.849 11.219,-2.273 1.697,-0.194 2.715,-0.608 2.468,-2.754 -0.252,-2.163 -1.566,-1.851 -2.902,-1.726 -5.889,0.533 -11.532,2.042 -16.998,4.26 -1.837,0.749 -2.268,1.953 -2.264,3.818 0.059,15.706 0.072,31.415 -0.028,47.122 -0.016,2.564 0.911,3.224 3.342,3.191 8.609,-0.12 17.216,-0.05 25.82,-0.05 8.19,0 16.391,0.037 24.587,-0.028 1.527,-0.012 3.601,0.927 3.732,-2.206 L 3.023,24.934 C 2.975,22.17 1.158,22.775 -0.358,22.775 c -14.89,-0.022 -29.779,-0.104 -44.663,0.066 m 23.545,-27.427 c -2.68,-1.122 -5.802,-0.007 -7.217,2.583 -1.414,2.579 -0.661,5.487 2.045,7.306 1.929,1.296 4.062,2.285 5.892,3.876 0.805,-2.366 1.615,-4.544 2.284,-6.761 0.921,-3.055 -0.339,-5.89 -3.004,-7.004 M -25.004,46 c 1.725,-0.177 2.569,-1.281 2.539,-3.129 -0.28,-1.764 -1.304,-2.856 -3.252,-2.643 -1.72,0.192 -2.646,1.396 -2.539,3.061 0.116,1.89 1.322,2.912 3.252,2.711 M 8.186,35.567 c -0.02,4.742 -2.109,6.638 -6.873,6.738 -4.633,0.094 -9.276,0.121 -13.915,0.005 -2.238,-0.059 -3.634,0.213 -4.482,2.83 -1.187,3.672 -4.623,3.135 -8.594,3.17 -4.147,0.029 -6.81,0.455 -8.054,-3.378 -0.79,-2.446 -2.071,-2.681 -4.15,-2.635 -4.909,0.102 -9.823,0.158 -14.733,0.027 -4.997,-0.126 -6.843,-2.096 -6.873,-7.127 -0.054,-8.462 -0.02,-16.925 -0.01,-25.384 0.005,-8.186 0.213,-16.381 -0.097,-24.558 -0.136,-3.541 1.304,-5.171 4.279,-6.41 6.074,-2.537 12.283,-4.486 18.792,-5.489 1.061,-0.162 2.975,-0.393 3.018,-0.765 0,0 -3.726,-0.51 -2.457,-1.921 1.27,-1.412 23.569,-1.27 25.686,0 2.116,1.269 -2.959,2.924 -2.959,2.924 6.32,1.243 12.422,3.068 18.287,5.756 2.088,0.952 3.207,2.216 3.198,4.64 C 8.195,1.182 8.287,18.374 8.186,35.567" />
        </g>
        <path
           id="path164"
           style="fill-opacity:1;fill-rule:nonzero;stroke:none"
           d="m 521,423 h -2 v 5 h 2 z" />
        <g
           transform="translate(523.7187,395.1348)"
           id="g166">
          <path
             id="path168"
             style="fill-opacity:1;fill-rule:nonzero;stroke:none"
             d="m 0,0 c -0.334,0 -0.67,0.01 -1.005,0.029 -3.417,0.207 -6.347,1.483 -7.835,3.413 -4.752,6.161 -2.968,27.07 -2.749,29.434 0.105,1.135 1.107,1.968 2.245,1.864 1.135,-0.105 1.969,-1.11 1.865,-2.245 C -8.247,24.188 -8.408,9.641 -5.572,5.963 -4.959,5.168 -3.232,4.299 -0.756,4.149 0.972,4.046 5.398,4.208 9.098,7.966 9.897,8.778 11.204,8.788 12.017,7.989 12.828,7.189 12.839,5.883 12.039,5.07 8.837,1.816 4.496,0 0,0" />
        </g>
      </g>
    </g>
  </g>
</svg>
