<?xml version="1.0" encoding="UTF-8" standalone="no"?>
<!-- Created with Inkscape (http://www.inkscape.org/) -->

<svg
   xmlns:osb="http://www.openswatchbook.org/uri/2009/osb"
   xmlns:dc="http://purl.org/dc/elements/1.1/"
   xmlns:cc="http://creativecommons.org/ns#"
   xmlns:rdf="http://www.w3.org/1999/02/22-rdf-syntax-ns#"
   xmlns:svg="http://www.w3.org/2000/svg"
   xmlns="http://www.w3.org/2000/svg"
   xmlns:sodipodi="http://sodipodi.sourceforge.net/DTD/sodipodi-0.dtd"
   xmlns:inkscape="http://www.inkscape.org/namespaces/inkscape"
   width="49.296429mm"
   height="63.245415mm"
   viewBox="0 0 49.296429 63.245415"
   version="1.1"
   id="svg1228"
   inkscape:version="0.92.5 (2060ec1f9f, 2020-04-08)"
   sodipodi:docname="icono-encuesta.svg">
  <defs
     id="defs1222">
    <linearGradient
       id="linearGradient1817"
       osb:paint="solid">
      <stop
         style="stop-color:#000000;stop-opacity:1;"
         offset="0"
         id="stop1815" />
    </linearGradient>
    <clipPath
       clipPathUnits="userSpaceOnUse"
       id="clipPath869">
      <path
         style="opacity:1;fill:none;fill-opacity:1;stroke:#000000;stroke-width:0.20461081;stroke-miterlimit:4;stroke-dasharray:none;stroke-opacity:1"
         d="m 74.579427,30.340784 c -1.372507,0 -2.477368,0.181975 -2.477368,0.407726 v 7.399549 c 0,0.22575 1.104861,0.407728 2.477368,0.407728 0.0081,0 0.01564,-5.29e-4 0.02376,-5.29e-4 v 0.115755 c 0,0.225753 1.148508,0.407728 2.575038,0.407728 1.426528,0 2.574518,-0.181975 2.574518,-0.407728 v -4.146 c 0,-0.22575 -1.14799,-0.407209 -2.574518,-0.407209 -0.04162,0 -0.08032,0.0019 -0.121441,0.0021 v -3.371372 c 0,-0.22575 -1.10486,-0.407725 -2.477368,-0.407725 z"
         id="path871"
         inkscape:connector-curvature="0" />
    </clipPath>
  </defs>
  <sodipodi:namedview
     id="base"
     pagecolor="#ffffff"
     bordercolor="#666666"
     borderopacity="1.0"
     inkscape:pageopacity="0.0"
     inkscape:pageshadow="2"
     inkscape:zoom="0.49497475"
     inkscape:cx="-141.71076"
     inkscape:cy="147.7717"
     inkscape:document-units="mm"
     inkscape:current-layer="layer1"
     showgrid="false"
     fit-margin-top="0"
     fit-margin-left="0"
     fit-margin-right="0"
     fit-margin-bottom="0"
     inkscape:window-width="1366"
     inkscape:window-height="652"
     inkscape:window-x="0"
     inkscape:window-y="27"
     inkscape:window-maximized="1" />
  <metadata
     id="metadata1225">
    <rdf:RDF>
      <cc:Work
         rdf:about="">
        <dc:format>image/svg+xml</dc:format>
        <dc:type
           rdf:resource="http://purl.org/dc/dcmitype/StillImage" />
        <dc:title></dc:title>
      </cc:Work>
    </rdf:RDF>
  </metadata>
  <g
     inkscape:label="Capa 1"
     inkscape:groupmode="layer"
     id="layer1"
     transform="translate(-65.166028,-174.74802)">
    <g
       transform="matrix(4.7976699,0,0,4.7976699,-385.85046,41.407852)"
       id="g1153"
       style="fill-opacity:1">
      <path
         style="color:#000000;font-style:normal;font-variant:normal;font-weight:normal;font-stretch:normal;font-size:medium;line-height:normal;font-family:sans-serif;font-variant-ligatures:normal;font-variant-position:normal;font-variant-caps:normal;font-variant-numeric:normal;font-variant-alternates:normal;font-feature-settings:normal;text-indent:0;text-align:start;text-decoration:none;text-decoration-line:none;text-decoration-style:solid;text-decoration-color:#000000;letter-spacing:normal;word-spacing:normal;text-transform:none;writing-mode:lr-tb;direction:ltr;text-orientation:mixed;dominant-baseline:auto;baseline-shift:baseline;text-anchor:start;white-space:normal;shape-padding:0;clip-rule:nonzero;display:inline;overflow:visible;visibility:visible;opacity:1;isolation:auto;mix-blend-mode:normal;color-interpolation:sRGB;color-interpolation-filters:linearRGB;solid-color:#000000;solid-opacity:1;vector-effect:none;fill-opacity:1;fill-rule:nonzero;stroke:none;stroke-width:0.28980345;stroke-linecap:butt;stroke-linejoin:miter;stroke-miterlimit:4;stroke-dasharray:none;stroke-dashoffset:0;stroke-opacity:1;color-rendering:auto;image-rendering:auto;shape-rendering:auto;text-rendering:auto;enable-background:accumulate"
         d="m 100.74276,32.7405 c -0.20195,0 -0.38412,0.0071 -0.52064,0.02082 -0.0683,0.0069 -0.12337,0.01499 -0.17101,0.0263 -0.0238,0.0057 -0.0452,0.01078 -0.07232,0.02411 -0.01347,0.0066 -0.02963,0.01557 -0.04929,0.03507 -0.01966,0.01951 -0.04606,0.05859 -0.04606,0.109616 v 1.979562 c 0,0.05102 0.0264,0.09119 0.04606,0.110707 0.01966,0.01951 0.03582,0.02733 0.04929,0.03398 0.02707,0.01333 0.04849,0.01845 0.07232,0.02411 0.0477,0.01131 0.10277,0.01947 0.17101,0.0263 0.13652,0.01367 0.31869,0.02193 0.52064,0.02193 h 0.50092 c 0.20194,0 0.38412,-0.0082 0.52065,-0.02193 0.0683,-0.0069 0.12444,-0.01498 0.17209,-0.0263 0.0238,-0.0057 0.0442,-0.01078 0.0713,-0.02411 0.0135,-0.0066 0.0296,-0.01447 0.0493,-0.03398 0.0197,-0.01952 0.0471,-0.05969 0.0471,-0.110707 v -1.979562 c 0,-0.05102 -0.0275,-0.09009 -0.0471,-0.109616 -0.0197,-0.01952 -0.0358,-0.02843 -0.0493,-0.03507 -0.0271,-0.01333 -0.0474,-0.01845 -0.0713,-0.02411 -0.0477,-0.01131 -0.10384,-0.01947 -0.17209,-0.0263 -0.13653,-0.01367 -0.31871,-0.02082 -0.52065,-0.02082 z m 0,0.289371 h 0.50092 c 0.19416,0 0.37022,0.0075 0.49215,0.01973 0.0354,0.0035 0.0531,0.007 0.0778,0.01091 v 1.771303 c -0.0248,0.0039 -0.0424,0.0074 -0.0778,0.01091 -0.12189,0.01226 -0.29799,0.01973 -0.49215,0.01973 h -0.50092 c -0.19415,0 -0.36913,-0.0075 -0.49105,-0.01973 -0.036,-0.0036 -0.054,-0.0081 -0.0789,-0.01199 V 33.06166 c 0.0249,-0.004 0.043,-0.0085 0.0789,-0.01212 0.12188,-0.01226 0.2969,-0.01973 0.49105,-0.01973 z"
         id="rect951"
         inkscape:connector-curvature="0" />
      <path
         style="color:#000000;font-style:normal;font-variant:normal;font-weight:normal;font-stretch:normal;font-size:medium;line-height:normal;font-family:sans-serif;font-variant-ligatures:normal;font-variant-position:normal;font-variant-caps:normal;font-variant-numeric:normal;font-variant-alternates:normal;font-feature-settings:normal;text-indent:0;text-align:start;text-decoration:none;text-decoration-line:none;text-decoration-style:solid;text-decoration-color:#000000;letter-spacing:normal;word-spacing:normal;text-transform:none;writing-mode:lr-tb;direction:ltr;text-orientation:mixed;dominant-baseline:auto;baseline-shift:baseline;text-anchor:start;white-space:normal;shape-padding:0;clip-rule:nonzero;display:inline;overflow:visible;visibility:visible;opacity:1;isolation:auto;mix-blend-mode:normal;color-interpolation:sRGB;color-interpolation-filters:linearRGB;solid-color:#000000;solid-opacity:1;vector-effect:none;fill-opacity:1;fill-rule:nonzero;stroke:none;stroke-width:0.80637449;stroke-linecap:round;stroke-linejoin:miter;stroke-miterlimit:4;stroke-dasharray:none;stroke-dashoffset:0;stroke-opacity:1;color-rendering:auto;image-rendering:auto;shape-rendering:auto;text-rendering:auto;enable-background:accumulate"
         d="m 75.238281,30.8125 c -0.561908,0 -1.06931,0.02251 -1.449219,0.06055 -0.189954,0.01902 -0.345878,0.04076 -0.478515,0.07227 -0.06632,0.01575 -0.125933,0.03135 -0.201172,0.06836 -0.03762,0.0185 -0.08002,0.0414 -0.134766,0.0957 -0.05474,0.0543 -0.128906,0.164678 -0.128906,0.306641 v 5.507812 c 0,0.141963 0.07416,0.252338 0.128906,0.306641 0.05475,0.0543 0.09715,0.0772 0.134766,0.0957 0.07524,0.03701 0.134853,0.05261 0.201172,0.06836 0.132637,0.03151 0.288561,0.05129 0.478515,0.07031 0.379909,0.03804 0.887311,0.06055 1.449219,0.06055 h 1.392578 c 0.561909,0 1.067358,-0.02251 1.447266,-0.06055 0.189954,-0.01902 0.345879,-0.03881 0.478516,-0.07031 0.06632,-0.01575 0.125932,-0.03135 0.201171,-0.06836 0.03762,-0.0185 0.08002,-0.0414 0.134766,-0.0957 0.05475,-0.0543 0.13086,-0.164678 0.13086,-0.306641 v -5.507812 c 0,-0.141963 -0.07611,-0.252338 -0.13086,-0.306641 -0.05474,-0.0543 -0.09715,-0.0772 -0.134766,-0.0957 -0.07524,-0.03701 -0.134853,-0.05261 -0.201171,-0.06836 -0.132637,-0.03151 -0.288562,-0.05324 -0.478516,-0.07227 -0.379908,-0.03804 -0.885357,-0.06055 -1.447266,-0.06055 z m 0,0.806641 h 1.392578 c 0.540241,0 1.027914,0.02267 1.367188,0.05664 0.09942,0.01 0.149679,0.02025 0.21875,0.03125 v 4.925781 c -0.06907,0.011 -0.119331,0.0213 -0.21875,0.03125 -0.339274,0.03397 -0.826947,0.05469 -1.367188,0.05469 h -1.392578 c -0.54024,0 -1.029867,-0.02072 -1.36914,-0.05469 -0.09942,-0.01 -0.149679,-0.02025 -0.21875,-0.03125 v -4.925781 c 0.06907,-0.011 0.11933,-0.0213 0.21875,-0.03125 0.339273,-0.03397 0.8289,-0.05664 1.36914,-0.05664 z"
         clip-path="url(#clipPath869)"
         id="rect953"
         inkscape:connector-curvature="0"
         transform="matrix(0.35939065,0,0,0.35939065,73.76205,25.182553)" />
      <path
         style="color:#000000;font-style:normal;font-variant:normal;font-weight:normal;font-stretch:normal;font-size:medium;line-height:normal;font-family:sans-serif;font-variant-ligatures:normal;font-variant-position:normal;font-variant-caps:normal;font-variant-numeric:normal;font-variant-alternates:normal;font-feature-settings:normal;text-indent:0;text-align:start;text-decoration:none;text-decoration-line:none;text-decoration-style:solid;text-decoration-color:#000000;letter-spacing:normal;word-spacing:normal;text-transform:none;writing-mode:lr-tb;direction:ltr;text-orientation:mixed;dominant-baseline:auto;baseline-shift:baseline;text-anchor:start;white-space:normal;shape-padding:0;clip-rule:nonzero;display:inline;overflow:visible;visibility:visible;opacity:1;isolation:auto;mix-blend-mode:normal;color-interpolation:sRGB;color-interpolation-filters:linearRGB;solid-color:#000000;solid-opacity:1;vector-effect:none;fill-opacity:1;fill-rule:nonzero;stroke:none;stroke-width:0.29958993;stroke-linecap:round;stroke-linejoin:miter;stroke-miterlimit:4;stroke-dasharray:none;stroke-dashoffset:0;stroke-opacity:1;color-rendering:auto;image-rendering:auto;shape-rendering:auto;text-rendering:auto;enable-background:accumulate"
         d="m 102.46036,35.904949 a 0.14980994,0.14980994 0 0 0 -0.11071,0.06028 l -1.0994,1.443568 -0.44281,-0.443922 a 0.14997925,0.14997925 0 1 0 -0.21156,0.212644 l 0.68507,0.685064 1.30656,-1.715401 a 0.14980994,0.14980994 0 0 0 -0.12714,-0.242238 z"
         id="path955"
         inkscape:connector-curvature="0" />
      <path
         style="color:#000000;font-style:normal;font-variant:normal;font-weight:normal;font-stretch:normal;font-size:medium;line-height:normal;font-family:sans-serif;font-variant-ligatures:normal;font-variant-position:normal;font-variant-caps:normal;font-variant-numeric:normal;font-variant-alternates:normal;font-feature-settings:normal;text-indent:0;text-align:start;text-decoration:none;text-decoration-line:none;text-decoration-style:solid;text-decoration-color:#000000;letter-spacing:normal;word-spacing:normal;text-transform:none;writing-mode:lr-tb;direction:ltr;text-orientation:mixed;dominant-baseline:auto;baseline-shift:baseline;text-anchor:start;white-space:normal;shape-padding:0;clip-rule:nonzero;display:inline;overflow:visible;visibility:visible;opacity:1;isolation:auto;mix-blend-mode:normal;color-interpolation:sRGB;color-interpolation-filters:linearRGB;solid-color:#000000;solid-opacity:1;vector-effect:none;fill-opacity:1;fill-rule:nonzero;stroke:none;stroke-width:0.34681195;stroke-linecap:butt;stroke-linejoin:miter;stroke-miterlimit:4;stroke-dasharray:none;stroke-dashoffset:0;stroke-opacity:1;color-rendering:auto;image-rendering:auto;shape-rendering:auto;text-rendering:auto;enable-background:accumulate"
         d="m 98.983169,27.792731 c -0.101818,-4.63e-4 -0.238855,0.004 -0.379623,0.02349 -0.140768,0.01939 -0.287138,0.05174 -0.418478,0.121522 -0.131313,0.06978 -0.256957,0.197793 -0.276391,0.372663 -0.02747,0.246685 0.02357,0.427374 0.05482,0.54377 0.03111,0.11639 0.0431,0.136094 0.004,0.207068 -0.01212,0.02308 -0.04875,0.04436 -0.171111,0.05481 -0.122289,0.0105 -0.296148,7.3e-4 -0.482289,0.0044 -0.186142,0.0036 -0.38904,0.02101 -0.57857,0.109629 -0.189525,0.08862 -0.356976,0.259198 -0.441972,0.514189 -0.005,0.01512 -0.0081,0.02917 -0.01279,0.04408 H 95.38321 c -0.760666,0 -1.375808,0.626051 -1.375807,1.393211 v 8.400447 c 0,0.767158 0.615141,1.393211 1.375807,1.393211 h 7.52259 c 0.76066,0 1.37668,-0.626053 1.37668,-1.393211 v -8.400476 c 0,-0.767159 -0.61602,-1.393212 -1.37668,-1.393212 h -0.87758 c -0.0236,-0.07157 -0.0516,-0.14407 -0.0896,-0.218378 -0.12014,-0.23428 -0.30555,-0.381645 -0.49969,-0.460536 -0.19414,-0.0789 -0.3952,-0.09612 -0.57133,-0.09948 -0.17613,-0.0034 -0.33282,0.0061 -0.42079,-0.0012 -0.0158,-0.0013 -0.0108,-0.0013 -0.0209,-0.0035 0.003,-0.141247 0.0162,-0.291059 0.0141,-0.443716 -0.003,-0.171133 -0.0253,-0.355867 -0.15225,-0.503168 -0.17458,-0.202604 -0.443654,-0.227278 -0.677472,-0.2468 -0.116903,-0.0097 -0.226654,-0.01145 -0.311179,-0.01185 -0.04229,-2.04e-4 -0.07825,1.32e-4 -0.104108,0 -0.02586,-1.32e-4 -0.05347,-0.0042 -0.02842,0 l -0.0081,-0.0012 h -0.0081 c 0,0 -0.06667,-0.0054 -0.168498,-0.0058 z m -0.0054,0.347144 c 0.08929,-6.1e-5 0.149064,0.004 0.149064,0.004 l -0.01657,-0.0023 c 0.0431,0.0071 0.05428,0.0042 0.08323,0.0044 0.02896,1.47e-4 0.06384,9.53e-4 0.104108,0.0012 0.08054,3.91e-4 0.182478,0.0024 0.285077,0.01104 0.205199,0.01713 0.408835,0.08655 0.443712,0.12703 0.0432,0.05013 0.0664,0.141622 0.0682,0.28073 0.001,0.13911 -0.0176,0.311981 -0.0176,0.493309 0,0.09051 0.0611,0.194258 0.13374,0.237809 0.0726,0.04354 0.14043,0.05246 0.20852,0.05801 0.13619,0.01104 0.28591,-0.0019 0.44256,0.0012 0.15665,0.003 0.3155,0.02102 0.44719,0.07453 0.13172,0.05352 0.23933,0.134814 0.32249,0.296971 0.32827,0.640061 -0.0333,1.064915 -0.0986,1.137712 l -4.81302,0.0264 c -0.02088,-0.02019 -0.06622,-0.05425 -0.120646,-0.197209 -0.06601,-0.173415 -0.108701,-0.44247 0.02408,-0.84074 0.05908,-0.177254 0.143881,-0.256084 0.259849,-0.310311 0.115973,-0.05424 0.271674,-0.07329 0.438503,-0.07657 0.166829,-0.0032 0.341037,0.0097 0.505199,-0.0044 0.164162,-0.01402 0.352471,-0.06339 0.446034,-0.235777 0.09104,-0.167793 0.05926,-0.339692 0.0264,-0.462569 -0.03286,-0.122868 -0.0668,-0.229737 -0.04619,-0.415294 0.004,-0.04125 0.02397,-0.06615 0.09535,-0.104108 0.07152,-0.03797 0.186007,-0.06819 0.303637,-0.08439 0.117575,-0.0162 0.236431,-0.02053 0.325683,-0.02059 z m -3.593811,2.030075 h 0.817833 c -0.02031,0.19751 -0.0044,0.368001 0.03103,0.509547 h -0.332643 c -0.65741,0 -1.193682,0.531411 -1.193682,1.186145 v 7.033627 c 0,0.654734 0.536272,1.185853 1.193682,1.185853 h 6.435342 c 0.65743,0 1.19253,-0.531119 1.19253,-1.185853 v -7.033627 c 0,-0.654734 -0.5351,-1.186145 -1.19253,-1.186145 h -0.3164 c 0.0508,-0.14547 0.0857,-0.317986 0.0795,-0.509547 h 0.80796 c 0.55254,0 0.99415,0.446688 0.99415,1.011557 v 8.400447 c 0,0.564866 -0.44161,1.011847 -0.99415,1.011847 h -7.522596 c -0.552542,0 -0.994154,-0.446981 -0.994154,-1.011847 v -8.400447 c 0,-0.564869 0.441612,-1.011557 0.994154,-1.011557 z m 0.51622,0.869161 h 0.491861 c 0.06655,0.09841 0.125859,0.156315 0.125859,0.156315 l 0.0496,0.04264 h 0.06467 0.0011 l 5.069672,-0.0261 0.0502,-0.05481 c 0,0 0.038,-0.04315 0.0879,-0.118034 h 0.49476 c 0.46593,0 0.83407,0.3661 0.83407,0.826531 v 7.033628 c 0,0.460433 -0.36814,0.826531 -0.83407,0.826531 h -6.435345 c -0.465939,0 -0.834067,-0.366098 -0.834067,-0.826531 v -7.033628 c 0,-0.460431 0.368128,-0.826531 0.834067,-0.826531 z"
         id="path957"
         inkscape:connector-curvature="0" />
      <path
         style="color:#000000;font-style:normal;font-variant:normal;font-weight:normal;font-stretch:normal;font-size:medium;line-height:normal;font-family:sans-serif;font-variant-ligatures:normal;font-variant-position:normal;font-variant-caps:normal;font-variant-numeric:normal;font-variant-alternates:normal;font-feature-settings:normal;text-indent:0;text-align:start;text-decoration:none;text-decoration-line:none;text-decoration-style:solid;text-decoration-color:#000000;letter-spacing:normal;word-spacing:normal;text-transform:none;writing-mode:lr-tb;direction:ltr;text-orientation:mixed;dominant-baseline:auto;baseline-shift:baseline;text-anchor:start;white-space:normal;shape-padding:0;clip-rule:nonzero;display:inline;overflow:visible;visibility:visible;opacity:1;isolation:auto;mix-blend-mode:normal;color-interpolation:sRGB;color-interpolation-filters:linearRGB;solid-color:#000000;solid-opacity:1;vector-effect:none;fill-opacity:1;fill-rule:nonzero;stroke:none;stroke-width:0.3036851;stroke-linecap:round;stroke-linejoin:miter;stroke-miterlimit:4;stroke-dasharray:none;stroke-dashoffset:0;stroke-opacity:1;color-rendering:auto;image-rendering:auto;shape-rendering:auto;text-rendering:auto;enable-background:accumulate"
         d="m 99.146118,28.787273 c -0.285993,0 -0.521737,0.234654 -0.521737,0.520649 0,0.285994 0.235744,0.521745 0.521737,0.521745 0.285994,0 0.52066,-0.235751 0.52066,-0.521745 0,-0.285995 -0.234666,-0.520649 -0.52066,-0.520649 z m 0,0.30362 c 0.122963,0 0.217037,0.09402 0.217037,0.217029 0,0.123003 -0.09401,0.218124 -0.217037,0.218124 -0.122963,0 -0.218114,-0.09511 -0.218114,-0.218124 0,-0.123004 0.09508,-0.217029 0.218114,-0.217029 z"
         id="rect959"
         inkscape:connector-curvature="0" />
      <path
         style="color:#000000;font-style:normal;font-variant:normal;font-weight:normal;font-stretch:normal;font-size:medium;line-height:normal;font-family:sans-serif;font-variant-ligatures:normal;font-variant-position:normal;font-variant-caps:normal;font-variant-numeric:normal;font-variant-alternates:normal;font-feature-settings:normal;text-indent:0;text-align:start;text-decoration:none;text-decoration-line:none;text-decoration-style:solid;text-decoration-color:#000000;letter-spacing:normal;word-spacing:normal;text-transform:none;writing-mode:lr-tb;direction:ltr;text-orientation:mixed;dominant-baseline:auto;baseline-shift:baseline;text-anchor:start;white-space:normal;shape-padding:0;clip-rule:nonzero;display:inline;overflow:visible;visibility:visible;opacity:1;isolation:auto;mix-blend-mode:normal;color-interpolation:sRGB;color-interpolation-filters:linearRGB;solid-color:#000000;solid-opacity:1;vector-effect:none;fill-opacity:1;fill-rule:nonzero;stroke:none;stroke-width:0.27493384;stroke-linecap:round;stroke-linejoin:miter;stroke-miterlimit:4;stroke-dasharray:none;stroke-dashoffset:0;stroke-opacity:1;color-rendering:auto;image-rendering:auto;shape-rendering:auto;text-rendering:auto;enable-background:accumulate"
         d="m 95.84099,33.052889 a 0.13748066,0.13748066 0 0 0 0.0132,0.274025 h 1.056643 a 0.13748066,0.13748066 0 1 0 0,-0.274025 H 95.85419 a 0.13748066,0.13748066 0 0 0 -0.0132,0 z"
         id="path961"
         inkscape:connector-curvature="0" />
      <path
         style="color:#000000;font-style:normal;font-variant:normal;font-weight:normal;font-stretch:normal;font-size:medium;line-height:normal;font-family:sans-serif;font-variant-ligatures:normal;font-variant-position:normal;font-variant-caps:normal;font-variant-numeric:normal;font-variant-alternates:normal;font-feature-settings:normal;text-indent:0;text-align:start;text-decoration:none;text-decoration-line:none;text-decoration-style:solid;text-decoration-color:#000000;letter-spacing:normal;word-spacing:normal;text-transform:none;writing-mode:lr-tb;direction:ltr;text-orientation:mixed;dominant-baseline:auto;baseline-shift:baseline;text-anchor:start;white-space:normal;shape-padding:0;clip-rule:nonzero;display:inline;overflow:visible;visibility:visible;opacity:1;isolation:auto;mix-blend-mode:normal;color-interpolation:sRGB;color-interpolation-filters:linearRGB;solid-color:#000000;solid-opacity:1;vector-effect:none;fill-opacity:1;fill-rule:nonzero;stroke:none;stroke-width:0.2954191;stroke-linecap:round;stroke-linejoin:miter;stroke-miterlimit:4;stroke-dasharray:none;stroke-dashoffset:0;stroke-opacity:1;color-rendering:auto;image-rendering:auto;shape-rendering:auto;text-rendering:auto;enable-background:accumulate"
         d="m 97.310859,33.041927 a 0.1479745,0.1479745 0 1 0 0,0.295949 h 1.613468 a 0.1479745,0.1479745 0 1 0 0,-0.295949 z"
         id="path963"
         inkscape:connector-curvature="0" />
      <path
         style="color:#000000;font-style:normal;font-variant:normal;font-weight:normal;font-stretch:normal;font-size:medium;line-height:normal;font-family:sans-serif;font-variant-ligatures:normal;font-variant-position:normal;font-variant-caps:normal;font-variant-numeric:normal;font-variant-alternates:normal;font-feature-settings:normal;text-indent:0;text-align:start;text-decoration:none;text-decoration-line:none;text-decoration-style:solid;text-decoration-color:#000000;letter-spacing:normal;word-spacing:normal;text-transform:none;writing-mode:lr-tb;direction:ltr;text-orientation:mixed;dominant-baseline:auto;baseline-shift:baseline;text-anchor:start;white-space:normal;shape-padding:0;clip-rule:nonzero;display:inline;overflow:visible;visibility:visible;opacity:1;isolation:auto;mix-blend-mode:normal;color-interpolation:sRGB;color-interpolation-filters:linearRGB;solid-color:#000000;solid-opacity:1;vector-effect:none;fill-opacity:1;fill-rule:nonzero;stroke:none;stroke-width:0.29354513;stroke-linecap:round;stroke-linejoin:miter;stroke-miterlimit:4;stroke-dasharray:none;stroke-dashoffset:0;stroke-opacity:1;color-rendering:auto;image-rendering:auto;shape-rendering:auto;text-rendering:auto;enable-background:accumulate"
         d="m 95.954981,33.559287 a 0.1468785,0.1468785 0 1 0 0,0.293757 H 98.989 a 0.1468785,0.1468785 0 1 0 0,-0.293757 z"
         id="path965"
         inkscape:connector-curvature="0" />
      <path
         style="color:#000000;font-style:normal;font-variant:normal;font-weight:normal;font-stretch:normal;font-size:medium;line-height:normal;font-family:sans-serif;font-variant-ligatures:normal;font-variant-position:normal;font-variant-caps:normal;font-variant-numeric:normal;font-variant-alternates:normal;font-feature-settings:normal;text-indent:0;text-align:start;text-decoration:none;text-decoration-line:none;text-decoration-style:solid;text-decoration-color:#000000;letter-spacing:normal;word-spacing:normal;text-transform:none;writing-mode:lr-tb;direction:ltr;text-orientation:mixed;dominant-baseline:auto;baseline-shift:baseline;text-anchor:start;white-space:normal;shape-padding:0;clip-rule:nonzero;display:inline;overflow:visible;visibility:visible;opacity:1;isolation:auto;mix-blend-mode:normal;color-interpolation:sRGB;color-interpolation-filters:linearRGB;solid-color:#000000;solid-opacity:1;vector-effect:none;fill-opacity:1;fill-rule:nonzero;stroke:none;stroke-width:0.29434094;stroke-linecap:round;stroke-linejoin:miter;stroke-miterlimit:4;stroke-dasharray:none;stroke-dashoffset:0;stroke-opacity:1;color-rendering:auto;image-rendering:auto;shape-rendering:auto;text-rendering:auto;enable-background:accumulate"
         d="m 95.929772,34.111724 a 0.14718519,0.14718519 0 0 0 0.01425,0.293756 h 2.017936 a 0.14718519,0.14718519 0 1 0 0,-0.293756 h -2.017936 a 0.14718519,0.14718519 0 0 0 -0.01425,0 z"
         id="path967"
         inkscape:connector-curvature="0" />
      <path
         style="color:#000000;font-style:normal;font-variant:normal;font-weight:normal;font-stretch:normal;font-size:medium;line-height:normal;font-family:sans-serif;font-variant-ligatures:normal;font-variant-position:normal;font-variant-caps:normal;font-variant-numeric:normal;font-variant-alternates:normal;font-feature-settings:normal;text-indent:0;text-align:start;text-decoration:none;text-decoration-line:none;text-decoration-style:solid;text-decoration-color:#000000;letter-spacing:normal;word-spacing:normal;text-transform:none;writing-mode:lr-tb;direction:ltr;text-orientation:mixed;dominant-baseline:auto;baseline-shift:baseline;text-anchor:start;white-space:normal;shape-padding:0;clip-rule:nonzero;display:inline;overflow:visible;visibility:visible;opacity:1;isolation:auto;mix-blend-mode:normal;color-interpolation:sRGB;color-interpolation-filters:linearRGB;solid-color:#000000;solid-opacity:1;vector-effect:none;fill-opacity:1;fill-rule:nonzero;stroke:none;stroke-width:0.3069196;stroke-linecap:round;stroke-linejoin:miter;stroke-miterlimit:4;stroke-dasharray:none;stroke-dashoffset:0;stroke-opacity:1;color-rendering:auto;image-rendering:auto;shape-rendering:auto;text-rendering:auto;enable-background:accumulate"
         d="M 98.287492,34.093091 A 0.15364645,0.15364645 0 0 0 98.302846,34.4 h 0.770572 a 0.15347514,0.15347514 0 1 0 0,-0.306909 h -0.770572 a 0.15347514,0.15347514 0 0 0 -0.01535,0 z"
         id="path969"
         inkscape:connector-curvature="0" />
      <path
         style="color:#000000;font-style:normal;font-variant:normal;font-weight:normal;font-stretch:normal;font-size:medium;line-height:normal;font-family:sans-serif;font-variant-ligatures:normal;font-variant-position:normal;font-variant-caps:normal;font-variant-numeric:normal;font-variant-alternates:normal;font-feature-settings:normal;text-indent:0;text-align:start;text-decoration:none;text-decoration-line:none;text-decoration-style:solid;text-decoration-color:#000000;letter-spacing:normal;word-spacing:normal;text-transform:none;writing-mode:lr-tb;direction:ltr;text-orientation:mixed;dominant-baseline:auto;baseline-shift:baseline;text-anchor:start;white-space:normal;shape-padding:0;clip-rule:nonzero;display:inline;overflow:visible;visibility:visible;opacity:1;isolation:auto;mix-blend-mode:normal;color-interpolation:sRGB;color-interpolation-filters:linearRGB;solid-color:#000000;solid-opacity:1;vector-effect:none;fill-opacity:1;fill-rule:nonzero;stroke:none;stroke-width:0.29354513;stroke-linecap:round;stroke-linejoin:miter;stroke-miterlimit:4;stroke-dasharray:none;stroke-dashoffset:0;stroke-opacity:1;color-rendering:auto;image-rendering:auto;shape-rendering:auto;text-rendering:auto;enable-background:accumulate"
         d="m 96.118304,36.709488 a 0.14705081,0.14705081 0 0 0 0.01425,0.293756 h 3.035114 a 0.14687812,0.14687812 0 1 0 0,-0.293756 h -3.035114 a 0.14678725,0.14678725 0 0 0 -0.01425,0 z"
         id="path971"
         inkscape:connector-curvature="0" />
      <path
         style="color:#000000;font-style:normal;font-variant:normal;font-weight:normal;font-stretch:normal;font-size:medium;line-height:normal;font-family:sans-serif;font-variant-ligatures:normal;font-variant-position:normal;font-variant-caps:normal;font-variant-numeric:normal;font-variant-alternates:normal;font-feature-settings:normal;text-indent:0;text-align:start;text-decoration:none;text-decoration-line:none;text-decoration-style:solid;text-decoration-color:#000000;letter-spacing:normal;word-spacing:normal;text-transform:none;writing-mode:lr-tb;direction:ltr;text-orientation:mixed;dominant-baseline:auto;baseline-shift:baseline;text-anchor:start;white-space:normal;shape-padding:0;clip-rule:nonzero;display:inline;overflow:visible;visibility:visible;opacity:1;isolation:auto;mix-blend-mode:normal;color-interpolation:sRGB;color-interpolation-filters:linearRGB;solid-color:#000000;solid-opacity:1;vector-effect:none;fill-opacity:1;fill-rule:nonzero;stroke:none;stroke-width:0.29434094;stroke-linecap:round;stroke-linejoin:miter;stroke-miterlimit:4;stroke-dasharray:none;stroke-dashoffset:0;stroke-opacity:1;color-rendering:auto;image-rendering:auto;shape-rendering:auto;text-rendering:auto;enable-background:accumulate"
         d="m 96.11392,37.235617 a 0.1474265,0.1474265 0 1 0 0,0.294853 h 2.017922 a 0.1474265,0.1474265 0 1 0 0,-0.294853 z"
         id="path973"
         inkscape:connector-curvature="0" />
      <path
         style="color:#000000;font-style:normal;font-variant:normal;font-weight:normal;font-stretch:normal;font-size:medium;line-height:normal;font-family:sans-serif;font-variant-ligatures:normal;font-variant-position:normal;font-variant-caps:normal;font-variant-numeric:normal;font-variant-alternates:normal;font-feature-settings:normal;text-indent:0;text-align:start;text-decoration:none;text-decoration-line:none;text-decoration-style:solid;text-decoration-color:#000000;letter-spacing:normal;word-spacing:normal;text-transform:none;writing-mode:lr-tb;direction:ltr;text-orientation:mixed;dominant-baseline:auto;baseline-shift:baseline;text-anchor:start;white-space:normal;shape-padding:0;clip-rule:nonzero;display:inline;overflow:visible;visibility:visible;opacity:1;isolation:auto;mix-blend-mode:normal;color-interpolation:sRGB;color-interpolation-filters:linearRGB;solid-color:#000000;solid-opacity:1;vector-effect:none;fill-opacity:1;fill-rule:nonzero;stroke:none;stroke-width:0.27565265;stroke-linecap:round;stroke-linejoin:miter;stroke-miterlimit:4;stroke-dasharray:none;stroke-dashoffset:0;stroke-opacity:1;color-rendering:auto;image-rendering:auto;shape-rendering:auto;text-rendering:auto;enable-background:accumulate"
         d="m 98.432179,37.245483 a 0.1378401,0.1378401 0 0 0 0.01428,0.275122 h 0.804539 a 0.1378401,0.1378401 0 1 0 0,-0.275122 h -0.804539 a 0.1378401,0.1378401 0 0 0 -0.01428,0 z"
         id="path975"
         inkscape:connector-curvature="0" />
      <path
         style="color:#000000;font-style:normal;font-variant:normal;font-weight:normal;font-stretch:normal;font-size:medium;line-height:normal;font-family:sans-serif;font-variant-ligatures:normal;font-variant-position:normal;font-variant-caps:normal;font-variant-numeric:normal;font-variant-alternates:normal;font-feature-settings:normal;text-indent:0;text-align:start;text-decoration:none;text-decoration-line:none;text-decoration-style:solid;text-decoration-color:#000000;letter-spacing:normal;word-spacing:normal;text-transform:none;writing-mode:lr-tb;direction:ltr;text-orientation:mixed;dominant-baseline:auto;baseline-shift:baseline;text-anchor:start;white-space:normal;shape-padding:0;clip-rule:nonzero;display:inline;overflow:visible;visibility:visible;opacity:1;isolation:auto;mix-blend-mode:normal;color-interpolation:sRGB;color-interpolation-filters:linearRGB;solid-color:#000000;solid-opacity:1;vector-effect:none;fill-opacity:1;fill-rule:nonzero;stroke:none;stroke-width:0.27565265;stroke-linecap:round;stroke-linejoin:miter;stroke-miterlimit:4;stroke-dasharray:none;stroke-dashoffset:0;stroke-opacity:1;color-rendering:auto;image-rendering:auto;shape-rendering:auto;text-rendering:auto;enable-background:accumulate"
         d="m 96.106249,37.796823 a 0.13826667,0.13826667 0 0 0 0.0132,0.276218 h 0.804543 a 0.13810913,0.13810913 0 1 0 0,-0.276218 h -0.804543 a 0.1378401,0.1378401 0 0 0 -0.0132,0 z"
         id="path977"
         inkscape:connector-curvature="0" />
      <path
         style="color:#000000;font-style:normal;font-variant:normal;font-weight:normal;font-stretch:normal;font-size:medium;line-height:normal;font-family:sans-serif;font-variant-ligatures:normal;font-variant-position:normal;font-variant-caps:normal;font-variant-numeric:normal;font-variant-alternates:normal;font-feature-settings:normal;text-indent:0;text-align:start;text-decoration:none;text-decoration-line:none;text-decoration-style:solid;text-decoration-color:#000000;letter-spacing:normal;word-spacing:normal;text-transform:none;writing-mode:lr-tb;direction:ltr;text-orientation:mixed;dominant-baseline:auto;baseline-shift:baseline;text-anchor:start;white-space:normal;shape-padding:0;clip-rule:nonzero;display:inline;overflow:visible;visibility:visible;opacity:1;isolation:auto;mix-blend-mode:normal;color-interpolation:sRGB;color-interpolation-filters:linearRGB;solid-color:#000000;solid-opacity:1;vector-effect:none;fill-opacity:1;fill-rule:nonzero;stroke:none;stroke-width:0.27565265;stroke-linecap:round;stroke-linejoin:miter;stroke-miterlimit:4;stroke-dasharray:none;stroke-dashoffset:0;stroke-opacity:1;color-rendering:auto;image-rendering:auto;shape-rendering:auto;text-rendering:auto;enable-background:accumulate"
         d="m 97.379923,37.796823 a 0.13827317,0.13827317 0 0 0 0.01347,0.276218 h 0.804539 a 0.13810913,0.13810913 0 1 0 0,-0.276218 h -0.804539 a 0.1378401,0.1378401 0 0 0 -0.01347,0 z"
         id="path979"
         inkscape:connector-curvature="0" />
      <path
         style="color:#000000;font-style:normal;font-variant:normal;font-weight:normal;font-stretch:normal;font-size:medium;line-height:normal;font-family:sans-serif;font-variant-ligatures:normal;font-variant-position:normal;font-variant-caps:normal;font-variant-numeric:normal;font-variant-alternates:normal;font-feature-settings:normal;text-indent:0;text-align:start;text-decoration:none;text-decoration-line:none;text-decoration-style:solid;text-decoration-color:#000000;letter-spacing:normal;word-spacing:normal;text-transform:none;writing-mode:lr-tb;direction:ltr;text-orientation:mixed;dominant-baseline:auto;baseline-shift:baseline;text-anchor:start;white-space:normal;shape-padding:0;clip-rule:nonzero;display:inline;overflow:visible;visibility:visible;opacity:1;isolation:auto;mix-blend-mode:normal;color-interpolation:sRGB;color-interpolation-filters:linearRGB;solid-color:#000000;solid-opacity:1;vector-effect:none;fill-opacity:1;fill-rule:nonzero;stroke:none;stroke-width:0.27565265;stroke-linecap:round;stroke-linejoin:miter;stroke-miterlimit:4;stroke-dasharray:none;stroke-dashoffset:0;stroke-opacity:1;color-rendering:auto;image-rendering:auto;shape-rendering:auto;text-rendering:auto;enable-background:accumulate"
         d="m 98.59331,37.796823 a 0.13829344,0.13829344 0 0 0 0.01428,0.276218 h 0.804539 a 0.13810913,0.13810913 0 1 0 0,-0.276218 H 98.60759 a 0.1378401,0.1378401 0 0 0 -0.01428,0 z"
         id="path981"
         inkscape:connector-curvature="0" />
    </g>
  </g>
</svg>
