<?xml version="1.0" encoding="UTF-8" standalone="no"?>
<svg
   xmlns:dc="http://purl.org/dc/elements/1.1/"
   xmlns:cc="http://creativecommons.org/ns#"
   xmlns:rdf="http://www.w3.org/1999/02/22-rdf-syntax-ns#"
   xmlns:svg="http://www.w3.org/2000/svg"
   xmlns="http://www.w3.org/2000/svg"
   viewBox="0 0 57.85173 62.50933"
   height="62.509331"
   width="57.85173"
   xml:space="preserve"
   id="svg2"
   version="1.1"><metadata
     id="metadata8"><rdf:RDF><cc:Work
         rdf:about=""><dc:format>image/svg+xml</dc:format><dc:type
           rdf:resource="http://purl.org/dc/dcmitype/StillImage" /><dc:title></dc:title></cc:Work></rdf:RDF></metadata><defs
     id="defs6"><clipPath
       id="clipPath18"
       clipPathUnits="userSpaceOnUse"><path
         id="path16"
         d="M 0,142.313 H 135 V 0 H 0 Z" /></clipPath></defs><g
     transform="matrix(1.3333333,0,0,-1.3333333,-59.538399,127.55466)"
     id="g10"><g
       id="g12"><g
         clip-path="url(#clipPath18)"
         id="g14"><g
           transform="translate(60.5752,78.084)"
           id="g20"><path
             id="path22"
             style="fill:#1d1d1b;fill-opacity:1;fill-rule:nonzero;stroke:none"
             d="m 0,0 c 4.854,0 8.79,3.937 8.79,8.79 0,4.856 -3.936,8.792 -8.79,8.792 -4.853,0 -8.79,-3.936 -8.79,-8.792 C -8.79,3.937 -4.853,0 0,0" /></g><g
           transform="translate(61.9238,66.5947)"
           id="g24"><path
             id="path26"
             style="fill:#1d1d1b;fill-opacity:1;fill-rule:nonzero;stroke:none"
             d="m 0,0 c 3.168,6.115 9.362,7.854 9.362,7.854 0,0 -10.534,3.161 -18.612,0.541 -8.08,-2.622 -8.095,-11.499 -7.988,-12.917 0.112,-1.424 -0.032,-9.759 -0.032,-9.759 h 5.346 v 11 h 1 v -11 H 0.59 c 0,0 -3.756,8.162 -0.59,14.281" /></g><g
           transform="translate(72.6104,67.7158)"
           id="g28"><path
             id="path30"
             style="fill:#1d1d1b;fill-opacity:1;fill-rule:nonzero;stroke:none"
             d="M 0,0 C 0.191,0.108 0.388,0.207 0.59,0.296 0.374,0.641 0.241,1.002 0.287,1.337 0.328,1.638 0.124,1.833 -0.054,1.943 -0.344,2.123 -0.636,2.121 -0.695,2.079 -0.915,1.927 -1.206,1.562 -1.186,1.276 -1.173,1.096 -1.022,0.933 -0.741,0.791 -0.386,0.612 -0.15,0.328 0,0" /></g><g
           transform="translate(78.0137,68.7383)"
           id="g32"><path
             id="path34"
             style="fill:#1d1d1b;fill-opacity:1;fill-rule:nonzero;stroke:none"
             d="m 0,0 c 0.308,0.341 0.441,0.704 0.351,0.974 -0.08,0.239 -0.31,0.332 -0.495,0.368 l -0.022,0.01 C -0.377,1.415 -0.871,1.456 -1.029,1.34 -1.053,1.322 -1.203,1.269 -1.203,1.061 V -0.308 C -0.811,-0.476 -0.67,-0.407 -0.451,-0.476 -0.362,-0.335 -0.16,-0.18 0,0" /></g><g
           transform="translate(68.6572,67.0234)"
           id="g36"><path
             id="path38"
             style="fill:#1d1d1b;fill-opacity:1;fill-rule:nonzero;stroke:none"
             d="M 0,0 C 0.357,0 0.649,0.295 0.649,0.657 0.649,1.019 0.357,1.313 0,1.313 -0.358,1.313 -0.649,1.019 -0.649,0.657 -0.649,0.295 -0.358,0 0,0" /></g><g
           transform="translate(69.0938,59.4912)"
           id="g40"><path
             id="path42"
             style="fill:#1d1d1b;fill-opacity:1;fill-rule:nonzero;stroke:none"
             d="m 0,0 c -0.468,-0.09 -0.824,-0.317 -0.932,-0.596 -0.06,-0.155 -0.031,-0.315 0.088,-0.473 l 0.015,-0.021 0.012,-0.021 c 0.077,-0.134 0.255,-0.341 0.395,-0.355 0.094,-0.011 0.199,0.089 0.272,0.172 l 1.04,1.207 C 0.838,0.02 0.791,0.127 0.746,0.237 0.541,0.12 0.268,0.053 0,0" /></g><g
           transform="translate(73.2969,56.248)"
           id="g44"><path
             id="path46"
             style="fill:#1d1d1b;fill-opacity:1;fill-rule:nonzero;stroke:none"
             d="m 0,0 c -0.19,0.08 -0.376,0.169 -0.557,0.265 -0.169,-0.216 -0.371,-0.357 -0.607,-0.418 -0.315,-0.082 -0.373,-0.248 -0.388,-0.399 -0.044,-0.451 0.333,-1.025 0.49,-1.1 0.196,-0.09 0.705,-0.141 0.979,0.083 0.274,0.224 0.233,0.697 0.15,1.054 C 0.025,-0.334 0.005,-0.162 0,0" /></g><g
           transform="translate(67.8789,55.5742)"
           id="g48"><path
             id="path50"
             style="fill:#1d1d1b;fill-opacity:1;fill-rule:nonzero;stroke:none"
             d="m 0,0 c -0.124,0 -0.226,-0.103 -0.226,-0.229 0,-0.127 0.102,-0.231 0.226,-0.231 0.125,0 0.227,0.104 0.227,0.231 C 0.227,-0.103 0.125,0 0,0" /></g><g
           transform="translate(76.5811,53.1006)"
           id="g52"><path
             id="path54"
             style="fill:#1d1d1b;fill-opacity:1;fill-rule:nonzero;stroke:none"
             d="m 0,0 c -0.399,0 -0.724,-0.328 -0.724,-0.73 0,-0.404 0.325,-0.731 0.724,-0.731 0.398,0 0.724,0.327 0.724,0.731 C 0.724,-0.328 0.398,0 0,0" /></g><g
           transform="translate(82.3125,66.043)"
           id="g56"><path
             id="path58"
             style="fill:#1d1d1b;fill-opacity:1;fill-rule:nonzero;stroke:none"
             d="M 0,0 C 0.473,0.036 0.84,0.217 0.959,0.472 1.057,0.68 0.957,0.895 0.854,1.038 0.697,1.249 0.365,1.548 0.153,1.527 -0.002,1.513 -0.131,1.284 -0.194,1.149 -0.535,0.421 -1.007,0.038 -1.365,-0.159 -1.32,-0.222 -1.277,-0.284 -1.234,-0.349 -1.032,-0.192 -0.664,-0.052 0,0" /></g><g
           transform="translate(68.7432,64.1064)"
           id="g60"><path
             id="path62"
             style="fill:#1d1d1b;fill-opacity:1;fill-rule:nonzero;stroke:none"
             d="m 0,0 c -0.1,0.201 -0.258,0.291 -0.47,0.269 -0.244,-0.027 -0.533,-0.216 -0.611,-0.527 -0.067,-0.264 -0.034,-0.654 0.12,-0.791 0.144,-0.127 0.446,-0.037 0.613,0.028 0.398,0.156 0.751,0.181 1.056,0.128 0.012,0.064 0.022,0.128 0.035,0.192 C 0.448,-0.574 0.178,-0.358 0,0" /></g><g
           transform="translate(84.4736,64.6836)"
           id="g64"><path
             id="path66"
             style="fill:#1d1d1b;fill-opacity:1;fill-rule:nonzero;stroke:none"
             d="m 0,0 c -0.227,0 -0.411,-0.187 -0.411,-0.416 0,-0.23 0.184,-0.417 0.411,-0.417 0.228,0 0.411,0.187 0.411,0.417 C 0.411,-0.187 0.228,0 0,0" /></g><g
           transform="translate(84.4736,63.126)"
           id="g68"><path
             id="path70"
             style="fill:#1d1d1b;fill-opacity:1;fill-rule:nonzero;stroke:none"
             d="m 0,0 c -0.626,0 -1.136,0.512 -1.136,1.142 0,0.628 0.51,1.14 1.136,1.14 0.626,0 1.136,-0.512 1.136,-1.14 C 1.136,0.512 0.626,0 0,0 M 0.189,-3.806 0.186,-3.864 0.161,-3.92 c -0.198,-0.475 -0.566,-0.777 -1.01,-0.831 -0.047,-0.005 -0.094,-0.008 -0.141,-0.008 -0.504,0 -1.031,0.314 -1.434,0.863 -0.164,0.223 -0.295,0.365 -0.391,0.457 -0.423,-1.011 -1.1,-1.891 -1.949,-2.56 0.107,-0.417 0.284,-0.779 0.569,-0.967 0.68,-0.447 0.804,-0.956 0.79,-1.305 -0.033,-0.698 -0.647,-1.282 -1.026,-1.485 -0.125,-0.066 -0.265,-0.096 -0.414,-0.096 -0.375,0 -0.791,0.186 -1.074,0.426 -0.444,0.376 -0.602,0.875 -0.435,1.369 0.123,0.366 0.059,0.75 -0.086,1.105 -0.707,-0.27 -1.475,-0.419 -2.276,-0.419 -0.592,0 -1.164,0.082 -1.707,0.232 0.005,-0.029 0.011,-0.059 0.019,-0.09 0.234,-1.01 -0.087,-1.525 -0.398,-1.779 -0.29,-0.236 -0.663,-0.324 -1.008,-0.324 -0.283,0 -0.548,0.06 -0.73,0.144 -0.463,0.211 -0.974,1.091 -0.91,1.815 0.047,0.528 0.376,0.898 0.928,1.041 0.058,0.016 0.115,0.051 0.166,0.102 -0.702,0.488 -1.301,1.111 -1.76,1.834 l -0.865,-1.005 c -0.293,-0.34 -0.588,-0.424 -0.808,-0.424 -0.03,0 -0.06,0.001 -0.088,0.004 -0.526,0.054 -0.863,0.572 -0.94,0.702 -0.258,0.356 -0.32,0.765 -0.17,1.15 0.199,0.516 0.749,0.906 1.47,1.045 0.228,0.044 0.366,0.087 0.446,0.118 0.003,0.075 0.029,0.148 0.081,0.21 0.02,0.026 0.044,0.048 0.07,0.067 -0.124,0.498 -0.191,1.017 -0.191,1.553 0,0.115 0.003,0.227 0.009,0.339 -0.194,0.042 -0.43,0.033 -0.713,-0.078 -0.71,-0.276 -1.129,-0.096 -1.356,0.104 -0.469,0.415 -0.429,1.171 -0.343,1.511 0.144,0.567 0.653,1.006 1.237,1.069 0.514,0.054 0.96,-0.196 1.195,-0.667 0.067,-0.136 0.167,-0.234 0.283,-0.302 0.421,1.293 1.243,2.406 2.32,3.191 -0.092,0.239 -0.235,0.435 -0.451,0.543 -0.654,0.329 -0.819,0.769 -0.841,1.08 -0.048,0.67 0.499,1.241 0.796,1.449 0.4,0.28 1.02,0.14 1.427,-0.109 0.502,-0.305 0.757,-0.8 0.686,-1.326 -0.025,-0.176 0.088,-0.42 0.278,-0.684 0.589,0.178 0.601,0.276 1.247,0.276 0.162,0 -0.137,-0.007 -0.137,-0.019 v 1.272 c 0,0.475 0.834,0.731 1.014,0.863 0.486,0.359 1.542,0.169 1.695,0.125 0.511,-0.104 1.038,-0.412 1.183,-0.846 0.177,-0.527 0.071,-1.142 -0.419,-1.687 -0.092,-0.103 -0.121,-0.185 -0.173,-0.253 0.82,-0.362 1.567,-0.891 2.162,-1.544 0.239,0.105 0.68,0.376 0.991,1.042 0.286,0.606 0.67,0.766 0.938,0.792 0.705,0.069 1.294,-0.694 1.359,-0.782 L -0.718,4.378 C -0.421,3.959 -0.357,3.486 -0.547,3.081 -0.78,2.584 -1.362,2.252 -2.104,2.195 -2.671,2.152 -2.873,2.05 -2.929,2.014 -2.946,1.971 -2.973,1.932 -3.005,1.899 c 0.437,-0.864 0.684,-1.84 0.684,-2.875 0,-0.343 -0.028,-0.681 -0.08,-1.01 0.113,-0.109 0.341,-0.205 0.804,-0.151 0.556,0.067 0.998,-0.054 1.319,-0.358 0.509,-0.485 0.472,-1.228 0.467,-1.311 m -8.082,-8.405 c -0.797,0 -1.447,0.652 -1.447,1.455 0,0.802 0.65,1.455 1.447,1.455 0.798,0 1.448,-0.653 1.448,-1.455 0,-0.803 -0.65,-1.455 -1.448,-1.455 m -8.702,3.476 c -0.524,0 -0.95,0.427 -0.95,0.954 0,0.525 0.426,0.953 0.95,0.953 0.524,0 0.949,-0.428 0.949,-0.953 0,-0.527 -0.425,-0.954 -0.949,-0.954 m 0.779,14.669 c 0.756,0 1.373,-0.619 1.373,-1.379 0,-0.762 -0.617,-1.381 -1.373,-1.381 -0.757,0 -1.374,0.619 -1.374,1.381 0,0.76 0.617,1.379 1.374,1.379 m 6.075,2.923 c 0.523,0 0.949,-0.427 0.949,-0.953 0,-0.526 -0.426,-0.954 -0.949,-0.954 -0.525,0 -0.95,0.428 -0.95,0.954 0,0.526 0.425,0.953 0.95,0.953 m 0.63,2.164 c -7.003,0 -12.682,-5.676 -12.682,-12.682 0,-7.001 5.679,-12.681 12.682,-12.681 7.004,0 12.68,5.68 12.68,12.681 0,7.006 -5.676,12.682 -12.68,12.682" /></g><g
           transform="translate(82.9629,60.2705)"
           id="g72"><path
             id="path74"
             style="fill:#1d1d1b;fill-opacity:1;fill-rule:nonzero;stroke:none"
             d="m 0,0 c -0.388,-0.046 -0.721,-0.015 -0.992,0.093 0.189,-0.138 0.409,-0.361 0.662,-0.704 0.28,-0.382 0.628,-0.599 0.906,-0.565 0.203,0.024 0.328,0.183 0.403,0.332 C 0.975,-0.71 0.946,-0.365 0.73,-0.162 0.575,-0.016 0.329,0.039 0,0" /></g><g
           transform="translate(79.085,56.6914)"
           id="g76"><path
             id="path78"
             style="fill:#1d1d1b;fill-opacity:1;fill-rule:nonzero;stroke:none"
             d="m 0,0 c -0.129,-0.079 -0.261,-0.152 -0.395,-0.222 0.21,-0.5 0.306,-1.066 0.115,-1.632 -0.068,-0.2 0,-0.391 0.199,-0.569 0.269,-0.24 0.617,-0.299 0.697,-0.26 0.208,0.112 0.626,0.497 0.643,0.879 0.012,0.235 -0.145,0.459 -0.463,0.668 C 0.438,-0.901 0.173,-0.521 0,0" /></g><g
           transform="translate(74.7324,70.7998)"
           id="g80"><path
             id="path82"
             style="fill:#1d1d1b;fill-opacity:1;fill-rule:nonzero;stroke:none"
             d="M 0,0 C 0.125,0 0.226,0.104 0.226,0.23 0.226,0.357 0.125,0.46 0,0.46 -0.125,0.46 -0.226,0.357 -0.226,0.23 -0.226,0.104 -0.125,0 0,0" /></g><g
           transform="translate(78.9941,63.0293)"
           id="g84"><path
             id="path86"
             style="fill:#1d1d1b;fill-opacity:1;fill-rule:nonzero;stroke:none"
             d="m 0,0 c -0.245,-0.278 -0.549,-0.431 -0.813,-0.431 -0.139,0 -0.266,0.041 -0.369,0.129 -0.154,0.129 -0.173,0.358 -0.045,0.51 0.11,0.13 0.291,0.163 0.438,0.092 0.092,0.03 0.299,0.172 0.377,0.398 0.08,0.229 -0.011,0.464 -0.268,0.699 -0.216,0.2 -0.54,0.405 -0.844,0.25 C -1.768,1.523 -1.907,1.226 -1.885,1.023 -1.863,0.825 -2.006,0.646 -2.205,0.624 -2.403,0.603 -2.582,0.746 -2.604,0.944 -2.662,1.467 -2.338,2.046 -1.852,2.293 -1.605,2.417 -0.953,2.631 -0.189,1.931 0.581,1.223 0.395,0.448 0,0 m -3.777,-2.748 c -0.124,-0.157 -0.353,-0.184 -0.509,-0.059 -0.122,0.097 -0.165,0.257 -0.118,0.397 -0.037,0.066 -0.14,0.179 -0.272,0.212 -0.137,0.033 -0.28,-0.035 -0.427,-0.203 -0.131,-0.153 -0.266,-0.374 -0.163,-0.565 0.082,-0.152 0.28,-0.238 0.406,-0.221 0.198,0.027 0.38,-0.111 0.409,-0.308 0.027,-0.198 -0.111,-0.381 -0.31,-0.409 -0.044,-0.006 -0.09,-0.009 -0.135,-0.009 -0.401,0 -0.808,0.237 -1.005,0.601 -0.111,0.202 -0.306,0.741 0.251,1.384 0.531,0.615 1.187,0.543 1.6,0.2 0.372,-0.308 0.489,-0.748 0.273,-1.02 m 2.533,7.169 c -0.039,-0.015 -0.549,0.187 -0.594,0.187 -0.08,0 -0.706,0.061 -0.766,0.106 -0.209,0.022 -0.419,0.057 -0.632,0.057 -0.461,0 -0.908,-0.045 -1.336,-0.149 0.266,-0.269 0.558,-0.518 0.81,-0.709 C -3.602,3.792 -3.57,3.567 -3.691,3.409 -3.812,3.249 -4.039,3.219 -4.198,3.339 -4.371,3.471 -4.889,3.878 -5.341,4.386 -5.633,4.269 -5.912,4.13 -6.178,3.968 -6.049,3.104 -6.25,2.227 -6.266,2.165 -6.304,1.998 -6.453,1.886 -6.616,1.886 c -0.029,0 -0.057,0.004 -0.085,0.01 -0.194,0.046 -0.315,0.241 -0.269,0.435 0.059,0.251 0.126,0.697 0.112,1.15 -0.797,-0.662 -1.41,-1.539 -1.75,-2.541 0.313,0.004 0.574,0.071 0.579,0.073 0.193,0.053 0.392,-0.06 0.445,-0.252 C -7.53,0.567 -7.643,0.368 -7.836,0.315 -7.871,0.306 -8.3,0.191 -8.8,0.221 -8.821,0.114 -8.839,0.008 -8.854,-0.101 c 0.266,-0.184 0.452,-0.418 0.553,-0.606 0.094,-0.177 0.027,-0.394 -0.15,-0.487 -0.055,-0.03 -0.112,-0.039 -0.17,-0.039 -0.108,0 -0.212,0.057 -0.281,0.143 0.07,-1.795 0.98,-3.362 2.345,-4.352 0.105,0.38 0.16,0.404 0.162,0.757 0.003,0.199 0.165,-0.031 0.363,-0.031 h 0.004 c 0.2,0 0.36,0.224 0.358,0.024 0,-0.023 -0.008,-0.394 -0.131,-0.966 -0.035,-0.159 -0.075,-0.193 -0.121,-0.327 0.106,-0.059 0.215,-0.056 0.325,-0.107 0.232,0.754 0.78,1.207 0.813,1.233 0.159,0.121 0.387,0.102 0.507,-0.058 0.12,-0.159 0.089,-0.377 -0.07,-0.498 -0.025,-0.02 -0.421,-0.331 -0.569,-0.884 0.531,-0.165 1.095,-0.254 1.68,-0.254 0.672,0 1.318,0.12 1.918,0.337 -0.321,0.457 -0.675,0.776 -0.684,0.782 -0.148,0.133 -0.162,0.363 -0.03,0.512 0.133,0.15 0.361,0.163 0.511,0.031 0.038,-0.034 0.489,-0.438 0.875,-1.032 0.196,0.101 0.384,0.213 0.566,0.334 -0.016,0.103 -0.029,0.208 -0.039,0.318 -0.07,0.762 0.005,1.42 0.008,1.449 0.024,0.198 0.203,0.341 0.401,0.317 0.198,-0.022 0.341,-0.203 0.317,-0.401 -0.028,-0.256 -0.049,-0.691 -0.017,-1.156 0.639,0.586 1.144,1.317 1.464,2.139 -0.033,0.135 0.016,0.279 0.128,0.367 0.053,0.173 0.099,0.35 0.136,0.53 -0.058,0.144 -0.069,0.257 -0.07,0.279 l 0.121,0.009 c 0.043,0.28 0.066,0.392 0.066,0.684 0,2.305 -1.7,4.588 -3.679,5.475" /></g></g></g></g></svg>