<?xml version="1.0" encoding="UTF-8" standalone="no"?>
<!-- Created with Inkscape (http://www.inkscape.org/) -->

<svg
   xmlns:dc="http://purl.org/dc/elements/1.1/"
   xmlns:cc="http://creativecommons.org/ns#"
   xmlns:rdf="http://www.w3.org/1999/02/22-rdf-syntax-ns#"
   xmlns:svg="http://www.w3.org/2000/svg"
   xmlns="http://www.w3.org/2000/svg"
   xmlns:sodipodi="http://sodipodi.sourceforge.net/DTD/sodipodi-0.dtd"
   xmlns:inkscape="http://www.inkscape.org/namespaces/inkscape"
   version="1.1"
   id="svg2"
   xml:space="preserve"
   width="1986.2"
   height="1018.6667"
   viewBox="0 0 1986.2 1018.6667"
   sodipodi:docname="imagen-1-lapaciente emociones.svg"
   inkscape:version="0.92.5 (2060ec1f9f, 2020-04-08)"><metadata
     id="metadata8"><rdf:RDF><cc:Work
         rdf:about=""><dc:format>image/svg+xml</dc:format><dc:type
           rdf:resource="http://purl.org/dc/dcmitype/StillImage" /><dc:title></dc:title></cc:Work></rdf:RDF></metadata><defs
     id="defs6"><clipPath
       clipPathUnits="userSpaceOnUse"
       id="clipPath18"><path
         d="M 0,764 H 1489.652 V 0 H 0 Z"
         id="path16"
         inkscape:connector-curvature="0" /></clipPath><clipPath
       clipPathUnits="userSpaceOnUse"
       id="clipPath26"><path
         d="M 21.6523,741 H 1483.65 V 7 H 21.6523 Z"
         id="path24"
         inkscape:connector-curvature="0" /></clipPath><clipPath
       clipPathUnits="userSpaceOnUse"
       id="clipPath58"><path
         d="M 0,764 H 1489.652 V 0 H 0 Z"
         id="path56"
         inkscape:connector-curvature="0" /></clipPath></defs><sodipodi:namedview
     pagecolor="#ffffff"
     bordercolor="#666666"
     borderopacity="1"
     objecttolerance="10"
     gridtolerance="10"
     guidetolerance="10"
     inkscape:pageopacity="0"
     inkscape:pageshadow="2"
     inkscape:window-width="1366"
     inkscape:window-height="652"
     id="namedview4"
     showgrid="false"
     inkscape:zoom="0.23167539"
     inkscape:cx="-27.724904"
     inkscape:cy="509.33334"
     inkscape:window-x="0"
     inkscape:window-y="27"
     inkscape:window-maximized="1"
     inkscape:current-layer="g10" /><g
     id="g10"
     inkscape:groupmode="layer"
     inkscape:label="imagen 1 de la paciente emociones"
     transform="matrix(1.3333333,0,0,-1.3333333,0,1018.6667)"><g
       id="g12"><g
         id="g14"
         clip-path="url(#clipPath18)"><g
           id="g20"><g
             id="g22" /><g
             id="g32"><g
               clip-path="url(#clipPath26)"
               id="g30"
               style="opacity:0.69999701"><path
                 d="m 1483.652,7 h -1462 v 734 h 1462 z"
                 style="fill:#60c160;fill-opacity:1;fill-rule:nonzero;stroke:none"
                 id="path28"
                 inkscape:connector-curvature="0" /></g></g></g><g
           id="g34"
           transform="translate(1462.6523,58)"><path
             d="m 0,0 c 0,-13.807 -11.193,-25 -25,-25 h -1372 c -13.807,0 -25,11.193 -25,25 v 632 c 0,13.807 11.193,25 25,25 H -25 c 13.807,0 25,-11.193 25,-25 z"
             style="fill:#ffffff;fill-opacity:1;fill-rule:nonzero;stroke:none"
             id="path36"
             inkscape:connector-curvature="0" /></g><g
           id="g38"
           transform="translate(103.0073,457.2539)"><path
             d="m 0,0 c 0,0 96.57,-128.321 128.176,-163.438 31.605,-35.118 73.745,-103.595 128.176,-103.595 54.431,0 124.666,105.35 189.631,105.35 64.965,0 110.617,-107.106 187.874,-105.35 77.257,1.756 172.092,42.129 279.179,210.7 63.21,99.502 94.815,94.815 94.815,94.815"
             style="fill:none;stroke:#9f4496;stroke-width:16;stroke-linecap:round;stroke-linejoin:miter;stroke-miterlimit:10;stroke-dasharray:none;stroke-opacity:1"
             id="path40"
             inkscape:connector-curvature="0" /></g><g
           id="g42"
           transform="translate(961.6118,467.5493)"><path
             d="m 0,0 c 0,-113.942 -92.368,-206.311 -206.311,-206.311 -113.942,0 -206.31,92.369 -206.31,206.311 0,113.942 92.368,206.311 206.31,206.311 C -92.368,206.311 0,113.942 0,0"
             style="fill:#008186;fill-opacity:1;fill-rule:nonzero;stroke:none"
             id="path44"
             inkscape:connector-curvature="0" /></g></g></g><text
       transform="matrix(1,0,0,-1,1004.9258,329.4565)"
       style="font-variant:normal;font-weight:normal;font-stretch:normal;font-size:26.7968998px;font-family:'Century Gothic';-inkscape-font-specification:CenturyGothic;writing-mode:lr-tb;fill:#000000;fill-opacity:1;fill-rule:nonzero;stroke:none"
       id="text50"><tspan
         x="0 14.845483 22.268225 29.690966 45.554729 53.620598 58.979977 84.115471 101.53345 109.59932 127.9016 135.32434 147.70451 153.06389 169.41 186.82799 205.13026 212.55301 230.90889 248.32687 255.74962 267.1651 275.23096 293.53323 302.6174 320.91968 346.05518 351.41455 368.83252 385.17865 394.26279 411.81476"
         y="0"
         sodipodi:role="line"
         id="tspan46">4. Primera Línea de Tratamiento </tspan><tspan
         x="-740.23755 -725.39209 -717.96936 -710.54663 -690.60968 -685.25031 -666.94806 -648.91376 -632.56763 -615.01562 -604.61847 -595.5343 -590.17493 -572.83734"
         y="218.23395"
         sodipodi:role="line"
         id="tspan48">1. Diagnóstico</tspan></text>
<g
       id="g52"><g
         id="g54"
         clip-path="url(#clipPath58)"><g
           id="g60"
           transform="translate(371.1426,189.8696)"><path
             d="m 0,0 c 0,-10.767 -8.729,-19.496 -19.496,-19.496 -10.767,0 -19.495,8.729 -19.495,19.496 0,10.766 8.728,19.495 19.495,19.495 C -8.729,19.495 0,10.766 0,0"
             style="fill:#fcbdd4;fill-opacity:1;fill-rule:nonzero;stroke:none"
             id="path62"
             inkscape:connector-curvature="0" /></g><g
           id="g64"
           transform="translate(568.1426,297.8696)"><path
             d="m 0,0 c 0,-10.767 -8.729,-19.496 -19.496,-19.496 -10.767,0 -19.495,8.729 -19.495,19.496 0,10.766 8.728,19.495 19.495,19.495 C -8.729,19.495 0,10.766 0,0"
             style="fill:#fcbdd4;fill-opacity:1;fill-rule:nonzero;stroke:none"
             id="path66"
             inkscape:connector-curvature="0" /></g><g
           id="g68"
           transform="translate(765.1426,189.8696)"><path
             d="m 0,0 c 0,-10.767 -8.729,-19.496 -19.496,-19.496 -10.767,0 -19.495,8.729 -19.495,19.496 0,10.766 8.728,19.495 19.495,19.495 C -8.729,19.495 0,10.766 0,0"
             style="fill:#fcbdd4;fill-opacity:1;fill-rule:nonzero;stroke:none"
             id="path70"
             inkscape:connector-curvature="0" /></g><g
           id="g72"
           transform="translate(988.1426,337.8696)"><path
             d="m 0,0 c 0,-10.767 -8.729,-19.496 -19.496,-19.496 -10.767,0 -19.495,8.729 -19.495,19.496 0,10.766 8.728,19.495 19.495,19.495 C -8.729,19.495 0,10.766 0,0"
             style="fill:#fcbdd4;fill-opacity:1;fill-rule:nonzero;stroke:none"
             id="path74"
             inkscape:connector-curvature="0" /></g></g></g><text
       transform="matrix(1,0,0,-1,451.6655,194.6133)"
       style="font-variant:normal;font-weight:normal;font-stretch:normal;font-size:26.7968998px;font-family:'Century Gothic';-inkscape-font-specification:CenturyGothic;writing-mode:lr-tb;fill:#000000;fill-opacity:1;fill-rule:nonzero;stroke:none"
       id="text80"><tspan
         x="0 14.845483 22.268225 29.690966 41.106445 49.17231 67.474594 76.558746 94.861023 119.99652 125.3559 142.77388 159.12 168.20415"
         y="0"
         sodipodi:role="line"
         id="tspan76">2. Tratamiento</tspan><tspan
         x="244.25374 259.09921 266.52197 282.38574 290.4516 308.00357 326.03787 334.10376 351.52173 361.91895 367.27832 384.83029 401.17639 408.59912 426.15109 433.57385 449.83957 467.25754 484.59515 489.95453 508.31039 513.6698 528.51526"
         y="83.391953"
         sodipodi:role="line"
         id="tspan78">3.Progresión o Recidiva</tspan></text>
<text
       transform="matrix(1,0,0,-1,735.6099,604.4136)"
       style="font-variant:normal;font-weight:bold;font-stretch:normal;font-size:31.26300049px;font-family:'Century Gothic';-inkscape-font-specification:CenturyGothic-Bold;writing-mode:lr-tb;fill:#ffffff;fill-opacity:1;fill-rule:nonzero;stroke:none"
       id="text98"><tspan
         x="0 8.7536402 18.757799"
         y="0"
         sodipodi:role="line"
         id="tspan82">Ira</tspan><tspan
         x="-52.834469 -29.69985 -10.94205 2.8136699 10.31679 30.325109 50.958691 71.59227"
         y="37.515598"
         sodipodi:role="line"
         id="tspan84">Ansiedad</tspan><tspan
         x="-56.586029 -34.701931 -14.69361 5.93997 15.94413 35.95245 49.708172 57.211288 77.219612"
         y="75.031197"
         sodipodi:role="line"
         id="tspan86">Depresión</tspan><tspan
         x="-154.12659 -137.86983 -117.86151 -97.227928 -87.22377 -67.215446 -47.20713 -26.573549 -16.569389 4.0641899 24.697769 33.451408 49.708172 79.09539 99.103706 119.11203 126.61515 146.62347 165.38127 186.01485"
         y="112.5468"
         sodipodi:role="line"
         id="tspan88">Sobrecarga Emocional</tspan><tspan
         x="-28.449329 -0.31263 7.1904898 27.198811 47.83239"
         y="150.06239"
         sodipodi:role="line"
         id="tspan90">Miedo</tspan><tspan
         x="-24.385139 -2.50104 16.25676 36.265079 43.7682"
         y="187.578"
         sodipodi:role="line"
         id="tspan92">Duelo</tspan><tspan
         x="-26.26092 -1.87578 16.882021 24.385139 45.018719"
         y="225.0936"
         sodipodi:role="line"
         id="tspan94">Culpa</tspan><tspan
         x="-43.142941 -26.886181 -6.8778601 0.62526 20.633579 41.267159 61.900742"
         y="262.60919"
         sodipodi:role="line"
         id="tspan96">Soledad</tspan></text>
</g></svg>