<?xml version="1.0" encoding="UTF-8" standalone="no"?>
<!-- Created with Inkscape (http://www.inkscape.org/) -->

<svg
   xmlns:dc="http://purl.org/dc/elements/1.1/"
   xmlns:cc="http://creativecommons.org/ns#"
   xmlns:rdf="http://www.w3.org/1999/02/22-rdf-syntax-ns#"
   xmlns:svg="http://www.w3.org/2000/svg"
   xmlns="http://www.w3.org/2000/svg"
   xmlns:sodipodi="http://sodipodi.sourceforge.net/DTD/sodipodi-0.dtd"
   xmlns:inkscape="http://www.inkscape.org/namespaces/inkscape"
   version="1.1"
   id="svg2"
   xml:space="preserve"
   width="505.97333"
   height="692.39972"
   viewBox="0 0 505.97333 692.39972"
   sodipodi:docname="imagen-3-lapaciente y su entorno.svg"
   inkscape:version="0.92.5 (2060ec1f9f, 2020-04-08)"><metadata
     id="metadata8"><rdf:RDF><cc:Work
         rdf:about=""><dc:format>image/svg+xml</dc:format><dc:type
           rdf:resource="http://purl.org/dc/dcmitype/StillImage" /><dc:title></dc:title></cc:Work></rdf:RDF></metadata><defs
     id="defs6"><clipPath
       clipPathUnits="userSpaceOnUse"
       id="clipPath18"><path
         d="M 0,667.531 H 515.896 V 0 H 0 Z"
         id="path16"
         inkscape:connector-curvature="0" /></clipPath><clipPath
       clipPathUnits="userSpaceOnUse"
       id="clipPath26"><path
         d="m 68.208,593.415 h 379.48 V 74.1152 H 68.208 Z"
         id="path24"
         inkscape:connector-curvature="0" /></clipPath></defs><sodipodi:namedview
     pagecolor="#ffffff"
     bordercolor="#666666"
     borderopacity="1"
     objecttolerance="10"
     gridtolerance="10"
     guidetolerance="10"
     inkscape:pageopacity="0"
     inkscape:pageshadow="2"
     inkscape:window-width="1366"
     inkscape:window-height="652"
     id="namedview4"
     showgrid="false"
     fit-margin-top="0"
     fit-margin-left="0"
     fit-margin-right="0"
     fit-margin-bottom="0"
     inkscape:zoom="0.26515623"
     inkscape:cx="252.98667"
     inkscape:cy="346.20041"
     inkscape:window-x="0"
     inkscape:window-y="27"
     inkscape:window-maximized="1"
     inkscape:current-layer="g10" /><g
     id="g10"
     inkscape:groupmode="layer"
     inkscape:label="maqueta fuveicam LA PACIENTE Y SU PROCESO"
     transform="matrix(1.3333333,0,0,-1.3333333,-90.943998,791.21998)"><g
       id="g12"><g
         id="g14"
         clip-path="url(#clipPath18)"><g
           id="g20"><g
             id="g22" /><g
             id="g32"><g
               clip-path="url(#clipPath26)"
               id="g30"
               style="opacity:0.69999701"><path
                 d="m 68.208,74.115 h 379.48 v 519.3 H 68.208 Z"
                 style="fill:#60c160;fill-opacity:1;fill-rule:nonzero;stroke:none"
                 id="path28"
                 inkscape:connector-curvature="0" /></g></g></g><g
           id="g34"
           transform="translate(434.1895,117.7939)"><path
             d="m 0,0 c 0,-13.807 -11.192,-25 -25,-25 h -303.501 c -13.807,0 -25,11.193 -25,25 v 435.661 c 0,13.807 11.193,25 25,25 H -25 c 13.808,0 25,-11.193 25,-25 z"
             style="fill:#ffffff;fill-opacity:1;fill-rule:evenodd;stroke:none"
             id="path36"
             inkscape:connector-curvature="0" /></g><g
           id="g38"
           transform="translate(190.3428,212.9189)"><path
             d="m 0,0 c 3.262,0 6.527,-0.095 9.785,0.037 1.859,0.075 2.541,-0.433 2.598,-2.414 0.219,-7.54 1.49,-14.949 4.426,-21.905 3.406,-8.074 7.886,-15.499 13.986,-21.959 4.894,-5.182 10.219,-9.787 16.235,-13.51 8.993,-5.562 18.773,-9.196 29.218,-11.061 11.89,-2.121 23.672,-1.692 35.373,1.158 9.89,2.408 19.081,6.431 27.371,12.378 5.621,4.031 10.727,8.571 15.14,13.998 5.014,6.164 8.857,12.83 11.791,20.213 5.542,13.945 5.821,28.096 1.978,42.321 -2.31,8.55 -6.324,16.505 -11.829,23.504 -9.827,12.495 -22.314,21.384 -37.41,26.483 -16.171,5.462 -32.564,5.968 -49.065,1.734 C 60.398,68.616 51.83,64.808 43.996,59.331 41.723,57.742 39.517,56.118 37.492,54.24 36.5,53.32 35.668,53.18 34.574,54.22 c -4.762,4.528 -9.557,9.02 -14.419,13.438 -1.307,1.188 -1.215,1.858 0.091,2.988 11.225,9.721 23.991,16.647 38.161,20.952 14.908,4.529 30.105,6.007 45.634,4.133 13.221,-1.596 25.77,-5.213 37.618,-11.342 6.371,-3.297 12.337,-7.129 17.914,-11.651 7.553,-6.123 14.059,-13.097 19.541,-21.166 5.151,-7.58 8.924,-15.666 11.823,-24.339 5.078,-15.186 5.267,-30.531 2.001,-45.952 -1.284,-6.059 -3.238,-12.078 -5.943,-17.702 -3.441,-7.151 -7.454,-14.046 -12.576,-20.124 -9.283,-11.022 -20.268,-19.966 -33.228,-26.48 -13.963,-7.019 -28.717,-10.869 -44.271,-11.698 -16.85,-0.897 -33.118,1.952 -48.692,8.374 -7.818,3.225 -15.148,7.423 -21.943,12.532 -7.496,5.635 -14.1,12.095 -19.865,19.529 -5.467,7.05 -9.506,14.758 -12.949,22.95 -3.915,9.317 -5.169,19.034 -5.944,28.931 -0.158,2.025 0.563,2.514 2.443,2.442 C -6.691,-0.091 -3.345,0 0,0"
             style="fill:#60c160;fill-opacity:1;fill-rule:evenodd;stroke:none"
             id="path40"
             inkscape:connector-curvature="0" /></g><g
           id="g42"
           transform="translate(276.6533,387.6816)"><path
             d="m 0,0 c 9.7,9.221 19.377,18.42 29.426,27.972 -0.292,-3.937 -0.506,-7.395 -0.818,-10.845 -0.167,-1.837 0.145,-2.617 2.264,-1.898 6.339,2.149 12.357,4.875 18.083,8.395 8.906,5.475 16.394,12.413 22.326,20.955 3.698,5.322 6.459,11.129 8.761,17.272 4.997,13.332 5.017,26.781 1.616,40.248 -2.269,8.989 -6.637,17.263 -12.311,24.605 -6.294,8.142 -14.03,14.847 -23.084,19.838 -17.751,9.786 -36.649,12.896 -56.63,9.391 -12.974,-2.278 -24.715,-7.444 -35.158,-15.393 -6.017,-4.58 -11.166,-10.037 -15.623,-16.246 -8.014,-11.158 -12.229,-23.488 -12.702,-37.15 -0.045,-1.299 -0.308,-1.884 -1.769,-1.872 -7.095,0.066 -14.194,0.061 -21.288,0.002 -1.377,-0.009 -1.874,0.39 -1.81,1.797 0.406,8.996 1.662,17.867 4.632,26.375 1.619,4.643 3.603,9.228 5.991,13.522 5.379,9.664 12.189,18.234 20.459,25.67 4.617,4.152 9.548,7.833 14.748,11.155 10.664,6.811 22.314,11.244 34.661,13.89 18.877,4.043 37.569,3.054 55.987,-2.491 8.26,-2.487 16.111,-6.037 23.515,-10.567 8.632,-5.282 16.481,-11.481 23.226,-19.024 5.852,-6.547 10.806,-13.664 14.744,-21.602 2.517,-5.07 4.22,-10.325 5.934,-15.633 4.781,-14.819 4.553,-29.831 1.066,-44.781 C 103.958,53.776 100.021,44.476 94.581,35.966 89.457,27.953 83.339,20.678 76.069,14.5 62.853,3.271 47.859,-4.539 30.889,-8.405 c -4.258,-0.97 -4.231,-0.985 -4.435,-5.41 -0.117,-2.523 -0.318,-5.043 -0.512,-7.563 -0.033,-0.441 0.199,-1.04 -0.396,-1.278 -0.65,-0.259 -1.059,0.223 -1.471,0.618 -2.287,2.185 -4.587,4.351 -6.972,6.439 C 11.364,-10.569 5.814,-5.329 0,0"
             style="fill:#008186;fill-opacity:1;fill-rule:evenodd;stroke:none"
             id="path44"
             inkscape:connector-curvature="0" /></g><g
           id="g46"
           transform="translate(193.126,235.6084)"><path
             d="m 0,0 c -0.319,4.016 -0.662,7.797 -0.9,11.586 -0.086,1.369 -0.641,1.958 -2.005,2.244 -13.929,2.921 -26.825,8.357 -38.532,16.432 -3.25,2.24 -6.384,4.701 -9.38,7.349 -5.794,5.122 -10.777,10.935 -15.597,16.922 -0.861,1.071 -1.481,2.338 -2.223,3.507 -3.797,5.978 -6.805,12.305 -9.281,18.964 -7.06,18.98 -6.793,38.107 -1.162,57.226 1.537,5.217 3.61,10.426 6.324,15.241 4.957,8.791 10.918,16.875 18.26,23.804 16.619,15.684 36.309,25.116 58.933,28.433 20.563,3.017 40.391,0.435 59.538,-7.595 8.816,-3.697 17.019,-8.42 24.456,-14.447 1.381,-1.121 2.755,-2.251 4.136,-3.372 0.596,-0.482 0.795,-0.911 0.099,-1.542 -5.214,-4.736 -10.416,-9.486 -15.592,-14.268 -0.963,-0.888 -1.581,-0.813 -2.605,0.062 -12.2,10.407 -26.283,16.565 -42.186,18.673 -16.402,2.174 -32.117,-0.037 -47.162,-6.959 -6.675,-3.073 -12.779,-6.981 -18.338,-11.811 -5.05,-4.387 -9.379,-9.297 -13.199,-14.817 -10.224,-14.778 -13.519,-31.017 -11.174,-48.628 0.604,-4.536 1.48,-9.016 3.131,-13.277 3.119,-8.063 7.393,-15.556 13.055,-22.038 6.654,-7.615 14.49,-13.945 23.627,-18.485 4.076,-2.026 8.291,-3.74 12.609,-5.191 1.776,-0.599 2.248,0.069 2.291,1.857 0.072,2.954 -0.886,5.734 -1.1,8.623 -0.044,0.604 -0.404,1.43 0.257,1.796 0.747,0.416 1.113,-0.457 1.539,-0.868 5.376,-5.18 10.706,-10.406 16.099,-15.567 3.394,-3.247 6.847,-6.432 10.328,-9.583 1.08,-0.977 1.234,-1.619 0.028,-2.679 C 18.803,16.779 13.364,11.926 8.004,6.987 5.461,4.646 3.107,2.098 0,0"
             style="fill:#9f4496;fill-opacity:1;fill-rule:evenodd;stroke:none"
             id="path48"
             inkscape:connector-curvature="0" /></g><g
           id="g50"
           transform="translate(262.9619,346.208)"><path
             d="m 0,0 0.1,-0.043 c 0,0 -0.074,0.017 -0.072,0.014 L 0,0"
             style="fill:#4e4e4e;fill-opacity:1;fill-rule:evenodd;stroke:none"
             id="path52"
             inkscape:connector-curvature="0" /></g></g></g><text
       transform="matrix(1,0,0,-1,265.8389,496.0649)"
       style="font-variant:normal;font-weight:bold;font-stretch:normal;font-size:10px;font-family:'Century Gothic';-inkscape-font-specification:CenturyGothic-Bold;writing-mode:lr-tb;fill:#008186;fill-opacity:1;fill-rule:nonzero;stroke:none"
       id="text56"><tspan
         x="0 7.4000001 10.2 17.200001 22.4 26.799999 29.6 35.200001 38"
         y="0"
         sodipodi:role="line"
         id="tspan54">NIVEL 1: </tspan></text>
<text
       transform="matrix(1,0,0,-1,229.8089,484.0649)"
       style="font-variant:normal;font-weight:normal;font-stretch:normal;font-size:10px;font-family:'Century Gothic';-inkscape-font-specification:CenturyGothic;writing-mode:lr-tb;fill:#000000;fill-opacity:1;fill-rule:nonzero;stroke:none"
       id="text62"><tspan
         x="0 5.9200001 11.99 20.68 25.530001 30.889999 35.869999 38.130001 46.82 54.220001 61.619999 66.239998 69.010002 78.199997 83.559998 91 93.260002 101.39 110.08"
         y="0"
         sodipodi:role="line"
         id="tspan58">PROFESIONAL MÉDICO </tspan><tspan
         x="-1.37 7.3200002 10.09 14.35 20.42 27.82 33.560001 40.959999 45.779999 53.18 60.619999 69.309998 75.379997 78.150002 83.129997 91.82 99.949997 102.21 109.61"
         y="12"
         sodipodi:role="line"
         id="tspan60">O TRABAJADOR SOCIAL</tspan></text>
<text
       transform="matrix(1,0,0,-1,188.7889,358.9449)"
       style="font-variant:normal;font-weight:bold;font-stretch:normal;font-size:10px;font-family:'Century Gothic';-inkscape-font-specification:CenturyGothic-Bold;writing-mode:lr-tb;fill:#9f4496;fill-opacity:1;fill-rule:nonzero;stroke:none"
       id="text66"><tspan
         x="0 7.4000001 10.2 17.200001 22.4 26.799999 29.6 35.200001 38"
         y="0"
         sodipodi:role="line"
         id="tspan64">NIVEL 2: </tspan></text>
<text
       transform="matrix(1,0,0,-1,160.8189,346.9449)"
       style="font-variant:normal;font-weight:normal;font-stretch:normal;font-size:10px;font-family:'Century Gothic';-inkscape-font-specification:CenturyGothic;writing-mode:lr-tb;fill:#000000;fill-opacity:1;fill-rule:nonzero;stroke:none"
       id="text72"><tspan
         x="0 8.7200003 14.79 21.34 27.26 35.950001 40.93 43.700001 51.139999 56.5 59.27 66.669998 72.589996 79.139999 86.580002 93.980003"
         y="0"
         sodipodi:role="line"
         id="tspan68">GRUPOS DE AYUDA.</tspan><tspan
         x="30.57 32.830002 41.549999 46.169998 51.529999 56.509998 58.77"
         y="12"
         sodipodi:role="line"
         id="tspan70">IGLESIA</tspan></text>
<text
       transform="matrix(1,0,0,-1,265.8389,227.3649)"
       style="font-variant:normal;font-weight:bold;font-stretch:normal;font-size:10px;font-family:'Century Gothic';-inkscape-font-specification:CenturyGothic-Bold;writing-mode:lr-tb;fill:#60c160;fill-opacity:1;fill-rule:nonzero;stroke:none"
       id="text76"><tspan
         x="0 7.4000001 10.2 17.200001 22.4 26.799999 29.6 35.200001 38"
         y="0"
         sodipodi:role="line"
         id="tspan74">NIVEL 3: </tspan></text>
<text
       transform="matrix(1,0,0,-1,226.2489,215.3649)"
       style="font-variant:normal;font-weight:normal;font-stretch:normal;font-size:10px;font-family:'Century Gothic';-inkscape-font-specification:CenturyGothic;writing-mode:lr-tb;fill:#000000;fill-opacity:1;fill-rule:nonzero;stroke:none"
       id="text84"><tspan
         x="0 7.4000001 13.32 19.870001 27.305 34.705002 37.474998 43.395 48.755001 54.825001 59.805 68.495003 75.894997 83.294998 87.915001 90.175003 94.974998 102.375 109.815 117.215"
         y="0"
         sodipodi:role="line"
         id="tspan78">AYUDA PERSONALIZADA </tspan><tspan
         x="10.41 16.33 21.309999 23.57 31.700001 40.389999 49.080002 56.48 64.610001 73.300003 77.919998 86.610001 95.330002 104.02 106.79"
         y="12"
         sodipodi:role="line"
         id="tspan80">PSICOONCOLOGO, </tspan><tspan
         x="32.080002 38 42.98 45.240002 53.950001 60.5 62.759998 70.160004 74.419998 80.489998"
         y="24"
         sodipodi:role="line"
         id="tspan82">PSIQUIATRA</tspan></text>
</g></svg>