<?xml version="1.0" encoding="UTF-8" standalone="no"?>
<!-- Created with Inkscape (http://www.inkscape.org/) -->

<svg
   xmlns:dc="http://purl.org/dc/elements/1.1/"
   xmlns:cc="http://creativecommons.org/ns#"
   xmlns:rdf="http://www.w3.org/1999/02/22-rdf-syntax-ns#"
   xmlns:svg="http://www.w3.org/2000/svg"
   xmlns="http://www.w3.org/2000/svg"
   xmlns:sodipodi="http://sodipodi.sourceforge.net/DTD/sodipodi-0.dtd"
   xmlns:inkscape="http://www.inkscape.org/namespaces/inkscape"
   width="133.29747mm"
   height="157.36072mm"
   viewBox="0 0 133.29747 157.36072"
   version="1.1"
   id="svg2448"
   inkscape:version="0.92.5 (2060ec1f9f, 2020-04-08)"
   sodipodi:docname="imagen-4-lapaciente comunicaciones.svg">
  <defs
     id="defs2442">
    <clipPath
       clipPathUnits="userSpaceOnUse"
       id="clipPath1430">
      <path
         d="M 0,2993 H 1400 V 0 H 0 Z"
         id="path1428"
         inkscape:connector-curvature="0" />
    </clipPath>
    <clipPath
       clipPathUnits="userSpaceOnUse"
       id="clipPath1442">
      <path
         d="M 965.977,1451.45 H 1150.71 V 1149.16 H 965.977 Z"
         id="path1440"
         inkscape:connector-curvature="0" />
    </clipPath>
    <clipPath
       clipPathUnits="userSpaceOnUse"
       id="clipPath1446">
      <path
         d="m 965.977,1149.164 h 184.731 v 302.29 H 965.977 Z"
         id="path1444"
         inkscape:connector-curvature="0" />
    </clipPath>
    <clipPath
       clipPathUnits="userSpaceOnUse"
       id="clipPath1376">
      <path
         d="M 0,2993 H 1400 V 0 H 0 Z"
         id="path1374"
         inkscape:connector-curvature="0" />
    </clipPath>
    <clipPath
       clipPathUnits="userSpaceOnUse"
       id="clipPath1388">
      <path
         d="M 772.857,1451.45 H 957.59 V 1149.16 H 772.857 Z"
         id="path1386"
         inkscape:connector-curvature="0" />
    </clipPath>
    <clipPath
       clipPathUnits="userSpaceOnUse"
       id="clipPath1392">
      <path
         d="M 772.857,1149.161 H 957.59 v 302.291 H 772.857 Z"
         id="path1390"
         inkscape:connector-curvature="0" />
    </clipPath>
  </defs>
  <sodipodi:namedview
     id="base"
     pagecolor="#ffffff"
     bordercolor="#666666"
     borderopacity="1.0"
     inkscape:pageopacity="0.0"
     inkscape:pageshadow="2"
     inkscape:zoom="0.35"
     inkscape:cx="-120.9564"
     inkscape:cy="480.23174"
     inkscape:document-units="mm"
     inkscape:current-layer="layer1"
     showgrid="false"
     fit-margin-top="0"
     fit-margin-left="0"
     fit-margin-right="0"
     fit-margin-bottom="0"
     inkscape:window-width="1366"
     inkscape:window-height="652"
     inkscape:window-x="0"
     inkscape:window-y="27"
     inkscape:window-maximized="1" />
  <metadata
     id="metadata2445">
    <rdf:RDF>
      <cc:Work
         rdf:about="">
        <dc:format>image/svg+xml</dc:format>
        <dc:type
           rdf:resource="http://purl.org/dc/dcmitype/StillImage" />
        <dc:title></dc:title>
      </cc:Work>
    </rdf:RDF>
  </metadata>
  <g
     inkscape:label="Capa 1"
     inkscape:groupmode="layer"
     id="layer1"
     transform="translate(40.946356,-118.53392)">
    <g
       transform="matrix(0.35277777,0,0,-0.35277777,-313.59309,655.9418)"
       id="g1370">
      <g
         id="g1372"
         clip-path="url(#clipPath1376)">
        <g
           id="g1378"
           transform="translate(772.8569,1179.957)">
          <path
             d="m 0,0 v 240.701 c 0,17.008 13.788,30.796 30.797,30.796 H 184.733 V -30.798 H 30.797 C 13.788,-30.798 0,-17.008 0,0"
             style="fill:#c2cde1;fill-opacity:1;fill-rule:evenodd;stroke:none"
             id="path1380"
             inkscape:connector-curvature="0" />
        </g>
        <g
           id="g1382">
          <g
             id="g1384" />
          <g
             id="g1404">
            <g
               clip-path="url(#clipPath1388)"
               id="g1402"
               style="opacity:0.69999701">
              <g
                 id="g1400">
                <g
                   clip-path="url(#clipPath1392)"
                   id="g1398">
                  <g
                     transform="translate(772.8569,1179.957)"
                     id="g1396">
                    <path
                       d="m 0,0 v 240.701 c 0,17.008 13.788,30.796 30.797,30.796 H 184.733 V -30.798 H 30.797 C 13.788,-30.798 0,-17.008 0,0"
                       style="fill:#60c160;fill-opacity:1;fill-rule:nonzero;stroke:none"
                       id="path1394"
                       inkscape:connector-curvature="0" />
                  </g>
                </g>
              </g>
            </g>
          </g>
        </g>
      </g>
    </g>
    <text
       y="162.2114"
       x="-35.455029"
       style="font-variant:normal;font-weight:bold;font-stretch:normal;font-size:5.4373641px;font-family:'Century Gothic';-inkscape-font-specification:CenturyGothic-Bold;writing-mode:lr-tb;fill:#ffffff;fill-opacity:1;fill-rule:nonzero;stroke:none;stroke-width:0.35277775"
       id="text1422">
      <tspan
         style="stroke-width:0.35277775"
         x="-35.455029 -31.230198 -26.662813 -22.62285 -18.055466 -13.825197 -12.324486 -7.4471679 -5.9410186 -3.1081522 0.93181068 3.2155058 7.7828851 9.3814716 13.187628 16.020491 18.407495"
         y="162.2114"
         sodipodi:role="line"
         id="tspan1406">CONOCIMIENTO DEL</tspan>
      <tspan
         style="stroke-width:0.35277775"
         x="-21.584316 -16.701563 -13.874134 -10.0571 -8.5455151 -4.3261199"
         y="168.16531"
         sodipodi:role="line"
         id="tspan1408">MEDICO</tspan>
      <tspan
         style="stroke-width:0.35277775"
         x="-25.743898 -22.91647 -19.654053 -18.120716 -14.64624 -12.917158 -7.8060355 -4.3369994 -0.74833459 2.8511984"
         y="184.76015"
         sodipodi:role="line"
         id="tspan1410">Enfermedad</tspan>
      <tspan
         style="stroke-width:0.35277775"
         x="-25.907019 -23.617889 -21.888807 -18.29471 -16.647188 -13.053093 -7.9474082 -6.6261268 -3.151655 0.11076955 1.7582839 5.2327638"
         y="193.07932"
         sodipodi:role="line"
         id="tspan1412">Tratamiento</tspan>
      <tspan
         style="stroke-width:0.35277775"
         x="-24.031128 -20.975332 -19.24625 -15.771774 -12.509356 -9.0348778 -6.6424422 -4.9949203 -3.6736429 -0.19916315"
         y="201.35498"
         sodipodi:role="line"
         id="tspan1414">Pronóstico</tspan>
      <tspan
         style="stroke-width:0.35277775"
         x="-28.968256 -24.727112 -21.127577 -19.806297 -18.485018 -14.896358 -11.296827 -7.7081618 -6.2726989 -2.6840379 0.79043418 2.3455222 5.3904481 6.7117257 10.300383"
         y="209.67415"
         sodipodi:role="line"
         id="tspan1416">Calidad de vida</tspan>
      <tspan
         style="stroke-width:0.35277775"
         x="-31.208448 -28.375582 -25.548153 -22.503231 -19.664927 -15.423782 -13.917631 -9.8776684 -7.4906707 -5.9845176 -3.1570871 -0.87339562 3.1665671 4.7216516 7.5545182 11.567293"
         y="226.26898"
         sodipodi:role="line"
         id="tspan1418">ESPECIALISTA EN</tspan>
      <tspan
         style="stroke-width:0.35277775"
         x="-23.86257 -18.979818 -16.152391 -12.33536 -10.829212 -6.5880675 -5.0819182 -1.0691431"
         y="232.2229"
         sodipodi:role="line"
         id="tspan1420">MEDICINA</tspan>
    </text>
    <g
       transform="matrix(0.35277777,0,0,-0.35277777,-313.59309,655.9418)"
       id="g1424">
      <g
         id="g1426"
         clip-path="url(#clipPath1430)">
        <g
           id="g1432"
           transform="translate(1150.708,1420.6582)">
          <path
             d="m 0,0 v -240.703 c 0,-17.006 -13.787,-30.792 -30.796,-30.792 H -184.731 V 30.796 H -30.796 C -13.787,30.796 0,17.008 0,0"
             style="fill:#c2cde1;fill-opacity:1;fill-rule:evenodd;stroke:none"
             id="path1434"
             inkscape:connector-curvature="0" />
        </g>
        <g
           id="g1436">
          <g
             id="g1438" />
          <g
             id="g1458">
            <g
               clip-path="url(#clipPath1442)"
               id="g1456"
               style="opacity:0.69999701">
              <g
                 id="g1454">
                <g
                   clip-path="url(#clipPath1446)"
                   id="g1452">
                  <g
                     transform="translate(1150.708,1420.6582)"
                     id="g1450">
                    <path
                       d="m 0,0 v -240.703 c 0,-17.006 -13.787,-30.792 -30.796,-30.792 H -184.731 V 30.796 H -30.796 C -13.787,30.796 0,17.008 0,0"
                       style="fill:#60c160;fill-opacity:1;fill-rule:nonzero;stroke:none"
                       id="path1448"
                       inkscape:connector-curvature="0" />
                  </g>
                </g>
              </g>
            </g>
          </g>
        </g>
      </g>
    </g>
    <text
       y="162.2114"
       x="30.307341"
       style="font-variant:normal;font-weight:bold;font-stretch:normal;font-size:5.4373641px;font-family:'Century Gothic';-inkscape-font-specification:CenturyGothic-Bold;writing-mode:lr-tb;fill:#ffffff;fill-opacity:1;fill-rule:nonzero;stroke:none;stroke-width:0.35277775"
       id="text1476">
      <tspan
         style="stroke-width:0.35277775"
         x="30.307341 34.532173 39.099564 43.139526 47.706909 51.93718 53.437889 58.315201 59.821358 62.654228 66.694183 68.977875 73.545265 75.138412 78.944565 81.777435 84.164436"
         y="162.2114"
         sodipodi:role="line"
         id="tspan1460">CONOCIMIENTO DEL</tspan>
      <tspan
         style="stroke-width:0.35277775"
         x="42.49791 45.548271 49.588234 53.818504 55.319221 58.152084 62.192032 64.475731"
         y="168.16531"
         sodipodi:role="line"
         id="tspan1462">PACIENTE</tspan>
      <tspan
         style="stroke-width:0.35277775"
         x="40.013039 42.840469 46.102882 47.636223 51.110703 52.839775 57.950897 61.419937 65.008598 68.608131"
         y="184.76015"
         sodipodi:role="line"
         id="tspan1464">Enfermedad</tspan>
      <tspan
         style="stroke-width:0.35277775"
         x="39.849915 42.139053 43.868126 47.467667 49.115181 52.714722 57.820404 59.141685 62.616158 65.878586 67.526108 71.000572"
         y="193.07932"
         sodipodi:role="line"
         id="tspan1466">Tratamiento</tspan>
      <tspan
         style="stroke-width:0.35277775"
         x="41.725807 44.781609 46.510689 49.985161 53.247589 56.722061 59.114502 60.762016 62.083298 65.557777"
         y="201.35498"
         sodipodi:role="line"
         id="tspan1468">Pronóstico</tspan>
      <tspan
         style="stroke-width:0.35277775"
         x="36.788681 41.029823 44.629364 45.950638 47.271919 50.86058 54.460114 58.048775 59.484238 63.072891 66.547371 68.102463 71.147385 72.468666 76.057312"
         y="209.67415"
         sodipodi:role="line"
         id="tspan1470">Calidad de vida</tspan>
      <tspan
         style="stroke-width:0.35277775"
         x="30.916327 33.749199 36.576622 39.621544 42.459846 46.700996 48.207146 52.247108 54.634117 56.140266 58.96769 61.251381 65.291344 66.846436 69.679298 73.692078 75.214531 78.041962 81.527313"
         y="226.26898"
         sodipodi:role="line"
         id="tspan1472">ESPECIALISTA EN SU</tspan>
      <tspan
         style="stroke-width:0.35277775"
         x="38.63195 41.676872 44.841415 49.408806 52.459167 53.965317 58.005272 59.527733 63.344765 64.850914 68.662506"
         y="232.2229"
         sodipodi:role="line"
         id="tspan1474">PROPIA VIDA</tspan>
    </text>
    <g
       id="g1486"
       transform="matrix(0.35277777,0,0,-0.35277777,-4.110716,148.33906)">
      <path
         d="m 0,0 c 0,46.661 37.828,84.487 84.491,84.487 37.563,0 70.617,-24.799 81.119,-60.862 h 11.476 L 156.912,0 l -28.1,23.625 h 11.214 C 126.977,54.294 91.536,68.579 60.865,55.532 38.597,46.06 24.141,24.2 24.141,0 Z"
         style="fill:#4f81bd;fill-opacity:1;fill-rule:evenodd;stroke:none"
         id="path1488"
         inkscape:connector-curvature="0" />
    </g>
    <g
       id="g1490"
       transform="matrix(0.35277777,0,0,-0.35277777,-4.110716,148.33906)">
      <path
         d="m 0,0 c 0,46.661 37.828,84.487 84.491,84.487 37.563,0 70.617,-24.799 81.119,-60.862 h 11.476 L 156.912,0 l -28.1,23.625 h 11.214 C 126.977,54.294 91.536,68.579 60.865,55.532 38.597,46.06 24.141,24.2 24.141,0 Z"
         style="fill:#9f4496;fill-opacity:1;fill-rule:nonzero;stroke:none"
         id="path1492"
         inkscape:connector-curvature="0" />
    </g>
    <g
       id="g1494"
       transform="matrix(0.35277777,0,0,-0.35277777,55.50237,246.08916)">
      <path
         d="m 0,0 c 0,-46.662 -37.828,-84.488 -84.491,-84.488 -37.565,0 -70.618,24.8 -81.12,60.863 h -11.478 L -156.912,0 l 28.1,-23.625 h -11.214 c 13.049,-30.669 48.489,-44.954 79.162,-31.906 22.267,9.475 36.723,31.334 36.723,55.531 z"
         style="fill:#4f81bd;fill-opacity:1;fill-rule:evenodd;stroke:none"
         id="path1496"
         inkscape:connector-curvature="0" />
    </g>
    <g
       id="g1498"
       transform="matrix(0.35277777,0,0,-0.35277777,55.50237,246.08916)">
      <path
         d="m 0,0 c 0,-46.662 -37.828,-84.488 -84.491,-84.488 -37.565,0 -70.618,24.8 -81.12,60.863 h -11.478 L -156.912,0 l 28.1,-23.625 h -11.214 c 13.049,-30.669 48.489,-44.954 79.162,-31.906 22.267,9.475 36.723,31.334 36.723,55.531 z"
         style="fill:#9f4496;fill-opacity:1;fill-rule:nonzero;stroke:none"
         id="path1500"
         inkscape:connector-curvature="0" />
    </g>
  </g>
</svg>
