<?xml version="1.0" encoding="UTF-8" standalone="no"?>
<!-- Created with Inkscape (http://www.inkscape.org/) -->

<svg
   xmlns:dc="http://purl.org/dc/elements/1.1/"
   xmlns:cc="http://creativecommons.org/ns#"
   xmlns:rdf="http://www.w3.org/1999/02/22-rdf-syntax-ns#"
   xmlns:svg="http://www.w3.org/2000/svg"
   xmlns="http://www.w3.org/2000/svg"
   xmlns:sodipodi="http://sodipodi.sourceforge.net/DTD/sodipodi-0.dtd"
   xmlns:inkscape="http://www.inkscape.org/namespaces/inkscape"
   version="1.1"
   id="svg2"
   xml:space="preserve"
   width="1896"
   height="909.33331"
   viewBox="0 0 1896 909.33332"
   sodipodi:docname="imagen-1-lapaciente-emociones.svg"
   inkscape:version="0.92.5 (2060ec1f9f, 2020-04-08)"><metadata
     id="metadata8"><rdf:RDF><cc:Work
         rdf:about=""><dc:format>image/svg+xml</dc:format><dc:type
           rdf:resource="http://purl.org/dc/dcmitype/StillImage" /><dc:title></dc:title></cc:Work></rdf:RDF></metadata><defs
     id="defs6"><clipPath
       clipPathUnits="userSpaceOnUse"
       id="clipPath18"><path
         d="M 0,764 H 1489.652 V 0 H 0 Z"
         id="path16"
         inkscape:connector-curvature="0" /></clipPath><clipPath
       clipPathUnits="userSpaceOnUse"
       id="clipPath26"><path
         d="M 21.6523,741 H 1483.65 V 7 H 21.6523 Z"
         id="path24"
         inkscape:connector-curvature="0" /></clipPath><clipPath
       clipPathUnits="userSpaceOnUse"
       id="clipPath58"><path
         d="M 0,764 H 1489.652 V 0 H 0 Z"
         id="path56"
         inkscape:connector-curvature="0" /></clipPath></defs><sodipodi:namedview
     pagecolor="#ffffff"
     bordercolor="#666666"
     borderopacity="1"
     objecttolerance="10"
     gridtolerance="10"
     guidetolerance="10"
     inkscape:pageopacity="0"
     inkscape:pageshadow="2"
     inkscape:window-width="1440"
     inkscape:window-height="788"
     id="namedview4"
     showgrid="false"
     inkscape:zoom="0.5375593"
     inkscape:cx="732.78786"
     inkscape:cy="557.70935"
     inkscape:window-x="0"
     inkscape:window-y="27"
     inkscape:window-maximized="1"
     inkscape:current-layer="g10"
     fit-margin-top="0"
     fit-margin-left="0"
     fit-margin-right="0"
     fit-margin-bottom="0" /><g
     id="g10"
     inkscape:groupmode="layer"
     inkscape:label="imagen 1 de la paciente emociones"
     transform="matrix(1.3333333,0,0,-1.3333333,-54.203065,953.33331)"><path
   inkscape:connector-curvature="0"
   id="path36"
   style="fill:#ffffff;fill-opacity:1;fill-rule:nonzero;stroke:none"
   d="m 1462.6523,58 c 0,-13.807 -11.193,-25 -25,-25 h -1372 c -13.807,0 -25,11.193 -25,25 v 632 c 0,13.807 11.193,25 25,25 h 1372 c 13.807,0 25,-11.193 25,-25 z" /><path
   style="color:#000000;font-style:normal;font-variant:normal;font-weight:normal;font-stretch:normal;font-size:medium;line-height:normal;font-family:sans-serif;font-variant-ligatures:normal;font-variant-position:normal;font-variant-caps:normal;font-variant-numeric:normal;font-variant-alternates:normal;font-feature-settings:normal;text-indent:0;text-align:start;text-decoration:none;text-decoration-line:none;text-decoration-style:solid;text-decoration-color:#000000;letter-spacing:normal;word-spacing:normal;text-transform:none;writing-mode:lr-tb;direction:ltr;text-orientation:mixed;dominant-baseline:auto;baseline-shift:baseline;text-anchor:start;white-space:normal;shape-padding:0;clip-rule:nonzero;display:inline;overflow:visible;visibility:visible;opacity:1;isolation:auto;mix-blend-mode:normal;color-interpolation:sRGB;color-interpolation-filters:linearRGB;solid-color:#000000;solid-opacity:1;vector-effect:none;fill:#9f4496;fill-opacity:1;fill-rule:nonzero;stroke:none;stroke-width:16;stroke-linecap:round;stroke-linejoin:miter;stroke-miterlimit:10;stroke-dasharray:none;stroke-dashoffset:0;stroke-opacity:1;color-rendering:auto;image-rendering:auto;shape-rendering:auto;text-rendering:auto;enable-background:accumulate"
   d="m 359.35938,182.2207 c -30.57031,0 -56.41025,18.85023 -78.33399,41 -21.92374,22.14978 -40.53347,48.29284 -55.78906,65.24414 C 192.56825,324.76191 96.615234,452.44336 96.615234,452.44336 a 8.0008,8.0008 0 1 0 12.785156,9.62109 c 0,0 97.1846,-128.95954 127.72852,-162.89648 16.3494,-18.1667 34.61231,-43.82318 55.26757,-64.69141 20.65527,-20.86822 43.1022,-36.25586 66.9629,-36.25586 22.05422,0 53.26077,24.48457 85.82617,50.88868 32.5654,26.4041 66.9978,54.46093 103.80468,54.46093 36.87896,0 65.63979,-28.96782 94.71094,-55.41601 29.07116,-26.4482 58.08186,-50.72877 92.98047,-49.93555 74.62075,1.69608 166.35865,39.73762 272.60936,206.99219 31.9591,50.30837 56.1764,74.79539 73.2188,86.94531 8.5211,6.07496 15.2758,9.05276 20.25,10.45703 2.487,0.70214 4.524,1.00694 6.082,1.11133 1.558,0.10439 3.1894,-0.0762 3.1894,-0.0762 a 8.0008,8.0008 0 1 0 -2.3457,-15.82617 c 0,0 0.644,-0.0326 0.2266,-0.0605 -0.4173,-0.028 -1.3431,-0.1337 -2.8066,-0.54688 -2.9271,-0.82635 -8.0253,-2.89685 -15.3067,-8.08789 -14.5626,-10.38208 -37.751,-33.30246 -69.0019,-82.49609 C 914.8736,226.74343 816.94012,184.03858 737.04688,182.22266 c -42.35839,-0.96278 -74.80294,27.43185 -104.11329,54.09765 -29.31034,26.66581 -55.85732,51.25 -83.94336,51.25 -28.15812,0 -61.32546,-24.61778 -93.72656,-50.88867 -32.4011,-26.27089 -63.52752,-54.46094 -95.90429,-54.46094 z"
   id="path40"
   inkscape:connector-curvature="0" /><path
   inkscape:connector-curvature="0"
   id="path44"
   style="fill:#008186;fill-opacity:1;fill-rule:nonzero;stroke:none"
   d="m 961.6118,467.5493 c 0,-113.942 -92.368,-206.311 -206.311,-206.311 -113.942,0 -206.31,92.369 -206.31,206.311 0,113.942 92.368,206.311 206.31,206.311 113.943,0 206.311,-92.369 206.311,-206.311" /><text
   transform="matrix(1,0,0,-1,1004.9258,329.4565)"
   style="font-variant:normal;font-weight:normal;font-stretch:normal;font-size:26.7968998px;font-family:'Century Gothic';-inkscape-font-specification:CenturyGothic;writing-mode:lr-tb;fill:#000000;fill-opacity:1;fill-rule:nonzero;stroke:none"
   id="text50"><tspan
     x="0 14.845483 22.268225 29.690966 45.554729 53.620598 58.979977 84.115471 101.53345 109.59932 127.9016 135.32434 147.70451 153.06389 169.41 186.82799 205.13026 212.55301 230.90889 248.32687 255.74962 267.1651 275.23096 293.53323 302.6174 320.91968 346.05518 351.41455 368.83252 385.17865 394.26279 411.81476"
     y="0"
     sodipodi:role="line"
     id="tspan46">4. Primera Línea de Tratamiento </tspan><tspan
     x="-740.23755 -725.39209 -717.96936 -710.54663 -690.60968 -685.25031 -666.94806 -648.91376 -632.56763 -615.01562 -604.61847 -595.5343 -590.17493 -572.83734"
     y="218.23395"
     sodipodi:role="line"
     id="tspan48">1. Diagnóstico</tspan></text>

<path
   style="fill:#fcbdd4;fill-opacity:1;fill-rule:nonzero;stroke:none;stroke-width:1.33333325"
   d="m 1291.5293,542.17969 c -14.356,0 -25.9941,11.63947 -25.9941,25.99414 0,14.356 11.6381,25.99414 25.9941,25.99414 14.356,0 25.9941,-11.63814 25.9941,-25.99414 0,-14.35467 -11.6381,-25.99414 -25.9941,-25.99414 z m -560,53.33398 c -14.356,0 -25.99414,11.63948 -25.99414,25.99414 0,14.356 11.63814,25.99414 25.99414,25.99414 14.356,0 25.99414,-11.63814 25.99414,-25.99414 0,-14.35466 -11.63814,-25.99414 -25.99414,-25.99414 z m -262.66797,144 c -14.356,0 -25.99219,11.63948 -25.99219,25.99414 0,14.356 11.63619,25.99414 25.99219,25.99414 14.356,0 25.99609,-11.63814 25.99609,-25.99414 0,-14.35466 -11.64009,-25.99414 -25.99609,-25.99414 z m 525.33398,0 c -14.356,0 -25.99414,11.63948 -25.99414,25.99414 0,14.356 11.63814,25.99414 25.99414,25.99414 14.35599,0 25.99419,-11.63814 25.99419,-25.99414 0,-14.35466 -11.6382,-25.99414 -25.99419,-25.99414 z"
   transform="matrix(0.75000002,0,0,-0.75000002,0,764.00004)"
   id="path62"
   inkscape:connector-curvature="0" /><text
   transform="matrix(1,0,0,-1,451.6655,194.6133)"
   style="font-variant:normal;font-weight:normal;font-stretch:normal;font-size:26.7968998px;font-family:'Century Gothic';-inkscape-font-specification:CenturyGothic;writing-mode:lr-tb;fill:#000000;fill-opacity:1;fill-rule:nonzero;stroke:none"
   id="text80"><tspan
     x="0 14.845483 22.268225 29.690966 41.106445 49.17231 67.474594 76.558746 94.861023 119.99652 125.3559 142.77388 159.12 168.20415"
     y="0"
     sodipodi:role="line"
     id="tspan76">2. Tratamiento</tspan><tspan
     x="244.25374 259.09921 266.52197 282.38574 290.4516 308.00357 326.03787 334.10376 351.52173 361.91895 367.27832 384.83029 401.17639 408.59912 426.15109 433.57385 449.83957 467.25754 484.59515 489.95453 508.31039 513.6698 528.51526"
     y="83.391953"
     sodipodi:role="line"
     id="tspan78">3.Progresión o Recidiva</tspan></text>

<text
   transform="matrix(1,0,0,-1,735.6099,604.4136)"
   style="font-variant:normal;font-weight:bold;font-stretch:normal;font-size:31.26300049px;font-family:'Century Gothic';-inkscape-font-specification:CenturyGothic-Bold;writing-mode:lr-tb;fill:#ffffff;fill-opacity:1;fill-rule:nonzero;stroke:none"
   id="text98"><tspan
     x="0 8.7536402 18.757799"
     y="0"
     sodipodi:role="line"
     id="tspan82">Ira</tspan><tspan
     x="-52.834469 -29.69985 -10.94205 2.8136699 10.31679 30.325109 50.958691 71.59227"
     y="37.515598"
     sodipodi:role="line"
     id="tspan84">Ansiedad</tspan><tspan
     x="-56.586029 -34.701931 -14.69361 5.93997 15.94413 35.95245 49.708172 57.211288 77.219612"
     y="75.031197"
     sodipodi:role="line"
     id="tspan86">Depresión</tspan><tspan
     x="-154.12659 -137.86983 -117.86151 -97.227928 -87.22377 -67.215446 -47.20713 -26.573549 -16.569389 4.0641899 24.697769 33.451408 49.708172 79.09539 99.103706 119.11203 126.61515 146.62347 165.38127 186.01485"
     y="112.5468"
     sodipodi:role="line"
     id="tspan88">Sobrecarga Emocional</tspan><tspan
     x="-28.449329 -0.31263 7.1904898 27.198811 47.83239"
     y="150.06239"
     sodipodi:role="line"
     id="tspan90">Miedo</tspan><tspan
     x="-24.385139 -2.50104 16.25676 36.265079 43.7682"
     y="187.578"
     sodipodi:role="line"
     id="tspan92">Duelo</tspan><tspan
     x="-26.26092 -1.87578 16.882021 24.385139 45.018719"
     y="225.0936"
     sodipodi:role="line"
     id="tspan94">Culpa</tspan><tspan
     x="-43.142941 -26.886181 -6.8778601 0.62526 20.633579 41.267159 61.900742"
     y="262.60919"
     sodipodi:role="line"
     id="tspan96">Soledad</tspan></text>

</g></svg>