<?xml version="1.0" encoding="UTF-8" standalone="no"?>
<!-- Created with Inkscape (http://www.inkscape.org/) -->

<svg
   xmlns:dc="http://purl.org/dc/elements/1.1/"
   xmlns:cc="http://creativecommons.org/ns#"
   xmlns:rdf="http://www.w3.org/1999/02/22-rdf-syntax-ns#"
   xmlns:svg="http://www.w3.org/2000/svg"
   xmlns="http://www.w3.org/2000/svg"
   xmlns:sodipodi="http://sodipodi.sourceforge.net/DTD/sodipodi-0.dtd"
   xmlns:inkscape="http://www.inkscape.org/namespaces/inkscape"
   width="192.51587mm"
   height="222.48833mm"
   viewBox="0 0 192.51587 222.48833"
   version="1.1"
   id="svg1819"
   inkscape:version="0.92.5 (2060ec1f9f, 2020-04-08)"
   sodipodi:docname="imagen-1.3-herramientas-estadificacion.svg">
  <defs
     id="defs1813">
    <clipPath
       clipPathUnits="userSpaceOnUse"
       id="clipPath1142">
      <path
         d="M 0,7215 H 1400 V 0 H 0 Z"
         id="path1140"
         inkscape:connector-curvature="0" />
    </clipPath>
    <clipPath
       clipPathUnits="userSpaceOnUse"
       id="clipPath1150">
      <path
         d="m 554,5999 h 280 v -69 H 554 Z"
         id="path1148"
         inkscape:connector-curvature="0" />
    </clipPath>
    <clipPath
       clipPathUnits="userSpaceOnUse"
       id="clipPath1166">
      <path
         d="m 831,6000 h 279 v -69 H 831 Z"
         id="path1164"
         inkscape:connector-curvature="0" />
    </clipPath>
    <clipPath
       clipPathUnits="userSpaceOnUse"
       id="clipPath1182">
      <path
         d="m 1109,6000 h 280 v -69 h -280 z"
         id="path1180"
         inkscape:connector-curvature="0" />
    </clipPath>
    <clipPath
       clipPathUnits="userSpaceOnUse"
       id="clipPath1198">
      <path
         d="M 558,5915 H 830 V 5035 H 558 Z"
         id="path1196"
         inkscape:connector-curvature="0" />
    </clipPath>
    <clipPath
       clipPathUnits="userSpaceOnUse"
       id="clipPath1214">
      <path
         d="m 834,5916 h 273 V 5203 H 834 Z"
         id="path1212"
         inkscape:connector-curvature="0" />
    </clipPath>
    <clipPath
       clipPathUnits="userSpaceOnUse"
       id="clipPath1230">
      <path
         d="m 1113,5916 h 272 v -441 h -272 z"
         id="path1228"
         inkscape:connector-curvature="0" />
    </clipPath>
  </defs>
  <sodipodi:namedview
     id="base"
     pagecolor="#ffffff"
     bordercolor="#666666"
     borderopacity="1.0"
     inkscape:pageopacity="0.0"
     inkscape:pageshadow="2"
     inkscape:zoom="0.35"
     inkscape:cx="375.23813"
     inkscape:cy="415.78798"
     inkscape:document-units="mm"
     inkscape:current-layer="layer1"
     showgrid="false"
     fit-margin-top="0"
     fit-margin-left="0"
     fit-margin-right="0"
     fit-margin-bottom="0"
     inkscape:window-width="1366"
     inkscape:window-height="652"
     inkscape:window-x="0"
     inkscape:window-y="27"
     inkscape:window-maximized="1" />
  <metadata
     id="metadata1816">
    <rdf:RDF>
      <cc:Work
         rdf:about="">
        <dc:format>image/svg+xml</dc:format>
        <dc:type
           rdf:resource="http://purl.org/dc/dcmitype/StillImage" />
        <dc:title></dc:title>
      </cc:Work>
    </rdf:RDF>
  </metadata>
  <g
     inkscape:label="Capa 1"
     inkscape:groupmode="layer"
     id="layer1"
     transform="translate(-6.5515777,-36.35558)">
    <g
       transform="matrix(0.23055792,0,0,-0.23055792,-121.17751,1419.7031)"
       id="g1136">
      <g
         id="g1138"
         clip-path="url(#clipPath1142)">
        <g
           id="g1144">
          <g
             id="g1146" />
          <g
             id="g1158">
            <g
               clip-path="url(#clipPath1150)"
               id="g1156"
               style="opacity:0.60000598">
              <g
                 transform="translate(834,5950.1914)"
                 id="g1154">
                <path
                   d="m 0,0 c 0,-10.837 -3.199,-20.191 -7.734,-20.191 h -263.179 c -4.535,0 -9.087,9.354 -9.087,20.191 v 30.614 c 0,10.838 4.552,18.195 9.087,18.195 H -7.734 C -3.199,48.809 0,41.452 0,30.614 Z"
                   style="fill:#00b7b7;fill-opacity:1;fill-rule:nonzero;stroke:none"
                   id="path1152"
                   inkscape:connector-curvature="0" />
              </g>
            </g>
          </g>
        </g>
        <g
           id="g1160">
          <g
             id="g1162" />
          <g
             id="g1174">
            <g
               clip-path="url(#clipPath1166)"
               id="g1172"
               style="opacity:0.60000598">
              <g
                 transform="translate(1110,5950.1914)"
                 id="g1170">
                <path
                   d="m 0,0 c 0,-10.837 -3.346,-19.191 -7.881,-19.191 h -263.18 c -4.535,0 -7.939,8.354 -7.939,19.191 v 30.614 c 0,10.838 3.404,19.195 7.939,19.195 H -7.881 C -3.346,49.809 0,41.452 0,30.614 Z"
                   style="fill:#fba4c3;fill-opacity:1;fill-rule:nonzero;stroke:none"
                   id="path1168"
                   inkscape:connector-curvature="0" />
              </g>
            </g>
          </g>
        </g>
        <g
           id="g1176">
          <g
             id="g1178" />
          <g
             id="g1190">
            <g
               clip-path="url(#clipPath1182)"
               id="g1188"
               style="opacity:0.60000598">
              <g
                 transform="translate(1389,5950.1914)"
                 id="g1186">
                <path
                   d="m 0,0 c 0,-10.837 -3.678,-19.191 -8.215,-19.191 h -263.178 c -4.535,0 -8.607,8.354 -8.607,19.191 v 30.614 c 0,10.838 4.072,19.195 8.607,19.195 H -8.215 C -3.678,49.809 0,41.452 0,30.614 Z"
                   style="fill:#76ce76;fill-opacity:1;fill-rule:nonzero;stroke:none"
                   id="path1184"
                   inkscape:connector-curvature="0" />
              </g>
            </g>
          </g>
        </g>
        <g
           id="g1192">
          <g
             id="g1194" />
          <g
             id="g1206">
            <g
               clip-path="url(#clipPath1198)"
               id="g1204"
               style="opacity:0.60000598">
              <g
                 transform="translate(830,5074.2803)"
                 id="g1202">
                <path
                   d="M 0,0 C 0,-20.756 -10.023,-39.28 -23.598,-39.28 H -246.793 C -260.368,-39.28 -272,-20.756 -272,0 v 804.258 c 0,20.756 11.632,36.462 25.207,36.462 H -23.598 C -10.023,840.72 0,825.014 0,804.258 Z"
                   style="fill:#00b7b7;fill-opacity:1;fill-rule:nonzero;stroke:none"
                   id="path1200"
                   inkscape:connector-curvature="0" />
              </g>
            </g>
          </g>
        </g>
        <g
           id="g1208">
          <g
             id="g1210" />
          <g
             id="g1222">
            <g
               clip-path="url(#clipPath1214)"
               id="g1220"
               style="opacity:0.60000598">
              <g
                 transform="translate(1107,5234.0195)"
                 id="g1218">
                <path
                   d="M 0,0 C 0,-16.804 -11.171,-31.02 -24.746,-31.02 H -247.94 C -261.516,-31.02 -273,-16.804 -273,0 v 651.11 c 0,16.803 11.484,30.87 25.06,30.87 H -24.746 C -11.171,681.98 0,667.913 0,651.11 Z"
                   style="fill:#fba4c3;fill-opacity:1;fill-rule:nonzero;stroke:none"
                   id="path1216"
                   inkscape:connector-curvature="0" />
              </g>
            </g>
          </g>
        </g>
        <g
           id="g1224">
          <g
             id="g1226" />
          <g
             id="g1238">
            <g
               clip-path="url(#clipPath1230)"
               id="g1236"
               style="opacity:0.60000598">
              <g
                 transform="translate(1385,5493.8608)"
                 id="g1234">
                <path
                   d="M 0,0 C 0,-10.397 -10.503,-18.861 -24.078,-18.861 H -247.273 C -260.848,-18.861 -272,-10.397 -272,0 v 402.869 c 0,10.397 11.152,19.27 24.727,19.27 H -24.078 C -10.503,422.139 0,413.266 0,402.869 Z"
                   style="fill:#76ce76;fill-opacity:1;fill-rule:nonzero;stroke:none"
                   id="path1232"
                   inkscape:connector-curvature="0" />
              </g>
            </g>
          </g>
        </g>
      </g>
    </g>
    <text
       y="47.349247"
       x="20.24502"
       style="font-variant:normal;font-weight:bold;font-stretch:normal;font-size:9.08571243px;font-family:Verdana;-inkscape-font-specification:Verdana-Bold;writing-mode:lr-tb;fill:#333333;fill-opacity:1;fill-rule:nonzero;stroke:none;stroke-width:0.23055792"
       id="text1242">
      <tspan
         style="stroke-width:0.23055792"
         x="20.24502 26.441477 29.721415"
         y="47.349247"
         sodipodi:role="line"
         id="tspan1240">T.</tspan>
    </text>
    <text
       y="47.349247"
       x="32.826633"
       style="font-variant:normal;font-weight:normal;font-stretch:normal;font-size:5.62448311px;font-family:Verdana;-inkscape-font-specification:Verdana;writing-mode:lr-tb;fill:#333333;fill-opacity:1;fill-rule:nonzero;stroke:none;stroke-width:0.23055792"
       id="text1246">
      <tspan
         style="stroke-width:0.23055792"
         x="32.826633 36.291317 40.408432 45.149872 49.576347"
         y="47.349247"
         sodipodi:role="line"
         id="tspan1244">TUMOR</tspan>
    </text>
    <text
       y="47.349247"
       x="81.795212"
       style="font-variant:normal;font-weight:bold;font-stretch:normal;font-size:9.08571243px;font-family:Verdana;-inkscape-font-specification:Verdana-Bold;writing-mode:lr-tb;fill:#333333;fill-opacity:1;fill-rule:nonzero;stroke:none;stroke-width:0.23055792"
       id="text1250">
      <tspan
         style="stroke-width:0.23055792"
         x="81.795212 89.490814 92.770744"
         y="47.349247"
         sodipodi:role="line"
         id="tspan1248">N.</tspan>
    </text>
    <text
       y="47.349247"
       x="95.876335"
       style="font-variant:normal;font-weight:normal;font-stretch:normal;font-size:5.62448311px;font-family:Verdana;-inkscape-font-specification:Verdana;writing-mode:lr-tb;fill:#333333;fill-opacity:1;fill-rule:nonzero;stroke:none;stroke-width:0.23055792"
       id="text1254">
      <tspan
         style="stroke-width:0.23055792"
         x="95.876335 100.23532 104.08245 108.2896 112.64855 115.78139 118.14929 122.57574"
         y="47.349247"
         sodipodi:role="line"
         id="tspan1252">GANGLIOS</tspan>
    </text>
    <text
       y="47.349247"
       x="142.86671"
       style="font-variant:normal;font-weight:bold;font-stretch:normal;font-size:9.08571243px;font-family:Verdana;-inkscape-font-specification:Verdana-Bold;writing-mode:lr-tb;fill:#333333;fill-opacity:1;fill-rule:nonzero;stroke:none;stroke-width:0.23055792"
       id="text1258">
      <tspan
         style="stroke-width:0.23055792"
         x="142.86671 151.47997 154.7599"
         y="47.349247"
         sodipodi:role="line"
         id="tspan1256">M.</tspan>
    </text>
    <text
       y="47.349247"
       x="157.86604"
       style="font-variant:normal;font-weight:normal;font-stretch:normal;font-size:5.62448311px;font-family:Verdana;-inkscape-font-specification:Verdana;writing-mode:lr-tb;fill:#333333;fill-opacity:1;fill-rule:nonzero;stroke:none;stroke-width:0.23055792"
       id="text1262">
      <tspan
         style="stroke-width:0.23055792"
         x="157.86604 162.60748 166.16216 169.62683 173.47397 177.32112 180.45734 184.27467 188.1218 190.48973"
         y="47.349247"
         sodipodi:role="line"
         id="tspan1260">METÁSTASIS</tspan>
    </text>
    <text
       y="64.837547"
       x="12.426696"
       transform="scale(1.00419,0.99582748)"
       style="font-variant:normal;font-weight:normal;font-stretch:normal;font-size:4.3698988px;font-family:Calibri;-inkscape-font-specification:Calibri;writing-mode:lr-tb;fill:#333333;fill-opacity:1;fill-rule:nonzero;stroke:none;stroke-width:0.22959593"
       id="text1336">
      <tspan
         style="stroke-width:0.22959593"
         x="12.426696 14.602908 15.590503 17.718651 19.610809 20.781946 21.769541 24.592503 26.895439 27.883028 29.591658 31.765688 32.753281 35.047482 37.341679 39.517891 41.812084 43.986115 44.973713 47.147732 49.122929 51.216114 52.216824 54.511017 56.604187 58.129288 59.11689 61.293091 62.2938"
         y="64.837547"
         sodipodi:role="line"
         id="tspan1264">• Tx: No se puede evaluar el</tspan>
      <tspan
         style="stroke-width:0.22959593"
         x="12.426696 13.890611 16.184818 19.676357 21.979301 23.504395 24.491989 26.78619 28.311285 29.311991 32.803535 34.896721 36.421814 37.422523 39.725456"
         y="70.081421"
         sodipodi:role="line"
         id="tspan1266">tumor primario.</tspan>
      <tspan
         style="stroke-width:0.22959593"
         x="12.426696 14.602908 15.590503 17.718651 19.934185 21.105322 22.092916 24.913681 27.216623 28.204222 30.498415 32.591599 34.571171 35.558765 37.734966 39.710167 40.71349 43.007694 45.181713 47.475914 49.324379 50.325092 52.418274 53.405865 55.700066 57.876282"
         y="75.325302"
         sodipodi:role="line"
         id="tspan1268">• T0: No hay evidencia de</tspan>
      <tspan
         style="stroke-width:0.22959593"
         x="12.426696 13.890611 16.184818 19.676357 21.979301 23.504395 24.491989 26.78619 28.311285 29.311991 32.803535 34.896721 36.421814 37.422523 39.725456 40.713062 42.887081 45.181274 46.168873 47.169582 49.262775 50.250366 53.741909 55.835106 59.326637 61.419823"
         y="80.569183"
         sodipodi:role="line"
         id="tspan1270">tumor primario en la mama.</tspan>
      <tspan
         style="stroke-width:0.22959593"
         x="12.426696 14.602908 15.590503 17.718651 18.719358 20.427986 21.599123 22.586718 24.915867 27.009048 28.534147 30.382616 31.383326 33.677525 35.980457 39.472008 41.565189 42.552788 43.553493 45.847691 46.835285 48.543915 49.544621 51.008537 53.302734 54.403957 55.391563 58.212326 60.515259"
         y="85.813042"
         sodipodi:role="line"
         id="tspan1272">• Tis: Carcinoma in situ. No</tspan>
      <tspan
         style="stroke-width:0.22959593"
         x="12.426696 14.135333 16.311537 17.299143 19.593338 21.686512 22.674116 24.968315 25.969025 27.677649 29.851679 33.343216 34.343929 36.638126 38.731312 41.025505 43.328449 44.316044 46.409222 47.409935 48.39753 49.861446 52.035465 53.079872 54.080578 56.374779 58.677711"
         y="91.056946"
         sodipodi:role="line"
         id="tspan1274">se ha diseminado al tejido</tspan>
      <tspan
         style="stroke-width:0.22959593"
         x="12.426696 14.275167 15.275874 16.800972 18.649433 20.943628 23.237835 25.532032 27.625204 29.919409 31.383326 33.557346 34.544945 36.839149 39.013172 40.000763 41.001472 43.094658 44.082249 47.573799 49.666985 53.158535 55.251717 56.352928 57.340523 60.062973 62.156158 64.135719"
         y="96.300804"
         sodipodi:role="line"
         id="tspan1276">circundante de la mama. Hay</tspan>
      <tspan
         style="stroke-width:0.22959593"
         x="12.426696 14.720891 17.023834 18.732462 19.720057 22.154097 24.448292 26.751225 28.459864 29.447454 31.776617 33.869789 35.39489 37.243359 38.244068 40.538265 42.841194 46.332745 48.42593 49.413525 52.101013 54.395218 56.243683 57.707596 59.800781 60.801483"
         y="101.54469"
         sodipodi:role="line"
         id="tspan1278">dos tpos Carcinoma Ductal</tspan>
      <tspan
         style="stroke-width:0.22959593"
         x="12.426696 13.527915 15.822112 16.809706 18.518335 19.519043 20.98296 23.277157 24.264763 26.24432 27.231913 29.364424 31.658625 32.991444 35.165474 36.690571 40.18211 42.358326 44.652523 46.745701 49.039898 50.027504 52.321697 54.497902"
         y="106.78857"
         sodipodi:role="line"
         id="tspan1280">In situ y Enfermedad de</tspan>
      <tspan
         style="stroke-width:0.22959593"
         x="12.426696 14.685937 16.779121 18.837341 21.011362 22.475286 23.462883 25.75708 27.931097 28.931803 29.919409 32.17646 34.352676 36.078773 38.381718"
         y="112.03244"
         sodipodi:role="line"
         id="tspan1282">Paget del Pezón</tspan>
      <tspan
         style="stroke-width:0.22959593"
         x="12.426696 14.602908 15.590503 17.718651 19.934185 21.105322 22.092916 24.221062 26.515259 30.0068 32.309738 33.834839 34.822437 36.99865 39.292843 40.280437 41.281147 43.374329 44.361927 47.853477 49.946659 53.43821 55.531395"
         y="117.27634"
         sodipodi:role="line"
         id="tspan1284">• T1: Tumor en la mama</tspan>
      <tspan
         style="stroke-width:0.22959593"
         x="12.426696 15.918246 16.918955 19.21315 21.389364 23.364555 25.540768 26.528362 28.743906 29.731501 31.579962 35.071526"
         y="122.5202"
         sodipodi:role="line"
         id="tspan1286">mide ≤ 2 cm.</tspan>
      <tspan
         style="stroke-width:0.22959593"
         x="12.426696 14.602908 15.590503 17.718651 19.934185 20.92178 24.41333 25.41404 27.26251 28.250101 30.426313 31.413912 33.629448 37.120998 40.612549"
         y="127.76408"
         sodipodi:role="line"
         id="tspan1288">• T1 mic ≤ 1mm.</tspan>
      <tspan
         style="stroke-width:0.22959593"
         x="12.426696 14.602908 15.590503 17.718651 19.934185 22.027367 23.014961 25.147476 26.148186 27.13578 28.599695 30.893892 34.385445 36.688385 38.213482 39.201077 42.692619 43.693329 45.98753 48.161552 49.149147 51.325359 52.312954 54.5285 55.51609 59.007645 62.499184"
         y="133.00797"
         sodipodi:role="line"
         id="tspan1290">• T1a El tumor mide ˃ 1 mm</tspan>
      <tspan
         style="stroke-width:0.22959593"
         x="12.426696 14.720891 16.894922 18.420019 20.72295 21.710554 23.886757 24.874352 27.089901 28.07749 31.56904 35.060596 36.048187 38.224403 40.518597 41.506195 43.214821 45.509022 46.496613 48.790821 49.79414 51.887325 55.378876 57.552902 59.016823 60.541908 62.844841"
         y="138.25185"
         sodipodi:role="line"
         id="tspan1292">pero ≤ 5 mm en su diámetro</tspan>
      <tspan
         style="stroke-width:0.22959593"
         x="12.426696 15.918246 18.011429 19.990995 22.293928 23.819027"
         y="143.49571"
         sodipodi:role="line"
         id="tspan1294">mayor.</tspan>
      <tspan
         style="stroke-width:0.22959593"
         x="12.426696 14.602908 15.590503 17.718651 19.934185 22.22838 23.215984 25.348492 26.349197 27.336794 28.800711 31.094904 34.586456 36.8894 38.414486 39.402092 42.893642 43.894348 46.188545 48.36475 49.352356 51.528561 52.516151 54.731697 55.719292 59.210846 62.702385"
         y="148.73962"
         sodipodi:role="line"
         id="tspan1296">• T1b El tumor mide ˃ 5 mm</tspan>
      <tspan
         style="stroke-width:0.22959593"
         x="12.426696 14.720891 16.894922 18.420019 20.72295 21.710554 23.886757 24.874352 27.089901 28.07749 29.925962 33.417515 34.405113 36.581326 38.875519 39.863117 41.571743 43.86594 44.853535 47.147732 48.148438 50.241619 53.733181 55.909386 57.373299 58.898399 61.201332"
         y="153.98347"
         sodipodi:role="line"
         id="tspan1298">pero ≤ 1 cm en su diámetro</tspan>
      <tspan
         style="stroke-width:0.22959593"
         x="12.426696 15.918246 18.011429 19.990995 22.293928 23.819027"
         y="159.22736"
         sodipodi:role="line"
         id="tspan1300">mayor.</tspan>
      <tspan
         style="stroke-width:0.22959593"
         x="12.426696 14.602908 15.590503 17.718651 19.934185 21.782654 22.770248 24.902763 25.903473 26.891068 28.354982 30.649179 34.140728 36.443665 37.968758 38.956356 42.447906 43.448612 45.742809 47.91684 48.904438 51.08065 52.068241 54.283779 55.271385 57.119843 60.611397"
         y="164.47124"
         sodipodi:role="line"
         id="tspan1302">• T1c El tumor mide ˃ 1 cm</tspan>
      <tspan
         style="stroke-width:0.22959593"
         x="12.426696 14.720891 16.894922 18.420019 20.72295 21.710554 23.886757 24.874352 27.089901 28.07749 29.925962 33.417515 34.405113 36.581326 38.875519 39.863117 41.571743 43.86594 44.853535 47.147732 48.148438 50.241619 53.733181 55.909386 57.373299 58.898399 61.201332"
         y="169.71512"
         sodipodi:role="line"
         id="tspan1304">pero ≤ 2 cm en su diámetro</tspan>
      <tspan
         style="stroke-width:0.22959593"
         x="12.426696 15.918246 18.011429 19.990995 22.293928 23.819027"
         y="174.959"
         sodipodi:role="line"
         id="tspan1306">mayor.</tspan>
      <tspan
         style="stroke-width:0.22959593"
         x="12.426696 14.602908 15.590503 17.718651 19.934185 21.105322 22.092916 24.221062 26.515259 30.0068 32.309738 33.834839 34.822437 36.99865 39.292843 40.280437 41.281147 43.374329 44.361927 47.853477 49.946659 53.43821 55.531395"
         y="180.20288"
         sodipodi:role="line"
         id="tspan1308">• T2: Tumor en la mama</tspan>
      <tspan
         style="stroke-width:0.22959593"
         x="12.426696 15.918246 16.918955 19.21315 21.389364 22.376959 24.553173 26.768707 27.7563 29.604773 33.096321 34.08392 36.378117 38.554329 40.079426 42.382359 43.369965 45.546165 46.53376 48.749302 49.7369 51.585369 55.07692 56.064514 58.238548 60.532745"
         y="185.44676"
         sodipodi:role="line"
         id="tspan1310">mide ˃2 cm pero ≤ 5 cm en</tspan>
      <tspan
         style="stroke-width:0.22959593"
         x="12.426696 14.135333 16.429529 17.417126 19.711321 20.71203 22.805214 26.296764 28.472967 29.936884 31.461977 33.764923 34.752522 38.244068 40.33725 42.316807 44.619751 46.144848"
         y="190.69064"
         sodipodi:role="line"
         id="tspan1312">su diámetro mayor.</tspan>
      <tspan
         style="stroke-width:0.22959593"
         x="12.426696 14.602908 15.590503 17.718651 19.934185 21.105322 22.092916 24.221062 26.515259 30.0068 32.309738 33.834839 34.822437 36.99865 39.292843 40.280437 41.281147 43.374329 44.361927 47.853477 49.946659 53.43821 55.531395 56.51899 58.693008 60.401642"
         y="195.93452"
         sodipodi:role="line"
         id="tspan1314">• T3: Tumor en la mama es</tspan>
      <tspan
         style="stroke-width:0.22959593"
         x="12.426696 15.918246 18.011429 19.990995 22.293928 23.819027 24.806622 27.100815 29.274843 30.262442 32.477985 33.46558 35.314053 38.805603"
         y="201.17841"
         sodipodi:role="line"
         id="tspan1316">mayor de 5 cm.</tspan>
      <tspan
         style="stroke-width:0.22959593"
         x="12.426696 14.602908 15.590503 17.718651 19.934185 21.105322 22.092916 24.221062 26.515259 30.0068 32.309738 33.834839 34.822437 37.116631 39.292843 40.280437 42.128899 44.423103 46.516289 47.516991 49.811192 52.105389 53.106102 55.282303 56.807396"
         y="206.42229"
         sodipodi:role="line"
         id="tspan1318">• T4: Tumor de cualquier</tspan>
      <tspan
         style="stroke-width:0.22959593"
         x="12.426696 13.890611 15.983794 19.475346 21.568527 23.862724 26.165665 27.255957 28.243551 30.537748 32.831947 35.005966 35.993568 37.702202 39.876217 40.863823 43.15802 45.251202 46.238796 48.412823 50.304989 51.768902 53.942932 56.237129 58.531319 59.532036 61.826225 64.129158"
         y="211.66612"
         sodipodi:role="line"
         id="tspan1320">tamaño, que se ha extendido</tspan>
      <tspan
         style="stroke-width:0.22959593"
         x="12.426696 14.519877 15.507483 17.80168 19.894852 21.419949 23.596161 25.890358 26.877956 28.341867 30.644812 32.169907 34.263092 36.111553 37.112263 38.960724 41.053905 42.041512 44.344444 45.332039 47.425224 48.412823 50.707024 51.707722 53.881748 54.882458"
         y="216.91005"
         sodipodi:role="line"
         id="tspan1322">a pared torácica o a piel.</tspan>
      <tspan
         style="stroke-width:0.22959593"
         x="12.426696 14.602908 15.590503 17.718651 19.934185 22.027367 23.198502 24.186096 26.318604 28.210772 29.674688 31.850901 34.145096 35.853729 36.854435 39.157379 41.451572 42.439171 44.532352 45.519951 46.520657 48.613838 49.601437 51.89563 53.988811 55.513908 57.687927 59.982124"
         y="222.15388"
         sodipodi:role="line"
         id="tspan1324">• T4a: Extensión a la pared</tspan>
      <tspan
         style="stroke-width:0.22959593"
         x="12.426696 13.890611 16.193554 17.718651 19.811834 21.660294 22.661003 24.509472 26.602657"
         y="227.39777"
         sodipodi:role="line"
         id="tspan1326">torácica.</tspan>
      <tspan
         style="stroke-width:0.22959593"
         x="12.426696 14.602908 15.590503 17.718651 19.934185 22.22838 23.399517 24.387112 26.519627 28.411798 29.875711 32.051914 34.346111 36.054741 37.05545 39.358395 41.652588 42.640186 44.733368 45.720959 46.721672 48.814854 49.802448 52.096645 53.097351 55.271385 56.272079"
         y="232.64165"
         sodipodi:role="line"
         id="tspan1328">• T4b: Extensión a la piel.</tspan>
      <tspan
         style="stroke-width:0.22959593"
         x="12.426696 14.602908 15.590503 17.718651 19.934185 21.782654 22.951597 23.939201 26.071709 27.963873 29.427794 31.60182 33.896019 35.604649 36.605354 38.908291 41.202484 42.190083 44.283264 45.27087 47.565063 48.565773 50.741978 51.742683 52.730282 54.709846"
         y="237.88553"
         sodipodi:role="line"
         id="tspan1330">• T4c: Extensión a piel y</tspan>
      <tspan
         style="stroke-width:0.22959593"
         x="12.426696 14.720891 16.814075 18.33917 20.513199 22.807398 23.794991 25.258911 27.56185 29.086939 31.180117 33.028591 34.029301 35.877762 37.970943"
         y="243.12941"
         sodipodi:role="line"
         id="tspan1332">pared torácica.</tspan>
      <tspan
         style="stroke-width:0.22959593"
         x="12.426696 14.602908 15.590503 17.718651 19.934185 22.22838 23.399517 24.387112 26.716274 28.809454 30.334539 32.183014 33.18372 35.477917 37.780849 41.272411 43.365582 44.35318 45.454399 47.748596 50.060272 52.153454 55.645012 57.73819 59.20211"
         y="248.37329"
         sodipodi:role="line"
         id="tspan1334">• T4d: Carcinoma Inﬂamato</tspan>
    </text>
    <text
       y="248.37329"
       x="61.505035"
       transform="scale(1.00419,0.99582748)"
       style="font-variant:normal;font-weight:normal;font-stretch:normal;font-size:4.3698988px;font-family:Calibri;-inkscape-font-specification:Calibri;writing-mode:lr-tb;fill:#333333;fill-opacity:1;fill-rule:nonzero;stroke:none;stroke-width:0.22959593"
       id="text1340">
      <tspan
         style="stroke-width:0.22959593"
         x="61.505035"
         y="248.37329"
         id="tspan1338">-</tspan>
    </text>
    <text
       y="253.6172"
       x="12.426696"
       transform="scale(1.00419,0.99582748)"
       style="font-variant:normal;font-weight:normal;font-stretch:normal;font-size:4.3698988px;font-family:Calibri;-inkscape-font-specification:Calibri;writing-mode:lr-tb;fill:#333333;fill-opacity:1;fill-rule:nonzero;stroke:none;stroke-width:0.22959593"
       id="text1350">
      <tspan
         style="stroke-width:0.22959593"
         x="12.426696 13.951791 14.955123 17.258055 18.359276"
         y="253.6172"
         sodipodi:role="line"
         id="tspan1342">rio.</tspan>
      <tspan
         style="stroke-width:0.22959593"
         x="75.969398 78.145607 79.133202 81.953972 83.846138 85.017281 86.004875 88.825638 91.128586 92.116165 93.824791 96.001015 96.988602 99.282814 101.57701 103.87122 106.17413 107.16174 109.33576 111.31095 113.40414 114.40482 116.69902 118.79222 120.31731 121.30491 122.30824 124.61115 126.3198"
         y="64.837547"
         sodipodi:role="line"
         id="tspan1344">• Nx: No se pudo evaluar los</tspan>
      <tspan
         style="stroke-width:0.22959593"
         x="75.969398 78.027618 80.120804 82.415001 84.473221 85.473938 86.477249 88.780197 90.488823 91.476425 92.477119 93.477837 95.772026 97.104851 99.198021 101.63206 103.48053 105.78345 107.4921"
         y="70.081421"
         sodipodi:role="line"
         id="tspan1346">ganglios linfátcos.</tspan>
      <tspan
         style="stroke-width:0.22959593"
         x="75.969398 78.145607 79.133202 81.953972 84.16951 85.338463 86.32605 88.331841 89.332542 91.62674 92.614334 96.105896 98.279915 99.743835 101.83701 103.54565 105.00956 107.10275 108.81137 109.81208 111.52071 112.50832 114.68232 116.97652 117.96413 120.02235 122.11553"
         y="75.325302"
         sodipodi:role="line"
         id="tspan1348">• N0: Sin metástasis en gan</tspan>
    </text>
    <text
       y="75.325302"
       x="124.40975"
       transform="scale(1.00419,0.99582748)"
       style="font-variant:normal;font-weight:normal;font-stretch:normal;font-size:4.3698988px;font-family:Calibri;-inkscape-font-specification:Calibri;writing-mode:lr-tb;fill:#333333;fill-opacity:1;fill-rule:nonzero;stroke:none;stroke-width:0.22959593"
       id="text1354">
      <tspan
         style="stroke-width:0.22959593"
         x="124.40975"
         y="75.325302"
         id="tspan1352">-</tspan>
    </text>
    <text
       y="80.569183"
       x="75.969398"
       transform="scale(1.00419,0.99582748)"
       style="font-variant:normal;font-weight:normal;font-stretch:normal;font-size:4.3698988px;font-family:Calibri;-inkscape-font-specification:Calibri;writing-mode:lr-tb;fill:#333333;fill-opacity:1;fill-rule:nonzero;stroke:none;stroke-width:0.22959593"
       id="text1370">
      <tspan
         style="stroke-width:0.22959593"
         x="75.969398 78.027626 79.028336 80.029037 82.331985 84.040604 85.028214 86.028908 87.029625 89.323807 90.656631 92.749809 95.183846 97.03231 99.335251 101.04388 102.03149 104.33441 105.32201 106.32272 108.62567 110.33429 111.32189 113.3801 115.47329 117.76749 119.82569 120.82642 121.82714 124.13006 125.83868"
         y="80.569183"
         sodipodi:role="line"
         id="tspan1356">glios linfátcos o los ganglios</tspan>
      <tspan
         style="stroke-width:0.22959593"
         x="75.969398 76.970108 77.970825 80.265022 81.597832 83.691017 86.125046 87.973518 90.276443 91.985069 92.972672 95.266876 96.791969 98.965996 100.67464 102.85083 105.14503 106.60896 108.70213 110.9963 111.98394 114.07711 115.6022 117.77622 119.86939 121.57804 122.56564 124.85984 127.03605"
         y="85.813042"
         sodipodi:role="line"
         id="tspan1358">linfátcos presentan áreas de</tspan>
      <tspan
         style="stroke-width:0.22959593"
         x="75.969398 77.817856 79.911064 82.205238 84.053711 86.227737 87.752831 88.740425 89.743759 92.037956 93.370773 95.546982 97.072083 98.072792 100.37572 101.90081 104.07703 105.78565 106.77325 108.86644 109.85403 110.85735 113.16029 114.86892 115.85653 118.07206 119.17329 121.3888"
         y="91.056946"
         sodipodi:role="line"
         id="tspan1360">cáncer inferiores a los 0.2</tspan>
      <tspan
         style="stroke-width:0.22959593"
         x="75.969398 79.460953 82.952499"
         y="96.300804"
         sodipodi:role="line"
         id="tspan1362">mm.</tspan>
      <tspan
         style="stroke-width:0.22959593"
         x="75.969398 78.145607 79.133217 81.953972 84.16951 85.338463 86.326065 88.500099 90.392258 91.856163 94.03019 96.324387 98.03302 99.03373 101.33665 103.63086 104.61846 106.71163 107.69923 109.75746 111.85065 114.14484 116.20306 117.20377 118.20446 120.50739 122.21604"
         y="101.54469"
         sodipodi:role="line"
         id="tspan1364">• N1: extensión a ganglios</tspan>
      <tspan
         style="stroke-width:0.22959593"
         x="75.969398 76.970108 77.970825 80.265022 81.597832 83.691017 86.125046 87.973518 90.276443 91.985069 92.972672 95.14888 97.443069 98.430679 99.431396 101.52457 102.51218 104.60535 106.49751 107.49822 108.49893 110.59211 111.5797 112.90379 115.19801 117.37201 118.35963 120.57513 121.56274 123.65594 124.64352 126.85906"
         y="106.78857"
         sodipodi:role="line"
         id="tspan1366">linfátcos en la axila (de 1 a 3</tspan>
      <tspan
         style="stroke-width:0.22959593"
         x="75.969398 78.027626 80.120804 82.415001 84.473228 85.473938 86.477249 88.780197 90.488823 91.812904 92.800507 95.103439 96.091026 98.184219 99.171806 101.23004 103.32322 105.61742 107.67564 108.67635 109.67704 111.98 113.68862 114.67622 115.67693 116.67762 118.97181 120.30465 122.39783"
         y="112.03244"
         sodipodi:role="line"
         id="tspan1368">ganglios) o a ganglios linfát</tspan>
    </text>
    <text
       y="112.03244"
       x="124.83184"
       transform="scale(1.00419,0.99582748)"
       style="font-variant:normal;font-weight:normal;font-stretch:normal;font-size:4.3698988px;font-family:Calibri;-inkscape-font-specification:Calibri;writing-mode:lr-tb;fill:#333333;fill-opacity:1;fill-rule:nonzero;stroke:none;stroke-width:0.22959593"
       id="text1374">
      <tspan
         style="stroke-width:0.22959593"
         x="124.83184"
         y="112.03244"
         id="tspan1372">-</tspan>
    </text>
    <text
       y="117.27634"
       x="75.969398"
       transform="scale(1.00419,0.99582748)"
       style="font-variant:normal;font-weight:normal;font-stretch:normal;font-size:4.3698988px;font-family:Calibri;-inkscape-font-specification:Calibri;writing-mode:lr-tb;fill:#333333;fill-opacity:1;fill-rule:nonzero;stroke:none;stroke-width:0.22959593"
       id="text1378">
      <tspan
         style="stroke-width:0.22959593"
         x="75.969398 77.817856 80.120804 81.829445 82.817039 84.525673 85.526367 86.990295 89.284492 91.37767 93.67186 95.974792 97.683426 98.671036 100.51949 102.69352 104.21862 106.06709 108.16027 109.14785 111.44206 113.6161 114.61678 115.60436 117.7784 119.48704 120.95095 123.12498"
         y="117.27634"
         sodipodi:role="line"
         id="tspan1376">cos situados cerca del ester</tspan>
    </text>
    <text
       y="117.27634"
       x="124.65005"
       transform="scale(1.00419,0.99582748)"
       style="font-variant:normal;font-weight:normal;font-stretch:normal;font-size:4.3698988px;font-family:Calibri;-inkscape-font-specification:Calibri;writing-mode:lr-tb;fill:#333333;fill-opacity:1;fill-rule:nonzero;stroke:none;stroke-width:0.22959593"
       id="text1382">
      <tspan
         style="stroke-width:0.22959593"
         x="124.65005"
         y="117.27634"
         id="tspan1380">-</tspan>
    </text>
    <text
       y="122.5202"
       x="75.969398"
       transform="scale(1.00419,0.99582748)"
       style="font-variant:normal;font-weight:normal;font-stretch:normal;font-size:4.3698988px;font-family:Calibri;-inkscape-font-specification:Calibri;writing-mode:lr-tb;fill:#333333;fill-opacity:1;fill-rule:nonzero;stroke:none;stroke-width:0.22959593"
       id="text1386">
      <tspan
         style="stroke-width:0.22959593"
         x="75.969398 78.263603 80.566544 82.860741 83.848335 85.172417 87.020882 89.114059 91.408257 93.584465 95.878662 97.97184 98.959435 102.45098 104.54417 108.03572 110.12891 111.65399 112.65472 114.74789 115.7355 116.73616 119.03039 120.4943 122.67052"
         y="122.5202"
         sodipodi:role="line"
         id="tspan1384">nón (cadena mamaria inter</tspan>
    </text>
    <text
       y="122.5202"
       x="124.19559"
       transform="scale(1.00419,0.99582748)"
       style="font-variant:normal;font-weight:normal;font-stretch:normal;font-size:4.3698988px;font-family:Calibri;-inkscape-font-specification:Calibri;writing-mode:lr-tb;fill:#333333;fill-opacity:1;fill-rule:nonzero;stroke:none;stroke-width:0.22959593"
       id="text1390">
      <tspan
         style="stroke-width:0.22959593"
         x="124.19559"
         y="122.5202"
         id="tspan1388">-</tspan>
    </text>
    <text
       y="127.76408"
       x="75.969398"
       transform="scale(1.00419,0.99582748)"
       style="font-variant:normal;font-weight:normal;font-stretch:normal;font-size:4.3698988px;font-family:Calibri;-inkscape-font-specification:Calibri;writing-mode:lr-tb;fill:#333333;fill-opacity:1;fill-rule:nonzero;stroke:none;stroke-width:0.22959593"
       id="text1406">
      <tspan
         style="stroke-width:0.22959593"
         x="75.969398 78.263603 80.356781 81.680862"
         y="127.76408"
         sodipodi:role="line"
         id="tspan1392">na).</tspan>
      <tspan
         style="stroke-width:0.22959593"
         x="75.969398 78.145607 79.133217 81.953972 84.16951 85.338463 86.326065 88.500099 90.392258 91.856163 94.03019 96.324387 98.03302 99.03373 101.33665 103.63086 104.61846 106.71163 107.69923 109.75746 111.85065 114.14484 116.20306 117.20377 118.20446 120.50739 122.21604"
         y="133.00797"
         sodipodi:role="line"
         id="tspan1394">• N2: extensión a ganglios</tspan>
      <tspan
         style="stroke-width:0.22959593"
         x="75.969398 76.970108 77.970825 80.265022 81.597832 83.691017 86.125046 87.973518 90.276443 91.985069 92.972672 95.14888 97.443069 98.430679 99.431396 101.52457 102.51218 104.60535 106.49751 107.49822 108.49893 110.59211 111.5797 112.90379 115.19801 117.37201 118.35963 120.57513 121.56274 123.65594 124.64352 126.85906"
         y="138.25185"
         sodipodi:role="line"
         id="tspan1396">linfátcos en la axila (de 4 a 9</tspan>
      <tspan
         style="stroke-width:0.22959593"
         x="75.969398 78.027626 80.120804 82.415001 84.473228 85.473938 86.477249 88.780197 90.488823 91.812904 92.800507 95.103439 96.091026 98.385246 99.385941 101.56216 103.85633 104.84394 106.93713 107.92474 109.98296 112.07613 114.37032 116.42854 117.42923 118.42995 120.7329 122.44154"
         y="143.49571"
         sodipodi:role="line"
         id="tspan1398">ganglios) o bien a ganglios</tspan>
      <tspan
         style="stroke-width:0.22959593"
         x="75.969398 76.970108 77.970825 80.265022 81.597832 83.691017 86.125046 87.973518 90.276443 91.985069 92.972672 94.68129 95.682014 97.14592 99.440125 101.5333 103.8275 106.13044 107.83907 108.82668 110.67514 112.84917 114.37426 116.22272 118.31591 119.3035 121.59771 123.77174 124.77244"
         y="148.73962"
         sodipodi:role="line"
         id="tspan1400">linfátcos situados cerca del</tspan>
      <tspan
         style="stroke-width:0.22959593"
         x="75.969398 78.143425 79.852058 81.315971 83.492172 85.017281 87.31147 89.614403 91.9086 92.896194 94.220284 96.068741 98.161926 100.45613 102.63234 104.92654 107.01971 108.00732 111.49886 113.59204 117.0836 119.17678 120.70187 121.70257 123.79577"
         y="153.98347"
         sodipodi:role="line"
         id="tspan1402">esternón (cadena mamaria</tspan>
      <tspan
         style="stroke-width:0.22959593"
         x="75.969398 76.970108 79.264313 80.728226 82.904434 84.429535 86.723717 88.816902 90.140984 91.23127 92.218864 94.513062 96.68708 98.212181 100.51514 101.50272 103.79691 106.09986 107.08746 109.18064 110.16822 111.16893 113.47186 115.1805 116.16809 118.22633 120.31951"
         y="159.22736"
         sodipodi:role="line"
         id="tspan1404">interna), pero no a los gan</tspan>
    </text>
    <text
       y="159.22736"
       x="122.61369"
       transform="scale(1.00419,0.99582748)"
       style="font-variant:normal;font-weight:normal;font-stretch:normal;font-size:4.3698988px;font-family:Calibri;-inkscape-font-specification:Calibri;writing-mode:lr-tb;fill:#333333;fill-opacity:1;fill-rule:nonzero;stroke:none;stroke-width:0.22959593"
       id="text1410">
      <tspan
         style="stroke-width:0.22959593"
         x="122.61369"
         y="159.22736"
         id="tspan1408">-</tspan>
    </text>
    <text
       y="164.47124"
       x="75.969398"
       transform="scale(1.00419,0.99582748)"
       style="font-variant:normal;font-weight:normal;font-stretch:normal;font-size:4.3698988px;font-family:Calibri;-inkscape-font-specification:Calibri;writing-mode:lr-tb;fill:#333333;fill-opacity:1;fill-rule:nonzero;stroke:none;stroke-width:0.22959593"
       id="text1420">
      <tspan
         style="stroke-width:0.22959593"
         x="75.969398 78.027626 79.028336 80.029037 82.331985 84.040604 85.028214 86.028908 87.029625 89.323807 90.656631 92.749809 95.183846 97.03231 99.335251 101.04388 102.03149 104.12466 106.01682 107.01754 108.01824 110.11142 111.63652 113.81054 115.51917"
         y="164.47124"
         sodipodi:role="line"
         id="tspan1412">glios linfátcos axilares.</tspan>
      <tspan
         style="stroke-width:0.22959593"
         x="75.969398 78.145607 79.133217 81.953972 84.16951 85.338463 86.326065 88.500099 90.392258 91.856163 94.03019 96.324387 98.03302 99.03373 101.33665 103.63086 104.61846 106.71163 107.69923 109.75746 111.85065 114.14484 116.20306 117.20377 118.20446 120.50739 122.21604"
         y="169.71512"
         sodipodi:role="line"
         id="tspan1414">• N3: extensión a ganglios</tspan>
      <tspan
         style="stroke-width:0.22959593"
         x="75.969398 76.970108 77.970825 80.265022 81.597832 83.691017 86.125046 87.973518 90.276443 91.985069 92.972672 95.14888 97.443069 98.430679 99.431396 101.52457 102.51218 104.60535 106.49751 107.49822 108.49893 110.59211 111.5797 112.90379 115.11932 117.33485 118.32246 120.6254"
         y="174.959"
         sodipodi:role="line"
         id="tspan1416">linfátcos en la axila (10 o</tspan>
      <tspan
         style="stroke-width:0.22959593"
         x="75.969398 79.460953 81.554138 83.262756 84.586845 85.75798 86.745567 89.048508 90.03611 92.330299 93.331017 95.50502 97.799232 98.786819 100.84504 102.93824 105.23243 107.29065 108.29137 109.29208 111.59499 113.30363 114.29121 115.29193 116.29266 118.58685 119.91965 122.01283"
         y="180.20288"
         sodipodi:role="line"
         id="tspan1418">más); o bien ganglios linfát</tspan>
    </text>
    <text
       y="180.20288"
       x="124.44685"
       transform="scale(1.00419,0.99582748)"
       style="font-variant:normal;font-weight:normal;font-stretch:normal;font-size:4.3698988px;font-family:Calibri;-inkscape-font-specification:Calibri;writing-mode:lr-tb;fill:#333333;fill-opacity:1;fill-rule:nonzero;stroke:none;stroke-width:0.22959593"
       id="text1424">
      <tspan
         style="stroke-width:0.22959593"
         x="124.44685"
         y="180.20288"
         id="tspan1422">-</tspan>
    </text>
    <text
       y="185.44676"
       x="75.969398"
       transform="scale(1.00419,0.99582748)"
       style="font-variant:normal;font-weight:normal;font-stretch:normal;font-size:4.3698988px;font-family:Calibri;-inkscape-font-specification:Calibri;writing-mode:lr-tb;fill:#333333;fill-opacity:1;fill-rule:nonzero;stroke:none;stroke-width:0.22959593"
       id="text1434">
      <tspan
         style="stroke-width:0.22959593"
         x="75.969398 77.817856 80.120804 81.829445 82.817039 84.525673 85.526367 86.990295 89.284492 91.37767 93.67186 95.974792 97.683426 98.671036 100.96521 103.26815 104.79324 105.78088 108.07505 110.24908 112.54327 114.63645 115.68084 117.98378 118.9714 121.26559 123.4418 124.42939 125.43011 127.52329"
         y="185.44676"
         sodipodi:role="line"
         id="tspan1426">cos situados por debajo de la</tspan>
      <tspan
         style="stroke-width:0.22959593"
         x="75.969398 77.817856 78.818581 80.911766 82.886948 83.887665 85.73613 88.030327 89.031021 91.124207 92.111801 93.43589 94.436592 96.730797 98.063606 99.588699 101.68187 103.53035 104.53106 106.62424 108.59943 109.60015 111.44862 113.74281 114.74352 116.83669 118.36179 120.53584 122.24445 123.56853 124.55613 126.85906"
         y="190.69064"
         sodipodi:role="line"
         id="tspan1428">clavícula (infraclaviculares) o</tspan>
      <tspan
         style="stroke-width:0.22959593"
         x="75.969398 78.263603 80.566544 82.091629 83.079216 85.25325 87.547447 89.395912 90.399239 93.890793 95.983971 96.971573 99.265762 101.43978 102.42739 103.4281 105.52127 106.50887 108.35735 109.35804 111.45123 113.42643 114.42713 116.2756 118.56982 119.57049 121.66369"
         y="195.93452"
         sodipodi:role="line"
         id="tspan1430">por encima de la clavícula</tspan>
      <tspan
         style="stroke-width:0.22959593"
         x="75.969398 77.293488 79.002113 81.296318 83.590508 85.115608 87.208794 89.057251 90.057961 92.151131 94.126335 95.127029 96.975502 99.269707 100.2704 102.36359 103.88868 106.06271 107.77133 109.09542 110.26656 111.25415 113.55708 114.54469 116.60291 118.69609"
         y="201.17841"
         sodipodi:role="line"
         id="tspan1432">(supraclaviculares); o gan</tspan>
    </text>
    <text
       y="201.17841"
       x="120.99026"
       transform="scale(1.00419,0.99582748)"
       style="font-variant:normal;font-weight:normal;font-stretch:normal;font-size:4.3698988px;font-family:Calibri;-inkscape-font-specification:Calibri;writing-mode:lr-tb;fill:#333333;fill-opacity:1;fill-rule:nonzero;stroke:none;stroke-width:0.22959593"
       id="text1438">
      <tspan
         style="stroke-width:0.22959593"
         x="120.99026"
         y="201.17841"
         id="tspan1436">-</tspan>
    </text>
    <text
       y="206.42229"
       x="75.969398"
       transform="scale(1.00419,0.99582748)"
       style="font-variant:normal;font-weight:normal;font-stretch:normal;font-size:4.3698988px;font-family:Calibri;-inkscape-font-specification:Calibri;writing-mode:lr-tb;fill:#333333;fill-opacity:1;fill-rule:nonzero;stroke:none;stroke-width:0.22959593"
       id="text1456">
      <tspan
         style="stroke-width:0.22959593"
         x="75.969398 78.027626 79.028336 80.029037 82.331985 84.040604 85.028214 86.028908 87.029625 89.323807 90.656631 92.749809 95.183846 97.03231 99.335251 101.04388 102.03149 105.52303 107.61623 111.10775 113.20092 114.72604 115.72673 118.02967 119.7383"
         y="206.42229"
         sodipodi:role="line"
         id="tspan1440">glios linfátcos mamarios</tspan>
      <tspan
         style="stroke-width:0.22959593"
         x="75.969398 76.970108 79.264313 80.728226 82.904434 84.429535 86.723717 89.026665 90.735283 91.836502"
         y="211.66617"
         sodipodi:role="line"
         id="tspan1442">internos.</tspan>
      <tspan
         style="stroke-width:0.22959593"
         x="138.75612 140.93233 141.91994 145.65617 147.54834 148.71948 149.70708 152.52785 154.83078 155.81837 157.52701 159.70103 160.68863 162.98283 165.27702 167.45107 169.74525 171.92145 172.90903 175.08525 177.06046 179.15363 180.15434 182.44855 184.54172 186.06682"
         y="64.837547"
         sodipodi:role="line"
         id="tspan1444">• Mx: No se puede evaluar</tspan>
      <tspan
         style="stroke-width:0.22959593"
         x="138.75612 141.05032 142.05103 143.75966 145.93585 149.42741 150.42812 152.72231 154.81549 156.66396 157.66467 159.96761 162.26181 163.2494 165.34258 166.33017 168.62437 169.62508 171.33369 172.79764 174.89079 177.185 179.03346 180.03416 182.12733"
         y="70.081421"
         sodipodi:role="line"
         id="tspan1446">diseminación a distancia.</tspan>
      <tspan
         style="stroke-width:0.22959593"
         x="138.75612 140.93233 141.91994 145.65617 147.87172 149.04286 150.03044 152.03624 153.03696 155.33113 156.31876 158.49277 160.46797 161.46864 163.76285 165.93907 168.23326 170.08173 171.08244 173.17561 174.16319 176.01167 177.01237 178.01309 180.3073 181.30797 183.15646 185.24962 186.23724 188.54018"
         y="75.325302"
         sodipodi:role="line"
         id="tspan1448">• M0: Sin evidencia clínica o</tspan>
      <tspan
         style="stroke-width:0.22959593"
         x="138.75612 140.28122 142.37437 144.66858 145.6693 147.97224 148.97293 151.27586 153.33409 154.33479 156.18326 158.27644 159.26405 161.55824 163.73445 164.72206 167.01625 168.01694 169.72557 171.90179 175.39334 176.39406 178.68825 180.78142 182.62991 183.63058 185.93353 188.22772"
         y="80.569183"
         sodipodi:role="line"
         id="tspan1450">radiológica de diseminación</tspan>
      <tspan
         style="stroke-width:0.22959593"
         x="138.75612 140.8493 141.83688 144.13107 145.13179 146.84041 148.30435 150.39751 152.69173 154.54018 155.54089 157.63406"
         y="85.813065"
         sodipodi:role="line"
         id="tspan1452">a distancia.</tspan>
      <tspan
         style="stroke-width:0.22959593"
         x="138.75612 140.93233 141.91994 145.65617 147.87172 148.85933 150.1834 151.18411 153.36032 154.68439 155.85551 156.84312 158.84891 159.84961 162.1438 163.13142 165.30545 167.28062 168.28133 170.57552 172.75174 175.04593 176.89439 177.8951 179.98827 180.97588 182.82433 183.82506 184.82576 187.11996"
         y="91.056946"
         sodipodi:role="line"
         id="tspan1454">• M0 (i+): Sin evidencia clíni</tspan>
    </text>
    <text
       y="91.056946"
       x="188.12067"
       transform="scale(1.00419,0.99582748)"
       style="font-variant:normal;font-weight:normal;font-stretch:normal;font-size:4.3698988px;font-family:Calibri;-inkscape-font-specification:Calibri;writing-mode:lr-tb;fill:#333333;fill-opacity:1;fill-rule:nonzero;stroke:none;stroke-width:0.22959593"
       id="text1460">
      <tspan
         style="stroke-width:0.22959593"
         x="188.12067"
         y="91.056946"
         id="tspan1458">-</tspan>
    </text>
    <text
       y="96.300804"
       x="138.75612"
       transform="scale(1.00419,0.99582748)"
       style="font-variant:normal;font-weight:normal;font-stretch:normal;font-size:4.3698988px;font-family:Calibri;-inkscape-font-specification:Calibri;writing-mode:lr-tb;fill:#333333;fill-opacity:1;fill-rule:nonzero;stroke:none;stroke-width:0.22959593"
       id="text1464">
      <tspan
         style="stroke-width:0.22959593"
         x="138.75612 140.60458 142.69775 143.68535 145.98828 146.97591 148.50099 150.59416 152.88837 153.88908 156.192 157.19272 159.49565 161.55388 162.55458 164.40305 166.49623 167.48383 169.77802 171.95424 172.94183 175.23602 176.23672 177.94536 180.11937 183.61092 184.61163 186.90582"
         y="96.300804"
         sodipodi:role="line"
         id="tspan1462">ca o radiológica de disemina</tspan>
    </text>
    <text
       y="96.300804"
       x="188.99901"
       transform="scale(1.00419,0.99582748)"
       style="font-variant:normal;font-weight:normal;font-stretch:normal;font-size:4.3698988px;font-family:Calibri;-inkscape-font-specification:Calibri;writing-mode:lr-tb;fill:#333333;fill-opacity:1;fill-rule:nonzero;stroke:none;stroke-width:0.22959593"
       id="text1468">
      <tspan
         style="stroke-width:0.22959593"
         x="188.99901"
         y="96.300804"
         id="tspan1466">-</tspan>
    </text>
    <text
       y="101.54469"
       x="138.75612"
       transform="scale(1.00419,0.99582748)"
       style="font-variant:normal;font-weight:normal;font-stretch:normal;font-size:4.3698988px;font-family:Calibri;-inkscape-font-specification:Calibri;writing-mode:lr-tb;fill:#333333;fill-opacity:1;fill-rule:nonzero;stroke:none;stroke-width:0.22959593"
       id="text1474">
      <tspan
         style="stroke-width:0.22959593"
         x="138.75612 140.60458 141.60529 143.90822 146.20242 147.19 149.2832 150.2708 152.56499 153.56831 155.27695 156.74086 158.83406 161.12825 162.97672 163.97743 166.0706 167.17181 168.15941 169.99478 172.08795 173.07553 175.25175 177.22694 178.22765 180.52184 182.69803 184.99225 186.84073 187.84142 189.9346"
         y="101.54469"
         sodipodi:role="line"
         id="tspan1470">ción a distancia. La evidencia</tspan>
      <tspan
         style="stroke-width:0.22959593"
         x="138.75612 142.24767 143.24837 145.09683 146.62192 148.92487 150.63351 152.48196 154.78488 157.07909 158.0798 159.92827 162.02145 163.00905 165.30325 167.47945 168.46706 170.31552 172.48955 173.49026 175.78444 176.78514 178.87833 180.58694 181.57455 183.03847"
         y="106.78857"
         sodipodi:role="line"
         id="tspan1472">microscópica de células tu</tspan>
    </text>
    <text
       y="106.78857"
       x="185.33267"
       transform="scale(1.00419,0.99582748)"
       style="font-variant:normal;font-weight:normal;font-stretch:normal;font-size:4.3698988px;font-family:Calibri;-inkscape-font-specification:Calibri;writing-mode:lr-tb;fill:#333333;fill-opacity:1;fill-rule:nonzero;stroke:none;stroke-width:0.22959593"
       id="text1478">
      <tspan
         style="stroke-width:0.22959593"
         x="185.33267"
         y="106.78857"
         id="tspan1476">-</tspan>
    </text>
    <text
       y="112.03244"
       x="138.75612"
       transform="scale(1.00419,0.99582748)"
       style="font-variant:normal;font-weight:normal;font-stretch:normal;font-size:4.3698988px;font-family:Calibri;-inkscape-font-specification:Calibri;writing-mode:lr-tb;fill:#333333;fill-opacity:1;fill-rule:nonzero;stroke:none;stroke-width:0.22959593"
       id="text1490">
      <tspan
         style="stroke-width:0.22959593"
         x="138.75612 142.24767 144.5506 146.07568 148.16888 149.16959 151.34579 153.05441 154.04202 155.75064 157.92686 158.91444 161.09067 163.38486 165.23332 167.52753 169.70155 171.99574 173.45966 174.98476 177.07794 178.06552 180.24173 182.53592 183.52354 184.52423 186.61742"
         y="112.03244"
         sodipodi:role="line"
         id="tspan1480">morales se encuentra en la</tspan>
      <tspan
         style="stroke-width:0.22959593"
         x="138.75612 140.46474 142.55792 144.85213 146.91034 148.43544 150.60945 151.69974 152.68736 153.68806 155.78123 156.76883 160.26038 162.43658 164.73079 167.02499 168.02568 170.11887 171.10648 173.40939 175.11801 177.29207 179.38522 180.37285 182.66704"
         y="117.27634"
         sodipodi:role="line"
         id="tspan1482">sangre, la médula ósea u</tspan>
      <tspan
         style="stroke-width:0.22959593"
         x="138.75612 141.05907 142.52296 144.04805 146.351 148.05962 149.04721 151.10544 153.19861 155.49281 157.55104 158.55174 159.55244 161.85539 163.56404 164.55162 165.55234 166.55302 168.84723 170.18004 172.27322 174.70726 176.55573 178.85867 180.56729 181.55487 183.84908 186.14328 188.31731"
         y="122.5202"
         sodipodi:role="line"
         id="tspan1484">otros ganglios linfátcos que</tspan>
      <tspan
         style="stroke-width:0.22959593"
         x="138.75612 142.24767 143.24837 145.54257 147.63574 149.92995 150.91754 154.4091 156.50227 158.21091 159.1985 161.49269 163.66672 164.65431 166.86986 167.97107 170.1866 171.17421 174.66573 178.15729"
         y="127.76408"
         sodipodi:role="line"
         id="tspan1486">midan más de 0.2 mm.</tspan>
      <tspan
         style="stroke-width:0.22959593"
         x="138.75612 140.93231 141.91994 145.65617 147.87172 149.04285 150.03044 152.16295 154.13815 155.13885 157.43306 159.60927 161.90347 163.75194 164.75264 166.84581 167.83342 170.12761 172.30162 173.28923 176.78078 178.95699 180.42088 182.51408 184.22272 185.68663"
         y="133.00797"
         sodipodi:role="line"
         id="tspan1488">• M1: Evidencia de metásta</tspan>
    </text>
    <text
       y="133.00797"
       x="187.77982"
       transform="scale(1.00419,0.99582748)"
       style="font-variant:normal;font-weight:normal;font-stretch:normal;font-size:4.3698988px;font-family:Calibri;-inkscape-font-specification:Calibri;writing-mode:lr-tb;fill:#333333;fill-opacity:1;fill-rule:nonzero;stroke:none;stroke-width:0.22959593"
       id="text1494">
      <tspan
         style="stroke-width:0.22959593"
         x="187.77982"
         y="133.00797"
         id="tspan1492">-</tspan>
    </text>
    <text
       y="138.25185"
       x="138.75612"
       transform="scale(1.00419,0.99582748)"
       style="font-variant:normal;font-weight:normal;font-stretch:normal;font-size:4.3698988px;font-family:Calibri;-inkscape-font-specification:Calibri;writing-mode:lr-tb;fill:#333333;fill-opacity:1;fill-rule:nonzero;stroke:none;stroke-width:0.22959593"
       id="text1500">
      <tspan
         style="stroke-width:0.22959593"
         x="138.75612 140.46474 141.46545 143.17407 144.16165 146.25485 147.24245 149.53665 150.53737 152.24599 153.70992 155.80309 158.09727 159.94574 160.94908 163.04225"
         y="138.25185"
         sodipodi:role="line"
         id="tspan1496">sis a distancia.</tspan>
      <tspan
         style="stroke-width:0.22959593"
         x="138.75612 140.22003 142.39624 143.92134 146.21553 148.51848 150.22708 151.32831"
         y="143.49571"
         sodipodi:role="line"
         id="tspan1498">ternos.</tspan>
    </text>
  </g>
</svg>
