<?xml version="1.0" encoding="UTF-8" standalone="no"?>
<svg
   xmlns:dc="http://purl.org/dc/elements/1.1/"
   xmlns:cc="http://creativecommons.org/ns#"
   xmlns:rdf="http://www.w3.org/1999/02/22-rdf-syntax-ns#"
   xmlns:svg="http://www.w3.org/2000/svg"
   xmlns="http://www.w3.org/2000/svg"
   xmlns:sodipodi="http://sodipodi.sourceforge.net/DTD/sodipodi-0.dtd"
   xmlns:inkscape="http://www.inkscape.org/namespaces/inkscape"
   id="svg8514"
   version="1.1"
   viewBox="0 0 32.90974 24.82484"
   height="24.824841mm"
   width="32.90974mm"
   sodipodi:docname="infografia-1.svg"
   inkscape:version="0.92.5 (2060ec1f9f, 2020-04-08)">
  <sodipodi:namedview
     pagecolor="#ffffff"
     bordercolor="#666666"
     borderopacity="1"
     objecttolerance="10"
     gridtolerance="10"
     guidetolerance="10"
     inkscape:pageopacity="0"
     inkscape:pageshadow="2"
     inkscape:window-width="1366"
     inkscape:window-height="656"
     id="namedview9381"
     showgrid="false"
     showguides="true"
     inkscape:guide-bbox="true"
     inkscape:zoom="3.2097783"
     inkscape:cx="49.510861"
     inkscape:cy="47.456309"
     inkscape:window-x="0"
     inkscape:window-y="27"
     inkscape:window-maximized="1"
     inkscape:current-layer="svg8514" />
  <defs
     id="defs8508" />
  <metadata
     id="metadata8511">
    <rdf:RDF>
      <cc:Work
         rdf:about="">
        <dc:format>image/svg+xml</dc:format>
        <dc:type
           rdf:resource="http://purl.org/dc/dcmitype/StillImage" />
        <dc:title />
      </cc:Work>
    </rdf:RDF>
  </metadata>
  <g
     transform="translate(26.837681,-196.33995)"
     id="layer1">
    <path
       style="opacity:1;fill-opacity:1;stroke:none;stroke-width:0.66236454;stroke-linecap:round;stroke-linejoin:round;stroke-miterlimit:4;stroke-dasharray:none;stroke-opacity:1"
       d="M 46.912109 0 C 21.003447 0.00041574804 0.00043842521 21.003447 0 46.912109 C -0.00063874018 72.821527 21.002687 93.825718 46.912109 93.826172 C 79.500277 93.826966 109.38281 62.626403 124.38281 46.912109 C 124.38281 46.912109 77.714563 0 46.912109 0 z M 46.912109 7.5234375 C 68.666359 7.5230218 86.302073 25.157866 86.302734 46.912109 C 86.30315 68.667108 68.667119 86.30315 46.912109 86.302734 C 25.157859 86.302092 7.5230218 68.666353 7.5234375 46.912109 C 7.5240989 25.158622 25.158618 7.5241178 46.912109 7.5234375 z M 46.914062 12.837891 C 28.094978 12.837777 12.838843 28.093047 12.837891 46.912109 C 12.837766 65.731889 28.09426 80.988395 46.914062 80.988281 C 65.733097 80.987299 80.988406 65.731134 80.988281 46.912109 C 80.987329 28.093841 65.732333 12.838836 46.914062 12.837891 z M 49.417969 26.488281 L 52.638672 26.488281 L 52.638672 67.337891 L 47.642578 67.337891 L 47.642578 35.507812 C 46.440074 36.654816 44.859444 37.802215 42.898438 38.949219 C 40.955931 40.096222 39.206349 40.955795 37.652344 41.529297 L 37.652344 36.701172 C 40.445852 35.387668 42.888009 33.79624 44.978516 31.927734 C 47.069022 30.059229 48.548466 28.245787 49.417969 26.488281 z "
       transform="matrix(0.26458333,0,0,0.26458333,-26.837681,196.33995)"
       id="path9093" />
  </g>
</svg>
