<?xml version="1.0" encoding="UTF-8" standalone="no"?>
<svg
   xmlns:dc="http://purl.org/dc/elements/1.1/"
   xmlns:cc="http://creativecommons.org/ns#"
   xmlns:rdf="http://www.w3.org/1999/02/22-rdf-syntax-ns#"
   xmlns:svg="http://www.w3.org/2000/svg"
   xmlns="http://www.w3.org/2000/svg"
   xmlns:sodipodi="http://sodipodi.sourceforge.net/DTD/sodipodi-0.dtd"
   xmlns:inkscape="http://www.inkscape.org/namespaces/inkscape"
   id="svg8514"
   version="1.1"
   viewBox="0 0 32.90974 24.82484"
   height="24.824841mm"
   width="32.90974mm"
   sodipodi:docname="infografia-7.svg"
   inkscape:version="0.92.5 (2060ec1f9f, 2020-04-08)">
  <sodipodi:namedview
     pagecolor="#ffffff"
     bordercolor="#666666"
     borderopacity="1"
     objecttolerance="10"
     gridtolerance="10"
     guidetolerance="10"
     inkscape:pageopacity="0"
     inkscape:pageshadow="2"
     inkscape:window-width="1366"
     inkscape:window-height="656"
     id="namedview12701"
     showgrid="false"
     inkscape:zoom="4.5393119"
     inkscape:cx="101.95537"
     inkscape:cy="46.913084"
     inkscape:window-x="0"
     inkscape:window-y="27"
     inkscape:window-maximized="1"
     inkscape:current-layer="svg8514" />
  <defs
     id="defs8508" />
  <metadata
     id="metadata8511">
    <rdf:RDF>
      <cc:Work
         rdf:about="">
        <dc:format>image/svg+xml</dc:format>
        <dc:type
           rdf:resource="http://purl.org/dc/dcmitype/StillImage" />
        <dc:title />
      </cc:Work>
    </rdf:RDF>
  </metadata>
  <g
     transform="translate(26.837681,-196.33995)"
     id="layer1">
    <path
       style="opacity:1;fill-opacity:1;stroke:none;stroke-width:0.66236454;stroke-linecap:round;stroke-linejoin:round;stroke-miterlimit:4;stroke-dasharray:none;stroke-opacity:1"
       d="M 46.912109 0 C 21.003447 0.00041574804 0.00043842521 21.003447 0 46.912109 C -0.00063874018 72.821527 21.002687 93.825718 46.912109 93.826172 C 79.500277 93.826966 109.38281 62.626403 124.38281 46.912109 C 124.38281 46.912109 77.714563 0 46.912109 0 z M 46.912109 7.5234375 C 68.666359 7.5230218 86.302073 25.157866 86.302734 46.912109 C 86.30315 68.667108 68.667119 86.30315 46.912109 86.302734 C 25.157859 86.302092 7.5230218 68.666353 7.5234375 46.912109 C 7.5240989 25.158622 25.158618 7.5241178 46.912109 7.5234375 z M 46.914062 12.837891 C 28.094978 12.837777 12.838843 28.093047 12.837891 46.912109 C 12.837766 65.731889 28.09426 80.988395 46.914062 80.988281 C 65.733097 80.987299 80.988406 65.731134 80.988281 46.912109 C 80.987329 28.093841 65.732333 12.838836 46.914062 12.837891 z M 34.15625 27.183594 L 60.490234 27.183594 L 60.490234 31.068359 C 57.900226 33.824868 55.330352 37.487126 52.777344 42.056641 C 50.242836 46.626155 48.282036 51.325782 46.894531 56.154297 C 45.895528 59.558307 45.256016 63.286378 44.978516 67.337891 L 39.845703 67.337891 C 39.901203 64.137381 40.529918 60.270795 41.732422 55.738281 C 42.934926 51.205767 44.656024 46.838185 46.894531 42.638672 C 49.151538 38.420659 51.54557 34.870384 54.080078 31.984375 L 34.15625 31.984375 L 34.15625 27.183594 z "
       transform="matrix(0.26458333,0,0,0.26458333,-26.837681,196.33995)"
       id="path9093" />
  </g>
</svg>
