<?xml version="1.0" encoding="UTF-8" standalone="no"?>
<svg
   xmlns:dc="http://purl.org/dc/elements/1.1/"
   xmlns:cc="http://creativecommons.org/ns#"
   xmlns:rdf="http://www.w3.org/1999/02/22-rdf-syntax-ns#"
   xmlns:svg="http://www.w3.org/2000/svg"
   xmlns="http://www.w3.org/2000/svg"
   xmlns:sodipodi="http://sodipodi.sourceforge.net/DTD/sodipodi-0.dtd"
   xmlns:inkscape="http://www.inkscape.org/namespaces/inkscape"
   id="svg8514"
   version="1.1"
   viewBox="0 0 32.90974 24.82484"
   height="24.824841mm"
   width="32.90974mm"
   sodipodi:docname="infografia-8.svg"
   inkscape:version="0.92.5 (2060ec1f9f, 2020-04-08)">
  <sodipodi:namedview
     pagecolor="#ffffff"
     bordercolor="#666666"
     borderopacity="1"
     objecttolerance="10"
     gridtolerance="10"
     guidetolerance="10"
     inkscape:pageopacity="0"
     inkscape:pageshadow="2"
     inkscape:window-width="742"
     inkscape:window-height="480"
     id="namedview16957"
     showgrid="false"
     inkscape:zoom="2.5152897"
     inkscape:cx="62.191635"
     inkscape:cy="46.913084"
     inkscape:window-x="0"
     inkscape:window-y="27"
     inkscape:window-maximized="0"
     inkscape:current-layer="svg8514" />
  <defs
     id="defs8508" />
  <metadata
     id="metadata8511">
    <rdf:RDF>
      <cc:Work
         rdf:about="">
        <dc:format>image/svg+xml</dc:format>
        <dc:type
           rdf:resource="http://purl.org/dc/dcmitype/StillImage" />
        <dc:title />
      </cc:Work>
    </rdf:RDF>
  </metadata>
  <g
     transform="translate(26.837681,-196.33995)"
     id="layer1">
    <path
       style="opacity:1;fill-opacity:1;stroke:none;stroke-width:0.66236454;stroke-linecap:round;stroke-linejoin:round;stroke-miterlimit:4;stroke-dasharray:none;stroke-opacity:1"
       d="M 46.912109 0 C 21.003447 0.00041574804 0.00043842521 21.003447 0 46.912109 C -0.00063874018 72.821527 21.002687 93.825718 46.912109 93.826172 C 79.500277 93.826966 109.38281 62.626403 124.38281 46.912109 C 124.38281 46.912109 77.714563 0 46.912109 0 z M 46.912109 7.5234375 C 68.666359 7.5230218 86.302073 25.157866 86.302734 46.912109 C 86.30315 68.667108 68.667119 86.30315 46.912109 86.302734 C 25.157859 86.302092 7.5230218 68.666353 7.5234375 46.912109 C 7.5240989 25.158622 25.158618 7.5241178 46.912109 7.5234375 z M 46.914062 12.837891 C 28.094978 12.837777 12.838843 28.093047 12.837891 46.912109 C 12.837766 65.731889 28.09426 80.988395 46.914062 80.988281 C 65.733097 80.987299 80.988406 65.731134 80.988281 46.912109 C 80.987329 28.093841 65.732333 12.838836 46.914062 12.837891 z M 47.087891 26.488281 C 50.639902 26.488281 53.497603 27.52565 55.662109 29.597656 C 57.826616 31.651163 58.910156 34.157178 58.910156 37.117188 C 58.910156 39.004193 58.409159 40.650636 57.410156 42.056641 C 56.429653 43.444145 54.932522 44.516888 52.916016 45.275391 C 55.413523 46.089393 57.308512 47.403791 58.603516 49.216797 C 59.91702 51.029802 60.574219 53.192977 60.574219 55.708984 C 60.574219 59.186995 59.34332 62.110508 56.882812 64.478516 C 54.422305 66.846523 51.186387 68.03125 47.171875 68.03125 C 43.157363 68.03125 39.919492 66.846523 37.458984 64.478516 C 34.998477 62.092008 33.767578 59.122324 33.767578 55.570312 C 33.767578 52.924804 34.433621 50.715459 35.765625 48.939453 C 37.116129 47.144948 39.030758 45.922893 41.509766 45.275391 C 39.437759 44.516888 37.9033 43.435301 36.904297 42.029297 C 35.905294 40.623293 35.404297 38.939522 35.404297 36.978516 C 35.404297 34.018506 36.468197 31.530178 38.595703 29.513672 C 40.72321 27.497166 43.55438 26.488281 47.087891 26.488281 z M 47.142578 30.595703 C 45.237072 30.595703 43.656441 31.206731 42.398438 32.427734 C 41.140434 33.648738 40.511719 35.110495 40.511719 36.8125 C 40.511719 38.736506 41.13159 40.308293 42.371094 41.529297 C 43.610598 42.750301 45.219713 43.361328 47.199219 43.361328 C 49.123225 43.361328 50.695012 42.759144 51.916016 41.556641 C 53.155519 40.335637 53.775391 38.847349 53.775391 37.089844 C 53.775391 35.258338 53.137832 33.721926 51.861328 32.482422 C 50.603324 31.224418 49.029584 30.595703 47.142578 30.595703 z M 47.060547 47.439453 C 44.71104 47.439453 42.759083 48.21748 41.205078 49.771484 C 39.669573 51.325489 38.902344 53.268602 38.902344 55.599609 C 38.902344 57.024114 39.234389 58.402371 39.900391 59.734375 C 40.584893 61.066379 41.593777 62.101795 42.925781 62.841797 C 44.257785 63.563299 45.691058 63.923828 47.226562 63.923828 C 49.61307 63.923828 51.582714 63.156599 53.136719 61.621094 C 54.690724 60.085589 55.46875 58.133632 55.46875 55.765625 C 55.46875 53.360618 54.664192 51.371333 53.054688 49.798828 C 51.463683 48.226323 49.465554 47.439453 47.060547 47.439453 z "
       transform="matrix(0.26458333,0,0,0.26458333,-26.837681,196.33995)"
       id="path9093" />
  </g>
</svg>
