<?xml version="1.0" encoding="UTF-8" standalone="no"?>
<svg
   xmlns:dc="http://purl.org/dc/elements/1.1/"
   xmlns:cc="http://creativecommons.org/ns#"
   xmlns:rdf="http://www.w3.org/1999/02/22-rdf-syntax-ns#"
   xmlns:svg="http://www.w3.org/2000/svg"
   xmlns="http://www.w3.org/2000/svg"
   xmlns:sodipodi="http://sodipodi.sourceforge.net/DTD/sodipodi-0.dtd"
   xmlns:inkscape="http://www.inkscape.org/namespaces/inkscape"
   id="svg8514"
   version="1.1"
   viewBox="0 0 32.90974 24.82484"
   height="24.824841mm"
   width="32.90974mm"
   sodipodi:docname="infografia-9.svg"
   inkscape:version="0.92.5 (2060ec1f9f, 2020-04-08)">
  <sodipodi:namedview
     pagecolor="#ffffff"
     bordercolor="#666666"
     borderopacity="1"
     objecttolerance="10"
     gridtolerance="10"
     guidetolerance="10"
     inkscape:pageopacity="0"
     inkscape:pageshadow="2"
     inkscape:window-width="742"
     inkscape:window-height="480"
     id="namedview17510"
     showgrid="false"
     inkscape:zoom="2.5152897"
     inkscape:cx="133.95275"
     inkscape:cy="46.913084"
     inkscape:window-x="0"
     inkscape:window-y="27"
     inkscape:window-maximized="0"
     inkscape:current-layer="svg8514" />
  <defs
     id="defs8508" />
  <metadata
     id="metadata8511">
    <rdf:RDF>
      <cc:Work
         rdf:about="">
        <dc:format>image/svg+xml</dc:format>
        <dc:type
           rdf:resource="http://purl.org/dc/dcmitype/StillImage" />
        <dc:title />
      </cc:Work>
    </rdf:RDF>
  </metadata>
  <g
     transform="translate(26.837681,-196.33995)"
     id="layer1">
    <path
       style="opacity:1;fill-opacity:1;stroke:none;stroke-width:0.66236454;stroke-linecap:round;stroke-linejoin:round;stroke-miterlimit:4;stroke-dasharray:none;stroke-opacity:1"
       d="M 46.912109 0 C 21.003447 0.00041574804 0.00043842521 21.003447 0 46.912109 C -0.00063874018 72.821527 21.002687 93.825718 46.912109 93.826172 C 79.500277 93.826966 109.38281 62.626403 124.38281 46.912109 C 124.38281 46.912109 77.714563 0 46.912109 0 z M 46.912109 7.5234375 C 68.666359 7.5230218 86.302073 25.157866 86.302734 46.912109 C 86.30315 68.667108 68.667119 86.30315 46.912109 86.302734 C 25.157859 86.302092 7.5230218 68.666353 7.5234375 46.912109 C 7.5240989 25.158622 25.158618 7.5241178 46.912109 7.5234375 z M 46.914062 12.837891 C 28.094978 12.837777 12.838843 28.093047 12.837891 46.912109 C 12.837766 65.731889 28.09426 80.988395 46.914062 80.988281 C 65.733097 80.987299 80.988406 65.731134 80.988281 46.912109 C 80.987329 28.093841 65.732333 12.838836 46.914062 12.837891 z M 46.615234 26.488281 C 49.260743 26.488281 51.676368 27.200496 53.859375 28.625 C 56.060882 30.049504 57.725012 32.084961 58.853516 34.730469 C 60.000519 37.357477 60.574219 41.169047 60.574219 46.164062 C 60.574219 51.362579 60.009363 55.506194 58.880859 58.595703 C 57.752356 61.666713 56.070538 64.007683 53.832031 65.617188 C 51.612024 67.226692 49.002869 68.03125 46.005859 68.03125 C 42.82385 68.03125 40.223538 67.152037 38.207031 65.394531 C 36.190525 63.618526 34.979267 61.130197 34.572266 57.929688 L 39.373047 57.486328 C 39.780048 59.743335 40.558075 61.380934 41.705078 62.398438 C 42.852082 63.415941 44.322682 63.923828 46.117188 63.923828 C 47.652692 63.923828 48.993621 63.572143 50.140625 62.869141 C 51.306129 62.166138 52.258045 61.23191 52.998047 60.066406 C 53.738049 58.882403 54.35792 57.290975 54.857422 55.292969 C 55.356923 53.294963 55.607422 51.26146 55.607422 49.189453 C 55.607422 48.967452 55.598578 48.633455 55.580078 48.189453 C 54.581075 49.780458 53.211662 51.075216 51.472656 52.074219 C 49.752151 53.054722 47.883694 53.544922 45.867188 53.544922 C 42.500177 53.544922 39.65132 52.32482 37.320312 49.882812 C 34.989305 47.440805 33.824219 44.220622 33.824219 40.224609 C 33.824219 36.099097 35.035477 32.77968 37.458984 30.263672 C 39.900992 27.747664 42.952223 26.488281 46.615234 26.488281 z M 47.226562 30.623047 C 45.006556 30.623047 43.074239 31.530744 41.427734 33.34375 C 39.781229 35.156756 38.957031 37.506569 38.957031 40.392578 C 38.957031 42.982586 39.733105 45.090745 41.287109 46.71875 C 42.859614 48.328255 44.793884 49.132812 47.087891 49.132812 C 49.400398 49.132812 51.297339 48.328255 52.777344 46.71875 C 54.275848 45.090745 55.023438 42.842118 55.023438 39.974609 C 55.023437 37.1071 54.256208 34.831943 52.720703 33.148438 C 51.203698 31.464932 49.372569 30.623047 47.226562 30.623047 z "
       transform="matrix(0.26458333,0,0,0.26458333,-26.837681,196.33995)"
       id="path9093" />
  </g>
</svg>
