<?xml version="1.0" encoding="UTF-8" standalone="no"?>
<svg
   xmlns:dc="http://purl.org/dc/elements/1.1/"
   xmlns:cc="http://creativecommons.org/ns#"
   xmlns:rdf="http://www.w3.org/1999/02/22-rdf-syntax-ns#"
   xmlns:svg="http://www.w3.org/2000/svg"
   xmlns="http://www.w3.org/2000/svg"
   xmlns:sodipodi="http://sodipodi.sourceforge.net/DTD/sodipodi-0.dtd"
   xmlns:inkscape="http://www.inkscape.org/namespaces/inkscape"
   id="svg8514"
   version="1.1"
   viewBox="0 0 32.90974 24.82484"
   height="24.824841mm"
   width="32.90974mm"
   sodipodi:docname="infografia-3.svg"
   inkscape:version="0.92.5 (2060ec1f9f, 2020-04-08)">
  <sodipodi:namedview
     pagecolor="#ffffff"
     bordercolor="#666666"
     borderopacity="1"
     objecttolerance="10"
     gridtolerance="10"
     guidetolerance="10"
     inkscape:pageopacity="0"
     inkscape:pageshadow="2"
     inkscape:window-width="1366"
     inkscape:window-height="656"
     id="namedview10489"
     showgrid="false"
     inkscape:zoom="4.5393119"
     inkscape:cx="62.191635"
     inkscape:cy="46.913084"
     inkscape:window-x="0"
     inkscape:window-y="27"
     inkscape:window-maximized="1"
     inkscape:current-layer="svg8514" />
  <defs
     id="defs8508" />
  <metadata
     id="metadata8511">
    <rdf:RDF>
      <cc:Work
         rdf:about="">
        <dc:format>image/svg+xml</dc:format>
        <dc:type
           rdf:resource="http://purl.org/dc/dcmitype/StillImage" />
        <dc:title />
      </cc:Work>
    </rdf:RDF>
  </metadata>
  <g
     transform="translate(26.837681,-196.33995)"
     id="layer1">
    <path
       style="opacity:1;fill-opacity:1;stroke:none;stroke-width:0.66236454;stroke-linecap:round;stroke-linejoin:round;stroke-miterlimit:4;stroke-dasharray:none;stroke-opacity:1"
       d="M 46.912109 0 C 21.003447 0.00041574804 0.00043842521 21.003447 0 46.912109 C -0.00063874018 72.821527 21.002687 93.825718 46.912109 93.826172 C 79.500277 93.826966 109.38281 62.626403 124.38281 46.912109 C 124.38281 46.912109 77.714563 0 46.912109 0 z M 46.912109 7.5234375 C 68.666359 7.5230218 86.302073 25.157866 86.302734 46.912109 C 86.30315 68.667108 68.667119 86.30315 46.912109 86.302734 C 25.157859 86.302092 7.5230218 68.666353 7.5234375 46.912109 C 7.5240989 25.158622 25.158618 7.5241178 46.912109 7.5234375 z M 46.914062 12.837891 C 28.094978 12.837777 12.838843 28.093047 12.837891 46.912109 C 12.837766 65.731889 28.09426 80.988395 46.914062 80.988281 C 65.733097 80.987299 80.988406 65.731134 80.988281 46.912109 C 80.987329 28.093841 65.732333 12.838836 46.914062 12.837891 z M 46.587891 26.488281 C 48.807898 26.488281 50.852197 26.969638 52.720703 27.931641 C 54.589209 28.875144 56.013638 30.169901 56.994141 31.816406 C 57.993144 33.462911 58.492188 35.212494 58.492188 37.0625 C 58.492187 38.820005 58.021628 40.420277 57.078125 41.863281 C 56.134622 43.306286 54.736724 44.451732 52.886719 45.302734 C 55.291726 45.857736 57.160183 47.013979 58.492188 48.771484 C 59.824192 50.51049 60.490234 52.695257 60.490234 55.322266 C 60.490234 58.874277 59.195477 61.88818 56.605469 64.367188 C 54.015461 66.827695 50.742215 68.058594 46.783203 68.058594 C 43.212692 68.058594 40.243007 66.994694 37.875 64.867188 C 35.525493 62.739681 34.184564 59.983167 33.851562 56.597656 L 38.845703 55.931641 C 39.419205 58.762149 40.390761 60.806449 41.759766 62.064453 C 43.14727 63.303957 44.831041 63.923828 46.810547 63.923828 C 49.160054 63.923828 51.138542 63.110427 52.748047 61.482422 C 54.376052 59.854417 55.191406 57.836648 55.191406 55.431641 C 55.191406 53.137634 54.441864 51.251489 52.943359 49.771484 C 51.444855 48.27298 49.53907 47.523437 47.226562 47.523438 C 46.28306 47.523438 45.109129 47.708124 43.703125 48.078125 L 44.257812 43.693359 C 44.590814 43.730359 44.858999 43.75 45.0625 43.75 C 47.190007 43.75 49.104635 43.193988 50.806641 42.083984 C 52.508646 40.973981 53.359375 39.263679 53.359375 36.951172 C 53.359375 35.119666 52.739504 33.602894 51.5 32.400391 C 50.260496 31.197887 48.660225 30.595703 46.699219 30.595703 C 44.756713 30.595703 43.138754 31.206731 41.84375 32.427734 C 40.548746 33.648738 39.715704 35.479867 39.345703 37.921875 L 34.349609 37.033203 C 34.960111 33.684693 36.349165 31.095178 38.513672 29.263672 C 40.678179 27.413666 43.368881 26.488281 46.587891 26.488281 z "
       transform="matrix(0.26458333,0,0,0.26458333,-26.837681,196.33995)"
       id="path9093" />
  </g>
</svg>
