<?xml version="1.0" encoding="UTF-8" standalone="no"?>
<svg
   xmlns:dc="http://purl.org/dc/elements/1.1/"
   xmlns:cc="http://creativecommons.org/ns#"
   xmlns:rdf="http://www.w3.org/1999/02/22-rdf-syntax-ns#"
   xmlns:svg="http://www.w3.org/2000/svg"
   xmlns="http://www.w3.org/2000/svg"
   xmlns:sodipodi="http://sodipodi.sourceforge.net/DTD/sodipodi-0.dtd"
   xmlns:inkscape="http://www.inkscape.org/namespaces/inkscape"
   id="svg8514"
   version="1.1"
   viewBox="0 0 32.90974 24.82484"
   height="24.824841mm"
   width="32.90974mm"
   sodipodi:docname="infografia-5.svg"
   inkscape:version="0.92.5 (2060ec1f9f, 2020-04-08)">
  <sodipodi:namedview
     pagecolor="#ffffff"
     bordercolor="#666666"
     borderopacity="1"
     objecttolerance="10"
     gridtolerance="10"
     guidetolerance="10"
     inkscape:pageopacity="0"
     inkscape:pageshadow="2"
     inkscape:window-width="1366"
     inkscape:window-height="656"
     id="namedview11595"
     showgrid="false"
     inkscape:zoom="4.5393119"
     inkscape:cx="62.191635"
     inkscape:cy="46.913084"
     inkscape:window-x="0"
     inkscape:window-y="27"
     inkscape:window-maximized="1"
     inkscape:current-layer="svg8514" />
  <defs
     id="defs8508" />
  <metadata
     id="metadata8511">
    <rdf:RDF>
      <cc:Work
         rdf:about="">
        <dc:format>image/svg+xml</dc:format>
        <dc:type
           rdf:resource="http://purl.org/dc/dcmitype/StillImage" />
        <dc:title />
      </cc:Work>
    </rdf:RDF>
  </metadata>
  <g
     transform="translate(26.837681,-196.33995)"
     id="layer1">
    <path
       style="opacity:1;fill-opacity:1;stroke:none;stroke-width:0.66236454;stroke-linecap:round;stroke-linejoin:round;stroke-miterlimit:4;stroke-dasharray:none;stroke-opacity:1"
       d="M 46.912109 0 C 21.003447 0.00041574804 0.00043842521 21.003447 0 46.912109 C -0.00063874018 72.821527 21.002687 93.825718 46.912109 93.826172 C 79.500277 93.826966 109.38281 62.626403 124.38281 46.912109 C 124.38281 46.912109 77.714563 0 46.912109 0 z M 46.912109 7.5234375 C 68.666359 7.5230218 86.302073 25.157866 86.302734 46.912109 C 86.30315 68.667108 68.667119 86.30315 46.912109 86.302734 C 25.157859 86.302092 7.5230218 68.666353 7.5234375 46.912109 C 7.5240989 25.158622 25.158618 7.5241178 46.912109 7.5234375 z M 46.914062 12.837891 C 28.094978 12.837777 12.838843 28.093047 12.837891 46.912109 C 12.837766 65.731889 28.09426 80.988395 46.914062 80.988281 C 65.733097 80.987299 80.988406 65.731134 80.988281 46.912109 C 80.987329 28.093841 65.732333 12.838836 46.914062 12.837891 z M 38.652344 27.210938 L 58.880859 27.210938 L 58.880859 31.984375 L 42.648438 31.984375 L 40.455078 42.917969 C 42.897086 41.215963 45.46007 40.363281 48.142578 40.363281 C 51.694589 40.363281 54.690805 41.59418 57.132812 44.054688 C 59.57482 46.515195 60.796875 49.67841 60.796875 53.544922 C 60.796875 57.226433 59.724132 60.409289 57.578125 63.091797 C 54.969617 66.384807 51.408545 68.03125 46.894531 68.03125 C 43.19452 68.03125 40.167867 66.995835 37.818359 64.923828 C 35.487352 62.851822 34.15722 60.104151 33.824219 56.681641 L 39.068359 56.236328 C 39.456861 58.789336 40.353761 60.714762 41.759766 62.009766 C 43.18427 63.28627 44.896525 63.923828 46.894531 63.923828 C 49.299539 63.923828 51.333042 63.018084 52.998047 61.205078 C 54.663052 59.392073 55.496094 56.987244 55.496094 53.990234 C 55.496094 51.141226 54.691536 48.892599 53.082031 47.246094 C 51.491026 45.599589 49.400555 44.775391 46.810547 44.775391 C 45.201042 44.775391 43.748129 45.146716 42.453125 45.886719 C 41.158121 46.608221 40.140393 47.551293 39.400391 48.716797 L 34.710938 48.105469 L 38.652344 27.210938 z "
       transform="matrix(0.26458333,0,0,0.26458333,-26.837681,196.33995)"
       id="path9093" />
  </g>
</svg>
