<?xml version="1.0" encoding="UTF-8" standalone="no"?>
<svg
   xmlns:dc="http://purl.org/dc/elements/1.1/"
   xmlns:cc="http://creativecommons.org/ns#"
   xmlns:rdf="http://www.w3.org/1999/02/22-rdf-syntax-ns#"
   xmlns:svg="http://www.w3.org/2000/svg"
   xmlns="http://www.w3.org/2000/svg"
   xmlns:sodipodi="http://sodipodi.sourceforge.net/DTD/sodipodi-0.dtd"
   xmlns:inkscape="http://www.inkscape.org/namespaces/inkscape"
   id="svg8514"
   version="1.1"
   viewBox="0 0 32.90974 24.82484"
   height="24.824841mm"
   width="32.90974mm"
   sodipodi:docname="infografia-6.svg"
   inkscape:version="0.92.5 (2060ec1f9f, 2020-04-08)">
  <sodipodi:namedview
     pagecolor="#ffffff"
     bordercolor="#666666"
     borderopacity="1"
     objecttolerance="10"
     gridtolerance="10"
     guidetolerance="10"
     inkscape:pageopacity="0"
     inkscape:pageshadow="2"
     inkscape:window-width="1366"
     inkscape:window-height="656"
     id="namedview12148"
     showgrid="false"
     inkscape:zoom="4.5393119"
     inkscape:cx="22.4279"
     inkscape:cy="46.913084"
     inkscape:window-x="0"
     inkscape:window-y="27"
     inkscape:window-maximized="1"
     inkscape:current-layer="svg8514" />
  <defs
     id="defs8508" />
  <metadata
     id="metadata8511">
    <rdf:RDF>
      <cc:Work
         rdf:about="">
        <dc:format>image/svg+xml</dc:format>
        <dc:type
           rdf:resource="http://purl.org/dc/dcmitype/StillImage" />
        <dc:title />
      </cc:Work>
    </rdf:RDF>
  </metadata>
  <g
     transform="translate(26.837681,-196.33995)"
     id="layer1">
    <path
       style="opacity:1;fill-opacity:1;stroke:none;stroke-width:0.66236454;stroke-linecap:round;stroke-linejoin:round;stroke-miterlimit:4;stroke-dasharray:none;stroke-opacity:1"
       d="M 46.912109 0 C 21.003447 0.00041574804 0.00043842521 21.003447 0 46.912109 C -0.00063874018 72.821527 21.002687 93.825718 46.912109 93.826172 C 79.500277 93.826966 109.38281 62.626403 124.38281 46.912109 C 124.38281 46.912109 77.714563 0 46.912109 0 z M 46.912109 7.5234375 C 68.666359 7.5230218 86.302073 25.157866 86.302734 46.912109 C 86.30315 68.667108 68.667119 86.30315 46.912109 86.302734 C 25.157859 86.302092 7.5230218 68.666353 7.5234375 46.912109 C 7.5240989 25.158622 25.158618 7.5241178 46.912109 7.5234375 z M 46.914062 12.837891 C 28.094978 12.837777 12.838843 28.093047 12.837891 46.912109 C 12.837766 65.731889 28.09426 80.988395 46.914062 80.988281 C 65.733097 80.987299 80.988406 65.731134 80.988281 46.912109 C 80.987329 28.093841 65.732333 12.838836 46.914062 12.837891 z M 48.197266 26.488281 C 51.397776 26.488281 54.015775 27.387135 56.050781 29.181641 C 58.104288 30.976146 59.335186 33.453678 59.742188 36.617188 L 54.775391 37.005859 C 54.331389 35.044853 53.700721 33.620425 52.886719 32.732422 C 51.536215 31.307917 49.872084 30.595703 47.892578 30.595703 C 46.301573 30.595703 44.905629 31.039732 43.703125 31.927734 C 42.13062 33.074738 40.890878 34.749665 39.984375 36.951172 C 39.077872 39.152679 38.605359 42.287409 38.568359 46.357422 C 39.770863 44.525916 41.241463 43.1673 42.980469 42.279297 C 44.719474 41.391294 46.54176 40.947266 48.447266 40.947266 C 51.777276 40.947266 54.608446 42.176211 56.939453 44.636719 C 59.28896 47.078726 60.462891 50.243894 60.462891 54.128906 C 60.462891 56.681914 59.908832 59.058259 58.798828 61.259766 C 57.707325 63.442772 56.199397 65.1177 54.275391 66.283203 C 52.351385 67.448707 50.16857 68.03125 47.726562 68.03125 C 43.56405 68.03125 40.168024 66.503681 37.541016 63.451172 C 34.914007 60.380162 33.601562 55.330803 33.601562 48.300781 C 33.601562 40.438257 35.054475 34.720902 37.958984 31.150391 C 40.493492 28.042381 43.905252 26.488281 48.197266 26.488281 z M 47.449219 45.359375 C 45.192212 45.359375 43.277583 46.172776 41.705078 47.800781 C 40.132573 49.410286 39.345703 51.529242 39.345703 54.15625 C 39.345703 55.876755 39.706232 57.523198 40.427734 59.095703 C 41.167737 60.668208 42.194308 61.870622 43.507812 62.703125 C 44.821317 63.517128 46.199574 63.923828 47.642578 63.923828 C 49.751585 63.923828 51.565027 63.073099 53.082031 61.371094 C 54.599036 59.669088 55.357422 57.356603 55.357422 54.433594 C 55.357422 51.621585 54.60788 49.410286 53.109375 47.800781 C 51.61087 46.172776 49.724726 45.359375 47.449219 45.359375 z "
       transform="matrix(0.26458333,0,0,0.26458333,-26.837681,196.33995)"
       id="path9093" />
  </g>
</svg>
