<?xml version="1.0" encoding="UTF-8" standalone="no"?>
<svg
   xmlns:dc="http://purl.org/dc/elements/1.1/"
   xmlns:cc="http://creativecommons.org/ns#"
   xmlns:rdf="http://www.w3.org/1999/02/22-rdf-syntax-ns#"
   xmlns:svg="http://www.w3.org/2000/svg"
   xmlns="http://www.w3.org/2000/svg"
   xmlns:sodipodi="http://sodipodi.sourceforge.net/DTD/sodipodi-0.dtd"
   xmlns:inkscape="http://www.inkscape.org/namespaces/inkscape"
   id="svg8514"
   version="1.1"
   viewBox="0 0 32.90974 24.82484"
   height="24.824841mm"
   width="32.90974mm"
   sodipodi:docname="infografia-2.svg"
   inkscape:version="0.92.5 (2060ec1f9f, 2020-04-08)">
  <sodipodi:namedview
     pagecolor="#ffffff"
     bordercolor="#666666"
     borderopacity="1"
     objecttolerance="10"
     gridtolerance="10"
     guidetolerance="10"
     inkscape:pageopacity="0"
     inkscape:pageshadow="2"
     inkscape:window-width="1366"
     inkscape:window-height="656"
     id="namedview9936"
     showgrid="false"
     inkscape:zoom="4.5393119"
     inkscape:cx="62.191635"
     inkscape:cy="46.913084"
     inkscape:window-x="0"
     inkscape:window-y="27"
     inkscape:window-maximized="1"
     inkscape:current-layer="svg8514" />
  <defs
     id="defs8508" />
  <metadata
     id="metadata8511">
    <rdf:RDF>
      <cc:Work
         rdf:about="">
        <dc:format>image/svg+xml</dc:format>
        <dc:type
           rdf:resource="http://purl.org/dc/dcmitype/StillImage" />
        <dc:title />
      </cc:Work>
    </rdf:RDF>
  </metadata>
  <g
     transform="translate(26.837681,-196.33995)"
     id="layer1">
    <path
       style="opacity:1;fill-opacity:1;stroke:none;stroke-width:0.66236454;stroke-linecap:round;stroke-linejoin:round;stroke-miterlimit:4;stroke-dasharray:none;stroke-opacity:1"
       d="M 46.912109 0 C 21.003447 0.00041574804 0.00043842521 21.003447 0 46.912109 C -0.00063874018 72.821527 21.002687 93.825718 46.912109 93.826172 C 79.500277 93.826966 109.38281 62.626403 124.38281 46.912109 C 124.38281 46.912109 77.714563 0 46.912109 0 z M 46.912109 7.5234375 C 68.666359 7.5230218 86.302073 25.157866 86.302734 46.912109 C 86.30315 68.667108 68.667119 86.30315 46.912109 86.302734 C 25.157859 86.302092 7.5230218 68.666353 7.5234375 46.912109 C 7.5240989 25.158622 25.158618 7.5241178 46.912109 7.5234375 z M 46.914062 12.837891 C 28.094978 12.837777 12.838843 28.093047 12.837891 46.912109 C 12.837766 65.731889 28.09426 80.988395 46.914062 80.988281 C 65.733097 80.987299 80.988406 65.731134 80.988281 46.912109 C 80.987329 28.093841 65.732333 12.838836 46.914062 12.837891 z M 47.337891 26.488281 C 51.241403 26.488281 54.329962 27.571821 56.605469 29.736328 C 58.880976 31.900835 60.019531 34.582693 60.019531 37.783203 C 60.019531 39.411208 59.685533 41.01148 59.019531 42.583984 C 58.353529 44.156489 57.243458 45.811776 55.689453 47.550781 C 54.153948 49.289787 51.592917 51.676928 48.003906 54.710938 C 45.006897 57.226945 43.083425 58.937247 42.232422 59.84375 C 41.381419 60.731753 40.678049 61.630607 40.123047 62.537109 L 60.074219 62.537109 L 60.074219 67.337891 L 33.185547 67.337891 C 33.148547 66.135387 33.342077 64.979144 33.767578 63.869141 C 34.45208 62.037635 35.544464 60.233037 37.042969 58.457031 C 38.559973 56.681026 40.742788 54.627882 43.591797 52.296875 C 48.013311 48.670864 51.000683 45.802366 52.554688 43.693359 C 54.108692 41.565853 54.884766 39.558881 54.884766 37.671875 C 54.884766 35.692369 54.172551 34.028239 52.748047 32.677734 C 51.342043 31.30873 49.50207 30.623047 47.226562 30.623047 C 44.821555 30.623047 42.898083 31.346058 41.455078 32.789062 C 40.012074 34.232067 39.280219 36.230195 39.261719 38.783203 L 34.128906 38.255859 C 34.480407 34.426348 35.803649 31.511678 38.097656 29.513672 C 40.391663 27.497166 43.471379 26.488281 47.337891 26.488281 z "
       transform="matrix(0.26458333,0,0,0.26458333,-26.837681,196.33995)"
       id="path9093" />
  </g>
</svg>
