<?xml version="1.0" encoding="UTF-8" standalone="no"?>
<svg
   xmlns:dc="http://purl.org/dc/elements/1.1/"
   xmlns:cc="http://creativecommons.org/ns#"
   xmlns:rdf="http://www.w3.org/1999/02/22-rdf-syntax-ns#"
   xmlns:svg="http://www.w3.org/2000/svg"
   xmlns="http://www.w3.org/2000/svg"
   id="svg3020"
   version="1.1"
   viewBox="0 0 84.857727 89.897285"
   height="89.897285mm"
   width="84.857727mm">
  <defs
     id="defs3014">
    <clipPath
       id="clipPath1120"
       clipPathUnits="userSpaceOnUse">
      <path
         id="path1118"
         d="M 0,1800 H 1400 V 0 H 0 Z" />
    </clipPath>
  </defs>
  <metadata
     id="metadata3017">
    <rdf:RDF>
      <cc:Work
         rdf:about="">
        <dc:format>image/svg+xml</dc:format>
        <dc:type
           rdf:resource="http://purl.org/dc/dcmitype/StillImage" />
        <dc:title></dc:title>
      </cc:Work>
    </rdf:RDF>
  </metadata>
  <g
     transform="translate(-59.624715,-101.2389)"
     id="layer1">
    <g
       id="g1114"
       transform="matrix(2.3411742,0,0,-2.3411742,-47.615355,2702.5325)">
      <g
         clip-path="url(#clipPath1120)"
         id="g1116">
        <g
           transform="translate(66.0703,1092.5918)"
           id="g1122">
          <path
             id="path1124"
             style="fill-opacity:1;fill-rule:nonzero;stroke:none"
             d="m 0,0 c -1.398,0.256 -1.049,-0.773 -1.514,-1.674 -0.465,-0.898 -0.275,-4.402 -0.275,-4.402 0,0 1.478,0.847 2.365,2.701 C 1.557,-1.328 0.945,-0.174 0,0" />
        </g>
        <g
           transform="translate(65.9541,1085.3691)"
           id="g1126">
          <path
             id="path1128"
             style="fill-opacity:1;fill-rule:nonzero;stroke:none"
             d="m 0,0 c -4.143,-5.297 -10.954,-4.996 -10.954,-4.996 v 1.801 c 0,0 0.879,0.129 2.742,0.386 1.861,0.256 4.815,2.268 4.815,2.268 0,0 -0.71,3.318 -0.008,6.863 0.568,2.893 2.943,3.858 5.154,2.444 C 3.961,7.352 3.221,4.123 0,0 m 0.452,-10.234 c 0,0 -1.656,1.685 -2.164,2.711 -0.506,1.023 -0.942,3.492 -0.942,3.492 l 1.635,1.082 c 0,0 0.266,-2.108 0.759,-3.19 0.493,-1.086 1.695,-2.892 1.695,-2.892 z m 8.531,-2.221 c 1.392,-0.098 2.633,1.267 2.598,2.994 -0.086,4.149 -0.014,8.244 -0.038,12.397 -0.004,0.683 0.16,0.894 0.717,0.826 0.421,-0.049 0.844,-0.022 1.268,-0.022 1.157,0.002 2,0.602 2.369,1.697 0.406,1.209 0.21,2.286 -0.713,3.276 -1.788,1.918 -3.609,3.795 -5.423,5.674 -3.385,3.506 -6.78,6.996 -10.159,10.502 -1.033,1.072 -2.113,1.154 -3.164,0.097 -1.605,-1.615 -3.178,-3.271 -4.763,-4.912 -0.85,-0.875 -1.698,-1.752 -2.67,-2.756 0,1.077 0.003,1.901 0,2.725 -0.01,1.711 -0.998,2.934 -2.364,2.924 -1.294,-0.008 -2.248,-1.254 -2.251,-2.961 -0.005,-2.305 0.009,-4.61 -0.018,-6.914 -0.005,-0.309 -0.154,-0.703 -0.348,-0.912 -1.127,-1.239 -2.296,-2.42 -3.431,-3.649 -0.742,-0.804 -0.912,-1.834 -0.576,-2.943 0.361,-1.205 1.164,-1.854 2.202,-1.863 0.491,-0.004 0.988,-0.045 1.477,0.011 0.584,0.071 0.707,-0.224 0.701,-0.875 -0.019,-4.211 -0.012,-8.42 -0.007,-12.629 0.003,-1.714 0.961,-2.88 2.376,-2.886 2.044,-0.012 4.142,-0.006 6.184,-0.002" />
        </g>
      </g>
    </g>
  </g>
</svg>
