<?xml version="1.0" encoding="UTF-8" standalone="no"?>
<svg
   xmlns:dc="http://purl.org/dc/elements/1.1/"
   xmlns:cc="http://creativecommons.org/ns#"
   xmlns:rdf="http://www.w3.org/1999/02/22-rdf-syntax-ns#"
   xmlns:svg="http://www.w3.org/2000/svg"
   xmlns="http://www.w3.org/2000/svg"
   xmlns:sodipodi="http://sodipodi.sourceforge.net/DTD/sodipodi-0.dtd"
   xmlns:inkscape="http://www.inkscape.org/namespaces/inkscape"
   id="icon-instagram"
   version="1.1"
   viewBox="0 0 38.091732 38.090179"
   sodipodi:docname="instagram.svg"
   inkscape:version="0.92.5 (2060ec1f9f, 2020-04-08)">
  <sodipodi:namedview
     pagecolor="#ffffff"
     bordercolor="#666666"
     borderopacity="1"
     objecttolerance="10"
     gridtolerance="10"
     guidetolerance="10"
     inkscape:pageopacity="0"
     inkscape:pageshadow="2"
     inkscape:window-width="1440"
     inkscape:window-height="784"
     id="namedview855"
     showgrid="false"
     fit-margin-top="0"
     fit-margin-left="0"
     fit-margin-right="0"
     fit-margin-bottom="0"
     inkscape:zoom="0.2102413"
     inkscape:cx="683.11992"
     inkscape:cy="-81.04501"
     inkscape:window-x="0"
     inkscape:window-y="27"
     inkscape:window-maximized="1"
     inkscape:current-layer="svg4924" />
  <defs
     id="defs4918" />
  <metadata
     id="metadata4921">
    <rdf:RDF>
      <cc:Work
         rdf:about="">
        <dc:format>image/svg+xml</dc:format>
        <dc:type
           rdf:resource="http://purl.org/dc/dcmitype/StillImage" />
        <dc:title></dc:title>
      </cc:Work>
    </rdf:RDF>
  </metadata>
  <g
     id="layer1"
     transform="translate(75.742146,-88.966661)">
    <path
       id="path314"
       transform="scale(0.26458333)"
       d="m -214.28125,336.25195 c -39.7346,0 -71.98828,32.24576 -71.98828,71.98047 0,39.73244 32.25347,71.98242 71.98828,71.98242 39.73245,0 71.98047,-32.24998 71.98047,-71.98242 0,-39.73471 -32.24824,-71.98047 -71.98047,-71.98047 z m 0,3.54297 c 37.81591,0 68.4375,30.61928 68.4375,68.4375 0,37.81584 -30.6218,68.4375 -68.4375,68.4375 -37.81818,0 -68.44531,-30.62166 -68.44531,-68.4375 0,-37.81822 30.62692,-68.4375 68.44531,-68.4375 z m -0.004,29.94336 c -10.45593,0 -11.76488,0.0389 -15.87109,0.23047 -4.10152,0.18898 -6.9009,0.84065 -9.34766,1.79102 -2.52945,0.98343 -4.67617,2.3004 -6.82031,4.4375 -2.13703,2.13934 -3.45256,4.28891 -4.43359,6.81835 -0.95035,2.45148 -1.60621,5.24565 -1.79297,9.34961 -0.18429,4.10147 -0.22656,5.41281 -0.22656,15.8711 0,10.45353 0.0396,11.76529 0.22656,15.86914 0.18697,4.10389 0.84262,6.89817 1.79297,9.34961 0.98103,2.52468 2.29656,4.67747 4.43359,6.81445 2.14414,2.14178 4.29086,3.45801 6.82031,4.44141 2.44676,0.94564 5.24614,1.60384 9.34766,1.79297 4.10621,0.18444 5.41516,0.22461 15.87109,0.22461 10.45353,0 11.7677,-0.0402 15.86914,-0.22461 4.09683,-0.18898 6.89707,-0.84733 9.34375,-1.79297 2.53656,-0.9834 4.68008,-2.29963 6.82422,-4.44141 2.13704,-2.13698 3.45405,-4.28977 4.4375,-6.81445 0.95503,-2.45144 1.59957,-5.24572 1.79102,-9.34961 0.18898,-4.10385 0.23047,-5.41561 0.23047,-15.86914 0,-10.45829 -0.0415,-11.76963 -0.23047,-15.8711 -0.19166,-4.10396 -0.83599,-6.89813 -1.79102,-9.34961 -0.98345,-2.52944 -2.30046,-4.67901 -4.4375,-6.81835 -2.14414,-2.1371 -4.28766,-3.45407 -6.82422,-4.4375 -2.44668,-0.95037 -5.24692,-1.60193 -9.34375,-1.79102 -4.10144,-0.18898 -5.41561,-0.23047 -15.86914,-0.23047 z m 0,6.93945 c 10.28097,0 11.49142,0.0351 15.55274,0.22071 3.75876,0.17272 5.80014,0.79895 7.15234,1.32617 1.79421,0.69736 3.08022,1.53186 4.42774,2.87695 1.35221,1.34748 2.17918,2.6311 2.8789,4.42774 0.52738,1.35696 1.14847,3.39169 1.32813,7.15039 0.1796,4.05426 0.22265,5.27849 0.22265,15.55469 0,10.27865 -0.0404,11.49648 -0.22265,15.55078 -0.17961,3.75866 -0.80095,5.79381 -1.32813,7.14843 -0.69972,1.79898 -1.52669,3.08378 -2.8789,4.4336 -1.34752,1.34275 -2.63353,2.18435 -4.42774,2.87695 -1.3522,0.52471 -3.39358,1.15317 -7.15234,1.32813 -4.06132,0.18444 -5.27177,0.22265 -15.55274,0.22265 -10.28097,0 -11.49532,-0.0401 -15.55664,-0.22265 -3.75399,-0.175 -5.79153,-0.8033 -7.14843,-1.32813 -1.79904,-0.6926 -3.07788,-1.5342 -4.42774,-2.87695 -1.34268,-1.34982 -2.17716,-2.63462 -2.87695,-4.4336 -0.52469,-1.35462 -1.15362,-3.38977 -1.32617,-7.14843 -0.18429,-4.0543 -0.22461,-5.27213 -0.22461,-15.55078 0,-10.2762 0.0403,-11.50043 0.22461,-15.55469 0.17223,-3.7587 0.80141,-5.79343 1.32617,-7.15039 0.69979,-1.79664 1.53427,-3.08026 2.87695,-4.42774 1.34986,-1.34509 2.6287,-2.17959 4.42774,-2.87695 1.3569,-0.52741 3.39444,-1.1536 7.14843,-1.32617 4.06132,-0.18898 5.27567,-0.22071 15.55664,-0.22071 z m 20.54883,6.39063 c -2.55076,0 -4.61523,2.06876 -4.61523,4.61719 0,2.54838 2.06447,4.62109 4.61523,4.62109 2.55076,0 4.61914,-2.07271 4.61914,-4.62109 0,-2.54843 -2.06838,-4.61719 -4.61914,-4.61719 z m -20.54883,5.39648 c -10.91924,0 -19.76757,8.84553 -19.76757,19.76954 0,10.91448 8.84833,19.76757 19.76757,19.76757 10.91691,0 19.76368,-8.85309 19.76368,-19.76757 0,-10.92401 -8.84677,-19.76954 -19.76368,-19.76954 z m 0,6.93555 c 7.08725,0 12.83008,5.74669 12.83008,12.83399 0,7.08725 -5.74283,12.83203 -12.83008,12.83203 -7.08723,0 -12.83593,-5.74478 -12.83593,-12.83203 0,-7.0873 5.7487,-12.83399 12.83593,-12.83399 z"
       inkscape:connector-curvature="0" />
  </g>
</svg>
