<?xml version="1.0" encoding="UTF-8" standalone="no"?>
<svg
   xmlns:dc="http://purl.org/dc/elements/1.1/"
   xmlns:cc="http://creativecommons.org/ns#"
   xmlns:rdf="http://www.w3.org/1999/02/22-rdf-syntax-ns#"
   xmlns:svg="http://www.w3.org/2000/svg"
   xmlns="http://www.w3.org/2000/svg"
   id="svg5823"
   version="1.1"
   viewBox="0 0 130.74309 63.924713">
  <defs
     id="defs5817" />
  <metadata
     id="metadata5820">
    <rdf:RDF>
      <cc:Work
         rdf:about="">
        <dc:format>image/svg+xml</dc:format>
        <dc:type
           rdf:resource="http://purl.org/dc/dcmitype/StillImage" />
        <dc:title></dc:title>
      </cc:Work>
    </rdf:RDF>
  </metadata>
  <g
     transform="translate(-26.098694,-109.31149)"
     id="layer1">
    <g
       transform="matrix(0.73545832,0,0,-0.73545832,-14.833018,1400.7407)"
       id="g5797">
      <path
         d="m 187.0957,1729.9414 c -14.593,0 -26.466,-11.873 -26.466,-26.466 0,-14.593 11.873,-26.467 26.466,-26.467 14.593,0 26.467,11.874 26.467,26.467 0,14.593 -11.874,26.466 -26.467,26.466 m 0,-60.908 c -18.992,0 -34.441,15.451 -34.441,34.442 0,18.991 15.449,34.442 34.441,34.442 18.99,0 34.442,-15.451 34.442,-34.442 0,-18.991 -15.452,-34.442 -34.442,-34.442"
         style="fill:#00b7b7;fill-opacity:1;fill-rule:nonzero;stroke:none"
         id="path438" />
      <path
         d="m 183.1748,1704.3154 c -2.149,0 -3.899,-1.75 -3.899,-3.899 0,-2.151 1.75,-3.9 3.899,-3.9 2.149,0 3.898,1.749 3.898,3.9 0,2.149 -1.749,3.899 -3.898,3.899 m 0,-14.179 c -5.669,0 -10.28,4.612 -10.28,10.28 0,5.669 4.611,10.28 10.28,10.28 5.668,0 10.279,-4.611 10.279,-10.28 0,-5.668 -4.611,-10.28 -10.279,-10.28"
         style="fill:#00b7b7;fill-opacity:1;fill-rule:nonzero;stroke:none"
         id="path454" />
      <path
         d="m 215.0596,1747.9756 c -5.729,0 -10.393,-4.661 -10.393,-10.389 0,-5.729 4.664,-10.392 10.393,-10.392 5.729,0 10.39,4.663 10.39,10.392 0,5.728 -4.661,10.389 -10.39,10.389 m 0,-28.757 c -10.129,0 -18.368,8.238 -18.368,18.368 0,10.125 8.239,18.365 18.368,18.365 10.126,0 18.366,-8.24 18.366,-18.365 0,-10.13 -8.24,-18.368 -18.366,-18.368"
         style="fill:#00b7b7;fill-opacity:1;fill-rule:nonzero;stroke:none"
         id="path470" />
      <path
         d="m 139.0957,1729.9414 c -14.593,0 -26.466,-11.873 -26.466,-26.466 0,-14.593 11.873,-26.467 26.466,-26.467 14.593,0 26.467,11.874 26.467,26.467 0,14.593 -11.874,26.466 -26.467,26.466 m 0,-60.908 c -18.992,0 -34.441,15.451 -34.441,34.442 0,18.991 15.449,34.442 34.441,34.442 18.99,0 34.442,-15.451 34.442,-34.442 0,-18.991 -15.452,-34.442 -34.442,-34.442"
         style="fill:#f97ca9;fill-opacity:1;fill-rule:nonzero;stroke:none"
         id="path486" />
      <path
         d="m 135.1748,1704.3154 c -2.149,0 -3.899,-1.75 -3.899,-3.899 0,-2.151 1.75,-3.9 3.899,-3.9 2.149,0 3.898,1.749 3.898,3.9 0,2.149 -1.749,3.899 -3.898,3.899 m 0,-14.179 c -5.669,0 -10.28,4.612 -10.28,10.28 0,5.669 4.611,10.28 10.28,10.28 5.668,0 10.279,-4.611 10.279,-10.28 0,-5.668 -4.611,-10.28 -10.279,-10.28"
         style="fill:#f97ca9;fill-opacity:1;fill-rule:nonzero;stroke:none"
         id="path502" />
      <path
         d="m 167.0596,1747.9756 c -5.729,0 -10.393,-4.661 -10.393,-10.389 0,-5.729 4.664,-10.392 10.393,-10.392 5.729,0 10.39,4.663 10.39,10.392 0,5.728 -4.661,10.389 -10.39,10.389 m 0,-28.757 c -10.129,0 -18.368,8.238 -18.368,18.368 0,10.125 8.239,18.365 18.368,18.365 10.126,0 18.366,-8.24 18.366,-18.365 0,-10.13 -8.24,-18.368 -18.366,-18.368"
         style="fill:#f97ca9;fill-opacity:1;fill-rule:nonzero;stroke:none"
         id="path518" />
      <path
         d="m 90.0957,1729.9414 c -14.593,0 -26.466,-11.873 -26.466,-26.466 0,-14.593 11.873,-26.467 26.466,-26.467 14.593,0 26.467,11.874 26.467,26.467 0,14.593 -11.874,26.466 -26.467,26.466 m 0,-60.908 c -18.992,0 -34.441,15.451 -34.441,34.442 0,18.991 15.449,34.442 34.441,34.442 18.99,0 34.442,-15.451 34.442,-34.442 0,-18.991 -15.452,-34.442 -34.442,-34.442"
         style="fill:#60c160;fill-opacity:1;fill-rule:nonzero;stroke:none"
         id="path534" />
      <path
         d="m 86.1748,1704.3154 c -2.149,0 -3.899,-1.75 -3.899,-3.899 0,-2.151 1.75,-3.9 3.899,-3.9 2.149,0 3.898,1.749 3.898,3.9 0,2.149 -1.749,3.899 -3.898,3.899 m 0,-14.179 c -5.669,0 -10.28,4.612 -10.28,10.28 0,5.669 4.611,10.28 10.28,10.28 5.668,0 10.279,-4.611 10.279,-10.28 0,-5.668 -4.611,-10.28 -10.279,-10.28"
         style="fill:#60c160;fill-opacity:1;fill-rule:nonzero;stroke:none"
         id="path550" />
      <path
         d="m 118.0596,1747.9756 c -5.729,0 -10.393,-4.661 -10.393,-10.389 0,-5.729 4.664,-10.392 10.393,-10.392 5.729,0 10.39,4.663 10.39,10.392 0,5.728 -4.661,10.389 -10.39,10.389 m 0,-28.757 c -10.129,0 -18.368,8.238 -18.368,18.368 0,10.125 8.239,18.365 18.368,18.365 10.126,0 18.366,-8.24 18.366,-18.365 0,-10.13 -8.24,-18.368 -18.366,-18.368"
         style="fill:#60c160;fill-opacity:1;fill-rule:nonzero;stroke:none"
         id="path566" />
    </g>
  </g>
</svg>
