<?xml version="1.0" encoding="UTF-8" standalone="no"?>
<svg
   xmlns:dc="http://purl.org/dc/elements/1.1/"
   xmlns:cc="http://creativecommons.org/ns#"
   xmlns:rdf="http://www.w3.org/1999/02/22-rdf-syntax-ns#"
   xmlns:svg="http://www.w3.org/2000/svg"
   xmlns="http://www.w3.org/2000/svg"
   id="svg1085"
   version="1.1"
   viewBox="0 0 96.818665 115.74986"
   height="115.74986mm"
   width="96.818665mm">
  <defs
     id="defs1079" />
  <metadata
     id="metadata1082">
    <rdf:RDF>
      <cc:Work
         rdf:about="">
        <dc:format>image/svg+xml</dc:format>
        <dc:type
           rdf:resource="http://purl.org/dc/dcmitype/StillImage" />
        <dc:title></dc:title>
      </cc:Work>
    </rdf:RDF>
  </metadata>
  <g
     transform="translate(-6.5108442,-54.818145)"
     id="layer1">
    <g
       id="g1062"
       transform="matrix(1.053067,0,0,-1.053067,-93.594126,616.01503)">
      <g
         id="g128"
         transform="translate(103.0264,500.9346)">
        <path
           d="m 0,0 c 2.848,1.393 7.627,2.118 10.876,2.118 1.148,0 1.857,-0.098 2.131,-0.187 0.052,-0.019 0.089,-0.032 0.116,-0.042 -0.027,-0.128 -0.116,-0.322 -0.2,-0.448 L 12.806,1.283 12.739,1.101 C 12.729,1.069 11.382,-2.514 7.405,-5.097 4.47,-6.999 -1.409,-7.875 -4.444,-8.21 -3.812,-5.403 -2.395,-1.164 0,0 m -3.519,11.207 c 1.53,0.337 3.943,0.774 6.254,0.774 0.99,0 1.872,-0.08 2.622,-0.237 C 7.828,11.237 10.079,7.903 11.33,5.54 9.552,5.357 6.872,5.129 4.545,5.129 c -1.978,0 -2.98,0.165 -3.473,0.302 -1.544,0.437 -3.404,3.293 -4.591,5.776 m 32.357,15.297 c 11.224,5.943 21.306,-0.096 21.306,-0.096 0,0 -11.16,-2.335 -17.703,-5.173 C 23.592,17.412 16.793,9.458 16.793,9.458 c 0,0 -0.063,10.635 12.045,17.046 M 63.631,7.639 c 0,0 -6.287,4.119 -15.441,5.752 -11.068,1.965 -23.061,-0.962 -23.061,-0.962 0,0 10.6,9.691 27.58,9.681 C 62.818,22.105 63.631,7.639 63.631,7.639 M 9.111,-7.373 c 4.227,2.74 5.977,6.438 6.369,7.365 3.447,-9.697 13.263,-16.698 24.841,-16.698 14.463,0 26.181,10.896 26.181,24.345 0,13.449 -11.718,24.343 -26.181,24.343 -14.453,0 -26.163,-10.894 -26.163,-24.343 0,-0.411 0.007,-0.819 0.031,-1.225 -1.272,2.524 -4.141,7.205 -8.182,8.041 -0.969,0.201 -2.065,0.304 -3.272,0.304 -4.233,0 -8.536,-1.235 -8.714,-1.287 l -1.497,-0.433 0.54,-1.372 C -6.444,10.432 -3.917,4.404 -0.255,2.942 -0.649,2.792 -1.034,2.637 -1.39,2.461 -6.259,0.086 -7.599,-8.616 -7.729,-9.604 l -0.237,-1.682 1.815,0.124 c 0.429,0.029 10.555,0.731 15.262,3.789"
           style="fill-opacity:1;fill-rule:nonzero;stroke:none"
           id="path130" />
      </g>
      <g
         id="g132"
         transform="translate(154.8721,453.0977)">
        <path
           d="m 0,0 c -10.019,-7.068 -22.329,-3.452 -22.329,-3.452 l 0.76,3.05 c 0,0 1.366,-0.102 4.97,-0.534 3.601,-0.437 9.822,1.643 9.822,1.643 0,0 -0.018,5.985 2.801,11.681 2.291,4.649 7.282,5.142 10.841,1.708 C 10.409,10.665 7.782,5.494 0,0 m -3.815,-16.215 c 0,0 -2.395,3.632 -2.922,5.609 -0.513,1.976 -0.288,6.373 -0.288,6.373 l 3.531,1.077 c 0,0 -0.403,-3.705 0.069,-5.776 0.474,-2.072 1.956,-5.696 1.956,-5.696 z m 25.994,36.088 c -9.7,7.835 -29.094,9.206 -35.184,9.206 -14.056,0 -25.742,-2.58 -34.068,-9.298 C -55.399,13.065 -58.872,1.222 -58.872,1.222 v -26.387 c 0,0 0.559,-4.226 7.263,-4.226 8.331,0 8.737,4.226 8.737,4.226 v 19.067 h 5 v -24 h 46 v 24 h 7 v -19.595 c 0,0 0.564,-3.698 8.322,-3.698 8.102,0 8.678,3.698 8.678,3.698 V 1.099 c 0,0 -0.25,10.939 -9.949,18.774"
           style="fill-opacity:1;fill-rule:nonzero;stroke:none"
           id="path134" />
      </g>
      <g
         id="g136"
         transform="translate(157.8076,465.3906)">
        <path
           d="m 0,0 c -2.515,1.091 -2.837,-0.633 -3.677,-2.085 -0.905,-1.577 -2.257,-7.401 -2.257,-7.401 0,0 3.14,0.755 5.586,3.487 C 2.35,-2.986 1.705,-0.74 0,0"
           style="fill-opacity:1;fill-rule:nonzero;stroke:none"
           id="path138" />
      </g>
    </g>
  </g>
</svg>
