<?xml version="1.0" encoding="UTF-8" standalone="no"?>
<!-- Created with Inkscape (http://www.inkscape.org/) -->

<svg
   xmlns:dc="http://purl.org/dc/elements/1.1/"
   xmlns:cc="http://creativecommons.org/ns#"
   xmlns:rdf="http://www.w3.org/1999/02/22-rdf-syntax-ns#"
   xmlns:svg="http://www.w3.org/2000/svg"
   xmlns="http://www.w3.org/2000/svg"
   xmlns:sodipodi="http://sodipodi.sourceforge.net/DTD/sodipodi-0.dtd"
   xmlns:inkscape="http://www.inkscape.org/namespaces/inkscape"
   width="46.659798mm"
   height="46.659798mm"
   viewBox="0 0 46.659798 46.659798"
   version="1.1"
   id="svg2410"
   inkscape:version="0.92.5 (2060ec1f9f, 2020-04-08)"
   sodipodi:docname="lavar-verduras.svg">
  <defs
     id="defs2404" />
  <sodipodi:namedview
     id="base"
     pagecolor="#ffffff"
     bordercolor="#666666"
     borderopacity="1.0"
     inkscape:pageopacity="0.0"
     inkscape:pageshadow="2"
     inkscape:zoom="0.57424805"
     inkscape:cx="120.75515"
     inkscape:cy="137.82592"
     inkscape:document-units="mm"
     inkscape:current-layer="layer1"
     showgrid="false"
     fit-margin-top="0"
     fit-margin-left="0"
     fit-margin-right="0"
     fit-margin-bottom="0"
     showborder="false"
     inkscape:window-width="1440"
     inkscape:window-height="788"
     inkscape:window-x="0"
     inkscape:window-y="27"
     inkscape:window-maximized="1" />
  <metadata
     id="metadata2407">
    <rdf:RDF>
      <cc:Work
         rdf:about="">
        <dc:format>image/svg+xml</dc:format>
        <dc:type
           rdf:resource="http://purl.org/dc/dcmitype/StillImage" />
        <dc:title></dc:title>
      </cc:Work>
    </rdf:RDF>
  </metadata>
  <g
     inkscape:label="Capa 1"
     inkscape:groupmode="layer"
     id="layer1"
     transform="translate(-152.67563,-158.02249)">
    <g
       transform="matrix(0.35277777,0,0,-0.35277777,-399.67985,324.01)"
       id="g2402">
      <path
         inkscape:connector-curvature="0"
         id="path2366"
         style="fill:#045e73;fill-opacity:1;fill-rule:nonzero;stroke:none"
         d="m 1696.4961,402.8848 c 0,-34.867 -28.266,-63.133 -63.133,-63.133 -34.865,0 -63.131,28.266 -63.131,63.133 0,34.865 28.266,63.131 63.131,63.131 34.867,0 63.133,-28.266 63.133,-63.131" />
      <path
         inkscape:connector-curvature="0"
         id="path2370"
         style="fill:none;stroke:#045e73;stroke-width:3;stroke-linecap:butt;stroke-linejoin:miter;stroke-miterlimit:10;stroke-dasharray:none;stroke-opacity:1"
         d="m 1696.4961,402.8848 c 0,-34.867 -28.266,-63.133 -63.133,-63.133 -34.865,0 -63.131,28.266 -63.131,63.133 0,34.865 28.266,63.131 63.131,63.131 34.867,0 63.133,-28.266 63.133,-63.131 z" />
      <path
         inkscape:connector-curvature="0"
         id="path2374"
         style="fill:#045e73;fill-opacity:1;fill-rule:nonzero;stroke:none"
         d="m 1644.6846,424.3193 3.722,6.205 3.721,-6.205 c 1.234,-2.059 0.565,-4.724 -1.491,-5.954 -2.056,-1.233 -4.722,-0.567 -5.952,1.49 -0.822,1.375 -0.822,3.092 0,4.464 m -0.507,-9.012 c 3.504,-2.34 8.238,-1.395 10.578,2.11 1.638,2.453 1.714,5.632 0.194,8.163 l -4.514,7.52 c -0.672,1.119 -2.124,1.484 -3.244,0.81 -0.332,-0.199 -0.611,-0.479 -0.811,-0.81 l -4.513,-7.52 c -2.1,-3.492 -1.082,-8.019 2.31,-10.273" />
      <path
         inkscape:connector-curvature="0"
         id="path2378"
         style="fill:#045e73;fill-opacity:1;fill-rule:nonzero;stroke:none"
         d="m 1636.0762,443.5596 2.396,3.996 2.398,-3.996 c 0.794,-1.326 0.363,-3.043 -0.96,-3.835 -1.324,-0.794 -3.041,-0.365 -3.834,0.96 -0.529,0.885 -0.529,1.991 0,2.875 m -0.326,-5.805 c 2.256,-1.506 5.305,-0.898 6.812,1.36 1.055,1.579 1.104,3.627 0.125,5.257 l -2.907,4.842 c -0.433,0.721 -1.368,0.956 -2.089,0.522 -0.215,-0.128 -0.394,-0.308 -0.523,-0.522 l -2.906,-4.842 c -1.353,-2.249 -0.698,-5.165 1.488,-6.617" />
      <path
         inkscape:connector-curvature="0"
         id="path2382"
         style="fill:#045e73;fill-opacity:1;fill-rule:nonzero;stroke:none"
         d="m 1616.9971,361.8926 c 1.131,-0.396 2.258,-0.832 3.351,-1.254 2.779,-1.074 5.654,-2.187 8.656,-2.673 2.514,-0.407 5.029,-0.614 7.473,-0.614 6.15,0 12.187,1.312 17.94,3.895 0.44,0.199 0.89,0.358 1.323,0.511 0.127,0.043 0.254,0.088 0.38,0.135 0.712,0.861 1.661,1.322 2.505,1.731 0.296,0.145 0.58,0.282 0.848,0.432 0.417,0.693 1.019,1.14 1.555,1.538 0.187,0.138 0.373,0.276 0.552,0.425 9.105,7.64 14.079,17.28 14.795,28.664 l -7.095,0.319 -1.38,-1.29 c 0.956,-1.367 1.989,-2.484 3.801,-2.878 1.369,-0.295 2.158,-0.878 2.346,-1.73 0.193,-0.884 -0.325,-1.797 -1.541,-2.711 -0.777,-0.585 -1.203,-1.245 -1.526,-2.357 -4.156,-14.346 -17.774,-24.369 -33.116,-24.369 -12.354,0 -21.499,3.667 -28.775,11.543 -3.351,3.624 -5.675,7.817 -6.908,12.46 -0.369,1.387 -0.699,2.333 -1.877,2.813 -0.499,0.203 -1.823,0.743 -1.634,2.238 0.088,0.685 0.498,1.573 1.96,1.924 1.441,0.345 2.938,0.867 4.119,2.333 0.491,0.609 1.136,0.933 1.862,0.933 0.645,0 1.323,-0.27 1.932,-0.755 l 1.636,1.706 -2.469,-0.02 c -2.954,-0.023 -5.908,-0.046 -8.861,-0.089 h -0.095 c -0.206,0 -0.414,0.01 -0.623,0.019 -0.187,0.009 -0.373,0.017 -0.558,0.017 -0.374,0 -0.651,-0.039 -0.882,-0.13 0.026,-0.115 0.051,-0.229 0.077,-0.344 0.142,-0.639 0.291,-1.3 0.373,-1.977 0.787,-6.496 2.735,-12.031 5.956,-16.919 2.911,-4.422 6.671,-7.936 10.927,-11.73 1.007,-0.296 2.196,-0.689 2.973,-1.796 m 19.48,-6.078 c -2.526,0 -5.124,0.213 -7.719,0.634 -3.16,0.51 -6.112,1.652 -8.965,2.756 -1.16,0.449 -2.36,0.913 -3.549,1.324 l -0.268,0.093 -0.142,0.242 c -0.463,0.783 -1.253,1.061 -2.405,1.396 l -0.167,0.049 -0.13,0.114 c -4.393,3.913 -8.277,7.529 -11.32,12.15 -3.353,5.092 -5.381,10.841 -6.198,17.579 -0.072,0.602 -0.206,1.198 -0.347,1.828 -0.067,0.298 -0.133,0.597 -0.193,0.894 l -0.091,0.452 0.353,0.292 c 0.757,0.629 1.593,0.71 2.237,0.71 0.208,0 0.419,-0.011 0.628,-0.019 0.185,-0.011 0.37,-0.019 0.553,-0.019 l 0.072,10e-4 c 2.958,0.043 5.916,0.065 8.873,0.088 l 3.269,0.026 1.884,-0.976 -4.307,-4.496 -0.553,0.63 c -0.445,0.508 -0.962,0.81 -1.381,0.81 -0.161,0 -0.405,-0.037 -0.666,-0.361 -1.473,-1.829 -3.333,-2.473 -4.958,-2.861 -0.735,-0.177 -0.77,-0.456 -0.792,-0.623 -0.023,-0.181 -0.04,-0.323 0.688,-0.619 1.976,-0.806 2.443,-2.563 2.784,-3.844 1.167,-4.399 3.372,-8.371 6.552,-11.812 6.965,-7.537 15.75,-11.048 27.645,-11.048 14.662,10e-4 27.673,9.566 31.639,23.259 0.414,1.428 1.036,2.372 2.078,3.157 0.853,0.64 0.984,1.059 0.963,1.154 -0.018,0.083 -0.272,0.363 -1.169,0.557 -2.604,0.564 -3.956,2.319 -5.12,4.068 l -0.361,0.542 2.809,2.627 9.283,-0.42 -0.034,-0.769 c -0.558,-12.165 -5.732,-22.44 -15.384,-30.54 -0.202,-0.167 -0.414,-0.324 -0.625,-0.481 -0.518,-0.385 -0.966,-0.716 -1.215,-1.209 l -0.101,-0.199 -0.191,-0.113 c -0.376,-0.225 -0.765,-0.415 -1.141,-0.597 -0.815,-0.395 -1.585,-0.768 -2.084,-1.449 l -0.135,-0.185 -0.216,-0.08 c -0.201,-0.075 -0.404,-0.147 -0.606,-0.219 -0.424,-0.149 -0.824,-0.291 -1.206,-0.464 -5.954,-2.673 -12.202,-4.029 -18.571,-4.029" />
      <path
         inkscape:connector-curvature="0"
         id="path2386"
         style="fill:#045e73;fill-opacity:1;fill-rule:nonzero;stroke:none"
         d="m 1654.415,392.3584 c 1.329,-0.117 2.685,-0.579 3.402,-2.493 0.104,-0.276 0.2,-0.388 0.739,-0.388 0.15,0 0.303,0.008 0.457,0.017 0.082,0.006 0.162,0.01 0.242,0.012 l -0.01,0.144 0.092,-0.018 c 0.095,0.574 0.311,1.039 0.645,1.386 0.53,0.553 1.3,0.784 2.315,0.676 l 4.116,2.736 1.926,1.802 0.548,1.341 c 0.511,2.222 -0.187,4.259 -0.927,6.413 -0.323,0.939 -0.657,1.912 -0.886,2.907 -0.731,3.18 -2.609,3.18 -3.226,3.18 h -0.053 c -2.287,-0.028 -3.166,-1.662 -3.498,-3.028 -0.538,-2.197 -1.944,-3.567 -4.424,-4.312 -1.41,-0.424 -2.93,-0.63 -4.645,-0.63 -0.588,0 -1.198,0.024 -1.865,0.072 -0.131,0.002 -0.293,0.004 -0.45,0.004 -3.38,0 -4.267,-1.087 -4.603,-2.842 -0.156,-0.823 -0.145,-1.694 -0.133,-2.615 0,-0.399 0.01,-0.797 0,-1.192 -0.042,-1.967 -0.336,-3.955 -2.058,-5.341 0.136,-0.177 0.261,-0.259 0.349,-0.259 0.157,0 0.454,0.199 0.76,0.643 0.64,0.92 1.485,1.909 3.04,1.739 0.164,0.121 0.439,0.324 0.819,0.324 0.232,0 0.558,-0.077 0.857,-0.419 0.574,-0.333 1.061,-0.775 1.451,-1.318 l 2.428,2.033 3.091,3.055 c 0.237,0.334 0.258,0.741 0.268,1.365 0.01,0.525 0.02,1.118 0.259,1.705 l 0.265,0.65 0.67,-0.205 c 0.651,-0.199 0.916,-0.587 1.015,-0.962 0.539,0.712 1.186,1.309 1.934,1.783 0.547,0.831 1.268,1.634 2.655,2.047 l 1.223,0.362 -0.249,-1.25 c -0.281,-1.407 -1.205,-2.08 -1.946,-2.621 l -0.195,-0.144 -2.707,-2.622 0.234,-0.406 1.731,-0.744 -0.839,-0.803 c -0.398,-0.383 -0.803,-0.462 -1.074,-0.462 -0.325,0 -0.647,0.109 -0.979,0.332 -0.332,0.067 -0.665,0.135 -0.997,0.202 -0.322,-0.274 -0.617,-0.609 -0.925,-0.958 -0.26,-0.295 -0.535,-0.606 -0.847,-0.898 m 4.963,-5.607 -0.056,1.22 c -0.074,-0.004 -0.149,-0.009 -0.223,-0.011 -0.183,-0.011 -0.366,-0.021 -0.543,-0.021 v 0 c -0.414,0 -1.657,0.005 -2.175,1.387 -0.544,1.45 -1.466,1.524 -3.184,1.535 -0.163,10e-4 -0.324,0.003 -0.487,0.006 l -0.552,0.01 -0.081,0.256 -3.145,-2.635 -0.425,0.902 c -0.33,0.702 -0.797,1.206 -1.426,1.543 l -0.047,0.024 c -0.149,-0.098 -0.345,-0.196 -0.594,-0.213 l -0.091,-0.006 -0.091,0.016 c -0.708,0.121 -1.069,-0.075 -1.758,-1.067 -0.746,-1.077 -1.513,-1.304 -2.024,-1.304 -0.598,0 -1.44,0.298 -2.063,1.717 l -0.269,0.615 0.573,0.351 c 1.548,0.943 1.887,2.417 1.93,4.487 0.01,0.378 0,0.758 0,1.139 -0.012,0.958 -0.026,1.949 0.161,2.926 0.693,3.624 3.631,4.088 6.112,4.088 0.171,0 0.347,-0.002 0.527,-0.006 0.663,-0.047 1.238,-0.07 1.788,-0.07 1.564,0 2.939,0.186 4.203,0.565 1.958,0.589 2.966,1.547 3.372,3.205 0.645,2.637 2.457,4.169 4.974,4.2 l 0.071,10e-4 c 2.398,0 4.076,-1.553 4.725,-4.374 0.21,-0.916 0.517,-1.807 0.841,-2.752 0.785,-2.283 1.596,-4.645 0.955,-7.325 l -0.036,-0.113 -0.698,-1.709 -2.318,-2.153 -4.662,-3.099 -0.298,0.048 c -0.19,0.032 -0.367,0.048 -0.523,0.048 -0.525,0 -0.689,-0.171 -0.742,-0.226 -0.126,-0.131 -0.209,-0.344 -0.248,-0.628 l 0.662,-0.133 -0.671,-0.773 0.028,-0.667 -0.518,0.105 z" />
      <path
         inkscape:connector-curvature="0"
         id="path2390"
         style="fill:#045e73;fill-opacity:1;fill-rule:nonzero;stroke:none"
         d="m 1630.5254,392.7656 c 0.976,0 1.998,-0.583 3.22,-1.839 0.697,-0.717 1.009,-0.867 1.147,-0.867 0.063,0 0.287,0.141 0.572,0.777 0.639,1.434 1.758,2.135 3.419,2.146 l -0.067,0.919 c -1.157,5.883 -3.39,8.07 -8.226,8.07 -0.407,0 -0.841,-0.017 -1.294,-0.048 l -0.46,-0.105 -1.505,-0.699 -0.428,-0.337 -0.523,-0.609 -0.584,-0.907 -0.877,-3.053 c 0.258,-2.057 1.162,-3.935 2.751,-5.713 0.618,1.157 1.518,2.265 2.855,2.265 m -2.367,-4.938 -0.806,0.785 c -2.369,2.311 -3.671,4.791 -3.979,7.58 l -0.016,0.151 1.024,3.564 0.797,1.226 0.716,0.813 0.707,0.527 1.817,0.826 0.709,0.153 c 0.51,0.038 1.003,0.056 1.463,0.056 5.624,0 8.447,-2.712 9.744,-9.357 l 0.011,-0.09 0.204,-2.764 -0.92,0.104 c -0.262,0.029 -0.494,0.044 -0.708,0.044 -1.067,0 -1.662,-0.358 -2.054,-1.236 -0.5,-1.119 -1.164,-1.686 -1.975,-1.686 -0.88,0 -1.622,0.686 -2.249,1.331 -0.888,0.912 -1.6,1.375 -2.118,1.375 -0.615,0 -1.264,-0.796 -1.929,-2.366 z" />
      <path
         inkscape:connector-curvature="0"
         id="path2394"
         style="fill:#045e73;fill-opacity:1;fill-rule:nonzero;stroke:none"
         d="m 1608.0146,397.8135 3.583,-1.735 1.796,0.871 c 0,0.044 0,0.087 0,0.131 -0.021,0.52 -0.042,1.11 0.19,1.659 0.691,1.634 0.372,2.581 -1.221,3.622 -1.067,0.695 -1.189,1.889 -1.288,2.849 -0.12,1.165 -0.237,1.661 -0.916,1.895 -1.887,0.651 -2.616,1.687 -2.52,3.574 0.035,0.649 -0.162,1.478 -1.289,1.739 -0.911,0.209 -1.615,-0.059 -2.211,-0.858 -0.629,-0.845 -0.562,-1.601 0.205,-2.313 1.284,-1.192 1.717,-2.548 1.361,-4.27 -0.133,-0.638 -0.061,-1.195 0.174,-1.353 2.029,-1.371 2.075,-3.312 2.115,-5.025 0.01,-0.27 0.012,-0.53 0.025,-0.786 m 3.561,-3.454 -1.144,0.592 -3.877,1.857 -0.04,0.434 c -0.042,0.444 -0.052,0.89 -0.062,1.321 -0.038,1.598 -0.067,2.86 -1.439,3.786 -0.796,0.538 -1.095,1.61 -0.819,2.94 0.246,1.19 -0.015,2.008 -0.9,2.83 -1.347,1.252 -1.494,2.88 -0.392,4.358 0.951,1.279 2.285,1.788 3.79,1.438 1.616,-0.373 2.564,-1.645 2.478,-3.316 -0.061,-1.192 0.244,-1.612 1.486,-2.041 1.673,-0.577 1.828,-2.088 1.943,-3.188 0.091,-0.885 0.168,-1.441 0.599,-1.722 2.207,-1.441 2.777,-3.191 1.797,-5.508 -0.099,-0.234 -0.085,-0.608 -0.071,-1.003 0.01,-0.237 0.018,-0.475 0.01,-0.705 l -0.021,-0.457 z" />
      <path
         inkscape:connector-curvature="0"
         id="path2398"
         style="fill:#045e73;fill-opacity:1;fill-rule:nonzero;stroke:none"
         d="m 1610.3643,392.0713 c 1.448,0 2.534,-0.664 3.319,-2.031 0.135,-0.237 0.41,-0.631 0.728,-0.631 0.302,0 0.714,0.313 1.104,0.836 0.838,1.129 1.782,2.172 3.004,2.172 1.147,0 2.141,-0.93 3.045,-1.936 0.375,-0.418 0.793,-0.637 1.28,-0.775 -0.107,0.404 -0.198,0.775 -0.282,1.117 -0.512,2.093 -0.731,2.983 -2.865,4.715 -2.181,0.549 -3.746,0.602 -5.265,0.206 l -2.386,-1.157 -2.462,-2.569 c 0.26,0.033 0.522,0.053 0.78,0.053 m 14.099,-4.208 -0.821,0.12 c -1.153,0.169 -2.267,0.409 -3.222,1.47 -0.873,0.973 -1.478,1.426 -1.901,1.426 -0.422,0 -0.984,-0.493 -1.77,-1.55 -0.896,-1.204 -1.765,-1.458 -2.338,-1.458 -0.469,0 -1.36,0.182 -2.061,1.402 -0.635,1.109 -1.33,1.261 -1.986,1.261 -0.491,0 -1.036,-0.103 -1.599,-0.216 l -0.88,-0.18 -0.099,2.227 3.341,3.485 2.836,1.361 c 1.838,0.497 3.706,0.442 6.279,-0.227 l 0.158,-0.042 0.129,-0.101 c 2.662,-2.125 2.969,-3.378 3.526,-5.652 0.132,-0.538 0.282,-1.148 0.484,-1.849 l 0.049,-0.171 -0.031,-0.176 c -0.017,-0.1 -0.03,-0.201 -0.037,-0.303 z" />
      <path
         inkscape:connector-curvature="0"
         id="path2402"
         style="fill:#045e73;fill-opacity:1;fill-rule:nonzero;stroke:none"
         d="m 1624.8506,409.209 c 0.087,-0.084 0.154,-0.175 0.203,-0.275 -0.056,0.276 -0.057,0.522 -0.054,0.686 l -0.207,0.409 c 0.027,-0.223 0.039,-0.454 0.037,-0.688 l 0.038,-0.015 z m -0.726,-3.916 c 0.15,-0.1 0.291,-0.204 0.427,-0.314 -0.167,0.488 -0.254,1.024 -0.18,1.63 l 0.489,-0.06 0.118,0.212 -0.302,0.376 c 0.306,0.244 0.743,0.244 1.039,0.087 -0.016,0.14 -0.04,0.289 -0.065,0.442 -0.01,0.046 -0.015,0.094 -0.022,0.143 l -0.01,0.006 -0.01,0.045 c -0.234,0.232 -0.379,0.492 -0.469,0.745 0.049,-0.54 -0.378,-0.878 -0.61,-1.064 l -0.213,-0.173 -0.191,-0.036 c -0.328,-0.063 -0.562,-0.047 -0.824,0.076 0.334,-0.673 0.615,-1.37 0.818,-2.115 m 2.504,-4.727 -1.211,0.022 -0.408,0.402 -0.064,0.283 c -0.18,1.283 -0.797,2.223 -1.885,2.875 l -0.276,0.167 -0.076,0.314 c -0.414,1.729 -1.382,3.253 -2.41,4.868 -0.958,1.507 -1.95,3.066 -2.685,5.019 l -1.108,2.941 2.34,-2.099 c 2.033,-1.824 3.326,-3.275 4.287,-4.834 -0.143,0.545 -0.367,1.087 -0.595,1.645 -0.478,1.163 -0.973,2.365 -0.87,3.793 l 0.162,2.237 1.245,-1.866 c 0.186,-0.279 0.377,-0.554 0.568,-0.83 0.87,-1.258 1.771,-2.558 2.213,-4.166 l 0.474,-0.94 c 0.191,-0.239 0.266,-0.542 0.208,-0.844 0,-0.466 0.108,-0.575 0.234,-0.661 l 0.293,-0.197 0.103,-0.783 c 10e-4,-10e-4 10e-4,-0.003 10e-4,-0.005 0.028,-0.167 0.056,-0.345 0.078,-0.532 l 0.096,-0.687 -0.073,0.048 c 0,-0.034 0,-0.067 -0.01,-0.1 -0.037,-0.434 -0.135,-1.578 -1.075,-1.587 0.14,-0.281 0.315,-0.564 0.5,-0.861 0.408,-0.658 0.869,-1.402 1,-2.302 l 0.063,-0.442 z" />
      <path
         inkscape:connector-curvature="0"
         id="path2406"
         style="fill:#045e73;fill-opacity:1;fill-rule:nonzero;stroke:none"
         d="m 1607.1055,396.5449 -2.569,-0.004 c -2.747,-0.003 -5.493,-0.007 -8.24,-0.021 -0.948,-0.007 -1.054,-0.091 -1.106,-0.315 -0.031,-0.133 -0.019,-0.183 -0.019,-0.183 0.053,-0.051 0.288,-0.117 0.494,-0.167 0.663,0.413 1.355,0.472 1.908,0.472 0.208,0 0.419,-0.011 0.628,-0.018 0.184,-0.011 0.37,-0.019 0.552,-0.019 l 0.073,0.001 c 2.877,0.042 5.754,0.065 8.631,0.085 z m -11.084,-2.356 -0.514,0.123 c -0.606,0.141 -2.216,0.519 -1.814,2.241 0.348,1.489 1.787,1.499 2.56,1.504 2.784,0.014 5.532,0.018 8.281,0.022 l 2.92,0.005 6.653,-3.19 -6.398,-0.052 c -2.954,-0.024 -5.908,-0.046 -8.861,-0.089 h -0.095 c -0.206,0 -0.414,0.01 -0.623,0.019 -0.186,0.008 -0.373,0.017 -0.557,0.017 -0.597,0 -0.947,-0.099 -1.255,-0.354 z" />
      <path
         inkscape:connector-curvature="0"
         id="path2410"
         style="fill:#045e73;fill-opacity:1;fill-rule:nonzero;stroke:none"
         d="m 1619.29,407.3633 c 0.741,-0.94 1.517,-1.896 2.329,-2.854 -0.033,0.165 -0.059,0.333 -0.078,0.505 l -1.056,1.004 c -0.4,0.461 -0.794,0.913 -1.195,1.345 m 5.931,-8.996 -0.675,0.676 c -3.627,3.631 -6.704,7.597 -9.235,10.998 l -0.435,0.586 0.561,0.465 c 0.092,0.077 0.186,0.151 0.282,0.221 l 0.361,0.271 0.411,-0.182 c 2.202,-0.977 3.703,-2.705 5.154,-4.376 l 0.042,-0.047 0.481,-0.454 c 0.022,-0.017 0.044,-0.036 0.064,-0.056 v 0.001 l 0.646,-0.612 0.151,-0.189 0.02,-0.247 c 0.103,-1.687 0.986,-2.705 2.863,-3.302 h 0.563 l 0.065,-1.699 z" />
      <path
         inkscape:connector-curvature="0"
         id="path2414"
         style="fill:#045e73;fill-opacity:1;fill-rule:nonzero;stroke:none"
         d="m 1627.9414,401.6162 -0.646,4.629 v 14.67 l 1.425,-2.355 c 1.153,-1.904 1.191,-3.444 1.224,-4.803 0.01,-0.261 0.013,-0.518 0.027,-0.773 l -0.02,-10.912 z" />
      <path
         inkscape:connector-curvature="0"
         id="path2418"
         style="fill:#045e73;fill-opacity:1;fill-rule:nonzero;stroke:none"
         d="m 1670.1152,396.5029 6.674,-0.3 c 0.049,0.088 0.079,0.154 0.097,0.202 -0.109,0.04 -0.339,0.096 -0.78,0.109 -1.513,0.04 -3.057,0.044 -4.552,0.048 -0.47,0.002 -0.942,0.003 -1.414,0.005 z m 7.438,-1.873 -9.686,0.436 1.244,3.044 0.52,-0.003 c 0.642,-0.005 1.286,-0.006 1.927,-0.009 1.504,-0.002 3.057,-0.007 4.589,-0.048 0.741,-0.019 1.773,-0.14 2.167,-0.961 0.428,-0.884 -0.283,-1.827 -0.516,-2.136 z" />
      <path
         inkscape:connector-curvature="0"
         id="path2422"
         style="fill:#045e73;fill-opacity:1;fill-rule:nonzero;stroke:none"
         d="m 1631.959,401.5605 -0.785,0.9 c -0.983,1.124 -0.909,2.28 -0.85,3.208 0.017,0.264 0.032,0.514 0.023,0.743 v 0.054 l 0.01,0.054 1.08,10.954 1.195,-2.164 c 1.031,-1.866 0.965,-3.4 0.906,-4.753 -0.013,-0.319 -0.027,-0.634 -0.025,-0.944 v -0.227 l -0.119,-0.19 c -0.515,-0.818 -0.48,-1.762 -0.438,-2.857 0.041,-1.122 0.088,-2.395 -0.498,-3.689 z" />
      <path
         inkscape:connector-curvature="0"
         id="path2426"
         style="fill:#045e73;fill-opacity:1;fill-rule:nonzero;stroke:none"
         d="m 1626.1875,405.0488 c 0.14,-0.281 0.315,-0.563 0.5,-0.861 0.252,-0.407 0.524,-0.846 0.727,-1.335 l 0.331,0.154 -0.412,2.91 -0.145,0.171 c -0.103,-0.481 -0.35,-1.034 -1.001,-1.039 m 0.125,-4.405 -0.146,1.024 c -0.085,0.58 -0.425,1.129 -0.786,1.708 -0.549,0.887 -1.172,1.889 -1.008,3.234 l 0.032,0.268 0.272,0.259 c 0.306,0.244 0.743,0.244 1.039,0.087 -0.016,0.14 -0.04,0.289 -0.065,0.442 -0.027,0.18 -0.057,0.362 -0.076,0.539 l -0.274,2.508 3.492,-4.142 0.634,-4.478 z" />
      <path
         inkscape:connector-curvature="0"
         id="path2430"
         style="fill:#045e73;fill-opacity:1;fill-rule:nonzero;stroke:none"
         d="m 1623.4531,403.8857 c 0.226,-0.416 0.546,-0.769 0.97,-1.063 -0.244,0.407 -0.567,0.761 -0.97,1.063 m 3.184,-3.604 -1.161,0.365 c -2.487,0.781 -3.82,2.355 -3.962,4.68 l -0.081,1.309 2.418,-1.169 c 1.491,-0.893 2.372,-2.232 2.617,-3.979 z" />
      <path
         inkscape:connector-curvature="0"
         id="path2434"
         style="fill:#045e73;fill-opacity:1;fill-rule:nonzero;stroke:none"
         d="m 1626.9961,406.8896 -1.081,0.727 c -0.939,0.629 -0.921,1.66 -0.915,2.047 l 0.029,1.697 1.257,-1.141 c 0.606,-0.552 0.891,-1.254 0.823,-2.032 z" />
      <path
         inkscape:connector-curvature="0"
         id="path2438"
         style="fill:#045e73;fill-opacity:1;fill-rule:nonzero;stroke:none"
         d="m 1621.7529,404.8164 -0.568,0.531 1.047,1.123 0.569,-0.529 z" />
      <path
         inkscape:connector-curvature="0"
         id="path2442"
         style="fill:#045e73;fill-opacity:1;fill-rule:nonzero;stroke:none"
         d="m 1621.1318,405.3896 -0.526,0.497 1.053,1.119 0.525,-0.494 z" />
      <path
         inkscape:connector-curvature="0"
         id="path2446"
         style="fill:#045e73;fill-opacity:1;fill-rule:nonzero;stroke:none"
         d="m 1649.9043,389.0889 -1.497,0.349 c 0.019,0.084 0.027,0.172 0.024,0.257 l -0.016,0.379 3.936,3.296 0.494,-0.423 c 0.108,-0.09 0.215,-0.185 0.321,-0.281 l 0.259,-0.232 v -0.348 c 0,-0.075 0.01,-0.147 0.033,-0.22 l -0.811,-0.256 -2.693,-2.255 c -0.011,-0.09 -0.026,-0.178 -0.047,-0.266" />
      <path
         inkscape:connector-curvature="0"
         id="path2450"
         style="fill:#045e73;fill-opacity:1;fill-rule:nonzero;stroke:none"
         d="m 1652.499,391.2021 -0.356,0.318 c -0.098,0.086 -0.197,0.174 -0.295,0.259 l -0.636,0.543 4.265,4.217 1.747,-1.569 -0.784,-0.558 c -0.426,-0.302 -0.792,-0.718 -1.178,-1.155 -0.604,-0.686 -1.289,-1.461 -2.321,-1.876 z" />
      <path
         inkscape:connector-curvature="0"
         id="path2454"
         style="fill:#045e73;fill-opacity:1;fill-rule:nonzero;stroke:none"
         d="m 1657.8047,393.8848 -2.168,0.442 -1.179,1.061 0.435,0.563 c 0.263,0.341 0.283,0.755 0.295,1.402 0.01,0.524 0.019,1.118 0.259,1.705 l 0.264,0.649 0.67,-0.205 c 1.237,-0.376 1.084,-1.441 1.035,-1.792 -0.01,-0.047 -0.015,-0.108 -0.02,-0.157 l 0.444,-0.988 0.924,-1.601 -0.406,-0.418 c -0.092,-0.093 -0.179,-0.191 -0.26,-0.294 z" />
      <path
         inkscape:connector-curvature="0"
         id="path2458"
         style="fill:#045e73;fill-opacity:1;fill-rule:nonzero;stroke:none"
         d="m 1660.2402,398.2881 -1.334,1.372 0.326,0.513 c 0.561,0.882 1.281,1.76 2.753,2.197 l 1.223,0.362 -0.249,-1.25 c -0.281,-1.407 -1.205,-2.08 -1.947,-2.621 z" />
      <path
         inkscape:connector-curvature="0"
         id="path2462"
         style="fill:#045e73;fill-opacity:1;fill-rule:nonzero;stroke:none"
         d="m 1658.1631,393.6807 c -0.376,0 -0.747,0.145 -1.136,0.445 l -0.621,0.48 0.494,0.61 c 0.112,0.139 0.231,0.276 0.356,0.404 l 0.369,0.378 2.451,-1.052 -0.839,-0.803 c -0.398,-0.383 -0.803,-0.462 -1.074,-0.462" />
      <path
         inkscape:connector-curvature="0"
         id="path2466"
         style="fill:#045e73;fill-opacity:1;fill-rule:nonzero;stroke:none"
         d="m 1633.791,381.8643 c 1.649,-1.345 2.736,-3.093 3.787,-4.785 0.229,-0.365 0.454,-0.731 0.687,-1.09 1.224,-1.898 1.842,-2.418 2.88,-2.418 0.523,0 1.18,0.131 2.123,0.424 l 0.539,0.34 c 0.216,0.956 -0.01,1.924 -0.243,2.943 -0.15,0.648 -0.305,1.318 -0.354,2.017 l -0.358,0.52 -0.034,0.134 c -0.327,1.29 -0.771,2.589 -1.202,3.845 -0.788,2.302 -1.602,4.679 -1.787,7.236 l -0.439,0.395 c -1.386,0.112 -2.077,-0.217 -2.523,-1.215 -0.5,-1.119 -1.164,-1.687 -1.974,-1.687 -0.88,0 -1.623,0.687 -2.249,1.331 -0.888,0.912 -1.601,1.375 -2.119,1.375 -0.595,0 -1.224,-0.749 -1.868,-2.226 0.113,-0.129 0.232,-0.259 0.356,-0.392 0.615,-0.667 1.365,-1.478 1.481,-2.678 1.534,-1.066 2.496,-2.572 3.297,-4.069 m 7.354,-9.829 c -1.825,0 -2.837,1.05 -4.172,3.121 -0.237,0.366 -0.469,0.738 -0.701,1.112 -1.055,1.698 -2.051,3.301 -3.56,4.492 l -0.128,0.101 -0.075,0.144 c -0.896,1.688 -1.777,2.991 -3.173,3.851 l -0.382,0.236 0.017,0.449 c 0.029,0.776 -0.394,1.275 -1.088,2.027 -0.216,0.233 -0.44,0.475 -0.646,0.738 l -0.182,0.233 0.021,0.296 c 0.011,0.155 0.029,0.309 0.057,0.463 l 0.049,0.166 c 0.6,1.418 1.6,3.302 3.343,3.302 0.976,0 1.998,-0.584 3.22,-1.839 0.697,-0.717 1.009,-0.868 1.148,-0.868 0.062,0 0.287,0.141 0.572,0.778 0.644,1.445 1.775,2.145 3.457,2.145 0.271,0 0.559,-0.017 0.88,-0.053 l 0.245,-0.027 1.282,-1.154 0.016,-0.318 c 0.125,-2.463 0.903,-4.734 1.726,-7.138 0.426,-1.242 0.866,-2.527 1.202,-3.831 l 0.453,-0.658 0.01,-0.221 c 0.023,-0.637 0.171,-1.279 0.329,-1.957 0.292,-1.263 0.593,-2.57 0.141,-4.011 l -0.084,-0.27 -1.295,-0.787 c -1.148,-0.362 -1.975,-0.522 -2.679,-0.522" />
      <path
         inkscape:connector-curvature="0"
         id="path2470"
         style="fill:#045e73;fill-opacity:1;fill-rule:nonzero;stroke:none"
         d="m 1625.0723,398.6484 -0.137,3.487 3.08,-0.057 z" />
      <path
         inkscape:connector-curvature="0"
         id="path2474"
         style="fill:#045e73;fill-opacity:1;fill-rule:nonzero;stroke:none"
         d="m 1609.127,390.3887 c -0.869,-1.801 -0.934,-3.917 -0.168,-5.86 0.883,-2.246 2.71,-3.975 5.013,-4.743 0.761,-0.251 1.509,-0.376 2.286,-0.376 2.04,0 3.973,0.877 5.846,1.759 l 2.776,4.52 c -0.039,0.676 -0.449,1.153 -1.086,1.844 -0.148,0.16 -0.3,0.325 -0.448,0.496 -1.047,0.172 -2.053,0.454 -2.926,1.424 -0.873,0.974 -1.478,1.426 -1.9,1.426 -0.422,0 -0.985,-0.492 -1.771,-1.55 -0.895,-1.205 -1.767,-1.458 -2.338,-1.458 -0.469,0 -1.36,0.183 -2.06,1.403 -0.635,1.108 -1.33,1.261 -1.987,1.261 -0.384,0 -0.803,-0.064 -1.237,-0.146 m 7.131,-12.517 c -0.945,0 -1.852,0.15 -2.772,0.456 -2.736,0.912 -4.908,2.967 -5.959,5.638 -0.976,2.484 -0.826,5.207 0.412,7.474 l 0.171,0.313 0.35,0.072 c 0.616,0.126 1.271,0.247 1.904,0.247 1.451,0 2.534,-0.664 3.32,-2.032 0.134,-0.236 0.41,-0.63 0.727,-0.63 0.302,0 0.714,0.313 1.105,0.835 0.838,1.129 1.781,2.172 3.004,2.172 1.146,0 2.14,-0.929 3.045,-1.935 0.614,-0.684 1.34,-0.836 2.299,-0.977 l 0.305,-0.044 0.19,-0.242 c 0.168,-0.215 0.36,-0.423 0.564,-0.642 0.69,-0.749 1.551,-1.679 1.495,-3.134 l -0.01,-0.201 -3.232,-5.257 -0.213,-0.108 c -1.99,-0.939 -4.246,-2.005 -6.707,-2.005" />
      <path
         inkscape:connector-curvature="0"
         id="path2478"
         style="fill:#045e73;fill-opacity:1;fill-rule:nonzero;stroke:none"
         d="m 1625.252,405.5605 -0.707,0.42 0.403,0.728 -0.347,0.359 0.022,0.022 0.342,-0.352 0.324,0.585 1.209,-0.559 z" />
      <path
         d="m 1693.4961,405.8848 c 0,-34.867 -28.266,-63.133 -63.133,-63.133 -34.865,0 -63.131,28.266 -63.131,63.133 0,34.865 28.266,63.131 63.131,63.131 34.867,0 63.133,-28.266 63.133,-63.131"
         style="fill:#ffffff;fill-opacity:1;fill-rule:nonzero;stroke:none"
         id="path2488"
         inkscape:connector-curvature="0" />
      <path
         d="m 1693.4961,405.8848 c 0,-34.867 -28.266,-63.133 -63.133,-63.133 -34.865,0 -63.131,28.266 -63.131,63.133 0,34.865 28.266,63.131 63.131,63.131 34.867,0 63.133,-28.266 63.133,-63.131 z"
         style="fill:none;stroke:#00b7b7;stroke-width:3;stroke-linecap:butt;stroke-linejoin:miter;stroke-miterlimit:10;stroke-dasharray:none;stroke-opacity:1"
         id="path2492"
         inkscape:connector-curvature="0" />
      <path
         d="m 1641.6846,427.3193 3.722,6.205 3.721,-6.205 c 1.234,-2.059 0.565,-4.724 -1.491,-5.954 -2.056,-1.233 -4.722,-0.567 -5.952,1.49 -0.822,1.375 -0.822,3.092 0,4.464 m -0.507,-9.012 c 3.504,-2.34 8.238,-1.395 10.578,2.11 1.638,2.453 1.714,5.632 0.194,8.163 l -4.514,7.52 c -0.672,1.119 -2.124,1.484 -3.244,0.81 -0.332,-0.199 -0.611,-0.479 -0.811,-0.81 l -4.513,-7.52 c -2.1,-3.492 -1.082,-8.019 2.31,-10.273"
         style="fill:#00b7b7;fill-opacity:1;fill-rule:nonzero;stroke:none"
         id="path2496"
         inkscape:connector-curvature="0" />
      <path
         d="m 1633.0762,446.5596 2.396,3.996 2.398,-3.996 c 0.794,-1.326 0.363,-3.043 -0.96,-3.835 -1.324,-0.794 -3.041,-0.365 -3.834,0.96 -0.529,0.885 -0.529,1.991 0,2.875 m -0.326,-5.805 c 2.256,-1.506 5.305,-0.898 6.812,1.36 1.055,1.579 1.104,3.627 0.125,5.257 l -2.907,4.842 c -0.433,0.721 -1.368,0.956 -2.089,0.522 -0.215,-0.128 -0.394,-0.308 -0.523,-0.522 l -2.906,-4.842 c -1.353,-2.249 -0.698,-5.165 1.488,-6.617"
         style="fill:#00b7b7;fill-opacity:1;fill-rule:nonzero;stroke:none"
         id="path2500"
         inkscape:connector-curvature="0" />
      <path
         d="m 1613.9971,364.8926 c 1.131,-0.396 2.258,-0.832 3.351,-1.254 2.779,-1.074 5.654,-2.187 8.656,-2.673 2.514,-0.407 5.029,-0.614 7.473,-0.614 6.15,0 12.187,1.312 17.94,3.895 0.44,0.199 0.89,0.358 1.323,0.511 0.127,0.043 0.254,0.088 0.38,0.135 0.712,0.861 1.661,1.322 2.505,1.731 0.296,0.145 0.58,0.282 0.848,0.432 0.417,0.693 1.019,1.14 1.555,1.538 0.187,0.138 0.373,0.276 0.552,0.425 9.105,7.64 14.079,17.28 14.795,28.664 l -7.095,0.319 -1.38,-1.29 c 0.956,-1.367 1.989,-2.484 3.801,-2.878 1.369,-0.295 2.158,-0.878 2.346,-1.73 0.193,-0.884 -0.325,-1.797 -1.541,-2.711 -0.777,-0.585 -1.203,-1.245 -1.526,-2.357 -4.156,-14.346 -17.774,-24.369 -33.116,-24.369 -12.354,0 -21.499,3.667 -28.775,11.543 -3.351,3.624 -5.675,7.817 -6.908,12.46 -0.369,1.387 -0.699,2.333 -1.877,2.813 -0.499,0.203 -1.823,0.743 -1.634,2.238 0.088,0.685 0.498,1.573 1.96,1.924 1.441,0.345 2.938,0.867 4.119,2.333 0.491,0.609 1.136,0.933 1.862,0.933 0.645,0 1.323,-0.27 1.932,-0.755 l 1.636,1.706 -2.469,-0.02 c -2.954,-0.023 -5.908,-0.046 -8.861,-0.089 h -0.095 c -0.206,0 -0.414,0.01 -0.623,0.019 -0.187,0.009 -0.373,0.017 -0.558,0.017 -0.374,0 -0.651,-0.039 -0.882,-0.13 0.026,-0.115 0.051,-0.229 0.077,-0.344 0.142,-0.639 0.291,-1.3 0.373,-1.977 0.787,-6.496 2.735,-12.031 5.956,-16.919 2.911,-4.422 6.671,-7.936 10.927,-11.73 1.007,-0.296 2.196,-0.689 2.973,-1.796 m 19.48,-6.078 c -2.526,0 -5.124,0.213 -7.719,0.634 -3.16,0.51 -6.112,1.652 -8.965,2.756 -1.16,0.449 -2.36,0.913 -3.549,1.324 l -0.268,0.093 -0.142,0.242 c -0.463,0.783 -1.253,1.061 -2.405,1.396 l -0.167,0.049 -0.13,0.114 c -4.393,3.913 -8.277,7.529 -11.32,12.15 -3.353,5.092 -5.381,10.841 -6.198,17.579 -0.072,0.602 -0.206,1.198 -0.347,1.828 -0.067,0.298 -0.133,0.597 -0.193,0.894 l -0.091,0.452 0.353,0.292 c 0.757,0.629 1.593,0.71 2.237,0.71 0.208,0 0.419,-0.011 0.628,-0.019 0.185,-0.011 0.37,-0.019 0.553,-0.019 l 0.072,10e-4 c 2.958,0.043 5.916,0.065 8.873,0.088 l 3.269,0.026 1.884,-0.976 -4.307,-4.496 -0.553,0.63 c -0.445,0.508 -0.962,0.81 -1.381,0.81 -0.161,0 -0.405,-0.037 -0.666,-0.361 -1.473,-1.829 -3.333,-2.473 -4.958,-2.861 -0.735,-0.177 -0.77,-0.456 -0.792,-0.623 -0.023,-0.181 -0.04,-0.323 0.688,-0.619 1.976,-0.806 2.443,-2.563 2.784,-3.844 1.167,-4.399 3.372,-8.371 6.552,-11.812 6.965,-7.537 15.75,-11.048 27.645,-11.048 14.662,10e-4 27.673,9.566 31.639,23.259 0.414,1.428 1.036,2.372 2.078,3.157 0.853,0.64 0.984,1.059 0.963,1.154 -0.018,0.083 -0.272,0.363 -1.169,0.557 -2.604,0.564 -3.956,2.319 -5.12,4.068 l -0.361,0.542 2.809,2.627 9.283,-0.42 -0.034,-0.769 c -0.558,-12.165 -5.732,-22.44 -15.384,-30.54 -0.202,-0.167 -0.414,-0.324 -0.625,-0.481 -0.518,-0.385 -0.966,-0.716 -1.215,-1.209 l -0.101,-0.199 -0.191,-0.113 c -0.376,-0.225 -0.765,-0.415 -1.141,-0.597 -0.815,-0.395 -1.585,-0.768 -2.084,-1.449 l -0.135,-0.185 -0.216,-0.08 c -0.201,-0.075 -0.404,-0.147 -0.606,-0.219 -0.424,-0.149 -0.824,-0.291 -1.206,-0.464 -5.954,-2.673 -12.202,-4.029 -18.571,-4.029"
         style="fill:#00b7b7;fill-opacity:1;fill-rule:nonzero;stroke:none"
         id="path2504"
         inkscape:connector-curvature="0" />
      <path
         d="m 1651.415,395.3584 c 1.329,-0.117 2.685,-0.579 3.402,-2.493 0.104,-0.276 0.2,-0.388 0.739,-0.388 0.15,0 0.303,0.008 0.457,0.017 0.082,0.006 0.162,0.01 0.242,0.012 l -0.01,0.144 0.092,-0.018 c 0.095,0.574 0.311,1.039 0.645,1.386 0.53,0.553 1.3,0.784 2.315,0.676 l 4.116,2.736 1.926,1.802 0.548,1.341 c 0.511,2.222 -0.187,4.259 -0.927,6.413 -0.323,0.939 -0.657,1.912 -0.886,2.907 -0.731,3.18 -2.609,3.18 -3.226,3.18 h -0.053 c -2.287,-0.028 -3.166,-1.662 -3.498,-3.028 -0.538,-2.197 -1.944,-3.567 -4.424,-4.312 -1.41,-0.424 -2.93,-0.63 -4.645,-0.63 -0.588,0 -1.198,0.024 -1.865,0.072 -0.131,0.002 -0.293,0.004 -0.45,0.004 -3.38,0 -4.267,-1.087 -4.603,-2.842 -0.156,-0.823 -0.145,-1.694 -0.133,-2.615 0,-0.399 0.01,-0.797 0,-1.192 -0.042,-1.967 -0.336,-3.955 -2.058,-5.341 0.136,-0.177 0.261,-0.259 0.349,-0.259 0.157,0 0.454,0.199 0.76,0.643 0.64,0.92 1.485,1.909 3.04,1.739 0.164,0.121 0.439,0.324 0.819,0.324 0.232,0 0.558,-0.077 0.857,-0.419 0.574,-0.333 1.061,-0.775 1.451,-1.318 l 2.428,2.033 3.091,3.055 c 0.237,0.334 0.258,0.741 0.268,1.365 0.01,0.525 0.02,1.118 0.259,1.705 l 0.265,0.65 0.67,-0.205 c 0.651,-0.199 0.916,-0.587 1.015,-0.962 0.539,0.712 1.186,1.309 1.934,1.783 0.547,0.831 1.268,1.634 2.655,2.047 l 1.223,0.362 -0.249,-1.25 c -0.281,-1.407 -1.205,-2.08 -1.946,-2.621 l -0.195,-0.144 -2.707,-2.622 0.234,-0.406 1.731,-0.744 -0.839,-0.803 c -0.398,-0.383 -0.803,-0.462 -1.074,-0.462 -0.325,0 -0.647,0.109 -0.979,0.332 -0.332,0.067 -0.665,0.135 -0.997,0.202 -0.322,-0.274 -0.617,-0.609 -0.925,-0.958 -0.26,-0.295 -0.535,-0.606 -0.847,-0.898 m 4.963,-5.607 -0.056,1.22 c -0.074,-0.004 -0.149,-0.009 -0.223,-0.011 -0.183,-0.011 -0.366,-0.021 -0.543,-0.021 v 0 c -0.414,0 -1.657,0.005 -2.175,1.387 -0.544,1.45 -1.466,1.524 -3.184,1.535 -0.163,10e-4 -0.324,0.003 -0.487,0.006 l -0.552,0.01 -0.081,0.256 -3.145,-2.635 -0.425,0.902 c -0.33,0.702 -0.797,1.206 -1.426,1.543 l -0.047,0.024 c -0.149,-0.098 -0.345,-0.196 -0.594,-0.213 l -0.091,-0.006 -0.091,0.016 c -0.708,0.121 -1.069,-0.075 -1.758,-1.067 -0.746,-1.077 -1.513,-1.304 -2.024,-1.304 -0.598,0 -1.44,0.298 -2.063,1.717 l -0.269,0.615 0.573,0.351 c 1.548,0.943 1.887,2.417 1.93,4.487 0.01,0.378 0,0.758 0,1.139 -0.012,0.958 -0.026,1.949 0.161,2.926 0.693,3.624 3.631,4.088 6.112,4.088 0.171,0 0.347,-0.002 0.527,-0.006 0.663,-0.047 1.238,-0.07 1.788,-0.07 1.564,0 2.939,0.186 4.203,0.565 1.958,0.589 2.966,1.547 3.372,3.205 0.645,2.637 2.457,4.169 4.974,4.2 l 0.071,10e-4 c 2.398,0 4.076,-1.553 4.725,-4.374 0.21,-0.916 0.517,-1.807 0.841,-2.752 0.785,-2.283 1.596,-4.645 0.955,-7.325 l -0.036,-0.113 -0.698,-1.709 -2.318,-2.153 -4.662,-3.099 -0.298,0.048 c -0.19,0.032 -0.367,0.048 -0.523,0.048 -0.525,0 -0.689,-0.171 -0.742,-0.226 -0.126,-0.131 -0.209,-0.344 -0.248,-0.628 l 0.662,-0.133 -0.671,-0.773 0.028,-0.667 -0.518,0.105 z"
         style="fill:#00b7b7;fill-opacity:1;fill-rule:nonzero;stroke:none"
         id="path2508"
         inkscape:connector-curvature="0" />
      <path
         d="m 1627.5254,395.7656 c 0.976,0 1.998,-0.583 3.22,-1.839 0.697,-0.717 1.009,-0.867 1.147,-0.867 0.063,0 0.287,0.141 0.572,0.777 0.639,1.434 1.758,2.135 3.419,2.146 l -0.067,0.919 c -1.157,5.883 -3.39,8.07 -8.226,8.07 -0.407,0 -0.841,-0.017 -1.294,-0.048 l -0.46,-0.105 -1.505,-0.699 -0.428,-0.337 -0.523,-0.609 -0.584,-0.907 -0.877,-3.053 c 0.258,-2.057 1.162,-3.935 2.751,-5.713 0.618,1.157 1.518,2.265 2.855,2.265 m -2.367,-4.938 -0.806,0.785 c -2.369,2.311 -3.671,4.791 -3.979,7.58 l -0.016,0.151 1.024,3.564 0.797,1.226 0.716,0.813 0.707,0.527 1.817,0.826 0.709,0.153 c 0.51,0.038 1.003,0.056 1.463,0.056 5.624,0 8.447,-2.712 9.744,-9.357 l 0.011,-0.09 0.204,-2.764 -0.92,0.104 c -0.262,0.029 -0.494,0.044 -0.708,0.044 -1.067,0 -1.662,-0.358 -2.054,-1.236 -0.5,-1.119 -1.164,-1.686 -1.975,-1.686 -0.88,0 -1.622,0.686 -2.249,1.331 -0.888,0.912 -1.6,1.375 -2.118,1.375 -0.615,0 -1.264,-0.796 -1.929,-2.366 z"
         style="fill:#00b7b7;fill-opacity:1;fill-rule:nonzero;stroke:none"
         id="path2512"
         inkscape:connector-curvature="0" />
      <path
         d="m 1605.0146,400.8135 3.583,-1.735 1.796,0.871 c 0,0.044 0,0.087 0,0.131 -0.021,0.52 -0.042,1.11 0.19,1.659 0.691,1.634 0.372,2.581 -1.221,3.622 -1.067,0.695 -1.189,1.889 -1.288,2.849 -0.12,1.165 -0.237,1.661 -0.916,1.895 -1.887,0.651 -2.616,1.687 -2.52,3.574 0.035,0.649 -0.162,1.478 -1.289,1.739 -0.911,0.209 -1.615,-0.059 -2.211,-0.858 -0.629,-0.845 -0.562,-1.601 0.205,-2.313 1.284,-1.192 1.717,-2.548 1.361,-4.27 -0.133,-0.638 -0.061,-1.195 0.174,-1.353 2.029,-1.371 2.075,-3.312 2.115,-5.025 0.01,-0.27 0.012,-0.53 0.025,-0.786 m 3.561,-3.454 -1.144,0.592 -3.877,1.857 -0.04,0.434 c -0.042,0.444 -0.052,0.89 -0.062,1.321 -0.038,1.598 -0.067,2.86 -1.439,3.786 -0.796,0.538 -1.095,1.61 -0.819,2.94 0.246,1.19 -0.015,2.008 -0.9,2.83 -1.347,1.252 -1.494,2.88 -0.392,4.358 0.951,1.279 2.285,1.788 3.79,1.438 1.616,-0.373 2.564,-1.645 2.478,-3.316 -0.061,-1.192 0.244,-1.612 1.486,-2.041 1.673,-0.577 1.828,-2.088 1.943,-3.188 0.091,-0.885 0.168,-1.441 0.599,-1.722 2.207,-1.441 2.777,-3.191 1.797,-5.508 -0.099,-0.234 -0.085,-0.608 -0.071,-1.003 0.01,-0.237 0.018,-0.475 0.01,-0.705 l -0.021,-0.457 z"
         style="fill:#00b7b7;fill-opacity:1;fill-rule:nonzero;stroke:none"
         id="path2516"
         inkscape:connector-curvature="0" />
      <path
         d="m 1607.3643,395.0713 c 1.448,0 2.534,-0.664 3.319,-2.031 0.135,-0.237 0.41,-0.631 0.728,-0.631 0.302,0 0.714,0.313 1.104,0.836 0.838,1.129 1.782,2.172 3.004,2.172 1.147,0 2.141,-0.93 3.045,-1.936 0.375,-0.418 0.793,-0.637 1.28,-0.775 -0.107,0.404 -0.198,0.775 -0.282,1.117 -0.512,2.093 -0.731,2.983 -2.865,4.715 -2.181,0.549 -3.746,0.602 -5.265,0.206 l -2.386,-1.157 -2.462,-2.569 c 0.26,0.033 0.522,0.053 0.78,0.053 m 14.099,-4.208 -0.821,0.12 c -1.153,0.169 -2.267,0.409 -3.222,1.47 -0.873,0.973 -1.478,1.426 -1.901,1.426 -0.422,0 -0.984,-0.493 -1.77,-1.55 -0.896,-1.204 -1.765,-1.458 -2.338,-1.458 -0.469,0 -1.36,0.182 -2.061,1.402 -0.635,1.109 -1.33,1.261 -1.986,1.261 -0.491,0 -1.036,-0.103 -1.599,-0.216 l -0.88,-0.18 -0.099,2.227 3.341,3.485 2.836,1.361 c 1.838,0.497 3.706,0.442 6.279,-0.227 l 0.158,-0.042 0.129,-0.101 c 2.662,-2.125 2.969,-3.378 3.526,-5.652 0.132,-0.538 0.282,-1.148 0.484,-1.849 l 0.049,-0.171 -0.031,-0.176 c -0.017,-0.1 -0.03,-0.201 -0.037,-0.303 z"
         style="fill:#00b7b7;fill-opacity:1;fill-rule:nonzero;stroke:none"
         id="path2520"
         inkscape:connector-curvature="0" />
      <path
         d="m 1621.8506,412.209 c 0.087,-0.084 0.154,-0.175 0.203,-0.275 -0.056,0.276 -0.057,0.522 -0.054,0.686 l -0.207,0.409 c 0.027,-0.223 0.039,-0.454 0.037,-0.688 l 0.038,-0.015 z m -0.726,-3.916 c 0.15,-0.1 0.291,-0.204 0.427,-0.314 -0.167,0.488 -0.254,1.024 -0.18,1.63 l 0.489,-0.06 0.118,0.212 -0.302,0.376 c 0.306,0.244 0.743,0.244 1.039,0.087 -0.016,0.14 -0.04,0.289 -0.065,0.442 -0.01,0.046 -0.015,0.094 -0.022,0.143 l -0.01,0.006 -0.01,0.045 c -0.234,0.232 -0.379,0.492 -0.469,0.745 0.049,-0.54 -0.378,-0.878 -0.61,-1.064 l -0.213,-0.173 -0.191,-0.036 c -0.328,-0.063 -0.562,-0.047 -0.824,0.076 0.334,-0.673 0.615,-1.37 0.818,-2.115 m 2.504,-4.727 -1.211,0.022 -0.408,0.402 -0.064,0.283 c -0.18,1.283 -0.797,2.223 -1.885,2.875 l -0.276,0.167 -0.076,0.314 c -0.414,1.729 -1.382,3.253 -2.41,4.868 -0.958,1.507 -1.95,3.066 -2.685,5.019 l -1.108,2.941 2.34,-2.099 c 2.033,-1.824 3.326,-3.275 4.287,-4.834 -0.143,0.545 -0.367,1.087 -0.595,1.645 -0.478,1.163 -0.973,2.365 -0.87,3.793 l 0.162,2.237 1.245,-1.866 c 0.186,-0.279 0.377,-0.554 0.568,-0.83 0.87,-1.258 1.771,-2.558 2.213,-4.166 l 0.474,-0.94 c 0.191,-0.239 0.266,-0.542 0.208,-0.844 0,-0.466 0.108,-0.575 0.234,-0.661 l 0.293,-0.197 0.103,-0.783 c 10e-4,-10e-4 10e-4,-0.003 10e-4,-0.005 0.028,-0.167 0.056,-0.345 0.078,-0.532 l 0.096,-0.687 -0.073,0.048 c 0,-0.034 0,-0.067 -0.01,-0.1 -0.037,-0.434 -0.135,-1.578 -1.075,-1.587 0.14,-0.281 0.315,-0.564 0.5,-0.861 0.408,-0.658 0.869,-1.402 1,-2.302 l 0.063,-0.442 z"
         style="fill:#00b7b7;fill-opacity:1;fill-rule:nonzero;stroke:none"
         id="path2524"
         inkscape:connector-curvature="0" />
      <path
         d="m 1604.1055,399.5449 -2.569,-0.004 c -2.747,-0.003 -5.493,-0.007 -8.24,-0.021 -0.948,-0.007 -1.054,-0.091 -1.106,-0.315 -0.031,-0.133 -0.019,-0.183 -0.019,-0.183 0.053,-0.051 0.288,-0.117 0.494,-0.167 0.663,0.413 1.355,0.472 1.908,0.472 0.208,0 0.419,-0.011 0.628,-0.018 0.184,-0.011 0.37,-0.019 0.552,-0.019 l 0.073,0.001 c 2.877,0.042 5.754,0.065 8.631,0.085 z m -11.084,-2.356 -0.514,0.123 c -0.606,0.141 -2.216,0.519 -1.814,2.241 0.348,1.489 1.787,1.499 2.56,1.504 2.784,0.014 5.532,0.018 8.281,0.022 l 2.92,0.005 6.653,-3.19 -6.398,-0.052 c -2.954,-0.024 -5.908,-0.046 -8.861,-0.089 h -0.095 c -0.206,0 -0.414,0.01 -0.623,0.019 -0.186,0.008 -0.373,0.017 -0.557,0.017 -0.597,0 -0.947,-0.099 -1.255,-0.354 z"
         style="fill:#00b7b7;fill-opacity:1;fill-rule:nonzero;stroke:none"
         id="path2528"
         inkscape:connector-curvature="0" />
      <path
         d="m 1616.29,410.3633 c 0.741,-0.94 1.517,-1.896 2.329,-2.854 -0.033,0.165 -0.059,0.333 -0.078,0.505 l -1.056,1.004 c -0.4,0.461 -0.794,0.913 -1.195,1.345 m 5.931,-8.996 -0.675,0.676 c -3.627,3.631 -6.704,7.597 -9.235,10.998 l -0.435,0.586 0.561,0.465 c 0.092,0.077 0.186,0.151 0.282,0.221 l 0.361,0.271 0.411,-0.182 c 2.202,-0.977 3.703,-2.705 5.154,-4.376 l 0.042,-0.047 0.481,-0.454 c 0.022,-0.017 0.044,-0.036 0.064,-0.056 v 0.001 l 0.646,-0.612 0.151,-0.189 0.02,-0.247 c 0.103,-1.687 0.986,-2.705 2.863,-3.302 h 0.563 l 0.065,-1.699 z"
         style="fill:#00b7b7;fill-opacity:1;fill-rule:nonzero;stroke:none"
         id="path2532"
         inkscape:connector-curvature="0" />
      <path
         d="m 1624.9414,404.6162 -0.646,4.629 v 14.67 l 1.425,-2.355 c 1.153,-1.904 1.191,-3.444 1.224,-4.803 0.01,-0.261 0.013,-0.518 0.027,-0.773 l -0.02,-10.912 z"
         style="fill:#00b7b7;fill-opacity:1;fill-rule:nonzero;stroke:none"
         id="path2536"
         inkscape:connector-curvature="0" />
      <path
         d="m 1667.1152,399.5029 6.674,-0.3 c 0.049,0.088 0.079,0.154 0.097,0.202 -0.109,0.04 -0.339,0.096 -0.78,0.109 -1.513,0.04 -3.057,0.044 -4.552,0.048 -0.47,0.002 -0.942,0.003 -1.414,0.005 z m 7.438,-1.873 -9.686,0.436 1.244,3.044 0.52,-0.003 c 0.642,-0.005 1.286,-0.006 1.927,-0.009 1.504,-0.002 3.057,-0.007 4.589,-0.048 0.741,-0.019 1.773,-0.14 2.167,-0.961 0.428,-0.884 -0.283,-1.827 -0.516,-2.136 z"
         style="fill:#00b7b7;fill-opacity:1;fill-rule:nonzero;stroke:none"
         id="path2540"
         inkscape:connector-curvature="0" />
      <path
         d="m 1628.959,404.5605 -0.785,0.9 c -0.983,1.124 -0.909,2.28 -0.85,3.208 0.017,0.264 0.032,0.514 0.023,0.743 v 0.054 l 0.01,0.054 1.08,10.954 1.195,-2.164 c 1.031,-1.866 0.965,-3.4 0.906,-4.753 -0.013,-0.319 -0.027,-0.634 -0.025,-0.944 v -0.227 l -0.119,-0.19 c -0.515,-0.818 -0.48,-1.762 -0.438,-2.857 0.041,-1.122 0.088,-2.395 -0.498,-3.689 z"
         style="fill:#00b7b7;fill-opacity:1;fill-rule:nonzero;stroke:none"
         id="path2544"
         inkscape:connector-curvature="0" />
      <path
         d="m 1623.1875,408.0488 c 0.14,-0.281 0.315,-0.563 0.5,-0.861 0.252,-0.407 0.524,-0.846 0.727,-1.335 l 0.331,0.154 -0.412,2.91 -0.145,0.171 c -0.103,-0.481 -0.35,-1.034 -1.001,-1.039 m 0.125,-4.405 -0.146,1.024 c -0.085,0.58 -0.425,1.129 -0.786,1.708 -0.549,0.887 -1.172,1.889 -1.008,3.234 l 0.032,0.268 0.272,0.259 c 0.306,0.244 0.743,0.244 1.039,0.087 -0.016,0.14 -0.04,0.289 -0.065,0.442 -0.027,0.18 -0.057,0.362 -0.076,0.539 l -0.274,2.508 3.492,-4.142 0.634,-4.478 z"
         style="fill:#00b7b7;fill-opacity:1;fill-rule:nonzero;stroke:none"
         id="path2548"
         inkscape:connector-curvature="0" />
      <path
         d="m 1620.4531,406.8857 c 0.226,-0.416 0.546,-0.769 0.97,-1.063 -0.244,0.407 -0.567,0.761 -0.97,1.063 m 3.184,-3.604 -1.161,0.365 c -2.487,0.781 -3.82,2.355 -3.962,4.68 l -0.081,1.309 2.418,-1.169 c 1.491,-0.893 2.372,-2.232 2.617,-3.979 z"
         style="fill:#00b7b7;fill-opacity:1;fill-rule:nonzero;stroke:none"
         id="path2552"
         inkscape:connector-curvature="0" />
      <path
         d="m 1623.9961,409.8896 -1.081,0.727 c -0.939,0.629 -0.921,1.66 -0.915,2.047 l 0.029,1.697 1.257,-1.141 c 0.606,-0.552 0.891,-1.254 0.823,-2.032 z"
         style="fill:#00b7b7;fill-opacity:1;fill-rule:nonzero;stroke:none"
         id="path2556"
         inkscape:connector-curvature="0" />
      <path
         d="m 1618.7529,407.8164 -0.568,0.531 1.047,1.123 0.569,-0.529 z"
         style="fill:#00b7b7;fill-opacity:1;fill-rule:nonzero;stroke:none"
         id="path2560"
         inkscape:connector-curvature="0" />
      <path
         d="m 1618.1318,408.3896 -0.526,0.497 1.053,1.119 0.525,-0.494 z"
         style="fill:#00b7b7;fill-opacity:1;fill-rule:nonzero;stroke:none"
         id="path2564"
         inkscape:connector-curvature="0" />
      <path
         d="m 1646.9043,392.0889 -1.497,0.349 c 0.019,0.084 0.027,0.172 0.024,0.257 l -0.016,0.379 3.936,3.296 0.494,-0.423 c 0.108,-0.09 0.215,-0.185 0.321,-0.281 l 0.259,-0.232 v -0.348 c 0,-0.075 0.01,-0.147 0.033,-0.22 l -0.811,-0.256 -2.693,-2.255 c -0.011,-0.09 -0.026,-0.178 -0.047,-0.266"
         style="fill:#00b7b7;fill-opacity:1;fill-rule:nonzero;stroke:none"
         id="path2568"
         inkscape:connector-curvature="0" />
      <path
         d="m 1649.499,394.2021 -0.356,0.318 c -0.098,0.086 -0.197,0.174 -0.295,0.259 l -0.636,0.543 4.265,4.217 1.747,-1.569 -0.784,-0.558 c -0.426,-0.302 -0.792,-0.718 -1.178,-1.155 -0.604,-0.686 -1.289,-1.461 -2.321,-1.876 z"
         style="fill:#00b7b7;fill-opacity:1;fill-rule:nonzero;stroke:none"
         id="path2572"
         inkscape:connector-curvature="0" />
      <path
         d="m 1654.8047,396.8848 -2.168,0.442 -1.179,1.061 0.435,0.563 c 0.263,0.341 0.283,0.755 0.295,1.402 0.01,0.524 0.019,1.118 0.259,1.705 l 0.264,0.649 0.67,-0.205 c 1.237,-0.376 1.084,-1.441 1.035,-1.792 -0.01,-0.047 -0.015,-0.108 -0.02,-0.157 l 0.444,-0.988 0.924,-1.601 -0.406,-0.418 c -0.092,-0.093 -0.179,-0.191 -0.26,-0.294 z"
         style="fill:#00b7b7;fill-opacity:1;fill-rule:nonzero;stroke:none"
         id="path2576"
         inkscape:connector-curvature="0" />
      <path
         d="m 1657.2402,401.2881 -1.334,1.372 0.326,0.513 c 0.561,0.882 1.281,1.76 2.753,2.197 l 1.223,0.362 -0.249,-1.25 c -0.281,-1.407 -1.205,-2.08 -1.947,-2.621 z"
         style="fill:#00b7b7;fill-opacity:1;fill-rule:nonzero;stroke:none"
         id="path2580"
         inkscape:connector-curvature="0" />
      <path
         d="m 1655.1631,396.6807 c -0.376,0 -0.747,0.145 -1.136,0.445 l -0.621,0.48 0.494,0.61 c 0.112,0.139 0.231,0.276 0.356,0.404 l 0.369,0.378 2.451,-1.052 -0.839,-0.803 c -0.398,-0.383 -0.803,-0.462 -1.074,-0.462"
         style="fill:#00b7b7;fill-opacity:1;fill-rule:nonzero;stroke:none"
         id="path2584"
         inkscape:connector-curvature="0" />
      <path
         d="m 1630.791,384.8643 c 1.649,-1.345 2.736,-3.093 3.787,-4.785 0.229,-0.365 0.454,-0.731 0.687,-1.09 1.224,-1.898 1.842,-2.418 2.88,-2.418 0.523,0 1.18,0.131 2.123,0.424 l 0.539,0.34 c 0.216,0.956 -0.01,1.924 -0.243,2.943 -0.15,0.648 -0.305,1.318 -0.354,2.017 l -0.358,0.52 -0.034,0.134 c -0.327,1.29 -0.771,2.589 -1.202,3.845 -0.788,2.302 -1.602,4.679 -1.787,7.236 l -0.439,0.395 c -1.386,0.112 -2.077,-0.217 -2.523,-1.215 -0.5,-1.119 -1.164,-1.687 -1.974,-1.687 -0.88,0 -1.623,0.687 -2.249,1.331 -0.888,0.912 -1.601,1.375 -2.119,1.375 -0.595,0 -1.224,-0.749 -1.868,-2.226 0.113,-0.129 0.232,-0.259 0.356,-0.392 0.615,-0.667 1.365,-1.478 1.481,-2.678 1.534,-1.066 2.496,-2.572 3.297,-4.069 m 7.354,-9.829 c -1.825,0 -2.837,1.05 -4.172,3.121 -0.237,0.366 -0.469,0.738 -0.701,1.112 -1.055,1.698 -2.051,3.301 -3.56,4.492 l -0.128,0.101 -0.075,0.144 c -0.896,1.688 -1.777,2.991 -3.173,3.851 l -0.382,0.236 0.017,0.449 c 0.029,0.776 -0.394,1.275 -1.088,2.027 -0.216,0.233 -0.44,0.475 -0.646,0.738 l -0.182,0.233 0.021,0.296 c 0.011,0.155 0.029,0.309 0.057,0.463 l 0.049,0.166 c 0.6,1.418 1.6,3.302 3.343,3.302 0.976,0 1.998,-0.584 3.22,-1.839 0.697,-0.717 1.009,-0.868 1.148,-0.868 0.062,0 0.287,0.141 0.572,0.778 0.644,1.445 1.775,2.145 3.457,2.145 0.271,0 0.559,-0.017 0.88,-0.053 l 0.245,-0.027 1.282,-1.154 0.016,-0.318 c 0.125,-2.463 0.903,-4.734 1.726,-7.138 0.426,-1.242 0.866,-2.527 1.202,-3.831 l 0.453,-0.658 0.01,-0.221 c 0.023,-0.637 0.171,-1.279 0.329,-1.957 0.292,-1.263 0.593,-2.57 0.141,-4.011 l -0.084,-0.27 -1.295,-0.787 c -1.148,-0.362 -1.975,-0.522 -2.679,-0.522"
         style="fill:#00b7b7;fill-opacity:1;fill-rule:nonzero;stroke:none"
         id="path2588"
         inkscape:connector-curvature="0" />
      <path
         d="m 1622.0723,401.6484 -0.137,3.487 3.08,-0.057 z"
         style="fill:#00b7b7;fill-opacity:1;fill-rule:nonzero;stroke:none"
         id="path2592"
         inkscape:connector-curvature="0" />
      <path
         d="m 1606.127,393.3887 c -0.869,-1.801 -0.934,-3.917 -0.168,-5.86 0.883,-2.246 2.71,-3.975 5.013,-4.743 0.761,-0.251 1.509,-0.376 2.286,-0.376 2.04,0 3.973,0.877 5.846,1.759 l 2.776,4.52 c -0.039,0.676 -0.449,1.153 -1.086,1.844 -0.148,0.16 -0.3,0.325 -0.448,0.496 -1.047,0.172 -2.053,0.454 -2.926,1.424 -0.873,0.974 -1.478,1.426 -1.9,1.426 -0.422,0 -0.985,-0.492 -1.771,-1.55 -0.895,-1.205 -1.767,-1.458 -2.338,-1.458 -0.469,0 -1.36,0.183 -2.06,1.403 -0.635,1.108 -1.33,1.261 -1.987,1.261 -0.384,0 -0.803,-0.064 -1.237,-0.146 m 7.131,-12.517 c -0.945,0 -1.852,0.15 -2.772,0.456 -2.736,0.912 -4.908,2.967 -5.959,5.638 -0.976,2.484 -0.826,5.207 0.412,7.474 l 0.171,0.313 0.35,0.072 c 0.616,0.126 1.271,0.247 1.904,0.247 1.451,0 2.534,-0.664 3.32,-2.032 0.134,-0.236 0.41,-0.63 0.727,-0.63 0.302,0 0.714,0.313 1.105,0.835 0.838,1.129 1.781,2.172 3.004,2.172 1.146,0 2.14,-0.929 3.045,-1.935 0.614,-0.684 1.34,-0.836 2.299,-0.977 l 0.305,-0.044 0.19,-0.242 c 0.168,-0.215 0.36,-0.423 0.564,-0.642 0.69,-0.749 1.551,-1.679 1.495,-3.134 l -0.01,-0.201 -3.232,-5.257 -0.213,-0.108 c -1.99,-0.939 -4.246,-2.005 -6.707,-2.005"
         style="fill:#00b7b7;fill-opacity:1;fill-rule:nonzero;stroke:none"
         id="path2596"
         inkscape:connector-curvature="0" />
      <path
         d="m 1622.252,408.5605 -0.707,0.42 0.403,0.728 -0.347,0.359 0.022,0.022 0.342,-0.352 0.324,0.585 1.209,-0.559 z"
         style="fill:#00b7b7;fill-opacity:1;fill-rule:nonzero;stroke:none"
         id="path2600"
         inkscape:connector-curvature="0" />
    </g>
  </g>
</svg>
