<?xml version="1.0" encoding="UTF-8" standalone="no"?>
<!-- Created with Inkscape (http://www.inkscape.org/) -->

<svg
   xmlns:dc="http://purl.org/dc/elements/1.1/"
   xmlns:cc="http://creativecommons.org/ns#"
   xmlns:rdf="http://www.w3.org/1999/02/22-rdf-syntax-ns#"
   xmlns:svg="http://www.w3.org/2000/svg"
   xmlns="http://www.w3.org/2000/svg"
   xmlns:sodipodi="http://sodipodi.sourceforge.net/DTD/sodipodi-0.dtd"
   xmlns:inkscape="http://www.inkscape.org/namespaces/inkscape"
   width="46.659447mm"
   height="46.659798mm"
   viewBox="0 0 46.659447 46.659798"
   version="1.1"
   id="svg3442"
   inkscape:version="0.92.5 (2060ec1f9f, 2020-04-08)"
   sodipodi:docname="lavarse-las-manos.svg">
  <defs
     id="defs3436" />
  <sodipodi:namedview
     id="base"
     pagecolor="#ffffff"
     bordercolor="#666666"
     borderopacity="1.0"
     inkscape:pageopacity="0.0"
     inkscape:pageshadow="2"
     inkscape:zoom="0.81210937"
     inkscape:cx="442.61496"
     inkscape:cy="-74.633044"
     inkscape:document-units="mm"
     inkscape:current-layer="layer1"
     showgrid="false"
     fit-margin-top="0"
     fit-margin-left="0"
     fit-margin-right="0"
     fit-margin-bottom="0"
     showborder="false"
     inkscape:window-width="1440"
     inkscape:window-height="788"
     inkscape:window-x="0"
     inkscape:window-y="27"
     inkscape:window-maximized="1" />
  <metadata
     id="metadata3439">
    <rdf:RDF>
      <cc:Work
         rdf:about="">
        <dc:format>image/svg+xml</dc:format>
        <dc:type
           rdf:resource="http://purl.org/dc/dcmitype/StillImage" />
        <dc:title></dc:title>
      </cc:Work>
    </rdf:RDF>
  </metadata>
  <g
     inkscape:label="Capa 1"
     inkscape:groupmode="layer"
     id="layer1"
     transform="translate(11.275207,-82.426875)">
    <g
       transform="matrix(0.35277777,0,0,-0.35277777,-129.77707,249.29838)"
       id="g3405">
      <path
         inkscape:connector-curvature="0"
         id="path2610"
         style="fill:#045e73;fill-opacity:1;fill-rule:nonzero;stroke:none"
         d="m 466.6738,405.3906 c 0,-34.867 -28.266,-63.133 -63.132,-63.133 -34.866,0 -63.131,28.266 -63.131,63.133 0,34.865 28.265,63.131 63.131,63.131 34.866,0 63.132,-28.266 63.132,-63.131" />
      <path
         inkscape:connector-curvature="0"
         id="path2614"
         style="fill:#045e73;fill-opacity:1;fill-rule:nonzero;stroke:none"
         d="m 374.6289,397.3799 -1.119,-1.343 -11.67,2.335 v 3.72 z m 13.395,5.952 c 1.038,0.297 2.121,-0.305 2.418,-1.344 0.259,-0.904 -0.164,-1.866 -1.006,-2.288 -1.856,-0.93 -3.361,-2.436 -4.293,-4.291 l -0.126,-0.253 c -0.335,-0.668 -0.064,-1.482 0.606,-1.817 0.188,-0.095 0.395,-0.144 0.605,-0.144 h 17.613 c 0.749,0 1.355,-0.606 1.355,-1.354 0,-0.748 -0.606,-1.355 -1.355,-1.355 h -9.483 c -0.749,0 -1.355,-0.607 -1.355,-1.355 0,-0.748 0.606,-1.355 1.355,-1.355 h 12.193 c 0.748,0 1.355,-0.607 1.355,-1.354 0,-0.749 -0.607,-1.355 -1.355,-1.355 h -12.193 c -0.749,0 -1.355,-0.607 -1.355,-1.356 0,-0.748 0.606,-1.354 1.355,-1.354 h 9.483 c 0.749,0 1.355,-0.607 1.355,-1.355 0,-0.748 -0.606,-1.355 -1.355,-1.355 h -4.297 c -0.747,2.114 -3.065,3.224 -5.181,2.479 -0.502,-0.178 -0.964,-0.452 -1.36,-0.808 -1.668,1.498 -4.233,1.359 -5.73,-0.308 -0.15,-0.166 -0.286,-0.346 -0.406,-0.533 -1.879,1.061 -4.26,0.467 -5.419,-1.355 -1.953,1.104 -4.43,0.414 -5.534,-1.539 -0.345,-0.61 -0.525,-1.3 -0.525,-2.001 v -1.128 c -0.937,0.27 -1.79,0.771 -2.481,1.46 l -3.336,3.337 c -0.149,0.149 -0.33,0.26 -0.529,0.326 l -7.203,2.401 v 13.63 l 11.929,-2.386 c 0.487,-0.098 0.988,0.08 1.306,0.461 l 2.218,2.664 c 2.791,3.355 6.531,5.791 10.731,6.985 m 4.962,-3.356 c 0.079,0.233 0.137,0.471 0.178,0.714 0.983,-0.038 1.918,-0.43 2.632,-1.106 0.543,-0.516 1.401,-0.491 1.915,0.051 0.078,0.083 0.147,0.176 0.202,0.275 1.81,3.276 5.932,4.461 9.206,2.651 3.275,-1.811 4.461,-5.933 2.651,-9.207 -0.475,-0.859 -1.131,-1.605 -1.923,-2.184 0.381,2.202 -1.096,4.296 -3.298,4.676 -0.233,0.042 -0.471,0.061 -0.708,0.059 h -15.063 c 0.541,0.559 1.173,1.024 1.869,1.372 1.109,0.55 1.952,1.523 2.339,2.699 m 8.145,-25.748 h -1.355 v 2.709 h 1.355 c 0.749,0 1.355,-0.607 1.355,-1.355 0,-0.747 -0.606,-1.354 -1.355,-1.354 m -5.419,-2.71 c -0.748,0 -1.354,0.607 -1.354,1.354 v 5.419 c 0,0.75 0.606,1.356 1.354,1.356 0.749,0 1.354,-0.606 1.354,-1.356 v -5.419 c 0,-0.747 -0.606,-1.354 -1.354,-1.354 m -4.064,0 c 0,-0.748 -0.607,-1.355 -1.355,-1.355 -0.749,0 -1.355,0.607 -1.355,1.355 v 6.773 c 0,0.75 0.606,1.356 1.355,1.356 0.748,0 1.355,-0.606 1.355,-1.356 z m -5.42,-1.355 c 0,-0.748 -0.606,-1.354 -1.355,-1.354 -0.748,0 -1.354,0.606 -1.354,1.354 v 6.774 c 0,0.75 0.606,1.354 1.354,1.354 0.749,0 1.355,-0.604 1.355,-1.354 z m -5.419,-1.354 c 0,-0.75 -0.607,-1.355 -1.355,-1.355 -0.749,0 -1.355,0.605 -1.355,1.355 v 6.773 c 0,0.748 0.606,1.355 1.355,1.355 0.748,0 1.355,-0.607 1.355,-1.355 z m -20.752,10.907 7.826,-2.607 3.11,-3.111 c 1.124,-1.124 2.543,-1.91 4.093,-2.266 0.1,-0.022 0.201,-0.033 0.303,-0.033 v -2.89 c -10e-4,-2.244 1.818,-4.065 4.061,-4.066 1.389,-0.001 2.682,0.709 3.428,1.88 1.88,-1.061 4.262,-0.468 5.42,1.355 1.879,-1.062 4.262,-0.467 5.42,1.355 1.952,-1.103 4.429,-0.414 5.532,1.538 0.116,0.206 0.215,0.423 0.294,0.647 h 1.587 c 2.246,0 4.065,1.82 4.065,4.064 0,0.514 -0.096,1.021 -0.286,1.498 2.166,0.591 3.444,2.824 2.853,4.99 -0.039,0.146 -0.087,0.289 -0.143,0.43 2.163,0.588 3.442,2.817 2.854,4.981 -0.162,0.597 -0.46,1.15 -0.869,1.616 4.162,3.183 4.956,9.135 1.773,13.298 -3.183,4.16 -9.136,4.954 -13.297,1.771 -0.631,-0.482 -1.199,-1.042 -1.69,-1.667 -1.03,0.597 -2.198,0.909 -3.388,0.909 -0.067,-0.002 -0.134,-0.007 -0.2,-0.017 -0.022,0.049 -0.045,0.098 -0.069,0.146 -1.004,2.008 -3.296,3.016 -5.456,2.4 -4.067,-1.158 -7.765,-3.357 -10.725,-6.378 l -15.598,5.746 c -0.701,0.26 -1.481,-0.098 -1.741,-0.801 -0.055,-0.149 -0.084,-0.309 -0.084,-0.469 v -23.033 c 0,-0.583 0.374,-1.101 0.927,-1.286" />
      <path
         inkscape:connector-curvature="0"
         id="path2618"
         style="fill:#045e73;fill-opacity:1;fill-rule:nonzero;stroke:none"
         d="m 420.7266,379.6465 c -0.478,0.821 -1.16,1.505 -1.981,1.981 v 0.729 h 2.71 c 0.748,0 1.354,0.606 1.354,1.354 0,0.749 -0.606,1.356 -1.354,1.356 h -2.71 v 29.807 c 10e-4,1.496 1.213,2.709 2.71,2.709 h 13.548 c 1.495,0 2.707,-1.213 2.709,-2.709 v -5.419 h -13.548 c -0.749,0 -1.355,-0.608 -1.355,-1.355 v -18.969 c 0,-0.748 0.606,-1.354 1.355,-1.354 h 13.548 v -2.71 h -10.839 c -0.748,0 -1.354,-0.607 -1.354,-1.356 0,-0.748 0.606,-1.354 1.354,-1.354 h 10.839 v -2.71 z m -4.691,-5.419 c -1.496,0 -2.71,1.212 -2.71,2.709 0,1.497 1.214,2.71 2.71,2.71 1.496,0 2.71,-1.213 2.71,-2.71 -0.002,-1.494 -1.214,-2.707 -2.71,-2.709 m 6.774,48.776 h 10.839 v -2.711 h -10.839 z m 4.064,10.838 h 2.71 v -8.129 h -2.71 z m -13.548,4.065 c -0.374,0 -0.732,-0.155 -0.989,-0.428 l -4.623,-4.931 -2.244,1.542 5.78,6.526 h 10.206 v -2.709 z m 10.839,4.404 c 0,0.561 0.456,1.015 1.016,1.016 h 6.097 c 0.561,-0.001 1.015,-0.455 1.016,-1.016 v -5.759 h -8.129 z m 13.548,-51.824 h -12.193 v 16.258 h 12.193 z m -1.354,29.635 v 4.237 c 0,0.747 -0.607,1.354 -1.355,1.354 h -2.71 v 8.129 h 1.355 c 0.748,0 1.355,0.608 1.355,1.354 v 7.115 c -0.003,2.056 -1.67,3.723 -3.726,3.725 h -6.097 c -1.665,-0.002 -3.128,-1.108 -3.584,-2.709 h -10.981 c -0.467,0 -0.902,-0.241 -1.15,-0.638 l -7.039,-7.949 c -0.497,-0.56 -0.445,-1.416 0.114,-1.912 0.042,-0.037 0.086,-0.072 0.132,-0.103 l 4.465,-3.072 c 0.553,-0.379 1.299,-0.298 1.757,0.19 l 5.018,5.353 h 7.543 c 0,-0.746 0.606,-1.354 1.354,-1.354 h 1.355 v -8.129 h -2.709 c -0.749,0 -1.356,-0.607 -1.356,-1.354 v -4.237 c -2.391,-0.621 -4.061,-2.778 -4.064,-5.248 v -32.517 c -2.994,0 -5.42,-2.427 -5.42,-5.42 0,-2.992 2.426,-5.419 5.42,-5.419 2.993,0 5.42,2.427 5.42,5.419 h 17.613 c 0.748,0 1.354,0.607 1.354,1.355 v 36.582 c -0.003,2.47 -1.674,4.627 -4.064,5.248" />
      <path
         inkscape:connector-curvature="0"
         id="path2622"
         style="fill:#045e73;fill-opacity:1;fill-rule:nonzero;stroke:none"
         d="m 402.418,422.0615 1.423,2.373 1.424,-2.373 c 0.471,-0.786 0.216,-1.806 -0.571,-2.276 -0.786,-0.473 -1.805,-0.217 -2.276,0.57 -0.314,0.524 -0.314,1.181 0,1.706 m -1,-4.49 c 2.007,-1.341 4.72,-0.8 6.06,1.208 0.938,1.405 0.982,3.228 0.111,4.677 l -2.586,4.308 c -0.385,0.642 -1.217,0.851 -1.858,0.464 -0.191,-0.114 -0.351,-0.273 -0.465,-0.464 l -2.586,-4.308 c -1.203,-2.001 -0.62,-4.593 1.324,-5.885" />
      <path
         inkscape:connector-curvature="0"
         id="path2626"
         style="fill:#045e73;fill-opacity:1;fill-rule:nonzero;stroke:none"
         d="m 393.0024,413.5186 c 0.748,0 1.355,-0.606 1.355,-1.354 0,-0.749 -0.607,-1.356 -1.355,-1.356 -0.749,0 -1.355,0.607 -1.355,1.356 10e-4,0.748 0.606,1.354 1.355,1.354 m 0,-5.419 c 2.245,0 4.064,1.82 4.064,4.065 0,2.244 -1.819,4.063 -4.064,4.063 -2.245,0 -4.065,-1.819 -4.065,-4.063 0.003,-2.245 1.821,-4.063 4.065,-4.065" />
      <path
         inkscape:connector-curvature="0"
         id="path2630"
         style="fill:#045e73;fill-opacity:1;fill-rule:nonzero;stroke:none"
         d="m 380.8086,423.0039 c 1.497,0 2.71,-1.215 2.71,-2.711 0,-1.496 -1.213,-2.711 -2.71,-2.711 -1.497,0 -2.71,1.215 -2.71,2.711 0.002,1.496 1.214,2.709 2.71,2.711 m 0,-8.131 c 2.993,0 5.419,2.428 5.419,5.42 0,2.992 -2.426,5.42 -5.419,5.42 -2.993,0 -5.419,-2.428 -5.419,-5.42 0.003,-2.992 2.427,-5.416 5.419,-5.42" />
      <path
         inkscape:connector-curvature="0"
         id="path2634"
         style="fill:#045e73;fill-opacity:1;fill-rule:nonzero;stroke:none"
         d="m 402.0352,398.6533 c 1.116,0.997 2.83,0.901 3.828,-0.215 0.234,-0.264 0.417,-0.569 0.534,-0.901 0.249,-0.706 1.024,-1.076 1.729,-0.826 0.706,0.249 1.076,1.022 0.826,1.728 -0.998,2.823 -4.095,4.301 -6.918,3.303 -0.666,-0.235 -1.28,-0.599 -1.807,-1.07 -0.557,-0.5 -0.604,-1.356 -0.105,-1.914 0.499,-0.557 1.355,-0.604 1.913,-0.105" />
      <path
         inkscape:connector-curvature="0"
         id="path2638"
         style="fill:#045e73;fill-opacity:1;fill-rule:nonzero;stroke:none"
         d="m 424.1641,412.1641 c 0.748,0 1.355,0.607 1.355,1.354 0,0.75 -0.607,1.355 -1.355,1.355 h -1.354 c -0.749,0 -1.355,-0.605 -1.355,-1.355 0,-0.747 0.606,-1.354 1.355,-1.354 z" />
      <path
         inkscape:connector-curvature="0"
         id="path2642"
         style="fill:#045e73;fill-opacity:1;fill-rule:nonzero;stroke:none"
         d="m 429.584,412.1641 h 4.064 c 0.748,0 1.356,0.607 1.356,1.354 0,0.75 -0.608,1.355 -1.356,1.355 h -4.064 c -0.748,0 -1.355,-0.605 -1.355,-1.355 0,-0.747 0.607,-1.354 1.355,-1.354" />
      <path
         inkscape:connector-curvature="0"
         id="path2646"
         style="fill:none;stroke:#045e73;stroke-width:3;stroke-linecap:butt;stroke-linejoin:miter;stroke-miterlimit:10;stroke-dasharray:none;stroke-opacity:1"
         d="m 466.6738,405.3906 c 0,-34.867 -28.266,-63.133 -63.132,-63.133 -34.866,0 -63.131,28.266 -63.131,63.133 0,34.865 28.265,63.131 63.131,63.131 34.866,0 63.132,-28.266 63.132,-63.131 z" />
      <path
         d="m 463.6738,408.3906 c 0,-34.867 -28.266,-63.133 -63.132,-63.133 -34.866,0 -63.131,28.266 -63.131,63.133 0,34.865 28.265,63.131 63.131,63.131 34.866,0 63.132,-28.266 63.132,-63.131"
         style="fill:#ffffff;fill-opacity:1;fill-rule:nonzero;stroke:none"
         id="path2656"
         inkscape:connector-curvature="0" />
      <path
         d="m 371.6289,400.3799 -1.119,-1.343 -11.67,2.335 v 3.72 z m 13.395,5.952 c 1.038,0.297 2.121,-0.305 2.418,-1.344 0.259,-0.904 -0.164,-1.866 -1.006,-2.288 -1.856,-0.93 -3.361,-2.436 -4.293,-4.291 l -0.126,-0.253 c -0.335,-0.668 -0.064,-1.482 0.606,-1.817 0.188,-0.095 0.395,-0.144 0.605,-0.144 h 17.613 c 0.749,0 1.355,-0.606 1.355,-1.354 0,-0.748 -0.606,-1.355 -1.355,-1.355 h -9.483 c -0.749,0 -1.355,-0.607 -1.355,-1.355 0,-0.748 0.606,-1.355 1.355,-1.355 h 12.193 c 0.748,0 1.355,-0.607 1.355,-1.354 0,-0.749 -0.607,-1.355 -1.355,-1.355 h -12.193 c -0.749,0 -1.355,-0.607 -1.355,-1.356 0,-0.748 0.606,-1.354 1.355,-1.354 h 9.483 c 0.749,0 1.355,-0.607 1.355,-1.355 0,-0.748 -0.606,-1.355 -1.355,-1.355 h -4.297 c -0.747,2.114 -3.065,3.224 -5.181,2.479 -0.502,-0.178 -0.964,-0.452 -1.36,-0.808 -1.668,1.498 -4.233,1.359 -5.73,-0.308 -0.15,-0.166 -0.286,-0.346 -0.406,-0.533 -1.879,1.061 -4.26,0.467 -5.419,-1.355 -1.953,1.104 -4.43,0.414 -5.534,-1.539 -0.345,-0.61 -0.525,-1.3 -0.525,-2.001 v -1.128 c -0.937,0.27 -1.79,0.771 -2.481,1.46 l -3.336,3.337 c -0.149,0.149 -0.33,0.26 -0.529,0.326 l -7.203,2.401 v 13.63 l 11.929,-2.386 c 0.487,-0.098 0.988,0.08 1.306,0.461 l 2.218,2.664 c 2.791,3.355 6.531,5.791 10.731,6.985 m 4.962,-3.356 c 0.079,0.233 0.137,0.471 0.178,0.714 0.983,-0.038 1.918,-0.43 2.632,-1.106 0.543,-0.516 1.401,-0.491 1.915,0.051 0.078,0.083 0.147,0.176 0.202,0.275 1.81,3.276 5.932,4.461 9.206,2.651 3.275,-1.811 4.461,-5.933 2.651,-9.207 -0.475,-0.859 -1.131,-1.605 -1.923,-2.184 0.381,2.202 -1.096,4.296 -3.298,4.676 -0.233,0.042 -0.471,0.061 -0.708,0.059 h -15.063 c 0.541,0.559 1.173,1.024 1.869,1.372 1.109,0.55 1.952,1.523 2.339,2.699 m 8.145,-25.748 h -1.355 v 2.709 h 1.355 c 0.749,0 1.355,-0.607 1.355,-1.355 0,-0.747 -0.606,-1.354 -1.355,-1.354 m -5.419,-2.71 c -0.748,0 -1.354,0.607 -1.354,1.354 v 5.419 c 0,0.75 0.606,1.356 1.354,1.356 0.749,0 1.354,-0.606 1.354,-1.356 v -5.419 c 0,-0.747 -0.606,-1.354 -1.354,-1.354 m -4.064,0 c 0,-0.748 -0.607,-1.355 -1.355,-1.355 -0.749,0 -1.355,0.607 -1.355,1.355 v 6.773 c 0,0.75 0.606,1.356 1.355,1.356 0.748,0 1.355,-0.606 1.355,-1.356 z m -5.42,-1.355 c 0,-0.748 -0.606,-1.354 -1.355,-1.354 -0.748,0 -1.354,0.606 -1.354,1.354 v 6.774 c 0,0.75 0.606,1.354 1.354,1.354 0.749,0 1.355,-0.604 1.355,-1.354 z m -5.419,-1.354 c 0,-0.75 -0.607,-1.355 -1.355,-1.355 -0.749,0 -1.355,0.605 -1.355,1.355 v 6.773 c 0,0.748 0.606,1.355 1.355,1.355 0.748,0 1.355,-0.607 1.355,-1.355 z m -20.752,10.907 7.826,-2.607 3.11,-3.111 c 1.124,-1.124 2.543,-1.91 4.093,-2.266 0.1,-0.022 0.201,-0.033 0.303,-0.033 v -2.89 c -10e-4,-2.244 1.818,-4.065 4.061,-4.066 1.389,-0.001 2.682,0.709 3.428,1.88 1.88,-1.061 4.262,-0.468 5.42,1.355 1.879,-1.062 4.262,-0.467 5.42,1.355 1.952,-1.103 4.429,-0.414 5.532,1.538 0.116,0.206 0.215,0.423 0.294,0.647 h 1.587 c 2.246,0 4.065,1.82 4.065,4.064 0,0.514 -0.096,1.021 -0.286,1.498 2.166,0.591 3.444,2.824 2.853,4.99 -0.039,0.146 -0.087,0.289 -0.143,0.43 2.163,0.588 3.442,2.817 2.854,4.981 -0.162,0.597 -0.46,1.15 -0.869,1.616 4.162,3.183 4.956,9.135 1.773,13.298 -3.183,4.16 -9.136,4.954 -13.297,1.771 -0.631,-0.482 -1.199,-1.042 -1.69,-1.667 -1.03,0.597 -2.198,0.909 -3.388,0.909 -0.067,-0.002 -0.134,-0.007 -0.2,-0.017 -0.022,0.049 -0.045,0.098 -0.069,0.146 -1.004,2.008 -3.296,3.016 -5.456,2.4 -4.067,-1.158 -7.765,-3.357 -10.725,-6.378 l -15.598,5.746 c -0.701,0.26 -1.481,-0.098 -1.741,-0.801 -0.055,-0.149 -0.084,-0.309 -0.084,-0.469 v -23.033 c 0,-0.583 0.374,-1.101 0.927,-1.286"
         style="fill:#00b7b7;fill-opacity:1;fill-rule:nonzero;stroke:none"
         id="path2660"
         inkscape:connector-curvature="0" />
      <path
         d="m 417.7266,382.6465 c -0.478,0.821 -1.16,1.505 -1.981,1.981 v 0.729 h 2.71 c 0.748,0 1.354,0.606 1.354,1.354 0,0.749 -0.606,1.356 -1.354,1.356 h -2.71 v 29.807 c 10e-4,1.496 1.213,2.709 2.71,2.709 h 13.548 c 1.495,0 2.707,-1.213 2.709,-2.709 v -5.419 h -13.548 c -0.749,0 -1.355,-0.608 -1.355,-1.355 v -18.969 c 0,-0.748 0.606,-1.354 1.355,-1.354 h 13.548 v -2.71 h -10.839 c -0.748,0 -1.354,-0.607 -1.354,-1.356 0,-0.748 0.606,-1.354 1.354,-1.354 h 10.839 v -2.71 z m -4.691,-5.419 c -1.496,0 -2.71,1.212 -2.71,2.709 0,1.497 1.214,2.71 2.71,2.71 1.496,0 2.71,-1.213 2.71,-2.71 -0.002,-1.494 -1.214,-2.707 -2.71,-2.709 m 6.774,48.776 h 10.839 v -2.711 h -10.839 z m 4.064,10.838 h 2.71 v -8.129 h -2.71 z m -13.548,4.065 c -0.374,0 -0.732,-0.155 -0.989,-0.428 l -4.623,-4.931 -2.244,1.542 5.78,6.526 h 10.206 v -2.709 z m 10.839,4.404 c 0,0.561 0.456,1.015 1.016,1.016 h 6.097 c 0.561,-0.001 1.015,-0.455 1.016,-1.016 v -5.759 h -8.129 z m 13.548,-51.824 h -12.193 v 16.258 h 12.193 z m -1.354,29.635 v 4.237 c 0,0.747 -0.607,1.354 -1.355,1.354 h -2.71 v 8.129 h 1.355 c 0.748,0 1.355,0.608 1.355,1.354 v 7.115 c -0.003,2.056 -1.67,3.723 -3.726,3.725 h -6.097 c -1.665,-0.002 -3.128,-1.108 -3.584,-2.709 h -10.981 c -0.467,0 -0.902,-0.241 -1.15,-0.638 l -7.039,-7.949 c -0.497,-0.56 -0.445,-1.416 0.114,-1.912 0.042,-0.037 0.086,-0.072 0.132,-0.103 l 4.465,-3.072 c 0.553,-0.379 1.299,-0.298 1.757,0.19 l 5.018,5.353 h 7.543 c 0,-0.746 0.606,-1.354 1.354,-1.354 h 1.355 v -8.129 h -2.709 c -0.749,0 -1.356,-0.607 -1.356,-1.354 v -4.237 c -2.391,-0.621 -4.061,-2.778 -4.064,-5.248 v -32.517 c -2.994,0 -5.42,-2.427 -5.42,-5.42 0,-2.992 2.426,-5.419 5.42,-5.419 2.993,0 5.42,2.427 5.42,5.419 h 17.613 c 0.748,0 1.354,0.607 1.354,1.355 v 36.582 c -0.003,2.47 -1.674,4.627 -4.064,5.248"
         style="fill:#00b7b7;fill-opacity:1;fill-rule:nonzero;stroke:none"
         id="path2664"
         inkscape:connector-curvature="0" />
      <path
         d="m 399.418,425.0615 1.423,2.373 1.424,-2.373 c 0.471,-0.786 0.216,-1.806 -0.571,-2.276 -0.786,-0.473 -1.805,-0.217 -2.276,0.57 -0.314,0.524 -0.314,1.181 0,1.706 m -1,-4.49 c 2.007,-1.341 4.72,-0.8 6.06,1.208 0.938,1.405 0.982,3.228 0.111,4.677 l -2.586,4.308 c -0.385,0.642 -1.217,0.851 -1.858,0.464 -0.191,-0.114 -0.351,-0.273 -0.465,-0.464 l -2.586,-4.308 c -1.203,-2.001 -0.62,-4.593 1.324,-5.885"
         style="fill:#00b7b7;fill-opacity:1;fill-rule:nonzero;stroke:none"
         id="path2668"
         inkscape:connector-curvature="0" />
      <path
         d="m 390.0024,416.5186 c 0.748,0 1.355,-0.606 1.355,-1.354 0,-0.749 -0.607,-1.356 -1.355,-1.356 -0.749,0 -1.355,0.607 -1.355,1.356 10e-4,0.748 0.606,1.354 1.355,1.354 m 0,-5.419 c 2.245,0 4.064,1.82 4.064,4.065 0,2.244 -1.819,4.063 -4.064,4.063 -2.245,0 -4.065,-1.819 -4.065,-4.063 0.003,-2.245 1.821,-4.063 4.065,-4.065"
         style="fill:#00b7b7;fill-opacity:1;fill-rule:nonzero;stroke:none"
         id="path2672"
         inkscape:connector-curvature="0" />
      <path
         d="m 377.8086,426.0039 c 1.497,0 2.71,-1.215 2.71,-2.711 0,-1.496 -1.213,-2.711 -2.71,-2.711 -1.497,0 -2.71,1.215 -2.71,2.711 0.002,1.496 1.214,2.709 2.71,2.711 m 0,-8.131 c 2.993,0 5.419,2.428 5.419,5.42 0,2.992 -2.426,5.42 -5.419,5.42 -2.993,0 -5.419,-2.428 -5.419,-5.42 0.003,-2.992 2.427,-5.416 5.419,-5.42"
         style="fill:#00b7b7;fill-opacity:1;fill-rule:nonzero;stroke:none"
         id="path2676"
         inkscape:connector-curvature="0" />
      <path
         d="m 399.0352,401.6533 c 1.116,0.997 2.83,0.901 3.828,-0.215 0.234,-0.264 0.417,-0.569 0.534,-0.901 0.249,-0.706 1.024,-1.076 1.729,-0.826 0.706,0.249 1.076,1.022 0.826,1.728 -0.998,2.823 -4.095,4.301 -6.918,3.303 -0.666,-0.235 -1.28,-0.599 -1.807,-1.07 -0.557,-0.5 -0.604,-1.356 -0.105,-1.914 0.499,-0.557 1.355,-0.604 1.913,-0.105"
         style="fill:#00b7b7;fill-opacity:1;fill-rule:nonzero;stroke:none"
         id="path2680"
         inkscape:connector-curvature="0" />
      <path
         d="m 421.1641,415.1641 c 0.748,0 1.355,0.607 1.355,1.354 0,0.75 -0.607,1.355 -1.355,1.355 h -1.354 c -0.749,0 -1.355,-0.605 -1.355,-1.355 0,-0.747 0.606,-1.354 1.355,-1.354 z"
         style="fill:#00b7b7;fill-opacity:1;fill-rule:nonzero;stroke:none"
         id="path2684"
         inkscape:connector-curvature="0" />
      <path
         d="m 426.584,415.1641 h 4.064 c 0.748,0 1.356,0.607 1.356,1.354 0,0.75 -0.608,1.355 -1.356,1.355 h -4.064 c -0.748,0 -1.355,-0.605 -1.355,-1.355 0,-0.747 0.607,-1.354 1.355,-1.354"
         style="fill:#00b7b7;fill-opacity:1;fill-rule:nonzero;stroke:none"
         id="path2688"
         inkscape:connector-curvature="0" />
      <path
         d="m 463.6738,408.3906 c 0,-34.867 -28.266,-63.133 -63.132,-63.133 -34.866,0 -63.131,28.266 -63.131,63.133 0,34.865 28.265,63.131 63.131,63.131 34.866,0 63.132,-28.266 63.132,-63.131 z"
         style="fill:none;stroke:#00b7b7;stroke-width:3;stroke-linecap:butt;stroke-linejoin:miter;stroke-miterlimit:10;stroke-dasharray:none;stroke-opacity:1"
         id="path2692"
         inkscape:connector-curvature="0" />
    </g>
  </g>
</svg>
