<?xml version="1.0" encoding="UTF-8" standalone="no"?>
<!-- Created with Inkscape (http://www.inkscape.org/) -->

<svg
   xmlns:dc="http://purl.org/dc/elements/1.1/"
   xmlns:cc="http://creativecommons.org/ns#"
   xmlns:rdf="http://www.w3.org/1999/02/22-rdf-syntax-ns#"
   xmlns:svg="http://www.w3.org/2000/svg"
   xmlns="http://www.w3.org/2000/svg"
   xmlns:sodipodi="http://sodipodi.sourceforge.net/DTD/sodipodi-0.dtd"
   xmlns:inkscape="http://www.inkscape.org/namespaces/inkscape"
   width="200.3085mm"
   height="55.289291mm"
   viewBox="0 0 200.3085 55.289291"
   version="1.1"
   id="svg6056"
   inkscape:version="0.92.5 (2060ec1f9f, 2020-04-08)"
   sodipodi:docname="logotipo-slogan.svg">
  <defs
     id="defs6050" />
  <sodipodi:namedview
     id="base"
     pagecolor="#ffffff"
     bordercolor="#666666"
     borderopacity="1.0"
     inkscape:pageopacity="0.0"
     inkscape:pageshadow="2"
     inkscape:zoom="0.7"
     inkscape:cx="411.11576"
     inkscape:cy="-89.198398"
     inkscape:document-units="mm"
     inkscape:current-layer="g6014"
     showgrid="false"
     fit-margin-top="0"
     fit-margin-left="0"
     fit-margin-right="0"
     fit-margin-bottom="0"
     inkscape:window-width="1440"
     inkscape:window-height="784"
     inkscape:window-x="0"
     inkscape:window-y="27"
     inkscape:window-maximized="1" />
  <metadata
     id="metadata6053">
    <rdf:RDF>
      <cc:Work
         rdf:about="">
        <dc:format>image/svg+xml</dc:format>
        <dc:type
           rdf:resource="http://purl.org/dc/dcmitype/StillImage" />
        <dc:title></dc:title>
      </cc:Work>
    </rdf:RDF>
  </metadata>
  <g
     inkscape:label="Capa 1"
     inkscape:groupmode="layer"
     id="layer1"
     transform="translate(19.103079,-108.1611)">
    <g
       transform="matrix(0.4935086,0,0,-0.4935086,-77.538988,836.62415)"
       id="g6014">
      <g
         id="g6329">
        <path
           inkscape:connector-curvature="0"
           id="text158"
           d="m 185.35785,1382.2523 c -0.29479,0 -0.54839,-0.1065 -0.76164,-0.3198 -0.21324,-0.2132 -0.31979,-0.4706 -0.31979,-0.7717 0,-0.2948 0.10655,-0.5483 0.31979,-0.7617 0.21325,-0.2132 0.46685,-0.3197 0.76164,-0.3197 0.30106,0 0.55847,0.1065 0.77172,0.3197 0.21325,0.2134 0.31978,0.4669 0.31978,0.7617 0,0.3011 -0.10653,0.5585 -0.31978,0.7717 -0.21325,0.2133 -0.47066,0.3198 -0.77172,0.3198 z m 163.39097,0 c -0.29479,0 -0.54838,-0.1065 -0.76163,-0.3198 -0.21325,-0.2132 -0.3208,-0.4706 -0.3208,-0.7717 0,-0.2948 0.10755,-0.5483 0.3208,-0.7617 0.21325,-0.2132 0.46684,-0.3197 0.76163,-0.3197 0.30106,0 0.55847,0.1065 0.77172,0.3197 0.21325,0.2134 0.31978,0.4669 0.31978,0.7617 0,0.3011 -0.10653,0.5585 -0.31978,0.7717 -0.21325,0.2133 -0.47066,0.3198 -0.77172,0.3198 z m 21.92697,0 c -0.29479,0 -0.5494,-0.1065 -0.76265,-0.3198 -0.21325,-0.2132 -0.31979,-0.4706 -0.31979,-0.7717 0,-0.2948 0.10654,-0.5483 0.31979,-0.7617 0.21325,-0.2132 0.46786,-0.3197 0.76265,-0.3197 0.30105,0 0.55746,0.1065 0.7707,0.3197 0.21325,0.2134 0.3208,0.4669 0.3208,0.7617 0,0.3011 -0.10755,0.5585 -0.3208,0.7717 -0.21324,0.2133 -0.46965,0.3198 -0.7707,0.3198 z m 70.69265,0 c -0.29478,0 -0.54838,-0.1065 -0.76162,-0.3198 -0.21326,-0.2132 -0.31979,-0.4706 -0.31979,-0.7717 0,-0.2948 0.10653,-0.5483 0.31979,-0.7617 0.21324,-0.2132 0.46684,-0.3197 0.76162,-0.3197 0.30106,0 0.55848,0.1065 0.77173,0.3197 0.21324,0.2134 0.31978,0.4669 0.31978,0.7617 0,0.3011 -0.10654,0.5585 -0.31978,0.7717 -0.21325,0.2133 -0.47067,0.3198 -0.77173,0.3198 z m -260.75087,-0.2633 v -5.8328 c -0.51432,0.715 -1.11301,1.2505 -1.79666,1.608 -0.67738,0.3575 -1.43637,0.5367 -2.27682,0.5367 -1.45511,0 -2.70065,-0.5242 -3.73554,-1.5717 -1.03488,-1.0474 -1.5515,-2.3079 -1.5515,-3.7819 0,-1.5053 0.511,-2.7847 1.53335,-3.8385 1.02862,-1.0474 2.26752,-1.5706 3.71636,-1.5706 0.81537,0 1.56493,0.1687 2.24859,0.5074 0.68992,0.3387 1.31028,0.8441 1.86222,1.5152 v -1.7594 h 1.2983 v 14.1876 z m 41.32993,0 v -5.8328 c -0.5143,0.715 -1.114,1.2505 -1.79765,1.608 -0.67738,0.3575 -1.43638,0.5367 -2.27683,0.5367 -1.45512,0 -2.69964,-0.5242 -3.73452,-1.5717 -1.0349,-1.0474 -1.55252,-2.3079 -1.55252,-3.7819 0,-1.5053 0.51101,-2.7847 1.53335,-3.8385 1.02862,-1.0474 2.26752,-1.5706 3.71637,-1.5706 0.81537,0 1.56493,0.1687 2.24858,0.5074 0.68992,0.3387 1.31128,0.8441 1.86322,1.5152 v -1.7594 h 1.29832 v 14.1876 z m -79.90993,-0.1503 v -3.8011 h -1.79665 v -1.1288 h 1.79665 v -9.1074 h 1.32655 v 9.1074 h 2.08819 v 1.1288 h -2.08819 v 3.8011 z m 257.45518,0 v -3.8011 h -1.79665 v -1.1288 h 1.79665 v -9.1074 h 1.32655 v 9.1074 h 2.0892 v 1.1288 h -2.0892 v 3.8011 z m -280.45852,-0.1977 v -13.8396 h 7.87458 v 1.364 h -6.49153 v 5.4282 h 6.49153 v 1.3548 h -6.49153 v 4.3277 h 6.54803 v 1.3649 z m 15.25788,-3.3401 c -0.75265,0 -1.44844,-0.1754 -2.08818,-0.5266 -0.63975,-0.345 -1.22339,-0.8692 -1.75025,-1.5717 v 1.835 h -1.31747 v -10.2362 h 1.31747 v 3.7537 c 0,1.3485 0.0622,2.2772 0.18764,2.7853 0.20071,0.7777 0.61461,1.4292 1.24181,1.956 0.63348,0.5269 1.34914,0.7909 2.14569,0.7909 0.69619,0 1.26098,-0.1725 1.69375,-0.5175 0.43278,-0.3387 0.72689,-0.8469 0.8837,-1.5243 0.10035,-0.3951 0.1503,-1.1823 0.1503,-2.3615 v -4.8826 h 1.3084 v 5.269 c 0,1.3923 -0.14145,2.4172 -0.42369,3.0757 -0.28224,0.6586 -0.72163,1.1829 -1.31747,1.5717 -0.58958,0.3889 -1.2665,0.5831 -2.0317,0.5831 z m 17.88981,0 c -1.69346,0 -3.04451,-0.6459 -4.05431,-1.9379 -0.79655,-1.0161 -1.19541,-2.1739 -1.19541,-3.4722 0,-1.3799 0.47048,-2.6177 1.41129,-3.7153 0.9408,-1.0914 2.24572,-1.6373 3.91409,-1.6373 0.75265,0 1.42676,0.1131 2.02261,0.3389 0.59585,0.2321 1.13233,0.5667 1.60901,1.0058 0.47668,0.4391 0.8962,1.0161 1.25997,1.7311 l -1.10966,0.5841 c -0.40141,-0.6712 -0.77479,-1.1577 -1.11975,-1.4588 -0.34497,-0.301 -0.76549,-0.5424 -1.26098,-0.7243 -0.48922,-0.1819 -0.9936,-0.2723 -1.51419,-0.2723 -1.07879,0 -1.98485,0.379 -2.71868,1.1378 -0.73383,0.7652 -1.11383,1.7439 -1.13892,2.9356 h 9.20114 c -0.0126,1.3987 -0.38873,2.5649 -1.12883,3.4995 -1.04117,1.3234 -2.43375,1.9853 -4.17738,1.9853 z m 12.91951,0 c -0.75265,0 -1.44944,-0.1754 -2.08919,-0.5266 -0.63975,-0.345 -1.22238,-0.8692 -1.74924,-1.5717 v 1.835 h -1.31747 v -10.2362 h 1.31747 v 3.7537 c 0,1.3485 0.0622,2.2772 0.18764,2.7853 0.20071,0.7777 0.61461,1.4292 1.24181,1.956 0.63348,0.5269 1.34914,0.7909 2.14569,0.7909 0.69619,0 1.25997,-0.1725 1.69274,-0.5175 0.43277,-0.3387 0.7279,-0.8469 0.88471,-1.5243 0.10035,-0.3951 0.1503,-1.1823 0.1503,-2.3615 v -4.8826 h 1.3084 v 5.269 c 0,1.3923 -0.14145,2.4172 -0.42369,3.0757 -0.28224,0.6586 -0.72162,1.1829 -1.31748,1.5717 -0.58957,0.3889 -1.2665,0.5831 -2.03169,0.5831 z m 28.40942,0 c -1.69345,0 -3.04451,-0.6459 -4.05431,-1.9379 -0.79655,-1.0161 -1.19541,-2.1739 -1.19541,-3.4722 0,-1.3799 0.47048,-2.6177 1.41129,-3.7153 0.94081,-1.0914 2.24572,-1.6373 3.91409,-1.6373 0.75264,0 1.42677,0.1131 2.02261,0.3389 0.59585,0.2321 1.13234,0.5667 1.60902,1.0058 0.47667,0.4391 0.8972,1.0161 1.26098,1.7311 l -1.11068,0.5841 c -0.40141,-0.6712 -0.77478,-1.1577 -1.11975,-1.4588 -0.34496,-0.301 -0.76448,-0.5424 -1.25997,-0.7243 -0.48922,-0.1819 -0.99461,-0.2723 -1.5152,-0.2723 -1.07879,0 -1.98484,0.379 -2.71867,1.1378 -0.73384,0.7652 -1.11383,1.7439 -1.13892,2.9356 h 9.20113 c -0.0126,1.3987 -0.38873,2.5649 -1.12883,3.4995 -1.04116,1.3234 -2.43375,1.9853 -4.17738,1.9853 z m 12.91952,0 c -0.75265,0 -1.44844,-0.1754 -2.0882,-0.5266 -0.63974,-0.345 -1.22338,-0.8692 -1.75024,-1.5717 v 1.835 h -1.31747 v -10.2362 h 1.31747 v 3.7537 c 0,1.3485 0.0632,2.2772 0.18864,2.7853 0.20071,0.7777 0.61462,1.4292 1.24183,1.956 0.63347,0.5269 1.34812,0.7909 2.14467,0.7909 0.6962,0 1.26098,-0.1725 1.69375,-0.5175 0.43278,-0.3387 0.7269,-0.8469 0.8837,-1.5243 0.10035,-0.3951 0.15132,-1.1823 0.15132,-2.3615 v -4.8826 h 1.30739 v 5.269 c 0,1.3923 -0.14145,2.4172 -0.42369,3.0757 -0.28225,0.6586 -0.72063,1.1829 -1.31647,1.5717 -0.58958,0.3889 -1.26751,0.5831 -2.0327,0.5831 z m 24.6416,0 c -1.58055,0 -2.88827,-0.5742 -3.92317,-1.722 -0.94081,-1.0412 -1.41128,-2.2706 -1.41128,-3.6881 0,-1.4301 0.49494,-2.6812 1.48593,-3.7537 0.99726,-1.0662 2.28051,-1.5989 3.84852,-1.5989 1.56175,0 2.83837,0.5327 3.82935,1.5989 0.99726,1.0725 1.49502,2.3236 1.49502,3.7537 0,1.4237 -0.47048,2.6571 -1.41129,3.6982 -1.03489,1.1415 -2.3388,1.7119 -3.91308,1.7119 z m 18.36191,0 c -1.07878,0 -2.05365,-0.2385 -2.92548,-0.7152 -0.87181,-0.4767 -1.55918,-1.1414 -2.06094,-1.9944 -0.4955,-0.8467 -0.74347,-1.766 -0.74347,-2.757 0,-1.474 0.53368,-2.7251 1.59992,-3.7537 1.06625,-1.0286 2.40788,-1.5424 4.02607,-1.5424 1.05371,0 1.99186,0.2008 2.8135,0.6022 0.82791,0.4077 1.48598,0.9781 1.97521,1.7119 l -1.04411,0.687 c -0.95334,-1.198 -2.18281,-1.7966 -3.6881,-1.7966 -0.82165,0 -1.56458,0.1809 -2.22943,0.5447 -0.65856,0.3638 -1.179,0.8758 -1.5616,1.5344 -0.37631,0.6586 -0.56492,1.3609 -0.56492,2.1073 0,1.1478 0.4111,2.1227 1.23274,2.9255 0.82792,0.8028 1.86599,1.2045 3.11412,1.2045 1.56175,0 2.79402,-0.5987 3.69719,-1.7967 l 1.04411,0.6487 c -0.30733,0.5143 -0.67971,0.9376 -1.11875,1.27 -0.43905,0.3324 -0.97553,0.6021 -1.60901,0.8091 -0.6272,0.207 -1.27966,0.3107 -1.95705,0.3107 z m 12.06205,0 c -1.58056,0 -2.88828,-0.5742 -3.92316,-1.722 -0.94081,-1.0412 -1.4113,-2.2706 -1.4113,-3.6881 0,-1.4301 0.49496,-2.6812 1.48595,-3.7537 0.99725,-1.0662 2.2805,-1.5989 3.84851,-1.5989 1.56175,0 2.83736,0.5327 3.82834,1.5989 0.99726,1.0725 1.49603,2.3236 1.49604,3.7537 -1e-5,1.4237 -0.47049,2.6571 -1.4113,3.6982 -1.03488,1.1415 -2.33879,1.7119 -3.91308,1.7119 z m 12.93061,0 c -0.75264,0 -1.44944,-0.1754 -2.08919,-0.5266 -0.63974,-0.345 -1.22238,-0.8692 -1.74923,-1.5717 v 1.835 h -1.31747 v -10.2362 h 1.31747 v 3.7537 c 0,1.3485 0.0622,2.2772 0.18763,2.7853 0.20071,0.7777 0.61461,1.4292 1.24182,1.956 0.63347,0.5269 1.34914,0.7909 2.14568,0.7909 0.6962,0 1.25998,-0.1725 1.69275,-0.5175 0.43276,-0.3387 0.7279,-0.8469 0.8847,-1.5243 0.10035,-0.3951 0.1503,-1.1823 0.1503,-2.3615 v -4.8826 h 1.3084 v 5.269 c 0,1.3923 -0.14145,2.4172 -0.42369,3.0757 -0.28224,0.6586 -0.72162,1.1829 -1.31747,1.5717 -0.58957,0.3889 -1.26651,0.5831 -2.0317,0.5831 z m 17.18467,0 c -1.0788,0 -2.05468,-0.2385 -2.92649,-0.7152 -0.87181,-0.4767 -1.55818,-1.1414 -2.05994,-1.9944 -0.4955,-0.8467 -0.74347,-1.766 -0.74347,-2.757 0,-1.474 0.53369,-2.7251 1.59993,-3.7537 1.06625,-1.0286 2.40788,-1.5424 4.02606,-1.5424 1.05371,0 1.99187,0.2008 2.81351,0.6022 0.82791,0.4077 1.48598,0.9781 1.97519,1.7119 l -1.04409,0.687 c -0.95335,-1.198 -2.18282,-1.7966 -3.68812,-1.7966 -0.82163,0 -1.56458,0.1809 -2.22941,0.5447 -0.65856,0.3638 -1.179,0.8758 -1.5616,1.5344 -0.37633,0.6586 -0.56492,1.3609 -0.56492,2.1073 0,1.1478 0.4111,2.1227 1.23273,2.9255 0.82791,0.8028 1.86599,1.2045 3.11413,1.2045 1.56174,0 2.79402,-0.5987 3.69719,-1.7967 l 1.04409,0.6487 c -0.30732,0.5143 -0.6807,0.9376 -1.11975,1.27 -0.43904,0.3324 -0.97452,0.6021 -1.608,0.8091 -0.62721,0.207 -1.27966,0.3107 -1.95704,0.3107 z m 12.06104,0 c -1.58056,0 -2.88828,-0.5742 -3.92318,-1.722 -0.9408,-1.0412 -1.41128,-2.2706 -1.41128,-3.6881 0,-1.4301 0.49597,-2.6812 1.48695,-3.7537 0.99725,-1.0662 2.27949,-1.5989 3.84751,-1.5989 1.56174,0 2.83836,0.5327 3.82935,1.5989 0.99725,1.0725 1.49602,2.3236 1.49602,3.7537 0,1.4237 -0.47047,2.6571 -1.41128,3.6982 -1.0349,1.1415 -2.33981,1.7119 -3.91409,1.7119 z m 12.93162,0 c -0.75265,0 -1.44945,-0.1754 -2.08919,-0.5266 -0.63976,-0.345 -1.22239,-0.8692 -1.74924,-1.5717 v 1.835 h -1.31748 v -10.2362 h 1.31748 v 3.7537 c 0,1.3485 0.0622,2.2772 0.18763,2.7853 0.2007,0.7777 0.61462,1.4292 1.24182,1.956 0.63348,0.5269 1.34913,0.7909 2.14568,0.7909 0.6962,0 1.25997,-0.1725 1.69274,-0.5175 0.43278,-0.3387 0.72791,-0.8469 0.88472,-1.5243 0.10035,-0.3951 0.1503,-1.1823 0.1503,-2.3615 v -4.8826 h 1.30739 v 5.269 c 0,1.3923 -0.14044,2.4172 -0.42269,3.0757 -0.28224,0.6586 -0.72163,1.1829 -1.31747,1.5717 -0.58956,0.3889 -1.2665,0.5831 -2.03169,0.5831 z m 11.44265,0 c -1.58056,0 -2.88827,-0.5742 -3.92316,-1.722 -0.94082,-1.0412 -1.4113,-2.2706 -1.4113,-3.6881 0,-1.4301 0.49496,-2.6812 1.48595,-3.7537 0.99725,-1.0662 2.2805,-1.5989 3.84851,-1.5989 1.56175,0 2.83837,0.5327 3.82935,1.5989 0.99726,1.0725 1.49502,2.3236 1.49502,3.7537 0,1.4237 -0.46947,2.6571 -1.41027,3.6982 -1.0349,1.1415 -2.33981,1.7119 -3.9141,1.7119 z m 13.02443,0 c -1.07879,0 -2.05366,-0.2385 -2.92548,-0.7152 -0.87181,-0.4767 -1.55918,-1.1414 -2.06094,-1.9944 -0.4955,-0.8467 -0.74247,-1.766 -0.74247,-2.757 0,-1.474 0.53267,-2.7251 1.59892,-3.7537 1.06625,-1.0286 2.40889,-1.5424 4.02707,-1.5424 1.05371,0 1.99085,0.2008 2.8125,0.6022 0.82791,0.4077 1.48699,0.9781 1.97621,1.7119 l -1.04409,0.687 c -0.95336,-1.198 -2.18283,-1.7966 -3.68813,-1.7966 -0.82163,0 -1.56558,0.1809 -2.23042,0.5447 -0.65856,0.3638 -1.179,0.8758 -1.56159,1.5344 -0.37633,0.6586 -0.56392,1.3609 -0.56392,2.1073 0,1.1478 0.41009,2.1227 1.23173,2.9255 0.82791,0.8028 1.86598,1.2045 3.11412,1.2045 1.56174,0 2.79503,-0.5987 3.69821,-1.7967 l 1.04409,0.6487 c -0.30733,0.5143 -0.68071,0.9376 -1.11976,1.27 -0.43904,0.3324 -0.97553,0.6021 -1.60901,0.8091 -0.6272,0.207 -1.27965,0.3107 -1.95704,0.3107 z m 15.87829,0 c -0.73383,0 -1.43344,-0.2008 -2.09828,-0.6023 -0.48294,-0.301 -0.95343,-0.7781 -1.41129,-1.4304 v 1.7694 h -1.30739 v -10.2362 h 1.30739 v 4.3368 c 0,1.2795 0.1254,2.2299 0.37628,2.8509 0.25716,0.6209 0.6494,1.1131 1.17624,1.4769 0.53313,0.37 1.10352,0.5558 1.71191,0.5558 0.52686,0 0.98129,-0.1349 1.36388,-0.4045 0.3826,-0.2635 0.64944,-0.618 0.79997,-1.0633 0.1568,-0.4391 0.23505,-1.2763 0.23505,-2.5119 v -5.2407 h 1.30838 v 4.008 c 0,1.4676 0.12159,2.5152 0.3662,3.1424 0.24461,0.6271 0.63123,1.1287 1.15808,1.505 0.53312,0.3763 1.11957,0.565 1.75932,0.565 0.52686,0 0.97747,-0.1254 1.3538,-0.3764 0.38259,-0.2508 0.65325,-0.5837 0.81006,-0.9976 0.15679,-0.4077 0.23503,-1.1601 0.23503,-2.2577 v -5.5887 h 1.34472 v 5.5887 c 0,1.2795 -0.13101,2.2384 -0.39443,2.8781 -0.26344,0.6397 -0.6679,1.1385 -1.21357,1.496 -0.5394,0.3575 -1.16357,0.5367 -1.87231,0.5367 -0.75892,0 -1.46796,-0.2103 -2.12653,-0.6305 -0.65856,-0.4139 -1.20728,-1.022 -1.64633,-1.8249 -0.20697,0.6021 -0.45215,1.0632 -0.7344,1.3831 -0.28224,0.3261 -0.64518,0.5864 -1.09049,0.7808 -0.44532,0.1944 -0.9158,0.2915 -1.41129,0.2915 z m 21.87954,0 c -1.69345,0 -3.04551,-0.6459 -4.05531,-1.9379 -0.79655,-1.0161 -1.19441,-2.1739 -1.19441,-3.4722 0,-1.3799 0.47049,-2.6177 1.4113,-3.7153 0.94081,-1.0914 2.24471,-1.6373 3.91307,-1.6373 0.75265,0 1.42779,0.1131 2.02363,0.3389 0.59584,0.2321 1.13133,0.5667 1.608,1.0058 0.47668,0.4391 0.8972,1.0161 1.26099,1.7311 l -1.11068,0.5841 c -0.40141,-0.6712 -0.77378,-1.1577 -1.11875,-1.4588 -0.34495,-0.301 -0.76548,-0.5424 -1.26097,-0.7243 -0.48922,-0.1819 -0.99462,-0.2723 -1.5152,-0.2723 -1.07879,0 -1.98484,0.379 -2.71868,1.1378 -0.73383,0.7652 -1.11282,1.7439 -1.1379,2.9356 h 9.20113 c -0.0126,1.3987 -0.38873,2.5649 -1.12884,3.4995 -1.04115,1.3234 -2.43374,1.9853 -4.17738,1.9853 z m 12.91851,0 c -0.75264,0 -1.44843,-0.1754 -2.08819,-0.5266 -0.63974,-0.345 -1.22338,-0.8692 -1.75024,-1.5717 v 1.835 h -1.31646 v -10.2362 h 1.31646 v 3.7537 c 0,1.3485 0.0632,2.2772 0.18865,2.7853 0.2007,0.7777 0.6146,1.4292 1.24181,1.956 0.63348,0.5269 1.34813,0.7909 2.14468,0.7909 0.6962,0 1.26098,-0.1725 1.69375,-0.5175 0.43278,-0.3387 0.7279,-0.8469 0.8847,-1.5243 0.10036,-0.3951 0.15032,-1.1823 0.15032,-2.3615 v -4.8826 h 1.30738 v 5.269 c 0,1.3923 -0.14044,2.4172 -0.42268,3.0757 -0.28225,0.6586 -0.72163,1.1829 -1.31747,1.5717 -0.58958,0.3889 -1.26751,0.5831 -2.03271,0.5831 z m 17.97555,0 c -1.58056,0 -2.88828,-0.5742 -3.92316,-1.722 -0.94081,-1.0412 -1.4113,-2.2706 -1.4113,-3.6881 0,-1.4301 0.49496,-2.6812 1.48594,-3.7537 0.99726,-1.0662 2.2805,-1.5989 3.84852,-1.5989 1.56174,0 2.83737,0.5327 3.82835,1.5989 0.99725,1.0725 1.49602,2.3236 1.49602,3.7537 0,1.4237 -0.47048,2.6571 -1.41129,3.6982 -1.03489,1.1415 -2.33879,1.7119 -3.91308,1.7119 z m 17.91906,0 c -0.73383,0 -1.43243,-0.2008 -2.09727,-0.6023 -0.48294,-0.301 -0.95342,-0.7781 -1.41128,-1.4304 v 1.7694 h -1.3084 v -10.2362 h 1.3084 v 4.3368 c 0,1.2795 0.12539,2.2299 0.37627,2.8509 0.25716,0.6209 0.6494,1.1131 1.17624,1.4769 0.53313,0.37 1.10352,0.5558 1.71191,0.5558 0.52686,0 0.98129,-0.1349 1.36388,-0.4045 0.3826,-0.2635 0.64944,-0.618 0.79997,-1.0633 0.1568,-0.4391 0.23505,-1.2763 0.23505,-2.5119 v -5.2407 h 1.30738 v 4.008 c 0,1.4676 0.12259,2.5152 0.3672,3.1424 0.24461,0.6271 0.63022,1.1287 1.15707,1.505 0.53313,0.3763 1.11958,0.565 1.75932,0.565 0.52686,0 0.97848,-0.1254 1.35481,-0.3764 0.38259,-0.2508 0.65225,-0.5837 0.80904,-0.9976 0.1568,-0.4077 0.23505,-1.1601 0.23505,-2.2577 v -5.5887 h 1.34572 v 5.5887 c 0,1.2795 -0.13201,2.2384 -0.39544,2.8781 -0.26343,0.6397 -0.6679,1.1385 -1.21358,1.496 -0.53939,0.3575 -1.16356,0.5367 -1.8723,0.5367 -0.75892,0 -1.46695,-0.2103 -2.12552,-0.6305 -0.65856,-0.4139 -1.20728,-1.022 -1.64633,-1.8249 -0.20697,0.6021 -0.45215,1.0632 -0.7344,1.3831 -0.28224,0.3261 -0.64619,0.5864 -1.0915,0.7808 -0.44532,0.1944 -0.9158,0.2915 -1.41129,0.2915 z m 27.84752,0 c -0.83418,0 -1.59037,-0.1792 -2.26774,-0.5367 -0.67738,-0.3575 -1.27608,-0.893 -1.79665,-1.608 v 1.8814 h -1.30739 v -13.9808 h 1.30739 v 5.504 c 0.55194,-0.6711 1.16948,-1.1765 1.85314,-1.5152 0.68365,-0.3387 1.43321,-0.5074 2.24858,-0.5074 1.44884,0 2.68494,0.5232 3.70728,1.5706 1.02862,1.0538 1.54244,2.3332 1.54244,3.8385 0,1.474 -0.51662,2.7345 -1.55152,3.7819 -1.03488,1.0475 -2.28041,1.5717 -3.73553,1.5717 z m 11.25906,0 c -0.48295,0 -0.94681,-0.147 -1.39212,-0.4418 -0.44532,-0.2886 -0.86866,-0.728 -1.27007,-1.3175 v 1.496 h -1.34572 v -10.2362 h 1.34572 v 3.4622 c 0,1.775 0.0811,2.9545 0.24413,3.5378 0.21325,0.7589 0.52343,1.3171 0.9311,1.6746 0.4077,0.3638 0.83102,0.5458 1.27007,0.5458 0.18816,0 0.4211,-0.061 0.69707,-0.1796 l 0.68597,1.1106 c -0.41395,0.2322 -0.80237,0.3481 -1.16615,0.3481 z m 7.13514,0 c -1.58056,0 -2.88828,-0.5742 -3.92316,-1.722 -0.94081,-1.0412 -1.4113,-2.2706 -1.4113,-3.6881 0,-1.4301 0.49596,-2.6812 1.48695,-3.7537 0.99725,-1.0662 2.2795,-1.5989 3.84751,-1.5989 1.56174,0 2.83836,0.5327 3.82935,1.5989 0.99726,1.0725 1.49603,2.3236 1.49603,3.7537 0,1.4237 -0.47048,2.6571 -1.41129,3.6982 -1.0349,1.1415 -2.33981,1.7119 -3.91409,1.7119 z m 13.02543,0 c -1.07879,0 -2.05466,-0.2385 -2.92648,-0.7152 -0.87182,-0.4767 -1.55817,-1.1414 -2.05994,-1.9944 -0.49549,-0.8467 -0.74348,-1.766 -0.74348,-2.757 0,-1.474 0.53369,-2.7251 1.59994,-3.7537 1.06625,-1.0286 2.40787,-1.5424 4.02607,-1.5424 1.0537,0 1.99186,0.2008 2.8135,0.6022 0.82791,0.4077 1.48598,0.9781 1.9752,1.7119 l -1.04409,0.687 c -0.95336,-1.198 -2.18283,-1.7966 -3.68812,-1.7966 -0.82165,0 -1.56458,0.1809 -2.22942,0.5447 -0.65857,0.3638 -1.17901,0.8758 -1.5616,1.5344 -0.37632,0.6586 -0.56492,1.3609 -0.56492,2.1073 0,1.1478 0.41109,2.1227 1.23274,2.9255 0.82791,0.8028 1.86598,1.2045 3.11411,1.2045 1.56175,0 2.79403,-0.5987 3.69721,-1.7967 l 1.04409,0.6487 c -0.30733,0.5143 -0.68071,0.9376 -1.11975,1.27 -0.43905,0.3324 -0.97453,0.6021 -1.60801,0.8091 -0.62721,0.207 -1.27967,0.3107 -1.95705,0.3107 z m 11.97732,0 c -1.69346,0 -3.04552,-0.6459 -4.05532,-1.9379 -0.79655,-1.0161 -1.19441,-2.1739 -1.19441,-3.4722 0,-1.3799 0.46948,-2.6177 1.41029,-3.7153 0.94081,-1.0914 2.24573,-1.6373 3.91409,-1.6373 0.75265,0 1.42677,0.1131 2.02261,0.3389 0.59585,0.2321 1.13234,0.5667 1.60902,1.0058 0.47668,0.4391 0.8972,1.0161 1.26098,1.7311 l -1.11068,0.5841 c -0.40141,-0.6712 -0.77478,-1.1577 -1.11975,-1.4588 -0.34496,-0.301 -0.76448,-0.5424 -1.25997,-0.7243 -0.48922,-0.1819 -0.99462,-0.2723 -1.51519,-0.2723 -1.0788,0 -1.98485,0.379 -2.71868,1.1378 -0.73384,0.7652 -1.11283,1.7439 -1.13791,2.9356 h 9.20012 c -0.0126,1.3987 -0.38872,2.5649 -1.12883,3.4995 -1.04116,1.3234 -2.43274,1.9853 -4.17637,1.9853 z m 10.06767,0 c -0.80909,0 -1.4794,-0.2574 -2.01252,-0.7718 -0.52686,-0.5142 -0.79089,-1.1601 -0.79089,-1.9378 0,-0.5959 0.16592,-1.1257 0.49834,-1.5899 0.33242,-0.464 0.9604,-0.9345 1.88239,-1.4113 0.85928,-0.439 1.41081,-0.8029 1.65542,-1.0915 0.24462,-0.2948 0.3672,-0.6304 0.3672,-1.0067 0,-0.4579 -0.18478,-0.8557 -0.55483,-1.1944 -0.37005,-0.3387 -0.81887,-0.5084 -1.34573,-0.5084 -0.75264,0 -1.46448,0.3799 -2.13559,1.1389 l -0.82821,-0.9412 c 0.35123,-0.4516 0.79342,-0.8061 1.32655,-1.0633 0.53939,-0.2571 1.10418,-0.3853 1.69376,-0.3853 0.88435,0 1.62168,0.2913 2.21125,0.8745 0.58957,0.5834 0.8837,1.2953 0.8837,2.1357 0,0.5958 -0.17255,1.1323 -0.51751,1.609 -0.35123,0.4704 -1.01593,0.9598 -1.99437,1.4678 -0.80282,0.4139 -1.32988,0.774 -1.58077,1.0814 -0.25088,0.301 -0.37628,0.6178 -0.37628,0.9502 0,0.3764 0.15088,0.7064 0.45194,0.9886 0.30733,0.2824 0.67409,0.4228 1.10059,0.4228 0.6711,0 1.35847,-0.3413 2.06094,-1.025 l 0.84637,0.8746 c -0.95335,0.922 -1.90093,1.3831 -2.84175,1.3831 z m 10.01624,0 c -1.58056,0 -2.88828,-0.5742 -3.92316,-1.722 -0.94081,-1.0412 -1.4113,-2.2706 -1.4113,-3.6881 0,-1.4301 0.49596,-2.6812 1.48695,-3.7537 0.99726,-1.0662 2.27949,-1.5989 3.84751,-1.5989 1.56173,0 2.83837,0.5327 3.82935,1.5989 0.99725,1.0725 1.49603,2.3236 1.49603,3.7537 0,1.4237 -0.47048,2.6571 -1.41129,3.6982 -1.03489,1.1415 -2.3398,1.7119 -3.91409,1.7119 z m -334.27016,-0.2633 v -10.2362 h 1.32655 v 10.2362 z m 163.38996,0 v -10.2362 h 1.32655 v 10.2362 z m 21.92697,0 v -10.2362 h 1.32655 v 10.2362 z m 70.69366,0 v -10.2362 h 1.32656 v 10.2362 z m -288.50962,-0.9977 c 0.60838,0 1.18821,-0.1282 1.74015,-0.3854 0.55194,-0.2571 0.99413,-0.5955 1.32655,-1.0158 0.3387,-0.4202 0.5961,-0.9822 0.77172,-1.6846 h -7.62037 c 0.26971,0.9408 0.66755,1.647 1.19441,2.1174 0.72128,0.646 1.584,0.9684 2.58754,0.9684 z m 41.32893,0 c 0.60838,0 1.18822,-0.1282 1.74016,-0.3854 0.55194,-0.2571 0.99413,-0.5955 1.32655,-1.0158 0.33868,-0.4202 0.5961,-0.9822 0.77171,-1.6846 h -7.62036 c 0.2697,0.9408 0.66755,1.647 1.1944,2.1174 0.72129,0.646 1.584,0.9684 2.58754,0.9684 z m 185.31693,0 c 0.60838,0 1.18921,-0.1282 1.74116,-0.3854 0.55194,-0.2571 0.99413,-0.5955 1.32655,-1.0158 0.33869,-0.4202 0.5951,-0.9822 0.77071,-1.6846 h -7.62036 c 0.26969,0.9408 0.66856,1.647 1.19541,2.1174 0.72128,0.646 1.58299,0.9684 2.58653,0.9684 z m 120.05758,0 c 0.60838,0 1.18922,-0.1282 1.74117,-0.3854 0.55194,-0.2571 0.99412,-0.5955 1.32654,-1.0158 0.33869,-0.4202 0.5951,-0.9822 0.77071,-1.6846 h -7.62036 c 0.26969,0.9408 0.66856,1.647 1.19541,2.1174 0.72128,0.646 1.58299,0.9684 2.58653,0.9684 z m -322.25653,-0.01 c 1.1415,0 2.10032,-0.3989 2.87806,-1.1954 0.784,-0.7966 1.17624,-1.7876 1.17624,-2.9729 0,-0.7778 -0.17535,-1.4763 -0.52659,-2.0973 -0.34496,-0.621 -0.84093,-1.1141 -1.48695,-1.4779 -0.64602,-0.3638 -1.32957,-0.5447 -2.05086,-0.5447 -0.71501,0 -1.38633,0.1809 -2.01353,0.5447 -0.62094,0.3701 -1.11589,0.8849 -1.48595,1.5435 -0.37005,0.6586 -0.55483,1.3487 -0.55483,2.07 0,0.7275 0.18198,1.4167 0.54576,2.069 0.37005,0.6523 0.86501,1.1577 1.48593,1.5152 0.62094,0.3638 1.29888,0.5458 2.03272,0.5458 z m 41.32893,0 c 1.14151,0 2.10133,-0.3989 2.87907,-1.1954 0.78401,-0.7966 1.17624,-1.7876 1.17624,-2.9729 0,-0.7778 -0.17636,-1.4763 -0.52759,-2.0973 -0.34497,-0.621 -0.83992,-1.1141 -1.48594,-1.4779 -0.64602,-0.3638 -1.32958,-0.5447 -2.05086,-0.5447 -0.71502,0 -1.38633,0.1809 -2.01354,0.5447 -0.62093,0.3701 -1.11689,0.8849 -1.48695,1.5435 -0.37005,0.6586 -0.55484,1.3487 -0.55484,2.07 0,0.7275 0.18198,1.4167 0.54576,2.069 0.37005,0.6523 0.86501,1.1577 1.48594,1.5152 0.62093,0.3638 1.29888,0.5458 2.03271,0.5458 z m 237.40859,0 c 0.73383,0 1.41176,-0.182 2.0327,-0.5458 0.62094,-0.3575 1.11309,-0.8629 1.47686,-1.5152 0.37005,-0.6523 0.55483,-1.3415 0.55483,-2.069 0,-0.7213 -0.18478,-1.4114 -0.55483,-2.07 -0.37005,-0.6586 -0.86882,-1.1734 -1.49603,-1.5435 -0.62093,-0.3638 -1.28562,-0.5447 -1.99437,-0.5447 -0.72128,0 -1.40764,0.1809 -2.05993,0.5447 -0.64603,0.3638 -1.1448,0.8569 -1.49604,1.4779 -0.34495,0.621 -0.5175,1.3195 -0.5175,2.0973 0,1.1853 0.38842,2.1763 1.16615,2.9729 0.78401,0.7965 1.74665,1.1954 2.88816,1.1954 z m -224.31355,-0.019 c 1.08507,0 2.01941,-0.4045 2.80342,-1.2136 0.79027,-0.8091 1.18531,-1.7878 1.18531,-2.9356 0,-0.7401 -0.17815,-1.4292 -0.53566,-2.069 -0.3575,-0.6397 -0.84123,-1.1357 -1.44962,-1.4869 -0.60839,-0.345 -1.27589,-0.5175 -2.00345,-0.5175 -0.72756,0 -1.39606,0.1725 -2.00446,0.5175 -0.60839,0.3512 -1.09111,0.8472 -1.44861,1.4869 -0.35751,0.6398 -0.53566,1.3289 -0.53566,2.069 0,1.1478 0.39122,2.1265 1.17523,2.9356 0.78401,0.8091 1.72217,1.2136 2.8135,1.2136 z m 30.42396,0 c 1.08507,0 2.01941,-0.4045 2.80342,-1.2136 0.79028,-0.8091 1.18532,-1.7878 1.18532,-2.9356 0,-0.7401 -0.17917,-1.4292 -0.53667,-2.069 -0.35751,-0.6397 -0.84023,-1.1357 -1.44862,-1.4869 -0.60839,-0.345 -1.27589,-0.5175 -2.00345,-0.5175 -0.72756,0 -1.39607,0.1725 -2.00446,0.5175 -0.60838,0.3512 -1.0911,0.8472 -1.44861,1.4869 -0.35751,0.6398 -0.53668,1.3289 -0.53668,2.069 0,1.1478 0.39225,2.1265 1.17625,2.9356 0.784,0.8091 1.72216,1.2136 2.8135,1.2136 z m 42.17632,0 c 1.08506,0 2.02041,-0.4045 2.80442,-1.2136 0.79028,-0.8091 1.18532,-1.7878 1.18532,-2.9356 0,-0.7401 -0.17916,-1.4292 -0.53667,-2.069 -0.35751,-0.6397 -0.84023,-1.1357 -1.44862,-1.4869 -0.60838,-0.345 -1.2769,-0.5175 -2.00445,-0.5175 -0.72756,0 -1.39506,0.1725 -2.00345,0.5175 -0.60839,0.3512 -1.09111,0.8472 -1.44862,1.4869 -0.3575,0.6398 -0.53667,1.3289 -0.53667,2.069 0,1.1478 0.39223,2.1265 1.17624,2.9356 0.78401,0.8091 1.72116,1.2136 2.8125,1.2136 z m 24.37427,0 c 1.08507,0 2.01941,-0.4045 2.80342,-1.2136 0.79027,-0.8091 1.18532,-1.7878 1.18532,-2.9356 0,-0.7401 -0.17816,-1.4292 -0.53566,-2.069 -0.35751,-0.6397 -0.84124,-1.1357 -1.44962,-1.4869 -0.6084,-0.345 -1.2759,-0.5175 -2.00346,-0.5175 -0.72756,0 -1.39607,0.1725 -2.00446,0.5175 -0.60838,0.3512 -1.0911,0.8472 -1.44861,1.4869 -0.35751,0.6398 -0.53567,1.3289 -0.53567,2.069 0,1.1478 0.39124,2.1265 1.17524,2.9356 0.784,0.8091 1.72217,1.2136 2.8135,1.2136 z m 81.67632,0 c 1.08506,0 2.01941,-0.4045 2.80342,-1.2136 0.79027,-0.8091 1.18532,-1.7878 1.18532,-2.9356 0,-0.7401 -0.17917,-1.4292 -0.53668,-2.069 -0.35749,-0.6397 -0.84022,-1.1357 -1.44861,-1.4869 -0.60839,-0.345 -1.27589,-0.5175 -2.00345,-0.5175 -0.72755,0 -1.39607,0.1725 -2.00445,0.5175 -0.6084,0.3512 -1.09111,0.8472 -1.44862,1.4869 -0.35751,0.6398 -0.53668,1.3289 -0.53668,2.069 0,1.1478 0.39224,2.1265 1.17625,2.9356 0.784,0.8091 1.72216,1.2136 2.8135,1.2136 z m 64.16078,0 c 1.08506,0 2.02042,-0.4045 2.80442,-1.2136 0.79028,-0.8091 1.18533,-1.7878 1.18533,-2.9356 0,-0.7401 -0.17917,-1.4292 -0.53668,-2.069 -0.35751,-0.6397 -0.84022,-1.1357 -1.44862,-1.4869 -0.60838,-0.345 -1.27689,-0.5175 -2.00445,-0.5175 -0.72756,0 -1.39506,0.1725 -2.00345,0.5175 -0.6084,0.3512 -1.09111,0.8472 -1.44861,1.4869 -0.35752,0.6398 -0.53668,1.3289 -0.53668,2.069 0,1.1478 0.39223,2.1265 1.17624,2.9356 0.78401,0.8091 1.72116,1.2136 2.8125,1.2136 z m 45.08666,0 c 1.08506,0 2.01941,-0.4045 2.80342,-1.2136 0.79027,-0.8091 1.18632,-1.7878 1.18632,-2.9356 0,-0.7401 -0.17916,-1.4292 -0.53667,-2.069 -0.3575,-0.6397 -0.84022,-1.1357 -1.44862,-1.4869 -0.60838,-0.345 -1.27689,-0.5175 -2.00445,-0.5175 -0.72756,0 -1.39506,0.1725 -2.00345,0.5175 -0.60839,0.3512 -1.09111,0.8472 -1.44861,1.4869 -0.35752,0.6398 -0.53669,1.3289 -0.53669,2.069 0,1.1478 0.39224,2.1265 1.17625,2.9356 0.78401,0.8091 1.72116,1.2136 2.8125,1.2136 z"
           style="font-variant:normal;font-weight:normal;font-stretch:normal;font-size:20px;font-family:'Century Gothic';-inkscape-font-specification:CenturyGothic;writing-mode:lr-tb;fill:#4d4d4d;fill-opacity:1;fill-rule:nonzero;stroke:none;stroke-width:0.96338755" />
        <g
           transform="matrix(0.94306169,0,0,0.94306169,6.7420142,78.969548)"
           id="g6302">
          <path
             d="m 407.9873,1457.0898 c -1.283,0 -2.35,-0.489 -3.198,-1.467 -0.849,-0.98 -1.272,-2.233 -1.272,-3.765 0,-1.542 0.432,-2.809 1.294,-3.804 0.863,-0.995 1.927,-1.492 3.189,-1.492 1.304,0 2.384,0.49 3.243,1.466 0.859,0.98 1.288,2.261 1.288,3.847 0,1.553 -0.429,2.809 -1.288,3.772 -0.859,0.962 -1.944,1.443 -3.256,1.443 m 4.36,10.563 h 4.152 v -24.732 h -4.152 v 1.885 c -0.809,-0.83 -1.621,-1.43 -2.436,-1.796 -0.816,-0.366 -1.697,-0.549 -2.65,-0.549 -2.134,0 -3.982,0.895 -5.543,2.682 -1.558,1.788 -2.336,4.01 -2.336,6.666 0,2.755 0.754,5.014 2.262,6.775 1.507,1.76 3.34,2.639 5.497,2.639 0.992,0 1.922,-0.201 2.792,-0.607 0.87,-0.404 1.676,-1.01 2.414,-1.819 z"
             style="fill:#4d4d4d;fill-opacity:1;fill-rule:nonzero;stroke:none"
             id="path576"
             inkscape:connector-curvature="0" />
          <path
             d="m 432.8652,1454.0723 c -0.274,0.995 -0.815,1.805 -1.621,2.428 -0.807,0.622 -1.744,0.933 -2.81,0.933 -1.157,0 -2.172,-0.348 -3.047,-1.048 -0.546,-0.437 -1.055,-1.209 -1.521,-2.313 z m 4.15,-3.525 h -13.332 c 0.194,-1.27 0.707,-2.278 1.543,-3.027 0.836,-0.749 1.904,-1.124 3.2,-1.124 1.55,0 2.883,0.586 3.999,1.756 l 3.495,-1.772 c -0.87,-1.333 -1.914,-2.321 -3.131,-2.96 -1.217,-0.639 -2.66,-0.959 -4.333,-0.959 -2.594,0 -4.706,0.882 -6.338,2.648 -1.633,1.765 -2.446,3.977 -2.446,6.635 0,2.722 0.812,4.982 2.439,6.781 1.625,1.797 3.665,2.697 6.118,2.697 2.604,0 4.722,-0.9 6.354,-2.697 1.633,-1.799 2.447,-4.174 2.447,-7.126 z"
             style="fill:#4d4d4d;fill-opacity:1;fill-rule:nonzero;stroke:none"
             id="path580"
             inkscape:connector-curvature="0" />
          <path
             d="m 405.4639,1438.6709 h 6.515 l 8.144,-26.437 8.217,26.437 h 6.512 l 5.892,-37.901 h -6.466 l -3.766,23.935 -7.464,-23.935 h -5.893 l -7.398,23.935 -3.856,-23.935 h -6.52 z"
             style="fill:#4d4d4d;fill-opacity:1;fill-rule:nonzero;stroke:none"
             id="path584"
             inkscape:connector-curvature="0" />
          <path
             d="m 457.2871,1423.0303 c -2.016,0 -3.689,-0.769 -5.022,-2.307 -1.333,-1.538 -1.999,-3.507 -1.999,-5.912 0,-2.423 0.677,-4.416 2.035,-5.977 1.356,-1.565 3.025,-2.345 5.009,-2.345 2.047,0 3.745,0.767 5.094,2.306 1.349,1.537 2.023,3.55 2.023,6.043 0,2.437 -0.674,4.413 -2.023,5.924 -1.349,1.512 -3.054,2.268 -5.117,2.268 m 6.854,5.772 h 6.519 v -28.033 h -6.519 v 2.962 c -1.273,-1.305 -2.549,-2.247 -3.828,-2.821 -1.281,-0.576 -2.669,-0.863 -4.163,-0.863 -3.355,0 -6.259,1.404 -8.708,4.212 -2.448,2.809 -3.673,6.299 -3.673,10.475 0,4.328 1.186,7.875 3.555,10.641 2.368,2.764 5.248,4.148 8.634,4.148 1.558,0 3.021,-0.318 4.39,-0.954 1.367,-0.635 2.632,-1.589 3.793,-2.859 z"
             style="fill:#4d4d4d;fill-opacity:1;fill-rule:nonzero;stroke:none"
             id="path588"
             inkscape:connector-curvature="0" />
          <path
             d="m 476.8135,1428.8027 h 6.52 v -3.222 c 1.114,1.323 2.353,2.309 3.715,2.964 1.363,0.653 2.848,0.979 4.458,0.979 1.623,0 3.091,-0.429 4.398,-1.289 1.306,-0.86 2.355,-2.114 3.154,-3.761 1.036,1.647 2.307,2.901 3.811,3.761 1.506,0.86 3.151,1.289 4.935,1.289 1.85,0 3.475,-0.464 4.876,-1.393 1.403,-0.926 2.411,-2.139 3.025,-3.632 0.613,-1.495 0.919,-3.925 0.919,-7.291 v -16.438 h -6.568 v 14.221 c 0,3.177 -0.368,5.33 -1.098,6.454 -0.733,1.126 -1.831,1.688 -3.296,1.688 -1.117,0 -2.115,-0.344 -2.997,-1.03 -0.884,-0.688 -1.541,-1.637 -1.97,-2.847 -0.431,-1.211 -0.646,-3.157 -0.646,-5.837 v -12.649 h -6.566 v 13.578 c 0,2.507 -0.172,4.324 -0.517,5.448 -0.341,1.126 -0.856,1.963 -1.543,2.513 -0.685,0.55 -1.516,0.824 -2.489,0.824 -1.086,0 -2.071,-0.348 -2.957,-1.044 -0.886,-0.694 -1.548,-1.671 -1.986,-2.924 -0.441,-1.255 -0.658,-3.229 -0.658,-5.925 v -12.47 h -6.52 z"
             style="fill:#4d4d4d;fill-opacity:1;fill-rule:nonzero;stroke:none"
             id="path592"
             inkscape:connector-curvature="0" />
          <path
             d="m 534.7646,1423.0303 c -2.015,0 -3.688,-0.769 -5.021,-2.307 -1.335,-1.538 -2.001,-3.507 -2.001,-5.912 0,-2.423 0.678,-4.416 2.035,-5.977 1.358,-1.565 3.027,-2.345 5.011,-2.345 2.047,0 3.745,0.767 5.093,2.306 1.349,1.537 2.024,3.55 2.024,6.043 0,2.437 -0.675,4.413 -2.024,5.924 -1.348,1.512 -3.053,2.268 -5.117,2.268 m 6.854,5.772 h 6.52 v -28.033 h -6.52 v 2.962 c -1.272,-1.305 -2.548,-2.247 -3.828,-2.821 -1.28,-0.576 -2.669,-0.863 -4.164,-0.863 -3.354,0 -6.257,1.404 -8.707,4.212 -2.447,2.809 -3.674,6.299 -3.674,10.475 0,4.328 1.187,7.875 3.557,10.641 2.368,2.764 5.246,4.148 8.634,4.148 1.558,0 3.021,-0.318 4.388,-0.954 1.369,-0.635 2.634,-1.589 3.794,-2.859 z"
             style="fill:#4d4d4d;fill-opacity:1;fill-rule:nonzero;stroke:none"
             id="path596"
             inkscape:connector-curvature="0" />
          <path
             d="m 345.418,1453.1807 c -15.874,0 -28.787,-12.912 -28.787,-28.786 0,-15.872 12.913,-28.787 28.787,-28.787 15.873,0 28.787,12.915 28.787,28.787 0,15.874 -12.914,28.786 -28.787,28.786 m 0,-66.249 c -20.657,0 -37.462,16.807 -37.462,37.463 0,20.656 16.805,37.462 37.462,37.462 20.655,0 37.462,-16.806 37.462,-37.462 0,-20.656 -16.807,-37.463 -37.462,-37.463"
             style="fill:#f97ca9;fill-opacity:1;fill-rule:nonzero;stroke:none"
             id="path600"
             inkscape:connector-curvature="0" />
          <path
             d="m 341.1523,1425.3086 c -2.338,0 -4.241,-1.902 -4.241,-4.241 0,-2.339 1.903,-4.24 4.241,-4.24 2.339,0 4.241,1.901 4.241,4.24 0,2.339 -1.902,4.241 -4.241,4.241 m 0,-15.423 c -6.165,0 -11.181,5.016 -11.181,11.182 0,6.165 5.016,11.181 11.181,11.181 6.166,0 11.183,-5.016 11.183,-11.181 0,-6.166 -5.017,-11.182 -11.183,-11.182"
             style="fill:#f97ca9;fill-opacity:1;fill-rule:nonzero;stroke:none"
             id="path604"
             inkscape:connector-curvature="0" />
          <path
             d="m 375.834,1472.7979 c -6.232,0 -11.304,-5.071 -11.304,-11.301 0,-6.231 5.072,-11.303 11.304,-11.303 6.232,0 11.302,5.072 11.302,11.303 0,6.23 -5.07,11.301 -11.302,11.301 m 0,-31.279 c -11.017,0 -19.979,8.962 -19.979,19.978 0,11.014 8.962,19.976 19.979,19.976 11.016,0 19.977,-8.962 19.977,-19.976 0,-11.016 -8.961,-19.978 -19.977,-19.978"
             style="fill:#f97ca9;fill-opacity:1;fill-rule:nonzero;stroke:none"
             id="path608"
             inkscape:connector-curvature="0" />
          <path
             d="m 195.2744,1453.8174 -3.54,-3.641 c -2.41,2.747 -5.119,4.121 -8.13,4.121 -2.54,0 -4.68,-0.937 -6.42,-2.812 -1.74,-1.875 -2.611,-4.184 -2.611,-6.93 0,-1.913 0.387,-3.613 1.156,-5.097 0.77,-1.484 1.86,-2.648 3.27,-3.494 1.408,-0.847 2.973,-1.269 4.697,-1.269 1.469,0 2.811,0.295 4.026,0.889 1.217,0.59 2.555,1.668 4.012,3.23 l 3.431,-3.863 c -1.963,-2.07 -3.821,-3.504 -5.568,-4.304 -1.749,-0.8 -3.743,-1.2 -5.984,-1.2 -4.135,0 -7.519,1.415 -10.151,4.243 -2.633,2.828 -3.95,6.452 -3.95,10.873 0,2.861 0.598,5.403 1.797,7.626 1.2,2.225 2.918,4.013 5.153,5.364 2.237,1.353 4.642,2.03 7.224,2.03 2.192,0 4.305,-0.501 6.335,-1.5 2.031,-1 3.781,-2.422 5.253,-4.266"
             style="fill:#4d4d4d;fill-opacity:1;fill-rule:nonzero;stroke:none"
             id="path612"
             inkscape:connector-curvature="0" />
          <path
             d="m 208.1934,1447.0225 c -1.525,0 -2.792,-0.583 -3.803,-1.746 -1.007,-1.164 -1.512,-2.656 -1.512,-4.477 0,-1.833 0.513,-3.342 1.541,-4.525 1.026,-1.183 2.291,-1.774 3.793,-1.774 1.548,0 2.835,0.582 3.855,1.746 1.022,1.164 1.532,2.686 1.532,4.573 0,1.847 -0.51,3.343 -1.532,4.486 -1.02,1.144 -2.312,1.717 -3.874,1.717 m 5.188,4.367 h 4.937 v -21.22 h -4.937 v 2.244 c -0.961,-0.989 -1.928,-1.703 -2.897,-2.137 -0.969,-0.436 -2.02,-0.653 -3.151,-0.653 -2.541,0 -4.738,1.063 -6.591,3.189 -1.854,2.126 -2.781,4.769 -2.781,7.928 0,3.278 0.897,5.964 2.691,8.056 1.794,2.094 3.972,3.141 6.536,3.141 1.18,0 2.288,-0.24 3.322,-0.721 1.037,-0.482 1.993,-1.204 2.871,-2.167 z"
             style="fill:#4d4d4d;fill-opacity:1;fill-rule:nonzero;stroke:none"
             id="path616"
             inkscape:connector-curvature="0" />
          <path
             d="m 223.0098,1451.3896 h 4.936 v -2.174 c 1.119,1.02 2.132,1.727 3.041,2.124 0.91,0.398 1.837,0.598 2.79,0.598 1.949,0 3.604,-0.735 4.965,-2.205 1.142,-1.248 1.715,-3.095 1.715,-5.538 v -14.025 h -4.882 v 9.293 c 0,2.531 -0.105,4.215 -0.316,5.047 -0.21,0.829 -0.577,1.463 -1.101,1.9 -0.522,0.434 -1.169,0.651 -1.937,0.651 -0.998,0 -1.857,-0.361 -2.57,-1.081 -0.716,-0.721 -1.213,-1.718 -1.489,-2.989 -0.144,-0.664 -0.216,-2.099 -0.216,-4.307 v -8.514 h -4.936 z"
             style="fill:#4d4d4d;fill-opacity:1;fill-rule:nonzero;stroke:none"
             id="path620"
             inkscape:connector-curvature="0" />
          <path
             d="m 264.1875,1447.0996 -4.108,-2.438 c -0.773,0.872 -1.536,1.476 -2.291,1.815 -0.753,0.337 -1.636,0.507 -2.65,0.507 -1.847,0 -3.342,-0.596 -4.48,-1.783 -1.14,-1.188 -1.711,-2.709 -1.711,-4.567 0,-1.804 0.549,-3.278 1.647,-4.42 1.097,-1.142 2.539,-1.714 4.325,-1.714 2.21,0 3.928,0.813 5.16,2.438 l 3.892,-2.875 c -2.109,-2.959 -5.087,-4.44 -8.931,-4.44 -3.46,0 -6.168,1.107 -8.126,3.318 -1.959,2.209 -2.939,4.796 -2.939,7.762 0,2.054 0.477,3.946 1.429,5.676 0.952,1.729 2.28,3.088 3.986,4.076 1.705,0.988 3.613,1.483 5.722,1.483 1.952,0 3.706,-0.421 5.261,-1.26 1.554,-0.839 2.825,-2.03 3.814,-3.578"
             style="fill:#4d4d4d;fill-opacity:1;fill-rule:nonzero;stroke:none"
             id="path624"
             inkscape:connector-curvature="0" />
          <path
             d="m 283.1094,1443.4326 c -0.327,1.184 -0.969,2.146 -1.93,2.888 -0.959,0.74 -2.072,1.112 -3.341,1.112 -1.376,0 -2.583,-0.417 -3.622,-1.249 -0.652,-0.521 -1.255,-1.438 -1.81,-2.751 z m 4.934,-4.192 h -15.854 c 0.229,-1.511 0.84,-2.708 1.835,-3.6 0.994,-0.892 2.262,-1.337 3.806,-1.337 1.843,0 3.428,0.696 4.754,2.089 l 4.158,-2.107 c -1.037,-1.586 -2.278,-2.76 -3.725,-3.522 -1.444,-0.76 -3.162,-1.141 -5.151,-1.141 -3.086,0 -5.6,1.05 -7.539,3.152 -1.941,2.099 -2.911,4.728 -2.911,7.888 0,3.238 0.967,5.927 2.903,8.066 1.933,2.138 4.358,3.209 7.275,3.209 3.097,0 5.617,-1.071 7.557,-3.209 1.939,-2.139 2.911,-4.963 2.911,-8.476 z"
             style="fill:#4d4d4d;fill-opacity:1;fill-rule:nonzero;stroke:none"
             id="path628"
             inkscape:connector-curvature="0" />
          <path
             d="m 290.5859,1451.3896 h 4.23 v -2.672 c 0.459,1.054 1.068,1.854 1.827,2.4 0.759,0.547 1.591,0.82 2.494,0.82 0.638,0 1.308,-0.183 2.008,-0.548 l -1.538,-4.583 c -0.579,0.312 -1.054,0.469 -1.428,0.469 -0.759,0 -1.401,-0.508 -1.924,-1.521 -0.526,-1.015 -0.788,-3.005 -0.788,-5.969 l 0.018,-1.035 v -8.581 h -4.899 z"
             style="fill:#4d4d4d;fill-opacity:1;fill-rule:nonzero;stroke:none"
             id="path632"
             inkscape:connector-curvature="0" />
          <path
             d="m 131.2881,1421.3545 -4.557,-10.386 h 9.094 z m 0.336,6.096 12.402,-28.692 h -2.871 l -4.182,9.442 h -11.456 l -4.143,-9.442 h -2.965 l 12.564,28.692 z"
             style="fill:#4d4d4d;fill-opacity:1;fill-rule:nonzero;stroke:none"
             id="path636"
             inkscape:connector-curvature="0" />
          <path
             d="m 145.5742,1419.9805 h 2.693 l 6.604,-15.47 6.522,15.47 h 2.712 l -9.005,-21.222 h -0.468 z"
             style="fill:#4d4d4d;fill-opacity:1;fill-rule:nonzero;stroke:none"
             id="path640"
             inkscape:connector-curvature="0" />
          <path
             d="m 177.1416,1417.8945 c -1.408,0 -2.709,-0.375 -3.899,-1.12 -1.194,-0.748 -2.141,-1.797 -2.846,-3.15 -0.705,-1.349 -1.056,-2.778 -1.056,-4.284 0,-1.495 0.355,-2.924 1.065,-4.287 0.712,-1.364 1.666,-2.426 2.863,-3.185 1.195,-0.759 2.483,-1.139 3.855,-1.139 1.384,0 2.698,0.376 3.936,1.13 1.24,0.753 2.193,1.772 2.863,3.058 0.667,1.287 1.001,2.733 1.001,4.344 0,2.456 -0.749,4.508 -2.248,6.156 -1.498,1.652 -3.343,2.477 -5.534,2.477 m 10.116,2.086 v -21.222 h -2.496 v 3.648 c -1.06,-1.393 -2.251,-2.438 -3.569,-3.141 -1.322,-0.701 -2.765,-1.052 -4.332,-1.052 -2.784,0 -5.161,1.087 -7.132,3.267 -1.97,2.178 -2.954,4.827 -2.954,7.947 0,3.056 0.994,5.67 2.982,7.841 1.989,2.172 4.381,3.259 7.177,3.259 1.614,0 3.077,-0.371 4.383,-1.112 1.308,-0.743 2.457,-1.854 3.445,-3.336 v 3.901 z"
             style="fill:#4d4d4d;fill-opacity:1;fill-rule:nonzero;stroke:none"
             id="path644"
             inkscape:connector-curvature="0" />
          <path
             d="m 192.6543,1419.9805 h 2.531 v -3.803 c 1.014,1.455 2.134,2.544 3.364,3.267 1.228,0.722 2.567,1.083 4.013,1.083 1.47,0 2.775,-0.404 3.914,-1.21 1.139,-0.807 1.981,-1.893 2.522,-3.258 0.542,-1.364 0.813,-3.491 0.813,-6.378 v -10.923 h -2.531 v 10.122 c 0,2.446 -0.093,4.078 -0.281,4.897 -0.294,1.405 -0.856,2.461 -1.688,3.17 -0.832,0.709 -1.917,1.063 -3.256,1.063 -1.529,0 -2.901,-0.546 -4.111,-1.639 -1.212,-1.092 -2.011,-2.445 -2.396,-4.057 -0.243,-1.053 -0.363,-2.978 -0.363,-5.772 v -7.784 h -2.531 z"
             style="fill:#4d4d4d;fill-opacity:1;fill-rule:nonzero;stroke:none"
             id="path648"
             inkscape:connector-curvature="0" />
          <path
             d="m 213.3311,1419.9805 h 14.444 l -11.137,-18.803 h 10.776 v -2.419 h -15.131 l 11.126,18.824 h -10.078 z"
             style="fill:#4d4d4d;fill-opacity:1;fill-rule:nonzero;stroke:none"
             id="path652"
             inkscape:connector-curvature="0" />
          <path
             d="m 239.8545,1417.8945 c -1.407,0 -2.709,-0.375 -3.9,-1.12 -1.193,-0.748 -2.14,-1.797 -2.845,-3.15 -0.705,-1.349 -1.055,-2.778 -1.055,-4.284 0,-1.495 0.354,-2.924 1.063,-4.287 0.712,-1.364 1.666,-2.426 2.864,-3.185 1.196,-0.759 2.482,-1.139 3.855,-1.139 1.384,0 2.698,0.376 3.936,1.13 1.24,0.753 2.194,1.772 2.864,3.058 0.667,1.287 1.001,2.733 1.001,4.344 0,2.456 -0.749,4.508 -2.248,6.156 -1.498,1.652 -3.344,2.477 -5.535,2.477 m 10.115,2.086 v -21.222 h -2.495 v 3.648 c -1.06,-1.393 -2.25,-2.438 -3.57,-3.141 -1.32,-0.701 -2.764,-1.052 -4.33,-1.052 -2.784,0 -5.162,1.087 -7.132,3.267 -1.972,2.178 -2.956,4.827 -2.956,7.947 0,3.056 0.996,5.67 2.982,7.841 1.99,2.172 4.383,3.259 7.178,3.259 1.615,0 3.077,-0.371 4.384,-1.112 1.307,-0.743 2.457,-1.854 3.444,-3.336 v 3.901 z"
             style="fill:#4d4d4d;fill-opacity:1;fill-rule:nonzero;stroke:none"
             id="path656"
             inkscape:connector-curvature="0" />
          <path
             d="m 264.8867,1417.8945 c -1.409,0 -2.71,-0.375 -3.901,-1.12 -1.192,-0.748 -2.14,-1.797 -2.844,-3.15 -0.704,-1.349 -1.057,-2.778 -1.057,-4.284 0,-1.495 0.357,-2.924 1.067,-4.287 0.71,-1.364 1.663,-2.426 2.862,-3.185 1.197,-0.759 2.481,-1.139 3.853,-1.139 1.386,0 2.699,0.376 3.939,1.13 1.237,0.753 2.192,1.772 2.861,3.058 0.669,1.287 1.001,2.733 1.001,4.344 0,2.456 -0.748,4.508 -2.246,6.156 -1.5,1.652 -3.345,2.477 -5.535,2.477 m 10.115,10.278 v -29.414 h -2.496 v 3.648 c -1.06,-1.393 -2.249,-2.438 -3.57,-3.141 -1.32,-0.701 -2.763,-1.052 -4.328,-1.052 -2.785,0 -5.162,1.087 -7.132,3.267 -1.972,2.178 -2.957,4.827 -2.957,7.947 0,3.056 0.994,5.67 2.983,7.841 1.988,2.172 4.38,3.259 7.176,3.259 1.617,0 3.077,-0.371 4.386,-1.112 1.307,-0.743 2.454,-1.854 3.442,-3.336 v 12.093 z"
             style="fill:#4d4d4d;fill-opacity:1;fill-rule:nonzero;stroke:none"
             id="path660"
             inkscape:connector-curvature="0" />
          <path
             d="m 289.7383,1417.8555 c -2.104,0 -3.913,-0.839 -5.426,-2.517 -1.511,-1.677 -2.267,-3.706 -2.267,-6.087 0,-1.533 0.344,-2.964 1.034,-4.29 0.689,-1.327 1.621,-2.349 2.794,-3.071 1.175,-0.722 2.462,-1.083 3.865,-1.083 1.402,0 2.69,0.361 3.864,1.083 1.173,0.722 2.106,1.744 2.795,3.071 0.688,1.326 1.034,2.757 1.034,4.29 0,2.381 -0.76,4.41 -2.278,6.087 -1.518,1.678 -3.322,2.517 -5.415,2.517 m 0.008,2.672 c 3.031,0 5.543,-1.185 7.535,-3.551 1.811,-2.158 2.717,-4.714 2.717,-7.665 0,-2.965 -0.958,-5.556 -2.871,-7.773 -1.913,-2.217 -4.373,-3.325 -7.381,-3.325 -3.018,0 -5.485,1.108 -7.398,3.325 -1.913,2.217 -2.87,4.808 -2.87,7.773 0,2.938 0.905,5.486 2.716,7.646 1.992,2.38 4.511,3.57 7.552,3.57"
             style="fill:#4d4d4d;fill-opacity:1;fill-rule:nonzero;stroke:none"
             id="path664"
             inkscape:connector-curvature="0" />
        </g>
      </g>
    </g>
  </g>
</svg>
