<?xml version="1.0" encoding="UTF-8" standalone="no"?>
<!-- Created with Inkscape (http://www.inkscape.org/) -->

<svg
   xmlns:dc="http://purl.org/dc/elements/1.1/"
   xmlns:cc="http://creativecommons.org/ns#"
   xmlns:rdf="http://www.w3.org/1999/02/22-rdf-syntax-ns#"
   xmlns:svg="http://www.w3.org/2000/svg"
   xmlns="http://www.w3.org/2000/svg"
   xmlns:sodipodi="http://sodipodi.sourceforge.net/DTD/sodipodi-0.dtd"
   xmlns:inkscape="http://www.inkscape.org/namespaces/inkscape"
   version="1.1"
   id="logotipo"
   xml:space="preserve"
   viewBox="0 0 774.38624 115.89053"
   sodipodi:docname="logo cancer de mama.svg"
   inkscape:version="0.92.5 (2060ec1f9f, 2020-04-08)"><metadata
     id="metadata8"><rdf:RDF><cc:Work
         rdf:about=""><dc:format>image/svg+xml</dc:format><dc:type
           rdf:resource="http://purl.org/dc/dcmitype/StillImage" /><dc:title></dc:title></cc:Work></rdf:RDF></metadata><defs
     id="defs6"><clipPath
       clipPathUnits="userSpaceOnUse"
       id="clipPath18"><path
         d="M 0,841.89 H 595.28 V 0 H 0 Z"
         id="path16"
         inkscape:connector-curvature="0" /></clipPath><clipPath
       clipPathUnits="userSpaceOnUse"
       id="clipPath106"><path
         d="m 328.129,446.808 h 68.885 v -68.885 h -68.885 z"
         id="path104"
         inkscape:connector-curvature="0" /></clipPath><clipPath
       clipPathUnits="userSpaceOnUse"
       id="clipPath122"><path
         d="M 348.369,419.587 H 368.93 V 399.026 H 348.369 Z"
         id="path120"
         inkscape:connector-curvature="0" /></clipPath><clipPath
       clipPathUnits="userSpaceOnUse"
       id="clipPath138"><path
         d="M 372.166,464.841 H 408.9 v -36.733 h -36.734 z"
         id="path136"
         inkscape:connector-curvature="0" /></clipPath><clipPath
       clipPathUnits="userSpaceOnUse"
       id="clipPath154"><path
         d="m 280.129,446.808 h 68.885 v -68.885 h -68.885 z"
         id="path152"
         inkscape:connector-curvature="0" /></clipPath><clipPath
       clipPathUnits="userSpaceOnUse"
       id="clipPath170"><path
         d="M 300.369,419.587 H 320.93 V 399.026 H 300.369 Z"
         id="path168"
         inkscape:connector-curvature="0" /></clipPath><clipPath
       clipPathUnits="userSpaceOnUse"
       id="clipPath186"><path
         d="M 324.166,464.841 H 360.9 v -36.733 h -36.734 z"
         id="path184"
         inkscape:connector-curvature="0" /></clipPath><clipPath
       clipPathUnits="userSpaceOnUse"
       id="clipPath202"><path
         d="m 231.129,446.808 h 68.885 v -68.885 h -68.885 z"
         id="path200"
         inkscape:connector-curvature="0" /></clipPath><clipPath
       clipPathUnits="userSpaceOnUse"
       id="clipPath218"><path
         d="M 251.369,419.587 H 271.93 V 399.026 H 251.369 Z"
         id="path216"
         inkscape:connector-curvature="0" /></clipPath><clipPath
       clipPathUnits="userSpaceOnUse"
       id="clipPath234"><path
         d="M 275.166,464.841 H 311.9 v -36.733 h -36.734 z"
         id="path232"
         inkscape:connector-curvature="0" /></clipPath></defs><sodipodi:namedview
     pagecolor="#ffffff"
     bordercolor="#666666"
     borderopacity="1"
     objecttolerance="10"
     gridtolerance="10"
     guidetolerance="10"
     inkscape:pageopacity="0"
     inkscape:pageshadow="2"
     inkscape:window-width="1440"
     inkscape:window-height="784"
     id="namedview4"
     showgrid="false"
     fit-margin-top="0"
     fit-margin-left="0"
     fit-margin-right="0"
     fit-margin-bottom="0"
     inkscape:zoom="0.29732601"
     inkscape:cx="-573.1783"
     inkscape:cy="-159.92924"
     inkscape:window-x="0"
     inkscape:window-y="27"
     inkscape:window-maximized="1"
     inkscape:current-layer="g10" /><g
     id="g10"
     inkscape:groupmode="layer"
     inkscape:label="logo cancer de mama"
     transform="matrix(1.3333333,0,0,-1.3333333,-11.634533,619.78798)"><g
       id="g12"><g
         id="g14"
         clip-path="url(#clipPath18)"><g
           id="g20"
           transform="translate(426.6592,447.8574)"><path
             d="m 0,0 c -1.491,0 -2.729,-0.568 -3.715,-1.706 -0.985,-1.137 -1.478,-2.595 -1.478,-4.373 0,-1.792 0.501,-3.266 1.505,-4.422 1.003,-1.156 2.238,-1.734 3.706,-1.734 1.514,0 2.77,0.568 3.767,1.706 0.997,1.136 1.496,2.627 1.496,4.469 0,1.804 -0.499,3.265 -1.496,4.383 C 2.788,-0.559 1.526,0 0,0 M 5.069,12.273 H 9.892 V -16.466 H 5.069 v 2.192 c -0.941,-0.966 -1.884,-1.662 -2.832,-2.087 -0.947,-0.425 -1.972,-0.638 -3.078,-0.638 -2.482,0 -4.629,1.038 -6.44,3.115 -1.812,2.077 -2.717,4.66 -2.717,7.748 0,3.201 0.876,5.824 2.629,7.87 1.753,2.046 3.882,3.069 6.387,3.069 1.153,0 2.235,-0.236 3.246,-0.705 C 3.275,3.627 4.21,2.922 5.069,1.982 Z"
             style="fill:#666666;fill-opacity:1;fill-rule:nonzero;stroke:none"
             id="path22"
             inkscape:connector-curvature="0" /></g><g
           id="g24"
           transform="translate(455.5684,444.3511)"><path
             d="M 0,0 C -0.318,1.156 -0.946,2.096 -1.885,2.82 -2.822,3.544 -3.91,3.907 -5.148,3.907 -6.494,3.907 -7.674,3.5 -8.688,2.687 -9.324,2.179 -9.914,1.283 -10.457,0 Z m 4.822,-4.098 h -15.491 c 0.224,-1.474 0.821,-2.646 1.793,-3.516 0.972,-0.87 2.211,-1.305 3.718,-1.305 1.803,0 3.35,0.679 4.646,2.039 l 4.063,-2.058 c -1.013,-1.551 -2.226,-2.697 -3.639,-3.44 -1.413,-0.744 -3.092,-1.115 -5.035,-1.115 -3.014,0 -5.469,1.026 -7.365,3.077 -1.897,2.052 -2.844,4.623 -2.844,7.709 0,3.165 0.945,5.791 2.835,7.881 1.89,2.09 4.26,3.135 7.11,3.135 3.026,0 5.487,-1.045 7.383,-3.135 1.897,-2.09 2.844,-4.85 2.844,-8.28 z"
             style="fill:#666666;fill-opacity:1;fill-rule:nonzero;stroke:none"
             id="path26"
             inkscape:connector-curvature="0" /></g><g
           id="g28"
           transform="translate(423.7285,426.4531)"><path
             d="M 0,0 H 7.57 L 17.033,-30.719 26.582,0 h 7.566 l 6.848,-44.042 h -7.514 l -4.377,27.814 -8.671,-27.814 H 13.585 L 4.99,-16.228 0.508,-44.042 h -7.576 z"
             style="fill:#666666;fill-opacity:1;fill-rule:nonzero;stroke:none"
             id="path30"
             inkscape:connector-curvature="0" /></g><g
           id="g32"
           transform="translate(483.9453,408.2793)"><path
             d="m 0,0 c -2.342,0 -4.287,-0.894 -5.836,-2.68 -1.549,-1.786 -2.322,-4.077 -2.322,-6.871 0,-2.814 0.787,-5.13 2.364,-6.946 1.576,-1.816 3.517,-2.725 5.821,-2.725 2.379,0 4.352,0.894 5.92,2.68 1.567,1.786 2.351,4.127 2.351,7.021 0,2.834 -0.784,5.129 -2.351,6.886 C 4.379,-0.879 2.397,0 0,0 m 7.965,6.707 h 7.576 V -25.868 H 7.965 v 3.443 c -1.479,-1.517 -2.962,-2.61 -4.449,-3.278 -1.488,-0.669 -3.1,-1.003 -4.837,-1.003 -3.9,0 -7.272,1.631 -10.117,4.894 -2.846,3.264 -4.269,7.321 -4.269,12.171 0,5.031 1.377,9.152 4.131,12.366 2.753,3.213 6.097,4.82 10.033,4.82 1.811,0 3.511,-0.369 5.1,-1.108 C 5.146,5.698 6.615,4.591 7.965,3.114 Z"
             style="fill:#666666;fill-opacity:1;fill-rule:nonzero;stroke:none"
             id="path34"
             inkscape:connector-curvature="0" /></g><g
           id="g36"
           transform="translate(506.6348,414.9863)"><path
             d="m 0,0 h 7.576 v -3.743 c 1.295,1.537 2.736,2.684 4.319,3.443 1.582,0.759 3.308,1.138 5.179,1.138 1.888,0 3.591,-0.499 5.11,-1.497 1.517,-0.998 2.74,-2.455 3.666,-4.371 1.203,1.916 2.679,3.373 4.428,4.371 1.75,0.998 3.661,1.497 5.736,1.497 2.146,0 4.035,-0.539 5.665,-1.617 1.629,-1.077 2.8,-2.485 3.512,-4.221 0.713,-1.737 1.07,-4.562 1.07,-8.474 v -19.101 h -7.632 v 16.527 c 0,3.693 -0.426,6.193 -1.275,7.5 -0.852,1.307 -2.129,1.961 -3.831,1.961 -1.294,0 -2.456,-0.399 -3.482,-1.198 -1.027,-0.798 -1.791,-1.901 -2.29,-3.308 -0.499,-1.407 -0.749,-3.668 -0.749,-6.782 v -14.7 H 19.37 v 15.778 c 0,2.914 -0.199,5.025 -0.598,6.332 -0.399,1.308 -0.997,2.28 -1.793,2.92 -0.798,0.638 -1.762,0.958 -2.894,0.958 -1.261,0 -2.405,-0.404 -3.436,-1.213 C 9.62,-8.608 8.852,-9.741 8.341,-11.198 7.831,-12.655 7.576,-14.951 7.576,-18.084 V -32.575 H 0 Z"
             style="fill:#666666;fill-opacity:1;fill-rule:nonzero;stroke:none"
             id="path38"
             inkscape:connector-curvature="0" /></g><g
           id="g40"
           transform="translate(573.9766,408.2793)"><path
             d="m 0,0 c -2.342,0 -4.287,-0.894 -5.836,-2.68 -1.549,-1.786 -2.324,-4.077 -2.324,-6.871 0,-2.814 0.789,-5.13 2.365,-6.946 1.576,-1.816 3.517,-2.725 5.822,-2.725 2.379,0 4.352,0.894 5.918,2.68 1.568,1.786 2.352,4.127 2.352,7.021 0,2.834 -0.784,5.129 -2.352,6.886 C 4.379,-0.879 2.396,0 0,0 m 7.964,6.707 h 7.575 V -25.868 H 7.964 v 3.443 c -1.48,-1.517 -2.962,-2.61 -4.449,-3.278 -1.488,-0.669 -3.1,-1.003 -4.837,-1.003 -3.899,0 -7.272,1.631 -10.117,4.894 -2.846,3.264 -4.269,7.321 -4.269,12.171 0,5.031 1.377,9.152 4.13,12.366 2.754,3.213 6.098,4.82 10.035,4.82 1.811,0 3.51,-0.369 5.1,-1.108 C 5.145,5.698 6.614,4.591 7.964,3.114 Z"
             style="fill:#666666;fill-opacity:1;fill-rule:nonzero;stroke:none"
             id="path42"
             inkscape:connector-curvature="0" /></g><g
           id="g44"
           transform="translate(98.0435,444.0552)"><path
             d="m 0,0 -4.114,-4.232 c -2.799,3.191 -5.947,4.788 -9.445,4.788 -2.953,0 -5.44,-1.09 -7.462,-3.267 -2.022,-2.178 -3.033,-4.863 -3.033,-8.055 0,-2.223 0.448,-4.196 1.344,-5.921 0.895,-1.725 2.161,-3.078 3.798,-4.062 1.638,-0.982 3.457,-1.474 5.458,-1.474 1.707,0 3.267,0.345 4.68,1.033 1.413,0.688 2.966,1.94 4.66,3.754 l 3.988,-4.489 c -2.283,-2.405 -4.44,-4.071 -6.471,-5 -2.03,-0.93 -4.348,-1.395 -6.953,-1.395 -4.804,0 -8.736,1.644 -11.796,4.93 -3.06,3.286 -4.59,7.498 -4.59,12.636 0,3.324 0.697,6.278 2.09,8.861 1.394,2.584 3.389,4.662 5.988,6.233 2.597,1.572 5.395,2.358 8.392,2.358 2.549,0 5.003,-0.581 7.363,-1.743 C -3.743,3.793 -1.709,2.142 0,0"
             style="fill:#666666;fill-opacity:1;fill-rule:nonzero;stroke:none"
             id="path46"
             inkscape:connector-curvature="0" /></g><g
           id="g48"
           transform="translate(114.5894,454.6284)"><path
             d="m 0,0 h 6.786 l -7.689,-8.885 h -4.118 z m -1.533,-18.472 c -1.773,0 -3.245,-0.676 -4.418,-2.028 -1.173,-1.353 -1.759,-3.086 -1.759,-5.202 0,-2.131 0.597,-3.883 1.79,-5.258 1.193,-1.375 2.663,-2.063 4.407,-2.063 1.801,0 3.295,0.677 4.481,2.029 1.186,1.352 1.78,3.123 1.78,5.315 0,2.145 -0.594,3.883 -1.78,5.213 -1.186,1.329 -2.687,1.994 -4.501,1.994 m 6.029,5.077 h 5.735 V -38.054 H 4.496 v 2.606 c -1.12,-1.148 -2.242,-1.975 -3.368,-2.481 -1.127,-0.507 -2.347,-0.76 -3.662,-0.76 -2.951,0 -5.504,1.235 -7.658,3.706 -2.155,2.471 -3.232,5.541 -3.232,9.213 0,3.808 1.042,6.928 3.127,9.36 2.084,2.433 4.616,3.65 7.596,3.65 1.37,0 2.657,-0.28 3.86,-0.839 1.203,-0.559 2.315,-1.398 3.337,-2.516 z"
             style="fill:#666666;fill-opacity:1;fill-rule:nonzero;stroke:none"
             id="path50"
             inkscape:connector-curvature="0" /></g><g
           id="g52"
           transform="translate(130.2739,441.2334)"><path
             d="m 0,0 h 5.735 v -2.527 c 1.301,1.183 2.479,2.006 3.535,2.468 1.055,0.462 2.136,0.694 3.241,0.694 2.265,0 4.188,-0.854 5.769,-2.562 1.328,-1.45 1.992,-3.595 1.992,-6.436 v -16.296 h -5.671 v 10.799 c 0,2.942 -0.123,4.896 -0.368,5.863 -0.244,0.966 -0.67,1.701 -1.278,2.207 -0.608,0.506 -1.359,0.759 -2.253,0.759 -1.16,0 -2.155,-0.419 -2.986,-1.257 C 6.884,-7.126 6.308,-8.284 5.987,-9.763 5.819,-10.533 5.735,-12.2 5.735,-14.766 v -9.893 H 0 Z"
             style="fill:#666666;fill-opacity:1;fill-rule:nonzero;stroke:none"
             id="path54"
             inkscape:connector-curvature="0" /></g><g
           id="g56"
           transform="translate(178.1211,436.2471)"><path
             d="m 0,0 -4.774,-2.833 c -0.897,1.013 -1.785,1.715 -2.661,2.108 -0.877,0.393 -1.903,0.589 -3.081,0.589 -2.146,0 -3.881,-0.69 -5.206,-2.07 -1.325,-1.381 -1.987,-3.149 -1.987,-5.307 0,-2.097 0.638,-3.809 1.914,-5.137 1.275,-1.328 2.951,-1.992 5.026,-1.992 2.567,0 4.565,0.945 5.995,2.833 l 4.522,-3.339 c -2.451,-3.44 -5.91,-5.16 -10.378,-5.16 -4.019,0 -7.167,1.285 -9.443,3.854 -2.276,2.568 -3.413,5.575 -3.413,9.02 0,2.387 0.553,4.586 1.659,6.596 1.106,2.009 2.651,3.588 4.633,4.736 1.981,1.149 4.197,1.723 6.648,1.723 2.269,0 4.307,-0.487 6.113,-1.462 C -2.626,3.185 -1.148,1.798 0,0"
             style="fill:#666666;fill-opacity:1;fill-rule:nonzero;stroke:none"
             id="path58"
             inkscape:connector-curvature="0" /></g><g
           id="g60"
           transform="translate(200.1079,431.9863)"><path
             d="M 0,0 C -0.378,1.375 -1.125,2.493 -2.241,3.354 -3.356,4.216 -4.65,4.646 -6.124,4.646 -7.723,4.646 -9.125,4.162 -10.332,3.195 -11.089,2.591 -11.791,1.526 -12.436,0 Z m 5.735,-4.873 h -18.423 c 0.266,-1.753 0.977,-3.147 2.132,-4.182 1.155,-1.035 2.629,-1.552 4.422,-1.552 2.143,0 3.984,0.808 5.525,2.425 l 4.832,-2.448 c -1.205,-1.844 -2.647,-3.207 -4.328,-4.091 -1.681,-0.883 -3.676,-1.326 -5.987,-1.326 -3.585,0 -6.506,1.22 -8.76,3.66 -2.255,2.441 -3.382,5.497 -3.382,9.168 0,3.763 1.124,6.887 3.371,9.372 2.248,2.486 5.067,3.729 8.456,3.729 3.599,0 6.526,-1.243 8.781,-3.729 2.255,-2.485 3.382,-5.767 3.382,-9.847 z"
             style="fill:#666666;fill-opacity:1;fill-rule:nonzero;stroke:none"
             id="path62"
             inkscape:connector-curvature="0" /></g><g
           id="g64"
           transform="translate(208.7969,441.2334)"><path
             d="m 0,0 h 4.916 v -3.104 c 0.532,1.223 1.239,2.152 2.122,2.787 0.882,0.634 1.848,0.952 2.899,0.952 0.742,0 1.519,-0.212 2.331,-0.635 l -1.786,-5.326 c -0.671,0.362 -1.225,0.544 -1.659,0.544 -0.882,0 -1.628,-0.589 -2.237,-1.768 -0.609,-1.179 -0.914,-3.49 -0.914,-6.935 l 0.021,-1.202 v -9.972 H 0 Z"
             style="fill:#666666;fill-opacity:1;fill-rule:nonzero;stroke:none"
             id="path66"
             inkscape:connector-curvature="0" /></g><g
           id="g68"
           transform="translate(23.6929,406.333)"><path
             d="M 0,0 -5.295,-12.068 H 5.27 Z m 0.39,7.083 14.411,-33.34 h -3.336 l -4.86,10.97 H -6.708 l -4.813,-10.97 h -3.446 l 14.601,33.34 z"
             style="fill:#666666;fill-opacity:1;fill-rule:nonzero;stroke:none"
             id="path70"
             inkscape:connector-curvature="0" /></g><g
           id="g72"
           transform="translate(40.2925,404.7354)"><path
             d="M 0,0 H 3.13 L 10.802,-17.976 18.382,0 h 3.151 L 11.071,-24.659 h -0.546 z"
             style="fill:#666666;fill-opacity:1;fill-rule:nonzero;stroke:none"
             id="path74"
             inkscape:connector-curvature="0" /></g><g
           id="g76"
           transform="translate(76.9746,402.3105)"><path
             d="m 0,0 c -1.637,0 -3.148,-0.435 -4.533,-1.302 -1.385,-0.868 -2.487,-2.087 -3.305,-3.656 -0.818,-1.57 -1.227,-3.23 -1.227,-4.98 0,-1.737 0.413,-3.397 1.238,-4.981 0.825,-1.585 1.934,-2.819 3.326,-3.702 1.391,-0.883 2.885,-1.324 4.48,-1.324 1.608,0 3.133,0.437 4.574,1.313 1.441,0.875 2.549,2.06 3.326,3.554 0.776,1.494 1.164,3.177 1.164,5.049 0,2.852 -0.87,5.237 -2.612,7.154 C 4.689,-0.959 2.545,0 0,0 M 11.753,2.425 V -22.234 H 8.854 v 4.238 c -1.232,-1.617 -2.615,-2.833 -4.148,-3.65 -1.534,-0.815 -3.211,-1.223 -5.032,-1.223 -3.235,0 -5.998,1.265 -8.287,3.797 -2.29,2.53 -3.435,5.609 -3.435,9.235 0,3.551 1.155,6.588 3.466,9.111 2.311,2.524 5.091,3.786 8.34,3.786 1.877,0 3.575,-0.431 5.095,-1.292 1.519,-0.862 2.853,-2.154 4.001,-3.876 v 4.533 z"
             style="fill:#666666;fill-opacity:1;fill-rule:nonzero;stroke:none"
             id="path78"
             inkscape:connector-curvature="0" /></g><g
           id="g80"
           transform="translate(95.0015,404.7354)"><path
             d="m 0,0 h 2.941 v -4.42 c 1.176,1.692 2.479,2.958 3.907,3.797 1.429,0.839 2.984,1.258 4.664,1.258 1.709,0 3.225,-0.469 4.548,-1.406 1.324,-0.936 2.3,-2.198 2.931,-3.785 0.63,-1.586 0.945,-4.056 0.945,-7.411 v -12.692 h -2.941 v 11.763 c 0,2.84 -0.109,4.737 -0.328,5.689 -0.34,1.632 -0.994,2.859 -1.96,3.683 -0.967,0.823 -2.228,1.235 -3.782,1.235 -1.779,0 -3.373,-0.635 -4.78,-1.903 -1.408,-1.27 -2.336,-2.842 -2.784,-4.715 -0.28,-1.224 -0.42,-3.46 -0.42,-6.709 v -9.043 H 0 Z"
             style="fill:#666666;fill-opacity:1;fill-rule:nonzero;stroke:none"
             id="path82"
             inkscape:connector-curvature="0" /></g><g
           id="g84"
           transform="translate(119.0259,404.7354)"><path
             d="M 0,0 H 16.785 L 3.844,-21.849 h 12.521 v -2.81 H -1.219 L 11.71,-2.788 H 0 Z"
             style="fill:#666666;fill-opacity:1;fill-rule:nonzero;stroke:none"
             id="path86"
             inkscape:connector-curvature="0" /></g><g
           id="g88"
           transform="translate(149.8467,402.3105)"><path
             d="m 0,0 c -1.637,0 -3.148,-0.435 -4.533,-1.302 -1.385,-0.868 -2.487,-2.087 -3.305,-3.656 -0.818,-1.57 -1.227,-3.23 -1.227,-4.98 0,-1.737 0.413,-3.397 1.238,-4.981 0.825,-1.585 1.934,-2.819 3.326,-3.702 1.391,-0.883 2.885,-1.324 4.48,-1.324 1.608,0 3.133,0.437 4.574,1.313 1.441,0.875 2.549,2.06 3.326,3.554 0.776,1.494 1.164,3.177 1.164,5.049 0,2.852 -0.87,5.237 -2.612,7.154 C 4.689,-0.959 2.545,0 0,0 M 11.753,2.425 V -22.234 H 8.854 v 4.238 c -1.232,-1.617 -2.615,-2.833 -4.148,-3.65 -1.534,-0.815 -3.211,-1.223 -5.032,-1.223 -3.235,0 -5.998,1.265 -8.287,3.797 -2.29,2.53 -3.435,5.609 -3.435,9.235 0,3.551 1.155,6.588 3.466,9.111 2.311,2.524 5.091,3.786 8.34,3.786 1.877,0 3.575,-0.431 5.095,-1.292 1.519,-0.862 2.853,-2.154 4.001,-3.876 v 4.533 z"
             style="fill:#666666;fill-opacity:1;fill-rule:nonzero;stroke:none"
             id="path90"
             inkscape:connector-curvature="0" /></g><g
           id="g92"
           transform="translate(178.9341,402.3105)"><path
             d="m 0,0 c -1.637,0 -3.148,-0.435 -4.533,-1.302 -1.385,-0.868 -2.487,-2.087 -3.305,-3.656 -0.818,-1.57 -1.227,-3.23 -1.227,-4.98 0,-1.737 0.413,-3.397 1.238,-4.981 0.825,-1.585 1.934,-2.819 3.326,-3.702 1.391,-0.883 2.885,-1.324 4.48,-1.324 1.608,0 3.133,0.437 4.574,1.313 1.441,0.875 2.55,2.06 3.326,3.554 0.776,1.494 1.164,3.177 1.164,5.049 0,2.852 -0.87,5.237 -2.612,7.154 C 4.689,-0.959 2.545,0 0,0 M 11.753,11.944 V -22.234 H 8.854 v 4.238 c -1.232,-1.617 -2.615,-2.833 -4.148,-3.65 -1.534,-0.815 -3.211,-1.223 -5.032,-1.223 -3.235,0 -5.998,1.265 -8.287,3.797 -2.29,2.53 -3.435,5.609 -3.435,9.235 0,3.551 1.155,6.588 3.466,9.111 2.311,2.524 5.091,3.786 8.34,3.786 1.877,0 3.575,-0.431 5.095,-1.292 1.519,-0.862 2.853,-2.154 4.001,-3.876 v 14.052 z"
             style="fill:#666666;fill-opacity:1;fill-rule:nonzero;stroke:none"
             id="path94"
             inkscape:connector-curvature="0" /></g><g
           id="g96"
           transform="translate(207.811,402.2646)"><path
             d="m 0,0 c -2.445,0 -4.547,-0.975 -6.303,-2.924 -1.757,-1.948 -2.635,-4.305 -2.635,-7.071 0,-1.783 0.4,-3.444 1.201,-4.986 0.801,-1.541 1.883,-2.731 3.247,-3.57 1.363,-0.839 2.86,-1.258 4.49,-1.258 1.63,0 3.127,0.419 4.491,1.258 1.363,0.839 2.445,2.029 3.246,3.57 0.801,1.542 1.202,3.203 1.202,4.986 0,2.766 -0.882,5.123 -2.646,7.071 C 4.529,-0.975 2.432,0 0,0 m 0.011,3.105 c 3.521,0 6.439,-1.375 8.754,-4.125 2.105,-2.508 3.157,-5.477 3.157,-8.907 0,-3.445 -1.112,-6.456 -3.336,-9.032 -2.224,-2.576 -5.082,-3.864 -8.575,-3.864 -3.508,0 -6.373,1.288 -8.597,3.864 -2.224,2.576 -3.336,5.587 -3.336,9.032 0,3.415 1.052,6.376 3.157,8.885 2.315,2.765 5.24,4.147 8.776,4.147"
             style="fill:#666666;fill-opacity:1;fill-rule:nonzero;stroke:none"
             id="path98"
             inkscape:connector-curvature="0" /></g><g
           id="g100"><g
             id="g102" /><g
             id="g114"><g
               clip-path="url(#clipPath106)"
               id="g112"
               style="opacity:0.69999701"><g
                 transform="translate(362.5703,438.8311)"
                 id="g110"><path
                   d="m 0,0 c -14.592,0 -26.465,-11.873 -26.465,-26.465 0,-14.594 11.873,-26.467 26.465,-26.467 14.594,0 26.467,11.873 26.467,26.467 C 26.467,-11.873 14.594,0 0,0 m 0,-60.908 c -18.992,0 -34.441,15.451 -34.441,34.443 0,18.99 15.449,34.442 34.441,34.442 18.99,0 34.443,-15.452 34.443,-34.442 C 34.443,-45.457 18.99,-60.908 0,-60.908"
                   style="fill:#00b7b7;fill-opacity:1;fill-rule:nonzero;stroke:none"
                   id="path108"
                   inkscape:connector-curvature="0" /></g></g></g></g><g
           id="g116"><g
             id="g118" /><g
             id="g130"><g
               clip-path="url(#clipPath122)"
               id="g128"
               style="opacity:0.69999701"><g
                 transform="translate(358.6504,413.2061)"
                 id="g126"><path
                   d="m 0,0 c -2.15,0 -3.9,-1.75 -3.9,-3.9 0,-2.151 1.75,-3.899 3.9,-3.899 2.148,0 3.898,1.748 3.898,3.899 C 3.898,-1.75 2.148,0 0,0 m 0,-14.18 c -5.67,0 -10.281,4.612 -10.281,10.28 C -10.281,1.77 -5.67,6.381 0,6.381 5.668,6.381 10.279,1.77 10.279,-3.9 10.279,-9.568 5.668,-14.18 0,-14.18"
                   style="fill:#00b7b7;fill-opacity:1;fill-rule:nonzero;stroke:none"
                   id="path124"
                   inkscape:connector-curvature="0" /></g></g></g></g><g
           id="g132"><g
             id="g134" /><g
             id="g146"><g
               clip-path="url(#clipPath138)"
               id="g144"
               style="opacity:0.69999701"><g
                 transform="translate(390.5352,456.8662)"
                 id="g142"><path
                   d="m 0,0 c -5.73,0 -10.393,-4.662 -10.393,-10.389 0,-5.73 4.663,-10.392 10.393,-10.392 5.729,0 10.389,4.662 10.389,10.392 C 10.389,-4.662 5.729,0 0,0 m 0,-28.758 c -10.129,0 -18.369,8.238 -18.369,18.369 0,10.125 8.24,18.364 18.369,18.364 10.125,0 18.365,-8.239 18.365,-18.364 0,-10.131 -8.24,-18.369 -18.365,-18.369"
                   style="fill:#00b7b7;fill-opacity:1;fill-rule:nonzero;stroke:none"
                   id="path140"
                   inkscape:connector-curvature="0" /></g></g></g></g><g
           id="g148"><g
             id="g150" /><g
             id="g162"><g
               clip-path="url(#clipPath154)"
               id="g160"
               style="opacity:0.69999701"><g
                 transform="translate(314.5703,438.8311)"
                 id="g158"><path
                   d="m 0,0 c -14.592,0 -26.465,-11.873 -26.465,-26.465 0,-14.594 11.873,-26.467 26.465,-26.467 14.594,0 26.467,11.873 26.467,26.467 C 26.467,-11.873 14.594,0 0,0 m 0,-60.908 c -18.992,0 -34.441,15.451 -34.441,34.443 0,18.99 15.449,34.442 34.441,34.442 18.99,0 34.443,-15.452 34.443,-34.442 C 34.443,-45.457 18.99,-60.908 0,-60.908"
                   style="fill:#f97ca9;fill-opacity:1;fill-rule:nonzero;stroke:none"
                   id="path156"
                   inkscape:connector-curvature="0" /></g></g></g></g><g
           id="g164"><g
             id="g166" /><g
             id="g178"><g
               clip-path="url(#clipPath170)"
               id="g176"
               style="opacity:0.69999701"><g
                 transform="translate(310.6504,413.2061)"
                 id="g174"><path
                   d="m 0,0 c -2.15,0 -3.9,-1.75 -3.9,-3.9 0,-2.151 1.75,-3.899 3.9,-3.899 2.148,0 3.898,1.748 3.898,3.899 C 3.898,-1.75 2.148,0 0,0 m 0,-14.18 c -5.67,0 -10.281,4.612 -10.281,10.28 C -10.281,1.77 -5.67,6.381 0,6.381 5.668,6.381 10.279,1.77 10.279,-3.9 10.279,-9.568 5.668,-14.18 0,-14.18"
                   style="fill:#f97ca9;fill-opacity:1;fill-rule:nonzero;stroke:none"
                   id="path172"
                   inkscape:connector-curvature="0" /></g></g></g></g><g
           id="g180"><g
             id="g182" /><g
             id="g194"><g
               clip-path="url(#clipPath186)"
               id="g192"
               style="opacity:0.69999701"><g
                 transform="translate(342.5352,456.8662)"
                 id="g190"><path
                   d="m 0,0 c -5.73,0 -10.393,-4.662 -10.393,-10.389 0,-5.73 4.663,-10.392 10.393,-10.392 5.729,0 10.389,4.662 10.389,10.392 C 10.389,-4.662 5.729,0 0,0 m 0,-28.758 c -10.129,0 -18.369,8.238 -18.369,18.369 0,10.125 8.24,18.364 18.369,18.364 10.125,0 18.365,-8.239 18.365,-18.364 0,-10.131 -8.24,-18.369 -18.365,-18.369"
                   style="fill:#f97ca9;fill-opacity:1;fill-rule:nonzero;stroke:none"
                   id="path188"
                   inkscape:connector-curvature="0" /></g></g></g></g><g
           id="g196"><g
             id="g198" /><g
             id="g210"><g
               clip-path="url(#clipPath202)"
               id="g208"
               style="opacity:0.69999701"><g
                 transform="translate(265.5703,438.8311)"
                 id="g206"><path
                   d="m 0,0 c -14.592,0 -26.465,-11.873 -26.465,-26.465 0,-14.594 11.873,-26.467 26.465,-26.467 14.594,0 26.467,11.873 26.467,26.467 C 26.467,-11.873 14.594,0 0,0 m 0,-60.908 c -18.992,0 -34.441,15.451 -34.441,34.443 0,18.99 15.449,34.442 34.441,34.442 18.99,0 34.443,-15.452 34.443,-34.442 C 34.443,-45.457 18.99,-60.908 0,-60.908"
                   style="fill:#60c160;fill-opacity:1;fill-rule:nonzero;stroke:none"
                   id="path204"
                   inkscape:connector-curvature="0" /></g></g></g></g><g
           id="g212"><g
             id="g214" /><g
             id="g226"><g
               clip-path="url(#clipPath218)"
               id="g224"
               style="opacity:0.69999701"><g
                 transform="translate(261.6504,413.2061)"
                 id="g222"><path
                   d="m 0,0 c -2.15,0 -3.9,-1.75 -3.9,-3.9 0,-2.151 1.75,-3.899 3.9,-3.899 2.148,0 3.898,1.748 3.898,3.899 C 3.898,-1.75 2.148,0 0,0 m 0,-14.18 c -5.67,0 -10.281,4.612 -10.281,10.28 C -10.281,1.77 -5.67,6.381 0,6.381 5.668,6.381 10.279,1.77 10.279,-3.9 10.279,-9.568 5.668,-14.18 0,-14.18"
                   style="fill:#60c160;fill-opacity:1;fill-rule:nonzero;stroke:none"
                   id="path220"
                   inkscape:connector-curvature="0" /></g></g></g></g><g
           id="g228"><g
             id="g230" /><g
             id="g242"><g
               clip-path="url(#clipPath234)"
               id="g240"
               style="opacity:0.69999701"><g
                 transform="translate(293.5352,456.8662)"
                 id="g238"><path
                   d="m 0,0 c -5.73,0 -10.393,-4.662 -10.393,-10.389 0,-5.73 4.663,-10.392 10.393,-10.392 5.729,0 10.389,4.662 10.389,10.392 C 10.389,-4.662 5.729,0 0,0 m 0,-28.758 c -10.129,0 -18.369,8.238 -18.369,18.369 0,10.125 8.24,18.364 18.369,18.364 10.125,0 18.365,-8.239 18.365,-18.364 0,-10.131 -8.24,-18.369 -18.365,-18.369"
                   style="fill:#60c160;fill-opacity:1;fill-rule:nonzero;stroke:none"
                   id="path236"
                   inkscape:connector-curvature="0" /></g></g></g></g></g></g></g></svg>