<?xml version="1.0" encoding="UTF-8" standalone="no"?>
<!-- Created with Inkscape (http://www.inkscape.org/) -->

<svg
   xmlns:dc="http://purl.org/dc/elements/1.1/"
   xmlns:cc="http://creativecommons.org/ns#"
   xmlns:rdf="http://www.w3.org/1999/02/22-rdf-syntax-ns#"
   xmlns:svg="http://www.w3.org/2000/svg"
   xmlns="http://www.w3.org/2000/svg"
   xmlns:sodipodi="http://sodipodi.sourceforge.net/DTD/sodipodi-0.dtd"
   xmlns:inkscape="http://www.inkscape.org/namespaces/inkscape"
   width="200mm"
   height="44.000332mm"
   viewBox="0 0 200 44.000332"
   version="1.1"
   id="svg6056"
   inkscape:version="0.92.5 (2060ec1f9f, 2020-04-08)"
   sodipodi:docname="logotipo-sin-slogan.svg">
  <defs
     id="defs6050" />
  <sodipodi:namedview
     id="base"
     pagecolor="#ffffff"
     bordercolor="#666666"
     borderopacity="1.0"
     inkscape:pageopacity="0.0"
     inkscape:pageshadow="2"
     inkscape:zoom="0.7"
     inkscape:cx="618.9729"
     inkscape:cy="-131.86535"
     inkscape:document-units="mm"
     inkscape:current-layer="g6329"
     showgrid="false"
     fit-margin-top="0"
     fit-margin-left="0"
     fit-margin-right="0"
     fit-margin-bottom="0"
     inkscape:window-width="1440"
     inkscape:window-height="784"
     inkscape:window-x="0"
     inkscape:window-y="27"
     inkscape:window-maximized="1" />
  <metadata
     id="metadata6053">
    <rdf:RDF>
      <cc:Work
         rdf:about="">
        <dc:format>image/svg+xml</dc:format>
        <dc:type
           rdf:resource="http://purl.org/dc/dcmitype/StillImage" />
        <dc:title></dc:title>
      </cc:Work>
    </rdf:RDF>
  </metadata>
  <g
     inkscape:label="Capa 1"
     inkscape:groupmode="layer"
     id="layer1"
     transform="translate(19.103079,-108.1611)">
    <g
       transform="matrix(0.4935086,0,0,-0.4935086,-77.538988,836.62415)"
       id="g6014">
      <g
         id="g6329">
        <g
           transform="matrix(0.94306169,0,0,0.94306169,6.7420142,78.969548)"
           id="g6302">
          <path
             d="m 407.9873,1457.0898 c -1.283,0 -2.35,-0.489 -3.198,-1.467 -0.849,-0.98 -1.272,-2.233 -1.272,-3.765 0,-1.542 0.432,-2.809 1.294,-3.804 0.863,-0.995 1.927,-1.492 3.189,-1.492 1.304,0 2.384,0.49 3.243,1.466 0.859,0.98 1.288,2.261 1.288,3.847 0,1.553 -0.429,2.809 -1.288,3.772 -0.859,0.962 -1.944,1.443 -3.256,1.443 m 4.36,10.563 h 4.152 v -24.732 h -4.152 v 1.885 c -0.809,-0.83 -1.621,-1.43 -2.436,-1.796 -0.816,-0.366 -1.697,-0.549 -2.65,-0.549 -2.134,0 -3.982,0.895 -5.543,2.682 -1.558,1.788 -2.336,4.01 -2.336,6.666 0,2.755 0.754,5.014 2.262,6.775 1.507,1.76 3.34,2.639 5.497,2.639 0.992,0 1.922,-0.201 2.792,-0.607 0.87,-0.404 1.676,-1.01 2.414,-1.819 z"
             style="fill:#4d4d4d;fill-opacity:1;fill-rule:nonzero;stroke:none"
             id="path576"
             inkscape:connector-curvature="0" />
          <path
             d="m 432.8652,1454.0723 c -0.274,0.995 -0.815,1.805 -1.621,2.428 -0.807,0.622 -1.744,0.933 -2.81,0.933 -1.157,0 -2.172,-0.348 -3.047,-1.048 -0.546,-0.437 -1.055,-1.209 -1.521,-2.313 z m 4.15,-3.525 h -13.332 c 0.194,-1.27 0.707,-2.278 1.543,-3.027 0.836,-0.749 1.904,-1.124 3.2,-1.124 1.55,0 2.883,0.586 3.999,1.756 l 3.495,-1.772 c -0.87,-1.333 -1.914,-2.321 -3.131,-2.96 -1.217,-0.639 -2.66,-0.959 -4.333,-0.959 -2.594,0 -4.706,0.882 -6.338,2.648 -1.633,1.765 -2.446,3.977 -2.446,6.635 0,2.722 0.812,4.982 2.439,6.781 1.625,1.797 3.665,2.697 6.118,2.697 2.604,0 4.722,-0.9 6.354,-2.697 1.633,-1.799 2.447,-4.174 2.447,-7.126 z"
             style="fill:#4d4d4d;fill-opacity:1;fill-rule:nonzero;stroke:none"
             id="path580"
             inkscape:connector-curvature="0" />
          <path
             d="m 405.4639,1438.6709 h 6.515 l 8.144,-26.437 8.217,26.437 h 6.512 l 5.892,-37.901 h -6.466 l -3.766,23.935 -7.464,-23.935 h -5.893 l -7.398,23.935 -3.856,-23.935 h -6.52 z"
             style="fill:#4d4d4d;fill-opacity:1;fill-rule:nonzero;stroke:none"
             id="path584"
             inkscape:connector-curvature="0" />
          <path
             d="m 457.2871,1423.0303 c -2.016,0 -3.689,-0.769 -5.022,-2.307 -1.333,-1.538 -1.999,-3.507 -1.999,-5.912 0,-2.423 0.677,-4.416 2.035,-5.977 1.356,-1.565 3.025,-2.345 5.009,-2.345 2.047,0 3.745,0.767 5.094,2.306 1.349,1.537 2.023,3.55 2.023,6.043 0,2.437 -0.674,4.413 -2.023,5.924 -1.349,1.512 -3.054,2.268 -5.117,2.268 m 6.854,5.772 h 6.519 v -28.033 h -6.519 v 2.962 c -1.273,-1.305 -2.549,-2.247 -3.828,-2.821 -1.281,-0.576 -2.669,-0.863 -4.163,-0.863 -3.355,0 -6.259,1.404 -8.708,4.212 -2.448,2.809 -3.673,6.299 -3.673,10.475 0,4.328 1.186,7.875 3.555,10.641 2.368,2.764 5.248,4.148 8.634,4.148 1.558,0 3.021,-0.318 4.39,-0.954 1.367,-0.635 2.632,-1.589 3.793,-2.859 z"
             style="fill:#4d4d4d;fill-opacity:1;fill-rule:nonzero;stroke:none"
             id="path588"
             inkscape:connector-curvature="0" />
          <path
             d="m 476.8135,1428.8027 h 6.52 v -3.222 c 1.114,1.323 2.353,2.309 3.715,2.964 1.363,0.653 2.848,0.979 4.458,0.979 1.623,0 3.091,-0.429 4.398,-1.289 1.306,-0.86 2.355,-2.114 3.154,-3.761 1.036,1.647 2.307,2.901 3.811,3.761 1.506,0.86 3.151,1.289 4.935,1.289 1.85,0 3.475,-0.464 4.876,-1.393 1.403,-0.926 2.411,-2.139 3.025,-3.632 0.613,-1.495 0.919,-3.925 0.919,-7.291 v -16.438 h -6.568 v 14.221 c 0,3.177 -0.368,5.33 -1.098,6.454 -0.733,1.126 -1.831,1.688 -3.296,1.688 -1.117,0 -2.115,-0.344 -2.997,-1.03 -0.884,-0.688 -1.541,-1.637 -1.97,-2.847 -0.431,-1.211 -0.646,-3.157 -0.646,-5.837 v -12.649 h -6.566 v 13.578 c 0,2.507 -0.172,4.324 -0.517,5.448 -0.341,1.126 -0.856,1.963 -1.543,2.513 -0.685,0.55 -1.516,0.824 -2.489,0.824 -1.086,0 -2.071,-0.348 -2.957,-1.044 -0.886,-0.694 -1.548,-1.671 -1.986,-2.924 -0.441,-1.255 -0.658,-3.229 -0.658,-5.925 v -12.47 h -6.52 z"
             style="fill:#4d4d4d;fill-opacity:1;fill-rule:nonzero;stroke:none"
             id="path592"
             inkscape:connector-curvature="0" />
          <path
             d="m 534.7646,1423.0303 c -2.015,0 -3.688,-0.769 -5.021,-2.307 -1.335,-1.538 -2.001,-3.507 -2.001,-5.912 0,-2.423 0.678,-4.416 2.035,-5.977 1.358,-1.565 3.027,-2.345 5.011,-2.345 2.047,0 3.745,0.767 5.093,2.306 1.349,1.537 2.024,3.55 2.024,6.043 0,2.437 -0.675,4.413 -2.024,5.924 -1.348,1.512 -3.053,2.268 -5.117,2.268 m 6.854,5.772 h 6.52 v -28.033 h -6.52 v 2.962 c -1.272,-1.305 -2.548,-2.247 -3.828,-2.821 -1.28,-0.576 -2.669,-0.863 -4.164,-0.863 -3.354,0 -6.257,1.404 -8.707,4.212 -2.447,2.809 -3.674,6.299 -3.674,10.475 0,4.328 1.187,7.875 3.557,10.641 2.368,2.764 5.246,4.148 8.634,4.148 1.558,0 3.021,-0.318 4.388,-0.954 1.369,-0.635 2.634,-1.589 3.794,-2.859 z"
             style="fill:#4d4d4d;fill-opacity:1;fill-rule:nonzero;stroke:none"
             id="path596"
             inkscape:connector-curvature="0" />
          <path
             d="m 345.418,1453.1807 c -15.874,0 -28.787,-12.912 -28.787,-28.786 0,-15.872 12.913,-28.787 28.787,-28.787 15.873,0 28.787,12.915 28.787,28.787 0,15.874 -12.914,28.786 -28.787,28.786 m 0,-66.249 c -20.657,0 -37.462,16.807 -37.462,37.463 0,20.656 16.805,37.462 37.462,37.462 20.655,0 37.462,-16.806 37.462,-37.462 0,-20.656 -16.807,-37.463 -37.462,-37.463"
             style="fill:#f97ca9;fill-opacity:1;fill-rule:nonzero;stroke:none"
             id="path600"
             inkscape:connector-curvature="0" />
          <path
             d="m 341.1523,1425.3086 c -2.338,0 -4.241,-1.902 -4.241,-4.241 0,-2.339 1.903,-4.24 4.241,-4.24 2.339,0 4.241,1.901 4.241,4.24 0,2.339 -1.902,4.241 -4.241,4.241 m 0,-15.423 c -6.165,0 -11.181,5.016 -11.181,11.182 0,6.165 5.016,11.181 11.181,11.181 6.166,0 11.183,-5.016 11.183,-11.181 0,-6.166 -5.017,-11.182 -11.183,-11.182"
             style="fill:#f97ca9;fill-opacity:1;fill-rule:nonzero;stroke:none"
             id="path604"
             inkscape:connector-curvature="0" />
          <path
             d="m 375.834,1472.7979 c -6.232,0 -11.304,-5.071 -11.304,-11.301 0,-6.231 5.072,-11.303 11.304,-11.303 6.232,0 11.302,5.072 11.302,11.303 0,6.23 -5.07,11.301 -11.302,11.301 m 0,-31.279 c -11.017,0 -19.979,8.962 -19.979,19.978 0,11.014 8.962,19.976 19.979,19.976 11.016,0 19.977,-8.962 19.977,-19.976 0,-11.016 -8.961,-19.978 -19.977,-19.978"
             style="fill:#f97ca9;fill-opacity:1;fill-rule:nonzero;stroke:none"
             id="path608"
             inkscape:connector-curvature="0" />
          <path
             d="m 195.2744,1453.8174 -3.54,-3.641 c -2.41,2.747 -5.119,4.121 -8.13,4.121 -2.54,0 -4.68,-0.937 -6.42,-2.812 -1.74,-1.875 -2.611,-4.184 -2.611,-6.93 0,-1.913 0.387,-3.613 1.156,-5.097 0.77,-1.484 1.86,-2.648 3.27,-3.494 1.408,-0.847 2.973,-1.269 4.697,-1.269 1.469,0 2.811,0.295 4.026,0.889 1.217,0.59 2.555,1.668 4.012,3.23 l 3.431,-3.863 c -1.963,-2.07 -3.821,-3.504 -5.568,-4.304 -1.749,-0.8 -3.743,-1.2 -5.984,-1.2 -4.135,0 -7.519,1.415 -10.151,4.243 -2.633,2.828 -3.95,6.452 -3.95,10.873 0,2.861 0.598,5.403 1.797,7.626 1.2,2.225 2.918,4.013 5.153,5.364 2.237,1.353 4.642,2.03 7.224,2.03 2.192,0 4.305,-0.501 6.335,-1.5 2.031,-1 3.781,-2.422 5.253,-4.266"
             style="fill:#4d4d4d;fill-opacity:1;fill-rule:nonzero;stroke:none"
             id="path612"
             inkscape:connector-curvature="0" />
          <path
             d="m 208.1934,1447.0225 c -1.525,0 -2.792,-0.583 -3.803,-1.746 -1.007,-1.164 -1.512,-2.656 -1.512,-4.477 0,-1.833 0.513,-3.342 1.541,-4.525 1.026,-1.183 2.291,-1.774 3.793,-1.774 1.548,0 2.835,0.582 3.855,1.746 1.022,1.164 1.532,2.686 1.532,4.573 0,1.847 -0.51,3.343 -1.532,4.486 -1.02,1.144 -2.312,1.717 -3.874,1.717 m 5.188,4.367 h 4.937 v -21.22 h -4.937 v 2.244 c -0.961,-0.989 -1.928,-1.703 -2.897,-2.137 -0.969,-0.436 -2.02,-0.653 -3.151,-0.653 -2.541,0 -4.738,1.063 -6.591,3.189 -1.854,2.126 -2.781,4.769 -2.781,7.928 0,3.278 0.897,5.964 2.691,8.056 1.794,2.094 3.972,3.141 6.536,3.141 1.18,0 2.288,-0.24 3.322,-0.721 1.037,-0.482 1.993,-1.204 2.871,-2.167 z"
             style="fill:#4d4d4d;fill-opacity:1;fill-rule:nonzero;stroke:none"
             id="path616"
             inkscape:connector-curvature="0" />
          <path
             d="m 223.0098,1451.3896 h 4.936 v -2.174 c 1.119,1.02 2.132,1.727 3.041,2.124 0.91,0.398 1.837,0.598 2.79,0.598 1.949,0 3.604,-0.735 4.965,-2.205 1.142,-1.248 1.715,-3.095 1.715,-5.538 v -14.025 h -4.882 v 9.293 c 0,2.531 -0.105,4.215 -0.316,5.047 -0.21,0.829 -0.577,1.463 -1.101,1.9 -0.522,0.434 -1.169,0.651 -1.937,0.651 -0.998,0 -1.857,-0.361 -2.57,-1.081 -0.716,-0.721 -1.213,-1.718 -1.489,-2.989 -0.144,-0.664 -0.216,-2.099 -0.216,-4.307 v -8.514 h -4.936 z"
             style="fill:#4d4d4d;fill-opacity:1;fill-rule:nonzero;stroke:none"
             id="path620"
             inkscape:connector-curvature="0" />
          <path
             d="m 264.1875,1447.0996 -4.108,-2.438 c -0.773,0.872 -1.536,1.476 -2.291,1.815 -0.753,0.337 -1.636,0.507 -2.65,0.507 -1.847,0 -3.342,-0.596 -4.48,-1.783 -1.14,-1.188 -1.711,-2.709 -1.711,-4.567 0,-1.804 0.549,-3.278 1.647,-4.42 1.097,-1.142 2.539,-1.714 4.325,-1.714 2.21,0 3.928,0.813 5.16,2.438 l 3.892,-2.875 c -2.109,-2.959 -5.087,-4.44 -8.931,-4.44 -3.46,0 -6.168,1.107 -8.126,3.318 -1.959,2.209 -2.939,4.796 -2.939,7.762 0,2.054 0.477,3.946 1.429,5.676 0.952,1.729 2.28,3.088 3.986,4.076 1.705,0.988 3.613,1.483 5.722,1.483 1.952,0 3.706,-0.421 5.261,-1.26 1.554,-0.839 2.825,-2.03 3.814,-3.578"
             style="fill:#4d4d4d;fill-opacity:1;fill-rule:nonzero;stroke:none"
             id="path624"
             inkscape:connector-curvature="0" />
          <path
             d="m 283.1094,1443.4326 c -0.327,1.184 -0.969,2.146 -1.93,2.888 -0.959,0.74 -2.072,1.112 -3.341,1.112 -1.376,0 -2.583,-0.417 -3.622,-1.249 -0.652,-0.521 -1.255,-1.438 -1.81,-2.751 z m 4.934,-4.192 h -15.854 c 0.229,-1.511 0.84,-2.708 1.835,-3.6 0.994,-0.892 2.262,-1.337 3.806,-1.337 1.843,0 3.428,0.696 4.754,2.089 l 4.158,-2.107 c -1.037,-1.586 -2.278,-2.76 -3.725,-3.522 -1.444,-0.76 -3.162,-1.141 -5.151,-1.141 -3.086,0 -5.6,1.05 -7.539,3.152 -1.941,2.099 -2.911,4.728 -2.911,7.888 0,3.238 0.967,5.927 2.903,8.066 1.933,2.138 4.358,3.209 7.275,3.209 3.097,0 5.617,-1.071 7.557,-3.209 1.939,-2.139 2.911,-4.963 2.911,-8.476 z"
             style="fill:#4d4d4d;fill-opacity:1;fill-rule:nonzero;stroke:none"
             id="path628"
             inkscape:connector-curvature="0" />
          <path
             d="m 290.5859,1451.3896 h 4.23 v -2.672 c 0.459,1.054 1.068,1.854 1.827,2.4 0.759,0.547 1.591,0.82 2.494,0.82 0.638,0 1.308,-0.183 2.008,-0.548 l -1.538,-4.583 c -0.579,0.312 -1.054,0.469 -1.428,0.469 -0.759,0 -1.401,-0.508 -1.924,-1.521 -0.526,-1.015 -0.788,-3.005 -0.788,-5.969 l 0.018,-1.035 v -8.581 h -4.899 z"
             style="fill:#4d4d4d;fill-opacity:1;fill-rule:nonzero;stroke:none"
             id="path632"
             inkscape:connector-curvature="0" />
          <path
             d="m 131.2881,1421.3545 -4.557,-10.386 h 9.094 z m 0.336,6.096 12.402,-28.692 h -2.871 l -4.182,9.442 h -11.456 l -4.143,-9.442 h -2.965 l 12.564,28.692 z"
             style="fill:#4d4d4d;fill-opacity:1;fill-rule:nonzero;stroke:none"
             id="path636"
             inkscape:connector-curvature="0" />
          <path
             d="m 145.5742,1419.9805 h 2.693 l 6.604,-15.47 6.522,15.47 h 2.712 l -9.005,-21.222 h -0.468 z"
             style="fill:#4d4d4d;fill-opacity:1;fill-rule:nonzero;stroke:none"
             id="path640"
             inkscape:connector-curvature="0" />
          <path
             d="m 177.1416,1417.8945 c -1.408,0 -2.709,-0.375 -3.899,-1.12 -1.194,-0.748 -2.141,-1.797 -2.846,-3.15 -0.705,-1.349 -1.056,-2.778 -1.056,-4.284 0,-1.495 0.355,-2.924 1.065,-4.287 0.712,-1.364 1.666,-2.426 2.863,-3.185 1.195,-0.759 2.483,-1.139 3.855,-1.139 1.384,0 2.698,0.376 3.936,1.13 1.24,0.753 2.193,1.772 2.863,3.058 0.667,1.287 1.001,2.733 1.001,4.344 0,2.456 -0.749,4.508 -2.248,6.156 -1.498,1.652 -3.343,2.477 -5.534,2.477 m 10.116,2.086 v -21.222 h -2.496 v 3.648 c -1.06,-1.393 -2.251,-2.438 -3.569,-3.141 -1.322,-0.701 -2.765,-1.052 -4.332,-1.052 -2.784,0 -5.161,1.087 -7.132,3.267 -1.97,2.178 -2.954,4.827 -2.954,7.947 0,3.056 0.994,5.67 2.982,7.841 1.989,2.172 4.381,3.259 7.177,3.259 1.614,0 3.077,-0.371 4.383,-1.112 1.308,-0.743 2.457,-1.854 3.445,-3.336 v 3.901 z"
             style="fill:#4d4d4d;fill-opacity:1;fill-rule:nonzero;stroke:none"
             id="path644"
             inkscape:connector-curvature="0" />
          <path
             d="m 192.6543,1419.9805 h 2.531 v -3.803 c 1.014,1.455 2.134,2.544 3.364,3.267 1.228,0.722 2.567,1.083 4.013,1.083 1.47,0 2.775,-0.404 3.914,-1.21 1.139,-0.807 1.981,-1.893 2.522,-3.258 0.542,-1.364 0.813,-3.491 0.813,-6.378 v -10.923 h -2.531 v 10.122 c 0,2.446 -0.093,4.078 -0.281,4.897 -0.294,1.405 -0.856,2.461 -1.688,3.17 -0.832,0.709 -1.917,1.063 -3.256,1.063 -1.529,0 -2.901,-0.546 -4.111,-1.639 -1.212,-1.092 -2.011,-2.445 -2.396,-4.057 -0.243,-1.053 -0.363,-2.978 -0.363,-5.772 v -7.784 h -2.531 z"
             style="fill:#4d4d4d;fill-opacity:1;fill-rule:nonzero;stroke:none"
             id="path648"
             inkscape:connector-curvature="0" />
          <path
             d="m 213.3311,1419.9805 h 14.444 l -11.137,-18.803 h 10.776 v -2.419 h -15.131 l 11.126,18.824 h -10.078 z"
             style="fill:#4d4d4d;fill-opacity:1;fill-rule:nonzero;stroke:none"
             id="path652"
             inkscape:connector-curvature="0" />
          <path
             d="m 239.8545,1417.8945 c -1.407,0 -2.709,-0.375 -3.9,-1.12 -1.193,-0.748 -2.14,-1.797 -2.845,-3.15 -0.705,-1.349 -1.055,-2.778 -1.055,-4.284 0,-1.495 0.354,-2.924 1.063,-4.287 0.712,-1.364 1.666,-2.426 2.864,-3.185 1.196,-0.759 2.482,-1.139 3.855,-1.139 1.384,0 2.698,0.376 3.936,1.13 1.24,0.753 2.194,1.772 2.864,3.058 0.667,1.287 1.001,2.733 1.001,4.344 0,2.456 -0.749,4.508 -2.248,6.156 -1.498,1.652 -3.344,2.477 -5.535,2.477 m 10.115,2.086 v -21.222 h -2.495 v 3.648 c -1.06,-1.393 -2.25,-2.438 -3.57,-3.141 -1.32,-0.701 -2.764,-1.052 -4.33,-1.052 -2.784,0 -5.162,1.087 -7.132,3.267 -1.972,2.178 -2.956,4.827 -2.956,7.947 0,3.056 0.996,5.67 2.982,7.841 1.99,2.172 4.383,3.259 7.178,3.259 1.615,0 3.077,-0.371 4.384,-1.112 1.307,-0.743 2.457,-1.854 3.444,-3.336 v 3.901 z"
             style="fill:#4d4d4d;fill-opacity:1;fill-rule:nonzero;stroke:none"
             id="path656"
             inkscape:connector-curvature="0" />
          <path
             d="m 264.8867,1417.8945 c -1.409,0 -2.71,-0.375 -3.901,-1.12 -1.192,-0.748 -2.14,-1.797 -2.844,-3.15 -0.704,-1.349 -1.057,-2.778 -1.057,-4.284 0,-1.495 0.357,-2.924 1.067,-4.287 0.71,-1.364 1.663,-2.426 2.862,-3.185 1.197,-0.759 2.481,-1.139 3.853,-1.139 1.386,0 2.699,0.376 3.939,1.13 1.237,0.753 2.192,1.772 2.861,3.058 0.669,1.287 1.001,2.733 1.001,4.344 0,2.456 -0.748,4.508 -2.246,6.156 -1.5,1.652 -3.345,2.477 -5.535,2.477 m 10.115,10.278 v -29.414 h -2.496 v 3.648 c -1.06,-1.393 -2.249,-2.438 -3.57,-3.141 -1.32,-0.701 -2.763,-1.052 -4.328,-1.052 -2.785,0 -5.162,1.087 -7.132,3.267 -1.972,2.178 -2.957,4.827 -2.957,7.947 0,3.056 0.994,5.67 2.983,7.841 1.988,2.172 4.38,3.259 7.176,3.259 1.617,0 3.077,-0.371 4.386,-1.112 1.307,-0.743 2.454,-1.854 3.442,-3.336 v 12.093 z"
             style="fill:#4d4d4d;fill-opacity:1;fill-rule:nonzero;stroke:none"
             id="path660"
             inkscape:connector-curvature="0" />
          <path
             d="m 289.7383,1417.8555 c -2.104,0 -3.913,-0.839 -5.426,-2.517 -1.511,-1.677 -2.267,-3.706 -2.267,-6.087 0,-1.533 0.344,-2.964 1.034,-4.29 0.689,-1.327 1.621,-2.349 2.794,-3.071 1.175,-0.722 2.462,-1.083 3.865,-1.083 1.402,0 2.69,0.361 3.864,1.083 1.173,0.722 2.106,1.744 2.795,3.071 0.688,1.326 1.034,2.757 1.034,4.29 0,2.381 -0.76,4.41 -2.278,6.087 -1.518,1.678 -3.322,2.517 -5.415,2.517 m 0.008,2.672 c 3.031,0 5.543,-1.185 7.535,-3.551 1.811,-2.158 2.717,-4.714 2.717,-7.665 0,-2.965 -0.958,-5.556 -2.871,-7.773 -1.913,-2.217 -4.373,-3.325 -7.381,-3.325 -3.018,0 -5.485,1.108 -7.398,3.325 -1.913,2.217 -2.87,4.808 -2.87,7.773 0,2.938 0.905,5.486 2.716,7.646 1.992,2.38 4.511,3.57 7.552,3.57"
             style="fill:#4d4d4d;fill-opacity:1;fill-rule:nonzero;stroke:none"
             id="path664"
             inkscape:connector-curvature="0" />
        </g>
      </g>
    </g>
  </g>
</svg>
