<?xml version="1.0" encoding="UTF-8" standalone="no"?>
<svg
   xmlns:dc="http://purl.org/dc/elements/1.1/"
   xmlns:cc="http://creativecommons.org/ns#"
   xmlns:rdf="http://www.w3.org/1999/02/22-rdf-syntax-ns#"
   xmlns:svg="http://www.w3.org/2000/svg"
   xmlns="http://www.w3.org/2000/svg"
   id="svg5680"
   version="1.1"
   viewBox="0 0 113.58285 144.99475"
   height="144.99475mm"
   width="113.58285mm">
  <defs
     id="defs5674" />
  <metadata
     id="metadata5677">
    <rdf:RDF>
      <cc:Work
         rdf:about="">
        <dc:format>image/svg+xml</dc:format>
        <dc:type
           rdf:resource="http://purl.org/dc/dcmitype/StillImage" />
        <dc:title></dc:title>
      </cc:Work>
    </rdf:RDF>
  </metadata>
  <g
     transform="translate(-33.166899,-47.987751)"
     id="layer1">
    <g
       style="fill:#00b7b7;fill-opacity:1"
       transform="matrix(1.0128755,0,0,-1.0128755,-617.97146,709.54941)"
       id="g5660">
      <path
         d="m 652.6152,611.04 c 3.492,1.831 9.348,2.79 13.324,2.79 1.408,0 2.276,-0.128 2.617,-0.248 0.057,-0.021 0.104,-0.039 0.137,-0.056 -0.033,-0.166 -0.14,-0.426 -0.244,-0.59 l -0.143,-0.205 -0.082,-0.238 c -0.013,-0.046 -1.664,-4.765 -6.539,-8.163 -3.588,-2.506 -10.793,-3.656 -14.513,-4.103 0.777,3.697 2.519,9.284 5.443,10.813 m -4.303,14.759 c 1.865,0.443 4.823,1.017 7.66,1.017 1.207,0 2.288,-0.104 3.213,-0.308 3.022,-0.674 5.78,-5.064 7.309,-8.174 -2.176,-0.24 -5.457,-0.541 -8.313,-0.541 -2.425,0 -3.648,0.217 -4.248,0.397 -1.884,0.572 -4.168,4.335 -5.621,7.609 m 39.629,20.137 c 13.74,7.827 26.092,-0.125 26.092,-0.125 0,0 -13.668,-3.079 -21.68,-6.806 -10.84,-5.042 -19.16,-15.505 -19.16,-15.505 0,0 -0.08,13.991 14.748,22.436 m 42.604,-24.838 c 0,0 -7.69,5.427 -18.907,7.572 -13.552,2.588 -28.236,-1.262 -28.236,-1.262 0,0 12.984,12.759 33.783,12.744 12.369,-0.008 13.36,-19.054 13.36,-19.054 m -66.766,-19.768 c 5.182,3.615 7.324,8.477 7.801,9.699 4.221,-12.769 16.246,-21.986 30.43,-21.986 17.707,0 32.056,14.351 32.056,32.055 0,17.705 -14.349,32.054 -32.056,32.054 -17.702,0 -32.055,-14.349 -32.055,-32.054 0,-0.541 0.015,-1.078 0.041,-1.612 -1.559,3.319 -5.065,9.487 -10.018,10.588 -1.183,0.264 -2.533,0.399 -4.006,0.399 -5.187,0 -10.455,-1.629 -10.677,-1.698 l -1.828,-0.572 0.658,-1.799 c 0.594,-1.633 3.699,-9.566 8.183,-11.484 -0.478,-0.205 -0.953,-0.411 -1.392,-0.641 -5.963,-3.125 -7.602,-14.585 -7.768,-15.879 l -0.287,-2.219 2.229,0.159 c 0.525,0.037 12.921,0.967 18.689,4.99"
         style="fill:#00b7b7;fill-opacity:1;fill-rule:nonzero;stroke:none"
         id="path1762" />
      <path
         d="m 716.1172,546.3174 c -12.264,-8.653 -27.346,-4.234 -27.346,-4.234 l 0.93,3.747 c 0,0 1.674,-0.133 6.088,-0.661 4.414,-0.532 12.035,2.014 12.035,2.014 0,0 -0.02,7.332 3.428,14.309 2.808,5.691 8.92,6.302 13.271,2.093 4.35,-4.208 1.135,-10.539 -8.406,-17.268 m -4.674,-19.862 c 0,0 -2.935,4.452 -3.57,6.872 -0.633,2.421 -0.358,7.804 -0.358,7.804 l 4.321,1.321 c 0,0 -0.485,-4.537 0.092,-7.074 0.578,-2.538 2.394,-6.979 2.394,-6.979 z m 31.612,44.204 c -11.878,9.596 -35.52,11.271 -42.983,11.271 -17.211,0 -31.47,-3.161 -41.673,-11.384 -10.205,-8.226 -14.399,-22.734 -14.399,-22.734 v -37.812 h 20 v 28 h 7 v -28 h 55 v 30 h 9 v -30 h 20 v 37.661 c 0,0 -0.062,13.403 -11.945,22.998"
         style="fill:#00b7b7;fill-opacity:1;fill-rule:nonzero;stroke:none"
         id="path1766" />
      <path
         d="m 719.709,561.374 c -3.076,1.334 -3.473,-0.775 -4.5,-2.557 -1.105,-1.926 -2.758,-9.061 -2.758,-9.061 0,0 3.842,0.924 6.838,4.267 3.313,3.698 2.508,6.447 0.42,7.351"
         style="fill:#00b7b7;fill-opacity:1;fill-rule:nonzero;stroke:none"
         id="path1770" />
    </g>
  </g>
</svg>
