<?xml version="1.0" encoding="UTF-8" standalone="no"?>
<svg
   xmlns:dc="http://purl.org/dc/elements/1.1/"
   xmlns:cc="http://creativecommons.org/ns#"
   xmlns:rdf="http://www.w3.org/1999/02/22-rdf-syntax-ns#"
   xmlns:svg="http://www.w3.org/2000/svg"
   xmlns="http://www.w3.org/2000/svg"
   id="nosotros"
   class="fondo fondo--facebook-hover fondo--svg"
   version="1.1"
   viewBox="0 0 102.64795 97.687759">
  <defs
     id="defs2471">
    <clipPath
       id="clipPath20"
       clipPathUnits="userSpaceOnUse">
      <path
         id="path18"
         d="M 0,560 H 960 V 0 H 0 Z" />
    </clipPath>
  </defs>
  <metadata
     id="metadata2474">
    <rdf:RDF>
      <cc:Work
         rdf:about="">
        <dc:format>image/svg+xml</dc:format>
        <dc:type
           rdf:resource="http://purl.org/dc/dcmitype/StillImage" />
        <dc:title></dc:title>
      </cc:Work>
    </rdf:RDF>
  </metadata>
  <g
     transform="translate(-52.997454,-89.028145)"
     id="layer1">
    <g
       id="g14"
       transform="matrix(0.84071606,0,0,-0.84071606,-38.94615,324.79242)">
      <g
         clip-path="url(#clipPath20)"
         id="g16">
        <g
           transform="translate(164.7178,262.0127)"
           id="g22">
          <path
             id="path24"
             style="fill-opacity:1;fill-rule:nonzero;stroke:none"
             d="m 0,0 c 0,-10.175 -9.156,-18.419 -20.452,-18.419 -11.301,0 -20.463,8.244 -20.463,18.419 0,10.172 9.162,18.42 20.463,18.42 C -9.156,18.42 0,10.172 0,0" />
        </g>
        <g
           transform="translate(215.7202,224.4541)"
           id="g26">
          <path
             id="path28"
             style="fill-opacity:1;fill-rule:nonzero;stroke:none"
             d="m 0,0 c 0,-9.658 -9.16,-17.488 -20.462,-17.488 -11.297,0 -20.452,7.83 -20.452,17.488 0,9.66 9.155,17.487 20.452,17.487 C -9.16,17.487 0,9.66 0,0" />
        </g>
        <g
           transform="translate(144.458,165)"
           id="g30">
          <path
             id="path32"
             style="fill-opacity:1;fill-rule:nonzero;stroke:none"
             d="m 0,0 h -21.194 l -0.067,12.936 -1.951,-0.366 0.093,-11.855 c 0,0 -4.556,-0.646 -7.929,0.935 -3.367,1.588 -3.959,5.036 -3.959,5.036 0,0 -0.197,35.55 0,41.096 0.193,5.547 -0.791,17.596 4.95,24.33 5.743,6.736 10.5,7.513 10.5,7.513 l 0.198,-12.502 c 0,0 -4.176,-0.646 -6.333,-5.691 -1.231,-2.849 -0.594,-12.119 1.185,-15.686 1.779,-3.568 5.045,-2.717 6.141,-0.991 1.719,2.714 -1.021,4.287 -2.459,4.224 -1.322,-0.051 -2.852,7.058 -1.047,11.016 1.8,3.963 5.187,4.446 10.703,3.738 3.249,-0.414 6.148,-11.043 4.489,-11.659 -0.927,-0.337 -1.784,-2.373 -0.993,-4.553 0.802,-2.174 4.315,-2.054 5.227,0.025 0.767,1.741 0.421,10.308 -2.351,15.852 -2.771,5.549 -9.661,4.364 -9.661,4.364 v 11.85 c 0,0 -0.402,0.008 2.565,-0.192 2.974,-0.191 10.332,-8.311 12.105,-8.508 0,0 6.299,3.748 9.077,6.323 2.771,2.575 5.879,1.388 5.879,1.388 l -0.07,-18.957 c -2.487,0.329 -5.086,-2.179 -4.91,-5.397 0.154,-2.974 1.648,-5.646 6.447,-5.696 3.962,-0.05 6.67,1.962 6.917,6.115 0.236,3.89 -4.078,4.978 -4.078,4.978 l 0.027,17.375 c 0,0 -0.087,1.186 1.698,0.788 1.784,-0.396 5.395,-2.971 5.395,-2.971 0,0 -0.593,-10.494 -0.198,-14.656 0.395,-4.165 2.281,-11.943 2.281,-11.943 0,0 -2.083,-2.123 -9.086,-6.279 C 12.603,37.82 11.917,30.89 11.741,26.433 11.473,19.703 11.555,0 11.555,0 Z" />
        </g>
        <g
           transform="translate(162,167.6348)"
           id="g34">
          <path
             id="path36"
             style="fill-opacity:1;fill-rule:nonzero;stroke:none"
             d="m 0,0 v 22.028 c 0,0 0.582,6.127 5.938,10.486 5.347,4.363 11.035,4.851 11.035,4.851 h 25.001 c 0,0 1.318,-8.782 7.653,-11.943 C 55.968,22.242 69,23.698 69,23.698 V 0 C 69,0 69.612,-2.677 62.109,-2.677 55.012,-2.677 56,0 56,0 v 14.365 h -3 v -17 H 17 v 17 H 13 V 0 C 13,0 14.078,-3.398 6.373,-3.398 -0.529,-3.398 0,0 0,0" />
        </g>
        <g
           transform="translate(221.2603,206.9346)"
           id="g38">
          <path
             id="path40"
             d="m 0,0 c 0,0 -0.338,8.183 -2.516,7.786 -2.18,-0.394 -9.705,-9.09 -7.136,-13.755 2.58,-4.665 5.359,-6.649 9.704,-6.649 4.364,0 10.523,2.8 10.129,5.64 C 9.781,-4.141 0,0 0,0" />
        </g>
      </g>
    </g>
  </g>
</svg>
