<?xml version="1.0" encoding="UTF-8" standalone="no"?>
<!-- Created with Inkscape (http://www.inkscape.org/) -->

<svg
   xmlns:dc="http://purl.org/dc/elements/1.1/"
   xmlns:cc="http://creativecommons.org/ns#"
   xmlns:rdf="http://www.w3.org/1999/02/22-rdf-syntax-ns#"
   xmlns:svg="http://www.w3.org/2000/svg"
   xmlns="http://www.w3.org/2000/svg"
   xmlns:sodipodi="http://sodipodi.sourceforge.net/DTD/sodipodi-0.dtd"
   xmlns:inkscape="http://www.inkscape.org/namespaces/inkscape"
   width="139.39537mm"
   height="49.790054mm"
   viewBox="0 0 139.39537 49.790054"
   version="1.1"
   id="svg3276"
   inkscape:version="0.92.5 (2060ec1f9f, 2020-04-08)"
   sodipodi:docname="pacientes-sintomas.svg">
  <defs
     id="defs3270" />
  <sodipodi:namedview
     id="base"
     pagecolor="#ffffff"
     bordercolor="#666666"
     borderopacity="1.0"
     inkscape:pageopacity="0.0"
     inkscape:pageshadow="2"
     inkscape:zoom="0.81210937"
     inkscape:cx="110.54315"
     inkscape:cy="131.99426"
     inkscape:document-units="mm"
     inkscape:current-layer="layer1"
     showgrid="false"
     showborder="false"
     fit-margin-top="0"
     fit-margin-left="0"
     fit-margin-right="0"
     fit-margin-bottom="0"
     inkscape:window-width="1440"
     inkscape:window-height="788"
     inkscape:window-x="0"
     inkscape:window-y="27"
     inkscape:window-maximized="1" />
  <metadata
     id="metadata3273">
    <rdf:RDF>
      <cc:Work
         rdf:about="">
        <dc:format>image/svg+xml</dc:format>
        <dc:type
           rdf:resource="http://purl.org/dc/dcmitype/StillImage" />
        <dc:title></dc:title>
      </cc:Work>
    </rdf:RDF>
  </metadata>
  <g
     inkscape:label="Capa 1"
     inkscape:groupmode="layer"
     id="layer1"
     transform="translate(-76.585458,-186.09439)">
    <g
       transform="matrix(0.35277777,0,0,-0.35277777,-581.50933,534.20164)"
       id="g3218">
      <path
         d="m 2181.6611,946.707 c -3.897,0.388 -7.825,0.598 -11.687,1.206 -5.595,0.883 -11.22,1.745 -16.556,3.773 -0.885,0.337 -2.24,0.626 -2.141,1.886 0.078,1.001 1.285,1.231 2.123,1.561 3.561,1.406 7.278,2.207 11.03,2.955 1.953,0.389 2.682,-0.178 2.877,-1.945 0.122,-1.114 0.183,-2.239 1.782,-1.247 4.321,2.684 8.651,5.355 13.374,8.276 -5.358,2.197 -10.58,3.041 -15.543,4.713 -0.896,0.301 -1.497,-0.119 -1.278,-1.074 0.735,-3.188 -1.515,-3.153 -3.582,-3.555 -4.248,-0.825 -8.537,-1.574 -12.418,-3.653 -2.572,-1.376 -5.22,-2.726 -5.129,-6.281 0.088,-3.498 2.875,-4.769 5.309,-6.253 0.95,-0.578 2.108,-0.828 3.188,-1.173 9.806,-3.13 19.962,-4.119 30.15,-4.908 2.784,-10.75 12.772,-17.59 23.211,-15.392 8.3,1.748 13.139,7.494 15.65,15.375 4.614,0.464 9.24,0.823 13.836,1.414 6.856,0.883 13.643,2.173 20.009,4.98 2.381,1.05 4.523,2.572 4.721,5.598 0.188,2.867 -1.412,4.709 -3.716,5.904 -8.32,4.318 -17.485,5.189 -26.583,6.261 -1.606,0.188 -2.513,-0.849 -2.659,-2.386 -0.155,-1.621 0.543,-2.861 2.193,-3.254 1.094,-0.26 2.25,-0.246 3.375,-0.383 6.031,-0.738 12.068,-1.445 17.778,-3.72 1.132,-0.45 2.976,-0.692 3.025,-1.762 0.064,-1.404 -1.82,-1.645 -2.987,-2.176 -0.839,-0.383 -1.746,-0.636 -2.644,-0.866 -8.204,-2.095 -16.537,-3.371 -24.992,-3.849 0.346,5.14 -0.376,10.118 -2.682,14.741 -3.549,7.115 -9.059,11.886 -17.229,12.291 -7.915,0.391 -13.815,-3.556 -17.911,-10.161 -3.198,-5.154 -4.293,-10.873 -3.894,-16.896"
         style="fill:#ffffff;fill-opacity:1;fill-rule:evenodd;stroke:none"
         id="path1752"
         inkscape:connector-curvature="0" />
      <path
         d="m 2203.832,921.0937 c -7.631,0 -13.828,-0.011 -20.025,0.003 -17.141,0.038 -29.444,-11.739 -29.829,-28.859 -0.225,-10.013 -0.064,-20.035 -0.052,-30.052 0,-1.946 0.297,-4.008 2.736,-4.113 2.76,-0.118 2.883,2.038 2.879,4.125 -0.018,9.708 -0.01,19.416 -0.013,29.123 -0.01,14.293 9.472,24.056 23.697,24.168 13.011,0.101 26.025,0.089 39.036,-0.031 13.692,-0.126 23.244,-9.903 23.266,-23.613 0.019,-9.915 0.022,-19.829 0,-29.743 0,-1.992 0.129,-4.004 2.678,-4.02 2.648,-0.015 2.958,1.996 2.952,4.148 -0.032,10.223 0.025,20.448 -0.034,30.671 -0.08,14.062 -10.67,26.13 -24.586,27.821 -8.016,0.974 -16.094,0.096 -22.705,0.372"
         style="fill:#ffffff;fill-opacity:1;fill-rule:evenodd;stroke:none"
         id="path1756"
         inkscape:connector-curvature="0" />
      <path
         d="m 2171.9492,873.7695 h -0.045 c 0,-4.024 -0.034,-8.05 0.015,-12.074 0.022,-1.856 0.388,-3.662 2.793,-3.643 2.396,0.018 2.706,1.737 2.702,3.662 -0.018,8.051 -0.033,16.102 0.012,24.151 0.011,1.906 -0.521,3.402 -2.594,3.489 -2.288,0.095 -2.901,-1.501 -2.889,-3.509 0.024,-4.025 0.01,-8.05 0.01,-12.076"
         style="fill:#ffffff;fill-opacity:1;fill-rule:evenodd;stroke:none"
         id="path1760"
         inkscape:connector-curvature="0" />
      <path
         d="m 2233.1514,873.7549 c 0,4.021 -0.032,8.042 0.015,12.062 0.021,2.043 -0.678,3.57 -2.887,3.546 -2.111,-0.021 -2.631,-1.621 -2.631,-3.464 0,-8.042 -0.012,-16.083 -0.01,-24.125 0,-1.893 0.424,-3.686 2.737,-3.712 2.308,-0.027 2.787,1.669 2.775,3.631 -0.025,4.02 -0.01,8.041 0,12.062"
         style="fill:#ffffff;fill-opacity:1;fill-rule:evenodd;stroke:none"
         id="path1764"
         inkscape:connector-curvature="0" />
      <path
         d="m 2203.832,921.0937 c 6.611,-0.276 14.689,0.602 22.705,-0.372 13.916,-1.691 24.506,-13.759 24.586,-27.821 0.059,-10.223 0,-20.448 0.034,-30.671 0.01,-2.152 -0.304,-4.163 -2.952,-4.148 -2.549,0.016 -2.682,2.028 -2.678,4.02 0.022,9.914 0.019,19.828 0,29.743 -0.022,13.71 -9.574,23.487 -23.266,23.613 -13.011,0.12 -26.025,0.132 -39.036,0.031 -14.225,-0.112 -23.706,-9.875 -23.697,-24.168 0.01,-9.707 0,-19.415 0.013,-29.123 0,-2.087 -0.119,-4.243 -2.879,-4.125 -2.439,0.105 -2.732,2.167 -2.736,4.113 -0.012,10.017 -0.173,20.039 0.052,30.052 0.385,17.12 12.688,28.897 29.829,28.859 6.197,-0.014 12.394,-0.003 20.025,-0.003"
         style="fill:#5f5e5f;fill-opacity:1;fill-rule:evenodd;stroke:none"
         id="path1768"
         inkscape:connector-curvature="0" />
      <path
         d="m 2223.377,946.7324 c 8.455,0.478 16.788,1.754 24.992,3.849 0.899,0.229 1.805,0.483 2.644,0.866 1.167,0.531 3.051,0.771 2.987,2.176 -0.049,1.07 -1.893,1.311 -3.024,1.761 -5.71,2.276 -11.747,2.983 -17.779,3.721 -1.125,0.137 -2.281,0.123 -3.375,0.383 -1.65,0.392 -2.347,1.633 -2.193,3.254 0.146,1.537 1.053,2.574 2.659,2.386 9.098,-1.073 18.263,-1.944 26.583,-6.261 2.304,-1.196 3.904,-3.037 3.716,-5.905 -0.198,-3.025 -2.34,-4.547 -4.721,-5.597 -6.366,-2.808 -13.153,-4.098 -20.009,-4.981 -4.596,-0.59 -9.222,-0.95 -13.835,-1.414 -2.02,-0.048 -4.094,0.459 -6.012,-0.595 -8.97,-0.008 -17.938,-0.014 -26.906,-0.022 -1.884,1.123 -3.949,0.553 -5.944,0.635 -10.188,0.789 -20.344,1.777 -30.15,4.908 -1.08,0.345 -2.237,0.595 -3.188,1.173 -2.434,1.483 -5.22,2.755 -5.309,6.253 -0.091,3.555 2.557,4.904 5.13,6.281 3.88,2.078 8.17,2.827 12.418,3.652 2.066,0.403 4.316,0.368 3.582,3.555 -0.22,0.955 0.381,1.375 1.277,1.074 4.963,-1.672 10.186,-2.515 15.543,-4.713 -4.723,-2.92 -9.053,-5.591 -13.374,-8.275 -1.599,-0.992 -1.66,0.133 -1.782,1.246 -0.195,1.768 -0.924,2.334 -2.877,1.945 -3.752,-0.748 -7.469,-1.548 -11.03,-2.955 -0.837,-0.33 -2.044,-0.559 -2.123,-1.56 -0.099,-1.26 1.256,-1.549 2.141,-1.887 5.336,-2.027 10.961,-2.89 16.557,-3.772 3.861,-0.609 7.789,-0.819 11.686,-1.208 1.872,-0.016 3.747,-0.034 5.62,-0.049 10.15,-1.116 20.301,-1.014 30.451,-0.03 1.883,0.036 3.764,0.071 5.645,0.106"
         style="fill:#cd1419;fill-opacity:1;fill-rule:evenodd;stroke:none"
         id="path1772"
         inkscape:connector-curvature="0" />
      <path
         d="m 2223.377,946.7324 c -1.881,-0.035 -3.762,-0.07 -5.645,-0.106 0.224,4.245 -0.052,8.385 -1.91,12.338 -5.148,10.969 -17.061,12.541 -24.58,3.139 -3.613,-4.521 -4.22,-9.892 -3.961,-15.447 -1.873,0.015 -3.748,0.033 -5.62,0.049 -0.399,6.025 0.696,11.744 3.894,16.898 4.096,6.605 9.996,10.552 17.911,10.16 8.17,-0.404 13.681,-5.176 17.229,-12.291 2.306,-4.623 3.028,-9.6 2.682,-14.74"
         style="fill:#5f5e5f;fill-opacity:1;fill-rule:evenodd;stroke:none"
         id="path1776"
         inkscape:connector-curvature="0" />
      <path
         d="m 2183.1602,940.9883 c 1.995,-0.082 4.06,0.488 5.943,-0.634 2.07,-4.358 5.09,-7.837 9.83,-9.199 7.017,-2.017 13.221,1.453 17.077,9.22 1.918,1.054 3.992,0.548 6.011,0.595 -2.511,-7.88 -7.35,-13.627 -15.65,-15.375 -10.44,-2.197 -20.427,4.643 -23.211,15.393"
         style="fill:#5f5e5f;fill-opacity:1;fill-rule:evenodd;stroke:none"
         id="path1780"
         inkscape:connector-curvature="0" />
      <path
         d="m 2171.9492,873.7695 c 0,4.026 0.018,8.051 -0.01,12.076 -0.012,2.008 0.601,3.604 2.889,3.509 2.073,-0.087 2.605,-1.583 2.594,-3.489 -0.045,-8.049 -0.03,-16.1 -0.012,-24.151 0,-1.925 -0.306,-3.644 -2.702,-3.662 -2.405,-0.019 -2.771,1.787 -2.793,3.643 -0.049,4.024 -0.015,8.05 -0.015,12.074 z"
         style="fill:#5f5e5f;fill-opacity:1;fill-rule:evenodd;stroke:none"
         id="path1784"
         inkscape:connector-curvature="0" />
      <path
         d="m 2233.1494,873.7549 c 0,-4.021 -0.021,-8.042 0.01,-12.062 0.012,-1.962 -0.467,-3.658 -2.776,-3.631 -2.312,0.026 -2.734,1.819 -2.736,3.712 -0.01,8.042 0.01,16.083 0.01,24.125 0,1.843 0.52,3.443 2.631,3.464 2.209,0.024 2.908,-1.503 2.887,-3.546 -0.047,-4.02 -0.015,-8.041 -0.017,-12.062"
         style="fill:#5f5e5f;fill-opacity:1;fill-rule:evenodd;stroke:none"
         id="path1788"
         inkscape:connector-curvature="0" />
      <path
         d="m 2187.2813,946.6562 c -0.26,5.555 0.348,10.926 3.961,15.447 7.518,9.403 19.432,7.83 24.58,-3.138 1.857,-3.954 2.134,-8.094 1.91,-12.339 -10.15,-0.984 -20.302,-1.086 -30.451,0.03"
         style="fill:#ffffff;fill-opacity:1;fill-rule:evenodd;stroke:none"
         id="path1792"
         inkscape:connector-curvature="0" />
      <path
         d="m 2216.0098,940.375 c -3.855,-7.767 -10.06,-11.236 -17.076,-9.22 -4.74,1.363 -7.761,4.841 -9.83,9.199 8.969,0.007 17.936,0.013 26.906,0.021"
         style="fill:#ffffff;fill-opacity:1;fill-rule:evenodd;stroke:none"
         id="path1796"
         inkscape:connector-curvature="0" />
      <path
         d="m 2077.9063,880.5303 c 2.699,-2.192 5.322,-4.485 8.119,-6.544 1.983,-1.457 4.192,-2.548 6.777,-1.23 2.598,1.326 2.919,3.73 2.924,6.22 0.014,6.73 -0.05,13.458 -0.072,20.188 -0.01,2.293 -0.016,4.823 -3.128,4.76 -2.839,-0.058 -2.911,-2.43 -2.904,-4.623 0.02,-6.447 0.01,-12.893 0.01,-20.32 -3.097,2.816 -5.509,5.044 -7.963,7.224 -0.856,0.759 -1.341,1.715 -1.196,2.763 0.834,5.971 -2.3,10.376 -5.521,14.852 -1.715,2.385 -3.48,3.27 -6.09,1.592 -3.002,0.68 -5.937,2.571 -9.094,0.511 -0.7,0.596 -1.416,1.174 -2.097,1.791 -4.01,3.619 -8.799,3.02 -11.674,-1.496 -1.111,-1.742 -2.164,-3.524 -3.215,-5.304 -3.324,-5.639 -3.058,-7.621 1.596,-12.381 0.803,-0.822 1.547,-1.705 2.318,-2.559 0.215,-8.331 9.557,-14.523 16.734,-13.855 0.618,0.057 1.101,0.293 1.338,0.902 3.695,-2.082 6.294,-5.42 9.384,-8.191 5.864,-5.26 10.947,-11.366 17.206,-16.19 6.559,-5.054 14.383,-3.541 18.072,3.382 1.09,2.046 1.935,4.226 2.034,6.599 0.691,16.586 0.855,33.203 0.046,49.759 -0.742,15.124 -11.775,24.546 -26.97,24.549 -4.99,10e-4 -9.982,0.002 -14.973,-0.002 -9.98,-0.003 -19.964,0.12 -29.943,-0.05 -13.141,-0.227 -24.654,-10.665 -24.976,-23.375 -0.423,-16.701 -0.247,-33.422 0,-50.131 0.08,-5.461 2.518,-10.221 7.757,-12.678 5.337,-2.504 9.915,-0.262 14.077,3.116 1.256,1.021 2.393,2.194 3.546,3.333 4.538,4.483 9.007,9.036 13.619,13.44 1.843,1.76 3.483,3.791 1.575,5.926 -2.205,2.468 -4.387,0.595 -6.184,-1.247 -4.372,-4.481 -8.74,-8.964 -13.112,-13.445 -1.787,-1.83 -3.645,-3.573 -5.876,-4.865 -3.242,-1.879 -5.161,-1.426 -7.437,1.598 -1.799,2.384 -1.996,5.127 -1.996,7.933 0,14.623 -0.027,29.248 0.019,43.87 0.038,11.789 8.563,20.447 20.362,20.527 14.621,0.1 29.246,0.048 43.869,-0.01 2.644,-0.01 5.344,-0.117 7.818,-1.23 8.891,-3.999 13.08,-10.928 13.018,-20.653 -0.09,-13.926 -0.01,-27.853 -0.037,-41.781 0,-1.379 -0.149,-2.778 -0.402,-4.136 -1.424,-7.672 -5.774,-9.472 -11.585,-4.288 -7.345,6.551 -14.351,13.496 -21.003,20.773 2.791,0.558 4.107,2.666 5.232,4.976"
         style="fill:#ffffff;fill-opacity:1;fill-rule:evenodd;stroke:none"
         id="path1804"
         inkscape:connector-curvature="0" />
      <path
         d="m 2084.834,960.335 c 0.234,1.421 -0.322,3.472 -0.728,5.495 -1.863,9.259 -8.871,16.143 -17.584,17.426 -7.563,1.113 -15.316,-3.146 -19.473,-10.695 -5.266,-9.565 -4.122,-21.551 2.859,-29.969 6.619,-7.981 18.03,-9.08 26.098,-2.534 6.23,5.054 8.613,11.801 8.828,20.277"
         style="fill:#ffffff;fill-opacity:1;fill-rule:evenodd;stroke:none"
         id="path1808"
         inkscape:connector-curvature="0" />
      <path
         d="m 2036.8242,879.3896 v 2.192 c -0.01,6.262 -0.01,12.524 -0.028,18.785 -0.01,1.988 -0.909,3.489 -2.965,3.622 -1.841,0.12 -3.213,-1.081 -3.234,-2.918 -0.093,-8 -0.29,-16.014 0.096,-23.996 0.23,-4.776 4.732,-6.52 8.611,-3.649 1.943,1.438 3.645,3.215 5.377,4.92 1.225,1.207 2.131,2.648 0.61,4.225 -1.403,1.451 -3.063,1.584 -4.666,0.279 -1.132,-0.924 -2.168,-1.965 -3.801,-3.46"
         style="fill:#ffffff;fill-opacity:1;fill-rule:evenodd;stroke:none"
         id="path1812"
         inkscape:connector-curvature="0" />
      <path
         d="m 2072.6738,875.5547 c 6.652,-7.277 13.658,-14.223 21.003,-20.773 5.811,-5.184 10.161,-3.384 11.586,4.288 0.253,1.358 0.399,2.756 0.401,4.135 0.029,13.928 -0.052,27.856 0.037,41.782 0.063,9.724 -4.127,16.654 -13.017,20.653 -2.475,1.112 -5.175,1.22 -7.819,1.229 -14.623,0.059 -29.248,0.111 -43.869,0.01 -11.799,-0.08 -20.324,-8.737 -20.362,-20.526 -0.046,-14.622 -0.023,-29.247 -0.019,-43.87 0,-2.806 0.198,-5.549 1.996,-7.934 2.277,-3.023 4.196,-3.476 7.437,-1.598 2.231,1.292 4.09,3.036 5.876,4.866 4.372,4.48 8.74,8.964 13.112,13.445 1.797,1.842 3.98,3.715 6.185,1.246 1.907,-2.135 0.267,-4.166 -1.575,-5.926 -4.613,-4.403 -9.081,-8.957 -13.619,-13.439 -1.154,-1.14 -2.291,-2.313 -3.546,-3.333 -4.162,-3.378 -8.741,-5.62 -14.078,-3.116 -5.239,2.457 -7.676,7.216 -7.756,12.677 -0.248,16.709 -0.424,33.431 -10e-4,50.131 0.321,12.71 11.835,23.149 24.975,23.375 9.98,0.17 19.963,0.047 29.944,0.051 4.991,0.004 9.982,0.003 14.972,0.002 15.196,-0.004 26.229,-9.426 26.97,-24.55 0.81,-16.555 0.646,-33.173 -0.046,-49.759 -0.099,-2.373 -0.943,-4.552 -2.033,-6.598 -3.69,-6.923 -11.514,-8.437 -18.072,-3.382 -6.259,4.823 -11.342,10.93 -17.206,16.189 -3.09,2.772 -5.69,6.11 -9.38,8.182 -4.233,1.004 -8.104,2.446 -11.028,6.09 -2.031,2.533 -4.165,5.135 -7.048,6.873 -0.772,0.853 -1.515,1.736 -2.319,2.559 -4.653,4.759 -4.92,6.742 -1.596,12.38 1.051,1.781 2.104,3.563 3.215,5.305 2.875,4.516 7.664,5.114 11.674,1.495 0.682,-0.616 1.398,-1.194 2.098,-1.79 2.234,-2.299 4.435,-4.634 6.717,-6.886 1.408,-1.39 1.519,-2.89 0.363,-4.328 -1.234,-1.536 -2.735,-1.515 -4.215,-0.155 -1.779,1.636 -3.648,3.177 -5.383,4.857 -5.211,5.049 -5.375,4.975 -8.933,-1.574 -1.152,-2.117 -0.942,-3.474 0.8,-5.114 2.766,-2.606 5.096,-5.696 7.965,-8.168 1.807,-1.556 2.906,-4.529 5.427,-4.561 4.17,-0.051 7.182,-2.049 10.167,-4.44"
         style="fill:#5f5e5f;fill-opacity:1;fill-rule:evenodd;stroke:none"
         id="path1816"
         inkscape:connector-curvature="0" />
      <path
         d="m 2049.9863,958.6943 c -0.14,-1.397 0.437,-3.772 1.193,-6.089 3.481,-10.662 14.45,-13.957 22.152,-6.687 7.411,6.994 6.991,21.586 -0.812,28.107 -5.586,4.669 -12.304,4.287 -17.385,-0.961 -3.59,-3.71 -4.982,-8.246 -5.148,-14.37 m 34.848,1.641 c -0.215,-8.476 -2.598,-15.223 -8.828,-20.278 -8.069,-6.546 -19.479,-5.446 -26.098,2.534 -6.982,8.418 -8.125,20.405 -2.86,29.969 4.158,7.55 11.911,11.809 19.473,10.696 8.714,-1.284 15.722,-8.167 17.585,-17.426 0.405,-2.024 0.962,-4.074 0.728,-5.495"
         style="fill:#5f5e5f;fill-opacity:1;fill-rule:evenodd;stroke:none"
         id="path1820"
         inkscape:connector-curvature="0" />
      <path
         d="m 2072.6738,875.5547 c -2.985,2.391 -5.997,4.389 -10.167,4.44 -2.521,0.032 -3.62,3.005 -5.427,4.561 -2.869,2.472 -5.199,5.562 -7.965,8.168 -1.742,1.64 -1.952,2.997 -0.8,5.114 3.558,6.549 3.722,6.623 8.933,1.574 1.735,-1.68 3.604,-3.221 5.383,-4.857 1.48,-1.36 2.981,-1.381 4.215,0.155 1.156,1.438 1.045,2.938 -0.363,4.328 -2.282,2.252 -4.483,4.587 -6.717,6.886 3.156,2.06 6.092,0.168 9.094,-0.512 -1.098,-2.804 0.501,-4.863 1.957,-6.941 1.715,-2.449 3.923,-4.697 3.544,-8.035 -0.444,-3.906 0.322,-7.334 3.545,-9.905 -1.125,-2.31 -2.441,-4.418 -5.232,-4.976"
         style="fill:#cd1419;fill-opacity:1;fill-rule:evenodd;stroke:none"
         id="path1824"
         inkscape:connector-curvature="0" />
      <path
         d="m 2077.9063,880.5303 c -3.224,2.571 -3.989,5.999 -3.545,9.905 0.379,3.338 -1.829,5.586 -3.545,8.035 -1.456,2.079 -3.055,4.137 -1.957,6.942 2.61,1.678 4.375,0.793 6.09,-1.592 3.221,-4.476 6.355,-8.881 5.521,-14.852 -0.145,-1.048 0.34,-2.004 1.196,-2.763 2.454,-2.18 4.866,-4.408 7.963,-7.224 0,7.427 0.013,13.873 -0.01,20.32 -0.01,2.193 0.065,4.565 2.904,4.623 3.112,0.063 3.12,-2.467 3.128,-4.76 0.022,-6.73 0.086,-13.458 0.072,-20.188 0,-2.49 -0.326,-4.894 -2.924,-6.22 -2.585,-1.318 -4.794,-0.227 -6.777,1.23 -2.797,2.059 -5.42,4.352 -8.119,6.544"
         style="fill:#5f5e5f;fill-opacity:1;fill-rule:evenodd;stroke:none"
         id="path1828"
         inkscape:connector-curvature="0" />
      <path
         d="m 2036.8242,879.3896 c 1.633,1.495 2.669,2.536 3.801,3.46 1.603,1.305 3.263,1.172 4.666,-0.279 1.521,-1.577 0.615,-3.018 -0.61,-4.225 -1.732,-1.705 -3.434,-3.482 -5.377,-4.92 -3.879,-2.871 -8.381,-1.127 -8.611,3.649 -0.386,7.982 -0.189,15.996 -0.096,23.996 0.021,1.837 1.393,3.038 3.234,2.918 2.056,-0.133 2.957,-1.634 2.965,-3.622 0.023,-6.261 0.02,-12.523 0.028,-18.785 z"
         style="fill:#5f5e5f;fill-opacity:1;fill-rule:evenodd;stroke:none"
         id="path1832"
         inkscape:connector-curvature="0" />
      <path
         d="m 2046.6934,885.9746 c 2.884,-1.738 5.018,-4.34 7.049,-6.873 2.924,-3.644 6.795,-5.086 11.027,-6.09 -0.241,-0.6 -0.724,-0.836 -1.342,-0.892 -7.177,-0.668 -16.519,5.524 -16.734,13.855"
         style="fill:#cd1419;fill-opacity:1;fill-rule:evenodd;stroke:none"
         id="path1836"
         inkscape:connector-curvature="0" />
      <path
         d="m 2049.9863,958.6943 c 0.166,6.124 1.558,10.66 5.148,14.37 5.081,5.248 11.799,5.63 17.385,0.961 7.803,-6.521 8.223,-21.113 0.812,-28.107 -7.702,-7.27 -18.671,-3.975 -22.152,6.687 -0.756,2.317 -1.333,4.692 -1.193,6.089"
         style="fill:#ffffff;fill-opacity:1;fill-rule:evenodd;stroke:none"
         id="path1840"
         inkscape:connector-curvature="0" />
      <path
         d="m 1930.584,961.1211 c -1.893,0.582 -2.26,3.012 -4.232,3.495 -0.372,1.618 0.901,2.413 1.732,3.417 1.901,2.297 3.822,4.576 5.741,6.869 -1.141,0.824 -2.456,-0.022 -3.444,1.18 1.237,1.831 2.53,3.637 3.71,5.514 1.701,2.707 -0.874,3.595 -2.304,4.671 -1.794,1.351 -1.916,-0.822 -2.42,-1.661 -2.252,-3.743 -4.253,-7.639 -6.594,-11.323 -1.361,-2.142 -0.691,-2.793 1.452,-2.978 0.242,-0.218 0.482,-0.437 0.723,-0.655 -0.161,-1.054 -0.086,-2.262 -1.589,-2.443 -6.545,3.982 -13.082,3.477 -19.613,-0.034 -0.752,1.026 -1.543,2.034 -1.793,3.282 1.267,0.654 2.627,-0.33 3.801,0.91 -2.469,4.473 -4.896,8.983 -7.457,13.413 -0.488,0.843 -0.926,2.95 -2.518,1.468 -1.205,-1.123 -4.082,-1.754 -2.254,-4.588 1.289,-1.998 2.973,-3.784 3.768,-6.025 -1.053,-0.67 -2.193,0.156 -3.168,-0.891 2.432,-3.134 4.873,-6.282 7.314,-9.429 -1.853,-2.008 -4.184,-3.606 -5.353,-6.205 -0.787,-0.425 -1.609,-1.079 -2.019,0.413 -0.615,2.239 1.949,1.549 2.499,3.049 -4.402,2.934 -8.851,6.132 -13.542,8.926 -2.481,1.479 -2.413,-1.709 -3.534,-2.693 -1.211,-1.064 -0.49,-1.934 0.719,-2.547 1.979,-1.005 3.934,-2.056 5.859,-3.066 -0.677,-1.478 -2.507,-0.858 -3.05,-2.336 3.916,-1.7 7.802,-3.388 11.688,-5.077 -0.87,-2.85 -1.693,-5.711 -1.84,-8.714 -1.708,-0.79 -3.386,-0.387 -5.106,-0.088 0.107,1.712 2.205,1.73 2.311,3.722 -5.979,0 -11.885,-0.063 -17.791,0.029 -2.76,0.042 -2.194,-1.992 -2.399,-3.498 -0.32,-2.343 1.33,-1.67 2.627,-1.648 2.01,0.033 4.067,0.542 6.031,-0.193 -0.208,-1.343 -1.82,-1.518 -1.738,-2.828 5.384,0.609 10.696,1.208 16.01,1.808 0.263,-3.027 0.94,-5.97 2.003,-8.806 4.78,-12.745 17.875,-17.94 28.762,-11.231 7.363,4.538 10.428,11.679 11.069,20.045 5.27,-0.569 10.541,-1.141 15.846,-1.713 0.116,1.416 -1.919,1.578 -1.33,2.875 2.182,0 4.305,-0.008 6.427,0.004 0.889,0.005 2.533,-0.729 2.251,0.844 -0.263,1.466 0.681,4.168 -2.062,4.25 -5.98,0.177 -11.969,0.054 -17.904,0.054 -0.156,-2.115 1.795,-2.216 1.836,-3.631 -1.62,-0.582 -3.291,-0.563 -4.956,-0.59 -0.249,3.001 -0.666,5.967 -1.766,8.798 3.392,2.716 7.806,3.452 11.47,5.69 -0.6,1.412 -2.47,0.727 -2.936,2.388 1.85,0.918 3.694,1.924 5.611,2.758 2.341,1.019 1.343,2.346 0.458,3.683 -0.887,1.34 -1.414,3.104 -3.725,1.395 -3.576,-2.65 -7.344,-5.057 -11.15,-7.371 -1.152,-0.7 -1.504,-1.733 -2.131,-2.688"
         style="fill:#ffffff;fill-opacity:1;fill-rule:evenodd;stroke:none"
         id="path2052"
         inkscape:connector-curvature="0" />
      <path
         d="m 1913.6279,911.9492 c 6.399,0 12.799,0.008 19.198,-0.002 13.476,-0.019 23.022,-9.563 23.087,-23.12 0.044,-9.093 0.042,-18.187 0.038,-27.28 0,-2.051 0.209,-4.033 2.824,-4.096 2.833,-0.068 3.073,2.004 3.069,4.193 -0.018,9.431 0.1,18.864 -0.033,28.291 -0.221,15.795 -12.226,27.769 -28.094,27.936 -13.583,0.142 -27.17,0.131 -40.752,-0.01 -13.528,-0.138 -25.952,-11.013 -27.023,-24.004 -0.913,-11.077 -0.222,-22.216 -0.28,-33.326 -0.011,-1.838 0.87,-3.014 2.799,-3.09 1.93,-0.078 2.85,1.118 3.107,2.852 0.147,0.992 0.077,2.016 0.077,3.027 0,8.869 -0.079,17.739 0.024,26.607 0.142,12.282 9.839,21.907 22.088,22.012 6.624,0.056 13.247,0.01 19.871,0.01"
         style="fill:#ffffff;fill-opacity:1;fill-rule:evenodd;stroke:none"
         id="path2056"
         inkscape:connector-curvature="0" />
      <path
         d="m 1883.3613,872.0303 h -0.109 c 0,-3.698 0.04,-7.397 -0.016,-11.095 -0.033,-2.203 0.957,-3.476 3.141,-3.459 2.081,0.017 2.931,1.481 2.939,3.367 0.028,7.397 0,14.793 -0.027,22.19 -0.01,1.963 -0.942,3.307 -2.981,3.316 -2.263,0.012 -3.025,-1.408 -2.97,-3.565 0.087,-3.583 0.023,-7.169 0.023,-10.754"
         style="fill:#ffffff;fill-opacity:1;fill-rule:evenodd;stroke:none"
         id="path2060"
         inkscape:connector-curvature="0" />
      <path
         d="m 1944.1113,871.918 c 0,3.694 0.039,7.39 -0.016,11.084 -0.027,1.84 -0.66,3.359 -2.857,3.374 -2.15,0.015 -3.002,-1.433 -3.018,-3.28 -0.062,-7.494 -0.05,-14.99 0.01,-22.485 0.016,-1.921 1.002,-3.22 3.101,-3.172 2.174,0.049 2.803,1.461 2.792,3.393 -0.022,3.695 -0.01,7.391 -0.012,11.086"
         style="fill:#ffffff;fill-opacity:1;fill-rule:evenodd;stroke:none"
         id="path2064"
         inkscape:connector-curvature="0" />
      <path
         d="m 1913.6279,911.9492 c -6.624,0 -13.247,0.046 -19.871,-0.01 -12.249,-0.105 -21.946,-9.73 -22.088,-22.012 -0.103,-8.868 -0.019,-17.738 -0.024,-26.607 0,-1.011 0.07,-2.035 -0.077,-3.027 -0.257,-1.734 -1.177,-2.93 -3.107,-2.852 -1.929,0.076 -2.81,1.252 -2.799,3.09 0.058,11.11 -0.633,22.249 0.28,33.326 1.071,12.991 13.495,23.866 27.023,24.004 13.582,0.141 27.169,0.152 40.752,0.01 15.868,-0.167 27.873,-12.141 28.094,-27.936 0.133,-9.427 0.015,-18.86 0.033,-28.291 0,-2.189 -0.236,-4.261 -3.069,-4.193 -2.615,0.063 -2.824,2.045 -2.824,4.096 0,9.093 0.01,18.187 -0.038,27.28 -0.065,13.557 -9.611,23.101 -23.087,23.12 -6.399,0.01 -12.799,0.002 -19.198,0.002"
         style="fill:#5f5e5f;fill-opacity:1;fill-rule:evenodd;stroke:none"
         id="path2068"
         inkscape:connector-curvature="0" />
      <path
         d="m 1903.7461,967.1729 c 6.531,3.512 13.068,4.017 19.61,0.035 0.349,-2.282 -1.509,-3.686 -2.21,-5.552 -6.743,3.7 -12.363,3.011 -17.199,-2.303 -1.235,-1.359 -3.236,-2.892 -2.785,-4.702 0.554,-2.223 -1.842,-2.34 -1.914,-4.252 -0.193,-5.03 -0.447,-9.944 1.949,-14.577 3.811,-7.363 11.361,-10.245 18.273,-6.941 3.161,1.509 5.657,3.96 6.777,7.146 1.095,3.118 4.294,6.244 1.182,9.94 2.987,2.53 -0.314,4.837 -0.259,7.264 1.535,1.833 3.644,2.025 5.817,2.035 1.1,-2.83 1.517,-5.797 1.766,-8.798 -0.911,-0.091 -1.823,-0.181 -3.12,-0.31 1.32,-0.596 2.596,-0.517 3.011,-1.783 -0.64,-8.366 -3.705,-15.507 -11.068,-20.045 -10.887,-6.709 -23.982,-1.513 -28.762,11.232 -1.063,2.836 -1.74,5.778 -2.004,8.805 1.627,0.397 3.334,0.592 4.862,1.675 -1.764,0.375 -3.285,0.698 -4.806,1.022 0.147,3.003 0.97,5.863 1.84,8.714 1.286,0.476 2.443,-0.936 4.104,-0.149 -1.46,0.884 -2.871,1.668 -2.724,3.48 1.169,2.598 3.5,4.196 5.351,6.204 1.657,0.148 1.622,-2.356 3.336,-2.182 0.467,1.594 -1.347,2.545 -1.027,4.042"
         style="fill:#5f5e5f;fill-opacity:1;fill-rule:evenodd;stroke:none"
         id="path2072"
         inkscape:connector-curvature="0" />
      <path
         d="m 1883.3613,872.0303 c 0,3.585 0.064,7.171 -0.023,10.754 -0.055,2.157 0.707,3.577 2.97,3.565 2.039,-0.009 2.973,-1.353 2.981,-3.316 0.027,-7.397 0.055,-14.793 0.027,-22.19 -0.01,-1.886 -0.858,-3.35 -2.939,-3.367 -2.184,-0.017 -3.174,1.256 -3.141,3.459 0.056,3.698 0.016,7.397 0.016,11.095 z"
         style="fill:#5f5e5f;fill-opacity:1;fill-rule:evenodd;stroke:none"
         id="path2076"
         inkscape:connector-curvature="0" />
      <path
         d="m 1944.1143,871.918 c 0,-3.695 -0.013,-7.391 0.01,-11.086 0.012,-1.932 -0.618,-3.344 -2.792,-3.393 -2.099,-0.048 -3.085,1.251 -3.101,3.172 -0.06,7.495 -0.072,14.991 -0.01,22.485 0.016,1.847 0.868,3.295 3.018,3.28 2.197,-0.015 2.83,-1.534 2.857,-3.374 0.055,-3.694 0.016,-7.39 0.019,-11.084"
         style="fill:#5f5e5f;fill-opacity:1;fill-rule:evenodd;stroke:none"
         id="path2080"
         inkscape:connector-curvature="0" />
      <path
         d="m 1921.1475,961.6553 c 0.699,1.866 2.558,3.271 2.209,5.553 1.506,0.179 1.431,1.387 1.588,2.442 0.104,0.244 0.369,0.615 0.293,0.709 -0.306,0.379 -0.685,0.227 -1.013,-0.055 -2.142,0.186 -2.812,0.836 -1.451,2.979 2.341,3.684 4.342,7.58 6.594,11.323 0.504,0.839 0.626,3.012 2.42,1.661 1.429,-1.076 4.005,-1.965 2.303,-4.672 -1.179,-1.877 -2.472,-3.682 -3.71,-5.513 0.989,-1.202 2.303,-0.356 3.445,-1.18 -1.919,-2.293 -3.84,-4.572 -5.741,-6.869 -0.832,-1.004 -2.104,-1.799 -1.731,-3.417 -2.191,-0.452 -3.068,-2.216 -3.957,-3.968 -0.389,-0.064 -0.775,-0.129 -1.162,-0.193 l -0.227,0.228 c 0.046,0.325 0.093,0.648 0.14,0.972"
         style="fill:#cd1419;fill-opacity:1;fill-rule:evenodd;stroke:none"
         id="path2084"
         inkscape:connector-curvature="0" />
      <path
         d="m 1932.9873,955.2656 c -2.173,-0.01 -4.282,-0.202 -5.817,-2.037 -0.508,0.055 -1.016,0.109 -1.526,0.166 0.318,0.546 0.633,1.09 0.951,1.637 1.856,0.808 4.272,0.861 4.76,3.519 1.354,-0.204 2.315,0.459 3.024,1.493 0.298,0.436 -0.056,0.919 -0.509,0.956 -1.103,0.088 -2.16,1.252 -3.32,0.18 l 0.034,-0.059 c 0.627,0.956 0.978,1.989 2.131,2.689 3.806,2.313 7.574,4.721 11.15,7.37 2.31,1.709 2.838,-0.055 3.725,-1.394 0.884,-1.337 1.882,-2.665 -0.458,-3.683 -1.917,-0.834 -3.761,-1.841 -5.612,-2.759 0.467,-1.66 2.337,-0.975 2.937,-2.388 -3.664,-2.238 -8.078,-2.973 -11.47,-5.69"
         style="fill:#cd1419;fill-opacity:1;fill-rule:evenodd;stroke:none"
         id="path2088"
         inkscape:connector-curvature="0" />
      <path
         d="m 1892.8662,947.0635 c 1.521,-0.323 3.042,-0.646 4.806,-1.021 -1.528,-1.083 -3.235,-1.279 -4.862,-1.675 -5.313,-0.6 -10.626,-1.2 -16.009,-1.809 -0.082,1.311 1.53,1.485 1.738,2.828 -1.964,0.736 -4.022,0.227 -6.031,0.194 -1.297,-0.022 -2.948,-0.696 -2.627,1.648 0.205,1.506 -0.362,3.54 2.399,3.498 5.905,-0.093 11.812,-0.029 17.791,-0.029 -0.106,-1.992 -2.204,-2.01 -2.311,-3.723 1.72,-0.299 3.398,-0.701 5.106,0.089"
         style="fill:#cd1419;fill-opacity:1;fill-rule:evenodd;stroke:none"
         id="path2092"
         inkscape:connector-curvature="0" />
      <path
         d="m 1896.0859,959.1084 c -0.146,-1.812 1.264,-2.596 2.725,-3.479 -1.662,-0.788 -2.819,0.625 -4.105,0.149 -3.886,1.687 -7.772,3.376 -11.688,5.076 0.543,1.478 2.373,0.858 3.05,2.336 -1.925,1.01 -3.88,2.061 -5.859,3.065 -1.209,0.614 -1.93,1.484 -0.719,2.547 1.121,0.985 1.053,4.173 3.534,2.694 4.691,-2.794 9.14,-5.992 13.542,-8.926 -0.55,-1.5 -3.114,-0.811 -2.499,-3.049 0.41,-1.492 1.232,-0.838 2.019,-0.413"
         style="fill:#cd1419;fill-opacity:1;fill-rule:evenodd;stroke:none"
         id="path2096"
         inkscape:connector-curvature="0" />
      <path
         d="m 1903.7461,967.1729 c -0.32,-1.497 1.494,-2.448 1.027,-4.042 -1.714,-0.174 -1.679,2.33 -3.336,2.182 -2.439,3.147 -4.88,6.296 -7.312,9.429 0.975,1.047 2.115,0.221 3.168,0.891 -0.795,2.241 -2.479,4.027 -3.768,6.025 -1.828,2.834 1.049,3.465 2.254,4.588 1.592,1.483 2.03,-0.625 2.518,-1.468 2.561,-4.43 4.988,-8.94 7.457,-13.413 -1.174,-1.24 -2.534,-0.255 -3.801,-0.91 0.25,-1.248 1.041,-2.256 1.793,-3.282"
         style="fill:#cd1419;fill-opacity:1;fill-rule:evenodd;stroke:none"
         id="path2100"
         inkscape:connector-curvature="0" />
      <path
         d="m 1934.6445,944.375 c -0.415,1.266 -1.691,1.187 -3.012,1.783 1.297,0.129 2.209,0.219 3.12,0.31 1.665,0.027 3.336,0.009 4.956,0.59 -0.041,1.415 -1.992,1.516 -1.835,3.631 5.934,0 11.923,0.123 17.904,-0.054 2.742,-0.082 1.799,-2.783 2.061,-4.25 0.283,-1.573 -1.362,-0.839 -2.251,-0.844 -2.122,-0.012 -4.245,-0.004 -6.426,-0.004 -0.589,-1.297 1.446,-1.459 1.33,-2.875 -5.306,0.572 -10.576,1.144 -15.847,1.713"
         style="fill:#cd1419;fill-opacity:1;fill-rule:evenodd;stroke:none"
         id="path2104"
         inkscape:connector-curvature="0" />
      <path
         d="m 1931.3555,958.5508 c -0.488,-2.658 -2.904,-2.711 -4.761,-3.519 -1.148,2.061 -2.45,4.005 -4.198,5.617 0.889,1.752 1.766,3.515 3.957,3.967 1.971,-0.483 2.338,-2.913 4.231,-3.495 0,0 -0.034,0.059 -0.034,0.061 -0.471,-1.104 0.717,-1.699 0.805,-2.631"
         style="fill:#5f5e5f;fill-opacity:1;fill-rule:evenodd;stroke:none"
         id="path2108"
         inkscape:connector-curvature="0" />
      <path
         d="m 1922.3965,960.6484 c 1.748,-1.611 3.05,-3.556 4.198,-5.616 -0.317,-0.548 -0.633,-1.092 -0.95,-1.638 0.51,-0.057 1.018,-0.111 1.525,-0.166 -0.054,-2.425 3.247,-4.731 0.259,-7.262 3.113,-3.696 -0.087,-6.822 -1.181,-9.939 -1.121,-3.187 -3.617,-5.638 -6.778,-7.147 -6.912,-3.303 -14.462,-0.421 -18.272,6.942 -2.397,4.633 -2.143,9.547 -1.949,14.576 0.072,1.912 2.467,2.029 1.914,4.252 -0.452,1.811 1.549,3.344 2.785,4.702 4.836,5.315 10.456,6.003 17.199,2.304 -0.046,-0.325 -0.093,-0.649 -0.139,-0.974 -0.329,-0.163 -0.5,-0.36 -0.144,-0.672 0.123,0.149 0.246,0.296 0.371,0.445 0.387,0.064 0.773,0.129 1.162,0.193"
         style="fill:#ffffff;fill-opacity:1;fill-rule:evenodd;stroke:none"
         id="path2112"
         inkscape:connector-curvature="0" />
      <path
         d="m 1924.2246,970.3047 c 0.328,0.281 0.707,0.434 1.013,0.055 0.076,-0.094 -0.189,-0.465 -0.293,-0.709 -0.238,0.217 -0.478,0.436 -0.72,0.654"
         style="fill:#ffffff;fill-opacity:1;fill-rule:evenodd;stroke:none"
         id="path2116"
         inkscape:connector-curvature="0" />
      <path
         d="m 1931.3555,958.5508 c -0.088,0.932 -1.276,1.527 -0.805,2.631 1.159,1.07 2.217,-0.094 3.32,-0.182 0.453,-0.037 0.807,-0.52 0.508,-0.956 -0.709,-1.034 -1.669,-1.697 -3.023,-1.493"
         style="fill:#ffffff;fill-opacity:1;fill-rule:evenodd;stroke:none"
         id="path2120"
         inkscape:connector-curvature="0" />
      <path
         d="m 1921.2344,960.4551 c -0.125,-0.148 -0.248,-0.296 -0.371,-0.444 -0.356,0.311 -0.185,0.508 0.144,0.672 z"
         style="fill:#cd1419;fill-opacity:1;fill-rule:evenodd;stroke:none"
         id="path2124"
         inkscape:connector-curvature="0" />
    </g>
  </g>
</svg>
