<?xml version="1.0" encoding="UTF-8" standalone="no"?>
<!-- Created with Inkscape (http://www.inkscape.org/) -->

<svg
   xmlns:dc="http://purl.org/dc/elements/1.1/"
   xmlns:cc="http://creativecommons.org/ns#"
   xmlns:rdf="http://www.w3.org/1999/02/22-rdf-syntax-ns#"
   xmlns:svg="http://www.w3.org/2000/svg"
   xmlns="http://www.w3.org/2000/svg"
   xmlns:sodipodi="http://sodipodi.sourceforge.net/DTD/sodipodi-0.dtd"
   xmlns:inkscape="http://www.inkscape.org/namespaces/inkscape"
   width="82.00515mm"
   height="82.00515mm"
   viewBox="0 0 82.00515 82.00515"
   version="1.1"
   id="svg8"
   inkscape:version="0.92.5 (2060ec1f9f, 2020-04-08)"
   sodipodi:docname="perfil.svg">
  <defs
     id="defs2" />
  <sodipodi:namedview
     id="base"
     pagecolor="#ffffff"
     bordercolor="#666666"
     borderopacity="1.0"
     inkscape:pageopacity="0.0"
     inkscape:pageshadow="2"
     inkscape:zoom="0.87927632"
     inkscape:cx="194.38342"
     inkscape:cy="66.095029"
     inkscape:document-units="mm"
     inkscape:current-layer="g828"
     showgrid="false"
     fit-margin-top="0"
     fit-margin-left="0"
     fit-margin-right="0"
     fit-margin-bottom="0"
     inkscape:window-width="1440"
     inkscape:window-height="788"
     inkscape:window-x="0"
     inkscape:window-y="27"
     inkscape:window-maximized="1" />
  <metadata
     id="metadata5">
    <rdf:RDF>
      <cc:Work
         rdf:about="">
        <dc:format>image/svg+xml</dc:format>
        <dc:type
           rdf:resource="http://purl.org/dc/dcmitype/StillImage" />
        <dc:title />
      </cc:Work>
    </rdf:RDF>
  </metadata>
  <g
     inkscape:label="Capa 1"
     inkscape:groupmode="layer"
     id="layer1"
     transform="translate(-54.761391,-97.133888)">
    <g
       id="g828"
       style="fill:#ffffff">
      <path
         inkscape:connector-curvature="0"
         id="path10"
         d="m 95.763785,105.18806 c -11.292598,0 -20.493385,9.20124 -20.493385,20.49385 0,7.94581 4.555351,14.85579 11.189481,18.25384 -1.37243,0.51193 -2.712541,1.14067 -4.005165,1.88693 -8.232187,4.75287 -13.307263,13.54418 -13.307263,23.04989 a 2.1814819,2.1814819 0 0 0 2.147089,2.21203 2.1814819,2.1814819 0 0 0 2.215172,-2.21203 c 0,-7.95414 4.237886,-15.29487 11.126359,-19.27195 6.888474,-3.97706 15.365597,-3.97706 22.254087,0 6.88846,3.97708 11.1277,11.31781 11.1277,19.27195 a 2.1814819,2.1814819 0 1 0 4.36271,0 c 0,-9.50571 -5.07689,-18.29702 -13.30908,-23.04989 -1.29232,-0.74611 -2.63215,-1.37461 -4.00424,-1.88645 6.63462,-3.39792 11.19037,-10.30814 11.19037,-18.25432 0,-11.29261 -9.20124,-20.49385 -20.493835,-20.49385 z m 0,4.36272 c 8.934915,0 16.131125,7.1962 16.131125,16.13113 0,8.93492 -7.19621,16.13113 -16.131125,16.13113 -8.934914,0 -16.131124,-7.19621 -16.131124,-16.13113 0,-8.93493 7.19621,-16.13113 16.131124,-16.13113 z"
         style="color:#000000;font-style:normal;font-variant:normal;font-weight:normal;font-stretch:normal;font-size:medium;line-height:normal;font-family:sans-serif;font-variant-ligatures:normal;font-variant-position:normal;font-variant-caps:normal;font-variant-numeric:normal;font-variant-alternates:normal;font-feature-settings:normal;text-indent:0;text-align:start;text-decoration:none;text-decoration-line:none;text-decoration-style:solid;text-decoration-color:#000000;letter-spacing:normal;word-spacing:normal;text-transform:none;writing-mode:lr-tb;direction:ltr;text-orientation:mixed;dominant-baseline:auto;baseline-shift:baseline;text-anchor:start;white-space:normal;shape-padding:0;clip-rule:nonzero;display:inline;overflow:visible;visibility:visible;opacity:1;isolation:auto;mix-blend-mode:normal;color-interpolation:sRGB;color-interpolation-filters:linearRGB;solid-color:#000000;solid-opacity:1;vector-effect:none;fill-opacity:1;fill-rule:evenodd;stroke:none;stroke-width:4.36252737;stroke-linecap:round;stroke-linejoin:round;stroke-miterlimit:4;stroke-dasharray:none;stroke-dashoffset:0;stroke-opacity:1;color-rendering:auto;image-rendering:auto;shape-rendering:auto;text-rendering:auto;enable-background:accumulate" />
    </g>
  </g>
</svg>
