<?xml version="1.0" encoding="UTF-8" standalone="no"?>
<!-- Created with Inkscape (http://www.inkscape.org/) -->

<svg
   xmlns:dc="http://purl.org/dc/elements/1.1/"
   xmlns:cc="http://creativecommons.org/ns#"
   xmlns:rdf="http://www.w3.org/1999/02/22-rdf-syntax-ns#"
   xmlns:svg="http://www.w3.org/2000/svg"
   xmlns="http://www.w3.org/2000/svg"
   xmlns:sodipodi="http://sodipodi.sourceforge.net/DTD/sodipodi-0.dtd"
   xmlns:inkscape="http://www.inkscape.org/namespaces/inkscape"
   width="50.545238mm"
   height="46.210453mm"
   viewBox="0 0 50.545238 46.210453"
   version="1.1"
   id="svg2356"
   inkscape:version="0.92.5 (2060ec1f9f, 2020-04-08)"
   sodipodi:docname="plaquetas.svg">
  <defs
     id="defs2350" />
  <sodipodi:namedview
     id="base"
     pagecolor="#ffffff"
     bordercolor="#666666"
     borderopacity="1.0"
     inkscape:pageopacity="0.0"
     inkscape:pageshadow="2"
     inkscape:zoom="0.81210937"
     inkscape:cx="303.42621"
     inkscape:cy="18.101238"
     inkscape:document-units="mm"
     inkscape:current-layer="layer1"
     showgrid="false"
     fit-margin-top="0"
     fit-margin-left="0"
     fit-margin-right="0"
     fit-margin-bottom="0"
     showborder="false"
     inkscape:window-width="1440"
     inkscape:window-height="788"
     inkscape:window-x="0"
     inkscape:window-y="27"
     inkscape:window-maximized="1" />
  <metadata
     id="metadata2353">
    <rdf:RDF>
      <cc:Work
         rdf:about="">
        <dc:format>image/svg+xml</dc:format>
        <dc:type
           rdf:resource="http://purl.org/dc/dcmitype/StillImage" />
        <dc:title></dc:title>
      </cc:Work>
    </rdf:RDF>
  </metadata>
  <g
     inkscape:label="Capa 1"
     inkscape:groupmode="layer"
     id="layer1"
     transform="translate(-25.551816,-107.41217)">
    <g
       transform="matrix(0.35277777,0,0,-0.35277777,-59.088602,466.44819)"
       id="g2249">
      <path
         d="m 353.7935,955.2842 c -1.655,0.341 -2.179,-0.671 -2.799,-1.474 -0.095,-0.122 -0.035,-0.482 0.083,-0.623 0.17,-0.203 0.425,-0.078 0.605,0.092 0.628,0.591 1.251,1.186 2.111,2.005 m -2.518,-7.672 c -0.806,-1.399 -1.156,-2.5 -1.079,-3.644 0.315,-4.668 1.96,-8.886 4.813,-12.552 3.084,-3.964 6.285,-7.825 8.698,-12.268 0.912,-1.68 1.777,-3.416 3.388,-4.629 1.364,-1.027 2.685,-0.854 3.858,0.108 1.147,0.94 0.871,2.211 0.225,3.358 -2.207,3.92 -1.662,7.818 -0.041,11.759 0.984,2.392 2.323,4.584 3.546,6.845 0.214,0.395 0.682,0.982 0.199,1.426 -0.405,0.373 -0.874,-0.097 -1.278,-0.285 -0.798,-0.369 -1.563,-0.808 -2.36,-1.177 -5.459,-2.531 -10.132,-2.268 -14.31,2.354 -2.277,2.521 -4.468,5.026 -5.659,8.705 m -5,-10.165 c 0.118,-0.115 0.236,-0.229 0.353,-0.346 0.176,-0.289 0.329,-0.621 0.755,-0.543 0.062,0.012 0.16,0.185 0.137,0.244 -0.163,0.428 -0.559,0.267 -0.872,0.319 -0.116,0.117 -0.232,0.235 -0.348,0.352 -0.057,0.046 -0.114,0.093 -0.171,0.14 0.049,-0.055 0.098,-0.11 0.146,-0.166 m 23.968,0.232 c 1.622,1.104 3.242,2.209 4.867,3.309 0.922,0.623 1.838,1.26 2.929,1.565 0.739,0.206 1.57,0.47 2.124,-0.23 0.596,-0.755 -0.049,-1.364 -0.46,-2.011 -2.559,-4.027 -5.758,-7.699 -7.338,-12.281 -1.299,-3.766 -0.997,-7.41 1.407,-10.799 1.023,-1.441 2.337,-2.304 3.909,-2.914 1.104,-1.568 2.843,-0.398 4.273,-0.996 -1.598,-0.898 -3.278,-0.59 -4.862,-0.502 -5.562,0.306 -10.641,-0.801 -15.23,-4.172 -2.778,-2.043 -6.063,-2.221 -9.424,-1.613 -4.543,0.82 -8.428,3.121 -12.351,5.34 -2.268,1.282 -4.315,2.785 -5.306,5.39 -0.791,2.083 -0.816,4.219 -0.839,6.383 -0.036,3.327 -0.736,6.377 -3.538,8.599 -1.101,0.873 -2.006,1.974 -2.79,3.146 -0.576,0.863 -1.454,2.005 -0.653,2.811 0.748,0.751 1.732,-0.25 2.526,-0.806 1.923,-1.345 3.884,-2.812 6.308,-2.84 1.749,-0.019 2.79,-0.411 2.819,-2.37 0.814,0.367 1.078,0.926 0.943,1.617 -0.134,0.683 -0.383,1.347 -0.604,2.011 -0.687,2.061 -1.36,4.121 -1.123,6.346 0.057,0.539 0.144,1.103 0.653,1.36 0.615,0.31 0.986,-0.231 1.318,-0.61 1.112,-1.273 2.188,-2.577 3.277,-3.869 -0.506,0.12 -1.006,0.295 -1.52,0.347 -0.624,0.065 -1.319,-0.076 -1.084,-0.902 0.514,-1.805 1.231,-3.535 2.894,-4.633 0.549,-0.363 1.143,-0.598 1.74,-0.007 0.535,0.531 0.573,1.108 0.266,1.752 -0.276,0.578 -0.55,1.156 -0.825,1.734 1.697,-0.154 0.627,1.121 0.765,1.661 0.537,2.104 0.886,4.257 1.306,6.392 2.622,0.097 3.821,1.22 3.931,3.574 0.068,1.441 -0.224,2.745 -1.097,3.904 2.063,2.902 4.672,4.499 8.367,3.49 0.674,-1.675 -0.439,-2.111 -1.692,-2.55 -2.246,-0.788 -3.425,-2.34 -3.176,-4.288 0.336,-2.627 1.375,-4.966 3.197,-6.927 1.56,-2.944 3.937,-4.931 7.068,-6.034 1.611,-1.214 5.29,-0.888 7.025,0.623"
         style="fill:#d83230;fill-opacity:1;fill-rule:evenodd;stroke:none"
         id="path1144"
         inkscape:connector-curvature="0" />
      <path
         d="m 303.6709,906.0996 c -1.269,1.703 -1.565,3.766 -2.094,5.734 -1.719,6.407 -6.488,7.998 -11.402,3.526 -4.563,-4.153 -8.595,-8.854 -11.947,-14.045 -1.99,-3.08 -2.393,-6.563 -1.204,-10.141 0.743,-2.236 0.437,-3.691 -0.807,-4.185 -1.295,-0.515 -2.605,0.545 -3.42,2.777 -0.956,2.615 -1.105,5.389 -1.57,8.101 -1.238,7.229 -6.452,12.985 -13.032,14.342 -5.847,1.207 -12.04,-1.567 -15.037,-6.75 -0.383,-0.664 -0.697,-1.505 -1.611,-1.382 -1.014,0.137 -1.381,1.026 -1.538,1.925 -0.305,1.766 0.264,3.356 1.113,4.869 1.202,2.144 3.021,3.723 4.848,5.293 1.962,1.688 3.912,3.391 5.046,5.795 0.199,0.422 0.339,0.874 0.478,1.321 0.998,3.202 0.926,3.357 -2.024,4.766 -0.739,0.353 -1.475,0.722 -2.179,1.138 -0.529,0.312 -0.908,0.788 -0.778,1.455 0.147,0.755 0.773,0.992 1.426,1.111 0.338,0.061 0.704,0.032 1.049,-0.012 2.541,-0.32 2.538,-0.326 1.58,2.123 -1.199,3.064 -2.88,5.895 -4.288,8.858 -1.675,3.533 -2.985,7.17 -2.549,11.172 0.173,1.605 0.37,3.259 1.741,4.417 0.232,-1.249 -0.344,-2.417 -0.351,-3.651 -0.019,-3.879 1.142,-7.499 2.505,-11.043 2.591,-6.734 7.055,-11.748 13.846,-14.504 2.425,-0.983 4.948,-1.419 7.765,-1.028 -1.177,-2.589 -2.904,-4.043 -5.326,-4.607 -0.785,-0.183 -1.633,-0.081 -2.447,-0.161 -0.356,-0.034 -0.679,-0.238 -0.682,-0.669 -0.003,-0.339 0.246,-0.561 0.535,-0.609 2.852,-0.497 5.641,-1.477 8.623,-0.924 1.989,0.371 3.72,1.209 5.176,2.644 0.533,-0.845 -0.01,-1.302 -0.205,-1.816 -1.228,-3.248 -1.977,-6.527 -0.336,-9.852 1.211,-2.453 3.344,-3.025 5.683,-1.627 1.118,0.668 2.038,1.567 2.933,2.498 2.034,2.121 4.228,4.043 6.837,5.438 3.013,1.609 7.992,2.027 10.465,-1.622 2.17,-3.204 2.285,-7.066 3.178,-10.675"
         style="fill:#cb1a1b;fill-opacity:1;fill-rule:evenodd;stroke:none"
         id="path1148"
         inkscape:connector-curvature="0" />
      <path
         d="m 300.7837,920.7227 c 0.806,-1.127 1.516,-2.031 2.126,-2.998 0.625,-0.991 0.943,-2.115 1.193,-3.261 0.077,-0.355 0.399,-0.579 0.796,-0.552 0.25,0.02 0.369,0.207 0.465,0.444 0.917,2.28 -1.755,6.213 -4.58,6.367 m -32.03,3.716 c -0.126,-0.127 -0.253,-0.253 -0.379,-0.38 l 0.032,0.027 c -0.285,-0.016 -0.534,-0.098 -0.687,-0.363 -0.629,-0.107 -1.249,-0.23 -1.624,-1.012 2.966,-1.062 5.395,0.016 7.744,1.588 0.822,0.551 1.637,1.068 1.031,2.227 -0.605,1.16 -2.556,1.845 -3.58,1.301 -0.014,-0.079 -0.039,-0.155 -0.073,-0.229 l -0.007,-0.008 c -0.122,-0.238 -0.245,-0.476 -0.367,-0.713 l 0.021,0.033 c -0.413,-0.246 -0.646,-0.612 -0.726,-1.082 l 0.018,0.021 c -0.308,-0.15 -0.463,-0.378 -0.367,-0.731 l 0.022,0.023 c -0.356,0.1 -0.573,-0.076 -0.733,-0.367 l 0.026,0.019 c -0.125,-0.127 -0.25,-0.253 -0.376,-0.378 z m 7.043,-0.019 c 0.041,0.018 0.087,0.03 0.119,0.057 0.02,0.017 0.018,0.06 0.026,0.092 -0.05,-0.049 -0.099,-0.097 -0.149,-0.145 -0.039,-0.019 -0.085,-0.031 -0.115,-0.06 -0.019,-0.018 -0.017,-0.059 -0.024,-0.089 0.047,0.048 0.095,0.096 0.143,0.145 m 27.874,-18.32 c -0.892,3.609 -1.008,7.471 -3.178,10.675 -2.473,3.649 -7.452,3.231 -10.464,1.622 -2.61,-1.395 -4.804,-3.317 -6.838,-5.438 -0.894,-0.931 -1.815,-1.83 -2.933,-2.498 -2.339,-1.398 -4.472,-0.826 -5.682,1.627 -1.642,3.324 -0.893,6.604 0.335,9.852 0.195,0.513 0.738,0.971 0.206,1.816 -1.457,-1.435 -3.188,-2.273 -5.177,-2.644 -2.982,-0.553 -5.771,0.427 -8.622,0.923 -0.289,0.049 -0.538,0.271 -0.535,0.61 0.002,0.431 0.325,0.635 0.681,0.669 0.815,0.08 1.662,-0.022 2.447,0.161 2.422,0.564 4.149,2.018 5.327,4.607 -2.818,-0.391 -5.341,0.045 -7.766,1.028 -6.791,2.756 -11.255,7.77 -13.846,14.504 -1.363,3.544 -2.524,7.164 -2.505,11.043 0.007,1.234 0.583,2.402 0.351,3.651 1.249,3.04 4.001,4.487 7.695,4.044 0.026,-0.426 0.053,-0.851 0.079,-1.275 -0.583,-0.979 -1.738,-1.29 -2.46,-2.106 -1.199,-0.912 -1.268,-2.252 -1.455,-3.594 -0.147,-1.054 0.536,-2.124 -0.12,-3.14 -0.086,0.091 -0.173,0.182 -0.26,0.273 -0.284,1.25 -0.742,2.464 -0.659,3.783 0.028,0.434 0.173,1.049 -0.456,1.172 -0.655,0.127 -0.893,-0.453 -1.098,-0.939 -0.542,-1.28 -0.453,-2.576 -0.218,-3.929 0.928,-5.378 3.117,-10.004 7.577,-13.378 4.156,-3.144 9.046,-4.526 13.922,-6.018 3.318,-1.016 6.872,-1.555 9.477,-4.267 1.66,-1.727 3.354,-3.473 5.268,-4.891 2.768,-2.049 5.795,-3.599 9.42,-2.093 2.003,0.833 2.754,2.779 1.873,4.749 -0.619,1.387 -1.277,2.766 -1.762,4.202 -1.249,3.701 -3.196,6.849 -6.477,9.121 -1.045,0.723 -1.73,1.847 -2.441,2.949 -1.095,1.699 -1.207,3.774 -2.353,5.415 0.102,0.819 -0.421,1.755 0.447,2.434 0.387,-1.136 0.717,-2.296 1.186,-3.398 0.217,-0.513 -0.022,-1.387 0.922,-1.458 0.081,-0.037 0.166,-0.059 0.254,-0.071 0.113,-0.699 0.487,-1.265 0.927,-1.796 0.281,-0.575 0.632,-1.087 1.22,-1.395 0,0 -0.01,0.01 -0.009,0.01 0.45,-0.614 1.044,-0.993 1.805,-1.096 1.183,-0.623 2.366,-0.231 3.549,0 0.717,-0.539 1.098,-0.181 1.357,0.505 l -0.029,-0.033 c 0.323,-0.018 0.631,-0.007 0.745,0.383 l -0.031,-0.035 c 0.377,-0.022 0.754,-0.041 1.132,-0.061 -0.028,-0.738 -0.643,-1.082 -1.057,-1.557 -0.34,-0.39 -0.527,-0.859 -0.245,-1.284 0.361,-0.547 0.838,-0.155 1.241,0.04 1.102,0.534 2.198,1.083 3.29,1.635 0.584,0.297 1.29,0.616 0.789,1.429 -0.404,0.655 -1.243,0.706 -1.691,0.249 -0.685,-0.697 -1.295,-0.223 -1.944,-0.186 -0.023,0.153 -0.047,0.305 -0.071,0.458 2.773,1.689 5.407,1.07 7.984,-0.479 0.686,-0.826 1.655,-1.455 1.926,-2.784 -1.007,0.262 -1.828,0.688 -2.76,0.779 -5.567,0.542 -8.911,-4.107 -7.714,-9.222 0.568,-2.421 1.536,-4.684 4.166,-5.889 2.079,-0.952 4.066,-2.213 5.79,-3.76 2.247,-2.015 2.969,-4.681 2.932,-7.608 -0.389,-1.783 -0.843,-3.569 0.268,-5.274 0.265,-1.537 0.477,-3.09 1.22,-4.497 0.51,-0.967 0.077,-1.321 -0.854,-1.186 -0.977,0.14 -1.865,0.459 -2.502,1.352 -0.417,0.585 -1.057,1.012 -1.596,1.509"
         style="fill:#d83230;fill-opacity:1;fill-rule:evenodd;stroke:none"
         id="path1152"
         inkscape:connector-curvature="0" />
      <path
         d="m 343.0786,939.543 c -1.089,1.292 -2.165,2.597 -3.277,3.869 -0.332,0.379 -0.703,0.92 -1.318,0.61 -0.509,-0.256 -0.596,-0.821 -0.654,-1.36 -0.236,-2.224 0.437,-4.285 1.124,-6.346 0.221,-0.664 0.47,-1.328 0.604,-2.011 0.135,-0.691 -0.129,-1.25 -0.943,-1.616 -0.029,1.958 -1.07,2.35 -2.819,2.37 -2.424,0.027 -4.385,1.494 -6.308,2.839 -0.794,0.556 -1.779,1.557 -2.526,0.806 -0.801,-0.806 0.076,-1.948 0.653,-2.81 0.784,-1.173 1.689,-2.274 2.79,-3.147 2.802,-2.222 3.502,-5.271 3.538,-8.599 0.023,-2.164 0.048,-4.299 0.839,-6.382 0.99,-2.606 3.038,-4.109 5.306,-5.391 3.923,-2.219 7.807,-4.519 12.35,-5.34 3.362,-0.608 6.646,-0.43 9.425,1.613 4.589,3.372 9.668,4.478 15.23,4.172 1.584,-0.088 3.264,-0.396 4.861,0.502 -1.429,0.598 -3.168,-0.572 -4.272,0.996 1.283,-0.111 2.568,-0.22 3.852,-0.339 0.651,-0.061 1.334,-0.114 1.578,-0.873 0.266,-0.831 -0.07,-1.52 -0.696,-2.028 -0.946,-0.77 -2.116,-0.976 -3.288,-1.109 -2.623,-0.299 -5.284,-0.389 -7.866,-0.889 -7.618,-1.48 -12.73,-7.479 -13.358,-15.43 -0.125,-1.578 -0.153,-3.175 -0.421,-4.729 -0.175,-1.013 -0.56,-2.194 -1.911,-2.171 -1.353,0.025 -1.926,1.09 -2.087,2.244 -0.251,1.797 -0.232,3.632 -0.51,5.423 -0.596,3.851 -2.362,7.077 -5.376,9.608 -0.704,0.592 -1.124,0.711 -1.832,-0.057 -1.599,-1.738 -3.687,-2.675 -5.984,-3.118 -0.689,-0.133 -1.462,-0.188 -1.909,0.527 -0.485,0.778 0.111,1.314 0.558,1.853 0.973,1.174 2.428,2.522 1.884,3.915 -0.418,1.068 -2.413,0.714 -3.713,0.929 -5.147,0.85 -9.509,-0.49 -12.889,-4.646 -0.607,-0.746 -1.285,-2.104 -2.491,-1.379 -1.096,0.658 -0.698,1.994 -0.425,3.082 0.536,2.136 1.683,3.984 2.806,5.842 1.942,3.211 4.159,6.254 5.882,9.598 2.444,4.743 2.133,7.374 -1.389,11.359 -1.282,1.451 -2.655,2.824 -3.922,4.288 -1.445,1.669 -2.495,3.544 -2.606,5.824 0.033,0.288 0.117,0.581 0.089,0.862 -0.085,0.832 0.183,1.432 0.976,1.782 0.793,0.349 1.339,-0.096 1.866,-0.56 0.564,-0.497 1.093,-1.033 1.638,-1.552 2.32,-2.821 5.055,-4.869 8.938,-4.689 1.319,0.062 2.364,0.228 1.796,2.142 -0.386,1.303 -0.168,2.784 -0.221,4.184 0.299,0.775 0.206,1.883 1.289,2.062 1.084,0.18 1.594,-0.779 2.193,-1.466 0.656,-0.753 0.896,-1.825 1.693,-2.479 1.388,1.293 1.643,3.213 3.097,4.278 0.502,-0.39 1,-0.79 1.698,-0.72 -0.42,-2.134 -0.77,-4.286 -1.306,-6.391 -0.138,-0.54 0.931,-1.814 -0.765,-1.661 -0.119,0.119 -0.238,0.24 -0.357,0.359 -0.021,0.288 -0.093,0.544 -0.394,0.664 -0.24,0.229 -0.48,0.457 -0.72,0.686"
         style="fill:#cb1a1b;fill-opacity:1;fill-rule:evenodd;stroke:none"
         id="path1156"
         inkscape:connector-curvature="0" />
      <path
         d="m 317.3506,966.8555 c -0.084,0.377 0.359,1.481 -0.882,1.531 -0.776,0.031 -1.318,-0.664 -1.138,-1.433 0.257,-1.09 0.3,-2.17 0.301,-3.269 0,-0.29 0.017,-0.63 0.38,-0.675 0.32,-0.039 0.516,0.228 0.641,0.493 0.446,0.95 0.822,1.919 0.698,3.353 m -3.153,-7.89 c 0.223,2.492 0.088,4.949 -1.08,7.21 -1.075,2.078 -2.631,3.547 -5.159,3.709 -0.954,0.061 -1.49,-0.143 -1.859,-1.091 -0.533,-1.366 -1.281,-2.645 -2.352,-3.684 -0.614,-0.595 -1.347,-1.054 -2.202,-0.497 -0.862,0.561 -0.445,1.331 -0.201,2.05 1.421,4.177 0.38,5.839 -3.995,6.384 -2.041,0.255 -3.954,-0.23 -5.837,-0.967 -2.016,-0.789 -3.993,-1.705 -6.163,-2.037 -1.802,-0.275 -3.522,-0.113 -5.058,0.948 -0.533,0.367 -1.026,0.855 -0.816,1.605 0.182,0.655 0.755,0.818 1.354,0.956 5.833,1.345 8.089,3.818 9.024,10.027 0.523,3.48 0.981,6.972 1.38,10.468 0.572,5.01 -1.308,8.243 -5.926,10.457 -1.187,0.571 -2.86,0.994 -2.411,2.741 0.463,1.804 2.204,1.143 3.451,1.14 1.945,-0.01 3.838,-0.443 5.651,-1.177 -0.143,-0.092 -0.302,-0.278 -0.427,-0.257 -0.681,0.106 -1.4,0.425 -1.828,-0.439 -0.43,-0.865 0.122,-1.494 0.641,-2.018 2.319,-2.341 3.337,-5.05 3.089,-8.408 -0.205,-2.783 -0.23,-5.607 0.289,-8.4 0.645,-3.471 2.17,-6.283 5.494,-7.851 1.005,-0.473 2.049,-0.866 3.044,-1.358 8.442,-4.17 17.082,-3.506 25.794,-1.079 0.812,0.226 0.987,0.593 0.362,1.36 -2.253,2.77 -2.499,5.762 -0.929,8.985 0.955,1.961 2.651,3.053 4.349,4.197 2.221,1.494 4.578,2.826 6.156,5.102 0.263,0.38 0.734,0.748 0.274,1.201 -0.384,0.379 -0.862,0.171 -1.283,-0.1 -0.782,-0.502 -1.578,-0.982 -2.367,-1.473 -0.458,-0.128 -0.916,-0.258 -1.373,-0.387 -1.377,-0.21 -2.766,-0.496 -4.149,-0.29 -1.444,0.215 -3.014,0.29 -3.851,1.832 3.828,-2.235 7.518,-1.565 11.146,0.521 0.847,0.489 1.758,1.289 2.647,0.216 0.84,-1.016 0.253,-2.001 -0.43,-2.856 -1.115,-1.397 -2.58,-2.374 -4.089,-3.291 -1.452,-0.881 -2.942,-1.713 -4.198,-2.877 -3.271,-3.035 -3.309,-7.809 -0.096,-10.911 0.211,-0.203 0.445,-0.382 0.665,-0.576 0.697,-0.614 1.651,-1.177 1.24,-2.289 -0.436,-1.179 -1.585,-1 -2.57,-1.011 -0.88,-0.01 -1.76,0.027 -2.64,0.013 -3.181,-0.053 -5.296,-1.604 -6.386,-4.579 -0.688,-1.876 -1.094,-3.825 -1.551,-5.765 -0.509,-2.164 -1.102,-4.308 -1.658,-6.46 -0.569,-0.694 -1.008,-1.711 -2.148,-1.36 -1.052,0.324 -0.893,1.353 -0.977,2.197 -0.006,0.057 -0.027,0.114 -0.041,0.169"
         style="fill:#cb1a1b;fill-opacity:1;fill-rule:evenodd;stroke:none"
         id="path1160"
         inkscape:connector-curvature="0" />
      <path
         d="m 317.8105,982.584 c 4.277,-0.046 6.465,1.107 7.307,4.102 0.767,2.731 1.836,5.154 4.321,6.755 0.384,0.247 1.021,0.625 0.741,1.225 -0.225,0.481 -0.853,0.262 -1.292,0.238 -2.315,-0.122 -4.611,0.244 -6.155,1.987 -3.333,3.764 -6.542,7.672 -7.412,12.884 -0.102,0.61 0.082,1.368 -0.738,1.629 -0.925,0.293 -1.463,-0.381 -1.897,-0.968 -1.124,-1.522 -2.458,-2.84 -3.831,-4.11 -3.135,-2.899 -6.575,-4.937 -11.062,-3.265 -1.364,0.507 -2.681,1.14 -4.017,1.724 -0.435,0.191 -0.879,0.462 -1.237,-0.084 -0.32,-0.487 -0.051,-0.875 0.271,-1.256 1.6,-1.888 2.394,-4.115 2.747,-6.533 0.408,-2.795 1.871,-4.855 4.387,-6.148 3.43,-1.766 6.888,-3.465 10.148,-5.558 2.381,-1.528 5.062,-2.409 7.719,-2.622 m 7.473,15.24 c 0.837,-1.542 2.407,-1.617 3.851,-1.832 1.384,-0.206 2.772,0.08 4.148,0.291 -0.163,-0.411 -0.326,-0.82 -0.497,-1.25 1.86,0.057 2.108,0.28 1.871,1.637 0.789,0.49 1.585,0.971 2.367,1.473 0.421,0.27 0.899,0.478 1.283,0.099 0.46,-0.453 -0.011,-0.82 -0.274,-1.201 -1.578,-2.275 -3.935,-3.607 -6.156,-5.102 -1.698,-1.143 -3.394,-2.236 -4.349,-4.197 -1.57,-3.222 -1.324,-6.215 0.929,-8.984 0.625,-0.768 0.45,-1.135 -0.362,-1.361 -8.712,-2.426 -17.352,-3.09 -25.794,1.08 -0.995,0.492 -2.039,0.884 -3.044,1.358 -3.324,1.567 -4.849,4.38 -5.494,7.851 -0.519,2.793 -0.494,5.617 -0.289,8.4 0.248,3.357 -0.77,6.066 -3.089,8.407 -0.519,0.525 -1.071,1.153 -0.641,2.019 0.428,0.863 1.147,0.545 1.828,0.438 0.125,-0.02 0.284,0.165 0.427,0.257 1.27,-0.322 2.507,-0.672 3.591,-1.498 0.787,-0.6 1.846,-0.462 2.784,-0.65 1.504,-1.096 5.076,-0.477 6.669,1.156 l -0.018,-0.011 c 0.31,0.027 0.617,0.06 0.705,0.442 0.431,0.328 0.862,0.655 1.293,0.983 0.16,0.129 0.321,0.258 0.481,0.386 l -0.048,-0.042 0.401,0.381 c 0,0 -0.034,-0.037 -0.034,-0.036 0.13,0.129 0.259,0.26 0.386,0.389 l -0.035,-0.036 c 0.129,0.132 0.257,0.263 0.387,0.393 l -0.039,-0.023 c 0.525,-0.02 0.764,0.229 0.705,0.754 l -0.02,-0.064 c 0.137,0.183 0.274,0.365 0.412,0.546 1.313,2.434 3.447,4.17 5.306,6.127 1.354,1.425 3.77,1.68 4.861,0.908 1.197,-0.851 1.128,-1.535 0.112,-2.474 -0.585,-0.539 -1.425,-0.793 -1.779,-1.582 -1.633,-1.787 -1.573,-5.586 0.117,-7.352 0,0 -0.038,0.04 -0.038,0.039 -0.091,-0.367 -0.074,-0.673 0.4,-0.73 l -0.077,0.037 c 0.105,-0.152 0.211,-0.304 0.316,-0.455 l -0.018,0.027 c -0.018,-0.631 -0.054,-1.275 0.826,-1.362 0,0 -0.02,0.04 -0.021,0.038 -0.16,-0.542 0.07,-0.795 0.609,-0.814 l -0.012,0.011 c 0.016,-0.322 0.048,-0.632 0.476,-0.656 l -0.02,0.048 c -0.169,-0.82 0.233,-1.14 0.998,-1.142 l -0.045,0.018 c 0.14,-0.129 0.279,-0.259 0.419,-0.389 l 0.29,-0.293 c 0.129,-0.14 0.259,-0.28 0.388,-0.42 0,0 -0.038,0.045 -0.038,0.044 0.133,-0.13 0.265,-0.26 0.396,-0.389 l -0.04,0.043 c 0.137,-0.129 0.273,-0.256 0.41,-0.383 l -0.04,0.049 c 0.087,-0.446 0.317,-0.718 0.811,-0.672 0,0 -0.051,0.045 -0.051,0.043 0.011,-0.456 0.327,-0.483 0.667,-0.476 l -0.037,0.025 c 0.149,-0.116 0.299,-0.231 0.448,-0.346 z"
         style="fill:#d83230;fill-opacity:1;fill-rule:evenodd;stroke:none"
         id="path1164"
         inkscape:connector-curvature="0" />
      <path
         d="m 262.04,949.0117 c 1.283,1.152 2.326,0.564 3.292,-0.469 0.593,-0.633 0.822,-1.555 1.612,-2.035 0.484,-0.236 0.968,-0.474 1.451,-0.71 0.236,-0.985 1.051,-0.66 1.583,-0.561 1.194,0.222 1.045,-0.721 1.16,-1.283 0.185,-0.909 -0.572,-0.907 -1.146,-0.831 -0.922,0.121 -1.896,0.206 -2.726,0.578 -1.549,0.697 -2.665,0.341 -3.658,-0.955 -1.154,-1.505 -2.698,-1.588 -4.442,-1.229 -2.301,0.474 -3.893,2.036 -5.652,3.362 -0.214,0.117 -0.427,0.236 -0.641,0.354 l 0.03,-0.026 c -0.019,0.234 -0.146,0.358 -0.378,0.377 l 0.024,-0.021 c -0.03,0.453 -0.206,0.76 -0.724,0.725 l 0.017,-0.018 c 0.1,0.352 -0.036,0.586 -0.364,0.723 l 0.012,-0.012 c -0.058,0.476 -0.289,0.84 -0.717,1.07 l 0.012,-0.013 c -0.201,1.113 -1.106,1.96 -1.17,3.124 0.856,-0.082 0.796,-1.334 1.71,-1.342 0.057,-0.097 0.113,-0.195 0.17,-0.291 0.108,-0.145 0.216,-0.289 0.324,-0.434 l 0.008,-0.011 c 0.033,-0.29 0.068,-0.578 0.387,-0.713 0.854,-1.074 1.767,-2.08 3.083,-2.608 0.494,-0.513 0.989,-1.024 1.483,-1.538 0.147,-0.115 0.293,-0.233 0.44,-0.35 0,0 -0.025,0.069 -0.025,0.067 0.09,-0.874 0.737,-0.828 1.359,-0.823 l -0.023,0.018 c 0.717,-0.773 1.408,-1.016 2.037,0.094 0,0 -0.071,-0.047 -0.07,-0.047 0.44,0.019 0.456,0.34 0.472,0.662 l -0.024,-0.027 c 0.682,0.238 0.789,0.794 0.752,1.407 -0.078,1.28 0.078,2.537 0.342,3.786"
         style="fill:#d83230;fill-opacity:1;fill-rule:evenodd;stroke:none"
         id="path1168"
         inkscape:connector-curvature="0" />
      <path
         d="m 305.0425,1006.2148 c -1.593,-1.633 -5.165,-2.252 -6.669,-1.156 0.9,-0.145 1.479,0.035 1.218,1.146 -0.065,0.276 -0.07,0.585 -0.022,0.865 0.153,0.875 -0.162,2.112 0.933,2.408 0.99,0.266 1.049,-1.015 1.583,-1.55 0.829,-0.828 1.272,-2.354 2.957,-1.713"
         style="fill:#cb1a1b;fill-opacity:1;fill-rule:evenodd;stroke:none"
         id="path1172"
         inkscape:connector-curvature="0" />
      <path
         d="m 357.2114,957.5469 c 0.203,-0.23 0.406,-0.461 0.61,-0.691 -3.695,1.008 -6.304,-0.588 -8.367,-3.493 -0.251,0.113 -0.502,0.225 -0.753,0.336 0.479,1.162 1.558,1.806 2.339,2.708 1.897,1.245 3.976,1.503 6.171,1.14"
         style="fill:#cb1a1b;fill-opacity:1;fill-rule:evenodd;stroke:none"
         id="path1176"
         inkscape:connector-curvature="0" />
      <path
         d="m 251.3252,949.8193 c -0.915,0.009 -0.854,1.261 -1.71,1.343 -0.135,0.357 -0.269,0.716 -0.405,1.074 0.656,1.017 -0.027,2.086 0.121,3.141 0.187,1.341 0.256,2.681 1.455,3.593 -1.446,-3.146 -1.294,-6.197 0.539,-9.151"
         style="fill:#cb1a1b;fill-opacity:1;fill-rule:evenodd;stroke:none"
         id="path1180"
         inkscape:connector-curvature="0" />
      <path
         d="m 370.2432,937.6787 c -1.734,-1.511 -5.414,-1.837 -7.024,-0.622 2.422,-0.71 4.72,-0.008 7.024,0.622"
         style="fill:#cb1a1b;fill-opacity:1;fill-rule:evenodd;stroke:none"
         id="path1184"
         inkscape:connector-curvature="0" />
      <path
         d="m 318.2354,1005.9043 c -1.689,1.766 -1.75,5.564 -0.117,7.352 -0.972,-2.467 -0.886,-4.916 0.117,-7.352"
         style="fill:#cb1a1b;fill-opacity:1;fill-rule:evenodd;stroke:none"
         id="path1188"
         inkscape:connector-curvature="0" />
      <path
         d="m 281.8271,951.0762 c 0.462,-1.164 0.923,-2.328 1.386,-3.492 0.023,-0.112 0.048,-0.223 0.072,-0.335 0.099,-0.429 0.196,-0.857 0.294,-1.285 -0.944,0.071 -0.705,0.944 -0.923,1.458 -0.469,1.101 -0.799,2.261 -1.183,3.395 0.12,0.085 0.237,0.172 0.354,0.259"
         style="fill:#cb1a1b;fill-opacity:1;fill-rule:evenodd;stroke:none"
         id="path1192"
         inkscape:connector-curvature="0" />
      <path
         d="m 307.4023,908.9219 c -1.11,1.705 -0.656,3.491 -0.268,5.273 0.031,-1.138 0.06,-2.277 0.091,-3.416 0.01,-0.13 0.019,-0.262 0.028,-0.393 0.049,-0.488 0.099,-0.977 0.149,-1.464"
         style="fill:#cb1a1b;fill-opacity:1;fill-rule:evenodd;stroke:none"
         id="path1196"
         inkscape:connector-curvature="0" />
      <path
         d="m 253.2461,961.0762 c -0.026,0.425 -0.054,0.85 -0.08,1.275 0.112,0.21 0.291,0.436 0.512,0.307 0.135,-0.08 0.24,-0.428 0.177,-0.581 -0.144,-0.357 -0.399,-0.67 -0.609,-1.001"
         style="fill:#f8f6f6;fill-opacity:1;fill-rule:evenodd;stroke:none"
         id="path1200"
         inkscape:connector-curvature="0" />
      <path
         d="m 321.6748,1000.9453 c -0.766,0 -1.167,0.321 -0.998,1.142 0.333,-0.38 0.666,-0.761 0.998,-1.142"
         style="fill:#cb1a1b;fill-opacity:1;fill-rule:evenodd;stroke:none"
         id="path1204"
         inkscape:connector-curvature="0" />
      <path
         d="m 292.6816,942.1211 c -0.259,-0.687 -0.64,-1.045 -1.357,-0.506 0.452,0.169 0.905,0.338 1.357,0.506"
         style="fill:#cb1a1b;fill-opacity:1;fill-rule:evenodd;stroke:none"
         id="path1208"
         inkscape:connector-curvature="0" />
      <path
         d="m 319.6445,1003.46 c -0.88,0.087 -0.844,0.731 -0.826,1.362 0.275,-0.454 0.551,-0.908 0.826,-1.362"
         style="fill:#cb1a1b;fill-opacity:1;fill-rule:evenodd;stroke:none"
         id="path1212"
         inkscape:connector-curvature="0" />
      <path
         d="m 294.1396,943.0527 0.671,0.105 c 0.024,-0.152 0.048,-0.304 0.071,-0.457 -0.128,-0.108 -0.256,-0.216 -0.383,-0.326 -0.378,0.02 -0.755,0.039 -1.132,0.061 0.257,0.205 0.515,0.411 0.773,0.617"
         style="fill:#cb1a1b;fill-opacity:1;fill-rule:evenodd;stroke:none"
         id="path1216"
         inkscape:connector-curvature="0" />
      <path
         d="m 320.2324,1002.6836 c -0.539,0.02 -0.769,0.272 -0.608,0.814 0.203,-0.271 0.405,-0.543 0.608,-0.814"
         style="fill:#cb1a1b;fill-opacity:1;fill-rule:evenodd;stroke:none"
         id="path1220"
         inkscape:connector-curvature="0" />
      <path
         d="m 309.2266,1009.7949 c 0.059,-0.525 -0.18,-0.773 -0.705,-0.754 0.235,0.252 0.47,0.502 0.705,0.754"
         style="fill:#cb1a1b;fill-opacity:1;fill-rule:evenodd;stroke:none"
         id="path1224"
         inkscape:connector-curvature="0" />
      <path
         d="m 324.2251,998.5527 c -0.494,-0.046 -0.724,0.227 -0.811,0.672 0.368,-0.106 0.646,-0.32 0.811,-0.672"
         style="fill:#cb1a1b;fill-opacity:1;fill-rule:evenodd;stroke:none"
         id="path1228"
         inkscape:connector-curvature="0" />
      <path
         d="m 252.2139,948.3711 c -0.319,0.135 -0.354,0.423 -0.387,0.713 0.23,-0.184 0.48,-0.355 0.387,-0.713"
         style="fill:#cb1a1b;fill-opacity:1;fill-rule:evenodd;stroke:none"
         id="path1232"
         inkscape:connector-curvature="0" />
      <path
         d="m 320.6968,1002.0391 c -0.428,0.023 -0.46,0.334 -0.476,0.656 0.159,-0.219 0.317,-0.437 0.476,-0.656"
         style="fill:#cb1a1b;fill-opacity:1;fill-rule:evenodd;stroke:none"
         id="path1236"
         inkscape:connector-curvature="0" />
      <path
         d="m 324.8413,998.1201 c -0.339,-0.007 -0.656,0.02 -0.667,0.476 0.223,-0.159 0.445,-0.317 0.667,-0.476"
         style="fill:#cb1a1b;fill-opacity:1;fill-rule:evenodd;stroke:none"
         id="path1240"
         inkscape:connector-curvature="0" />
      <path
         d="m 293.3975,942.4707 c -0.113,-0.39 -0.422,-0.401 -0.745,-0.383 0.158,0.303 0.449,0.348 0.745,0.383"
         style="fill:#cb1a1b;fill-opacity:1;fill-rule:evenodd;stroke:none"
         id="path1244"
         inkscape:connector-curvature="0" />
      <path
         d="m 305.7295,1006.6465 c -0.088,-0.383 -0.395,-0.415 -0.705,-0.442 0.235,0.147 0.47,0.294 0.705,0.442"
         style="fill:#cb1a1b;fill-opacity:1;fill-rule:evenodd;stroke:none"
         id="path1248"
         inkscape:connector-curvature="0" />
      <path
         d="m 318.5977,1005.2129 c -0.474,0.057 -0.491,0.363 -0.4,0.73 0.134,-0.242 0.267,-0.486 0.4,-0.73"
         style="fill:#cb1a1b;fill-opacity:1;fill-rule:evenodd;stroke:none"
         id="path1252"
         inkscape:connector-curvature="0" />
      <path
         d="m 251.8193,949.0947 c -0.108,0.145 -0.216,0.289 -0.325,0.434 0.109,-0.145 0.217,-0.289 0.325,-0.434"
         style="fill:#cb1a1b;fill-opacity:1;fill-rule:evenodd;stroke:none"
         id="path1256"
         inkscape:connector-curvature="0" />
      <path
         d="m 325.2524,997.7988 c -0.149,0.115 -0.299,0.23 -0.448,0.346 0.149,-0.116 0.299,-0.231 0.448,-0.346"
         style="fill:#cb1a1b;fill-opacity:1;fill-rule:evenodd;stroke:none"
         id="path1260"
         inkscape:connector-curvature="0" />
      <path
         d="m 309.6182,1010.2773 c -0.138,-0.182 -0.274,-0.363 -0.412,-0.546 0.138,0.182 0.274,0.364 0.412,0.546"
         style="fill:#cb1a1b;fill-opacity:1;fill-rule:evenodd;stroke:none"
         id="path1264"
         inkscape:connector-curvature="0" />
      <path
         d="m 307.2534,910.3857 c -0.009,0.131 -0.019,0.263 -0.028,0.394 0.037,-0.09 0.085,-0.177 0.106,-0.27 0.007,-0.033 -0.051,-0.082 -0.078,-0.124"
         style="fill:#d83230;fill-opacity:1;fill-rule:evenodd;stroke:none"
         id="path1268"
         inkscape:connector-curvature="0" />
      <path
         d="m 323.085,999.5156 c -0.132,0.129 -0.264,0.26 -0.396,0.39 0.131,-0.13 0.264,-0.261 0.396,-0.39"
         style="fill:#cb1a1b;fill-opacity:1;fill-rule:evenodd;stroke:none"
         id="path1272"
         inkscape:connector-curvature="0" />
      <path
         d="m 322.7266,999.8613 c -0.129,0.14 -0.259,0.279 -0.388,0.42 0.129,-0.141 0.259,-0.28 0.388,-0.42"
         style="fill:#cb1a1b;fill-opacity:1;fill-rule:evenodd;stroke:none"
         id="path1276"
         inkscape:connector-curvature="0" />
      <path
         d="m 308.5601,1009.0645 c -0.129,-0.131 -0.257,-0.262 -0.387,-0.394 0.13,0.132 0.258,0.263 0.387,0.394"
         style="fill:#cb1a1b;fill-opacity:1;fill-rule:evenodd;stroke:none"
         id="path1280"
         inkscape:connector-curvature="0" />
      <path
         d="m 318.8369,1004.7949 c -0.105,0.151 -0.211,0.303 -0.316,0.455 0.105,-0.151 0.211,-0.304 0.316,-0.455"
         style="fill:#cb1a1b;fill-opacity:1;fill-rule:evenodd;stroke:none"
         id="path1284"
         inkscape:connector-curvature="0" />
      <path
         d="m 322.0488,1000.5742 c -0.14,0.13 -0.279,0.26 -0.419,0.389 0.139,-0.129 0.279,-0.259 0.419,-0.389"
         style="fill:#cb1a1b;fill-opacity:1;fill-rule:evenodd;stroke:none"
         id="path1288"
         inkscape:connector-curvature="0" />
      <path
         d="m 308.209,1008.707 c -0.128,-0.129 -0.257,-0.26 -0.386,-0.389 0.129,0.129 0.258,0.26 0.386,0.389"
         style="fill:#cb1a1b;fill-opacity:1;fill-rule:evenodd;stroke:none"
         id="path1292"
         inkscape:connector-curvature="0" />
      <path
         d="m 323.4541,999.1758 c -0.136,0.127 -0.272,0.254 -0.41,0.383 0.137,-0.129 0.273,-0.256 0.41,-0.383"
         style="fill:#cb1a1b;fill-opacity:1;fill-rule:evenodd;stroke:none"
         id="path1296"
         inkscape:connector-curvature="0" />
      <path
         d="m 307.8564,1008.3535 -0.401,-0.381 z"
         style="fill:#cb1a1b;fill-opacity:1;fill-rule:evenodd;stroke:none"
         id="path1300"
         inkscape:connector-curvature="0" />
      <path
         d="m 307.5034,1008.0146 c -0.16,-0.128 -0.321,-0.257 -0.481,-0.386 0.16,0.129 0.32,0.258 0.481,0.386"
         style="fill:#cb1a1b;fill-opacity:1;fill-rule:evenodd;stroke:none"
         id="path1304"
         inkscape:connector-curvature="0" />
      <path
         d="m 367.8232,927.9512 c -0.023,2.963 -0.916,3.906 -4.242,4.641 -0.634,0.14 -1.264,0.43 -1.761,-0.226 -0.57,-0.752 0.033,-1.296 0.382,-1.88 0.76,-1.267 2.282,-1.826 2.936,-3.207 0.374,-0.789 0.832,-1.707 1.941,-1.358 1.059,0.333 0.648,1.352 0.744,2.03 m -16.548,19.661 c 1.192,-3.679 3.382,-6.184 5.659,-8.705 4.178,-4.622 8.851,-4.885 14.31,-2.354 0.797,0.369 1.562,0.808 2.36,1.177 0.404,0.188 0.873,0.659 1.279,0.285 0.482,-0.444 0.014,-1.031 -0.2,-1.426 -1.222,-2.261 -2.562,-4.453 -3.546,-6.845 -1.621,-3.941 -2.166,-7.839 0.041,-11.759 0.646,-1.147 0.922,-2.418 -0.225,-3.358 -1.172,-0.962 -2.494,-1.135 -3.858,-0.108 -1.61,1.213 -2.476,2.949 -3.388,4.629 -2.412,4.443 -5.613,8.304 -8.697,12.268 -2.854,3.666 -4.499,7.884 -4.813,12.552 -0.078,1.144 0.272,2.245 1.078,3.644"
         style="fill:#e75352;fill-opacity:1;fill-rule:evenodd;stroke:none"
         id="path1308"
         inkscape:connector-curvature="0" />
      <path
         d="m 342.4858,938.5186 c -0.492,-0.028 -0.767,-0.226 -0.589,-0.667 0.308,-0.764 0.718,-1.509 1.609,-1.67 0.389,-0.07 0.683,0.389 0.489,0.708 -0.391,0.646 -0.488,1.64 -1.509,1.629 m 0.593,1.024 c 0.24,-0.228 0.48,-0.457 0.719,-0.685 0.026,-0.284 0.09,-0.545 0.395,-0.664 0.119,-0.119 0.238,-0.24 0.356,-0.36 0.276,-0.578 0.549,-1.156 0.826,-1.733 0.307,-0.645 0.269,-1.222 -0.266,-1.752 -0.597,-0.592 -1.192,-0.356 -1.741,0.007 -1.663,1.098 -2.38,2.828 -2.893,4.633 -0.235,0.826 0.46,0.967 1.084,0.902 0.513,-0.053 1.013,-0.227 1.52,-0.348"
         style="fill:#e75352;fill-opacity:1;fill-rule:evenodd;stroke:none"
         id="path1312"
         inkscape:connector-curvature="0" />
      <path
         d="m 348.7017,953.6992 c 0.251,-0.111 0.501,-0.224 0.752,-0.336 0.874,-1.157 1.165,-2.461 1.098,-3.902 -0.11,-2.354 -1.309,-3.477 -3.932,-3.574 -0.697,-0.071 -1.195,0.329 -1.697,0.719 -0.073,0.406 -0.041,0.784 0.284,1.087 0.395,-0.726 1.091,-0.762 1.794,-0.776 0.681,-0.57 1.241,-0.066 1.697,0.303 1.306,1.055 1.442,3.079 0.397,4.695 -0.078,0.587 -0.331,1.008 -0.986,1.054 0.198,0.243 0.395,0.486 0.593,0.73"
         style="fill:#e75352;fill-opacity:1;fill-rule:evenodd;stroke:none"
         id="path1316"
         inkscape:connector-curvature="0" />
      <path
         d="m 353.7935,955.2842 c -0.86,-0.819 -1.483,-1.414 -2.111,-2.005 -0.18,-0.17 -0.435,-0.295 -0.605,-0.092 -0.118,0.141 -0.178,0.501 -0.083,0.623 0.62,0.803 1.144,1.815 2.799,1.474"
         style="fill:#e75352;fill-opacity:1;fill-rule:evenodd;stroke:none"
         id="path1320"
         inkscape:connector-curvature="0" />
      <path
         d="m 346.6484,937.1211 c 0.313,-0.052 0.709,0.109 0.872,-0.319 0.023,-0.059 -0.075,-0.232 -0.137,-0.243 -0.426,-0.079 -0.579,0.253 -0.755,0.542 z"
         style="fill:#cb1a1b;fill-opacity:1;fill-rule:evenodd;stroke:none"
         id="path1324"
         inkscape:connector-curvature="0" />
      <path
         d="m 346.2754,937.4473 c -0.048,0.056 -0.097,0.111 -0.146,0.166 0.057,-0.047 0.114,-0.094 0.171,-0.14 z"
         style="fill:#cb1a1b;fill-opacity:1;fill-rule:evenodd;stroke:none"
         id="path1328"
         inkscape:connector-curvature="0" />
      <path
         d="m 346.6289,937.1016 c -0.118,0.116 -0.235,0.23 -0.354,0.346 l 0.026,0.026 c 0.115,-0.117 0.231,-0.235 0.348,-0.352 z"
         style="fill:#cb1a1b;fill-opacity:1;fill-rule:evenodd;stroke:none"
         id="path1332"
         inkscape:connector-curvature="0" />
      <path
         d="m 273.3071,942.3652 c 0.445,0.404 1.474,-0.537 1.541,0.666 0.022,0.409 -0.139,1.274 -0.824,1.034 -0.8,-0.28 -2.163,0.055 -2.275,-1.104 -0.091,-0.926 1.002,-0.304 1.558,-0.596 m 10.254,-3.203 c -0.712,1.609 -1.705,3.055 -3.673,3.711 -1.259,0.42 -2.328,0.201 -2.877,-0.842 -0.556,-1.055 0.112,-2.064 1.085,-2.649 1.305,-0.786 2.798,-1.121 4.27,-1.454 0.8,-0.18 1.197,0.254 1.195,1.234 m -30.047,5.717 c 1.759,-1.327 3.351,-2.889 5.652,-3.363 1.744,-0.358 3.287,-0.276 4.442,1.23 0.992,1.296 2.109,1.651 3.657,0.955 0.831,-0.372 1.805,-0.457 2.727,-0.578 0.574,-0.076 1.331,-0.078 1.146,0.831 -0.115,0.561 0.034,1.505 -1.16,1.282 -0.532,-0.099 -1.347,-0.424 -1.583,0.562 1.722,0.028 3.465,-0.037 4.934,1.114 0.101,-0.272 0.182,-0.553 0.305,-0.815 0.831,-1.771 0.789,-1.722 2.151,-0.394 1.012,0.988 1.165,2.398 1.942,3.483 1.539,-1.474 1.579,-3.755 2.869,-5.511 0.447,1.645 -0.248,3.241 0.427,4.711 1.147,-1.641 1.258,-3.716 2.353,-5.416 0.711,-1.101 1.396,-2.225 2.441,-2.949 3.282,-2.271 5.229,-5.42 6.478,-9.121 0.484,-1.435 1.142,-2.814 1.762,-4.202 0.88,-1.97 0.129,-3.916 -1.874,-4.749 -3.624,-1.506 -6.652,0.045 -9.419,2.094 -1.915,1.418 -3.609,3.164 -5.268,4.89 -2.606,2.712 -6.16,3.251 -9.478,4.267 -4.875,1.492 -9.766,2.874 -13.921,6.019 -4.46,3.374 -6.649,8 -7.578,13.377 -0.234,1.353 -0.324,2.65 0.218,3.929 0.205,0.486 0.444,1.067 1.098,0.94 0.63,-0.123 0.484,-0.739 0.457,-1.172 -0.083,-1.32 0.375,-2.533 0.659,-3.782 0.066,-1.714 0.234,-3.387 1.834,-4.473 l -0.012,0.013 c -0.06,-0.557 -0.004,-1.037 0.717,-1.071 l -0.012,0.013 c -0.049,-0.327 0.039,-0.585 0.364,-0.724 l -0.017,0.019 c 0.121,-0.36 0.367,-0.598 0.724,-0.726 l -0.024,0.023 0.378,-0.378 -0.03,0.025 c 0.214,-0.118 0.427,-0.236 0.641,-0.353"
         style="fill:#e75352;fill-opacity:1;fill-rule:evenodd;stroke:none"
         id="path1336"
         inkscape:connector-curvature="0" />
      <path
         d="m 281.0234,948.3857 c -0.676,-1.47 0.02,-3.065 -0.428,-4.711 -1.289,1.757 -1.329,4.037 -2.869,5.511 -0.113,2.716 -1.869,4.838 -2.637,7.316 1.826,-0.205 3.01,-1.25 3.962,-2.771 0.566,-0.903 0.735,-2.143 1.916,-2.603 0.266,-0.155 0.542,-0.229 0.84,-0.089 l 0.02,0.037 c -0.117,-0.086 -0.235,-0.173 -0.354,-0.258 -0.871,-0.677 -0.347,-1.613 -0.45,-2.432"
         style="fill:#f29e9f;fill-opacity:1;fill-rule:evenodd;stroke:none"
         id="path1340"
         inkscape:connector-curvature="0" />
      <path
         d="m 271.2905,927.8271 c 1.024,0.544 2.975,-0.142 3.581,-1.302 0.605,-1.159 -0.209,-1.676 -1.032,-2.226 -2.349,-1.573 -4.778,-2.651 -7.744,-1.588 0.375,0.781 0.995,0.904 1.624,1.012 0.228,0.121 0.458,0.242 0.687,0.363 l -0.032,-0.028 c 0.126,0.127 0.253,0.254 0.379,0.38 l -0.025,-0.023 c 0.126,0.126 0.251,0.251 0.376,0.378 l -0.025,-0.02 c 0.316,-0.021 0.571,0.079 0.732,0.367 l -0.021,-0.023 c 0.288,0.161 0.378,0.42 0.366,0.731 l -0.018,-0.02 c 0.677,0.068 0.723,0.561 0.726,1.082 l -0.021,-0.033 c 0.299,0.145 0.313,0.439 0.367,0.713 l 0.007,0.008 0.113,0.101 z"
         style="fill:#e75352;fill-opacity:1;fill-rule:evenodd;stroke:none"
         id="path1344"
         inkscape:connector-curvature="0" />
      <path
         d="m 300.7837,920.7227 c 2.825,-0.154 5.497,-4.087 4.58,-6.367 -0.096,-0.237 -0.215,-0.424 -0.465,-0.444 -0.397,-0.027 -0.719,0.197 -0.796,0.552 -0.25,1.146 -0.568,2.27 -1.193,3.261 -0.61,0.967 -1.32,1.871 -2.126,2.998"
         style="fill:#e75352;fill-opacity:1;fill-rule:evenodd;stroke:none"
         id="path1348"
         inkscape:connector-curvature="0" />
      <path
         d="m 294.499,942.375 c 0.127,0.109 0.254,0.218 0.382,0.326 0.649,-0.037 1.26,-0.512 1.944,0.186 0.449,0.457 1.287,0.406 1.692,-0.249 0.501,-0.814 -0.205,-1.132 -0.789,-1.429 -1.093,-0.553 -2.188,-1.102 -3.291,-1.636 -0.402,-0.194 -0.879,-0.587 -1.241,-0.04 -0.281,0.426 -0.094,0.895 0.245,1.284 0.414,0.476 1.029,0.82 1.058,1.558"
         style="fill:#e75352;fill-opacity:1;fill-rule:evenodd;stroke:none"
         id="path1352"
         inkscape:connector-curvature="0" />
      <path
         d="m 250.7852,948.0381 c -1.6,1.086 -1.768,2.759 -1.834,4.474 0.087,-0.093 0.174,-0.184 0.26,-0.276 0.135,-0.358 0.269,-0.717 0.404,-1.074 0.064,-1.164 0.969,-2.012 1.17,-3.124"
         style="fill:#f29e9f;fill-opacity:1;fill-rule:evenodd;stroke:none"
         id="path1356"
         inkscape:connector-curvature="0" />
      <path
         d="m 270.8643,926.9102 c -0.003,-0.521 -0.048,-1.014 -0.726,-1.082 0.08,0.47 0.313,0.836 0.726,1.082"
         style="fill:#f29e9f;fill-opacity:1;fill-rule:evenodd;stroke:none"
         id="path1360"
         inkscape:connector-curvature="0" />
      <path
         d="m 271.2109,927.5898 c -0.055,-0.273 -0.068,-0.567 -0.368,-0.713 0.123,0.236 0.245,0.475 0.368,0.713"
         style="fill:#f29e9f;fill-opacity:1;fill-rule:evenodd;stroke:none"
         id="path1364"
         inkscape:connector-curvature="0" />
      <path
         d="m 270.1567,925.8486 c 0.012,-0.312 -0.079,-0.57 -0.367,-0.731 -0.096,0.353 0.059,0.581 0.367,0.731"
         style="fill:#f29e9f;fill-opacity:1;fill-rule:evenodd;stroke:none"
         id="path1368"
         inkscape:connector-curvature="0" />
      <path
         d="m 269.8115,925.1406 c -0.161,-0.288 -0.416,-0.389 -0.732,-0.367 0.159,0.291 0.377,0.467 0.732,0.367"
         style="fill:#f29e9f;fill-opacity:1;fill-rule:evenodd;stroke:none"
         id="path1372"
         inkscape:connector-curvature="0" />
      <path
         d="m 268.4062,924.0859 c -0.229,-0.121 -0.458,-0.242 -0.687,-0.363 0.154,0.264 0.403,0.346 0.687,0.363"
         style="fill:#f29e9f;fill-opacity:1;fill-rule:evenodd;stroke:none"
         id="path1376"
         inkscape:connector-curvature="0" />
      <path
         d="m 269.1045,924.793 c -0.125,-0.127 -0.25,-0.252 -0.376,-0.378 0.126,0.125 0.251,0.251 0.376,0.378"
         style="fill:#f29e9f;fill-opacity:1;fill-rule:evenodd;stroke:none"
         id="path1380"
         inkscape:connector-curvature="0" />
      <path
         d="m 275.793,924.4238 c 0.049,0.048 0.099,0.096 0.148,0.145 -0.007,-0.032 -0.005,-0.075 -0.025,-0.092 -0.032,-0.028 -0.079,-0.039 -0.119,-0.057 z"
         style="fill:#cb1a1b;fill-opacity:1;fill-rule:evenodd;stroke:none"
         id="path1384"
         inkscape:connector-curvature="0" />
      <path
         d="m 268.7539,924.4385 c -0.126,-0.126 -0.253,-0.253 -0.379,-0.38 0.126,0.127 0.253,0.253 0.379,0.38"
         style="fill:#f29e9f;fill-opacity:1;fill-rule:evenodd;stroke:none"
         id="path1388"
         inkscape:connector-curvature="0" />
      <path
         d="m 275.7969,924.4199 c -0.048,-0.049 -0.096,-0.098 -0.144,-0.146 0.008,0.031 0.005,0.072 0.025,0.089 0.03,0.03 0.076,0.041 0.115,0.061 z"
         style="fill:#cb1a1b;fill-opacity:1;fill-rule:evenodd;stroke:none"
         id="path1392"
         inkscape:connector-curvature="0" />
      <path
         d="m 271.2905,927.8271 0.04,-0.128 -0.113,-0.101 c 0.034,0.074 0.059,0.15 0.073,0.229"
         style="fill:#f29e9f;fill-opacity:1;fill-rule:evenodd;stroke:none"
         id="path1396"
         inkscape:connector-curvature="0" />
      <path
         d="m 344.1929,938.1934 c -0.305,0.119 -0.369,0.38 -0.395,0.664 0.301,-0.12 0.374,-0.377 0.395,-0.664"
         style="fill:#d83230;fill-opacity:1;fill-rule:evenodd;stroke:none"
         id="path1400"
         inkscape:connector-curvature="0" />
      <path
         d="m 317.3506,966.8555 c 0.124,-1.434 -0.252,-2.403 -0.698,-3.353 -0.125,-0.265 -0.321,-0.532 -0.641,-0.493 -0.363,0.045 -0.38,0.385 -0.38,0.675 -10e-4,1.099 -0.044,2.179 -0.301,3.269 -0.18,0.769 0.362,1.464 1.138,1.433 1.241,-0.05 0.798,-1.154 0.882,-1.531"
         style="fill:#d83230;fill-opacity:1;fill-rule:evenodd;stroke:none"
         id="path1404"
         inkscape:connector-curvature="0" />
      <path
         d="m 334.6562,996.6699 c 0.237,-1.356 -0.011,-1.58 -1.871,-1.637 0.171,0.43 0.334,0.839 0.497,1.25 0.458,0.128 0.916,0.258 1.374,0.387"
         style="fill:#e75352;fill-opacity:1;fill-rule:evenodd;stroke:none"
         id="path1408"
         inkscape:connector-curvature="0" />
      <path
         d="m 318.5068,995.9434 c 0.585,0.015 1.227,-0.07 1.547,0.578 0.277,0.562 -0.092,1.024 -0.37,1.461 -0.472,0.742 -0.933,1.5 -1.488,2.18 -1.51,1.851 -3.225,3.416 -5.748,3.733 -1.287,0.163 -2.379,-0.2 -2.982,-1.358 -0.627,-1.209 0.21,-2.032 1.091,-2.655 1.195,-0.844 2.434,-1.644 3.724,-2.331 1.331,-0.708 2.604,-1.638 4.226,-1.608 m -21.921,6.715 c -0.079,0.08 -0.158,0.16 -0.237,0.24 -0.029,-0.055 -0.06,-0.107 -0.089,-0.162 0.114,-0.019 0.228,-0.038 0.343,-0.058 0.129,-0.327 0.401,-0.368 0.702,-0.354 0.889,-1.307 2.204,-1.043 3.494,-0.873 -1.17,0.285 -2.339,0.57 -3.509,0.856 -0.142,0.303 -0.413,0.347 -0.704,0.351 m 21.225,-20.074 c -2.658,0.213 -5.338,1.093 -7.719,2.622 -3.26,2.092 -6.718,3.792 -10.148,5.557 -2.516,1.293 -3.979,3.354 -4.388,6.149 -0.353,2.418 -1.147,4.644 -2.746,6.533 -0.323,0.381 -0.591,0.769 -0.272,1.256 0.359,0.546 0.802,0.274 1.238,0.084 1.335,-0.584 2.653,-1.217 4.017,-1.725 4.486,-1.672 7.927,0.366 11.062,3.266 1.373,1.269 2.707,2.588 3.83,4.109 0.434,0.588 0.973,1.262 1.898,0.969 0.82,-0.262 0.636,-1.02 0.737,-1.629 0.871,-5.213 4.08,-9.12 7.413,-12.885 1.544,-1.742 3.839,-2.108 6.155,-1.986 0.438,0.023 1.067,0.242 1.292,-0.238 0.28,-0.6 -0.357,-0.979 -0.741,-1.225 -2.486,-1.602 -3.554,-4.024 -4.322,-6.756 -0.841,-2.994 -3.029,-4.147 -7.306,-4.101"
         style="fill:#e75352;fill-opacity:1;fill-rule:evenodd;stroke:none"
         id="path1412"
         inkscape:connector-curvature="0" />
      <path
         d="m 275.0898,956.502 c 0.768,-2.479 2.523,-4.601 2.637,-7.316 -0.777,-1.084 -0.93,-2.495 -1.942,-3.483 -1.362,-1.328 -1.32,-1.377 -2.151,0.395 -0.123,0.261 -0.204,0.543 -0.305,0.814 0.06,0.117 0.121,0.234 0.18,0.35 2.058,2.072 1.8,5.233 -0.592,7.113 -0.962,0.758 -2.106,1.282 -2.906,2.246 -0.5,0.604 -0.951,1.265 -0.546,2.068 0.381,0.754 1.156,0.674 1.858,0.675 0.955,10e-4 1.823,-0.38 2.718,-0.635 0.228,-0.188 0.456,-0.375 0.684,-0.562 -0.083,-0.6 0.042,-1.154 0.365,-1.665"
         style="fill:#d83230;fill-opacity:1;fill-rule:evenodd;stroke:none"
         id="path1416"
         inkscape:connector-curvature="0" />
      <path
         d="m 274.7246,958.167 c 2.445,-0.784 4.16,-2.578 5.934,-4.29 0.325,-0.779 1.087,-1.361 1.046,-2.307 -0.515,0.303 -0.637,-0.052 -0.737,-0.442 -1.181,0.46 -1.35,1.7 -1.916,2.602 -0.952,1.522 -2.137,2.567 -3.962,2.772 -0.323,0.511 -0.448,1.065 -0.365,1.665"
         style="fill:#e75352;fill-opacity:1;fill-rule:evenodd;stroke:none"
         id="path1420"
         inkscape:connector-curvature="0" />
      <path
         d="m 261.0537,945.9219 c 0.217,1.036 0.213,2.121 0.667,3.106 0.108,0.033 0.215,0.027 0.319,-0.016 -0.263,-1.249 -0.42,-2.506 -0.342,-3.786 0.038,-0.614 -0.07,-1.169 -0.751,-1.408 0.041,0.702 0.354,1.388 0.107,2.104"
         style="fill:#cb1a1b;fill-opacity:1;fill-rule:evenodd;stroke:none"
         id="path1424"
         inkscape:connector-curvature="0" />
      <path
         d="m 260.5684,943.2305 c -0.629,-1.109 -1.32,-0.867 -2.037,-0.094 0.688,-0.177 1.367,-0.121 2.037,0.094"
         style="fill:#cb1a1b;fill-opacity:1;fill-rule:evenodd;stroke:none"
         id="path1428"
         inkscape:connector-curvature="0" />
      <path
         d="m 258.5537,943.1191 c -0.622,-0.006 -1.269,-0.052 -1.358,0.822 0.452,-0.273 0.905,-0.547 1.358,-0.822"
         style="fill:#cb1a1b;fill-opacity:1;fill-rule:evenodd;stroke:none"
         id="path1432"
         inkscape:connector-curvature="0" />
      <path
         d="m 280.9673,951.1279 c 0.101,0.39 0.223,0.745 0.738,0.442 0.034,-0.177 0.068,-0.353 0.102,-0.531 -0.298,-0.14 -0.573,-0.066 -0.84,0.089"
         style="fill:#d83230;fill-opacity:1;fill-rule:evenodd;stroke:none"
         id="path1436"
         inkscape:connector-curvature="0" />
      <path
         d="m 260.9697,943.8457 c -0.016,-0.322 -0.032,-0.643 -0.472,-0.662 0.157,0.221 0.314,0.441 0.472,0.662"
         style="fill:#cb1a1b;fill-opacity:1;fill-rule:evenodd;stroke:none"
         id="path1440"
         inkscape:connector-curvature="0" />
      <path
         d="m 257.2197,943.875 c -0.147,0.117 -0.293,0.234 -0.439,0.35 0.146,-0.116 0.292,-0.233 0.439,-0.35"
         style="fill:#cb1a1b;fill-opacity:1;fill-rule:evenodd;stroke:none"
         id="path1444"
         inkscape:connector-curvature="0" />
      <path
         d="m 251.4902,946.9805 c -0.721,0.034 -0.777,0.514 -0.717,1.07 0.428,-0.23 0.658,-0.593 0.717,-1.07"
         style="fill:#f29e9f;fill-opacity:1;fill-rule:evenodd;stroke:none"
         id="path1448"
         inkscape:connector-curvature="0" />
      <path
         d="m 252.5488,945.5625 c -0.356,0.128 -0.603,0.365 -0.724,0.726 0.518,0.034 0.694,-0.273 0.724,-0.726"
         style="fill:#f29e9f;fill-opacity:1;fill-rule:evenodd;stroke:none"
         id="path1452"
         inkscape:connector-curvature="0" />
      <path
         d="m 251.8418,946.2695 c -0.325,0.139 -0.413,0.396 -0.363,0.724 0.327,-0.138 0.464,-0.371 0.363,-0.724"
         style="fill:#f29e9f;fill-opacity:1;fill-rule:evenodd;stroke:none"
         id="path1456"
         inkscape:connector-curvature="0" />
      <path
         d="m 253.5137,944.8789 c -0.214,0.117 -0.427,0.235 -0.641,0.354 0.214,-0.119 0.427,-0.237 0.641,-0.354"
         style="fill:#f29e9f;fill-opacity:1;fill-rule:evenodd;stroke:none"
         id="path1460"
         inkscape:connector-curvature="0" />
      <path
         d="m 252.9033,945.207 -0.378,0.378 c 0.232,-0.021 0.358,-0.145 0.378,-0.378"
         style="fill:#f29e9f;fill-opacity:1;fill-rule:evenodd;stroke:none"
         id="path1464"
         inkscape:connector-curvature="0" />
      <path
         d="m 367.8232,927.9512 c -0.096,-0.678 0.315,-1.697 -0.744,-2.03 -1.109,-0.349 -1.567,0.569 -1.941,1.358 -0.654,1.381 -2.176,1.94 -2.936,3.207 -0.349,0.584 -0.952,1.128 -0.382,1.88 0.497,0.656 1.127,0.366 1.761,0.226 3.326,-0.735 4.219,-1.678 4.242,-4.641"
         style="fill:#f29e9f;fill-opacity:1;fill-rule:evenodd;stroke:none"
         id="path1468"
         inkscape:connector-curvature="0" />
      <path
         d="m 342.4858,938.5186 c 1.021,0.011 1.118,-0.983 1.509,-1.629 0.194,-0.319 -0.1,-0.778 -0.489,-0.708 -0.891,0.161 -1.301,0.906 -1.609,1.67 -0.178,0.441 0.097,0.639 0.589,0.667"
         style="fill:#f29e9f;fill-opacity:1;fill-rule:evenodd;stroke:none"
         id="path1472"
         inkscape:connector-curvature="0" />
      <path
         d="m 347.001,946.917 c 0.441,1.774 0.264,3.806 2.093,4.998 1.046,-1.616 0.909,-3.64 -0.397,-4.695 -0.456,-0.368 -1.015,-0.872 -1.696,-0.303"
         style="fill:#d83230;fill-opacity:1;fill-rule:evenodd;stroke:none"
         id="path1476"
         inkscape:connector-curvature="0" />
      <path
         d="m 283.5615,939.1621 c 0.002,-0.979 -0.396,-1.414 -1.195,-1.233 -1.472,0.332 -2.965,0.668 -4.271,1.453 -0.972,0.585 -1.64,1.594 -1.085,2.649 0.55,1.043 1.618,1.262 2.877,0.842 1.969,-0.656 2.962,-2.102 3.674,-3.711"
         style="fill:#f29e9f;fill-opacity:1;fill-rule:evenodd;stroke:none"
         id="path1480"
         inkscape:connector-curvature="0" />
      <path
         d="m 273.3071,942.3652 c -0.556,0.292 -1.649,-0.33 -1.558,0.596 0.112,1.159 1.475,0.824 2.275,1.104 0.685,0.24 0.846,-0.625 0.824,-1.034 -0.067,-1.203 -1.096,-0.262 -1.541,-0.666"
         style="fill:#f29e9f;fill-opacity:1;fill-rule:evenodd;stroke:none"
         id="path1484"
         inkscape:connector-curvature="0" />
      <path
         d="m 318.5068,995.9434 c -1.622,-0.03 -2.895,0.9 -4.226,1.608 -1.29,0.687 -2.529,1.487 -3.724,2.331 -0.881,0.623 -1.718,1.446 -1.091,2.655 0.603,1.158 1.695,1.521 2.982,1.358 2.523,-0.317 4.238,-1.882 5.748,-3.733 0.555,-0.68 1.016,-1.438 1.488,-2.18 0.278,-0.437 0.647,-0.899 0.37,-1.461 -0.32,-0.648 -0.962,-0.563 -1.547,-0.578"
         style="fill:#f29e9f;fill-opacity:1;fill-rule:evenodd;stroke:none"
         id="path1488"
         inkscape:connector-curvature="0" />
      <path
         d="m 297.29,1002.3076 c 1.17,-0.286 2.339,-0.571 3.509,-0.856 -1.29,-0.17 -2.606,-0.434 -3.494,0.873 z"
         style="fill:#f29e9f;fill-opacity:1;fill-rule:evenodd;stroke:none"
         id="path1492"
         inkscape:connector-curvature="0" />
      <path
         d="m 297.3047,1002.3242 c -0.301,-0.014 -0.573,0.027 -0.702,0.354 l -0.017,-0.02 c 0.291,0 0.562,-0.048 0.704,-0.351 z"
         style="fill:#f29e9f;fill-opacity:1;fill-rule:evenodd;stroke:none"
         id="path1496"
         inkscape:connector-curvature="0" />
      <path
         d="m 296.6025,1002.6787 c -0.114,0.02 -0.229,0.039 -0.343,0.058 0.03,0.054 0.06,0.107 0.09,0.162 0.078,-0.08 0.157,-0.16 0.236,-0.241 z"
         style="fill:#f29e9f;fill-opacity:1;fill-rule:evenodd;stroke:none"
         id="path1500"
         inkscape:connector-curvature="0" />
    </g>
  </g>
</svg>
