<?xml version="1.0" encoding="UTF-8" standalone="no"?>
<svg
   xmlns:dc="http://purl.org/dc/elements/1.1/"
   xmlns:cc="http://creativecommons.org/ns#"
   xmlns:rdf="http://www.w3.org/1999/02/22-rdf-syntax-ns#"
   xmlns:svg="http://www.w3.org/2000/svg"
   xmlns="http://www.w3.org/2000/svg"
   id="svg1592"
   version="1.1"
   viewBox="0 0 99.999992 127.37784"
   height="127.37785mm"
   width="99.999992mm">
  <defs
     id="defs1586" />
  <metadata
     id="metadata1589">
    <rdf:RDF>
      <cc:Work
         rdf:about="">
        <dc:format>image/svg+xml</dc:format>
        <dc:type
           rdf:resource="http://purl.org/dc/dcmitype/StillImage" />
        <dc:title></dc:title>
      </cc:Work>
    </rdf:RDF>
  </metadata>
  <g
     transform="translate(-42.712214,-89.969545)"
     id="layer1">
    <path
       id="path140"
       d="m 67.4611,89.969545 c -13.426789,0 -24.31272,8.876824 -24.31272,19.827425 0,10.9498 10.885931,19.82624 24.31272,19.82624 13.426827,0 24.311605,-8.87644 24.311605,-19.82624 0,-10.950601 -10.884778,-19.827425 -24.311605,-19.827425 z m 50.9395,19.681245 c -13.42679,0 -24.311571,8.87764 -24.311571,19.82744 0,10.9498 10.884781,19.82624 24.311571,19.82624 13.42763,0 24.31161,-8.87644 24.31161,-19.82624 0,-10.9498 -10.88398,-19.82744 -24.31161,-19.82744 z m -51.18552,24.60752 c 0,0 -19.780906,-0.0421 -24.502866,3.26236 l 0.02066,44.35414 c 0,0 1.992592,21.43578 16.754007,28.6721 6.79498,3.33053 20.260632,6.80048 34.602659,6.80048 16.5618,-5.9e-4 36.30764,-7.66853 41.22843,-16.6411 9.89745,-18.04738 2.60164,-47.08346 0.90679,-47.17677 -4.61489,-0.25475 -37.683349,-2.79149 -37.760442,1.66031 -0.101422,5.94466 -0.0425,37.51203 -0.0425,37.51203 -1.5237,1.50178 -8.048427,-0.0833 -8.048427,-0.0833 0,0 0.100733,-53.60766 0.115222,-54.1983 0.09406,-4.33337 -23.27405,-4.16207 -23.27405,-4.16207 z m 45.68289,25.16371 c 0.70518,0.028 1.51783,0.23184 2.42328,0.73448 2.40317,1.19994 3.11474,2.991 3.27782,4.27616 0.42274,3.34918 -2.29343,7.19713 -5.99228,10.99582 0.59713,0.91762 1.28681,1.81783 1.99188,2.73708 1.32818,1.7322 2.70174,3.52211 3.65101,5.65834 l -3.21959,1.43095 c -0.78052,-1.75492 -1.96839,-3.30434 -3.22676,-4.94647 -0.59713,-0.77807 -1.19937,-1.56432 -1.7649,-2.38054 -1.24049,1.15535 -2.5301,2.29516 -3.80552,3.40263 -0.85106,0.73913 -1.58733,1.37739 -1.94434,1.73519 l -2.49226,-2.49105 c 0.44707,-0.44544 1.18951,-1.08975 2.12739,-1.90516 1.04097,-0.90382 2.64481,-2.29918 4.31776,-3.89346 -0.47865,-1.10423 -0.82555,-2.29116 -0.96265,-3.60228 -0.43326,-2.72204 0.023,-8.85607 3.04726,-10.98989 0.51873,-0.36611 1.39651,-0.80865 2.5719,-0.7618 z m -52.832802,13.07447 h 8.105505 c 0,0 8.376816,21.69206 25.919569,22.64293 24.310878,1.31761 31.397138,-10.93443 33.516318,-16.46045 l 3.74613,5.25427 c 0,0 -5.60814,17.956 -37.262448,16.23108 -23.48173,-1.27864 -34.025011,-27.66783 -34.025074,-27.66783 z"
       style="fill-opacity:1;fill-rule:nonzero;stroke:none;stroke-width:0.8113364" />
  </g>
</svg>
