<?xml version="1.0" encoding="UTF-8" standalone="no"?>
<svg
   xmlns:dc="http://purl.org/dc/elements/1.1/"
   xmlns:cc="http://creativecommons.org/ns#"
   xmlns:rdf="http://www.w3.org/1999/02/22-rdf-syntax-ns#"
   xmlns:svg="http://www.w3.org/2000/svg"
   xmlns="http://www.w3.org/2000/svg"
   id="svg2783"
   version="1.1"
   viewBox="0 0 200.69231 38.091187"
   height="38.091187mm"
   width="200.69231mm">
  <defs
     id="defs2777" />
  <metadata
     id="metadata2780">
    <rdf:RDF>
      <cc:Work
         rdf:about="">
        <dc:format>image/svg+xml</dc:format>
        <dc:type
           rdf:resource="http://purl.org/dc/dcmitype/StillImage" />
        <dc:title></dc:title>
      </cc:Work>
    </rdf:RDF>
  </metadata>
  <g
     transform="translate(205.7243,-110.13298)"
     id="layer1">
    <path
       d="m -186.67871,147.75506 v 0 c -10.25897,0 -18.57649,-8.31813 -18.57649,-18.57711 0,-10.25961 8.31752,-18.57587 18.57649,-18.57587 10.26024,0 18.5765,8.31626 18.5765,18.57587 0,10.25898 -8.31626,18.57711 -18.5765,18.57711 z"
       style="fill:none;stroke:#f97ca9;stroke-width:0.93820667;stroke-linecap:butt;stroke-linejoin:miter;stroke-miterlimit:10;stroke-dasharray:none;stroke-opacity:1"
       id="path286" />
    <path
       d="m -196.57509,135.39713 c 1.79572,1.15337 3.93045,1.82512 6.22406,1.82512 7.54068,0 11.80077,-6.36854 11.54432,-12.08159 0.79372,-0.57168 1.48112,-1.28785 2.02589,-2.10158 -0.72866,0.32274 -1.51175,0.54103 -2.33174,0.63798 0.83812,-0.50102 1.48112,-1.29723 1.78384,-2.24544 -0.78372,0.46534 -1.65374,0.80247 -2.57758,0.98699 -0.74118,-0.7906 -1.79634,-1.28409 -2.9666,-1.28409 -2.61946,0 -4.54592,2.44559 -3.9536,4.98813 -3.37629,-0.17145 -6.36918,-1.7876 -8.37131,-4.24507 -1.06392,1.82637 -0.55167,4.21567 1.25657,5.42283 -0.66487,-0.0213 -1.29159,-0.20391 -1.83888,-0.50851 -0.045,1.88266 1.30285,3.64149 3.25745,4.03367 -0.57231,0.15514 -1.19902,0.19076 -1.83326,0.07 0.51415,1.61247 2.01527,2.78773 3.79161,2.81962 -1.70565,1.3385 -3.85602,1.93708 -6.01077,1.6819"
       style="fill:#f97ca9;fill-opacity:1;fill-rule:nonzero;stroke:none;stroke-width:0.62547112"
       id="path290" />
    <path
       d="m -132.27246,147.75506 v 0 c -10.26024,0 -18.57713,-8.31813 -18.57713,-18.57711 0,-10.25961 8.31689,-18.57587 18.57713,-18.57587 10.25834,0 18.57585,8.31626 18.57585,18.57587 0,10.25898 -8.31751,18.57711 -18.57585,18.57711 z"
       style="fill:none;stroke:#f97ca9;stroke-width:0.93820667;stroke-linecap:butt;stroke-linejoin:miter;stroke-miterlimit:10;stroke-dasharray:none;stroke-opacity:1"
       id="path294" />
    <path
       d="m -129.95079,128.69408 h -7.50564 l 0.009,2.15037 h 5.06006 c -0.59858,2.61759 -2.44497,4.22255 -4.9256,4.22255 -3.25118,0 -5.8863,-2.63572 -5.8863,-5.88942 0,-3.25058 2.63512,-5.88695 5.8863,-5.88695 1.54743,0 2.95286,0.59608 4.00366,1.57119 l 1.65936,-1.43171 c -1.45546,-1.43544 -3.45509,-2.32236 -5.66302,-2.32236 -4.45647,0 -8.07045,3.61335 -8.07045,8.06983 0,4.45772 3.61398,8.07295 8.07045,8.07295 4.28074,0 7.37495,-3.26684 7.37495,-7.72332 z"
       style="fill:#f97ca9;fill-opacity:1;fill-rule:nonzero;stroke:none;stroke-width:0.62547112"
       id="path298" />
    <path
       d="m -119.16323,128.78321 h -3.0992 v -3.09796 h -1.97649 v 3.09796 h -3.09733 v 1.97649 h 3.09733 v 3.09797 h 1.97649 v -3.09797 h 3.0992 z"
       style="fill:#f97ca9;fill-opacity:1;fill-rule:nonzero;stroke:none;stroke-width:0.62547112"
       id="path302" />
    <path
       d="m -78.484387,147.75506 v 0 c -10.257097,0 -18.575253,-8.31813 -18.575253,-18.57711 0,-10.25961 8.318156,-18.57587 18.575253,-18.57587 10.260855,0 18.578372,8.31626 18.578372,18.57587 0,10.25898 -8.317517,18.57711 -18.578372,18.57711 z"
       style="fill:none;stroke:#f97ca9;stroke-width:0.93820667;stroke-linecap:butt;stroke-linejoin:miter;stroke-miterlimit:10;stroke-dasharray:none;stroke-opacity:1"
       id="path306" />
    <path
       d="m -81.313706,140.40696 h 4.522151 v -11.32353 h 3.154254 l 0.337134,-3.79159 h -3.491388 v -2.15977 c 0,-0.89442 0.179515,-1.24593 1.043918,-1.24593 h 2.44747 v -3.93609 h -3.129858 c -3.366286,0 -4.883681,1.48174 -4.883681,4.31826 v 3.02353 h -2.351781 v 3.8385 h 2.351781 z"
       style="fill:#f97ca9;fill-opacity:1;fill-rule:nonzero;stroke:none;stroke-width:0.62547112"
       id="path310" />
    <path
       d="m -24.077593,147.75506 v 0 c -10.259614,0 -18.577131,-8.31813 -18.577131,-18.57711 0,-10.25961 8.317517,-18.57587 18.577131,-18.57587 10.258974,0 18.5764916,8.31626 18.5764916,18.57587 0,10.25898 -8.3175176,18.57711 -18.5764916,18.57711 z"
       style="fill:none;stroke:#f97ca9;stroke-width:0.93820667;stroke-linecap:butt;stroke-linejoin:miter;stroke-miterlimit:10;stroke-dasharray:none;stroke-opacity:1"
       id="path314" />
    <path
       d="m -24.077593,118.99316 c -2.766466,0 -3.112979,0.0106 -4.199413,0.0613 -1.085194,0.05 -1.825754,0.22203 -2.473125,0.47348 -0.66925,0.2602 -1.237174,0.60858 -1.804477,1.17402 -0.565424,0.56604 -0.913817,1.13522 -1.173382,1.80448 -0.251446,0.64861 -0.424702,1.38791 -0.474115,2.47374 -0.04876,1.08518 -0.06011,1.43169 -0.06011,4.19878 0,2.76584 0.01064,3.11297 0.06011,4.19879 0.04947,1.08581 0.222669,1.82513 0.474115,2.47374 0.259565,0.66799 0.607958,1.2378 1.173382,1.80322 0.567303,0.56668 1.135227,0.91508 1.804477,1.17526 0.647371,0.25021 1.387931,0.42408 2.473125,0.47412 1.086434,0.0488 1.432947,0.0594 4.199413,0.0594 2.765828,0 3.113599,-0.0106 4.198775,-0.0594 1.083952,-0.05 1.824511,-0.22391 2.471864,-0.47412 0.67113,-0.26018 1.238433,-0.60858 1.805736,-1.17526 0.565424,-0.56542 0.913817,-1.13523 1.174021,-1.80322 0.252686,-0.64861 0.423443,-1.38793 0.474097,-2.47374 0.05,-1.08582 0.06064,-1.43295 0.06064,-4.19879 0,-2.76709 -0.01064,-3.1136 -0.06064,-4.19878 -0.05071,-1.08583 -0.221411,-1.82513 -0.474097,-2.47374 -0.260204,-0.66926 -0.608597,-1.23844 -1.174021,-1.80448 -0.567303,-0.56544 -1.134606,-0.91382 -1.805736,-1.17402 -0.647353,-0.25145 -1.387912,-0.42345 -2.471864,-0.47348 -1.085176,-0.05 -1.432947,-0.0613 -4.198775,-0.0613 m 0,1.83637 c 2.720173,0 3.04041,0.009 4.114966,0.0581 0.994505,0.0457 1.53429,0.21141 1.892061,0.3509 0.474718,0.18451 0.814972,0.4053 1.171503,0.76119 0.357771,0.35652 0.576682,0.69615 0.761818,1.17151 0.139534,0.35903 0.303979,0.89755 0.351513,1.89204 0.04752,1.07269 0.05886,1.39669 0.05886,4.1156 0,2.71956 -0.01064,3.04167 -0.05886,4.11437 -0.04752,0.99448 -0.212032,1.53301 -0.351513,1.89142 -0.185136,0.47598 -0.404047,0.81561 -0.761818,1.17275 -0.356531,0.35527 -0.696785,0.57794 -1.171503,0.76119 -0.357771,0.13883 -0.897556,0.30524 -1.892061,0.35153 -1.074556,0.0488 -1.394793,0.0589 -4.114966,0.0589 -2.720173,0 -3.041669,-0.0106 -4.116225,-0.0589 -0.993246,-0.0463 -1.532412,-0.21267 -1.891424,-0.35153 -0.475995,-0.18325 -0.81437,-0.40592 -1.171521,-0.76119 -0.355253,-0.35714 -0.576044,-0.69677 -0.761197,-1.17275 -0.138825,-0.35841 -0.30522,-0.89694 -0.350875,-1.89142 -0.04876,-1.0727 -0.0594,-1.39481 -0.0594,-4.11437 0,-2.71891 0.01064,-3.04291 0.0594,-4.1156 0.04557,-0.99449 0.212032,-1.53301 0.350875,-1.89204 0.185153,-0.47536 0.405944,-0.81499 0.761197,-1.17151 0.357151,-0.35589 0.695526,-0.57668 1.171521,-0.76119 0.359012,-0.13954 0.898178,-0.30524 1.891424,-0.3509 1.074556,-0.05 1.396052,-0.0581 4.116225,-0.0581"
       style="fill:#f97ca9;fill-opacity:1;fill-rule:nonzero;stroke:none;stroke-width:0.62547112"
       id="path318" />
    <path
       d="m -24.077593,132.57395 c -1.875166,0 -3.396302,-1.51989 -3.396302,-3.39506 0,-1.87517 1.521136,-3.39568 3.396302,-3.39568 1.875167,0 3.394423,1.52051 3.394423,3.39568 0,1.87517 -1.519256,3.39506 -3.394423,3.39506 m 0,-8.62588 c -2.88905,0 -5.230194,2.34051 -5.230194,5.23082 0,2.88779 2.341144,5.23019 5.230194,5.23019 2.88843,0 5.228935,-2.3424 5.228935,-5.23019 0,-2.89031 -2.340505,-5.23082 -5.228935,-5.23082"
       style="fill:#f97ca9;fill-opacity:1;fill-rule:nonzero;stroke:none;stroke-width:0.62547112"
       id="path322" />
    <path
       d="m -17.418514,123.74161 c 0,0.67425 -0.547286,1.2228 -1.222172,1.2228 -0.674889,0 -1.221554,-0.54855 -1.221554,-1.2228 0,-0.67427 0.546665,-1.22155 1.221554,-1.22155 0.674886,0 1.222172,0.54728 1.222172,1.22155"
       style="fill:#f97ca9;fill-opacity:1;fill-rule:nonzero;stroke:none;stroke-width:0.62547112"
       id="path326" />
  </g>
</svg>
