<?xml version="1.0" encoding="UTF-8" standalone="no"?>
<svg
   xmlns:dc="http://purl.org/dc/elements/1.1/"
   xmlns:cc="http://creativecommons.org/ns#"
   xmlns:rdf="http://www.w3.org/1999/02/22-rdf-syntax-ns#"
   xmlns:svg="http://www.w3.org/2000/svg"
   xmlns="http://www.w3.org/2000/svg"
   id="svg5598"
   version="1.1"
   viewBox="0 0 118.63438 128.17241"
   height="128.17241mm"
   width="118.63438mm">
  <defs
     id="defs5592" />
  <metadata
     id="metadata5595">
    <rdf:RDF>
      <cc:Work
         rdf:about="">
        <dc:format>image/svg+xml</dc:format>
        <dc:type
           rdf:resource="http://purl.org/dc/dcmitype/StillImage" />
        <dc:title></dc:title>
      </cc:Work>
    </rdf:RDF>
  </metadata>
  <g
     transform="translate(-46.516138,-66.60427)"
     id="layer1">
    <g
       style="fill:#fa96ba;fill-opacity:1"
       transform="matrix(0.79170184,0,0,-0.79170184,-171.66438,586.24371)"
       id="g5566">
      <path
         d="m 330.5742,595.6445 c 16.766,0 30.355,13.59 30.355,30.354 0,16.767 -13.589,30.359 -30.355,30.359 -16.768,0 -30.357,-13.592 -30.357,-30.359 0,-16.764 13.589,-30.354 30.357,-30.354"
         style="fill:#fa96ba;fill-opacity:1;fill-rule:nonzero;stroke:none"
         id="path1690" />
      <path
         d="m 335.2402,560.1357 c 10.936,21.117 32.324,25.036 32.324,25.036 0,0 -36.375,9.88 -64.279,0.829 -27.906,-9.048 -27.955,-36.066 -27.578,-40.969 0.375,-4.9 -0.123,-30.032 -0.123,-30.032 h 18.416 v 30 h 9 v -30 h 34.273 c 0,0 -12.969,24.017 -2.033,45.136"
         style="fill:#fa96ba;fill-opacity:1;fill-rule:nonzero;stroke:none"
         id="path1694" />
      <path
         d="m 379.1992,565.5176 c 0.408,0 0.74,0.339 0.74,0.753 0,0.418 -0.332,0.754 -0.74,0.754 -0.406,0 -0.74,-0.336 -0.74,-0.754 0,-0.414 0.334,-0.753 0.74,-0.753"
         style="fill:#fa96ba;fill-opacity:1;fill-rule:nonzero;stroke:none"
         id="path1698" />
      <path
         d="m 356.7559,515.6582 c -0.408,0 -0.736,-0.338 -0.736,-0.752 0,-0.418 0.328,-0.753 0.736,-0.753 0.408,0 0.74,0.335 0.74,0.753 0,0.414 -0.332,0.752 -0.74,0.752"
         style="fill:#fa96ba;fill-opacity:1;fill-rule:nonzero;stroke:none"
         id="path1702" />
      <path
         d="m 411.1035,545.4902 c -0.744,0 -1.348,-0.612 -1.348,-1.367 0,-0.75 0.604,-1.363 1.348,-1.363 0.74,0 1.346,0.613 1.346,1.363 0,0.755 -0.606,1.367 -1.346,1.367"
         style="fill:#fa96ba;fill-opacity:1;fill-rule:nonzero;stroke:none"
         id="path1706" />
      <path
         d="m 387.4629,557.209 c 0.291,0.46 1.33,0.969 1.861,1.561 1.004,1.115 1.777,2.305 1.482,3.185 -0.264,0.787 -0.823,1.09 -1.429,1.206 l 0.065,0.031 c -0.691,0.211 -3.397,0.344 -3.909,-0.036 -0.076,-0.058 -1.533,-0.233 -1.533,-0.916 v -4.488 c 0,-0.144 2.754,-0.322 3.463,-0.543"
         style="fill:#fa96ba;fill-opacity:1;fill-rule:nonzero;stroke:none"
         id="path1710" />
      <path
         d="m 372.2539,555.417 c 0.627,0.352 1.27,0.678 1.932,0.967 -0.709,1.133 -1.145,2.315 -0.995,3.412 0.133,0.986 -0.533,1.626 -1.115,1.985 -0.951,0.592 -1.908,0.581 -2.103,0.448 -0.717,-0.5 -1.67,-1.695 -1.604,-2.628 0.043,-0.593 0.533,-1.126 1.455,-1.591 1.166,-0.587 1.938,-1.519 2.43,-2.593"
         style="fill:#fa96ba;fill-opacity:1;fill-rule:nonzero;stroke:none"
         id="path1714" />
      <path
         d="m 360.7363,528.4863 c -1.531,-0.295 -2.703,-1.043 -3.053,-1.95 -0.197,-0.509 -0.099,-1.034 0.287,-1.556 l 0.051,-0.062 0.039,-0.073 c 0.25,-0.439 0.836,-1.118 1.295,-1.16 0.309,-0.033 0.654,0.287 0.889,0.563 l 3.404,3.952 c -0.164,0.348 -0.32,0.705 -0.467,1.063 -0.672,-0.384 -1.57,-0.606 -2.445,-0.777"
         style="fill:#fa96ba;fill-opacity:1;fill-rule:nonzero;stroke:none"
         id="path1718" />
      <path
         d="m 374.502,517.8643 c -0.631,0.265 -1.244,0.558 -1.842,0.88 -0.551,-0.703 -1.205,-1.161 -1.972,-1.358 -1.032,-0.27 -1.221,-0.824 -1.27,-1.319 -0.145,-1.474 1.092,-3.36 1.604,-3.608 0.642,-0.293 2.306,-0.465 3.207,0.269 0.898,0.734 0.763,2.282 0.49,3.452 -0.137,0.592 -0.205,1.152 -0.217,1.684"
         style="fill:#fa96ba;fill-opacity:1;fill-rule:nonzero;stroke:none"
         id="path1722" />
      <path
         d="m 359.5879,543.5996 c -0.328,0.656 -0.846,0.949 -1.541,0.879 -0.797,-0.087 -1.742,-0.705 -2,-1.725 -0.221,-0.866 -0.111,-2.141 0.395,-2.592 0.47,-0.414 1.46,-0.117 2.007,0.095 1.307,0.511 2.463,0.59 3.461,0.415 0.035,0.212 0.074,0.422 0.112,0.63 -0.969,0.417 -1.854,1.122 -2.434,2.298"
         style="fill:#fa96ba;fill-opacity:1;fill-rule:nonzero;stroke:none"
         id="path1726" />
      <path
         d="m 393.4531,519.3164 c -0.42,-0.259 -0.852,-0.496 -1.295,-0.725 0.69,-1.636 1.008,-3.491 0.381,-5.346 -0.223,-0.656 -0.004,-1.283 0.652,-1.866 0.883,-0.783 2.018,-0.975 2.28,-0.848 0.683,0.365 2.052,1.626 2.107,2.879 0.033,0.764 -0.475,1.5 -1.518,2.185 -1.166,0.768 -2.039,2.016 -2.607,3.721"
         style="fill:#fa96ba;fill-opacity:1;fill-rule:nonzero;stroke:none"
         id="path1730" />
      <path
         d="m 404.0254,549.8887 c 1.545,0.117 2.748,0.737 3.139,1.569 0.32,0.681 -0.006,1.398 -0.34,1.871 -0.518,0.688 -1.602,1.683 -2.299,1.609 -0.506,-0.051 -0.93,-0.796 -1.135,-1.239 -1.119,-2.386 -2.668,-3.638 -3.842,-4.283 0.161,-0.222 0.317,-0.444 0.467,-0.673 0.67,0.516 1.867,0.981 4.01,1.146"
         style="fill:#fa96ba;fill-opacity:1;fill-rule:nonzero;stroke:none"
         id="path1734" />
      <path
         d="m 406.1543,531.0361 c -1.273,-0.151 -2.357,-0.048 -3.25,0.305 0.619,-0.452 1.34,-1.181 2.17,-2.308 0.916,-1.25 2.055,-1.956 2.967,-1.85 0.666,0.082 1.074,0.601 1.314,1.091 -0.008,0.439 -0.099,1.566 -0.806,2.232 -0.512,0.482 -1.319,0.66 -2.395,0.53"
         style="fill:#fa96ba;fill-opacity:1;fill-rule:nonzero;stroke:none"
         id="path1738" />
      <path
         d="m 393.1582,540.0723 c -0.807,-0.913 -1.801,-1.412 -2.666,-1.412 -0.453,0 -0.871,0.139 -1.207,0.422 -0.502,0.422 -0.566,1.171 -0.143,1.671 0.36,0.423 0.952,0.534 1.428,0.299 0.301,0.101 0.981,0.564 1.236,1.307 0.26,0.747 -0.033,1.518 -0.875,2.287 -0.712,0.653 -1.767,1.324 -2.767,0.821 -0.795,-0.404 -1.254,-1.382 -1.18,-2.042 0.072,-0.653 -0.394,-1.239 -1.049,-1.31 -0.65,-0.071 -1.236,0.398 -1.306,1.05 -0.19,1.71 0.873,3.606 2.463,4.415 0.806,0.408 2.945,1.108 5.441,-1.186 2.527,-2.318 1.918,-4.854 0.625,-6.322 m -12.371,-9.002 c -0.406,-0.513 -1.154,-0.598 -1.668,-0.192 -0.397,0.319 -0.539,0.842 -0.387,1.301 -0.121,0.217 -0.455,0.584 -0.888,0.692 -0.45,0.111 -0.918,-0.112 -1.395,-0.664 -0.432,-0.5 -0.875,-1.224 -0.537,-1.847 0.271,-0.501 0.916,-0.785 1.328,-0.727 0.647,0.089 1.246,-0.36 1.338,-1.009 0.092,-0.646 -0.361,-1.247 -1.01,-1.337 -0.148,-0.023 -0.295,-0.031 -0.445,-0.031 -1.313,0 -2.645,0.779 -3.293,1.97 -0.359,0.662 -0.998,2.423 0.824,4.532 1.74,2.009 3.887,1.779 5.238,0.654 1.221,-1.01 1.604,-2.445 0.895,-3.342 m 9.32,23.04 c -0.111,-0.039 -0.23,-0.11 -0.357,-0.11 h -0.035 c -0.434,0 -1.002,0.237 -1.33,0.778 -0.87,0.289 -1.764,0.329 -2.686,0.483 -0.133,-0.047 -0.273,0.04 -0.42,0.04 -0.267,0 -0.523,0.148 -0.734,0.298 -0.655,0.07 -1.317,0.138 -1.989,0.138 -1.503,0 -2.964,-0.167 -4.369,-0.51 0.871,-0.881 1.826,-1.707 2.653,-2.332 0.521,-0.394 0.623,-1.134 0.228,-1.656 -0.394,-0.523 -1.139,-0.625 -1.658,-0.23 -0.565,0.429 -2.26,1.76 -3.742,3.427 -0.953,-0.385 -1.873,-0.841 -2.744,-1.37 0.423,-2.828 -0.237,-5.705 -0.286,-5.906 -0.128,-0.546 -0.615,-0.912 -1.15,-0.912 -0.09,0 -0.182,0.011 -0.273,0.031 -0.639,0.15 -1.034,0.791 -0.883,1.428 0.195,0.82 0.41,2.283 0.365,3.761 -2.609,-2.168 -4.613,-5.042 -5.725,-8.321 1.022,0.015 1.875,0.237 1.895,0.239 0.629,0.172 1.283,-0.197 1.455,-0.83 0.172,-0.629 -0.197,-1.278 -0.828,-1.451 -0.113,-0.037 -1.516,-0.408 -3.154,-0.31 -0.071,-0.352 -0.127,-0.703 -0.176,-1.061 0.869,-0.602 1.48,-1.366 1.808,-1.983 0.307,-0.577 0.086,-1.292 -0.492,-1.599 -0.179,-0.096 -0.367,-0.134 -0.554,-0.134 -0.356,0 -0.694,0.177 -0.92,0.462 0.228,-5.875 3.201,-11.039 7.67,-14.28 0.349,1.273 0.529,2.048 0.541,3.215 0.009,0.647 0.537,0.585 1.187,0.585 h 0.008 c 0.658,0 1.184,0.044 1.176,-0.612 0,-0.073 -0.022,-1.57 -0.43,-3.441 -0.117,-0.539 -0.252,-0.839 -0.41,-1.296 0.353,-0.191 0.715,-0.268 1.082,-0.436 0.758,2.468 2.551,3.903 2.662,3.987 0.521,0.394 1.264,0.315 1.656,-0.206 0.397,-0.522 0.293,-1.251 -0.224,-1.646 -0.086,-0.068 -1.375,-1.092 -1.864,-2.903 1.737,-0.541 3.586,-0.829 5.496,-0.829 2.204,0 4.317,0.392 6.28,1.097 -1.049,1.5 -2.205,2.543 -2.233,2.563 -0.488,0.433 -0.533,1.184 -0.099,1.674 0.433,0.488 1.181,0.537 1.672,0.102 0.123,-0.109 1.595,-1.433 2.863,-3.374 0.642,0.33 1.262,0.693 1.855,1.092 -0.047,0.338 -0.093,0.677 -0.125,1.037 -0.23,2.495 0.014,4.654 0.026,4.745 0.076,0.649 0.664,1.114 1.314,1.039 0.649,-0.075 1.115,-0.663 1.041,-1.312 -0.097,-0.84 -0.166,-2.265 -0.062,-3.782 2.097,1.923 3.752,4.325 4.797,7.024 -0.096,0.438 0.056,0.903 0.414,1.187 0.177,0.567 0.326,1.164 0.449,1.753 -0.188,0.472 -0.225,0.871 -0.231,0.941 l 0.401,0.081 c 0.14,0.918 0.211,1.729 0.211,2.687 0,7.552 -4.535,14.038 -11.022,16.938"
         style="fill:#fa96ba;fill-opacity:1;fill-rule:nonzero;stroke:none"
         id="path1742" />
      <path
         d="m 411.1035,540.3877 c -2.055,0 -3.721,1.675 -3.721,3.735 0,2.062 1.666,3.737 3.721,3.737 2.049,0 3.713,-1.675 3.713,-3.737 0,-2.06 -1.664,-3.735 -3.713,-3.735 m 0.619,-12.46 -0.015,-0.195 -0.077,-0.18 c -0.65,-1.559 -1.857,-2.549 -3.31,-2.723 -0.153,-0.017 -0.307,-0.027 -0.459,-0.027 -1.653,0 -3.379,1.029 -4.697,2.827 -0.54,0.732 -0.965,1.197 -1.284,1.493 -1.386,-3.306 -3.599,-6.181 -6.379,-8.375 0.348,-1.365 0.926,-2.558 1.864,-3.172 2.226,-1.464 2.633,-3.131 2.582,-4.271 -0.104,-2.289 -2.114,-4.2 -3.36,-4.865 -0.404,-0.219 -0.869,-0.313 -1.353,-0.313 -1.225,0 -2.59,0.608 -3.514,1.393 -1.457,1.232 -1.976,2.866 -1.429,4.486 0.406,1.197 0.195,2.454 -0.288,3.618 -2.314,-0.885 -4.822,-1.372 -7.447,-1.372 -1.932,0 -3.803,0.27 -5.582,0.762 0.018,-0.1 0.029,-0.194 0.055,-0.297 0.767,-3.31 -0.285,-4.996 -1.303,-5.829 -0.949,-0.771 -2.17,-1.059 -3.297,-1.059 -0.931,0 -1.801,0.196 -2.396,0.471 -1.516,0.695 -3.19,3.574 -2.977,5.942 0.151,1.731 1.229,2.942 3.035,3.41 0.196,0.049 0.375,0.172 0.543,0.34 -2.297,1.597 -4.256,3.636 -5.758,6.002 l -2.836,-3.293 c -0.96,-1.116 -1.927,-1.39 -2.644,-1.39 -0.102,0 -0.197,0.007 -0.287,0.015 -1.731,0.178 -2.83,1.875 -3.082,2.297 -0.846,1.169 -1.045,2.503 -0.555,3.77 0.651,1.686 2.453,2.968 4.815,3.422 0.744,0.145 1.195,0.282 1.457,0.385 0.013,0.244 0.099,0.482 0.267,0.688 0.069,0.085 0.149,0.153 0.235,0.214 -0.411,1.632 -0.631,3.336 -0.631,5.092 0,0.372 0.009,0.742 0.033,1.111 -0.637,0.136 -1.408,0.105 -2.34,-0.256 -2.326,-0.907 -3.697,-0.316 -4.435,0.34 -1.54,1.356 -1.411,3.832 -1.125,4.948 0.47,1.857 2.134,3.295 4.05,3.498 1.678,0.181 3.143,-0.636 3.912,-2.181 0.219,-0.448 0.547,-0.768 0.934,-0.997 1.375,4.234 4.066,7.877 7.584,10.451 -0.297,0.781 -0.762,1.429 -1.467,1.785 -2.144,1.078 -2.685,2.517 -2.758,3.535 -0.16,2.198 1.633,4.064 2.604,4.743 1.312,0.919 3.338,0.461 4.674,-0.353 1.642,-0.999 2.47,-2.624 2.238,-4.342 -0.078,-0.578 0.285,-1.38 0.908,-2.244 1.93,0.585 3.504,0.904 5.617,0.904 0.495,0 0.955,-0.021 0.955,-0.056 v 4.161 c 0,1.554 1.272,2.396 1.856,2.826 1.594,1.174 4.338,0.556 4.836,0.409 1.674,-0.343 3.028,-1.35 3.503,-2.768 0.578,-1.726 0.05,-3.741 -1.558,-5.527 -0.304,-0.338 -0.493,-0.606 -0.663,-0.828 2.684,-1.187 5.089,-2.919 7.04,-5.056 0.779,0.343 2.199,1.229 3.223,3.412 0.928,1.987 2.177,2.508 3.054,2.593 2.314,0.231 4.235,-2.274 4.444,-2.56 l 0.014,-0.016 c 0.978,-1.376 1.181,-2.923 0.564,-4.247 -0.764,-1.629 -2.672,-2.714 -5.105,-2.902 -1.852,-0.142 -2.516,-0.585 -2.696,-0.701 -0.053,-0.125 -0.123,-0.243 -0.209,-0.356 1.405,-2.809 2.197,-5.977 2.197,-9.326 0,-1.124 -0.091,-2.232 -0.263,-3.311 0.369,-0.352 1.117,-0.672 2.638,-0.49 1.815,0.217 3.268,-0.18 4.315,-1.177 1.668,-1.587 1.549,-4.016 1.533,-4.288 m -54.967,-16.146 c -1.715,0 -3.109,1.403 -3.109,3.125 0,1.721 1.394,3.123 3.109,3.123 1.715,0 3.112,-1.402 3.112,-3.123 0,-1.722 -1.397,-3.125 -3.112,-3.125 m 22.444,57.615 c 1.717,0 3.111,-1.403 3.111,-3.126 0,-1.72 -1.394,-3.124 -3.111,-3.124 -1.715,0 -3.112,1.404 -3.112,3.124 0,1.723 1.397,3.126 3.112,3.126 m 2.443,12.644 c -24.182,0 -43.789,-19.604 -43.789,-43.79 0,-24.18 19.607,-43.788 43.789,-43.788 24.184,0 43.789,19.608 43.789,43.788 0,24.186 -19.605,43.79 -43.789,43.79"
         style="fill:#fa96ba;fill-opacity:1;fill-rule:nonzero;stroke:none"
         id="path1746" />
    </g>
  </g>
</svg>
