<?xml version="1.0" encoding="UTF-8" standalone="no"?>
<svg
   xmlns:dc="http://purl.org/dc/elements/1.1/"
   xmlns:cc="http://creativecommons.org/ns#"
   xmlns:rdf="http://www.w3.org/1999/02/22-rdf-syntax-ns#"
   xmlns:svg="http://www.w3.org/2000/svg"
   xmlns="http://www.w3.org/2000/svg"
   xmlns:xlink="http://www.w3.org/1999/xlink"
   id="foto-seno"
   version="1.1"
   viewBox="0 0 200 221.79305">
  <defs
     id="defs7293">
    <clipPath
       id="clipPath7412"
       clipPathUnits="userSpaceOnUse">
      <path
         style="opacity:1;fill:#dedde3;fill-opacity:1;fill-rule:nonzero;stroke:none;stroke-width:1;stroke-linecap:round;stroke-linejoin:round;stroke-miterlimit:4;stroke-dasharray:none;stroke-opacity:1"
         d="m 108.3954,12.918478 c -0.85688,1.578891 -1.78191,3.131327 -2.78071,4.65553 -0.99879,1.524202 -2.07106,3.019986 -3.22202,4.485514 -0.96394,1.227641 -1.9578,2.423061 -2.978116,3.589962 -1.020321,1.1669 -2.06737,2.305447 -3.137276,3.418912 -1.069909,1.113465 -2.162553,2.202234 -3.275253,3.269568 -1.112697,1.067334 -2.245416,2.113419 -3.394107,3.141927 -2.297385,2.057017 -4.659982,4.043759 -7.060552,5.989298 -2.400569,1.945542 -4.839067,3.849786 -7.288445,5.742287 -2.872563,2.219057 -5.754055,4.427122 -8.608258,6.665743 -2.854204,2.238618 -5.680808,4.507778 -8.443931,6.84971 -1.381559,1.170967 -2.747616,2.359893 -4.092771,3.572391 -1.345158,1.212499 -2.669606,2.448455 -3.969269,3.712954 -1.29966,1.264497 -2.574329,2.557547 -3.819403,3.884517 -1.245076,1.326968 -2.460755,2.687699 -3.642156,4.087606 -1.091489,1.293151 -2.157156,2.599944 -3.194122,3.922239 -1.036963,1.322295 -2.045253,2.660391 -3.020486,4.016293 -0.975234,1.355905 -1.917818,2.729799 -2.824117,4.12378 -0.9063,1.393981 -1.775882,2.808176 -2.606043,4.244703 -0.830161,1.436523 -1.62048,2.895007 -2.367297,4.378544 -0.746817,1.483537 -1.450579,2.991837 -2.106848,4.526854 -0.656269,1.53502 -1.265145,3.09712 -1.823662,4.68809 -0.558516,1.59096 -1.066245,3.21085 -1.519804,4.86223 -0.556192,2.02561 -1.024749,4.04456 -1.405082,6.057 -0.380333,2.01242 -0.67283,4.01818 -0.877466,6.0172 -0.204635,1.99901 -0.321266,3.99154 -0.350366,5.97689 -0.0291,1.98536 0.02943,3.9636 0.1757,5.93504 0.146274,1.97145 0.380281,3.93589 0.701766,5.89318 0.321486,1.9573 0.730263,3.9074 1.226798,5.85029 0.496536,1.9429 1.080926,3.87863 1.752348,5.80688 0.671423,1.92825 1.430199,3.84907 2.276347,5.76244 0.870485,1.96843 1.805311,3.88543 2.80138,5.75314 0.996068,1.86771 2.05355,3.68618 3.168798,5.45806 1.115249,1.77189 2.288042,3.49702 3.516065,5.17798 1.228025,1.68096 2.510849,3.31795 3.845243,4.91288 1.334395,1.59493 2.720425,3.14794 4.154787,4.66173 1.434359,1.5138 2.917282,2.98801 4.445206,4.42557 1.527921,1.43756 3.100909,2.83818 4.715992,4.2044 1.61508,1.36621 3.272337,2.69843 4.968171,3.9982 2.468713,1.89211 4.932479,3.68663 7.419702,5.3852 1.243611,0.84928 2.492775,1.67452 3.75171,2.47582 1.258933,0.8013 2.527686,1.57858 3.809069,2.33216 1.281382,0.75358 2.575621,1.4834 3.886583,2.18953 1.310963,0.70612 2.638648,1.38848 3.986321,2.04742 1.347671,0.65894 2.715215,1.29483 4.106725,1.90686 1.391513,0.61202 2.806875,1.20041 4.249354,1.76578 0.757727,0.29671 2.377202,0.87017 3.13676,1.16117 1.902621,0.7269 3.806912,1.45218 5.717479,2.15749 1.910566,0.70531 3.827376,1.39045 5.756756,2.03605 1.92938,0.6456 3.87109,1.2516 5.83013,1.79938 1.95905,0.54777 3.93546,1.03717 5.93504,1.449 2.87613,0.59232 5.80857,1.16837 8.77311,1.69086 2.96454,0.52248 5.96148,0.99134 8.96689,1.37046 1.50271,0.18956 3.00734,0.35668 4.51135,0.49661 1.50402,0.13992 3.00734,0.25272 4.50671,0.33383 1.49937,0.0811 2.99465,0.13057 4.48344,0.14366 1.4888,0.0131 2.97088,-0.0103 4.44314,-0.0744 l 58.50806,0.11369 V 12.918478 Z"
         id="path7414" />
    </clipPath>
  </defs>
  <metadata
     id="metadata7296">
    <rdf:RDF>
      <cc:Work
         rdf:about="">
        <dc:format>image/svg+xml</dc:format>
        <dc:type
           rdf:resource="http://purl.org/dc/dcmitype/StillImage" />
        <dc:title></dc:title>
      </cc:Work>
    </rdf:RDF>
  </metadata>
  <g
     transform="translate(-10.114578,-12.918478)"
     id="layer1">
    <image
       xlink:href="multimedia/img/image102.png
"
       y="12.315001"
       x="-111.42648"
       id="carousel-foto"
       preserveAspectRatio="none"
       height="223"
       width="475.19348"
       clip-path="url(#clipPath7412)" />
    <path
       transform="matrix(0.26458333,0,0,0.26458333,10.114578,12.918478)"
       id="path7404"
       d="M 371.45508 0 C 368.21647 5.9674625 364.72029 11.834937 360.94531 17.595703 C 357.17034 23.356469 353.11766 29.009825 348.76758 34.548828 C 345.12436 39.188729 341.36805 43.706855 337.51172 48.117188 C 333.65539 52.52752 329.69804 56.830691 325.6543 61.039062 C 321.61055 65.247434 317.48087 69.362466 313.27539 73.396484 C 309.06992 77.430503 304.78878 81.38421 300.44727 85.271484 C 291.76424 93.046034 282.83474 100.55498 273.76172 107.9082 C 264.6887 115.26143 255.47233 122.45857 246.21484 129.61133 C 235.35791 137.99832 224.46723 146.34376 213.67969 154.80469 C 202.89215 163.26561 192.20892 171.84196 181.76562 180.69336 C 176.54398 185.11906 171.38093 189.61264 166.29688 194.19531 C 161.21282 198.77798 156.20703 203.44931 151.29492 208.22852 C 146.38282 213.00772 141.56517 217.89484 136.85938 222.91016 C 132.15358 227.92547 127.55889 233.06839 123.09375 238.35938 C 118.96844 243.24688 114.94072 248.18594 111.02148 253.18359 C 107.10225 258.18124 103.29139 263.23861 99.605469 268.36328 C 95.919547 273.48796 92.357024 278.68063 88.931641 283.94922 C 85.506257 289.21781 82.219646 294.5628 79.082031 299.99219 C 75.944416 305.42157 72.957382 310.93395 70.134766 316.54102 C 67.31215 322.14809 64.652262 327.84875 62.171875 333.65039 C 59.691488 339.45203 57.390225 345.35605 55.279297 351.36914 C 53.168369 357.38224 51.249395 363.50466 49.535156 369.74609 C 47.433011 377.40192 45.662088 385.03263 44.224609 392.63867 C 42.787131 400.24471 41.681627 407.82552 40.908203 415.38086 C 40.134779 422.93619 39.693967 430.467 39.583984 437.9707 C 39.474002 445.4744 39.6952 452.95121 40.248047 460.40234 C 40.800894 467.85348 41.685327 475.27813 42.900391 482.67578 C 44.115454 490.07343 45.660441 497.44388 47.537109 504.78711 C 49.413778 512.13034 51.622495 519.44649 54.160156 526.73438 C 56.697817 534.02226 59.565631 541.28205 62.763672 548.51367 C 66.053692 555.95341 69.586894 563.19875 73.351562 570.25781 C 77.116231 577.31687 81.113014 584.18983 85.328125 590.88672 C 89.543236 597.58361 93.97584 604.1038 98.617188 610.45703 C 103.25854 616.81026 108.10701 622.99732 113.15039 629.02539 C 118.19377 635.05347 123.43231 640.9231 128.85352 646.64453 C 134.27472 652.36596 139.87947 657.93781 145.6543 663.37109 C 151.42912 668.80438 157.37427 674.09807 163.47852 679.26172 C 169.58276 684.42537 175.84641 689.46052 182.25586 694.37305 C 191.58643 701.52434 200.8983 708.30678 210.29883 714.72656 C 214.99909 717.93645 219.72034 721.05546 224.47852 724.08398 C 229.23669 727.11251 234.03198 730.05027 238.875 732.89844 C 243.71802 735.74661 248.60963 738.505 253.56445 741.17383 C 258.51927 743.84265 263.53729 746.42162 268.63086 748.91211 C 273.72442 751.4026 278.89309 753.80597 284.15234 756.11914 C 289.4116 758.43231 294.761 760.65612 300.21289 762.79297 C 303.07674 763.91437 309.19759 766.0818 312.06836 767.18164 C 319.25937 769.92897 326.45669 772.6702 333.67773 775.33594 C 340.89878 778.00167 348.14342 780.59119 355.43555 783.03125 C 362.72768 785.47131 370.06643 787.7617 377.4707 789.83203 C 384.87498 791.90236 392.34487 793.75207 399.90234 795.30859 C 410.77277 797.54725 421.85598 799.72448 433.06055 801.69922 C 444.26512 803.67396 455.59213 805.44603 466.95117 806.87891 C 472.63069 807.59535 478.3175 808.227 484.00195 808.75586 C 489.6864 809.28472 495.36824 809.71104 501.03516 810.01758 C 506.70207 810.32412 512.35354 810.51108 517.98047 810.56055 C 523.6074 810.61002 529.20896 810.52163 534.77344 810.2793 L 755.90625 810.70898 L 755.90625 0 L 371.45508 0 z "
       style="opacity:1;fill:#000000;fill-opacity:0.59898478;fill-rule:nonzero;stroke:none;stroke-width:3.77952766;stroke-linecap:round;stroke-linejoin:round;stroke-miterlimit:4;stroke-dasharray:none;stroke-opacity:1" />
    <path
       transform="matrix(0.26458333,0,0,0.26458333,10.114578,12.918478)"
       id="path7402"
       d="M 357.2832 0 C 353.86584 4.8219384 350.27245 9.5166588 346.51367 14.095703 C 342.75489 18.674747 338.83073 23.138572 334.75781 27.494141 C 330.6849 31.849709 326.46134 36.09849 322.10156 40.25 C 317.74179 44.40151 313.24631 48.455005 308.62695 52.421875 C 303.88968 56.490403 299.08201 60.461384 294.21484 64.351562 C 289.34768 68.241741 284.42114 72.050541 279.44922 75.796875 C 269.50538 83.289543 259.37801 90.529968 249.16602 97.654297 C 238.95402 104.77863 228.65792 111.78827 218.37891 118.82031 C 208.0999 125.85235 197.8363 132.90725 187.69141 140.12305 C 177.83717 147.13306 168.17325 154.34599 158.74023 161.81055 C 154.02373 165.54282 149.36506 169.33736 144.76953 173.20117 C 140.174 177.06499 135.64184 180.99858 131.17773 185.00586 C 126.71363 189.01314 122.31832 193.09513 117.99609 197.25781 C 113.67387 201.4205 109.42381 205.66412 105.25391 209.99414 C 101.084 214.32416 96.993465 218.74072 92.986328 223.25 C 88.979191 227.75928 85.056577 232.36006 81.222656 237.06055 C 75.914376 243.5697 70.731661 250.17466 65.796875 256.95508 C 63.329482 260.34529 60.923342 263.77975 58.595703 267.26758 C 56.268065 270.75541 54.018291 274.29702 51.861328 277.90234 C 50.080863 280.87755 48.212127 283.78316 46.242188 286.60156 C 44.272248 289.41997 42.200508 292.15122 40.015625 294.77734 C 37.830742 297.40347 35.532718 299.9239 33.107422 302.32227 C 30.682126 304.72063 28.130631 306.99768 25.439453 309.13281 C 22.466944 311.49066 19.765155 313.93044 17.330078 316.45117 C 14.895001 318.9719 12.725596 321.57325 10.816406 324.25195 C 8.907216 326.93066 7.2581305 329.6858 5.8632812 332.51758 C 4.468432 335.34936 3.3276006 338.25834 2.4355469 341.23828 C 1.5434931 344.21822 0.90080386 347.26938 0.5 350.39258 C 0.099196139 353.51577 -0.059369249 356.70916 0.01953125 359.9707 C 0.098431749 363.23225 0.41387819 366.56204 0.9609375 369.95703 C 1.5079968 373.35202 2.2873431 376.81241 3.2910156 380.33594 C 4.0145833 382.87651 4.523496 385.39046 4.8613281 387.88477 C 5.1991602 390.37907 5.366174 392.85422 5.4023438 395.32227 C 5.4385135 397.79031 5.3435288 400.25108 5.1621094 402.71289 C 4.9806899 405.1747 4.7114198 407.6377 4.3964844 410.11328 C 3.6485128 416.00434 3.0928897 421.8707 2.7246094 427.71289 C 2.3563291 433.55508 2.1765025 439.37373 2.1816406 445.16797 C 2.1867787 450.96221 2.3757633 456.7313 2.7480469 462.47852 C 3.1203305 468.22573 3.6750469 473.95122 4.4082031 479.65234 C 5.1413594 485.35346 6.0528689 491.03156 7.140625 496.6875 C 8.2283811 502.34344 9.4936045 507.9762 10.929688 513.58789 C 12.36577 519.19958 13.973816 524.78906 15.751953 530.35742 C 17.53009 535.92579 19.477879 541.47404 21.591797 547 C 23.350247 551.59704 25.191957 556.1266 27.115234 560.5918 C 29.038511 565.05699 31.042677 569.45654 33.126953 573.79297 C 35.211229 578.12939 37.37574 582.40255 39.617188 586.61328 C 41.858635 590.82401 44.177473 594.97243 46.572266 599.06055 C 48.967058 603.14866 51.438113 607.17595 53.982422 611.14453 C 56.526731 615.11311 59.143986 619.02288 61.833984 622.875 C 64.523983 626.72712 67.285327 630.52298 70.117188 634.26172 C 72.949048 638.00045 75.85237 641.68212 78.822266 645.31055 C 81.792161 648.93897 84.829491 652.51396 87.933594 656.03516 C 91.037697 659.55635 94.206923 663.02436 97.441406 666.44141 C 103.91037 673.27549 110.63795 679.90391 117.60547 686.33984 C 124.57299 692.77578 131.78134 699.01963 139.2168 705.08203 C 146.65225 711.14443 154.31473 717.02481 162.1875 722.73828 C 169.97503 728.39069 177.88665 733.81782 185.93164 739.00586 C 193.97663 744.1939 202.15376 749.1429 210.4707 753.84375 C 218.78764 758.5446 227.24429 762.99664 235.84766 767.1875 C 244.45102 771.37836 253.20119 775.30875 262.10547 778.9668 C 262.10547 778.9668 274.48444 783.8641 280.58984 786.42773 C 289.1392 790.01859 297.67151 793.56524 306.25977 796.91602 C 314.84802 800.26679 323.49161 803.42206 332.25977 806.22656 C 341.251 809.10279 350.26592 811.77924 359.30469 814.25781 C 368.34346 816.73638 377.40549 819.01617 386.49609 821.09766 C 395.5867 823.17914 404.70481 825.06307 413.85156 826.74805 C 422.99831 828.43302 432.17367 829.91994 441.38086 831.20898 C 450.58805 832.49803 459.82768 833.58874 469.09961 834.48242 C 478.37154 835.3761 487.6766 836.07141 497.01758 836.57031 C 506.35856 837.06921 515.73411 837.37187 525.14844 837.47656 C 534.56276 837.58125 544.01584 837.48816 553.50781 837.19922 L 755.90625 837.91602 L 755.90625 810.70898 L 534.77344 810.2793 C 529.20896 810.52163 523.6074 810.61002 517.98047 810.56055 C 512.35354 810.51108 506.70207 810.32412 501.03516 810.01758 C 495.36824 809.71104 489.6864 809.28472 484.00195 808.75586 C 478.3175 808.227 472.63069 807.59535 466.95117 806.87891 C 455.59213 805.44603 444.26512 803.67396 433.06055 801.69922 C 421.85598 799.72448 410.77277 797.54725 399.90234 795.30859 C 392.34487 793.75207 384.87498 791.90236 377.4707 789.83203 C 370.06643 787.7617 362.72768 785.47131 355.43555 783.03125 C 348.14342 780.59119 340.89878 778.00167 333.67773 775.33594 C 326.45669 772.6702 319.25937 769.92897 312.06836 767.18164 C 309.19759 766.0818 303.07674 763.91437 300.21289 762.79297 C 294.761 760.65612 289.4116 758.43231 284.15234 756.11914 C 278.89309 753.80597 273.72442 751.4026 268.63086 748.91211 C 263.53729 746.42162 258.51927 743.84265 253.56445 741.17383 C 248.60963 738.505 243.71802 735.74661 238.875 732.89844 C 234.03198 730.05027 229.23669 727.11251 224.47852 724.08398 C 219.72034 721.05546 214.99909 717.93645 210.29883 714.72656 C 200.8983 708.30678 191.58643 701.52434 182.25586 694.37305 C 175.84641 689.46052 169.58276 684.42537 163.47852 679.26172 C 157.37427 674.09807 151.42912 668.80438 145.6543 663.37109 C 139.87947 657.93781 134.27472 652.36596 128.85352 646.64453 C 123.43231 640.9231 118.19377 635.05347 113.15039 629.02539 C 108.10701 622.99732 103.25854 616.81026 98.617188 610.45703 C 93.97584 604.1038 89.543236 597.58361 85.328125 590.88672 C 81.113014 584.18983 77.116231 577.31687 73.351562 570.25781 C 69.586894 563.19875 66.053692 555.95341 62.763672 548.51367 C 59.565631 541.28205 56.697817 534.02226 54.160156 526.73438 C 51.622495 519.44649 49.413778 512.13034 47.537109 504.78711 C 45.660441 497.44388 44.115454 490.07343 42.900391 482.67578 C 41.685327 475.27813 40.800894 467.85348 40.248047 460.40234 C 39.6952 452.95121 39.474002 445.4744 39.583984 437.9707 C 39.693967 430.467 40.134779 422.93619 40.908203 415.38086 C 41.681627 407.82552 42.787131 400.24471 44.224609 392.63867 C 45.662088 385.03263 47.433011 377.40192 49.535156 369.74609 C 51.249395 363.50466 53.168369 357.38224 55.279297 351.36914 C 57.390225 345.35605 59.691488 339.45203 62.171875 333.65039 C 64.652262 327.84875 67.31215 322.14809 70.134766 316.54102 C 72.957382 310.93395 75.944416 305.42157 79.082031 299.99219 C 82.219646 294.5628 85.506257 289.21781 88.931641 283.94922 C 92.357024 278.68063 95.919547 273.48796 99.605469 268.36328 C 103.29139 263.23861 107.10225 258.18124 111.02148 253.18359 C 114.94072 248.18594 118.96844 243.24688 123.09375 238.35938 C 127.55889 233.06839 132.15358 227.92547 136.85938 222.91016 C 141.56517 217.89484 146.38282 213.00772 151.29492 208.22852 C 156.20703 203.44931 161.21282 198.77798 166.29688 194.19531 C 171.38093 189.61264 176.54398 185.11906 181.76562 180.69336 C 192.20892 171.84196 202.89215 163.26561 213.67969 154.80469 C 224.46723 146.34376 235.35791 137.99832 246.21484 129.61133 C 255.47233 122.45857 264.6887 115.26143 273.76172 107.9082 C 282.83474 100.55498 291.76424 93.046034 300.44727 85.271484 C 304.78878 81.38421 309.06992 77.430503 313.27539 73.396484 C 317.48087 69.362466 321.61055 65.247434 325.6543 61.039062 C 329.69804 56.830691 333.65539 52.52752 337.51172 48.117188 C 341.36805 43.706855 345.12436 39.188729 348.76758 34.548828 C 353.11766 29.009825 357.17034 23.356469 360.94531 17.595703 C 364.72029 11.834937 368.21647 5.9674625 371.45508 0 L 357.2832 0 z "
       style="opacity:1;fill:#808080;fill-opacity:1;fill-rule:nonzero;stroke:none;stroke-width:3.77952766;stroke-linecap:round;stroke-linejoin:round;stroke-miterlimit:4;stroke-dasharray:none;stroke-opacity:1" />
    <g
       id="g7261"
       transform="matrix(0.25958458,0,0,-0.25958458,-153.56343,445.51618)">
      <path
         transform="matrix(0.75000002,0,0,-0.75000002,0,1800)"
         id="path7280"
         d="m 1372.1953,178 h -19.2578 c -18.5769,26.21211 -41.0141,49.67822 -66.125,71.24219 -51.504,44.23333 -109.2055,79.96021 -164.3535,119.18554 -53.568,38.10667 -103.0088,80.63624 -144.69142,131.74024 -14.428,17.692 -28.17897,35.90524 -39.9043,55.50391 -9.67867,16.17333 -21.27692,30.83669 -35.90625,42.44335 -32.31733,25.63467 -41.01223,58.45958 -30.10156,96.76758 3.93333,13.81067 3.2159,27.00751 1.50391,40.46485 -8.132,64.04799 0.38647,125.95258 23.36914,186.03125 38.23599,99.95869 105.47638,176.71669 191.06838,238.83399 42.3333,30.7267 87.3889,56.5326 135.7929,76.418 0,0 16.8219,6.6611 25.1192,10.1464 23.2373,9.76 46.3867,19.2973 70.2187,26.92 97.7534,31.2706 197.6471,48.7683 300.6778,42.123 l 247.0605,-5.75 v -39.5234 l -244.5703,-0.9258 c -84.164,2.4453 -157.4736,-3.1517 -211.2402,-10.7891 -41.528,-5.9 -80.2766,-23.2919 -119.3672,-38.2265 -3.9014,-1.4947 -12.2213,-4.4389 -16.1133,-5.9629 -59.2733,-23.232 -109.5834,-54.1097 -160.3047,-92.9844 -69.684,-53.4093 -126.62128,-117.3373 -162.39061,-198.22265 -34.76933,-78.62267 -40.83318,-159.7126 -17.97852,-242.94727 18.63733,-67.85733 55.11809,-125.41735 99.96873,-178.55469 48.5454,-57.52399 108.3036,-102.19901 167.3223,-147.79101 50.324,-38.88267 99.7617,-78.74412 139.3711,-129.18946 11.8233,-15.05474 22.0296,-30.73391 30.832,-46.95312 z"
         style="fill:#00b7b7;fill-opacity:1;fill-rule:evenodd;stroke:none;stroke-width:1.33333325" />
      <path
         transform="matrix(0.75000002,0,0,-0.75000002,0,1800)"
         id="path7277"
         d="m 1345.5293,178 h -19.2598 c -18.5769,26.21223 -41.014,49.67814 -66.125,71.24219 -51.504,44.23333 -109.2035,79.96021 -164.3515,119.18554 -53.568,38.10667 -103.01073,80.63624 -144.69339,131.74024 -14.428,17.692 -28.17701,35.90524 -39.90234,55.50391 -9.67867,16.17333 -21.27887,30.83473 -35.90821,42.4414 -32.31733,25.63467 -41.01161,58.45958 -30.09961,96.76758 3.93334,13.81067 3.21591,27.00946 1.50391,40.4668 -8.132,64.04799 0.38452,125.95063 23.36719,186.02929 38.236,99.95865 105.47698,176.71475 191.07035,238.83205 42.3333,30.7267 87.387,56.5287 135.791,76.414 0,0 16.8218,6.6547 25.1191,10.1387 23.2373,9.76 46.3887,19.2836 70.2207,26.9063 97.7533,31.2706 197.4804,45.2351 300.6778,42.0937 L 1868,1316.7344 v -36.9727 l -300.5195,-0.584 c -60.4974,2.6347 -124.199,-8.1763 -183.291,-20.3457 -41.0827,-8.4613 -80.2766,-23.2919 -119.3672,-38.2265 -3.9014,-1.4947 -12.2213,-4.4389 -16.1133,-5.9629 -59.2733,-23.232 -109.5834,-54.1097 -160.3047,-92.9844 -69.684,-53.4093 -126.6213,-117.3373 -162.39063,-198.22265 -34.76933,-78.62267 -40.83318,-159.7126 -17.97851,-242.94727 18.63733,-67.85733 55.11808,-125.41735 99.96874,-178.55469 48.5453,-57.52399 108.3036,-102.19901 167.3223,-147.79101 50.324,-38.88267 99.7598,-78.74412 139.3691,-129.18946 11.8236,-15.05511 22.0314,-30.73345 30.834,-46.95312 z"
         style="fill:#f97ca9;fill-opacity:1;fill-rule:evenodd;stroke:none;stroke-width:1.33333325" />
    </g>
  </g>
</svg>
