<?xml version="1.0" encoding="UTF-8" standalone="no"?>
<svg
   xmlns:dc="http://purl.org/dc/elements/1.1/"
   xmlns:cc="http://creativecommons.org/ns#"
   xmlns:rdf="http://www.w3.org/1999/02/22-rdf-syntax-ns#"
   xmlns:svg="http://www.w3.org/2000/svg"
   xmlns="http://www.w3.org/2000/svg"
   id="teta-cabecera"
   version="1.1"
   viewBox="0 0 195.45204 81.844093">
  <defs
     id="defs3554">
    <clipPath
       clipPathUnits="userSpaceOnUse"
       id="clipPath4175">
      <path
         d="M 0,560 H 960 V 0 H 0 Z"
         id="path4173" />
    </clipPath>
    <clipPath
       clipPathUnits="userSpaceOnUse"
       id="clipPath4213">
      <path
         d="M 0,560 H 960 V 0 H 0 Z"
         id="path4211" />
    </clipPath>
    <clipPath
       clipPathUnits="userSpaceOnUse"
       id="clipPath4313">
      <path
         d="M 0,560 H 960 V 0 H 0 Z"
         id="path4311" />
    </clipPath>
    <clipPath
       clipPathUnits="userSpaceOnUse"
       id="clipPath4175-3">
      <path
         d="M 0,560 H 960 V 0 H 0 Z"
         id="path4173-6" />
    </clipPath>
    <clipPath
       id="clipPath68"
       clipPathUnits="userSpaceOnUse">
      <path
         id="path66"
         d="M 0,773.477 H 988.99 V 0 H 0 Z" />
    </clipPath>
  </defs>
  <metadata
     id="metadata3557">
    <rdf:RDF>
      <cc:Work
         rdf:about="">
        <dc:format>image/svg+xml</dc:format>
        <dc:type
           rdf:resource="http://purl.org/dc/dcmitype/StillImage" />
        <dc:title></dc:title>
      </cc:Work>
    </rdf:RDF>
  </metadata>
  <g
     transform="translate(277.64269,-65.577954)"
     id="layer1">
    <g
       id="g3507"
       transform="matrix(0.35277777,0,0,-0.35277777,-812.5181,721.91655)">
      <path
         style="fill:#fcbdd4;fill-opacity:1;fill-rule:evenodd;stroke:none;stroke-width:0.99999994"
         d="m 1651.8178,1860.4874 c -7.448,-5.0913 -14.898,-10.1801 -22.2466,-15.4072 -23.8121,-16.939 -45.788,-35.8451 -64.3169,-58.5601 -6.414,-7.865 -12.5263,-15.9614 -17.7393,-24.6723 -4.302,-7.1901 -9.4599,-13.7072 -15.9639,-18.8672 -14.367,-11.395 -18.2313,-25.9872 -13.3813,-43.0152 1.748,-6.14 1.4284,-12.0063 0.6694,-17.9883 -2.313,-18.2071 -1.5966,-36.0242 1.8897,-53.4887 h 549.4907 v 231.999 z"
         id="path526" />
    </g>
    <g
       style="fill:#ffffff"
       transform="matrix(1.7517331,0,0,1.7517331,120.51634,-266.16614)"
       id="g368">
      <g
         id="g58"
         transform="matrix(0.12391465,0,0,-0.12391465,-206.42254,216.62603)"
         style="fill:#ffffff">
        <path
           d="M 0,0 H 10.146 V -43.626 H 24.93 v -9.675 H 0 Z"
           style="fill:#ffffff;fill-opacity:1;fill-rule:nonzero;stroke:none"
           id="path60" />
      </g>
      <g
         transform="matrix(0.12391465,0,0,-0.12391465,-233.17528,264.87778)"
         id="g62"
         style="fill:#ffffff">
        <g
           id="g64"
           clip-path="url(#clipPath68)"
           style="fill:#ffffff">
          <g
             id="g70"
             transform="translate(266.1548,367.4004)"
             style="fill:#ffffff">
            <path
               d="m 0,0 c -3.058,0 -5.598,-1.081 -7.62,-3.243 -2.023,-2.162 -3.034,-4.934 -3.034,-8.316 0,-3.406 1.029,-6.208 3.088,-8.406 2.058,-2.199 4.592,-3.298 7.602,-3.298 3.106,0 5.682,1.081 7.728,3.243 2.046,2.162 3.069,4.995 3.069,8.498 0,3.429 -1.023,6.208 -3.069,8.334 C 5.718,-1.063 3.129,0 0,0 m 10.398,8.117 h 9.893 v -39.424 h -9.893 v 4.167 c -1.93,-1.836 -3.866,-3.158 -5.808,-3.967 -1.943,-0.81 -4.048,-1.214 -6.316,-1.214 -5.091,0 -9.495,1.975 -13.21,5.924 -3.716,3.95 -5.574,8.859 -5.574,14.73 0,6.087 1.798,11.075 5.393,14.964 3.596,3.89 7.962,5.834 13.102,5.834 2.364,0 4.583,-0.447 6.659,-1.34 2.075,-0.895 3.993,-2.235 5.754,-4.022 z"
               style="fill:#ffffff;fill-opacity:1;fill-rule:nonzero;stroke:none"
               id="path72" />
          </g>
          <g
             id="g74"
             transform="translate(328.4053,368.5601)"
             style="fill:#ffffff">
            <path
               d="m 0,0 h 3.225 c 2.536,0 4.299,0.182 5.29,0.545 0.99,0.364 1.77,0.963 2.338,1.8 0.567,0.836 0.851,1.847 0.851,3.035 0,2.06 -0.797,3.563 -2.391,4.509 -1.16,0.702 -3.311,1.054 -6.45,1.054 L 0,10.943 Z M -10.146,20.835 H 0.616 c 5.821,0 10.019,-0.538 12.592,-1.612 2.572,-1.076 4.602,-2.815 6.087,-5.218 1.486,-2.404 2.228,-5.285 2.228,-8.642 0,-3.72 -0.972,-6.812 -2.917,-9.277 C 16.662,-6.377 14.023,-8.093 10.689,-9.059 8.733,-9.615 5.169,-9.892 0,-9.892 v -22.574 h -10.146 z"
               style="fill:#ffffff;fill-opacity:1;fill-rule:nonzero;stroke:none"
               id="path76" />
          </g>
          <g
             id="g78"
             transform="translate(377.4678,367.4004)"
             style="fill:#ffffff">
            <path
               d="m 0,0 c -3.058,0 -5.598,-1.081 -7.62,-3.243 -2.023,-2.162 -3.034,-4.934 -3.034,-8.316 0,-3.406 1.029,-6.208 3.088,-8.406 2.058,-2.199 4.592,-3.298 7.602,-3.298 3.106,0 5.682,1.081 7.728,3.243 2.046,2.162 3.069,4.995 3.069,8.498 0,3.429 -1.023,6.208 -3.069,8.334 C 5.718,-1.063 3.129,0 0,0 m 10.398,8.117 h 9.893 v -39.424 h -9.893 v 4.167 c -1.93,-1.836 -3.866,-3.158 -5.808,-3.967 -1.943,-0.81 -4.048,-1.214 -6.316,-1.214 -5.091,0 -9.495,1.975 -13.21,5.924 -3.716,3.95 -5.574,8.859 -5.574,14.73 0,6.087 1.798,11.075 5.393,14.964 3.596,3.89 7.962,5.834 13.102,5.834 2.364,0 4.583,-0.447 6.659,-1.34 2.075,-0.895 3.993,-2.235 5.754,-4.022 z"
               style="fill:#ffffff;fill-opacity:1;fill-rule:nonzero;stroke:none"
               id="path80" />
          </g>
          <g
             id="g82"
             transform="translate(446.3491,367.5454)"
             style="fill:#ffffff">
            <path
               d="m 0,0 -8.235,-4.529 c -1.548,1.618 -3.078,2.741 -4.589,3.369 -1.512,0.628 -3.283,0.943 -5.315,0.943 -3.7,0 -6.694,-1.104 -8.979,-3.311 -2.285,-2.207 -3.428,-5.035 -3.428,-8.483 0,-3.353 1.1,-6.091 3.301,-8.213 2.201,-2.123 5.092,-3.184 8.671,-3.184 4.426,0 7.872,1.51 10.339,4.53 l 7.8,-5.341 c -4.228,-5.498 -10.194,-8.247 -17.9,-8.247 -6.933,0 -12.362,2.053 -16.287,6.16 -3.926,4.106 -5.888,8.913 -5.888,14.421 0,3.817 0.954,7.331 2.862,10.544 1.908,3.213 4.571,5.737 7.99,7.573 3.418,1.836 7.241,2.754 11.468,2.754 3.914,0 7.428,-0.779 10.544,-2.337 C -4.529,5.091 -1.981,2.875 0,0"
               style="fill:#ffffff;fill-opacity:1;fill-rule:nonzero;stroke:none"
               id="path84" />
          </g>
          <path
             d="m 454.176,375.517 h 9.892 v -39.423 h -9.892 z m 4.946,16.233 c 1.734,0 3.222,-0.628 4.462,-1.884 1.241,-1.256 1.861,-2.778 1.861,-4.566 0,-1.763 -0.614,-3.267 -1.843,-4.511 -1.228,-1.244 -2.698,-1.866 -4.408,-1.866 -1.758,0 -3.258,0.634 -4.498,1.903 -1.241,1.268 -1.861,2.808 -1.861,4.619 0,1.74 0.614,3.225 1.843,4.457 1.228,1.232 2.709,1.848 4.444,1.848"
             style="fill:#ffffff;fill-opacity:1;fill-rule:nonzero;stroke:none"
             id="path86" />
          <g
             id="g88"
             transform="translate(502.6577,360.7334)"
             style="fill:#ffffff">
            <path
               d="m 0,0 c -0.653,2.198 -1.942,3.986 -3.866,5.363 -1.924,1.377 -4.155,2.065 -6.697,2.065 -2.758,0 -5.177,-0.773 -7.258,-2.319 -1.307,-0.966 -2.517,-2.67 -3.63,-5.109 z m 9.892,-7.791 h -31.778 c 0.459,-2.802 1.685,-5.03 3.678,-6.685 1.993,-1.655 4.535,-2.482 7.627,-2.482 3.697,0 6.873,1.292 9.53,3.877 l 8.334,-3.913 c -2.077,-2.947 -4.565,-5.127 -7.464,-6.541 -2.899,-1.413 -6.341,-2.119 -10.327,-2.119 -6.184,0 -11.221,1.95 -15.11,5.852 -3.889,3.901 -5.834,8.786 -5.834,14.656 0,6.016 1.939,11.01 5.816,14.984 3.877,3.973 8.739,5.96 14.585,5.96 6.208,0 11.256,-1.987 15.146,-5.96 C 7.984,5.864 9.928,0.616 9.928,-5.906 Z"
               style="fill:#ffffff;fill-opacity:1;fill-rule:nonzero;stroke:none"
               id="path90" />
          </g>
          <g
             id="g92"
             transform="translate(520.5581,375.5171)"
             style="fill:#ffffff">
            <path
               d="m 0,0 h 9.892 v -4.04 c 2.243,1.891 4.275,3.206 6.096,3.945 1.821,0.74 3.685,1.11 5.591,1.11 3.907,0 7.224,-1.366 9.95,-4.095 2.291,-2.319 3.437,-5.75 3.437,-10.291 v -26.052 h -9.783 v 17.264 c 0,4.704 -0.211,7.829 -0.633,9.373 -0.422,1.545 -1.156,2.721 -2.205,3.529 -1.049,0.809 -2.344,1.213 -3.886,1.213 -2,0 -3.717,-0.67 -5.151,-2.009 -1.434,-1.34 -2.428,-3.191 -2.982,-5.556 -0.29,-1.23 -0.434,-3.896 -0.434,-7.998 V -39.423 H 0 Z"
               style="fill:#ffffff;fill-opacity:1;fill-rule:nonzero;stroke:none"
               id="path94" />
          </g>
          <g
             id="g96"
             transform="translate(566.2861,390.0474)"
             style="fill:#ffffff">
            <path
               d="m 0,0 h 9.892 v -14.53 h 5.87 v -8.515 H 9.892 V -53.954 H 0 v 30.909 h -5.073 v 8.515 H 0 Z"
               style="fill:#ffffff;fill-opacity:1;fill-rule:nonzero;stroke:none"
               id="path98" />
          </g>
          <g
             id="g100"
             transform="translate(616.9419,360.7334)"
             style="fill:#ffffff">
            <path
               d="m 0,0 c -0.653,2.198 -1.942,3.986 -3.866,5.363 -1.924,1.377 -4.155,2.065 -6.697,2.065 -2.758,0 -5.177,-0.773 -7.258,-2.319 -1.307,-0.966 -2.517,-2.67 -3.63,-5.109 z m 9.892,-7.791 h -31.778 c 0.459,-2.802 1.685,-5.03 3.678,-6.685 1.993,-1.655 4.535,-2.482 7.627,-2.482 3.697,0 6.873,1.292 9.53,3.877 l 8.334,-3.913 c -2.077,-2.947 -4.565,-5.127 -7.464,-6.541 -2.899,-1.413 -6.341,-2.119 -10.327,-2.119 -6.184,0 -11.221,1.95 -15.11,5.852 -3.889,3.901 -5.834,8.786 -5.834,14.656 0,6.016 1.939,11.01 5.816,14.984 3.877,3.973 8.739,5.96 14.585,5.96 6.208,0 11.256,-1.987 15.146,-5.96 C 7.984,5.864 9.928,0.616 9.928,-5.906 Z"
               style="fill:#ffffff;fill-opacity:1;fill-rule:nonzero;stroke:none"
               id="path102" />
          </g>
          <g
             id="g104"
             transform="translate(180.7588,306.7383)"
             style="fill:#ffffff">
            <path
               d="M 0,0 H 10.109 L 20.35,-24.736 31.649,0 H 41.787 L 17.096,-53.845 H 6.88 l 8.106,17.364 z"
               style="fill:#ffffff;fill-opacity:1;fill-rule:nonzero;stroke:none"
               id="path106" />
          </g>
          <g
             id="g108"
             transform="translate(273.0752,301.2305)"
             style="fill:#ffffff">
            <path
               d="m 0,0 -6.124,-6.124 c -2.488,2.464 -4.747,3.696 -6.776,3.696 -1.111,0 -1.981,-0.235 -2.609,-0.706 -0.628,-0.471 -0.942,-1.057 -0.942,-1.758 0,-0.531 0.2,-1.02 0.598,-1.467 0.399,-0.447 1.383,-1.057 2.953,-1.83 L -9.276,-10 c 3.817,-1.885 6.437,-3.805 7.863,-5.762 1.425,-1.957 2.138,-4.252 2.138,-6.884 0,-3.503 -1.287,-6.427 -3.859,-8.77 -2.573,-2.343 -6.022,-3.514 -10.345,-3.514 -5.75,0 -10.34,2.246 -13.77,6.74 l 6.088,6.63 c 1.16,-1.353 2.518,-2.445 4.076,-3.279 1.558,-0.833 2.941,-1.25 4.149,-1.25 1.305,0 2.355,0.314 3.152,0.942 0.798,0.628 1.196,1.353 1.196,2.174 0,1.522 -1.437,3.008 -4.312,4.457 l -3.333,1.667 c -6.377,3.212 -9.566,7.235 -9.566,12.066 0,3.116 1.201,5.78 3.605,7.99 2.403,2.21 5.477,3.315 9.222,3.315 2.56,0 4.97,-0.561 7.229,-1.685 C -3.485,3.714 -1.571,2.102 0,0"
               style="fill:#ffffff;fill-opacity:1;fill-rule:nonzero;stroke:none"
               id="path110" />
          </g>
          <g
             id="g112"
             transform="translate(281.5542,306.7383)"
             style="fill:#ffffff">
            <path
               d="m 0,0 h 10 v -18.987 c 0,-3.696 0.255,-6.263 0.763,-7.7 0.508,-1.438 1.326,-2.554 2.452,-3.352 1.126,-0.797 2.513,-1.195 4.16,-1.195 1.646,0 3.044,0.392 4.195,1.177 1.15,0.785 2.003,1.939 2.56,3.461 0.412,1.135 0.618,3.563 0.618,7.283 V 0 h 9.892 v -16.704 c 0,-6.885 -0.543,-11.595 -1.63,-14.132 -1.329,-3.092 -3.286,-5.465 -5.87,-7.12 -2.585,-1.654 -5.87,-2.482 -9.856,-2.482 -4.325,0 -7.821,0.966 -10.49,2.899 -2.669,1.932 -4.547,4.625 -5.635,8.08 C 0.386,-27.067 0,-22.719 0,-16.414 Z"
               style="fill:#ffffff;fill-opacity:1;fill-rule:nonzero;stroke:none"
               id="path114" />
          </g>
          <g
             id="g116"
             transform="translate(358.0815,299.7812)"
             style="fill:#ffffff">
            <path
               d="m 0,0 h 3.225 c 2.536,0 4.299,0.182 5.29,0.545 0.99,0.364 1.77,0.963 2.338,1.8 0.567,0.836 0.851,1.847 0.851,3.035 0,2.06 -0.797,3.563 -2.391,4.509 -1.16,0.702 -3.311,1.054 -6.45,1.054 L 0,10.943 Z M -10.146,20.835 H 0.616 c 5.821,0 10.019,-0.538 12.592,-1.612 2.572,-1.076 4.602,-2.815 6.087,-5.218 1.486,-2.404 2.228,-5.285 2.228,-8.642 0,-3.72 -0.972,-6.812 -2.917,-9.277 C 16.662,-6.377 14.023,-8.093 10.689,-9.059 8.733,-9.615 5.169,-9.892 0,-9.892 v -22.574 h -10.146 z"
               style="fill:#ffffff;fill-opacity:1;fill-rule:nonzero;stroke:none"
               id="path118" />
          </g>
          <g
             id="g120"
             transform="translate(386.127,306.7383)"
             style="fill:#ffffff">
            <path
               d="m 0,0 h 8.479 v -4.964 c 0.918,1.957 2.138,3.442 3.66,4.457 1.522,1.014 3.189,1.522 5,1.522 1.28,0 2.621,-0.339 4.022,-1.015 l -3.079,-8.515 c -1.16,0.579 -2.115,0.869 -2.863,0.869 -1.522,0 -2.808,-0.941 -3.859,-2.826 -1.051,-1.884 -1.576,-5.58 -1.576,-11.088 L 9.82,-23.48 V -39.423 H 0 Z"
               style="fill:#ffffff;fill-opacity:1;fill-rule:nonzero;stroke:none"
               id="path122" />
          </g>
          <g
             id="g124"
             transform="translate(430.8589,298.4404)"
             style="fill:#ffffff">
            <path
               d="m 0,0 c -3.073,0 -5.632,-1.069 -7.676,-3.207 -2.046,-2.138 -3.068,-4.873 -3.068,-8.207 0,-3.43 1.011,-6.209 3.031,-8.334 2.02,-2.126 4.579,-3.189 7.677,-3.189 3.097,0 5.674,1.075 7.731,3.226 2.056,2.149 3.085,4.915 3.085,8.297 0,3.382 -1.01,6.129 -3.03,8.244 C 5.729,-1.057 3.146,0 0,0 m -0.163,9.313 c 3.72,0 7.217,-0.931 10.49,-2.791 3.273,-1.86 5.828,-4.384 7.664,-7.573 1.835,-3.188 2.754,-6.631 2.754,-10.326 0,-3.721 -0.924,-7.199 -2.772,-10.436 -1.848,-3.237 -4.367,-5.768 -7.556,-7.591 -3.188,-1.824 -6.703,-2.736 -10.543,-2.736 -5.653,0 -10.478,2.011 -14.477,6.033 -3.998,4.022 -5.996,8.907 -5.996,14.657 0,6.16 2.258,11.293 6.776,15.4 3.961,3.574 8.515,5.363 13.66,5.363"
               style="fill:#ffffff;fill-opacity:1;fill-rule:nonzero;stroke:none"
               id="path126" />
          </g>
          <g
             id="g128"
             transform="translate(498.2739,298.7666)"
             style="fill:#ffffff">
            <path
               d="m 0,0 -8.235,-4.529 c -1.548,1.618 -3.078,2.741 -4.589,3.369 -1.512,0.628 -3.283,0.943 -5.315,0.943 -3.7,0 -6.694,-1.104 -8.979,-3.311 -2.285,-2.207 -3.428,-5.035 -3.428,-8.483 0,-3.353 1.1,-6.091 3.301,-8.213 2.201,-2.123 5.092,-3.184 8.671,-3.184 4.426,0 7.872,1.51 10.339,4.53 l 7.8,-5.341 c -4.228,-5.498 -10.194,-8.247 -17.9,-8.247 -6.933,0 -12.362,2.053 -16.287,6.16 -3.926,4.106 -5.888,8.913 -5.888,14.421 0,3.817 0.954,7.331 2.862,10.544 1.908,3.213 4.571,5.737 7.99,7.573 3.418,1.836 7.241,2.754 11.468,2.754 3.914,0 7.428,-0.779 10.544,-2.337 C -4.529,5.091 -1.981,2.875 0,0"
               style="fill:#ffffff;fill-opacity:1;fill-rule:nonzero;stroke:none"
               id="path130" />
          </g>
          <g
             id="g132"
             transform="translate(536.7915,291.9546)"
             style="fill:#ffffff">
            <path
               d="m 0,0 c -0.653,2.198 -1.942,3.986 -3.866,5.363 -1.924,1.377 -4.155,2.065 -6.697,2.065 -2.758,0 -5.177,-0.773 -7.258,-2.319 -1.307,-0.966 -2.517,-2.67 -3.63,-5.109 z m 9.892,-7.791 h -31.778 c 0.459,-2.802 1.685,-5.03 3.678,-6.685 1.993,-1.655 4.535,-2.482 7.627,-2.482 3.697,0 6.873,1.292 9.53,3.877 l 8.334,-3.913 c -2.077,-2.947 -4.565,-5.127 -7.464,-6.541 -2.899,-1.413 -6.341,-2.119 -10.327,-2.119 -6.184,0 -11.221,1.95 -15.11,5.852 -3.889,3.901 -5.834,8.786 -5.834,14.656 0,6.016 1.939,11.01 5.816,14.984 3.877,3.973 8.739,5.96 14.585,5.96 6.208,0 11.256,-1.987 15.146,-5.96 C 7.984,5.864 9.928,0.616 9.928,-5.906 Z"
               style="fill:#ffffff;fill-opacity:1;fill-rule:nonzero;stroke:none"
               id="path134" />
          </g>
          <g
             id="g136"
             transform="translate(578.8242,301.2305)"
             style="fill:#ffffff">
            <path
               d="m 0,0 -6.124,-6.124 c -2.488,2.464 -4.747,3.696 -6.776,3.696 -1.111,0 -1.981,-0.235 -2.609,-0.706 -0.628,-0.471 -0.942,-1.057 -0.942,-1.758 0,-0.531 0.2,-1.02 0.598,-1.467 0.399,-0.447 1.383,-1.057 2.953,-1.83 L -9.276,-10 c 3.817,-1.885 6.437,-3.805 7.863,-5.762 1.425,-1.957 2.138,-4.252 2.138,-6.884 0,-3.503 -1.287,-6.427 -3.859,-8.77 -2.573,-2.343 -6.022,-3.514 -10.345,-3.514 -5.75,0 -10.34,2.246 -13.77,6.74 l 6.088,6.63 c 1.16,-1.353 2.518,-2.445 4.076,-3.279 1.558,-0.833 2.941,-1.25 4.149,-1.25 1.305,0 2.355,0.314 3.152,0.942 0.798,0.628 1.196,1.353 1.196,2.174 0,1.522 -1.437,3.008 -4.312,4.457 l -3.333,1.667 c -6.377,3.212 -9.566,7.235 -9.566,12.066 0,3.116 1.201,5.78 3.605,7.99 2.403,2.21 5.477,3.315 9.222,3.315 2.56,0 4.97,-0.561 7.229,-1.685 C -3.485,3.714 -1.571,2.102 0,0"
               style="fill:#ffffff;fill-opacity:1;fill-rule:nonzero;stroke:none"
               id="path138" />
          </g>
          <g
             id="g140"
             transform="translate(606.0181,298.4404)"
             style="fill:#ffffff">
            <path
               d="m 0,0 c -3.073,0 -5.632,-1.069 -7.676,-3.207 -2.046,-2.138 -3.068,-4.873 -3.068,-8.207 0,-3.43 1.011,-6.209 3.031,-8.334 2.02,-2.126 4.579,-3.189 7.677,-3.189 3.097,0 5.674,1.075 7.731,3.226 2.056,2.149 3.085,4.915 3.085,8.297 0,3.382 -1.01,6.129 -3.03,8.244 C 5.729,-1.057 3.146,0 0,0 m -0.163,9.313 c 3.72,0 7.217,-0.931 10.49,-2.791 3.273,-1.86 5.828,-4.384 7.664,-7.573 1.835,-3.188 2.754,-6.631 2.754,-10.326 0,-3.721 -0.924,-7.199 -2.772,-10.436 -1.848,-3.237 -4.367,-5.768 -7.556,-7.591 -3.188,-1.824 -6.703,-2.736 -10.543,-2.736 -5.653,0 -10.478,2.011 -14.477,6.033 -3.998,4.022 -5.996,8.907 -5.996,14.657 0,6.16 2.258,11.293 6.776,15.4 3.961,3.574 8.515,5.363 13.66,5.363"
               style="fill:#ffffff;fill-opacity:1;fill-rule:nonzero;stroke:none"
               id="path142" />
          </g>
          <g
             id="g144"
             transform="translate(682.8467,455.5664)"
             style="fill:#ffffff">
            <path
               d="m 0,0 c 7.746,4.073 20.751,6.197 29.592,6.197 3.125,0 5.052,-0.29 5.8,-0.546 C 35.535,5.594 35.63,5.559 35.708,5.524 35.63,5.152 35.392,4.585 35.164,4.216 L 34.846,3.752 34.666,3.221 C 34.637,3.127 30.969,-7.354 20.146,-14.909 12.157,-20.473 -3.839,-23.04 -12.099,-24.021 -10.379,-15.805 -6.519,-3.404 0,0 m -9.583,32.786 c 4.164,0.986 10.732,2.266 17.021,2.266 2.694,0 5.098,-0.235 7.134,-0.696 C 21.299,32.87 27.424,23.12 30.828,16.203 25.99,15.673 18.697,15.005 12.366,15.005 c -5.381,0 -8.11,0.482 -9.453,0.88 -4.2,1.278 -9.262,9.637 -12.496,16.901 m 88.055,44.751 c 30.547,17.384 57.979,-0.283 57.979,-0.283 0,0 -30.37,-6.83 -48.169,-15.131 C 64.194,50.936 45.698,27.669 45.698,27.669 c 0,0 -0.173,31.114 32.774,49.868 M 173.16,22.344 c 0,0 -17.114,12.054 -42.025,16.83 -30.119,5.75 -62.754,-2.814 -62.754,-2.814 0,0 28.847,28.35 75.057,28.322 27.51,-0.015 29.722,-42.338 29.722,-42.338 M 24.788,-21.569 c 11.507,8.017 16.265,18.835 17.333,21.549 9.379,-28.372 36.097,-48.854 67.602,-48.854 39.359,0 71.246,31.883 71.246,71.218 0,39.345 -31.887,71.219 -71.246,71.219 -39.332,0 -71.198,-31.874 -71.198,-71.219 0,-1.198 0.022,-2.393 0.085,-3.581 -3.461,7.384 -11.273,21.079 -22.267,23.524 -2.634,0.59 -5.621,0.889 -8.905,0.889 -11.517,0 -23.229,-3.611 -23.713,-3.768 l -4.077,-1.264 1.475,-4.016 C -17.541,30.519 -10.662,12.886 -0.7,8.606 -1.771,8.166 -2.817,7.712 -3.782,7.201 -17.039,0.251 -20.684,-25.207 -21.039,-28.091 l -0.645,-4.927 4.938,0.363 c 1.174,0.085 28.726,2.138 41.534,11.086"
               style="fill:#ffffff;fill-opacity:1;fill-rule:nonzero;stroke:none"
               id="path146" />
          </g>
          <g
             id="g148"
             transform="translate(823.9326,311.7573)"
             style="fill:#ffffff">
            <path
               d="m 0,0 c -27.263,-19.231 -60.763,-9.395 -60.763,-9.395 l 2.066,8.301 c 0,0 3.719,-0.278 13.524,-1.449 9.802,-1.186 26.73,4.469 26.73,4.469 0,0 -0.049,16.29 7.626,31.79 6.234,12.652 19.814,13.993 29.504,4.648 C 28.327,29.025 21.18,14.953 0,0 m -10.386,-44.125 c 0,0 -6.512,9.884 -7.951,15.264 -1.392,5.381 -0.781,17.342 -0.781,17.342 l 9.608,2.936 c 0,0 -1.095,-10.086 0.191,-15.721 1.287,-5.636 5.324,-15.501 5.324,-15.501 z m 70.769,98.21 c -26.393,21.32 -79.186,25.051 -95.759,25.051 -38.251,0 -70.217,-7.02 -92.873,-25.3 -22.657,-18.278 -32.265,-50.51 -32.265,-50.51 v -82.863 h 43 v 65 h 15 v -65 h 123 v 65 h 22 v -65 h 45 V 2.992 c 0,0 -0.707,29.771 -27.103,51.093"
               style="fill:#ffffff;fill-opacity:1;fill-rule:nonzero;stroke:none"
               id="path150" />
          </g>
          <g
             id="g152"
             transform="translate(831.918,345.2114)"
             style="fill:#ffffff">
            <path
               d="m 0,0 c -6.84,2.97 -7.715,-1.72 -10.004,-5.672 -2.457,-4.291 -6.141,-20.143 -6.141,-20.143 0,0 8.545,2.056 15.202,9.49 C 6.399,-8.124 4.646,-2.011 0,0"
               style="fill:#ffffff;fill-opacity:1;fill-rule:nonzero;stroke:none"
               id="path154" />
          </g>
        </g>
      </g>
    </g>
  </g>
</svg>
