<?xml version="1.0" encoding="UTF-8" standalone="no"?>
<!-- Created with Inkscape (http://www.inkscape.org/) -->

<svg
   xmlns:dc="http://purl.org/dc/elements/1.1/"
   xmlns:cc="http://creativecommons.org/ns#"
   xmlns:rdf="http://www.w3.org/1999/02/22-rdf-syntax-ns#"
   xmlns:svg="http://www.w3.org/2000/svg"
   xmlns="http://www.w3.org/2000/svg"
   xmlns:sodipodi="http://sodipodi.sourceforge.net/DTD/sodipodi-0.dtd"
   xmlns:inkscape="http://www.inkscape.org/namespaces/inkscape"
   viewBox="0 0 195.45204 81.844093"
   version="1.1"
   id="teta-cabecera"
   inkscape:version="0.92.5 (2060ec1f9f, 2020-04-08)"
   sodipodi:docname="teta-cabecera.svg">
  <defs
     id="defs3554">
    <clipPath
       id="clipPath4175"
       clipPathUnits="userSpaceOnUse">
      <path
         inkscape:connector-curvature="0"
         id="path4173"
         d="M 0,560 H 960 V 0 H 0 Z" />
    </clipPath>
    <clipPath
       id="clipPath4213"
       clipPathUnits="userSpaceOnUse">
      <path
         inkscape:connector-curvature="0"
         id="path4211"
         d="M 0,560 H 960 V 0 H 0 Z" />
    </clipPath>
    <clipPath
       id="clipPath4313"
       clipPathUnits="userSpaceOnUse">
      <path
         inkscape:connector-curvature="0"
         id="path4311"
         d="M 0,560 H 960 V 0 H 0 Z" />
    </clipPath>
    <clipPath
       id="clipPath4175-3"
       clipPathUnits="userSpaceOnUse">
      <path
         inkscape:connector-curvature="0"
         id="path4173-6"
         d="M 0,560 H 960 V 0 H 0 Z" />
    </clipPath>
    <clipPath
       clipPathUnits="userSpaceOnUse"
       id="clipPath666">
      <path
         d="m 1186.17,1857.09 h 187.37 v -194.48 h -187.37 z"
         id="path664"
         inkscape:connector-curvature="0" />
    </clipPath>
  </defs>
  <sodipodi:namedview
     id="base"
     pagecolor="#ffffff"
     bordercolor="#666666"
     borderopacity="1.0"
     inkscape:pageopacity="0.0"
     inkscape:pageshadow="2"
     inkscape:zoom="2.6978013"
     inkscape:cx="25.360326"
     inkscape:cy="27.00531"
     inkscape:document-units="mm"
     inkscape:current-layer="layer1"
     showgrid="false"
     fit-margin-top="0"
     fit-margin-left="0"
     fit-margin-right="0"
     fit-margin-bottom="0"
     inkscape:window-width="1366"
     inkscape:window-height="652"
     inkscape:window-x="0"
     inkscape:window-y="27"
     inkscape:window-maximized="1"
     showguides="false" />
  <metadata
     id="metadata3557">
    <rdf:RDF>
      <cc:Work
         rdf:about="">
        <dc:format>image/svg+xml</dc:format>
        <dc:type
           rdf:resource="http://purl.org/dc/dcmitype/StillImage" />
        <dc:title />
      </cc:Work>
    </rdf:RDF>
  </metadata>
  <g
     inkscape:label="Capa 1"
     inkscape:groupmode="layer"
     id="layer1"
     transform="translate(277.64269,-65.577954)">
    <g
       transform="matrix(0.35277777,0,0,-0.35277777,-812.5181,721.91655)"
       id="g3507">
      <path
         inkscape:connector-curvature="0"
         id="path526"
         d="m 1651.8178,1860.4874 c -7.448,-5.0913 -14.898,-10.1801 -22.2466,-15.4072 -23.8121,-16.939 -45.788,-35.8451 -64.3169,-58.5601 -6.414,-7.865 -12.5263,-15.9614 -17.7393,-24.6723 -4.302,-7.1901 -9.4599,-13.7072 -15.9639,-18.8672 -14.367,-11.395 -18.2313,-25.9872 -13.3813,-43.0152 1.748,-6.14 1.4284,-12.0063 0.6694,-17.9883 -2.313,-18.2071 -1.5966,-36.0242 1.8897,-53.4887 h 549.4907 v 231.999 z"
         style="fill:#fcbdd4;fill-opacity:1;fill-rule:evenodd;stroke:none;stroke-width:0.99999994" />
    </g>
    <g
       transform="matrix(0.4532696,0,0,-0.4532696,-195.09788,213.98536)"
       id="g4169"
       style="fill:#ffffff;fill-opacity:1">
      <g
         clip-path="url(#clipPath4175-3)"
         id="g4171"
         style="fill:#ffffff;fill-opacity:1">
        <g
           transform="translate(164.7178,262.0127)"
           id="g4177"
           style="fill:#ffffff;fill-opacity:1">
          <path
             style="fill:#ffffff;fill-opacity:1;fill-rule:nonzero;stroke:none;stroke-width:1.33333325"
             d="m 290.77539,454.2168 c -15.068,0 -27.2832,10.99788 -27.2832,24.56054 0,13.56667 12.2152,24.5586 27.2832,24.5586 15.06133,0 27.26953,-10.99193 27.26953,-24.5586 0,-13.56266 -12.2082,-24.56054 -27.26953,-24.56054 z m -25.81836,47.74414 c 0,0 -6.34267,1.03624 -14,10.01758 -7.65467,8.97866 -6.34423,25.04345 -6.60156,32.43945 -0.26267,7.39467 0,54.79492 0,54.79492 0,0 0.78996,4.59751 5.2793,6.71484 4.49733,2.108 10.57226,1.2461 10.57226,1.2461 l -0.125,-15.80664 2.60156,-0.48828 0.0899,17.24804 h 28.25781 15.4082 c 0,0 -0.10928,-26.2708 0.24805,-35.24414 0.23467,-5.94266 1.14946,-15.18185 10.4668,-20.72851 9.33733,-5.54134 12.11328,-8.37305 12.11328,-8.37305 0,0 -2.51435,-10.37049 -3.04102,-15.92383 -0.52666,-5.54933 0.26367,-19.54101 0.26367,-19.54101 0,0 -4.81469,-3.43294 -7.19335,-3.96094 -2.38,-0.53067 -2.26368,1.05078 -2.26368,1.05078 l -0.0352,23.16602 c 0,0 5.75216,1.45005 5.4375,6.63671 -0.32934,5.53734 -3.93999,8.22097 -9.22266,8.1543 -6.39867,-0.0667 -8.39232,-3.62842 -8.59766,-7.59375 -0.23466,-4.29067 3.23088,-7.63593 6.54688,-7.19726 l 0.0937,-25.27539 c 0,-10e-6 -4.14322,-1.58373 -7.83789,1.8496 -3.704,3.43334 -12.10352,8.43164 -12.10352,8.43164 -2.364,-0.26266 -12.17334,-11.08908 -16.13867,-11.34374 -3.956,-0.26667 -3.42187,-0.25586 -3.42187,-0.25586 v 15.79882 c 0,0 9.18814,-1.5803 12.88281,5.81836 3.696,7.392 4.15743,18.81539 3.13476,21.13672 -1.216,2.772 -5.90137,2.93187 -6.9707,0.0332 -1.05467,-2.90666 0.0882,-5.62097 1.32422,-6.07031 2.212,-0.82133 -1.65238,-14.99292 -5.98438,-15.54492 -7.35466,-0.944 -11.87148,-0.29962 -14.27148,4.98438 -2.40667,5.27733 -0.36618,14.7555 1.39648,14.6875 1.91734,-0.084 5.5713,2.01219 3.2793,5.63085 -1.46133,2.30134 -5.81745,3.43703 -8.18945,-1.32031 -2.372,-4.756 -3.22141,-17.11539 -1.58008,-20.91406 2.876,-6.72667 8.44531,-7.58789 8.44531,-7.58789 z m 93.80859,3.57812 c -15.06266,0 -27.26953,10.43641 -27.26953,23.31641 0,12.87733 12.20687,23.31641 27.26953,23.31641 15.06934,0 27.28321,-10.43908 27.28321,-23.31641 0,-12.88 -12.21387,-23.31641 -27.28321,-23.31641 z m 31.58008,36.27735 c -0.086,-0.005 -0.17487,10e-4 -0.26562,0.0176 -2.90667,0.52534 -12.93901,12.11985 -9.51367,18.33985 3.44,6.22 7.14416,8.86523 12.9375,8.86523 5.81866,0 14.03119,-3.73482 13.50586,-7.52148 -0.53334,-3.78267 -13.57422,-9.30274 -13.57422,-9.30274 0,0 -0.42324,-10.23971 -3.08985,-10.39843 z m -53.29297,12.97851 c 0,0 -7.58355,0.64947 -14.71289,6.4668 -7.14133,5.812 -7.91796,13.98242 -7.91796,13.98242 v 29.36914 c -10e-6,0 -0.70658,4.53125 8.49609,4.53125 10.27333,0 8.83594,-4.53125 8.83594,-4.53125 v -19.15234 h 5.33398 v 22.66601 h 48 v -22.66601 h 4 v 19.15234 c 0,0 -1.31618,3.57031 8.14649,3.57031 10.00399,0 9.1875,-3.57031 9.1875,-3.57031 v -31.5957 c -10e-6,0 -17.37542,1.94117 -25.83008,-2.29883 -8.44667,-4.21467 -10.20508,-15.92383 -10.20508,-15.92383 z"
             transform="matrix(0.75000002,0,0,-0.75000002,-238.53396,359.08277)"
             id="path4179"
             inkscape:connector-curvature="0" />
        </g>
        <g
           transform="translate(215.7202,224.4541)"
           id="g4181"
           style="fill:#ffffff;fill-opacity:1" />
        <g
           transform="translate(144.458,165)"
           id="g4185"
           style="fill:#ffffff;fill-opacity:1" />
        <g
           transform="translate(162,167.6348)"
           id="g4189"
           style="fill:#ffffff;fill-opacity:1" />
        <g
           transform="translate(221.2603,206.9346)"
           id="g4193"
           style="fill:#ffffff;fill-opacity:1" />
      </g>
    </g>
    <text
       xml:space="preserve"
       style="font-style:normal;font-weight:normal;font-size:41.48643494px;line-height:1.25;font-family:sans-serif;letter-spacing:0px;word-spacing:0px;fill:#ffffff;fill-opacity:1;stroke:none;stroke-width:1.03716087"
       x="-204.22635"
       y="142.36823"
       id="text31"
       transform="scale(1.0371608,0.96417064)"><tspan
         sodipodi:role="line"
         id="tspan29"
         x="-204.22635"
         y="142.36823"
         style="font-style:normal;font-variant:normal;font-weight:bold;font-stretch:normal;font-size:13.82881069px;font-family:'Century Gothic';-inkscape-font-specification:'Century Gothic Bold';fill:#ffffff;stroke-width:1.03716087">Nosotros</tspan></text>
  </g>
</svg>
