<?xml version="1.0" encoding="UTF-8" standalone="no"?>
<svg
   xmlns:dc="http://purl.org/dc/elements/1.1/"
   xmlns:cc="http://creativecommons.org/ns#"
   xmlns:rdf="http://www.w3.org/1999/02/22-rdf-syntax-ns#"
   xmlns:svg="http://www.w3.org/2000/svg"
   xmlns="http://www.w3.org/2000/svg"
   id="teta-cabecera"
   version="1.1"
   viewBox="0 0 195.45204 81.844093">
  <defs
     id="defs3554">
    <clipPath
       clipPathUnits="userSpaceOnUse"
       id="clipPath4175">
      <path
         d="M 0,560 H 960 V 0 H 0 Z"
         id="path4173" />
    </clipPath>
    <clipPath
       clipPathUnits="userSpaceOnUse"
       id="clipPath4213">
      <path
         d="M 0,560 H 960 V 0 H 0 Z"
         id="path4211" />
    </clipPath>
    <clipPath
       clipPathUnits="userSpaceOnUse"
       id="clipPath4313">
      <path
         d="M 0,560 H 960 V 0 H 0 Z"
         id="path4311" />
    </clipPath>
    <clipPath
       clipPathUnits="userSpaceOnUse"
       id="clipPath4175-3">
      <path
         d="M 0,560 H 960 V 0 H 0 Z"
         id="path4173-6" />
    </clipPath>
    <clipPath
       id="clipPath68"
       clipPathUnits="userSpaceOnUse">
      <path
         id="path66"
         d="M 0,773.477 H 988.99 V 0 H 0 Z" />
    </clipPath>
    <clipPath
       clipPathUnits="userSpaceOnUse"
       id="clipPath550">
      <path
         d="M 0,567.173 H 706.591 V 0 H 0 Z"
         id="path548" />
    </clipPath>
    <clipPath
       clipPathUnits="userSpaceOnUse"
       id="clipPath4175-7">
      <path
         d="M 0,560 H 960 V 0 H 0 Z"
         id="path4173-5" />
    </clipPath>
    <clipPath
       clipPathUnits="userSpaceOnUse"
       id="clipPath4213-3">
      <path
         d="M 0,560 H 960 V 0 H 0 Z"
         id="path4211-5" />
    </clipPath>
    <clipPath
       clipPathUnits="userSpaceOnUse"
       id="clipPath4313-6">
      <path
         d="M 0,560 H 960 V 0 H 0 Z"
         id="path4311-2" />
    </clipPath>
    <clipPath
       clipPathUnits="userSpaceOnUse"
       id="clipPath4175-3-9">
      <path
         d="M 0,560 H 960 V 0 H 0 Z"
         id="path4173-6-1" />
    </clipPath>
    <clipPath
       id="clipPath68-2"
       clipPathUnits="userSpaceOnUse">
      <path
         id="path66-7"
         d="M 0,773.477 H 988.99 V 0 H 0 Z" />
    </clipPath>
    <clipPath
       clipPathUnits="userSpaceOnUse"
       id="clipPath1777">
      <path
         d="M 0,624.208 H 807.081 V 0 H 0 Z"
         id="path1775" />
    </clipPath>
    <clipPath
       clipPathUnits="userSpaceOnUse"
       id="clipPath1785">
      <path
         d="M 552.017,461.229 H 710.271 V 200.181 H 552.017 Z"
         id="path1783" />
    </clipPath>
    <clipPath
       clipPathUnits="userSpaceOnUse"
       id="clipPath1809">
      <path
         d="M 0,624.208 H 807.081 V 0 H 0 Z"
         id="path1807" />
    </clipPath>
  </defs>
  <metadata
     id="metadata3557">
    <rdf:RDF>
      <cc:Work
         rdf:about="">
        <dc:format>image/svg+xml</dc:format>
        <dc:type
           rdf:resource="http://purl.org/dc/dcmitype/StillImage" />
        <dc:title></dc:title>
      </cc:Work>
    </rdf:RDF>
  </metadata>
  <g
     transform="translate(277.64269,-65.577954)"
     id="layer1">
    <g
       id="g3507"
       transform="matrix(0.35277777,0,0,-0.35277777,-812.5181,721.91655)">
      <path
         style="fill:#fcbdd4;fill-opacity:1;fill-rule:evenodd;stroke:none;stroke-width:0.99999994"
         d="m 1651.8178,1860.4874 c -7.448,-5.0913 -14.898,-10.1801 -22.2466,-15.4072 -23.8121,-16.939 -45.788,-35.8451 -64.3169,-58.5601 -6.414,-7.865 -12.5263,-15.9614 -17.7393,-24.6723 -4.302,-7.1901 -9.4599,-13.7072 -15.9639,-18.8672 -14.367,-11.395 -18.2313,-25.9872 -13.3813,-43.0152 1.748,-6.14 1.4284,-12.0063 0.6694,-17.9883 -2.313,-18.2071 -1.5966,-36.0242 1.8897,-53.4887 h 549.4907 v 231.999 z"
         id="path526" />
    </g>
    <path
       id="path1791"
       transform="translate(-277.64269,65.577954)"
       d="M 166.88867 13.054688 C 164.3381 13.036768 162.45496 14.294035 161.68945 16.650391 C 161.20353 18.152957 160.41789 18.297731 159.14062 18.269531 C 156.12284 18.207081 153.10123 18.173006 150.08398 18.253906 C 147.01244 18.331116 145.87923 19.54241 145.86133 22.634766 C 145.82763 27.835774 145.84947 33.03468 145.85547 38.234375 C 145.85837 43.265945 145.98518 48.302885 145.79492 53.328125 C 145.71113 55.504505 146.59646 56.506808 148.42578 57.267578 C 152.15822 58.827058 155.97471 60.025958 159.97461 60.642578 C 160.62734 60.742188 161.80298 60.884021 161.83008 61.113281 C 162.11652 63.498101 163.89809 62.517951 165.10156 62.619141 C 166.59938 62.744241 168.12006 62.664597 169.625 62.654297 C 170.11303 62.652977 170.91129 62.831294 170.99219 62.339844 C 171.32238 60.254644 173.05148 60.737744 174.28711 60.496094 C 178.17186 59.732424 181.92271 58.611224 185.52734 56.958984 C 186.81093 56.373454 187.49829 55.596812 187.49219 54.107422 C 187.45975 43.541502 187.51585 32.973226 187.45312 22.40625 C 187.44153 19.492557 186.15892 18.326765 183.23047 18.265625 C 180.38239 18.207615 177.5287 18.190309 174.67773 18.261719 C 173.30165 18.297558 172.44311 18.130774 171.92188 16.521484 C 171.19219 14.265263 169.32803 13.075768 166.88867 13.054688 z M 166.63086 15.982422 C 166.76476 15.974796 166.90646 15.978692 167.05469 15.994141 C 168.11482 16.102973 168.63313 16.783271 168.61523 17.917969 C 168.4421 19.002072 167.81434 19.671983 166.61719 19.541016 C 165.55944 19.423751 164.99154 18.683651 165.05664 17.660156 C 165.11912 16.643776 165.69354 16.035804 166.63086 15.982422 z M 183.11328 21.439453 C 183.72297 21.441185 184.24062 21.667651 184.29102 22.871094 C 184.35927 24.567608 183.67013 24.890407 182.24609 24.720703 C 181.30482 24.606337 180.65943 24.811684 180.63281 26.021484 C 180.6062 27.322988 181.22441 27.593723 182.32617 27.507812 C 183.35705 27.425595 184.3105 27.335805 184.28125 28.941406 C 184.25147 30.640555 183.13323 30.267578 182.20117 30.267578 C 173.05033 30.280758 163.89989 30.332341 154.75195 30.228516 C 152.84541 30.204009 152.3357 30.727299 152.375 32.613281 C 152.49674 38.654383 152.47366 44.703041 152.38086 50.744141 C 152.36057 52.194001 152.83419 52.837998 154.18945 53.205078 C 156.46227 53.815378 158.74317 54.340942 161.08398 54.601562 C 162.12645 54.720673 162.75387 54.974712 162.60156 56.294922 C 162.44635 57.623312 161.63884 57.431069 160.81641 57.355469 C 157.19755 57.027389 153.72896 56.098968 150.36914 54.736328 C 149.24024 54.275968 148.97552 53.535222 148.97852 52.388672 C 149.01382 42.735302 149.02364 33.081629 148.96094 23.427734 C 148.95171 21.852438 149.5207 21.445717 151.01562 21.466797 C 156.30624 21.539527 161.59759 21.498047 166.88477 21.498047 C 171.91923 21.498047 176.95925 21.475045 181.99609 21.515625 C 182.34799 21.518392 182.74747 21.438414 183.11328 21.439453 z M 183.32812 33.634766 C 183.93365 33.643412 184.429 33.856147 184.37109 34.828125 C 184.29046 36.174425 183.23508 35.689904 182.58789 35.839844 C 181.75729 35.724954 180.7207 36.114863 180.7207 34.751953 C 180.7207 33.183775 181.91194 33.755778 182.70117 33.673828 C 182.91119 33.652088 183.12628 33.631883 183.32812 33.634766 z M 167.55078 36.191406 C 168.96876 38.026266 170.3372 39.697299 171.5918 41.443359 C 173.31967 43.847939 173.06564 46.716947 171.06055 48.498047 C 169.04386 50.289667 165.967 50.248951 163.94531 48.400391 C 161.92809 46.561051 161.71364 43.780581 163.54297 41.369141 C 164.84763 39.650761 166.42214 38.139316 167.55078 36.191406 z M 183.3457 42.035156 C 183.94122 42.05628 184.41156 42.299701 184.375 43.238281 C 184.31624 44.810681 183.09252 44.046385 182.42188 44.265625 C 181.57942 44.214505 180.61959 44.482684 180.70312 43.121094 C 180.79246 41.597454 181.94186 42.159413 182.72266 42.070312 C 182.93479 42.04561 183.1472 42.028115 183.3457 42.035156 z M 181.83594 50.427734 C 182.04009 50.427259 182.25294 50.440406 182.45703 50.441406 C 183.34745 50.441406 184.44412 50.197163 184.35742 51.689453 C 184.28311 53.049723 183.23022 52.5969 182.47656 52.6875 C 181.63937 52.70568 180.72105 52.894846 180.70312 51.572266 C 180.68988 50.562143 181.22347 50.429161 181.83594 50.427734 z M 163.55078 64.630859 C 162.38604 64.580799 161.44972 64.832647 161.76172 66.242188 C 161.99757 67.284658 160.73391 69.254155 163.25391 69.078125 C 164.63025 68.979305 164.85363 69.715432 164.98828 70.882812 C 165.4526 74.974153 167.33228 78.341657 170.59961 80.867188 C 171.2613 81.379728 172.05639 82.681239 172.92969 81.042969 C 173.463 80.042399 174.65131 79.17607 172.87891 78 C 170.48091 76.40547 169.24372 73.927534 168.64844 71.121094 C 168.38044 69.874404 168.3927 68.948676 170.08789 69.072266 C 170.68686 69.118376 171.36234 69.292805 171.59766 68.265625 C 172.20506 65.654445 171.4921 64.653531 168.82031 64.644531 L 166.81641 64.644531 C 165.72704 64.637731 164.63804 64.681959 163.55078 64.630859 z "
       style="fill:#ffffff;fill-opacity:1;fill-rule:evenodd;stroke:none;stroke-width:0.26351562" />
    <g
       style="fill:#ffffff"
       id="g3339">
      <g
         style="fill:#ffffff"
         id="g3301">
        <path
           d="m -230.0627,106.47585 h 1.97836 v 3.86612 h 3.41969 v -3.86612 h 1.97104 v 10.24648 h -1.97104 v -4.49262 h -3.41969 v 4.49262 h -1.97836 z"
           style="fill:#ffffff;fill-opacity:1;fill-rule:nonzero;stroke:none;stroke-width:0.22881812"
           id="path1801" />
        <path
           d="m -214.87083,111.98582 c -0.12562,-0.4224 -0.37343,-0.76631 -0.74342,-1.03083 -0.36955,-0.26475 -0.79858,-0.397 -1.28711,-0.397 -0.53017,0 -0.99558,0.1485 -1.39556,0.44574 -0.25078,0.18557 -0.48372,0.51324 -0.69744,0.98209 z m 1.90171,1.49761 h -6.10876 c 0.0879,0.53864 0.32379,0.96699 0.7066,1.28527 0.38349,0.31783 0.87202,0.47709 1.46649,0.47709 0.71025,0 1.32097,-0.2485 1.83192,-0.74572 l 1.60196,0.75235 c -0.39952,0.56679 -0.87752,0.98575 -1.43469,1.25759 -0.55741,0.27138 -1.21892,0.40729 -1.98546,0.40729 -1.18848,0 -2.15707,-0.37457 -2.90439,-1.12486 -0.74801,-0.75007 -1.12143,-1.68914 -1.12143,-2.81744 0,-1.15645 0.37251,-2.11634 1.118,-2.88037 0.74526,-0.76402 1.67952,-1.14569 2.80348,-1.14569 1.19351,0 2.1637,0.38167 2.91148,1.14569 0.74755,0.76403 1.12144,1.77288 1.12144,3.02658 z"
           style="fill:#ffffff;fill-opacity:1;fill-rule:nonzero;stroke:none;stroke-width:0.22881812"
           id="path1813" />
        <path
           d="m -211.87561,109.14389 h 1.62987 v 0.95394 c 0.17665,-0.37572 0.41119,-0.66151 0.70339,-0.85646 0.29311,-0.19496 0.613,-0.29266 0.96149,-0.29266 0.2462,0 0.50385,0.0655 0.77317,0.19518 l -0.5924,1.63696 c -0.22264,-0.11143 -0.40616,-0.16704 -0.55008,-0.16704 -0.29244,0 -0.53979,0.18055 -0.74161,0.54276 -0.20226,0.36222 -0.30295,1.07316 -0.30295,2.1319 l 0.007,0.36909 v 3.06479 h -1.88752 z"
           style="fill:#ffffff;fill-opacity:1;fill-rule:nonzero;stroke:none;stroke-width:0.22881812"
           id="path1817" />
        <path
           d="m -207.31289,109.14389 h 1.62987 v 0.95394 c 0.17641,-0.37572 0.41118,-0.66151 0.70316,-0.85646 0.29311,-0.19496 0.61323,-0.29266 0.96172,-0.29266 0.2462,0 0.50363,0.0655 0.77295,0.19518 l -0.59218,1.63696 c -0.22288,-0.11143 -0.40638,-0.16704 -0.55008,-0.16704 -0.29244,0 -0.53979,0.18055 -0.74183,0.54276 -0.20205,0.36222 -0.30296,1.07316 -0.30296,2.1319 l 0.007,0.36909 v 3.06479 h -1.88729 z"
           style="fill:#ffffff;fill-opacity:1;fill-rule:nonzero;stroke:none;stroke-width:0.22881812"
           id="path1821" />
        <path
           d="m -198.71031,110.70407 c -0.58783,0 -1.07613,0.208 -1.4649,0.62353 -0.38876,0.41553 -0.58302,0.94845 -0.58302,1.59875 0,0.65442 0.19769,1.19329 0.59355,1.61591 0.3954,0.4224 0.88278,0.6336 1.46124,0.6336 0.59721,0 1.09237,-0.20754 1.48548,-0.6233 0.39334,-0.41576 0.59013,-0.95989 0.59013,-1.63331 0,-0.65922 -0.19679,-1.19351 -0.59013,-1.60218 -0.39311,-0.40844 -0.89079,-0.613 -1.49235,-0.613 m 1.99873,-1.56009 h 1.90193 v 7.57823 h -1.90193 v -0.80109 c -0.37092,0.35307 -0.74298,0.60751 -1.11664,0.76288 -0.3732,0.1556 -0.77798,0.23339 -1.21388,0.23339 -0.97865,0 -1.82528,-0.37961 -2.53942,-1.13905 -0.71437,-0.75899 -1.07132,-1.70287 -1.07132,-2.8314 0,-1.17017 0.3455,-2.12892 1.03677,-2.87693 0.6908,-0.74755 1.53056,-1.12121 2.51837,-1.12121 0.45466,0 0.88118,0.0861 1.28024,0.25765 0.3986,0.17184 0.76768,0.42972 1.10588,0.77318 z"
           style="fill:#ffffff;fill-opacity:1;fill-rule:nonzero;stroke:none;stroke-width:0.22881812"
           id="path1825" />
        <path
           d="m -192.90115,109.14389 h 1.90147 v 0.87042 c 0.32538,-0.35741 0.6867,-0.62422 1.08392,-0.80086 0.39746,-0.17619 0.83061,-0.26474 1.30014,-0.26474 0.47389,0 0.90109,0.11624 1.28253,0.34826 0.38121,0.23247 0.6876,0.57136 0.91985,1.0171 0.30227,-0.44574 0.67295,-0.78463 1.11206,-1.0171 0.43933,-0.23202 0.91893,-0.34826 1.43949,-0.34826 0.53886,0 1.01298,0.12539 1.42165,0.37617 0.40912,0.25079 0.70293,0.578 0.88209,0.98232 0.17871,0.40364 0.2684,1.06126 0.2684,1.97104 v 4.44411 h -1.91566 v -3.84507 c 0,-0.85875 -0.10708,-1.44063 -0.32035,-1.74474 -0.21371,-0.30409 -0.53406,-0.45626 -0.96149,-0.45626 -0.32493,0 -0.61621,0.0931 -0.87408,0.27871 -0.25765,0.18579 -0.44917,0.4423 -0.57457,0.76951 -0.12516,0.32744 -0.18831,0.85304 -0.18831,1.57748 v 3.42037 h -1.91521 v -3.67093 c 0,-0.67799 -0.0501,-1.16903 -0.15011,-1.47314 -0.1,-0.30387 -0.2501,-0.5304 -0.45031,-0.67913 -0.20022,-0.1485 -0.44253,-0.22287 -0.72627,-0.22287 -0.31669,0 -0.60385,0.094 -0.86219,0.28191 -0.25856,0.18832 -0.45168,0.45191 -0.57936,0.7908 -0.12814,0.33911 -0.19222,0.87316 -0.19222,1.60195 v 3.37141 h -1.90147 z"
           style="fill:#ffffff;fill-opacity:1;fill-rule:nonzero;stroke:none;stroke-width:0.22881812"
           id="path1829" />
        <path
           id="path1831"
           style="fill:#ffffff;fill-opacity:1;fill-rule:nonzero;stroke:none;stroke-width:0.22881812"
           d="m -179.6878,109.14401 h 1.90149 v 7.57845 h -1.90149 z m 0.95075,-3.12062 c 0.33316,0 0.61941,0.12081 0.85783,0.36198 0.2382,0.24187 0.35788,0.5343 0.35788,0.87775 0,0.33911 -0.1183,0.62834 -0.35445,0.86722 -0.23613,0.23912 -0.51849,0.35879 -0.8473,0.35879 -0.3382,0 -0.62628,-0.12196 -0.86471,-0.36565 -0.23842,-0.24392 -0.35764,-0.53979 -0.35764,-0.88827 0,-0.33431 0.11807,-0.6201 0.35421,-0.85647 0.23614,-0.23729 0.52079,-0.35535 0.85418,-0.35535" />
        <path
           d="m -170.3677,111.98582 c -0.12563,-0.4224 -0.37344,-0.76631 -0.74343,-1.03083 -0.36955,-0.26475 -0.79858,-0.397 -1.28711,-0.397 -0.53017,0 -0.99558,0.1485 -1.39556,0.44574 -0.25078,0.18557 -0.48372,0.51324 -0.69744,0.98209 z m 1.9017,1.49761 h -6.10876 c 0.0879,0.53864 0.32379,0.96699 0.7066,1.28527 0.38349,0.31783 0.87202,0.47709 1.46649,0.47709 0.71025,0 1.32097,-0.2485 1.83192,-0.74572 l 1.60196,0.75235 c -0.39952,0.56679 -0.87752,0.98575 -1.43469,1.25759 -0.55741,0.27138 -1.21892,0.40729 -1.98546,0.40729 -1.18848,0 -2.15707,-0.37457 -2.90439,-1.12486 -0.74801,-0.75007 -1.12143,-1.68914 -1.12143,-2.81744 0,-1.15645 0.37251,-2.11634 1.118,-2.88037 0.74526,-0.76402 1.67953,-1.14569 2.80348,-1.14569 1.19351,0 2.1637,0.38167 2.91148,1.14569 0.74755,0.76403 1.12144,1.77288 1.12144,3.02658 z"
           style="fill:#ffffff;fill-opacity:1;fill-rule:nonzero;stroke:none;stroke-width:0.22881812"
           id="path1835" />
        <path
           d="m -166.92672,109.14389 h 1.90194 v 0.77684 c 0.4311,-0.36359 0.82145,-0.61644 1.17178,-0.75876 0.35008,-0.1421 0.70796,-0.21326 1.0743,-0.21326 0.7512,0 1.38915,0.26245 1.91291,0.7869 0.44048,0.44597 0.66106,1.10543 0.66106,1.97837 v 5.00837 h -1.88111 v -3.31878 c 0,-0.90429 -0.0405,-1.50517 -0.1215,-1.80172 -0.081,-0.297 -0.22242,-0.52285 -0.424,-0.67867 -0.20113,-0.15514 -0.45032,-0.23294 -0.74687,-0.23294 -0.38442,0 -0.7146,0.12859 -0.99009,0.38602 -0.2755,0.25741 -0.46702,0.61346 -0.57342,1.06812 -0.0556,0.2366 -0.0831,0.74893 -0.0831,1.53766 v 3.04031 h -1.90193 z"
           style="fill:#ffffff;fill-opacity:1;fill-rule:nonzero;stroke:none;stroke-width:0.22881812"
           id="path1839" />
        <path
           d="m -158.13621,106.35082 h 1.90147 v 2.79319 h 1.12831 v 1.63696 h -1.12831 v 5.94126 h -1.90147 v -5.94126 h -0.97522 v -1.63696 h 0.97522 z"
           style="fill:#ffffff;fill-opacity:1;fill-rule:nonzero;stroke:none;stroke-width:0.22881812"
           id="path1843" />
        <path
           d="m -150.49515,110.70407 c -0.58783,0 -1.07613,0.208 -1.46466,0.62353 -0.38899,0.41553 -0.58326,0.94845 -0.58326,1.59875 0,0.65442 0.1977,1.19329 0.59379,1.61591 0.39539,0.4224 0.88255,0.6336 1.46123,0.6336 0.59698,0 1.09215,-0.20754 1.48548,-0.6233 0.39311,-0.41576 0.5899,-0.95989 0.5899,-1.63331 0,-0.65922 -0.19679,-1.19351 -0.5899,-1.60218 -0.39333,-0.40844 -0.89078,-0.613 -1.49258,-0.613 m 1.99873,-1.56009 h 1.90193 v 7.57823 h -1.90193 v -0.80109 c -0.37092,0.35307 -0.74298,0.60751 -1.1164,0.76288 -0.37321,0.1556 -0.77799,0.23339 -1.21388,0.23339 -0.97889,0 -1.82551,-0.37961 -2.53965,-1.13905 -0.71415,-0.75899 -1.0711,-1.70287 -1.0711,-2.8314 0,-1.17017 0.34528,-2.12892 1.03655,-2.87693 0.69102,-0.74755 1.53055,-1.12121 2.51837,-1.12121 0.45465,0 0.8814,0.0861 1.28023,0.25765 0.39883,0.17184 0.76768,0.42972 1.10588,0.77318 z"
           style="fill:#ffffff;fill-opacity:1;fill-rule:nonzero;stroke:none;stroke-width:0.22881812"
           id="path1847" />
        <path
           d="m -140.033,110.20263 -1.17703,1.17704 c -0.47823,-0.47365 -0.91276,-0.71025 -1.30267,-0.71025 -0.21371,0 -0.38098,0.0453 -0.50157,0.13569 -0.12104,0.0906 -0.181,0.20319 -0.181,0.33797 0,0.10205 0.0385,0.19609 0.11488,0.28213 0.0767,0.0858 0.26565,0.20296 0.56769,0.35146 l 0.69652,0.34849 c 0.73359,0.36199 1.23746,0.73108 1.51135,1.10771 0.27435,0.37572 0.41096,0.81711 0.41096,1.32302 0,0.67342 -0.24735,1.2354 -0.74161,1.68594 -0.4947,0.45032 -1.15758,0.67547 -1.98865,0.67547 -1.10519,0 -1.98774,-0.43178 -2.64697,-1.29557 l 1.1704,-1.27451 c 0.22264,0.25993 0.48396,0.46999 0.78325,0.63039 0.29975,0.15994 0.5654,0.24003 0.79789,0.24003 0.25078,0 0.4526,-0.0599 0.60568,-0.181 0.15331,-0.12058 0.23019,-0.25993 0.23019,-0.41782 0,-0.29265 -0.27664,-0.57799 -0.82901,-0.85669 l -0.64092,-0.32081 c -1.22578,-0.61734 -1.83878,-1.39029 -1.83878,-2.31929 0,-0.59905 0.2311,-1.11092 0.69309,-1.53583 0.46176,-0.42492 1.05256,-0.63726 1.77266,-0.63726 0.49196,0 0.95531,0.108 1.38983,0.32377 0.43361,0.21601 0.80178,0.52583 1.10382,0.92992"
           style="fill:#ffffff;fill-opacity:1;fill-rule:nonzero;stroke:none;stroke-width:0.22881812"
           id="path1851" />
        <path
           d="m -234.11562,124.95315 c -0.49676,0 -0.90886,0.16956 -1.23607,0.50843 -0.32721,0.33865 -0.49105,0.78187 -0.49105,1.32852 0,0.55809 0.16384,1.00977 0.49105,1.35437 0.32721,0.34483 0.73931,0.51713 1.23607,0.51713 0.48144,0 0.88691,-0.1755 1.21572,-0.5256 0.32972,-0.35054 0.49424,-0.7972 0.49424,-1.34018 0,-0.53932 -0.16177,-0.98094 -0.48532,-1.32554 -0.32355,-0.34483 -0.73153,-0.51713 -1.22464,-0.51713 m -1.65778,-1.29374 v 0.69309 c 0.2851,-0.28511 0.59309,-0.49882 0.92419,-0.64115 0.33133,-0.14233 0.68554,-0.21371 1.06286,-0.21371 0.82031,0 1.51707,0.30982 2.09117,0.92991 0.57365,0.6201 0.86059,1.41524 0.86059,2.38566 0,0.93563 -0.29678,1.71865 -0.88965,2.3479 -0.59287,0.62994 -1.2958,0.94456 -2.10833,0.94456 -0.36176,0 -0.69881,-0.0648 -1.01091,-0.1938 -0.31166,-0.12883 -0.62171,-0.33957 -0.92992,-0.63223 v 2.96319 h -1.56535 v -8.58342 z"
           style="fill:#ffffff;fill-opacity:1;fill-rule:nonzero;stroke:none;stroke-width:0.22881812"
           id="path1855" />
        <path
           d="m -226.54858,124.95315 c -0.48738,0 -0.89216,0.1723 -1.21479,0.51713 -0.32241,0.3446 -0.48349,0.78622 -0.48349,1.32554 0,0.54298 0.16406,0.98964 0.49218,1.34018 0.32813,0.3501 0.73222,0.5256 1.21183,0.5256 0.49493,0 0.90565,-0.1723 1.23195,-0.51713 0.3263,-0.3446 0.48945,-0.79628 0.48945,-1.35437 0,-0.54665 -0.16315,-0.98987 -0.48945,-1.32852 -0.3263,-0.33887 -0.73862,-0.50843 -1.23768,-0.50843 m 1.65779,-1.29374 h 1.57702 v 6.28449 h -1.57702 v -0.66426 c -0.30799,0.29266 -0.61643,0.5034 -0.92603,0.63223 -0.30982,0.12905 -0.64526,0.1938 -1.00656,0.1938 -0.81186,0 -1.51387,-0.31462 -2.10605,-0.94456 -0.59218,-0.62925 -0.8885,-1.41227 -0.8885,-2.3479 0,-0.97042 0.28648,-1.76556 0.85967,-2.38566 0.57319,-0.62009 1.26948,-0.92991 2.08865,-0.92991 0.37663,0 0.73039,0.0714 1.06126,0.21371 0.33087,0.14233 0.63657,0.35604 0.91756,0.64115 z"
           style="fill:#ffffff;fill-opacity:1;fill-rule:nonzero;stroke:none;stroke-width:0.22881812"
           id="path1859" />
        <path
           d="m -222.08933,123.65934 h 1.35163 v 0.79125 c 0.14645,-0.31187 0.34071,-0.5487 0.58326,-0.71048 0.24278,-0.16177 0.50843,-0.24255 0.7972,-0.24255 0.20434,0 0.41805,0.054 0.64115,0.16178 l -0.49081,1.35734 c -0.18489,-0.0924 -0.33729,-0.13866 -0.45627,-0.13866 -0.24277,0 -0.44779,0.15011 -0.61529,0.45055 -0.16772,0.30043 -0.25147,0.88964 -0.25147,1.76761 l 0.006,0.30617 v 2.54148 h -1.56535 z"
           style="fill:#ffffff;fill-opacity:1;fill-rule:nonzero;stroke:none;stroke-width:0.22881812"
           id="path1863" />
        <path
           d="m -214.95574,124.95315 c -0.48715,0 -0.89216,0.1723 -1.21479,0.51713 -0.32241,0.3446 -0.48349,0.78622 -0.48349,1.32554 0,0.54298 0.16428,0.98964 0.49218,1.34018 0.32813,0.3501 0.73222,0.5256 1.21182,0.5256 0.49517,0 0.9059,-0.1723 1.23219,-0.51713 0.32606,-0.3446 0.48921,-0.79628 0.48921,-1.35437 0,-0.54665 -0.16315,-0.98987 -0.48921,-1.32852 -0.32629,-0.33887 -0.73863,-0.50843 -1.23791,-0.50843 m 1.65779,-1.29374 h 1.57701 v 6.28449 h -1.57701 v -0.66426 c -0.30776,0.29266 -0.61621,0.5034 -0.9258,0.63223 -0.30982,0.12905 -0.64527,0.1938 -1.0068,0.1938 -0.81185,0 -1.51363,-0.31462 -2.10582,-0.94456 -0.5924,-0.62925 -0.88872,-1.41227 -0.88872,-2.3479 0,-0.97042 0.28648,-1.76556 0.85967,-2.38566 0.57342,-0.62009 1.26948,-0.92991 2.08865,-0.92991 0.37686,0 0.73061,0.0714 1.06149,0.21371 0.33064,0.14233 0.63657,0.35604 0.91733,0.64115 z"
           style="fill:#ffffff;fill-opacity:1;fill-rule:nonzero;stroke:none;stroke-width:0.22881812"
           id="path1867" />
        <path
           id="path1869"
           style="fill:#ffffff;fill-opacity:1;fill-rule:nonzero;stroke:none;stroke-width:0.22881812"
           d="m -199.88603,121.23338 h 1.57702 v 8.71065 h -1.57702 z" />
        <path
           d="m -193.89598,124.95315 c -0.48738,0 -0.89216,0.1723 -1.21479,0.51713 -0.32263,0.3446 -0.48349,0.78622 -0.48349,1.32554 0,0.54298 0.16406,0.98964 0.49218,1.34018 0.3279,0.3501 0.732,0.5256 1.21159,0.5256 0.49517,0 0.90589,-0.1723 1.23219,-0.51713 0.3263,-0.3446 0.48945,-0.79628 0.48945,-1.35437 0,-0.54665 -0.16315,-0.98987 -0.48945,-1.32852 -0.3263,-0.33887 -0.73862,-0.50843 -1.23768,-0.50843 m 1.65756,-1.29374 h 1.57702 v 6.28449 h -1.57702 v -0.66426 c -0.30776,0.29266 -0.61621,0.5034 -0.9258,0.63223 -0.30982,0.12905 -0.64526,0.1938 -1.0068,0.1938 -0.81162,0 -1.51363,-0.31462 -2.10581,-0.94456 -0.59218,-0.62925 -0.8885,-1.41227 -0.8885,-2.3479 0,-0.97042 0.28625,-1.76556 0.85967,-2.38566 0.57319,-0.62009 1.26948,-0.92991 2.08865,-0.92991 0.37663,0 0.73039,0.0714 1.06126,0.21371 0.33064,0.14233 0.63657,0.35604 0.91733,0.64115 z"
           style="fill:#ffffff;fill-opacity:1;fill-rule:nonzero;stroke:none;stroke-width:0.22881812"
           id="path1873" />
        <path
           d="m -177.14665,119.69747 h 5.66279 V 121.62 h -1.8667 v 8.32394 h -1.97836 V 121.62 h -1.81773 z"
           style="fill:#ffffff;fill-opacity:1;fill-rule:nonzero;stroke:none;stroke-width:0.22881812"
           id="path1877" />
        <path
           d="m -166.76449,123.96033 c -0.59104,0 -1.08277,0.20548 -1.47564,0.61666 -0.39335,0.41073 -0.5899,0.93678 -0.5899,1.5777 0,0.65946 0.19427,1.19352 0.5828,1.60196 0.3883,0.40867 0.88026,0.613 1.47565,0.613 0.59516,0 1.09055,-0.20662 1.48618,-0.62009 0.39493,-0.41325 0.59332,-0.94456 0.59332,-1.59487 0,-0.65007 -0.1945,-1.17841 -0.5828,-1.58479 -0.38853,-0.40593 -0.88507,-0.60957 -1.48961,-0.60957 m -0.0318,-1.79005 c 0.71529,0 1.38755,0.17871 2.01681,0.53635 0.62925,0.35764 1.12006,0.84297 1.47312,1.45574 0.35262,0.61324 0.52949,1.27475 0.52949,1.98546 0,0.71506 -0.17779,1.38366 -0.53269,2.00604 -0.35558,0.62216 -0.83976,1.10863 -1.45277,1.45918 -0.613,0.35055 -1.28846,0.52582 -2.02664,0.52582 -1.08665,0 -2.01428,-0.3867 -2.78288,-1.15965 -0.7686,-0.7734 -1.15302,-1.71247 -1.15302,-2.81766 0,-1.18391 0.43453,-2.17057 1.30289,-2.96022 0.76151,-0.68715 1.63697,-1.03106 2.62569,-1.03106"
           style="fill:#ffffff;fill-opacity:1;fill-rule:nonzero;stroke:none;stroke-width:0.22881812"
           id="path1881" />
        <path
           d="m -161.23732,122.36541 h 1.90148 v 0.87043 c 0.32538,-0.35742 0.68669,-0.62398 1.08391,-0.80086 0.39746,-0.1762 0.83061,-0.26475 1.30014,-0.26475 0.47389,0 0.90109,0.11625 1.28231,0.34826 0.38144,0.23271 0.68782,0.57136 0.92007,1.0171 0.30227,-0.44574 0.67295,-0.78439 1.11206,-1.0171 0.43933,-0.23201 0.91893,-0.34826 1.43949,-0.34826 0.53887,0 1.01298,0.1254 1.42165,0.37641 0.40912,0.25055 0.70293,0.57776 0.88209,0.98208 0.17871,0.40387 0.2684,1.06127 0.2684,1.97105 v 4.4441 h -1.91566 v -3.84506 c 0,-0.85875 -0.10708,-1.44041 -0.32034,-1.74474 -0.21372,-0.3041 -0.53407,-0.45626 -0.96149,-0.45626 -0.32493,0 -0.61621,0.0931 -0.87409,0.2787 -0.25765,0.1858 -0.44917,0.4423 -0.57456,0.76952 -0.12516,0.32743 -0.18832,0.85326 -0.18832,1.57747 v 3.42037 h -1.91521 v -3.67092 c 0,-0.678 -0.0501,-1.16881 -0.15011,-1.47291 -0.1,-0.3041 -0.25032,-0.53063 -0.4503,-0.67936 -0.20022,-0.1485 -0.44254,-0.22287 -0.72627,-0.22287 -0.31669,0 -0.60386,0.094 -0.86219,0.28213 -0.25857,0.18809 -0.45169,0.45169 -0.57937,0.79057 -0.12814,0.33911 -0.19221,0.87317 -0.19221,1.60196 v 3.3714 h -1.90148 z"
           style="fill:#ffffff;fill-opacity:1;fill-rule:nonzero;stroke:none;stroke-width:0.22881812"
           id="path1885" />
        <path
           d="m -144.22075,123.92568 c -0.58784,0 -1.07613,0.208 -1.46466,0.62353 -0.389,0.41553 -0.58326,0.94822 -0.58326,1.59852 0,0.65442 0.19769,1.19329 0.59378,1.61614 0.39539,0.4224 0.88255,0.63361 1.46123,0.63361 0.59699,0 1.09215,-0.20754 1.48549,-0.62353 0.39311,-0.41554 0.58989,-0.95967 0.58989,-1.63331 0,-0.65923 -0.19678,-1.19329 -0.58989,-1.60196 -0.39334,-0.40844 -0.89079,-0.613 -1.49258,-0.613 m 1.99872,-1.56031 h 1.90194 v 7.57845 h -1.90194 v -0.80108 c -0.37091,0.35283 -0.74297,0.6075 -1.1164,0.76264 -0.3732,0.1556 -0.77798,0.2334 -1.21388,0.2334 -0.97888,0 -1.82551,-0.37938 -2.53965,-1.13883 -0.71415,-0.75922 -1.0711,-1.70309 -1.0711,-2.8314 0,-1.17017 0.34528,-2.12892 1.03655,-2.87692 0.69102,-0.74756 1.53056,-1.12122 2.51837,-1.12122 0.45466,0 0.8814,0.0861 1.28024,0.25743 0.39859,0.17207 0.76768,0.42994 1.10587,0.7734 z"
           style="fill:#ffffff;fill-opacity:1;fill-rule:nonzero;stroke:none;stroke-width:0.22881812"
           id="path1889" />
        <path
           d="m -229.42217,138.17476 c -0.48715,0 -0.89216,0.17207 -1.21479,0.51713 -0.32241,0.3446 -0.4835,0.78622 -0.4835,1.32554 0,0.54298 0.16407,0.98964 0.49219,1.33996 0.32812,0.35032 0.73222,0.52583 1.21182,0.52583 0.49517,0 0.90589,-0.17231 1.23219,-0.51736 0.32606,-0.34461 0.48921,-0.79606 0.48921,-1.35438 0,-0.54665 -0.16315,-0.98964 -0.48921,-1.32851 -0.3263,-0.33865 -0.73886,-0.50821 -1.23791,-0.50821 m 1.65779,-3.71989 h 1.57679 v 8.71064 h -1.57679 v -0.66426 c -0.30799,0.29244 -0.61621,0.5034 -0.9258,0.63223 -0.31005,0.12905 -0.6455,0.1938 -1.0068,0.1938 -0.81185,0 -1.51386,-0.31462 -2.10604,-0.94478 -0.59219,-0.62925 -0.8885,-1.41204 -0.8885,-2.3479 0,-0.97042 0.28648,-1.76534 0.85967,-2.38544 0.57318,-0.62009 1.26948,-0.93014 2.08865,-0.93014 0.37686,0 0.73061,0.0714 1.06149,0.21372 0.33041,0.14232 0.63634,0.35604 0.91733,0.64137 z"
           style="fill:#ffffff;fill-opacity:1;fill-rule:nonzero;stroke:none;stroke-width:0.22881812"
           id="path1893" />
        <path
           d="m -219.87398,139.23751 c -0.10434,-0.35032 -0.30959,-0.63543 -0.61621,-0.85486 -0.30661,-0.21945 -0.66243,-0.32927 -1.06743,-0.32927 -0.44002,0 -0.82581,0.12332 -1.15736,0.36976 -0.20823,0.15377 -0.40112,0.42537 -0.57846,0.81437 z m 1.57702,1.24202 h -5.06581 c 0.073,0.44666 0.26863,0.80178 0.586,1.06584 0.31806,0.2636 0.72307,0.39539 1.21618,0.39539 0.58898,0 1.09535,-0.20571 1.51912,-0.61803 l 1.32852,0.62375 c -0.33133,0.46999 -0.72765,0.81734 -1.18986,1.04296 -0.46221,0.22492 -1.01092,0.33773 -1.64635,0.33773 -0.98574,0 -1.78867,-0.31096 -2.40877,-0.93312 -0.62009,-0.62169 -0.92991,-1.40059 -0.92991,-2.33623 0,-0.95875 0.3089,-1.75503 0.9274,-2.38864 0.61758,-0.63336 1.39281,-0.95004 2.32479,-0.95004 0.98964,0 1.79439,0.31668 2.41449,0.95004 0.61987,0.63361 0.92992,1.47016 0.92992,2.50992 z"
           style="fill:#ffffff;fill-opacity:1;fill-rule:nonzero;stroke:none;stroke-width:0.22881812"
           id="path1897" />
        <path
           d="m -210.71253,134.80004 v 6.46411 h 0.90521 c 0.8917,0 1.53834,-0.10251 1.94037,-0.30685 0.40135,-0.20456 0.72994,-0.54893 0.98507,-1.03242 0.25558,-0.48304 0.38326,-1.07843 0.38326,-1.78478 0,-1.08804 -0.3041,-1.93169 -0.91253,-2.53143 -0.54778,-0.53931 -1.42781,-0.80863 -2.63964,-0.80863 z m -1.93672,-1.88112 h 2.31084 c 1.48937,0 2.59594,0.18489 3.31969,0.55397 0.72375,0.36931 1.3196,0.96951 1.78867,1.8008 0.46862,0.83107 0.70293,1.80149 0.70293,2.91125 0,0.78965 -0.13111,1.515 -0.39356,2.17697 -0.26177,0.66152 -0.62377,1.21091 -1.08552,1.64727 -0.46176,0.43658 -0.96172,0.73816 -1.49967,0.90543 -0.53841,0.16726 -1.47107,0.25079 -2.79799,0.25079 h -2.34539 z"
           style="fill:#ffffff;fill-opacity:1;fill-rule:nonzero;stroke:none;stroke-width:0.22881812"
           id="path1901" />
        <path
           d="m -197.18545,138.42881 c -0.12585,-0.42239 -0.37343,-0.76608 -0.74343,-1.03082 -0.36977,-0.26475 -0.79881,-0.397 -1.2871,-0.397 -0.5304,0 -0.99558,0.1485 -1.39556,0.44574 -0.25102,0.1858 -0.48372,0.51324 -0.69744,0.98208 z m 1.90148,1.49785 h -6.10876 c 0.0881,0.53841 0.32378,0.96698 0.70682,1.28504 0.38327,0.31805 0.87203,0.47709 1.4665,0.47709 0.71025,0 1.32073,-0.2485 1.83168,-0.7455 l 1.60219,0.75213 c -0.39974,0.56679 -0.87775,0.98575 -1.43492,1.25759 -0.55717,0.27137 -1.21868,0.40752 -1.98522,0.40752 -1.18849,0 -2.15707,-0.37481 -2.90439,-1.12509 -0.74801,-0.74984 -1.12144,-1.68915 -1.12144,-2.81744 0,-1.15623 0.37229,-2.11611 1.11778,-2.88037 0.74526,-0.76379 1.67975,-1.14569 2.80371,-1.14569 1.19328,0 2.1637,0.3819 2.91148,1.14569 0.74755,0.76426 1.12121,1.77288 1.12121,3.02681 z"
           style="fill:#ffffff;fill-opacity:1;fill-rule:nonzero;stroke:none;stroke-width:0.22881812"
           id="path1905" />
        <path
           d="m -186.32643,137.11938 -1.58296,0.87043 c -0.29769,-0.31074 -0.59196,-0.52674 -0.88233,-0.64756 -0.29059,-0.12059 -0.63107,-0.181 -1.0219,-0.181 -0.71116,0 -1.28664,0.21189 -1.72597,0.63635 -0.43933,0.424 -0.659,0.96767 -0.659,1.63056 0,0.64458 0.21143,1.17086 0.63474,1.57907 0.42309,0.40798 0.97866,0.61186 1.66672,0.61186 0.85074,0 1.5134,-0.29014 1.98774,-0.87088 l 1.49945,1.02693 c -0.81277,1.05692 -1.96006,1.58526 -3.4412,1.58526 -1.33286,0 -2.37651,-0.39448 -3.13092,-1.18413 -0.75464,-0.7892 -1.13219,-1.7134 -1.13219,-2.77237 0,-0.73336 0.18351,-1.40928 0.55053,-2.02709 0.36657,-0.61736 0.87866,-1.10245 1.53583,-1.45552 0.65717,-0.35261 1.39213,-0.52925 2.20443,-0.52925 0.75236,0 1.42806,0.14964 2.02711,0.44916 0.59904,0.29953 1.08894,0.72559 1.46992,1.27818"
           style="fill:#ffffff;fill-opacity:1;fill-rule:nonzero;stroke:none;stroke-width:0.22881812"
           id="path1909" />
        <path
           id="path1911"
           style="fill:#ffffff;fill-opacity:1;fill-rule:nonzero;stroke:none;stroke-width:0.22881812"
           d="m -184.82201,135.58691 h 1.90148 v 7.57846 h -1.90148 z m 0.95096,-3.12061 c 0.33316,0 0.61942,0.12104 0.85784,0.36221 0.2382,0.24163 0.35765,0.53429 0.35765,0.87775 0,0.33911 -0.11808,0.62811 -0.35444,0.86699 -0.23591,0.23935 -0.51827,0.35901 -0.84732,0.35901 -0.33796,0 -0.62605,-0.12218 -0.8647,-0.36564 -0.23843,-0.24392 -0.35741,-0.54001 -0.35741,-0.88827 0,-0.33431 0.11784,-0.6201 0.35397,-0.85647 0.23638,-0.23729 0.52103,-0.35558 0.85441,-0.35558" />
        <path
           d="m -176.5536,136.64566 -1.17704,1.17704 c -0.47823,-0.47365 -0.91276,-0.71002 -1.30266,-0.71002 -0.21371,0 -0.38098,0.0451 -0.50157,0.13546 -0.12104,0.0906 -0.181,0.20319 -0.181,0.33796 0,0.10206 0.0385,0.1961 0.11487,0.28213 0.0767,0.0861 0.26566,0.2032 0.5677,0.3517 l 0.69652,0.34826 c 0.73359,0.36221 1.23745,0.7313 1.51134,1.10771 0.27413,0.37572 0.41096,0.81711 0.41096,1.32302 0,0.67341 -0.24735,1.2354 -0.7416,1.68616 -0.4947,0.45009 -1.15759,0.67548 -1.98865,0.67548 -1.10543,0 -1.98775,-0.43201 -2.64697,-1.29558 l 1.17017,-1.27474 c 0.22287,0.26017 0.48418,0.46999 0.78348,0.63039 0.29975,0.15995 0.5654,0.24027 0.79789,0.24027 0.25078,0 0.4526,-0.0602 0.60567,-0.18123 0.15332,-0.12059 0.2302,-0.25993 0.2302,-0.41782 0,-0.29266 -0.27664,-0.578 -0.82901,-0.85647 l -0.64092,-0.3208 c -1.22578,-0.61735 -1.83901,-1.39053 -1.83901,-2.3193 0,-0.59928 0.2311,-1.11114 0.69309,-1.53583 0.46199,-0.42514 1.05279,-0.63748 1.77288,-0.63748 0.49196,0 0.95531,0.108 1.38962,0.32377 0.43383,0.21601 0.802,0.52582 1.10404,0.92992"
           style="fill:#ffffff;fill-opacity:1;fill-rule:nonzero;stroke:none;stroke-width:0.22881812"
           id="path1915" />
        <path
           id="path1917"
           style="fill:#ffffff;fill-opacity:1;fill-rule:nonzero;stroke:none;stroke-width:0.22881812"
           d="m -175.12584,135.58691 h 1.90147 v 7.57846 h -1.90147 z m 0.95073,-3.12061 c 0.3334,0 0.61942,0.12104 0.85784,0.36221 0.2382,0.24163 0.35765,0.53429 0.35765,0.87775 0,0.33911 -0.11808,0.62811 -0.35444,0.86699 -0.23591,0.23935 -0.51828,0.35901 -0.84732,0.35901 -0.33796,0 -0.62604,-0.12218 -0.8647,-0.36564 -0.23842,-0.24392 -0.35719,-0.54001 -0.35719,-0.88827 0,-0.33431 0.11762,-0.6201 0.35376,-0.85647 0.23637,-0.23729 0.52102,-0.35558 0.8544,-0.35558" />
        <path
           d="m -167.9059,137.18183 c -0.59081,0 -1.08277,0.20548 -1.47564,0.61666 -0.39311,0.41096 -0.5899,0.93678 -0.5899,1.5777 0,0.65946 0.19427,1.19375 0.5828,1.60196 0.3883,0.4089 0.88026,0.613 1.47565,0.613 0.59516,0 1.09055,-0.20662 1.48618,-0.6201 0.39493,-0.41324 0.59332,-0.94455 0.59332,-1.59486 0,-0.65007 -0.1945,-1.17841 -0.5828,-1.58479 -0.38853,-0.40593 -0.88507,-0.60957 -1.48961,-0.60957 m -0.0316,-1.78982 c 0.71506,0 1.38733,0.17848 2.01659,0.53612 0.62925,0.35764 1.12029,0.84297 1.47312,1.45597 0.35284,0.61301 0.52949,1.27452 0.52949,1.98523 0,0.71506 -0.17779,1.38366 -0.53269,2.00604 -0.35536,0.62216 -0.83954,1.10886 -1.45253,1.45918 -0.61301,0.35055 -1.28848,0.52582 -2.02688,0.52582 -1.08643,0 -2.01405,-0.3867 -2.78288,-1.15965 -0.7686,-0.77318 -1.15279,-1.71247 -1.15279,-2.81766 0,-1.18391 0.4343,-2.17057 1.30289,-2.96022 0.76128,-0.68715 1.63696,-1.03083 2.62568,-1.03083"
           style="fill:#ffffff;fill-opacity:1;fill-rule:nonzero;stroke:none;stroke-width:0.22881812"
           id="path1921" />
        <path
           d="m -162.36466,135.58691 h 1.90171 v 0.77685 c 0.43109,-0.3636 0.82146,-0.61645 1.17201,-0.75877 0.34986,-0.1421 0.70796,-0.21303 1.07429,-0.21303 0.75121,0 1.38893,0.26222 1.91292,0.7869 0.44025,0.44574 0.66084,1.1052 0.66084,1.97814 v 5.00837 h -1.88112 v -3.31855 c 0,-0.90452 -0.0403,-1.50517 -0.1215,-1.80195 -0.0808,-0.297 -0.22241,-0.52284 -0.42377,-0.67844 -0.20137,-0.15537 -0.45055,-0.23316 -0.74709,-0.23316 -0.38442,0 -0.7146,0.12882 -0.99011,0.38601 -0.27549,0.25742 -0.46678,0.6137 -0.57318,1.06835 -0.0558,0.23638 -0.0833,0.7487 -0.0833,1.53744 v 3.0403 h -1.90171 z"
           style="fill:#ffffff;fill-opacity:1;fill-rule:nonzero;stroke:none;stroke-width:0.22881812"
           id="path1925" />
        <path
           d="m -148.11336,138.42881 c -0.12584,-0.42239 -0.37343,-0.76608 -0.74343,-1.03082 -0.36954,-0.26475 -0.79881,-0.397 -1.2871,-0.397 -0.5304,0 -0.99558,0.1485 -1.39556,0.44574 -0.25102,0.1858 -0.48372,0.51324 -0.69744,0.98208 z m 1.90148,1.49785 h -6.10875 c 0.0881,0.53841 0.32377,0.96698 0.70682,1.28504 0.38327,0.31805 0.87202,0.47709 1.46649,0.47709 0.71025,0 1.32074,-0.2485 1.83169,-0.7455 l 1.60218,0.75213 c -0.39951,0.56679 -0.87775,0.98575 -1.43492,1.25759 -0.55717,0.27137 -1.21868,0.40752 -1.98522,0.40752 -1.18848,0 -2.15707,-0.37481 -2.90439,-1.12509 -0.74801,-0.74984 -1.12144,-1.68915 -1.12144,-2.81744 0,-1.15623 0.37229,-2.11611 1.118,-2.88037 0.74504,-0.76379 1.67953,-1.14569 2.80349,-1.14569 1.19328,0 2.1637,0.3819 2.91148,1.14569 0.74755,0.76426 1.12144,1.77288 1.12144,3.02681 z"
           style="fill:#ffffff;fill-opacity:1;fill-rule:nonzero;stroke:none;stroke-width:0.22881812"
           id="path1929" />
        <path
           d="m -140.03343,136.64566 -1.17704,1.17704 c -0.47823,-0.47365 -0.91252,-0.71002 -1.30266,-0.71002 -0.21372,0 -0.38076,0.0451 -0.50134,0.13546 -0.12105,0.0906 -0.18123,0.20319 -0.18123,0.33796 0,0.10206 0.0385,0.1961 0.11487,0.28213 0.0768,0.0861 0.26566,0.2032 0.5677,0.3517 l 0.69652,0.34826 c 0.73359,0.36221 1.23745,0.7313 1.51158,1.10771 0.27412,0.37572 0.41095,0.81711 0.41095,1.32302 0,0.67341 -0.24735,1.2354 -0.74183,1.68616 -0.49471,0.45009 -1.15736,0.67548 -1.98866,0.67548 -1.10519,0 -1.98774,-0.43201 -2.64696,-1.29558 l 1.1704,-1.27474 c 0.22287,0.26017 0.48418,0.46999 0.78325,0.63039 0.29998,0.15995 0.56564,0.24027 0.79811,0.24027 0.25056,0 0.45238,-0.0602 0.60569,-0.18123 0.1533,-0.12059 0.22996,-0.25993 0.22996,-0.41782 0,-0.29266 -0.27642,-0.578 -0.82901,-0.85647 l -0.64093,-0.3208 c -1.22577,-0.61735 -1.83878,-1.39053 -1.83878,-2.3193 0,-0.59928 0.23111,-1.11114 0.69309,-1.53583 0.46176,-0.42514 1.0528,-0.63748 1.77289,-0.63748 0.49196,0 0.95532,0.108 1.38961,0.32377 0.43384,0.21601 0.80201,0.52582 1.10382,0.92992"
           style="fill:#ffffff;fill-opacity:1;fill-rule:nonzero;stroke:none;stroke-width:0.22881812"
           id="path1933" />
      </g>
    </g>
    <path
       id="rect1552"
       d="m -396.68649,220.3568 v 29.62965 h 96.82745 V 220.3568 Z"
       style="opacity:1;fill:#ffd42a;fill-opacity:1;stroke:none;stroke-width:0.29764321;stroke-linecap:round;stroke-linejoin:round;stroke-miterlimit:4;stroke-dasharray:none;stroke-opacity:1" />
  </g>
</svg>
