<?xml version="1.0" encoding="UTF-8" standalone="no"?>
<!-- Created with Inkscape (http://www.inkscape.org/) -->

<svg
   xmlns:dc="http://purl.org/dc/elements/1.1/"
   xmlns:cc="http://creativecommons.org/ns#"
   xmlns:rdf="http://www.w3.org/1999/02/22-rdf-syntax-ns#"
   xmlns:svg="http://www.w3.org/2000/svg"
   xmlns="http://www.w3.org/2000/svg"
   xmlns:sodipodi="http://sodipodi.sourceforge.net/DTD/sodipodi-0.dtd"
   xmlns:inkscape="http://www.inkscape.org/namespaces/inkscape"
   viewBox="0 0 195.45204 81.844093"
   version="1.1"
   id="teta-cabecera"
   inkscape:version="0.92.5 (2060ec1f9f, 2020-04-08)"
   sodipodi:docname="teta-cabecera.svg">
  <defs
     id="defs3554">
    <clipPath
       id="clipPath4175"
       clipPathUnits="userSpaceOnUse">
      <path
         inkscape:connector-curvature="0"
         id="path4173"
         d="M 0,560 H 960 V 0 H 0 Z" />
    </clipPath>
    <clipPath
       id="clipPath4213"
       clipPathUnits="userSpaceOnUse">
      <path
         inkscape:connector-curvature="0"
         id="path4211"
         d="M 0,560 H 960 V 0 H 0 Z" />
    </clipPath>
    <clipPath
       id="clipPath4313"
       clipPathUnits="userSpaceOnUse">
      <path
         inkscape:connector-curvature="0"
         id="path4311"
         d="M 0,560 H 960 V 0 H 0 Z" />
    </clipPath>
    <clipPath
       id="clipPath4175-3"
       clipPathUnits="userSpaceOnUse">
      <path
         inkscape:connector-curvature="0"
         id="path4173-6"
         d="M 0,560 H 960 V 0 H 0 Z" />
    </clipPath>
    <clipPath
       clipPathUnits="userSpaceOnUse"
       id="clipPath666">
      <path
         d="m 1186.17,1857.09 h 187.37 v -194.48 h -187.37 z"
         id="path664"
         inkscape:connector-curvature="0" />
    </clipPath>
  </defs>
  <sodipodi:namedview
     id="base"
     pagecolor="#ffffff"
     bordercolor="#666666"
     borderopacity="1.0"
     inkscape:pageopacity="0.0"
     inkscape:pageshadow="2"
     inkscape:zoom="2.6978013"
     inkscape:cx="97.085401"
     inkscape:cy="38.866821"
     inkscape:document-units="mm"
     inkscape:current-layer="layer1"
     showgrid="false"
     fit-margin-top="0"
     fit-margin-left="0"
     fit-margin-right="0"
     fit-margin-bottom="0"
     inkscape:window-width="1366"
     inkscape:window-height="652"
     inkscape:window-x="0"
     inkscape:window-y="27"
     inkscape:window-maximized="1"
     showguides="false" />
  <metadata
     id="metadata3557">
    <rdf:RDF>
      <cc:Work
         rdf:about="">
        <dc:format>image/svg+xml</dc:format>
        <dc:type
           rdf:resource="http://purl.org/dc/dcmitype/StillImage" />
        <dc:title />
      </cc:Work>
    </rdf:RDF>
  </metadata>
  <g
     inkscape:label="Capa 1"
     inkscape:groupmode="layer"
     id="layer1"
     transform="translate(277.64269,-65.577954)">
    <g
       transform="matrix(0.35277777,0,0,-0.35277777,-812.5181,721.91655)"
       id="g3507">
      <path
         inkscape:connector-curvature="0"
         id="path526"
         d="m 1651.8178,1860.4874 c -7.448,-5.0913 -14.898,-10.1801 -22.2466,-15.4072 -23.8121,-16.939 -45.788,-35.8451 -64.3169,-58.5601 -6.414,-7.865 -12.5263,-15.9614 -17.7393,-24.6723 -4.302,-7.1901 -9.4599,-13.7072 -15.9639,-18.8672 -14.367,-11.395 -18.2313,-25.9872 -13.3813,-43.0152 1.748,-6.14 1.4284,-12.0063 0.6694,-17.9883 -2.313,-18.2071 -1.5966,-36.0242 1.8897,-53.4887 h 549.4907 v 231.999 z"
         style="fill:#fcbdd4;fill-opacity:1;fill-rule:evenodd;stroke:none;stroke-width:0.99999994" />
    </g>
    <g
       transform="matrix(0.4532696,0,0,-0.4532696,-195.09788,213.98536)"
       id="g4169"
       style="fill:#ffffff;fill-opacity:1">
      <g
         clip-path="url(#clipPath4175-3)"
         id="g4171"
         style="fill:#ffffff;fill-opacity:1">
        <g
           transform="translate(164.7178,262.0127)"
           id="g4177"
           style="fill:#ffffff;fill-opacity:1">
          <path
             style="fill:#ffffff;fill-opacity:1;fill-rule:nonzero;stroke:none;stroke-width:1.33333325"
             d="m 290.77539,454.2168 c -15.068,0 -27.2832,10.99788 -27.2832,24.56054 0,13.56667 12.2152,24.5586 27.2832,24.5586 15.06133,0 27.26953,-10.99193 27.26953,-24.5586 0,-13.56266 -12.2082,-24.56054 -27.26953,-24.56054 z m -25.81836,47.74414 c 0,0 -6.34267,1.03624 -14,10.01758 -7.65467,8.97866 -6.34423,25.04345 -6.60156,32.43945 -0.26267,7.39467 0,54.79492 0,54.79492 0,0 0.78996,4.59751 5.2793,6.71484 4.49733,2.108 10.57226,1.2461 10.57226,1.2461 l -0.125,-15.80664 2.60156,-0.48828 0.0899,17.24804 h 28.25781 15.4082 c 0,0 -0.10928,-26.2708 0.24805,-35.24414 0.23467,-5.94266 1.14946,-15.18185 10.4668,-20.72851 9.33733,-5.54134 12.11328,-8.37305 12.11328,-8.37305 0,0 -2.51435,-10.37049 -3.04102,-15.92383 -0.52666,-5.54933 0.26367,-19.54101 0.26367,-19.54101 0,0 -4.81469,-3.43294 -7.19335,-3.96094 -2.38,-0.53067 -2.26368,1.05078 -2.26368,1.05078 l -0.0352,23.16602 c 0,0 5.75216,1.45005 5.4375,6.63671 -0.32934,5.53734 -3.93999,8.22097 -9.22266,8.1543 -6.39867,-0.0667 -8.39232,-3.62842 -8.59766,-7.59375 -0.23466,-4.29067 3.23088,-7.63593 6.54688,-7.19726 l 0.0937,-25.27539 c 0,-10e-6 -4.14322,-1.58373 -7.83789,1.8496 -3.704,3.43334 -12.10352,8.43164 -12.10352,8.43164 -2.364,-0.26266 -12.17334,-11.08908 -16.13867,-11.34374 -3.956,-0.26667 -3.42187,-0.25586 -3.42187,-0.25586 v 15.79882 c 0,0 9.18814,-1.5803 12.88281,5.81836 3.696,7.392 4.15743,18.81539 3.13476,21.13672 -1.216,2.772 -5.90137,2.93187 -6.9707,0.0332 -1.05467,-2.90666 0.0882,-5.62097 1.32422,-6.07031 2.212,-0.82133 -1.65238,-14.99292 -5.98438,-15.54492 -7.35466,-0.944 -11.87148,-0.29962 -14.27148,4.98438 -2.40667,5.27733 -0.36618,14.7555 1.39648,14.6875 1.91734,-0.084 5.5713,2.01219 3.2793,5.63085 -1.46133,2.30134 -5.81745,3.43703 -8.18945,-1.32031 -2.372,-4.756 -3.22141,-17.11539 -1.58008,-20.91406 2.876,-6.72667 8.44531,-7.58789 8.44531,-7.58789 z m 93.80859,3.57812 c -15.06266,0 -27.26953,10.43641 -27.26953,23.31641 0,12.87733 12.20687,23.31641 27.26953,23.31641 15.06934,0 27.28321,-10.43908 27.28321,-23.31641 0,-12.88 -12.21387,-23.31641 -27.28321,-23.31641 z m 31.58008,36.27735 c -0.086,-0.005 -0.17487,10e-4 -0.26562,0.0176 -2.90667,0.52534 -12.93901,12.11985 -9.51367,18.33985 3.44,6.22 7.14416,8.86523 12.9375,8.86523 5.81866,0 14.03119,-3.73482 13.50586,-7.52148 -0.53334,-3.78267 -13.57422,-9.30274 -13.57422,-9.30274 0,0 -0.42324,-10.23971 -3.08985,-10.39843 z m -53.29297,12.97851 c 0,0 -7.58355,0.64947 -14.71289,6.4668 -7.14133,5.812 -7.91796,13.98242 -7.91796,13.98242 v 29.36914 c -10e-6,0 -0.70658,4.53125 8.49609,4.53125 10.27333,0 8.83594,-4.53125 8.83594,-4.53125 v -19.15234 h 5.33398 v 22.66601 h 48 v -22.66601 h 4 v 19.15234 c 0,0 -1.31618,3.57031 8.14649,3.57031 10.00399,0 9.1875,-3.57031 9.1875,-3.57031 v -31.5957 c -10e-6,0 -17.37542,1.94117 -25.83008,-2.29883 -8.44667,-4.21467 -10.20508,-15.92383 -10.20508,-15.92383 z"
             transform="matrix(0.75000002,0,0,-0.75000002,-238.53396,359.08277)"
             id="path4179"
             inkscape:connector-curvature="0" />
        </g>
        <g
           transform="translate(215.7202,224.4541)"
           id="g4181"
           style="fill:#ffffff;fill-opacity:1" />
        <g
           transform="translate(144.458,165)"
           id="g4185"
           style="fill:#ffffff;fill-opacity:1" />
        <g
           transform="translate(162,167.6348)"
           id="g4189"
           style="fill:#ffffff;fill-opacity:1" />
        <g
           transform="translate(221.2603,206.9346)"
           id="g4193"
           style="fill:#ffffff;fill-opacity:1" />
      </g>
    </g>
    <path
       style="font-style:normal;font-weight:normal;font-size:41.48643494px;line-height:1.25;font-family:sans-serif;letter-spacing:0px;word-spacing:0px;fill:#ffffff;fill-opacity:1;stroke:none;stroke-width:1.03716087"
       d="M 102.30664 61.996094 L 102.30664 64.605469 L 101.32617 64.605469 L 101.32617 66.136719 L 102.30664 66.136719 L 102.30664 71.689453 L 104.21289 71.689453 L 104.21289 66.136719 L 105.3457 66.136719 L 105.3457 64.605469 L 104.21289 64.605469 L 104.21289 61.996094 L 102.30664 61.996094 z M 67.009766 62.113281 L 67.009766 71.689453 L 68.970703 71.689453 L 68.970703 65.40625 L 73.382812 71.689453 L 75.267578 71.689453 L 75.267578 62.113281 L 73.306641 62.113281 L 73.306641 68.414062 L 68.886719 62.113281 L 67.009766 62.113281 z M 80.982422 64.423828 C 79.987957 64.423828 79.107488 64.744358 78.341797 65.386719 C 77.468722 66.124566 77.033203 67.047526 77.033203 68.154297 C 77.033203 69.187283 77.41714 70.066189 78.1875 70.791016 C 78.962529 71.511502 79.895771 71.871094 80.988281 71.871094 C 81.730628 71.871094 82.411056 71.708334 83.027344 71.382812 C 83.643632 71.052951 84.129543 70.597222 84.484375 70.015625 C 84.843876 69.434028 85.023438 68.809028 85.023438 68.140625 C 85.023438 67.476562 84.845067 66.858073 84.490234 66.285156 C 84.135402 65.71224 83.640823 65.259983 83.005859 64.925781 C 82.375565 64.59158 81.701424 64.423828 80.982422 64.423828 z M 88.742188 64.423828 C 88.018515 64.423828 87.421963 64.624131 86.955078 65.023438 C 86.492862 65.418403 86.261719 65.895182 86.261719 66.455078 C 86.261719 67.323134 86.878752 68.04579 88.111328 68.623047 L 88.755859 68.921875 C 89.311452 69.182292 89.589844 69.449219 89.589844 69.722656 C 89.589844 69.870226 89.511494 70.000434 89.357422 70.113281 C 89.20335 70.226128 89.000165 70.283203 88.748047 70.283203 C 88.514604 70.283203 88.246834 70.210069 87.943359 70.0625 C 87.644553 69.91059 87.382308 69.711806 87.158203 69.46875 L 85.982422 70.660156 C 86.645398 71.467448 87.533345 71.871094 88.644531 71.871094 C 89.480255 71.871094 90.145727 71.661241 90.640625 71.240234 C 91.140192 70.819227 91.388672 70.293404 91.388672 69.664062 C 91.388672 69.190972 91.252026 68.779297 90.976562 68.427734 C 90.7011 68.076172 90.194709 67.73112 89.457031 67.392578 L 88.755859 67.066406 C 88.452384 66.927517 88.261011 66.820313 88.181641 66.742188 C 88.106939 66.659721 88.070312 66.570095 88.070312 66.474609 C 88.070312 66.348741 88.130563 66.244575 88.251953 66.162109 C 88.373343 66.075304 88.541092 66.03125 88.755859 66.03125 C 89.148043 66.03125 89.585515 66.252604 90.066406 66.695312 L 91.248047 65.595703 C 90.944572 65.218099 90.573637 64.930122 90.134766 64.730469 C 89.700563 64.526476 89.237085 64.423828 88.742188 64.423828 z M 96.472656 64.423828 C 95.478192 64.423828 94.599675 64.744358 93.833984 65.386719 C 92.96091 66.124566 92.523437 67.047526 92.523438 68.154297 C 92.523438 69.187283 92.909327 70.066189 93.679688 70.791016 C 94.454716 71.511502 95.387958 71.871094 96.480469 71.871094 C 97.222816 71.871094 97.90129 71.708334 98.517578 71.382812 C 99.133866 71.052951 99.619777 70.597222 99.974609 70.015625 C 100.33411 69.434028 100.51367 68.809028 100.51367 68.140625 C 100.51367 67.476562 100.33725 66.858073 99.982422 66.285156 C 99.627589 65.71224 99.13301 65.259983 98.498047 64.925781 C 97.867752 64.59158 97.191659 64.423828 96.472656 64.423828 z M 109.24023 64.423828 C 108.89007 64.423828 108.56757 64.514974 108.27344 64.697266 C 107.9793 64.879557 107.74382 65.146484 107.56641 65.498047 L 107.56641 64.605469 L 105.92773 64.605469 L 105.92773 71.689453 L 107.82617 71.689453 L 107.82617 68.824219 L 107.81836 68.480469 C 107.81836 67.490885 107.91838 66.826823 108.11914 66.488281 C 108.32457 66.14974 108.575 65.980469 108.86914 65.980469 C 109.01387 65.980469 109.19776 66.032552 109.42188 66.136719 L 110.01758 64.605469 C 109.74678 64.483941 109.48768 64.423828 109.24023 64.423828 z M 114.54102 64.423828 C 113.54655 64.423828 112.66803 64.744358 111.90234 65.386719 C 111.02927 66.124566 110.5918 67.047526 110.5918 68.154297 C 110.5918 69.187283 110.97769 70.066189 111.74805 70.791016 C 112.52308 71.511502 113.45632 71.871094 114.54883 71.871094 C 115.29117 71.871094 115.96965 71.708334 116.58594 71.382812 C 117.20223 71.052951 117.68814 70.597222 118.04297 70.015625 C 118.40247 69.434028 118.58203 68.809028 118.58203 68.140625 C 118.58203 67.476562 118.40561 66.858073 118.05078 66.285156 C 117.69595 65.71224 117.20137 65.259983 116.56641 64.925781 C 115.93611 64.59158 115.26002 64.423828 114.54102 64.423828 z M 122.30078 64.423828 C 121.57711 64.423828 120.98252 64.624131 120.51562 65.023438 C 120.05341 65.418403 119.82227 65.895182 119.82227 66.455078 C 119.82227 67.323134 120.43929 68.04579 121.67188 68.623047 L 122.31641 68.921875 C 122.872 69.182292 123.14844 69.449219 123.14844 69.722656 C 123.14844 69.870226 123.07204 70.000434 122.91797 70.113281 C 122.7639 70.226128 122.56071 70.283203 122.30859 70.283203 C 122.07515 70.283203 121.80738 70.210069 121.50391 70.0625 C 121.2051 69.91059 120.94285 69.711806 120.71875 69.46875 L 119.54297 70.660156 C 120.20595 71.467448 121.09194 71.871094 122.20312 71.871094 C 123.03886 71.871094 123.70432 71.661241 124.19922 71.240234 C 124.69879 70.819227 124.94922 70.293404 124.94922 69.664062 C 124.94922 69.190972 124.81062 68.779297 124.53516 68.427734 C 124.25969 68.076172 123.75331 67.73112 123.01562 67.392578 L 122.31641 67.066406 C 122.01293 66.927517 121.82156 66.820313 121.74219 66.742188 C 121.66749 66.659721 121.62891 66.570095 121.62891 66.474609 C 121.62891 66.348741 121.68916 66.244575 121.81055 66.162109 C 121.93194 66.075304 122.10164 66.03125 122.31641 66.03125 C 122.70859 66.03125 123.14411 66.252604 123.625 66.695312 L 124.80859 65.595703 C 124.50512 65.218099 124.13418 64.930122 123.69531 64.730469 C 123.26111 64.526476 122.79568 64.423828 122.30078 64.423828 z M 81.009766 66.097656 C 81.616716 66.097656 82.114439 66.287977 82.501953 66.669922 C 82.894136 67.047526 83.089844 67.540798 83.089844 68.148438 C 83.089844 68.756076 82.890993 69.252387 82.494141 69.638672 C 82.097289 70.024957 81.601519 70.21875 81.003906 70.21875 C 80.406294 70.21875 79.909761 70.026476 79.517578 69.644531 C 79.130064 69.262587 78.9375 68.764757 78.9375 68.148438 C 78.9375 67.549478 79.133207 67.057726 79.525391 66.675781 C 79.922243 66.289497 80.416822 66.097656 81.009766 66.097656 z M 96.501953 66.097656 C 97.108903 66.097656 97.604672 66.287977 97.992188 66.669922 C 98.384371 67.047526 98.582031 67.540798 98.582031 68.148438 C 98.582031 68.756076 98.38318 69.252387 97.986328 69.638672 C 97.589476 70.024957 97.091753 70.21875 96.494141 70.21875 C 95.896528 70.21875 95.401949 70.026476 95.009766 69.644531 C 94.622251 69.262587 94.427734 68.764757 94.427734 68.148438 C 94.427734 67.549478 94.625395 67.057726 95.017578 66.675781 C 95.41443 66.289497 95.909009 66.097656 96.501953 66.097656 z M 114.57031 66.097656 C 115.17726 66.097656 115.67499 66.287977 116.0625 66.669922 C 116.45468 67.047526 116.65039 67.540798 116.65039 68.148438 C 116.65039 68.756076 116.45154 69.252387 116.05469 69.638672 C 115.65784 70.024957 115.16011 70.21875 114.5625 70.21875 C 113.96489 70.21875 113.47032 70.026476 113.07812 69.644531 C 112.69061 69.262587 112.49609 68.764757 112.49609 68.148438 C 112.49609 67.549478 112.69375 67.057726 113.08594 66.675781 C 113.48279 66.289497 113.97737 66.097656 114.57031 66.097656 z "
       transform="translate(-277.64269,65.577954)"
       id="text31" />
  </g>
</svg>
