<?xml version="1.0" encoding="UTF-8" standalone="no"?>
<svg
   xmlns:dc="http://purl.org/dc/elements/1.1/"
   xmlns:cc="http://creativecommons.org/ns#"
   xmlns:rdf="http://www.w3.org/1999/02/22-rdf-syntax-ns#"
   xmlns:svg="http://www.w3.org/2000/svg"
   xmlns="http://www.w3.org/2000/svg"
   xmlns:sodipodi="http://sodipodi.sourceforge.net/DTD/sodipodi-0.dtd"
   xmlns:inkscape="http://www.inkscape.org/namespaces/inkscape"
   id="teta-cabecera"
   version="1.1"
   viewBox="0 0 195.45204 81.844093"
   sodipodi:docname="teta-conozca.svg"
   inkscape:version="0.92.5 (2060ec1f9f, 2020-04-08)">
  <sodipodi:namedview
     pagecolor="#ffffff"
     bordercolor="#666666"
     borderopacity="1"
     objecttolerance="10"
     gridtolerance="10"
     guidetolerance="10"
     inkscape:pageopacity="0"
     inkscape:pageshadow="2"
     inkscape:window-width="1366"
     inkscape:window-height="652"
     id="namedview66"
     showgrid="false"
     inkscape:zoom="4.8833649"
     inkscape:cx="104.12344"
     inkscape:cy="4.41201"
     inkscape:window-x="0"
     inkscape:window-y="27"
     inkscape:window-maximized="1"
     inkscape:current-layer="teta-cabecera"
     inkscape:snap-page="true"
     inkscape:snap-text-baseline="true" />
  <defs
     id="defs3554">
    <clipPath
       clipPathUnits="userSpaceOnUse"
       id="clipPath4175">
      <path
         d="M 0,560 H 960 V 0 H 0 Z"
         id="path4173" />
    </clipPath>
    <clipPath
       clipPathUnits="userSpaceOnUse"
       id="clipPath4213">
      <path
         d="M 0,560 H 960 V 0 H 0 Z"
         id="path4211" />
    </clipPath>
    <clipPath
       clipPathUnits="userSpaceOnUse"
       id="clipPath4313">
      <path
         d="M 0,560 H 960 V 0 H 0 Z"
         id="path4311" />
    </clipPath>
    <clipPath
       clipPathUnits="userSpaceOnUse"
       id="clipPath4175-3">
      <path
         d="M 0,560 H 960 V 0 H 0 Z"
         id="path4173-6" />
    </clipPath>
    <clipPath
       id="clipPath68"
       clipPathUnits="userSpaceOnUse">
      <path
         id="path66"
         d="M 0,773.477 H 988.99 V 0 H 0 Z" />
    </clipPath>
    <clipPath
       clipPathUnits="userSpaceOnUse"
       id="clipPath550">
      <path
         d="M 0,567.173 H 706.591 V 0 H 0 Z"
         id="path548" />
    </clipPath>
    <clipPath
       clipPathUnits="userSpaceOnUse"
       id="clipPath4175-7">
      <path
         d="M 0,560 H 960 V 0 H 0 Z"
         id="path4173-5" />
    </clipPath>
    <clipPath
       clipPathUnits="userSpaceOnUse"
       id="clipPath4213-3">
      <path
         d="M 0,560 H 960 V 0 H 0 Z"
         id="path4211-5" />
    </clipPath>
    <clipPath
       clipPathUnits="userSpaceOnUse"
       id="clipPath4313-6">
      <path
         d="M 0,560 H 960 V 0 H 0 Z"
         id="path4311-2" />
    </clipPath>
    <clipPath
       clipPathUnits="userSpaceOnUse"
       id="clipPath4175-3-9">
      <path
         d="M 0,560 H 960 V 0 H 0 Z"
         id="path4173-6-1" />
    </clipPath>
    <clipPath
       id="clipPath68-2"
       clipPathUnits="userSpaceOnUse">
      <path
         id="path66-7"
         d="M 0,773.477 H 988.99 V 0 H 0 Z" />
    </clipPath>
  </defs>
  <metadata
     id="metadata3557">
    <rdf:RDF>
      <cc:Work
         rdf:about="">
        <dc:format>image/svg+xml</dc:format>
        <dc:type
           rdf:resource="http://purl.org/dc/dcmitype/StillImage" />
        <dc:title />
      </cc:Work>
    </rdf:RDF>
  </metadata>
  <g
     transform="matrix(0.35277777,0,0,-0.35277777,-534.87541,656.3386)"
     id="g3507">
    <path
       inkscape:connector-curvature="0"
       id="path526"
       d="m 1651.8178,1860.4874 c -7.448,-5.0913 -14.898,-10.1801 -22.2466,-15.4072 -23.8121,-16.939 -45.788,-35.8451 -64.3169,-58.5601 -6.414,-7.865 -12.5263,-15.9614 -17.7393,-24.6723 -4.302,-7.1901 -9.4599,-13.7072 -15.9639,-18.8672 -14.367,-11.395 -18.2313,-25.9872 -13.3813,-43.0152 1.748,-6.14 1.4284,-12.0063 0.6694,-17.9883 -2.313,-18.2071 -1.5966,-36.0242 1.8897,-53.4887 h 549.4907 v 231.999 z"
       style="fill:#fcbdd4;fill-opacity:1;fill-rule:evenodd;stroke:none;stroke-width:0.99999994" />
  </g>
  <g
     style="fill:#ffffff"
     id="g628"
     transform="matrix(0.25539822,0,0,-0.25539822,156.54544,43.887742)">
    <path
       d="M 0,0 C 23.094,0 41.823,18.732 41.823,41.826 41.823,64.932 23.094,83.663 0,83.663 -23.093,83.663 -41.826,64.932 -41.826,41.826 -41.826,18.732 -23.093,0 0,0"
       style="fill:#ffffff;fill-opacity:1;fill-rule:nonzero;stroke:none"
       id="path630"
       inkscape:connector-curvature="0" />
  </g>
  <g
     style="fill:#ffffff"
     id="g632"
     transform="matrix(0.25539822,0,0,-0.25539822,158.18382,56.94109)">
    <path
       style="fill:#ffffff;fill-opacity:1;fill-rule:nonzero;stroke:none;stroke-width:0.30836776"
       d="m 147.22461,41.185547 c -3.82623,-0.01785 -7.88177,0.38241 -11.58594,1.583984 -11.85581,3.844113 -11.87766,15.910397 -11.7207,17.992188 0.16436,2.086724 -0.0469,13.357422 -0.0469,13.357422 h 9.36719 v -16.34375 h 1.85156 v 16.34375 h 14.98633 c 0,0 -5.51079,-10.877342 -0.86523,-19.855469 4.64864,-8.972885 13.73633,-10.976563 13.73633,-10.976563 0,0 -7.30495,-2.062291 -15.72266,-2.101562 z"
       transform="matrix(3.2428812,0,0,-3.2428812,-483.87164,175.97046)"
       id="path634"
       inkscape:connector-curvature="0" />
  </g>
  <g
     style="fill:#ffffff"
     id="g636"
     transform="matrix(0.25539822,0,0,-0.25539822,171.17045,56.487529)">
    <path
       d="M 0,0 C 0.908,0.516 1.848,0.985 2.805,1.411 1.779,3.05 1.148,4.771 1.369,6.363 1.564,7.794 0.592,8.724 -0.256,9.247 -1.639,10.104 -3.025,10.091 -3.307,9.893 -4.354,9.169 -5.738,7.437 -5.639,6.073 -5.578,5.217 -4.863,4.439 -3.523,3.764 -1.834,2.916 -0.715,1.562 0,0"
       style="fill:#ffffff;fill-opacity:1;fill-rule:nonzero;stroke:none"
       id="path638"
       inkscape:connector-curvature="0" />
  </g>
  <g
     style="fill:#ffffff"
     id="g640"
     transform="matrix(0.25539822,0,0,-0.25539822,177.73748,55.244709)">
    <path
       d="M 0,0 C 1.463,1.62 2.101,3.35 1.667,4.632 1.283,5.769 0.191,6.217 -0.683,6.384 L -0.791,6.431 C -1.794,6.735 -3.96,6.931 -4.712,6.375 -4.825,6.289 -5.355,6.037 -5.355,5.048 v -6.514 c 1,-0.795 2.352,-0.471 3.391,-0.795 C -1.544,-1.597 -0.762,-0.854 0,0"
       style="fill:#ffffff;fill-opacity:1;fill-rule:nonzero;stroke:none"
       id="path642"
       inkscape:connector-curvature="0" />
  </g>
  <g
     style="fill:#ffffff"
     id="g644"
     transform="matrix(0.25539822,0,0,-0.25539822,166.36729,57.328551)">
    <path
       d="M 0,0 C 1.694,0 3.088,1.404 3.088,3.121 3.088,4.846 1.694,6.247 0,6.247 -1.707,6.247 -3.09,4.846 -3.09,3.121 -3.09,1.404 -1.707,0 0,0"
       style="fill:#ffffff;fill-opacity:1;fill-rule:nonzero;stroke:none"
       id="path646"
       inkscape:connector-curvature="0" />
  </g>
  <g
     style="fill:#ffffff"
     id="g648"
     transform="matrix(0.25539822,0,0,-0.25539822,166.89704,66.482488)">
    <path
       d="m 0,0 c -2.228,-0.425 -3.92,-1.508 -4.433,-2.83 -0.287,-0.744 -0.146,-1.504 0.421,-2.258 l 0.07,-0.094 0.052,-0.103 c 0.369,-0.64 1.214,-1.624 1.884,-1.69 0.447,-0.05 0.949,0.417 1.291,0.82 L 4.23,-0.412 C 3.986,0.095 3.764,0.605 3.551,1.129 2.576,0.571 1.273,0.252 0,0"
       style="fill:#ffffff;fill-opacity:1;fill-rule:nonzero;stroke:none"
       id="path650"
       inkscape:connector-curvature="0" />
  </g>
  <g
     style="fill:#ffffff"
     id="g652"
     transform="matrix(0.25539822,0,0,-0.25539822,172.005,70.423949)">
    <path
       d="m 0,0 c -0.905,0.38 -1.788,0.8 -2.648,1.261 -0.805,-1.027 -1.766,-1.696 -2.889,-1.989 -1.496,-0.39 -1.776,-1.18 -1.847,-1.898 -0.208,-2.145 1.585,-4.878 2.328,-5.234 0.936,-0.43 3.355,-0.67 4.663,0.394 1.303,1.069 1.11,3.317 0.715,5.02 C 0.121,-1.588 0.02,-0.771 0,0"
       style="fill:#ffffff;fill-opacity:1;fill-rule:nonzero;stroke:none"
       id="path654"
       inkscape:connector-curvature="0" />
  </g>
  <g
     style="fill:#ffffff"
     id="g656"
     transform="matrix(0.25539822,0,0,-0.25539822,165.42027,71.242517)">
    <path
       d="m 0,0 c -0.587,0 -1.073,-0.491 -1.073,-1.093 0,-0.603 0.486,-1.097 1.073,-1.097 0.597,0 1.081,0.494 1.081,1.097 C 1.081,-0.491 0.597,0 0,0"
       style="fill:#ffffff;fill-opacity:1;fill-rule:nonzero;stroke:none"
       id="path658"
       inkscape:connector-curvature="0" />
  </g>
  <g
     style="fill:#ffffff"
     id="g660"
     transform="matrix(0.25539822,0,0,-0.25539822,175.99633,74.247818)">
    <path
       d="m 0,0 c -1.9,0 -3.446,-1.565 -3.446,-3.48 0,-1.918 1.546,-3.477 3.446,-3.477 1.896,0 3.443,1.559 3.443,3.477 C 3.443,-1.565 1.896,0 0,0"
       style="fill:#ffffff;fill-opacity:1;fill-rule:nonzero;stroke:none"
       id="path662"
       inkscape:connector-curvature="0" />
  </g>
  <g
     style="fill:#ffffff"
     id="g664"
     transform="matrix(0.25539822,0,0,-0.25539822,182.96117,58.520883)">
    <path
       d="M 0,0 C 2.251,0.174 3.998,1.033 4.565,2.242 5.028,3.235 4.554,4.259 4.068,4.943 3.319,5.947 1.738,7.368 0.727,7.268 -0.01,7.198 -0.621,6.11 -0.922,5.467 -2.547,2.002 -4.788,0.183 -6.496,-0.755 -6.283,-1.053 -6.078,-1.349 -5.871,-1.658 -4.908,-0.912 -3.159,-0.244 0,0"
       style="fill:#ffffff;fill-opacity:1;fill-rule:nonzero;stroke:none"
       id="path666"
       inkscape:connector-curvature="0" />
  </g>
  <g
     style="fill:#ffffff"
     id="g668"
     transform="matrix(0.25539822,0,0,-0.25539822,166.47128,60.874328)">
    <path
       d="m 0,0 c -0.474,0.958 -1.226,1.387 -2.235,1.279 -1.162,-0.124 -2.539,-1.027 -2.911,-2.502 -0.32,-1.261 -0.16,-3.116 0.577,-3.765 0.68,-0.605 2.12,-0.175 2.914,0.135 1.89,0.74 3.574,0.859 5.023,0.606 0.058,0.303 0.108,0.61 0.168,0.914 C 2.132,-2.733 0.845,-1.704 0,0"
       style="fill:#ffffff;fill-opacity:1;fill-rule:nonzero;stroke:none"
       id="path670"
       inkscape:connector-curvature="0" />
  </g>
  <g
     style="fill:#ffffff"
     id="g672"
     transform="matrix(0.25539822,0,0,-0.25539822,185.5885,60.172109)">
    <path
       d="m 0,0 c -1.082,0 -1.959,-0.889 -1.959,-1.978 0,-1.097 0.877,-1.99 1.959,-1.99 1.08,0 1.954,0.893 1.954,1.99 C 1.954,-0.889 1.08,0 0,0"
       style="fill:#ffffff;fill-opacity:1;fill-rule:nonzero;stroke:none"
       id="path674"
       inkscape:connector-curvature="0" />
  </g>
  <g
     style="fill:#ffffff"
     id="g676"
     transform="matrix(0.25539822,0,0,-0.25539822,185.5885,62.0654)">
    <path
       d="m 0,0 c -2.98,0 -5.408,2.436 -5.408,5.435 0,2.988 2.428,5.427 5.408,5.427 2.978,0 5.402,-2.439 5.402,-5.427 C 5.402,2.436 2.978,0 0,0 M 0.9,-18.107 0.881,-18.386 0.764,-18.65 c -0.943,-2.26 -2.694,-3.702 -4.805,-3.954 -0.221,-0.028 -0.449,-0.04 -0.678,-0.04 -2.393,0 -4.908,1.495 -6.82,4.106 -0.783,1.061 -1.4,1.737 -1.861,2.17 -2.015,-4.807 -5.233,-8.993 -9.268,-12.176 0.505,-1.981 1.347,-3.71 2.704,-4.601 3.237,-2.13 3.829,-4.551 3.759,-6.209 -0.16,-3.321 -3.076,-6.1 -4.881,-7.068 -0.594,-0.316 -1.263,-0.453 -1.969,-0.453 -1.786,0 -3.766,0.886 -5.111,2.023 -2.115,1.791 -2.875,4.164 -2.074,6.516 0.586,1.74 0.285,3.568 -0.408,5.255 -3.365,-1.281 -7.016,-1.991 -10.827,-1.991 -2.814,0 -5.541,0.386 -8.121,1.101 0.022,-0.135 0.048,-0.279 0.082,-0.424 1.119,-4.809 -0.409,-7.257 -1.886,-8.464 -1.385,-1.132 -3.157,-1.539 -4.796,-1.539 -1.347,0 -2.611,0.277 -3.476,0.678 -2.202,1.01 -4.631,5.194 -4.33,8.636 0.224,2.515 1.781,4.276 4.414,4.955 0.276,0.076 0.549,0.246 0.79,0.484 -3.338,2.323 -6.19,5.289 -8.374,8.724 l -4.117,-4.778 c -1.393,-1.617 -2.798,-2.019 -3.842,-2.019 -0.143,0 -0.284,0.006 -0.418,0.019 -2.506,0.261 -4.107,2.722 -4.476,3.343 -1.227,1.694 -1.517,3.636 -0.809,5.472 0.949,2.454 3.56,4.312 7,4.977 1.082,0.204 1.736,0.409 2.119,0.558 0.012,0.354 0.139,0.704 0.379,0.999 0.104,0.12 0.214,0.229 0.341,0.317 -0.593,2.364 -0.91,4.844 -0.91,7.392 0,0.538 0.011,1.078 0.046,1.613 -0.925,0.197 -2.051,0.156 -3.398,-0.372 -3.382,-1.317 -5.372,-0.459 -6.452,0.49 -2.227,1.979 -2.037,5.574 -1.629,7.195 0.682,2.696 3.104,4.787 5.884,5.082 2.449,0.261 4.569,-0.926 5.686,-3.172 0.321,-0.644 0.793,-1.109 1.347,-1.436 2.005,6.153 5.915,11.447 11.036,15.185 -0.435,1.135 -1.114,2.07 -2.14,2.583 -3.116,1.568 -3.899,3.658 -4.012,5.14 -0.221,3.189 2.381,5.903 3.798,6.89 1.9,1.336 4.844,0.671 6.789,-0.511 2.389,-1.456 3.596,-3.816 3.264,-6.313 -0.117,-0.837 0.416,-1.998 1.32,-3.257 2.805,0.853 5.85,1.314 8.928,1.314 0.771,0 2.342,-0.032 2.342,-0.087 v 6.051 c 0,2.262 0.976,3.479 1.828,4.106 2.318,1.704 5.844,0.805 6.575,0.596 2.427,-0.497 4.189,-1.961 4.877,-4.027 0.842,-2.508 -0.033,-5.436 -2.368,-8.029 -0.434,-0.486 -0.763,-0.879 -1.007,-1.196 3.9,-1.729 7.354,-4.244 10.194,-7.353 1.133,0.498 3.186,1.793 4.669,4.959 1.357,2.883 3.166,3.641 4.437,3.766 3.356,0.335 6.144,-3.304 6.456,-3.72 l 0.019,-0.024 c 1.418,-1.994 1.707,-4.244 0.812,-6.172 -1.111,-2.363 -3.88,-3.945 -7.412,-4.214 -2.695,-0.207 -3.657,-0.693 -3.923,-0.862 -0.082,-0.211 -0.208,-0.392 -0.361,-0.544 2.075,-4.116 3.251,-8.762 3.251,-13.681 0,-1.637 -0.131,-3.244 -0.38,-4.813 0.539,-0.511 1.625,-0.97 3.829,-0.714 2.645,0.32 4.752,-0.256 6.274,-1.706 C 1.1,-14.18 0.921,-17.71 0.9,-18.107 m -38.458,-39.994 c -3.796,0 -6.891,3.104 -6.891,6.921 0,3.817 3.095,6.922 6.891,6.922 3.798,0 6.886,-3.105 6.886,-6.922 0,-3.817 -3.088,-6.921 -6.886,-6.921 m -41.41,16.537 c -2.493,0 -4.52,2.036 -4.52,4.539 0,2.503 2.027,4.538 4.52,4.538 2.493,0 4.519,-2.035 4.519,-4.538 0,-2.503 -2.026,-4.539 -4.519,-4.539 m 3.708,69.799 c 3.599,0 6.531,-2.941 6.531,-6.567 0,-3.617 -2.932,-6.567 -6.531,-6.567 -3.604,0 -6.54,2.95 -6.54,6.567 0,3.626 2.936,6.567 6.54,6.567 m 28.904,13.911 c 2.492,0 4.518,-2.034 4.518,-4.534 0,-2.505 -2.026,-4.541 -4.518,-4.541 -2.494,0 -4.52,2.036 -4.52,4.541 0,2.5 2.026,4.534 4.52,4.534 m 3.001,10.298 c -33.322,0 -60.345,-27.01 -60.345,-60.348 0,-33.313 27.023,-60.337 60.345,-60.337 33.324,0 60.336,27.024 60.336,60.337 0,33.338 -27.012,60.348 -60.336,60.348"
       style="fill:#ffffff;fill-opacity:1;fill-rule:nonzero;stroke:none"
       id="path678"
       inkscape:connector-curvature="0" />
  </g>
  <g
     style="fill:#ffffff"
     id="g680"
     transform="matrix(0.25539822,0,0,-0.25539822,183.7518,65.534474)">
    <path
       d="m 0,0 c -1.844,-0.223 -3.429,-0.074 -4.719,0.437 0.899,-0.653 1.945,-1.712 3.148,-3.353 1.334,-1.813 2.991,-2.847 4.311,-2.685 0.968,0.118 1.563,0.872 1.916,1.581 C 4.639,-3.382 4.504,-1.741 3.477,-0.775 2.737,-0.076 1.566,0.185 0,0"
       style="fill:#ffffff;fill-opacity:1;fill-rule:nonzero;stroke:none"
       id="path682"
       inkscape:connector-curvature="0" />
  </g>
  <g
     style="fill:#ffffff"
     id="g684"
     transform="matrix(0.25539822,0,0,-0.25539822,179.04042,69.885205)">
    <path
       d="m 0,0 c -0.619,-0.372 -1.247,-0.724 -1.883,-1.057 1,-2.376 1.457,-5.07 0.545,-7.76 -0.319,-0.954 0,-1.867 0.947,-2.712 1.28,-1.142 2.938,-1.42 3.321,-1.232 0.986,0.527 2.976,2.362 3.054,4.179 C 6.039,-7.469 5.3,-6.402 3.781,-5.405 2.082,-4.287 0.816,-2.473 0,0"
       style="fill:#ffffff;fill-opacity:1;fill-rule:nonzero;stroke:none"
       id="path686"
       inkscape:connector-curvature="0" />
  </g>
  <g
     style="fill:#ffffff"
     id="g688"
     transform="matrix(0.25539822,0,0,-0.25539822,173.74914,52.739864)">
    <path
       d="M 0,0 C 0.597,0 1.076,0.492 1.076,1.099 1.076,1.7 0.597,2.191 0,2.191 -0.595,2.191 -1.069,1.7 -1.069,1.099 -1.069,0.492 -0.595,0 0,0"
       style="fill:#ffffff;fill-opacity:1;fill-rule:nonzero;stroke:none"
       id="path690"
       inkscape:connector-curvature="0" />
  </g>
  <g
     style="fill:#ffffff"
     id="g692"
     transform="matrix(0.25539822,0,0,-0.25539822,178.9287,62.182503)">
    <path
       d="m 0,0 c -1.166,-1.326 -2.611,-2.049 -3.871,-2.049 -0.658,0 -1.262,0.193 -1.752,0.611 -0.732,0.615 -0.826,1.702 -0.213,2.426 0.523,0.621 1.385,0.778 2.084,0.436 0.436,0.146 1.421,0.819 1.791,1.897 C -1.58,4.411 -2.012,5.53 -3.232,6.649 -4.265,7.597 -5.804,8.572 -7.253,7.836 -8.41,7.25 -9.072,5.831 -8.967,4.87 -8.866,3.926 -9.546,3.076 -10.49,2.971 c -0.945,-0.105 -1.797,0.579 -1.903,1.52 -0.277,2.486 1.269,5.245 3.582,6.421 1.174,0.59 4.276,1.604 7.911,-1.72 C 2.767,5.817 1.879,2.135 0,0 m -17.973,-13.079 c -0.589,-0.745 -1.676,-0.871 -2.423,-0.278 -0.58,0.461 -0.784,1.223 -0.561,1.888 -0.174,0.315 -0.662,0.85 -1.293,1.009 -0.654,0.161 -1.334,-0.165 -2.028,-0.965 -0.628,-0.727 -1.269,-1.783 -0.778,-2.688 0.391,-0.726 1.329,-1.135 1.927,-1.053 0.947,0.127 1.811,-0.528 1.949,-1.471 0.131,-0.94 -0.529,-1.811 -1.473,-1.942 -0.208,-0.026 -0.427,-0.041 -0.645,-0.041 -1.905,0 -3.843,1.129 -4.784,2.863 -0.522,0.957 -1.451,3.522 1.195,6.583 2.532,2.924 5.653,2.584 7.617,0.953 1.772,-1.467 2.329,-3.559 1.297,-4.858 m 12.055,34.114 c -0.187,-0.071 -2.613,0.891 -2.826,0.891 -0.383,0 -3.36,0.292 -3.644,0.503 -0.994,0.107 -1.998,0.27 -3.01,0.27 -2.193,0 -4.322,-0.213 -6.358,-0.707 1.268,-1.282 2.657,-2.467 3.858,-3.373 0.761,-0.576 0.912,-1.642 0.334,-2.4 -0.575,-0.759 -1.657,-0.904 -2.415,-0.334 -0.82,0.629 -3.282,2.566 -5.433,4.986 -1.389,-0.558 -2.721,-1.22 -3.983,-1.992 0.612,-4.108 -0.344,-8.284 -0.417,-8.581 -0.18,-0.791 -0.893,-1.326 -1.67,-1.326 -0.134,0 -0.269,0.018 -0.403,0.046 -0.922,0.22 -1.498,1.148 -1.276,2.074 0.278,1.194 0.595,3.317 0.524,5.471 -3.787,-3.152 -6.702,-7.322 -8.329,-12.089 1.496,0.017 2.739,0.333 2.763,0.346 0.918,0.252 1.865,-0.284 2.117,-1.203 0.255,-0.917 -0.277,-1.865 -1.199,-2.117 -0.166,-0.048 -2.206,-0.591 -4.588,-0.45 -0.102,-0.503 -0.184,-1.013 -0.258,-1.529 1.27,-0.879 2.151,-1.989 2.635,-2.887 0.445,-0.84 0.125,-1.872 -0.717,-2.317 -0.258,-0.14 -0.535,-0.186 -0.807,-0.186 -0.512,0 -1.008,0.274 -1.341,0.684 0.338,-8.541 4.666,-16 11.162,-20.707 0.5,1.804 0.759,5.705 0.77,7.384 0.013,0.946 0.783,3.64 1.726,3.64 h 0.015 c 0.959,0 1.72,-2.72 1.709,-3.675 0,-0.107 -0.036,-3.77 -0.622,-6.486 -0.167,-0.76 -0.358,-1.866 -0.579,-2.509 0.504,-0.272 1.025,-0.734 1.55,-0.973 1.1,3.585 3.707,5.506 3.866,5.622 0.758,0.574 1.841,0.371 2.41,-0.388 0.575,-0.757 0.422,-1.856 -0.33,-2.432 -0.119,-0.093 -2.002,-1.606 -2.706,-4.234 2.529,-0.787 5.208,-1.222 7.992,-1.222 3.195,0 6.271,0.561 9.125,1.585 -1.526,2.178 -3.211,3.693 -3.25,3.724 -0.707,0.632 -0.776,1.724 -0.145,2.435 0.631,0.713 1.719,0.777 2.43,0.148 0.181,-0.161 2.328,-2.085 4.166,-4.91 0.931,0.476 1.828,1.011 2.693,1.589 -0.074,0.487 -0.142,0.99 -0.187,1.511 -0.334,3.629 0.021,6.761 0.039,6.896 0.117,0.942 0.964,1.621 1.903,1.51 0.947,-0.107 1.625,-0.966 1.515,-1.91 -0.134,-1.217 -0.239,-3.289 -0.082,-5.499 3.041,2.791 5.444,6.264 6.966,10.177 -0.156,0.641 0.079,1.33 0.608,1.75 0.254,0.82 0.472,1.659 0.65,2.517 -0.281,0.688 -0.33,1.225 -0.336,1.331 l 0.576,0.037 c 0.204,1.337 0.312,1.868 0.312,3.259 0,10.966 -8.085,21.833 -17.503,26.05"
       style="fill:#ffffff;fill-opacity:1;fill-rule:nonzero;stroke:none"
       id="path694"
       inkscape:connector-curvature="0" />
  </g>
  <path
     style="fill:#ffffff;fill-opacity:1;fill-rule:nonzero;stroke:none;stroke-width:0.20566525"
     d="m 61.241816,51.488418 c -0.916641,0 -1.772115,0.222779 -2.566182,0.668259 -0.79449,0.445252 -1.405363,1.034193 -1.831507,1.766358 -0.426339,0.732583 -0.63959,1.569536 -0.63959,2.511476 0,1.456106 0.468662,2.649486 1.40424,3.580943 0.935978,0.931451 2.138126,1.396416 3.606989,1.396416 0.796951,0 1.504991,-0.131234 2.125897,-0.394697 0.621111,-0.263452 1.280665,-0.736099 1.978695,-1.417255 L 64.1011,58.328549 c -0.517871,0.514363 -0.992981,0.867967 -1.425085,1.062941 -0.432514,0.195179 -0.909817,0.293086 -1.431587,0.293086 -0.612273,0 -1.16829,-0.139457 -1.668681,-0.418138 -0.500586,-0.27868 -0.887995,-0.661568 -1.16195,-1.150226 -0.273946,-0.488871 -0.41033,-1.049142 -0.41033,-1.679091 0,-0.904516 0.309245,-1.664809 0.927477,-2.282215 0.618241,-0.617195 1.379139,-0.926173 2.282218,-0.926173 1.069452,0 2.032157,0.453036 2.887938,1.357348 l 1.257043,-1.199726 C 64.835749,52.77943 64.214239,52.31139 63.492761,51.982117 62.770887,51.652843 62.021288,51.488418 61.241816,51.488418 Z m 8.78105,2.517986 c -0.911924,0 -1.719454,0.317062 -2.421597,0.950927 -0.801064,0.728052 -1.20103,1.63713 -1.20103,2.729017 0,1.019269 0.354231,1.88571 1.062957,2.598752 0.708512,0.713246 1.563976,1.069452 2.56618,1.069452 0.680755,0 1.303902,-0.16127 1.869284,-0.48457 0.565366,-0.323516 1.011279,-0.771616 1.339106,-1.345623 0.327419,-0.573805 0.491088,-1.190378 0.491088,-1.849743 0,-0.655245 -0.162027,-1.26633 -0.487189,-1.831499 -0.325569,-0.565367 -0.779353,-1.013331 -1.359943,-1.343014 -0.580182,-0.329684 -1.199497,-0.493699 -1.858856,-0.493699 z m 8.964709,0 c -0.337696,0 -0.668402,0.06566 -0.99129,0.196696 -0.3227,0.131218 -0.683437,0.364487 -1.081193,0.699517 V 54.18617 h -1.753345 v 6.988617 h 1.753345 v -2.803258 c 0,-0.727227 0.0254,-1.200363 0.07682,-1.418564 0.0981,-0.418942 0.274465,-0.747453 0.528871,-0.984794 0.254211,-0.237541 0.558582,-0.355618 0.913153,-0.355618 0.273536,0 0.502961,0.07163 0.689089,0.214939 0.185923,0.143344 0.316134,0.351315 0.39079,0.625262 0.07469,0.273939 0.112023,0.828187 0.112023,1.662153 v 3.05988 h 1.735108 v -4.619131 c 0,-0.80518 -0.203852,-1.412764 -0.60963,-1.823676 -0.483727,-0.483933 -1.070672,-0.725576 -1.76377,-0.725576 z m 7.350766,0 c -0.911923,0 -1.718148,0.317062 -2.42029,0.950927 -0.801074,0.728052 -1.202329,1.63713 -1.202329,2.729017 0,1.019269 0.355326,1.88571 1.064246,2.598752 0.708521,0.713246 1.564182,1.069452 2.566191,1.069452 0.680745,0 1.302602,-0.16127 1.86797,-0.48457 0.565372,-0.323516 1.012575,-0.771616 1.340402,-1.345623 0.327426,-0.573805 0.491096,-1.190378 0.491096,-1.849743 0,-0.655245 -0.163331,-1.26633 -0.488493,-1.831499 -0.325555,-0.565367 -0.778049,-1.013331 -1.358631,-1.343014 -0.580393,-0.329684 -1.200599,-0.493699 -1.860162,-0.493699 z m 14.807019,0 c -0.74965,0 -1.42601,0.162922 -2.03211,0.488493 -0.6063,0.325366 -1.07915,0.772223 -1.417252,1.341707 -0.338528,0.569489 -0.506724,1.192643 -0.506724,1.869284 0,0.976287 0.347441,1.829008 1.043406,2.55706 0.69596,0.728061 1.65798,1.091604 2.88663,1.091604 1.36644,0 2.42507,-0.486699 3.17452,-1.461548 l -1.3834,-0.94701 c -0.43745,0.535547 -1.04798,0.80241 -1.83281,0.80241 -0.63468,0 -1.14716,-0.187873 -1.53709,-0.564036 -0.39016,-0.37636 -0.58489,-0.861969 -0.58489,-1.456344 0,-0.611438 0.20167,-1.112056 0.60704,-1.50323 0.40514,-0.391184 0.93574,-0.587488 1.59182,-0.587488 0.36012,0 0.6751,0.05654 0.94309,0.168036 0.26798,0.111267 0.53849,0.309701 0.81285,0.596606 l 1.46025,-0.802416 c -0.35127,-0.50964 -0.80341,-0.902678 -1.35604,-1.17889 -0.55242,-0.276415 -1.17557,-0.414238 -1.86929,-0.414238 z m 7.76369,0 c -0.91128,0 -1.68654,0.345104 -2.3239,1.034287 -0.63735,0.689806 -0.95614,1.573247 -0.95614,2.652169 0,1.040663 0.33018,1.911697 0.98871,2.611773 0.65875,0.700288 1.43946,1.049919 2.34215,1.049919 0.40207,0 0.77466,-0.07132 1.11894,-0.214931 0.34449,-0.14335 0.68796,-0.378059 1.03038,-0.703417 v 0.738583 h 1.75335 V 54.18617 h -1.75335 v 0.771161 c -0.3126,-0.316929 -0.65201,-0.555074 -1.01995,-0.713844 -0.36795,-0.158159 -0.76104,-0.237083 -1.18019,-0.237083 z m 11.38634,0 c -0.6637,0 -1.20869,0.195698 -1.63483,0.587486 -0.42613,0.392008 -0.6396,0.863548 -0.6396,1.415972 0,0.856588 0.56528,1.569433 1.69603,2.13892 l 0.5914,0.29569 c 0.50965,0.256875 0.76335,0.520866 0.76335,0.7907 0,0.145616 -0.0697,0.274325 -0.21102,0.385576 -0.14129,0.111473 -0.32747,0.166745 -0.55883,0.166745 -0.2141,0 -0.45957,-0.07376 -0.73599,-0.221457 -0.276,-0.147866 -0.5173,-0.342266 -0.72295,-0.582266 l -1.07859,1.176278 c 0.60813,0.796536 1.42206,1.194504 2.44113,1.194504 0.76651,0 1.37815,-0.207209 1.8341,-0.622651 0.45618,-0.415245 0.68389,-0.93424 0.68389,-1.555343 0,-0.466663 -0.12632,-0.872512 -0.37907,-1.219259 -0.25255,-0.346966 -0.71717,-0.68857 -1.39382,-1.022571 l -0.64219,-0.320452 c -0.27846,-0.137176 -0.45314,-0.245174 -0.52367,-0.324349 -0.0708,-0.07915 -0.1068,-0.166336 -0.1068,-0.260533 0,-0.124219 0.0565,-0.227828 0.16803,-0.31133 0.11149,-0.08353 0.26542,-0.125053 0.46244,-0.125053 0.35971,0 0.75987,0.218187 1.20103,0.655223 l 1.08508,-1.086397 c -0.27846,-0.372667 -0.61691,-0.658039 -1.01735,-0.857125 -0.40043,-0.199292 -0.8277,-0.298308 -1.28177,-0.298308 z M 91.182832,54.18617 v 1.483699 h 2.672997 l -3.15498,5.504918 h 5.653436 v -1.4837 h -2.960882 l 3.140644,-5.504917 z m 32.914938,0 v 2.910081 c 0,1.11779 0.0687,1.888298 0.2058,2.312168 0.19293,0.612477 0.52588,1.090471 0.99912,1.432902 0.47323,0.342642 1.09234,0.513231 1.85888,0.513231 0.70685,0 1.28989,-0.145708 1.74812,-0.438983 0.45821,-0.293488 0.80511,-0.715245 1.04081,-1.263555 0.19291,-0.449578 0.28787,-1.284337 0.28787,-2.504965 V 54.18617 h -1.75335 v 3.423313 c 0,0.65957 -0.0364,1.090872 -0.10942,1.292217 -0.0989,0.269834 -0.2493,0.473205 -0.4533,0.612241 -0.20403,0.139229 -0.45219,0.209724 -0.7438,0.209724 -0.29206,0 -0.53801,-0.07109 -0.73731,-0.212328 -0.1997,-0.141299 -0.345,-0.33919 -0.43507,-0.594006 -0.0903,-0.254815 -0.13547,-0.709911 -0.13547,-1.365164 V 54.18617 Z m -14.83179,1.438107 c 0.55488,0 1.01298,0.188557 1.37558,0.565342 0.3628,0.376777 0.5445,0.870547 0.5445,1.478487 0,0.620905 -0.18169,1.122687 -0.5445,1.505849 -0.3626,0.383359 -0.8196,0.574449 -1.37037,0.574449 -0.53349,0 -0.98188,-0.193835 -1.34692,-0.583578 -0.36527,-0.389735 -0.54709,-0.886581 -0.54709,-1.49021 0,-0.599518 0.17929,-1.091005 0.53798,-1.474578 0.35867,-0.383154 0.8089,-0.575761 1.35082,-0.575761 z m -39.21446,0.03256 c 0.557769,0 1.015809,0.188016 1.374279,0.562733 0.357859,0.374937 0.536696,0.862039 0.536696,1.461556 0,0.599729 -0.182676,1.089788 -0.547115,1.470678 -0.364848,0.381306 -0.821235,0.571853 -1.370363,0.571853 -0.549332,0 -1.002983,-0.188362 -1.361249,-0.565343 -0.358267,-0.376778 -0.53668,-0.869037 -0.53668,-1.477188 0,-0.59108 0.180395,-1.077301 0.543183,-1.456341 0.362387,-0.378839 0.816658,-0.567948 1.361249,-0.567948 z m 16.316774,0 c 0.557771,0 1.015799,0.188016 1.374278,0.562733 0.358062,0.374937 0.536689,0.862039 0.536689,1.461556 0,0.599729 -0.182669,1.089788 -0.5471,1.470678 -0.364652,0.381306 -0.821243,0.571853 -1.370371,0.571853 -0.549334,0 -1.002976,-0.188362 -1.361241,-0.565343 -0.358079,-0.376778 -0.536703,-0.869037 -0.536703,-1.477188 0,-0.59108 0.180614,-1.077301 0.543206,-1.456341 0.362584,-0.378839 0.816643,-0.567948 1.361242,-0.567948 z m -16.030198,7.844449 c -0.50551,0 -0.897252,0.112385 -1.173659,0.337383 -0.275811,0.224799 -0.437491,0.530342 -0.484585,0.915752 -0.02563,0.166998 -0.04004,0.70794 -0.04427,1.624386 H 68.01162 v 1.483698 h 0.623956 v 5.506231 H 70.38892 V 67.86251 h 1.111137 V 66.378812 H 70.38892 l 0.0063,-0.872764 c 0,-0.20114 0.0346,-0.334433 0.1029,-0.398607 0.09441,-0.08558 0.243743,-0.128961 0.449404,-0.128961 0.16268,0 0.370998,0.03664 0.623965,0.109427 v -1.336509 c -0.458683,-0.1668 -0.869611,-0.250114 -1.233633,-0.250114 z m 40.764604,0.179768 v 3.468913 c -0.31243,-0.317133 -0.65203,-0.553982 -1.01998,-0.712546 -0.36752,-0.15816 -0.76124,-0.238382 -1.18018,-0.238382 -0.9113,0 -1.68524,0.345112 -2.32259,1.034296 -0.63756,0.689591 -0.95614,1.574333 -0.95614,2.653458 0,1.040663 0.32865,1.910393 0.98739,2.610484 0.65856,0.700083 1.43949,1.051224 2.34214,1.051224 0.40208,0 0.77578,-0.07265 1.12028,-0.216236 0.34426,-0.143351 0.68684,-0.377856 1.02908,-0.703425 v 0.739896 h 1.75333 v -9.687679 z m 17.37059,0 v 3.468913 c -0.31262,-0.317133 -0.65331,-0.553982 -1.02125,-0.712546 -0.36793,-0.15816 -0.76104,-0.238382 -1.18019,-0.238382 -0.91112,0 -1.68522,0.345112 -2.32259,1.034296 -0.63736,0.689591 -0.95613,1.574333 -0.95613,2.653458 0,1.040663 0.32864,1.910393 0.98738,2.610484 0.65874,0.700083 1.43968,1.051224 2.34214,1.051224 0.40228,0 0.77597,-0.07265 1.12025,-0.216236 0.3445,-0.143351 0.68796,-0.377856 1.03038,-0.703425 v 0.739896 h 1.75335 v -9.687679 z m -74.162773,0.238379 v 9.449303 h 5.158421 v -1.767672 h -3.372507 v -2.485432 h 3.372507 v -1.727286 h -3.372507 v -1.709049 h 3.372507 v -1.759864 z m 10.467956,2.279606 c -0.337909,0 -0.66841,0.0655 -0.991307,0.196705 -0.322684,0.131005 -0.683427,0.364273 -1.081184,0.699509 V 66.3788 h -1.753345 v 6.989929 h 1.753345 v -2.804562 c 0,-0.727031 0.02547,-1.199262 0.07682,-1.41727 0.0981,-0.419144 0.274459,-0.748756 0.528872,-0.986091 0.254195,-0.237547 0.558572,-0.355625 0.913136,-0.355625 0.273537,0 0.503174,0.0718 0.689088,0.214932 0.185917,0.143351 0.316143,0.351521 0.390799,0.625271 0.07471,0.273948 0.112023,0.828178 0.112023,1.66216 v 3.061185 h 1.735101 V 68.74959 c 0,-0.804966 -0.203845,-1.413855 -0.609629,-1.824988 -0.483728,-0.483933 -1.070884,-0.725561 -1.763756,-0.725561 z m 11.038505,0 c -1.036341,0 -1.898591,0.352031 -2.585724,1.056431 -0.687334,0.704416 -1.030393,1.590799 -1.030393,2.657374 0,1.040468 0.344702,1.906005 1.034302,2.597453 0.68979,0.691859 1.582016,1.038204 2.678212,1.038204 0.706664,0 1.317339,-0.125963 1.831499,-0.376469 0.513742,-0.250703 0.953821,-0.636744 1.322175,-1.15934 l -1.477186,-0.694299 c -0.471179,0.458423 -1.034461,0.687785 -1.689511,0.687785 -0.548309,0 -0.998807,-0.14681 -1.352135,-0.44029 -0.353336,-0.293284 -0.570077,-0.688508 -0.651313,-1.1854 h 5.63258 l 0.0063,-0.333481 c 0,-1.15624 -0.344694,-2.087124 -1.034287,-2.79154 -0.689397,-0.704399 -1.584209,-1.056431 -2.684729,-1.056431 z m 7.75979,0 c -0.320843,0 -0.615967,0.08987 -0.8858,0.269646 -0.27004,0.179964 -0.486033,0.443742 -0.648712,0.790693 v -0.880574 h -1.503249 v 6.989929 h 1.740331 V 70.54202 l -0.0063,-0.34129 c 0,-0.976506 0.09374,-1.631674 0.280066,-1.965674 0.185923,-0.333999 0.414253,-0.500209 0.683875,-0.500209 0.132862,0 0.301062,0.05087 0.506729,0.153708 l 0.545803,-1.509751 c -0.24825,-0.119902 -0.485498,-0.17976 -0.712556,-0.17976 z m 5.519244,0 c -0.433126,0 -0.831716,0.08223 -1.198419,0.244892 -0.3665,0.162899 -0.699258,0.408914 -0.999122,0.738599 v -0.803727 h -1.75465 v 6.989929 h 1.75465 v -3.109383 c 0,-0.672539 0.0589,-1.164577 0.177156,-1.477188 0.117637,-0.312612 0.295925,-0.555899 0.534084,-0.729477 0.238372,-0.173381 0.502773,-0.260524 0.794601,-0.260524 0.261823,0 0.484878,0.06881 0.669566,0.205818 0.184476,0.137169 0.323196,0.346032 0.41553,0.626559 0.09236,0.280325 0.138089,0.733628 0.138089,1.358656 v 3.385536 h 1.767671 v -3.154981 c 0,-0.668204 0.05765,-1.152906 0.173239,-1.455036 0.115584,-0.301918 0.292229,-0.538623 0.530186,-0.709937 0.237537,-0.171116 0.505368,-0.256615 0.805013,-0.256615 0.394061,0 0.690276,0.140426 0.887099,0.420749 0.19723,0.280522 0.295704,0.817626 0.295704,1.61005 v 3.54577 h 1.766371 v -4.099382 c 0,-0.839319 -0.08231,-1.444514 -0.247515,-1.81718 -0.164734,-0.372459 -0.435652,-0.675462 -0.812833,-0.906622 -0.377199,-0.231171 -0.814664,-0.346504 -1.311759,-0.346504 -0.480018,0 -0.922013,0.10765 -1.32739,0.321749 -0.404741,0.214301 -0.746894,0.526977 -1.025166,0.937889 -0.214499,-0.410912 -0.496946,-0.723588 -0.84801,-0.937889 -0.351694,-0.214099 -0.747059,-0.321749 -1.184095,-0.321749 z m 11.715878,0 c -1.03636,0 -1.89881,0.352031 -2.58574,1.056431 -0.687522,0.704416 -1.030354,1.590799 -1.030354,2.657374 0,1.040468 0.344691,1.906005 1.034294,2.597453 0.68958,0.691859 1.58201,1.038204 2.6782,1.038204 0.70666,0 1.31733,-0.125963 1.83151,-0.376469 0.51374,-0.250703 0.9538,-0.636744 1.32218,-1.15934 l -1.47719,-0.694296 c -0.47119,0.458422 -1.03427,0.687784 -1.68953,0.687784 -0.5481,0 -0.9988,-0.146809 -1.35213,-0.440289 -0.35355,-0.293285 -0.57006,-0.688508 -0.65132,-1.1854 h 5.63259 l 0.007,-0.333481 c 0,-1.15624 -0.34601,-2.087124 -1.0356,-2.79154 -0.68959,-0.7044 -1.584,-1.056431 -2.68471,-1.056431 z m 16.7753,0 c -0.91129,0 -1.68523,0.345112 -2.3226,1.034296 -0.63755,0.689591 -0.95613,1.574333 -0.95613,2.653458 0,1.040663 0.32866,1.910393 0.98741,2.610484 0.65874,0.700083 1.43946,1.051224 2.34213,1.051224 0.40207,0 0.77577,-0.07265 1.12026,-0.216236 0.34429,-0.143351 0.68685,-0.377856 1.02908,-0.703425 v 0.739896 h 1.75465 v -6.989929 h -1.75465 v 0.77116 c -0.31262,-0.317133 -0.65202,-0.553982 -1.01997,-0.712546 -0.36771,-0.15816 -0.76103,-0.238374 -1.18018,-0.238374 z m -41.682938,1.483695 c 0.450404,0 0.845904,0.121915 1.186698,0.366045 0.341195,0.24412 0.569187,0.56119 0.685188,0.950918 H 73.97376 c 0.197232,-0.432506 0.41192,-0.734013 0.643491,-0.905326 0.36855,-0.273955 0.79814,-0.411637 1.287001,-0.411637 z m 24.994928,0 c 0.45038,0 0.84591,0.121915 1.18669,0.366045 0.34119,0.24412 0.5692,0.56119 0.68518,0.950918 h -3.80238 c 0.19724,-0.432506 0.41172,-0.734013 0.6435,-0.905326 0.36855,-0.273955 0.79814,-0.411637 1.28701,-0.411637 z m 8.36029,0.135481 c 0.55467,0 1.01297,0.188768 1.37556,0.565342 0.36302,0.376982 0.54452,0.869232 0.54452,1.47718 0,0.62111 -0.1815,1.123985 -0.54452,1.507147 -0.36259,0.383359 -0.81829,0.574465 -1.36905,0.574465 -0.5333,0 -0.98339,-0.195147 -1.34823,-0.584884 -0.36506,-0.389743 -0.54711,-0.886587 -0.54711,-1.490209 0,-0.599518 0.1793,-1.091226 0.53798,-1.474586 0.35848,-0.383155 0.8085,-0.574455 1.35085,-0.574455 z m 8.68464,0 c 0.55489,0 1.01429,0.188768 1.37689,0.565342 0.36279,0.376982 0.5432,0.869232 0.5432,1.47718 0,0.62111 -0.18041,1.123985 -0.5432,1.507147 -0.3626,0.383359 -0.8196,0.574465 -1.37037,0.574465 -0.53328,0 -0.98317,-0.195147 -1.34823,-0.584884 -0.36506,-0.389743 -0.54711,-0.886587 -0.54711,-1.490209 0,-0.599518 0.17951,-1.091226 0.53798,-1.474586 0.35869,-0.383155 0.80872,-0.574455 1.35084,-0.574455 z m 8.68466,0 c 0.55489,0 1.01431,0.188768 1.37688,0.565342 0.3628,0.376982 0.54451,0.869232 0.54451,1.47718 0,0.62111 -0.1817,1.123985 -0.54451,1.507147 -0.36257,0.383359 -0.81958,0.574465 -1.37036,0.574465 -0.53351,0 -0.98187,-0.195147 -1.34693,-0.584884 -0.36524,-0.389743 -0.5484,-0.886587 -0.5484,-1.490209 0,-0.599518 0.1793,-1.091226 0.53798,-1.474586 0.35868,-0.383155 0.80891,-0.574455 1.35083,-0.574455 z"
     id="path554-0"
     inkscape:connector-curvature="0" />
  <flowRoot
     xml:space="preserve"
     id="flowRoot65"
     style="fill:black;fill-opacity:1;stroke:none;font-family:sans-serif;font-style:normal;font-weight:normal;font-size:13.33333333px;line-height:1.25;letter-spacing:0px;word-spacing:0px;"><flowRegion
       id="flowRegion67"
       style="font-size:13.33333333px;"><rect
         id="rect69"
         width="112.50626"
         height="44.561302"
         x="9.2652206"
         y="97.286125"
         style="font-size:13.33333333px;" /></flowRegion><flowPara
       id="flowPara71"></flowPara></flowRoot>  <flowRoot
     xml:space="preserve"
     id="flowRoot73"
     style="fill:black;fill-opacity:1;stroke:none;font-family:sans-serif;font-style:normal;font-weight:normal;font-size:13.33333333px;line-height:1.25;letter-spacing:0px;word-spacing:0px;"><flowRegion
       id="flowRegion75"
       style="font-size:13.33333333px;"><rect
         id="rect77"
         width="183.98082"
         height="68.827354"
         x="13.677231"
         y="101.69814"
         style="font-size:13.33333333px;" /></flowRegion><flowPara
       id="flowPara79"></flowPara></flowRoot>  <flowRoot
     xml:space="preserve"
     id="flowRoot81"
     style="font-style:normal;font-weight:normal;font-size:40px;line-height:1.25;font-family:sans-serif;letter-spacing:0px;word-spacing:0px;fill:#000000;fill-opacity:1;stroke:none"><flowRegion
       id="flowRegion83"><rect
         id="rect85"
         width="119.12427"
         height="44.561302"
         x="-15.883236"
         y="100.81573" /></flowRegion><flowPara
       id="flowPara87">cccccxxs</flowPara></flowRoot>  <flowRoot
     xml:space="preserve"
     id="flowRoot107"
     style="fill:black;fill-opacity:1;stroke:none;font-family:sans-serif;font-style:normal;font-weight:normal;font-size:40px;line-height:1.25;letter-spacing:0px;word-spacing:0px"><flowRegion
       id="flowRegion109"><rect
         id="rect111"
         width="97.064217"
         height="67.503754"
         x="204.71727"
         y="106.99255" /></flowRegion><flowPara
       id="flowPara113"></flowPara></flowRoot>  <flowRoot
     xml:space="preserve"
     id="flowRoot115"
     style="font-style:normal;font-weight:normal;font-size:40px;line-height:1.25;font-family:sans-serif;letter-spacing:0px;word-spacing:0px;fill:#000000;fill-opacity:1;stroke:none"><flowRegion
       id="flowRegion117"><rect
         id="rect119"
         width="119.12427"
         height="104.56464"
         x="226.33611"
         y="53.607231" /></flowRegion><flowPara
       id="flowPara121">Conozca su EnfermedadConozca su Enfermedadcc</flowPara><flowPara
       id="flowPara123" /><flowPara
       id="flowPara125" /></flowRoot>  <flowRoot
     xml:space="preserve"
     id="flowRoot127"
     style="fill:black;fill-opacity:1;stroke:none;font-family:sans-serif;font-style:normal;font-weight:normal;font-size:13.33333333px;line-height:1.25;letter-spacing:0px;word-spacing:0px;"><flowRegion
       id="flowRegion129"
       style="font-size:13.33333333px;"><rect
         id="rect131"
         width="177.804"
         height="72.356964"
         x="36.178482"
         y="103.46294"
         style="font-size:13.33333333px;" /></flowRegion><flowPara
       id="flowPara133"></flowPara></flowRoot></svg>
