<?xml version="1.0" encoding="UTF-8" standalone="no"?>
<svg
   xmlns:dc="http://purl.org/dc/elements/1.1/"
   xmlns:cc="http://creativecommons.org/ns#"
   xmlns:rdf="http://www.w3.org/1999/02/22-rdf-syntax-ns#"
   xmlns:svg="http://www.w3.org/2000/svg"
   xmlns="http://www.w3.org/2000/svg"
   xmlns:sodipodi="http://sodipodi.sourceforge.net/DTD/sodipodi-0.dtd"
   xmlns:inkscape="http://www.inkscape.org/namespaces/inkscape"
   id="teta-cabecera"
   version="1.1"
   viewBox="0 0 195.45204 81.844093"
   sodipodi:docname="teta-herramientas.svg"
   inkscape:version="0.92.5 (2060ec1f9f, 2020-04-08)">
  <sodipodi:namedview
     pagecolor="#ffffff"
     bordercolor="#666666"
     borderopacity="1"
     objecttolerance="10"
     gridtolerance="10"
     guidetolerance="10"
     inkscape:pageopacity="0"
     inkscape:pageshadow="2"
     inkscape:window-width="1366"
     inkscape:window-height="652"
     id="namedview74"
     showgrid="false"
     inkscape:zoom="3.2053725"
     inkscape:cx="119.16364"
     inkscape:cy="37.085949"
     inkscape:window-x="0"
     inkscape:window-y="27"
     inkscape:window-maximized="1"
     inkscape:current-layer="teta-cabecera" />
  <defs
     id="defs3554">
    <clipPath
       clipPathUnits="userSpaceOnUse"
       id="clipPath4175">
      <path
         d="M 0,560 H 960 V 0 H 0 Z"
         id="path4173" />
    </clipPath>
    <clipPath
       clipPathUnits="userSpaceOnUse"
       id="clipPath4213">
      <path
         d="M 0,560 H 960 V 0 H 0 Z"
         id="path4211" />
    </clipPath>
    <clipPath
       clipPathUnits="userSpaceOnUse"
       id="clipPath4313">
      <path
         d="M 0,560 H 960 V 0 H 0 Z"
         id="path4311" />
    </clipPath>
    <clipPath
       clipPathUnits="userSpaceOnUse"
       id="clipPath4175-3">
      <path
         d="M 0,560 H 960 V 0 H 0 Z"
         id="path4173-6" />
    </clipPath>
    <clipPath
       id="clipPath68"
       clipPathUnits="userSpaceOnUse">
      <path
         id="path66"
         d="M 0,773.477 H 988.99 V 0 H 0 Z" />
    </clipPath>
    <clipPath
       clipPathUnits="userSpaceOnUse"
       id="clipPath550">
      <path
         d="M 0,567.173 H 706.591 V 0 H 0 Z"
         id="path548" />
    </clipPath>
    <clipPath
       clipPathUnits="userSpaceOnUse"
       id="clipPath4175-7">
      <path
         d="M 0,560 H 960 V 0 H 0 Z"
         id="path4173-5" />
    </clipPath>
    <clipPath
       clipPathUnits="userSpaceOnUse"
       id="clipPath4213-3">
      <path
         d="M 0,560 H 960 V 0 H 0 Z"
         id="path4211-5" />
    </clipPath>
    <clipPath
       clipPathUnits="userSpaceOnUse"
       id="clipPath4313-6">
      <path
         d="M 0,560 H 960 V 0 H 0 Z"
         id="path4311-2" />
    </clipPath>
    <clipPath
       clipPathUnits="userSpaceOnUse"
       id="clipPath4175-3-9">
      <path
         d="M 0,560 H 960 V 0 H 0 Z"
         id="path4173-6-1" />
    </clipPath>
    <clipPath
       id="clipPath68-2"
       clipPathUnits="userSpaceOnUse">
      <path
         id="path66-7"
         d="M 0,773.477 H 988.99 V 0 H 0 Z" />
    </clipPath>
    <clipPath
       clipPathUnits="userSpaceOnUse"
       id="clipPath1777">
      <path
         d="M 0,624.208 H 807.081 V 0 H 0 Z"
         id="path1775" />
    </clipPath>
    <clipPath
       clipPathUnits="userSpaceOnUse"
       id="clipPath1785">
      <path
         d="M 552.017,461.229 H 710.271 V 200.181 H 552.017 Z"
         id="path1783" />
    </clipPath>
    <clipPath
       clipPathUnits="userSpaceOnUse"
       id="clipPath1809">
      <path
         d="M 0,624.208 H 807.081 V 0 H 0 Z"
         id="path1807" />
    </clipPath>
    <clipPath
       clipPathUnits="userSpaceOnUse"
       id="clipPath158">
      <path
         d="M 0,560 H 960 V 0 H 0 Z"
         id="path156"
         inkscape:connector-curvature="0" />
    </clipPath>
  </defs>
  <metadata
     id="metadata3557">
    <rdf:RDF>
      <cc:Work
         rdf:about="">
        <dc:format>image/svg+xml</dc:format>
        <dc:type
           rdf:resource="http://purl.org/dc/dcmitype/StillImage" />
        <dc:title />
      </cc:Work>
    </rdf:RDF>
  </metadata>
  <g
     transform="matrix(0.35277777,0,0,-0.35277777,-534.87541,656.3386)"
     id="g3507">
    <path
       inkscape:connector-curvature="0"
       id="path526"
       d="m 1651.8178,1860.4874 c -7.448,-5.0913 -14.898,-10.1801 -22.2466,-15.4072 -23.8121,-16.939 -45.788,-35.8451 -64.3169,-58.5601 -6.414,-7.865 -12.5263,-15.9614 -17.7393,-24.6723 -4.302,-7.1901 -9.4599,-13.7072 -15.9639,-18.8672 -14.367,-11.395 -18.2313,-25.9872 -13.3813,-43.0152 1.748,-6.14 1.4284,-12.0063 0.6694,-17.9883 -2.313,-18.2071 -1.5966,-36.0242 1.8897,-53.4887 h 549.4907 v 231.999 z"
       style="fill:#fcbdd4;fill-opacity:1;fill-rule:evenodd;stroke:none;stroke-width:0.99999994" />
  </g>
  <g
     id="g3339"
     style="fill:#ffffff"
     transform="translate(278.08389,-156.46536)">
    <g
       id="g3301"
       style="fill:#ffffff">
      <path
         inkscape:connector-curvature="0"
         id="path1801"
         style="fill:#ffffff;fill-opacity:1;fill-rule:nonzero;stroke:none;stroke-width:0.22881812"
         d="m -230.0627,106.47585 h 1.97836 v 3.86612 h 3.41969 v -3.86612 h 1.97104 v 10.24648 h -1.97104 v -4.49262 h -3.41969 v 4.49262 h -1.97836 z" />
      <path
         inkscape:connector-curvature="0"
         id="path1813"
         style="fill:#ffffff;fill-opacity:1;fill-rule:nonzero;stroke:none;stroke-width:0.22881812"
         d="m -214.87083,111.98582 c -0.12562,-0.4224 -0.37343,-0.76631 -0.74342,-1.03083 -0.36955,-0.26475 -0.79858,-0.397 -1.28711,-0.397 -0.53017,0 -0.99558,0.1485 -1.39556,0.44574 -0.25078,0.18557 -0.48372,0.51324 -0.69744,0.98209 z m 1.90171,1.49761 h -6.10876 c 0.0879,0.53864 0.32379,0.96699 0.7066,1.28527 0.38349,0.31783 0.87202,0.47709 1.46649,0.47709 0.71025,0 1.32097,-0.2485 1.83192,-0.74572 l 1.60196,0.75235 c -0.39952,0.56679 -0.87752,0.98575 -1.43469,1.25759 -0.55741,0.27138 -1.21892,0.40729 -1.98546,0.40729 -1.18848,0 -2.15707,-0.37457 -2.90439,-1.12486 -0.74801,-0.75007 -1.12143,-1.68914 -1.12143,-2.81744 0,-1.15645 0.37251,-2.11634 1.118,-2.88037 0.74526,-0.76402 1.67952,-1.14569 2.80348,-1.14569 1.19351,0 2.1637,0.38167 2.91148,1.14569 0.74755,0.76403 1.12144,1.77288 1.12144,3.02658 z" />
      <path
         inkscape:connector-curvature="0"
         id="path1817"
         style="fill:#ffffff;fill-opacity:1;fill-rule:nonzero;stroke:none;stroke-width:0.22881812"
         d="m -211.87561,109.14389 h 1.62987 v 0.95394 c 0.17665,-0.37572 0.41119,-0.66151 0.70339,-0.85646 0.29311,-0.19496 0.613,-0.29266 0.96149,-0.29266 0.2462,0 0.50385,0.0655 0.77317,0.19518 l -0.5924,1.63696 c -0.22264,-0.11143 -0.40616,-0.16704 -0.55008,-0.16704 -0.29244,0 -0.53979,0.18055 -0.74161,0.54276 -0.20226,0.36222 -0.30295,1.07316 -0.30295,2.1319 l 0.007,0.36909 v 3.06479 h -1.88752 z" />
      <path
         inkscape:connector-curvature="0"
         id="path1821"
         style="fill:#ffffff;fill-opacity:1;fill-rule:nonzero;stroke:none;stroke-width:0.22881812"
         d="m -207.31289,109.14389 h 1.62987 v 0.95394 c 0.17641,-0.37572 0.41118,-0.66151 0.70316,-0.85646 0.29311,-0.19496 0.61323,-0.29266 0.96172,-0.29266 0.2462,0 0.50363,0.0655 0.77295,0.19518 l -0.59218,1.63696 c -0.22288,-0.11143 -0.40638,-0.16704 -0.55008,-0.16704 -0.29244,0 -0.53979,0.18055 -0.74183,0.54276 -0.20205,0.36222 -0.30296,1.07316 -0.30296,2.1319 l 0.007,0.36909 v 3.06479 h -1.88729 z" />
      <path
         inkscape:connector-curvature="0"
         id="path1825"
         style="fill:#ffffff;fill-opacity:1;fill-rule:nonzero;stroke:none;stroke-width:0.22881812"
         d="m -198.71031,110.70407 c -0.58783,0 -1.07613,0.208 -1.4649,0.62353 -0.38876,0.41553 -0.58302,0.94845 -0.58302,1.59875 0,0.65442 0.19769,1.19329 0.59355,1.61591 0.3954,0.4224 0.88278,0.6336 1.46124,0.6336 0.59721,0 1.09237,-0.20754 1.48548,-0.6233 0.39334,-0.41576 0.59013,-0.95989 0.59013,-1.63331 0,-0.65922 -0.19679,-1.19351 -0.59013,-1.60218 -0.39311,-0.40844 -0.89079,-0.613 -1.49235,-0.613 m 1.99873,-1.56009 h 1.90193 v 7.57823 h -1.90193 v -0.80109 c -0.37092,0.35307 -0.74298,0.60751 -1.11664,0.76288 -0.3732,0.1556 -0.77798,0.23339 -1.21388,0.23339 -0.97865,0 -1.82528,-0.37961 -2.53942,-1.13905 -0.71437,-0.75899 -1.07132,-1.70287 -1.07132,-2.8314 0,-1.17017 0.3455,-2.12892 1.03677,-2.87693 0.6908,-0.74755 1.53056,-1.12121 2.51837,-1.12121 0.45466,0 0.88118,0.0861 1.28024,0.25765 0.3986,0.17184 0.76768,0.42972 1.10588,0.77318 z" />
      <path
         inkscape:connector-curvature="0"
         id="path1829"
         style="fill:#ffffff;fill-opacity:1;fill-rule:nonzero;stroke:none;stroke-width:0.22881812"
         d="m -192.90115,109.14389 h 1.90147 v 0.87042 c 0.32538,-0.35741 0.6867,-0.62422 1.08392,-0.80086 0.39746,-0.17619 0.83061,-0.26474 1.30014,-0.26474 0.47389,0 0.90109,0.11624 1.28253,0.34826 0.38121,0.23247 0.6876,0.57136 0.91985,1.0171 0.30227,-0.44574 0.67295,-0.78463 1.11206,-1.0171 0.43933,-0.23202 0.91893,-0.34826 1.43949,-0.34826 0.53886,0 1.01298,0.12539 1.42165,0.37617 0.40912,0.25079 0.70293,0.578 0.88209,0.98232 0.17871,0.40364 0.2684,1.06126 0.2684,1.97104 v 4.44411 h -1.91566 v -3.84507 c 0,-0.85875 -0.10708,-1.44063 -0.32035,-1.74474 -0.21371,-0.30409 -0.53406,-0.45626 -0.96149,-0.45626 -0.32493,0 -0.61621,0.0931 -0.87408,0.27871 -0.25765,0.18579 -0.44917,0.4423 -0.57457,0.76951 -0.12516,0.32744 -0.18831,0.85304 -0.18831,1.57748 v 3.42037 h -1.91521 v -3.67093 c 0,-0.67799 -0.0501,-1.16903 -0.15011,-1.47314 -0.1,-0.30387 -0.2501,-0.5304 -0.45031,-0.67913 -0.20022,-0.1485 -0.44253,-0.22287 -0.72627,-0.22287 -0.31669,0 -0.60385,0.094 -0.86219,0.28191 -0.25856,0.18832 -0.45168,0.45191 -0.57936,0.7908 -0.12814,0.33911 -0.19222,0.87316 -0.19222,1.60195 v 3.37141 h -1.90147 z" />
      <path
         inkscape:connector-curvature="0"
         d="m -179.6878,109.14401 h 1.90149 v 7.57845 h -1.90149 z m 0.95075,-3.12062 c 0.33316,0 0.61941,0.12081 0.85783,0.36198 0.2382,0.24187 0.35788,0.5343 0.35788,0.87775 0,0.33911 -0.1183,0.62834 -0.35445,0.86722 -0.23613,0.23912 -0.51849,0.35879 -0.8473,0.35879 -0.3382,0 -0.62628,-0.12196 -0.86471,-0.36565 -0.23842,-0.24392 -0.35764,-0.53979 -0.35764,-0.88827 0,-0.33431 0.11807,-0.6201 0.35421,-0.85647 0.23614,-0.23729 0.52079,-0.35535 0.85418,-0.35535"
         style="fill:#ffffff;fill-opacity:1;fill-rule:nonzero;stroke:none;stroke-width:0.22881812"
         id="path1831" />
      <path
         inkscape:connector-curvature="0"
         id="path1835"
         style="fill:#ffffff;fill-opacity:1;fill-rule:nonzero;stroke:none;stroke-width:0.22881812"
         d="m -170.3677,111.98582 c -0.12563,-0.4224 -0.37344,-0.76631 -0.74343,-1.03083 -0.36955,-0.26475 -0.79858,-0.397 -1.28711,-0.397 -0.53017,0 -0.99558,0.1485 -1.39556,0.44574 -0.25078,0.18557 -0.48372,0.51324 -0.69744,0.98209 z m 1.9017,1.49761 h -6.10876 c 0.0879,0.53864 0.32379,0.96699 0.7066,1.28527 0.38349,0.31783 0.87202,0.47709 1.46649,0.47709 0.71025,0 1.32097,-0.2485 1.83192,-0.74572 l 1.60196,0.75235 c -0.39952,0.56679 -0.87752,0.98575 -1.43469,1.25759 -0.55741,0.27138 -1.21892,0.40729 -1.98546,0.40729 -1.18848,0 -2.15707,-0.37457 -2.90439,-1.12486 -0.74801,-0.75007 -1.12143,-1.68914 -1.12143,-2.81744 0,-1.15645 0.37251,-2.11634 1.118,-2.88037 0.74526,-0.76402 1.67953,-1.14569 2.80348,-1.14569 1.19351,0 2.1637,0.38167 2.91148,1.14569 0.74755,0.76403 1.12144,1.77288 1.12144,3.02658 z" />
      <path
         inkscape:connector-curvature="0"
         id="path1839"
         style="fill:#ffffff;fill-opacity:1;fill-rule:nonzero;stroke:none;stroke-width:0.22881812"
         d="m -166.92672,109.14389 h 1.90194 v 0.77684 c 0.4311,-0.36359 0.82145,-0.61644 1.17178,-0.75876 0.35008,-0.1421 0.70796,-0.21326 1.0743,-0.21326 0.7512,0 1.38915,0.26245 1.91291,0.7869 0.44048,0.44597 0.66106,1.10543 0.66106,1.97837 v 5.00837 h -1.88111 v -3.31878 c 0,-0.90429 -0.0405,-1.50517 -0.1215,-1.80172 -0.081,-0.297 -0.22242,-0.52285 -0.424,-0.67867 -0.20113,-0.15514 -0.45032,-0.23294 -0.74687,-0.23294 -0.38442,0 -0.7146,0.12859 -0.99009,0.38602 -0.2755,0.25741 -0.46702,0.61346 -0.57342,1.06812 -0.0556,0.2366 -0.0831,0.74893 -0.0831,1.53766 v 3.04031 h -1.90193 z" />
      <path
         inkscape:connector-curvature="0"
         id="path1843"
         style="fill:#ffffff;fill-opacity:1;fill-rule:nonzero;stroke:none;stroke-width:0.22881812"
         d="m -158.13621,106.35082 h 1.90147 v 2.79319 h 1.12831 v 1.63696 h -1.12831 v 5.94126 h -1.90147 v -5.94126 h -0.97522 v -1.63696 h 0.97522 z" />
      <path
         inkscape:connector-curvature="0"
         id="path1847"
         style="fill:#ffffff;fill-opacity:1;fill-rule:nonzero;stroke:none;stroke-width:0.22881812"
         d="m -150.49515,110.70407 c -0.58783,0 -1.07613,0.208 -1.46466,0.62353 -0.38899,0.41553 -0.58326,0.94845 -0.58326,1.59875 0,0.65442 0.1977,1.19329 0.59379,1.61591 0.39539,0.4224 0.88255,0.6336 1.46123,0.6336 0.59698,0 1.09215,-0.20754 1.48548,-0.6233 0.39311,-0.41576 0.5899,-0.95989 0.5899,-1.63331 0,-0.65922 -0.19679,-1.19351 -0.5899,-1.60218 -0.39333,-0.40844 -0.89078,-0.613 -1.49258,-0.613 m 1.99873,-1.56009 h 1.90193 v 7.57823 h -1.90193 v -0.80109 c -0.37092,0.35307 -0.74298,0.60751 -1.1164,0.76288 -0.37321,0.1556 -0.77799,0.23339 -1.21388,0.23339 -0.97889,0 -1.82551,-0.37961 -2.53965,-1.13905 -0.71415,-0.75899 -1.0711,-1.70287 -1.0711,-2.8314 0,-1.17017 0.34528,-2.12892 1.03655,-2.87693 0.69102,-0.74755 1.53055,-1.12121 2.51837,-1.12121 0.45465,0 0.8814,0.0861 1.28023,0.25765 0.39883,0.17184 0.76768,0.42972 1.10588,0.77318 z" />
      <path
         inkscape:connector-curvature="0"
         id="path1851"
         style="fill:#ffffff;fill-opacity:1;fill-rule:nonzero;stroke:none;stroke-width:0.22881812"
         d="m -140.033,110.20263 -1.17703,1.17704 c -0.47823,-0.47365 -0.91276,-0.71025 -1.30267,-0.71025 -0.21371,0 -0.38098,0.0453 -0.50157,0.13569 -0.12104,0.0906 -0.181,0.20319 -0.181,0.33797 0,0.10205 0.0385,0.19609 0.11488,0.28213 0.0767,0.0858 0.26565,0.20296 0.56769,0.35146 l 0.69652,0.34849 c 0.73359,0.36199 1.23746,0.73108 1.51135,1.10771 0.27435,0.37572 0.41096,0.81711 0.41096,1.32302 0,0.67342 -0.24735,1.2354 -0.74161,1.68594 -0.4947,0.45032 -1.15758,0.67547 -1.98865,0.67547 -1.10519,0 -1.98774,-0.43178 -2.64697,-1.29557 l 1.1704,-1.27451 c 0.22264,0.25993 0.48396,0.46999 0.78325,0.63039 0.29975,0.15994 0.5654,0.24003 0.79789,0.24003 0.25078,0 0.4526,-0.0599 0.60568,-0.181 0.15331,-0.12058 0.23019,-0.25993 0.23019,-0.41782 0,-0.29265 -0.27664,-0.57799 -0.82901,-0.85669 l -0.64092,-0.32081 c -1.22578,-0.61734 -1.83878,-1.39029 -1.83878,-2.31929 0,-0.59905 0.2311,-1.11092 0.69309,-1.53583 0.46176,-0.42492 1.05256,-0.63726 1.77266,-0.63726 0.49196,0 0.95531,0.108 1.38983,0.32377 0.43361,0.21601 0.80178,0.52583 1.10382,0.92992" />
      <path
         inkscape:connector-curvature="0"
         id="path1855"
         style="fill:#ffffff;fill-opacity:1;fill-rule:nonzero;stroke:none;stroke-width:0.22881812"
         d="m -234.11562,124.95315 c -0.49676,0 -0.90886,0.16956 -1.23607,0.50843 -0.32721,0.33865 -0.49105,0.78187 -0.49105,1.32852 0,0.55809 0.16384,1.00977 0.49105,1.35437 0.32721,0.34483 0.73931,0.51713 1.23607,0.51713 0.48144,0 0.88691,-0.1755 1.21572,-0.5256 0.32972,-0.35054 0.49424,-0.7972 0.49424,-1.34018 0,-0.53932 -0.16177,-0.98094 -0.48532,-1.32554 -0.32355,-0.34483 -0.73153,-0.51713 -1.22464,-0.51713 m -1.65778,-1.29374 v 0.69309 c 0.2851,-0.28511 0.59309,-0.49882 0.92419,-0.64115 0.33133,-0.14233 0.68554,-0.21371 1.06286,-0.21371 0.82031,0 1.51707,0.30982 2.09117,0.92991 0.57365,0.6201 0.86059,1.41524 0.86059,2.38566 0,0.93563 -0.29678,1.71865 -0.88965,2.3479 -0.59287,0.62994 -1.2958,0.94456 -2.10833,0.94456 -0.36176,0 -0.69881,-0.0648 -1.01091,-0.1938 -0.31166,-0.12883 -0.62171,-0.33957 -0.92992,-0.63223 v 2.96319 h -1.56535 v -8.58342 z" />
      <path
         inkscape:connector-curvature="0"
         id="path1859"
         style="fill:#ffffff;fill-opacity:1;fill-rule:nonzero;stroke:none;stroke-width:0.22881812"
         d="m -226.54858,124.95315 c -0.48738,0 -0.89216,0.1723 -1.21479,0.51713 -0.32241,0.3446 -0.48349,0.78622 -0.48349,1.32554 0,0.54298 0.16406,0.98964 0.49218,1.34018 0.32813,0.3501 0.73222,0.5256 1.21183,0.5256 0.49493,0 0.90565,-0.1723 1.23195,-0.51713 0.3263,-0.3446 0.48945,-0.79628 0.48945,-1.35437 0,-0.54665 -0.16315,-0.98987 -0.48945,-1.32852 -0.3263,-0.33887 -0.73862,-0.50843 -1.23768,-0.50843 m 1.65779,-1.29374 h 1.57702 v 6.28449 h -1.57702 v -0.66426 c -0.30799,0.29266 -0.61643,0.5034 -0.92603,0.63223 -0.30982,0.12905 -0.64526,0.1938 -1.00656,0.1938 -0.81186,0 -1.51387,-0.31462 -2.10605,-0.94456 -0.59218,-0.62925 -0.8885,-1.41227 -0.8885,-2.3479 0,-0.97042 0.28648,-1.76556 0.85967,-2.38566 0.57319,-0.62009 1.26948,-0.92991 2.08865,-0.92991 0.37663,0 0.73039,0.0714 1.06126,0.21371 0.33087,0.14233 0.63657,0.35604 0.91756,0.64115 z" />
      <path
         inkscape:connector-curvature="0"
         id="path1863"
         style="fill:#ffffff;fill-opacity:1;fill-rule:nonzero;stroke:none;stroke-width:0.22881812"
         d="m -222.08933,123.65934 h 1.35163 v 0.79125 c 0.14645,-0.31187 0.34071,-0.5487 0.58326,-0.71048 0.24278,-0.16177 0.50843,-0.24255 0.7972,-0.24255 0.20434,0 0.41805,0.054 0.64115,0.16178 l -0.49081,1.35734 c -0.18489,-0.0924 -0.33729,-0.13866 -0.45627,-0.13866 -0.24277,0 -0.44779,0.15011 -0.61529,0.45055 -0.16772,0.30043 -0.25147,0.88964 -0.25147,1.76761 l 0.006,0.30617 v 2.54148 h -1.56535 z" />
      <path
         inkscape:connector-curvature="0"
         id="path1867"
         style="fill:#ffffff;fill-opacity:1;fill-rule:nonzero;stroke:none;stroke-width:0.22881812"
         d="m -214.95574,124.95315 c -0.48715,0 -0.89216,0.1723 -1.21479,0.51713 -0.32241,0.3446 -0.48349,0.78622 -0.48349,1.32554 0,0.54298 0.16428,0.98964 0.49218,1.34018 0.32813,0.3501 0.73222,0.5256 1.21182,0.5256 0.49517,0 0.9059,-0.1723 1.23219,-0.51713 0.32606,-0.3446 0.48921,-0.79628 0.48921,-1.35437 0,-0.54665 -0.16315,-0.98987 -0.48921,-1.32852 -0.32629,-0.33887 -0.73863,-0.50843 -1.23791,-0.50843 m 1.65779,-1.29374 h 1.57701 v 6.28449 h -1.57701 v -0.66426 c -0.30776,0.29266 -0.61621,0.5034 -0.9258,0.63223 -0.30982,0.12905 -0.64527,0.1938 -1.0068,0.1938 -0.81185,0 -1.51363,-0.31462 -2.10582,-0.94456 -0.5924,-0.62925 -0.88872,-1.41227 -0.88872,-2.3479 0,-0.97042 0.28648,-1.76556 0.85967,-2.38566 0.57342,-0.62009 1.26948,-0.92991 2.08865,-0.92991 0.37686,0 0.73061,0.0714 1.06149,0.21371 0.33064,0.14233 0.63657,0.35604 0.91733,0.64115 z" />
      <path
         inkscape:connector-curvature="0"
         d="m -199.88603,121.23338 h 1.57702 v 8.71065 h -1.57702 z"
         style="fill:#ffffff;fill-opacity:1;fill-rule:nonzero;stroke:none;stroke-width:0.22881812"
         id="path1869" />
      <path
         inkscape:connector-curvature="0"
         id="path1873"
         style="fill:#ffffff;fill-opacity:1;fill-rule:nonzero;stroke:none;stroke-width:0.22881812"
         d="m -193.89598,124.95315 c -0.48738,0 -0.89216,0.1723 -1.21479,0.51713 -0.32263,0.3446 -0.48349,0.78622 -0.48349,1.32554 0,0.54298 0.16406,0.98964 0.49218,1.34018 0.3279,0.3501 0.732,0.5256 1.21159,0.5256 0.49517,0 0.90589,-0.1723 1.23219,-0.51713 0.3263,-0.3446 0.48945,-0.79628 0.48945,-1.35437 0,-0.54665 -0.16315,-0.98987 -0.48945,-1.32852 -0.3263,-0.33887 -0.73862,-0.50843 -1.23768,-0.50843 m 1.65756,-1.29374 h 1.57702 v 6.28449 h -1.57702 v -0.66426 c -0.30776,0.29266 -0.61621,0.5034 -0.9258,0.63223 -0.30982,0.12905 -0.64526,0.1938 -1.0068,0.1938 -0.81162,0 -1.51363,-0.31462 -2.10581,-0.94456 -0.59218,-0.62925 -0.8885,-1.41227 -0.8885,-2.3479 0,-0.97042 0.28625,-1.76556 0.85967,-2.38566 0.57319,-0.62009 1.26948,-0.92991 2.08865,-0.92991 0.37663,0 0.73039,0.0714 1.06126,0.21371 0.33064,0.14233 0.63657,0.35604 0.91733,0.64115 z" />
      <path
         inkscape:connector-curvature="0"
         id="path1877"
         style="fill:#ffffff;fill-opacity:1;fill-rule:nonzero;stroke:none;stroke-width:0.22881812"
         d="m -177.14665,119.69747 h 5.66279 V 121.62 h -1.8667 v 8.32394 h -1.97836 V 121.62 h -1.81773 z" />
      <path
         inkscape:connector-curvature="0"
         id="path1881"
         style="fill:#ffffff;fill-opacity:1;fill-rule:nonzero;stroke:none;stroke-width:0.22881812"
         d="m -166.76449,123.96033 c -0.59104,0 -1.08277,0.20548 -1.47564,0.61666 -0.39335,0.41073 -0.5899,0.93678 -0.5899,1.5777 0,0.65946 0.19427,1.19352 0.5828,1.60196 0.3883,0.40867 0.88026,0.613 1.47565,0.613 0.59516,0 1.09055,-0.20662 1.48618,-0.62009 0.39493,-0.41325 0.59332,-0.94456 0.59332,-1.59487 0,-0.65007 -0.1945,-1.17841 -0.5828,-1.58479 -0.38853,-0.40593 -0.88507,-0.60957 -1.48961,-0.60957 m -0.0318,-1.79005 c 0.71529,0 1.38755,0.17871 2.01681,0.53635 0.62925,0.35764 1.12006,0.84297 1.47312,1.45574 0.35262,0.61324 0.52949,1.27475 0.52949,1.98546 0,0.71506 -0.17779,1.38366 -0.53269,2.00604 -0.35558,0.62216 -0.83976,1.10863 -1.45277,1.45918 -0.613,0.35055 -1.28846,0.52582 -2.02664,0.52582 -1.08665,0 -2.01428,-0.3867 -2.78288,-1.15965 -0.7686,-0.7734 -1.15302,-1.71247 -1.15302,-2.81766 0,-1.18391 0.43453,-2.17057 1.30289,-2.96022 0.76151,-0.68715 1.63697,-1.03106 2.62569,-1.03106" />
      <path
         inkscape:connector-curvature="0"
         id="path1885"
         style="fill:#ffffff;fill-opacity:1;fill-rule:nonzero;stroke:none;stroke-width:0.22881812"
         d="m -161.23732,122.36541 h 1.90148 v 0.87043 c 0.32538,-0.35742 0.68669,-0.62398 1.08391,-0.80086 0.39746,-0.1762 0.83061,-0.26475 1.30014,-0.26475 0.47389,0 0.90109,0.11625 1.28231,0.34826 0.38144,0.23271 0.68782,0.57136 0.92007,1.0171 0.30227,-0.44574 0.67295,-0.78439 1.11206,-1.0171 0.43933,-0.23201 0.91893,-0.34826 1.43949,-0.34826 0.53887,0 1.01298,0.1254 1.42165,0.37641 0.40912,0.25055 0.70293,0.57776 0.88209,0.98208 0.17871,0.40387 0.2684,1.06127 0.2684,1.97105 v 4.4441 h -1.91566 v -3.84506 c 0,-0.85875 -0.10708,-1.44041 -0.32034,-1.74474 -0.21372,-0.3041 -0.53407,-0.45626 -0.96149,-0.45626 -0.32493,0 -0.61621,0.0931 -0.87409,0.2787 -0.25765,0.1858 -0.44917,0.4423 -0.57456,0.76952 -0.12516,0.32743 -0.18832,0.85326 -0.18832,1.57747 v 3.42037 h -1.91521 v -3.67092 c 0,-0.678 -0.0501,-1.16881 -0.15011,-1.47291 -0.1,-0.3041 -0.25032,-0.53063 -0.4503,-0.67936 -0.20022,-0.1485 -0.44254,-0.22287 -0.72627,-0.22287 -0.31669,0 -0.60386,0.094 -0.86219,0.28213 -0.25857,0.18809 -0.45169,0.45169 -0.57937,0.79057 -0.12814,0.33911 -0.19221,0.87317 -0.19221,1.60196 v 3.3714 h -1.90148 z" />
      <path
         inkscape:connector-curvature="0"
         id="path1889"
         style="fill:#ffffff;fill-opacity:1;fill-rule:nonzero;stroke:none;stroke-width:0.22881812"
         d="m -144.22075,123.92568 c -0.58784,0 -1.07613,0.208 -1.46466,0.62353 -0.389,0.41553 -0.58326,0.94822 -0.58326,1.59852 0,0.65442 0.19769,1.19329 0.59378,1.61614 0.39539,0.4224 0.88255,0.63361 1.46123,0.63361 0.59699,0 1.09215,-0.20754 1.48549,-0.62353 0.39311,-0.41554 0.58989,-0.95967 0.58989,-1.63331 0,-0.65923 -0.19678,-1.19329 -0.58989,-1.60196 -0.39334,-0.40844 -0.89079,-0.613 -1.49258,-0.613 m 1.99872,-1.56031 h 1.90194 v 7.57845 h -1.90194 v -0.80108 c -0.37091,0.35283 -0.74297,0.6075 -1.1164,0.76264 -0.3732,0.1556 -0.77798,0.2334 -1.21388,0.2334 -0.97888,0 -1.82551,-0.37938 -2.53965,-1.13883 -0.71415,-0.75922 -1.0711,-1.70309 -1.0711,-2.8314 0,-1.17017 0.34528,-2.12892 1.03655,-2.87692 0.69102,-0.74756 1.53056,-1.12122 2.51837,-1.12122 0.45466,0 0.8814,0.0861 1.28024,0.25743 0.39859,0.17207 0.76768,0.42994 1.10587,0.7734 z" />
      <path
         inkscape:connector-curvature="0"
         id="path1893"
         style="fill:#ffffff;fill-opacity:1;fill-rule:nonzero;stroke:none;stroke-width:0.22881812"
         d="m -229.42217,138.17476 c -0.48715,0 -0.89216,0.17207 -1.21479,0.51713 -0.32241,0.3446 -0.4835,0.78622 -0.4835,1.32554 0,0.54298 0.16407,0.98964 0.49219,1.33996 0.32812,0.35032 0.73222,0.52583 1.21182,0.52583 0.49517,0 0.90589,-0.17231 1.23219,-0.51736 0.32606,-0.34461 0.48921,-0.79606 0.48921,-1.35438 0,-0.54665 -0.16315,-0.98964 -0.48921,-1.32851 -0.3263,-0.33865 -0.73886,-0.50821 -1.23791,-0.50821 m 1.65779,-3.71989 h 1.57679 v 8.71064 h -1.57679 v -0.66426 c -0.30799,0.29244 -0.61621,0.5034 -0.9258,0.63223 -0.31005,0.12905 -0.6455,0.1938 -1.0068,0.1938 -0.81185,0 -1.51386,-0.31462 -2.10604,-0.94478 -0.59219,-0.62925 -0.8885,-1.41204 -0.8885,-2.3479 0,-0.97042 0.28648,-1.76534 0.85967,-2.38544 0.57318,-0.62009 1.26948,-0.93014 2.08865,-0.93014 0.37686,0 0.73061,0.0714 1.06149,0.21372 0.33041,0.14232 0.63634,0.35604 0.91733,0.64137 z" />
      <path
         inkscape:connector-curvature="0"
         id="path1897"
         style="fill:#ffffff;fill-opacity:1;fill-rule:nonzero;stroke:none;stroke-width:0.22881812"
         d="m -219.87398,139.23751 c -0.10434,-0.35032 -0.30959,-0.63543 -0.61621,-0.85486 -0.30661,-0.21945 -0.66243,-0.32927 -1.06743,-0.32927 -0.44002,0 -0.82581,0.12332 -1.15736,0.36976 -0.20823,0.15377 -0.40112,0.42537 -0.57846,0.81437 z m 1.57702,1.24202 h -5.06581 c 0.073,0.44666 0.26863,0.80178 0.586,1.06584 0.31806,0.2636 0.72307,0.39539 1.21618,0.39539 0.58898,0 1.09535,-0.20571 1.51912,-0.61803 l 1.32852,0.62375 c -0.33133,0.46999 -0.72765,0.81734 -1.18986,1.04296 -0.46221,0.22492 -1.01092,0.33773 -1.64635,0.33773 -0.98574,0 -1.78867,-0.31096 -2.40877,-0.93312 -0.62009,-0.62169 -0.92991,-1.40059 -0.92991,-2.33623 0,-0.95875 0.3089,-1.75503 0.9274,-2.38864 0.61758,-0.63336 1.39281,-0.95004 2.32479,-0.95004 0.98964,0 1.79439,0.31668 2.41449,0.95004 0.61987,0.63361 0.92992,1.47016 0.92992,2.50992 z" />
      <path
         inkscape:connector-curvature="0"
         id="path1901"
         style="fill:#ffffff;fill-opacity:1;fill-rule:nonzero;stroke:none;stroke-width:0.22881812"
         d="m -210.71253,134.80004 v 6.46411 h 0.90521 c 0.8917,0 1.53834,-0.10251 1.94037,-0.30685 0.40135,-0.20456 0.72994,-0.54893 0.98507,-1.03242 0.25558,-0.48304 0.38326,-1.07843 0.38326,-1.78478 0,-1.08804 -0.3041,-1.93169 -0.91253,-2.53143 -0.54778,-0.53931 -1.42781,-0.80863 -2.63964,-0.80863 z m -1.93672,-1.88112 h 2.31084 c 1.48937,0 2.59594,0.18489 3.31969,0.55397 0.72375,0.36931 1.3196,0.96951 1.78867,1.8008 0.46862,0.83107 0.70293,1.80149 0.70293,2.91125 0,0.78965 -0.13111,1.515 -0.39356,2.17697 -0.26177,0.66152 -0.62377,1.21091 -1.08552,1.64727 -0.46176,0.43658 -0.96172,0.73816 -1.49967,0.90543 -0.53841,0.16726 -1.47107,0.25079 -2.79799,0.25079 h -2.34539 z" />
      <path
         inkscape:connector-curvature="0"
         id="path1905"
         style="fill:#ffffff;fill-opacity:1;fill-rule:nonzero;stroke:none;stroke-width:0.22881812"
         d="m -197.18545,138.42881 c -0.12585,-0.42239 -0.37343,-0.76608 -0.74343,-1.03082 -0.36977,-0.26475 -0.79881,-0.397 -1.2871,-0.397 -0.5304,0 -0.99558,0.1485 -1.39556,0.44574 -0.25102,0.1858 -0.48372,0.51324 -0.69744,0.98208 z m 1.90148,1.49785 h -6.10876 c 0.0881,0.53841 0.32378,0.96698 0.70682,1.28504 0.38327,0.31805 0.87203,0.47709 1.4665,0.47709 0.71025,0 1.32073,-0.2485 1.83168,-0.7455 l 1.60219,0.75213 c -0.39974,0.56679 -0.87775,0.98575 -1.43492,1.25759 -0.55717,0.27137 -1.21868,0.40752 -1.98522,0.40752 -1.18849,0 -2.15707,-0.37481 -2.90439,-1.12509 -0.74801,-0.74984 -1.12144,-1.68915 -1.12144,-2.81744 0,-1.15623 0.37229,-2.11611 1.11778,-2.88037 0.74526,-0.76379 1.67975,-1.14569 2.80371,-1.14569 1.19328,0 2.1637,0.3819 2.91148,1.14569 0.74755,0.76426 1.12121,1.77288 1.12121,3.02681 z" />
      <path
         inkscape:connector-curvature="0"
         id="path1909"
         style="fill:#ffffff;fill-opacity:1;fill-rule:nonzero;stroke:none;stroke-width:0.22881812"
         d="m -186.32643,137.11938 -1.58296,0.87043 c -0.29769,-0.31074 -0.59196,-0.52674 -0.88233,-0.64756 -0.29059,-0.12059 -0.63107,-0.181 -1.0219,-0.181 -0.71116,0 -1.28664,0.21189 -1.72597,0.63635 -0.43933,0.424 -0.659,0.96767 -0.659,1.63056 0,0.64458 0.21143,1.17086 0.63474,1.57907 0.42309,0.40798 0.97866,0.61186 1.66672,0.61186 0.85074,0 1.5134,-0.29014 1.98774,-0.87088 l 1.49945,1.02693 c -0.81277,1.05692 -1.96006,1.58526 -3.4412,1.58526 -1.33286,0 -2.37651,-0.39448 -3.13092,-1.18413 -0.75464,-0.7892 -1.13219,-1.7134 -1.13219,-2.77237 0,-0.73336 0.18351,-1.40928 0.55053,-2.02709 0.36657,-0.61736 0.87866,-1.10245 1.53583,-1.45552 0.65717,-0.35261 1.39213,-0.52925 2.20443,-0.52925 0.75236,0 1.42806,0.14964 2.02711,0.44916 0.59904,0.29953 1.08894,0.72559 1.46992,1.27818" />
      <path
         inkscape:connector-curvature="0"
         d="m -184.82201,135.58691 h 1.90148 v 7.57846 h -1.90148 z m 0.95096,-3.12061 c 0.33316,0 0.61942,0.12104 0.85784,0.36221 0.2382,0.24163 0.35765,0.53429 0.35765,0.87775 0,0.33911 -0.11808,0.62811 -0.35444,0.86699 -0.23591,0.23935 -0.51827,0.35901 -0.84732,0.35901 -0.33796,0 -0.62605,-0.12218 -0.8647,-0.36564 -0.23843,-0.24392 -0.35741,-0.54001 -0.35741,-0.88827 0,-0.33431 0.11784,-0.6201 0.35397,-0.85647 0.23638,-0.23729 0.52103,-0.35558 0.85441,-0.35558"
         style="fill:#ffffff;fill-opacity:1;fill-rule:nonzero;stroke:none;stroke-width:0.22881812"
         id="path1911" />
      <path
         inkscape:connector-curvature="0"
         id="path1915"
         style="fill:#ffffff;fill-opacity:1;fill-rule:nonzero;stroke:none;stroke-width:0.22881812"
         d="m -176.5536,136.64566 -1.17704,1.17704 c -0.47823,-0.47365 -0.91276,-0.71002 -1.30266,-0.71002 -0.21371,0 -0.38098,0.0451 -0.50157,0.13546 -0.12104,0.0906 -0.181,0.20319 -0.181,0.33796 0,0.10206 0.0385,0.1961 0.11487,0.28213 0.0767,0.0861 0.26566,0.2032 0.5677,0.3517 l 0.69652,0.34826 c 0.73359,0.36221 1.23745,0.7313 1.51134,1.10771 0.27413,0.37572 0.41096,0.81711 0.41096,1.32302 0,0.67341 -0.24735,1.2354 -0.7416,1.68616 -0.4947,0.45009 -1.15759,0.67548 -1.98865,0.67548 -1.10543,0 -1.98775,-0.43201 -2.64697,-1.29558 l 1.17017,-1.27474 c 0.22287,0.26017 0.48418,0.46999 0.78348,0.63039 0.29975,0.15995 0.5654,0.24027 0.79789,0.24027 0.25078,0 0.4526,-0.0602 0.60567,-0.18123 0.15332,-0.12059 0.2302,-0.25993 0.2302,-0.41782 0,-0.29266 -0.27664,-0.578 -0.82901,-0.85647 l -0.64092,-0.3208 c -1.22578,-0.61735 -1.83901,-1.39053 -1.83901,-2.3193 0,-0.59928 0.2311,-1.11114 0.69309,-1.53583 0.46199,-0.42514 1.05279,-0.63748 1.77288,-0.63748 0.49196,0 0.95531,0.108 1.38962,0.32377 0.43383,0.21601 0.802,0.52582 1.10404,0.92992" />
      <path
         inkscape:connector-curvature="0"
         d="m -175.12584,135.58691 h 1.90147 v 7.57846 h -1.90147 z m 0.95073,-3.12061 c 0.3334,0 0.61942,0.12104 0.85784,0.36221 0.2382,0.24163 0.35765,0.53429 0.35765,0.87775 0,0.33911 -0.11808,0.62811 -0.35444,0.86699 -0.23591,0.23935 -0.51828,0.35901 -0.84732,0.35901 -0.33796,0 -0.62604,-0.12218 -0.8647,-0.36564 -0.23842,-0.24392 -0.35719,-0.54001 -0.35719,-0.88827 0,-0.33431 0.11762,-0.6201 0.35376,-0.85647 0.23637,-0.23729 0.52102,-0.35558 0.8544,-0.35558"
         style="fill:#ffffff;fill-opacity:1;fill-rule:nonzero;stroke:none;stroke-width:0.22881812"
         id="path1917" />
      <path
         inkscape:connector-curvature="0"
         id="path1921"
         style="fill:#ffffff;fill-opacity:1;fill-rule:nonzero;stroke:none;stroke-width:0.22881812"
         d="m -167.9059,137.18183 c -0.59081,0 -1.08277,0.20548 -1.47564,0.61666 -0.39311,0.41096 -0.5899,0.93678 -0.5899,1.5777 0,0.65946 0.19427,1.19375 0.5828,1.60196 0.3883,0.4089 0.88026,0.613 1.47565,0.613 0.59516,0 1.09055,-0.20662 1.48618,-0.6201 0.39493,-0.41324 0.59332,-0.94455 0.59332,-1.59486 0,-0.65007 -0.1945,-1.17841 -0.5828,-1.58479 -0.38853,-0.40593 -0.88507,-0.60957 -1.48961,-0.60957 m -0.0316,-1.78982 c 0.71506,0 1.38733,0.17848 2.01659,0.53612 0.62925,0.35764 1.12029,0.84297 1.47312,1.45597 0.35284,0.61301 0.52949,1.27452 0.52949,1.98523 0,0.71506 -0.17779,1.38366 -0.53269,2.00604 -0.35536,0.62216 -0.83954,1.10886 -1.45253,1.45918 -0.61301,0.35055 -1.28848,0.52582 -2.02688,0.52582 -1.08643,0 -2.01405,-0.3867 -2.78288,-1.15965 -0.7686,-0.77318 -1.15279,-1.71247 -1.15279,-2.81766 0,-1.18391 0.4343,-2.17057 1.30289,-2.96022 0.76128,-0.68715 1.63696,-1.03083 2.62568,-1.03083" />
      <path
         inkscape:connector-curvature="0"
         id="path1925"
         style="fill:#ffffff;fill-opacity:1;fill-rule:nonzero;stroke:none;stroke-width:0.22881812"
         d="m -162.36466,135.58691 h 1.90171 v 0.77685 c 0.43109,-0.3636 0.82146,-0.61645 1.17201,-0.75877 0.34986,-0.1421 0.70796,-0.21303 1.07429,-0.21303 0.75121,0 1.38893,0.26222 1.91292,0.7869 0.44025,0.44574 0.66084,1.1052 0.66084,1.97814 v 5.00837 h -1.88112 v -3.31855 c 0,-0.90452 -0.0403,-1.50517 -0.1215,-1.80195 -0.0808,-0.297 -0.22241,-0.52284 -0.42377,-0.67844 -0.20137,-0.15537 -0.45055,-0.23316 -0.74709,-0.23316 -0.38442,0 -0.7146,0.12882 -0.99011,0.38601 -0.27549,0.25742 -0.46678,0.6137 -0.57318,1.06835 -0.0558,0.23638 -0.0833,0.7487 -0.0833,1.53744 v 3.0403 h -1.90171 z" />
      <path
         inkscape:connector-curvature="0"
         id="path1929"
         style="fill:#ffffff;fill-opacity:1;fill-rule:nonzero;stroke:none;stroke-width:0.22881812"
         d="m -148.11336,138.42881 c -0.12584,-0.42239 -0.37343,-0.76608 -0.74343,-1.03082 -0.36954,-0.26475 -0.79881,-0.397 -1.2871,-0.397 -0.5304,0 -0.99558,0.1485 -1.39556,0.44574 -0.25102,0.1858 -0.48372,0.51324 -0.69744,0.98208 z m 1.90148,1.49785 h -6.10875 c 0.0881,0.53841 0.32377,0.96698 0.70682,1.28504 0.38327,0.31805 0.87202,0.47709 1.46649,0.47709 0.71025,0 1.32074,-0.2485 1.83169,-0.7455 l 1.60218,0.75213 c -0.39951,0.56679 -0.87775,0.98575 -1.43492,1.25759 -0.55717,0.27137 -1.21868,0.40752 -1.98522,0.40752 -1.18848,0 -2.15707,-0.37481 -2.90439,-1.12509 -0.74801,-0.74984 -1.12144,-1.68915 -1.12144,-2.81744 0,-1.15623 0.37229,-2.11611 1.118,-2.88037 0.74504,-0.76379 1.67953,-1.14569 2.80349,-1.14569 1.19328,0 2.1637,0.3819 2.91148,1.14569 0.74755,0.76426 1.12144,1.77288 1.12144,3.02681 z" />
      <path
         inkscape:connector-curvature="0"
         id="path1933"
         style="fill:#ffffff;fill-opacity:1;fill-rule:nonzero;stroke:none;stroke-width:0.22881812"
         d="m -140.03343,136.64566 -1.17704,1.17704 c -0.47823,-0.47365 -0.91252,-0.71002 -1.30266,-0.71002 -0.21372,0 -0.38076,0.0451 -0.50134,0.13546 -0.12105,0.0906 -0.18123,0.20319 -0.18123,0.33796 0,0.10206 0.0385,0.1961 0.11487,0.28213 0.0768,0.0861 0.26566,0.2032 0.5677,0.3517 l 0.69652,0.34826 c 0.73359,0.36221 1.23745,0.7313 1.51158,1.10771 0.27412,0.37572 0.41095,0.81711 0.41095,1.32302 0,0.67341 -0.24735,1.2354 -0.74183,1.68616 -0.49471,0.45009 -1.15736,0.67548 -1.98866,0.67548 -1.10519,0 -1.98774,-0.43201 -2.64696,-1.29558 l 1.1704,-1.27474 c 0.22287,0.26017 0.48418,0.46999 0.78325,0.63039 0.29998,0.15995 0.56564,0.24027 0.79811,0.24027 0.25056,0 0.45238,-0.0602 0.60569,-0.18123 0.1533,-0.12059 0.22996,-0.25993 0.22996,-0.41782 0,-0.29266 -0.27642,-0.578 -0.82901,-0.85647 l -0.64093,-0.3208 c -1.22577,-0.61735 -1.83878,-1.39053 -1.83878,-2.3193 0,-0.59928 0.23111,-1.11114 0.69309,-1.53583 0.46176,-0.42514 1.0528,-0.63748 1.77289,-0.63748 0.49196,0 0.95532,0.108 1.38961,0.32377 0.43384,0.21601 0.80201,0.52582 1.10382,0.92992" />
    </g>
  </g>
  <g
     transform="matrix(0.46787873,0,0,-0.48682006,-70.26997,269.19258)"
     id="g152">
    <g
       id="g154"
       clip-path="url(#clipPath158)">
      <g
         id="g160"
         transform="translate(539.9316,456.3105)">
        <path
           d="M 0,0 C -1.371,0.083 -2.934,-0.351 -2.797,1.864 -2.65,4.344 -0.781,3.427 0.489,3.573 1.871,3.732 3.258,3.709 3.18,1.673 3.082,-0.886 1.09,0.356 0,0 m 3.149,-12.077 c -0.121,-2.213 -1.836,-1.478 -3.061,-1.626 -1.363,-0.029 -2.856,-0.335 -2.885,1.818 -0.029,2.19 1.527,1.843 2.855,1.836 1.449,0 3.233,0.401 3.091,-2.028 M 3.17,15.357 c -0.131,-2.19 -1.848,-1.403 -2.899,-1.648 -1.352,0.187 -3.039,-0.445 -3.039,1.771 0,2.553 1.938,1.623 3.223,1.755 1.367,0.141 2.84,0.231 2.715,-1.878 m -48.191,7.484 c -3.102,0.038 -3.93,-0.813 -3.868,-3.88 0.2,-9.83 0.16,-19.67 0.01,-29.499 -0.033,-2.36 0.736,-3.408 2.942,-4.004 3.699,-0.993 7.411,-1.849 11.219,-2.273 1.697,-0.194 2.715,-0.608 2.468,-2.754 -0.252,-2.163 -1.566,-1.851 -2.902,-1.726 -5.889,0.533 -11.532,2.042 -16.998,4.26 -1.837,0.749 -2.268,1.953 -2.264,3.818 0.059,15.706 0.072,31.415 -0.028,47.122 -0.016,2.564 0.911,3.224 3.342,3.191 8.609,-0.12 17.216,-0.05 25.82,-0.05 8.19,0 16.391,0.037 24.587,-0.028 1.527,-0.012 3.601,0.927 3.732,-2.206 L 3.023,24.934 C 2.975,22.17 1.158,22.775 -0.358,22.775 c -14.89,-0.022 -29.779,-0.104 -44.663,0.066 m 23.545,-27.427 c -2.68,-1.122 -5.802,-0.007 -7.217,2.583 -1.414,2.579 -0.661,5.487 2.045,7.306 1.929,1.296 4.062,2.285 5.892,3.876 0.805,-2.366 1.615,-4.544 2.284,-6.761 0.921,-3.055 -0.339,-5.89 -3.004,-7.004 M -25.004,46 c 1.725,-0.177 2.569,-1.281 2.539,-3.129 -0.28,-1.764 -1.304,-2.856 -3.252,-2.643 -1.72,0.192 -2.646,1.396 -2.539,3.061 0.116,1.89 1.322,2.912 3.252,2.711 M 8.186,35.567 c -0.02,4.742 -2.109,6.638 -6.873,6.738 -4.633,0.094 -9.276,0.121 -13.915,0.005 -2.238,-0.059 -3.634,0.213 -4.482,2.83 -1.187,3.672 -4.623,3.135 -8.594,3.17 -4.147,0.029 -6.81,0.455 -8.054,-3.378 -0.79,-2.446 -2.071,-2.681 -4.15,-2.635 -4.909,0.102 -9.823,0.158 -14.733,0.027 -4.997,-0.126 -6.843,-2.096 -6.873,-7.127 -0.054,-8.462 -0.02,-16.925 -0.01,-25.384 0.005,-8.186 0.213,-16.381 -0.097,-24.558 -0.136,-3.541 1.304,-5.171 4.279,-6.41 6.074,-2.537 12.283,-4.486 18.792,-5.489 1.061,-0.162 2.975,-0.393 3.018,-0.765 0,0 -3.726,-0.51 -2.457,-1.921 1.27,-1.412 23.569,-1.27 25.686,0 2.116,1.269 -2.959,2.924 -2.959,2.924 6.32,1.243 12.422,3.068 18.287,5.756 2.088,0.952 3.207,2.216 3.198,4.64 C 8.195,1.182 8.287,18.374 8.186,35.567"
           style="fill:#ffffff;fill-opacity:1;fill-rule:nonzero;stroke:none"
           id="path162"
           inkscape:connector-curvature="0" />
      </g>
      <path
         d="m 521,423 h -2 v 5 h 2 z"
         style="fill:#fffefd;fill-opacity:1;fill-rule:nonzero;stroke:none"
         id="path164"
         inkscape:connector-curvature="0" />
      <g
         id="g166"
         transform="translate(523.7187,395.1348)">
        <path
           d="m 0,0 c -0.334,0 -0.67,0.01 -1.005,0.029 -3.417,0.207 -6.347,1.483 -7.835,3.413 -4.752,6.161 -2.968,27.07 -2.749,29.434 0.105,1.135 1.107,1.968 2.245,1.864 1.135,-0.105 1.969,-1.11 1.865,-2.245 C -8.247,24.188 -8.408,9.641 -5.572,5.963 -4.959,5.168 -3.232,4.299 -0.756,4.149 0.972,4.046 5.398,4.208 9.098,7.966 9.897,8.778 11.204,8.788 12.017,7.989 12.828,7.189 12.839,5.883 12.039,5.07 8.837,1.816 4.496,0 0,0"
           style="fill:#fffefd;fill-opacity:1;fill-rule:nonzero;stroke:none"
           id="path168"
           inkscape:connector-curvature="0" />
      </g>
    </g>
  </g>
  <path
     style="font-variant:normal;font-weight:bold;font-stretch:normal;font-size:12.85359192px;font-family:'Century Gothic';-inkscape-font-specification:CenturyGothic-Bold;writing-mode:lr-tb;fill:#ffffff;fill-opacity:1;fill-rule:nonzero;stroke:none;stroke-width:0.31350222"
     d="M 113.94141 41.414062 C 113.64015 41.414062 113.38331 41.520985 113.16992 41.734375 C 112.95653 41.947765 112.84961 42.204603 112.84961 42.505859 C 112.84961 42.819668 112.95653 43.088789 113.16992 43.310547 C 113.3875 43.528121 113.64768 43.636719 113.95312 43.636719 C 114.25021 43.636719 114.50536 43.529796 114.71875 43.316406 C 114.93214 43.098832 115.03906 42.83669 115.03906 42.53125 C 115.03906 42.221626 114.93046 41.957808 114.71289 41.740234 C 114.4995 41.522661 114.24266 41.414062 113.94141 41.414062 z M 132.5 41.708984 L 132.5 44.226562 L 131.62109 44.226562 L 131.62109 45.701172 L 132.5 45.701172 L 132.5 51.054688 L 134.20703 51.054688 L 134.20703 45.701172 L 135.22461 45.701172 L 135.22461 44.226562 L 134.20703 44.226562 L 134.20703 41.708984 L 132.5 41.708984 z M 67.693359 41.822266 L 67.693359 51.054688 L 69.474609 51.054688 L 69.474609 47.005859 L 72.5625 47.005859 L 72.5625 51.054688 L 74.339844 51.054688 L 74.339844 41.822266 L 72.5625 41.822266 L 72.5625 45.306641 L 69.474609 45.306641 L 69.474609 41.822266 L 67.693359 41.822266 z M 79.464844 44.050781 C 78.452289 44.050781 77.609189 44.395558 76.935547 45.085938 C 76.266089 45.772132 75.931641 46.63589 75.931641 47.677734 C 75.931641 48.694474 76.267764 49.542877 76.941406 50.220703 C 77.615048 50.894345 78.487461 51.230469 79.558594 51.230469 C 80.248972 51.230469 80.845563 51.109866 81.347656 50.867188 C 81.84975 50.620325 82.280791 50.24093 82.640625 49.730469 L 81.197266 49.052734 C 80.737013 49.500434 80.187044 49.724609 79.546875 49.724609 C 79.011309 49.724609 78.569938 49.581395 78.222656 49.296875 C 77.879559 49.008171 77.667389 48.622076 77.587891 48.136719 L 83.091797 48.136719 L 83.099609 47.810547 C 83.099609 46.680837 82.761533 45.772132 82.087891 45.085938 C 81.414249 44.395558 80.540161 44.050781 79.464844 44.050781 z M 87.044922 44.050781 C 86.731113 44.050781 86.443287 44.13872 86.179688 44.314453 C 85.916088 44.490186 85.703918 44.747024 85.544922 45.085938 L 85.544922 44.226562 L 84.076172 44.226562 L 84.076172 51.054688 L 85.777344 51.054688 L 85.777344 48.292969 L 85.771484 47.960938 C 85.771484 47.00696 85.861099 46.367376 86.041016 46.041016 C 86.225117 45.714655 86.449292 45.550781 86.712891 45.550781 C 86.842598 45.550781 87.006194 45.600753 87.207031 45.701172 L 87.742188 44.226562 C 87.499509 44.109407 87.26668 44.050781 87.044922 44.050781 z M 91.158203 44.050781 C 90.844395 44.050781 90.554615 44.13872 90.291016 44.314453 C 90.027417 44.490186 89.817199 44.747024 89.658203 45.085938 L 89.658203 44.226562 L 88.189453 44.226562 L 88.189453 51.054688 L 89.890625 51.054688 L 89.890625 48.292969 L 89.884766 47.960938 C 89.884766 47.00696 89.97438 46.367376 90.154297 46.041016 C 90.338398 45.714655 90.562573 45.550781 90.826172 45.550781 C 90.955879 45.550781 91.119475 45.600753 91.320312 45.701172 L 91.855469 44.226562 C 91.61279 44.109407 91.379961 44.050781 91.158203 44.050781 z M 95.597656 44.050781 C 94.70644 44.050781 93.949605 44.386905 93.326172 45.060547 C 92.702739 45.734189 92.390625 46.597948 92.390625 47.652344 C 92.390625 48.669083 92.713069 49.520837 93.357422 50.207031 C 94.001775 50.889041 94.765589 51.230469 95.648438 51.230469 C 96.041743 51.230469 96.405505 51.161513 96.740234 51.023438 C 97.079147 50.881177 97.415271 50.651977 97.75 50.333984 L 97.75 51.054688 L 99.457031 51.054688 L 99.457031 44.226562 L 97.75 44.226562 L 97.75 44.978516 C 97.44456 44.668891 97.111787 44.438015 96.751953 44.283203 C 96.392119 44.128391 96.007699 44.050781 95.597656 44.050781 z M 105.04102 44.050781 C 104.61842 44.050781 104.22702 44.130066 103.86719 44.289062 C 103.51154 44.448059 103.18742 44.689542 102.89453 45.011719 L 102.89453 44.226562 L 101.17578 44.226562 L 101.17578 51.054688 L 102.89453 51.054688 L 102.89453 48.017578 C 102.89453 47.360673 102.95148 46.879659 103.06445 46.574219 C 103.18161 46.268779 103.35581 46.032599 103.58594 45.865234 C 103.82025 45.693686 104.07876 45.607422 104.36328 45.607422 C 104.61851 45.607422 104.83571 45.674702 105.01562 45.808594 C 105.19554 45.942485 105.3301 46.147677 105.41797 46.423828 C 105.51002 46.695795 105.55664 47.137167 105.55664 47.748047 L 105.55664 51.054688 L 107.28125 51.054688 L 107.28125 47.972656 C 107.28125 47.319935 107.3382 46.847575 107.45117 46.554688 C 107.56414 46.257615 107.73472 46.024786 107.96484 45.857422 C 108.19915 45.690057 108.46297 45.607422 108.75586 45.607422 C 109.1408 45.607422 109.43058 45.745333 109.62305 46.021484 C 109.81552 46.293452 109.91211 46.815783 109.91211 47.589844 L 109.91211 51.054688 L 111.63672 51.054688 L 111.63672 47.050781 C 111.63672 46.230695 111.55576 45.639408 111.39258 45.275391 C 111.23358 44.911373 110.96976 44.614614 110.60156 44.388672 C 110.23336 44.16273 109.80762 44.050781 109.32227 44.050781 C 108.85365 44.050781 108.41898 44.156029 108.02148 44.365234 C 107.62818 44.57444 107.2954 44.879575 107.02344 45.28125 C 106.81423 44.879575 106.53841 44.57444 106.19531 44.365234 C 105.85222 44.156029 105.4678 44.050781 105.04102 44.050781 z M 119.56836 44.050781 C 118.5558 44.050781 117.7127 44.395558 117.03906 45.085938 C 116.3696 45.772132 116.03516 46.63589 116.03516 47.677734 C 116.03516 48.694474 116.37128 49.542877 117.04492 50.220703 C 117.71856 50.894345 118.59098 51.230469 119.66211 51.230469 C 120.35249 51.230469 120.94908 51.109866 121.45117 50.867188 C 121.95327 50.620325 122.38431 50.24093 122.74414 49.730469 L 121.30078 49.052734 C 120.84053 49.500434 120.29056 49.724609 119.65039 49.724609 C 119.11482 49.724609 118.67345 49.581395 118.32617 49.296875 C 117.98307 49.008171 117.7709 48.622076 117.69141 48.136719 L 123.19531 48.136719 L 123.20117 47.810547 C 123.20117 46.680837 122.86505 45.772132 122.19141 45.085938 C 121.51776 44.395558 120.64368 44.050781 119.56836 44.050781 z M 128.31445 44.050781 C 127.98391 44.050781 127.65979 44.116386 127.3418 44.246094 C 127.02799 44.371617 126.67818 44.597467 126.28906 44.923828 L 126.28906 44.226562 L 124.58203 44.226562 L 124.58203 51.054688 L 126.28906 51.054688 L 126.28906 48.3125 C 126.28906 47.601201 126.31307 47.139171 126.36328 46.925781 C 126.45952 46.515738 126.63204 46.19497 126.87891 45.964844 C 127.12995 45.730533 127.42811 45.613281 127.77539 45.613281 C 128.04317 45.613281 128.26735 45.683912 128.44727 45.826172 C 128.63137 45.964248 128.75895 46.167764 128.83008 46.435547 C 128.90539 46.70333 128.94336 47.244645 128.94336 48.060547 L 128.94336 51.054688 L 130.63672 51.054688 L 130.63672 46.542969 C 130.63672 45.756356 130.43851 45.16144 130.04102 44.759766 C 129.56821 44.286961 128.99228 44.050781 128.31445 44.050781 z M 139.04297 44.050781 C 138.15175 44.050781 137.39492 44.386905 136.77148 45.060547 C 136.14805 45.734189 135.83594 46.597948 135.83594 47.652344 C 135.83594 48.669083 136.15838 49.520837 136.80273 50.207031 C 137.44709 50.889041 138.2109 51.230469 139.09375 51.230469 C 139.48706 51.230469 139.85082 51.161513 140.18555 51.023438 C 140.52446 50.881177 140.86058 50.651977 141.19531 50.333984 L 141.19531 51.054688 L 142.90234 51.054688 L 142.90234 44.226562 L 141.19531 44.226562 L 141.19531 44.978516 C 140.88987 44.668891 140.5571 44.438015 140.19727 44.283203 C 139.83743 44.128391 139.45301 44.050781 139.04297 44.050781 z M 146.56641 44.050781 C 145.91787 44.050781 145.38325 44.243968 144.96484 44.628906 C 144.55062 45.00966 144.34375 45.468063 144.34375 46.007812 C 144.34375 46.844635 144.89539 47.543122 146 48.099609 L 146.57812 48.386719 C 147.07603 48.637765 147.32422 48.896557 147.32422 49.160156 C 147.32422 49.302416 147.25526 49.426369 147.11719 49.535156 C 146.97911 49.643943 146.79821 49.699219 146.57227 49.699219 C 146.36306 49.699219 146.12158 49.628588 145.84961 49.486328 C 145.58183 49.339884 145.34732 49.148373 145.14648 48.914062 L 144.09375 50.0625 C 144.68789 50.840745 145.4827 51.230469 146.47852 51.230469 C 147.22747 51.230469 147.82211 51.026953 148.26562 50.621094 C 148.71332 50.215235 148.9375 49.710212 148.9375 49.103516 C 148.9375 48.647447 148.81522 48.249069 148.56836 47.910156 C 148.3215 47.571243 147.86617 47.23847 147.20508 46.912109 L 146.57812 46.599609 C 146.30616 46.465718 146.13558 46.36047 146.06445 46.285156 C 145.99751 46.205658 145.96289 46.119394 145.96289 46.027344 C 145.96289 45.906005 146.01817 45.806062 146.12695 45.726562 C 146.23574 45.64288 146.38566 45.601563 146.57812 45.601562 C 146.92959 45.601562 147.32099 45.813455 147.75195 46.240234 L 148.8125 45.179688 C 148.54053 44.815669 148.20776 44.538172 147.81445 44.345703 C 147.42533 44.14905 147.00992 44.050781 146.56641 44.050781 z M 113.08203 44.226562 L 113.08203 51.054688 L 114.80078 51.054688 L 114.80078 44.226562 L 113.08203 44.226562 z M 79.546875 45.5 C 79.986207 45.5 80.370627 45.618927 80.701172 45.857422 C 81.035901 46.095916 81.260076 46.406355 81.373047 46.787109 L 77.664062 46.787109 C 77.856533 46.364514 78.065074 46.069708 78.291016 45.902344 C 78.650849 45.634561 79.069886 45.5 79.546875 45.5 z M 119.65039 45.5 C 120.08972 45.5 120.47414 45.618927 120.80469 45.857422 C 121.13942 46.095916 121.36359 46.406355 121.47656 46.787109 L 117.76758 46.787109 C 117.96005 46.364514 118.16859 46.069708 118.39453 45.902344 C 118.75436 45.634561 119.1734 45.5 119.65039 45.5 z M 95.949219 45.632812 C 96.493153 45.632812 96.943179 45.815392 97.298828 46.183594 C 97.654478 46.551796 97.832031 47.034762 97.832031 47.628906 C 97.832031 48.235602 97.654478 48.726946 97.298828 49.103516 C 96.943179 49.475902 96.494829 49.662109 95.955078 49.662109 C 95.432064 49.662109 94.990693 49.470598 94.630859 49.089844 C 94.27521 48.70909 94.097656 48.224725 94.097656 47.634766 C 94.097656 47.04899 94.273535 46.569652 94.625 46.197266 C 94.976465 45.820696 95.417837 45.632812 95.949219 45.632812 z M 139.39453 45.632812 C 139.93847 45.632812 140.38849 45.815392 140.74414 46.183594 C 141.09979 46.551796 141.27734 47.034762 141.27734 47.628906 C 141.27734 48.235602 141.09979 48.726946 140.74414 49.103516 C 140.38849 49.475902 139.94014 49.662109 139.40039 49.662109 C 138.87738 49.662109 138.43601 49.470598 138.07617 49.089844 C 137.72052 48.70909 137.54297 48.224725 137.54297 47.634766 C 137.54297 47.04899 137.71885 46.569652 138.07031 46.197266 C 138.42178 45.820696 138.86315 45.632812 139.39453 45.632812 z M 111.42773 53.736328 L 111.42773 55.46875 L 113.06641 55.46875 L 113.06641 62.96875 L 114.84961 62.96875 L 114.84961 55.46875 L 116.53125 55.46875 L 116.53125 53.736328 L 111.42773 53.736328 z M 98.660156 55.119141 L 98.660156 62.96875 L 100.08008 62.96875 L 100.08008 55.119141 L 98.660156 55.119141 z M 120.75586 55.962891 C 119.86464 55.962891 119.07682 56.27333 118.39062 56.892578 C 117.6082 57.603877 117.2168 58.493598 117.2168 59.560547 C 117.2168 60.556366 117.56157 61.402817 118.25195 62.101562 C 118.94652 62.796126 119.78264 63.144531 120.76172 63.144531 C 121.42699 63.144531 122.03559 62.987637 122.58789 62.673828 C 123.14019 62.355836 123.57654 61.91614 123.89453 61.355469 C 124.21671 60.794798 124.37695 60.191228 124.37695 59.546875 C 124.37695 58.906706 124.21838 58.310116 123.90039 57.757812 C 123.5824 57.20551 123.13935 56.769442 122.57031 56.447266 C 122.00546 56.125089 121.40021 55.962891 120.75586 55.962891 z M 129.62891 55.962891 C 129.20631 55.962891 128.81491 56.044129 128.45508 56.203125 C 128.09943 56.362121 127.77531 56.601652 127.48242 56.923828 L 127.48242 56.138672 L 125.76172 56.138672 L 125.76172 62.96875 L 127.48242 62.96875 L 127.48242 59.929688 C 127.48242 59.272782 127.53937 58.791768 127.65234 58.486328 C 127.7695 58.180888 127.94174 57.944708 128.17188 57.777344 C 128.40619 57.605795 128.66665 57.519531 128.95117 57.519531 C 129.2064 57.519531 129.4236 57.586812 129.60352 57.720703 C 129.78343 57.854595 129.91799 58.059785 130.00586 58.335938 C 130.09791 58.607905 130.14258 59.049276 130.14258 59.660156 L 130.14258 62.96875 L 131.86914 62.96875 L 131.86914 59.886719 C 131.86914 59.233997 131.92609 58.761638 132.03906 58.46875 C 132.15203 58.171678 132.32261 57.938849 132.55273 57.771484 C 132.78704 57.60412 133.05086 57.519531 133.34375 57.519531 C 133.72869 57.519531 134.01847 57.657442 134.21094 57.933594 C 134.40341 58.205561 134.5 58.729846 134.5 59.503906 L 134.5 62.96875 L 136.22461 62.96875 L 136.22461 58.962891 C 136.22461 58.142805 136.14365 57.551518 135.98047 57.1875 C 135.82147 56.823482 135.55765 56.528676 135.18945 56.302734 C 134.82125 56.076792 134.39356 55.962891 133.9082 55.962891 C 133.43958 55.962891 133.00687 56.068138 132.60938 56.277344 C 132.21607 56.486549 131.8833 56.791685 131.61133 57.193359 C 131.40212 56.791685 131.1263 56.486549 130.7832 56.277344 C 130.44011 56.068138 130.05569 55.962891 129.62891 55.962891 z M 140.75 55.962891 C 139.85878 55.962891 139.10195 56.300967 138.47852 56.974609 C 137.85508 57.648251 137.54297 58.51201 137.54297 59.566406 C 137.54297 60.583145 137.86541 61.434899 138.50977 62.121094 C 139.15412 62.803104 139.91793 63.144531 140.80078 63.144531 C 141.19409 63.144531 141.55785 63.073623 141.89258 62.935547 C 142.23149 62.793287 142.56957 62.564086 142.9043 62.246094 L 142.9043 62.96875 L 144.61133 62.96875 L 144.61133 56.138672 L 142.9043 56.138672 L 142.9043 56.892578 C 142.59886 56.582954 142.26608 56.350125 141.90625 56.195312 C 141.54642 56.040501 141.16004 55.962891 140.75 55.962891 z M 74.511719 57.160156 C 74.171683 57.160156 73.851133 57.223183 73.552734 57.351562 C 73.254336 57.479943 72.977465 57.672926 72.720703 57.929688 L 72.720703 57.304688 L 71.310547 57.304688 L 71.310547 65.039062 L 72.720703 65.039062 L 72.720703 62.369141 C 72.998283 62.632842 73.277544 62.823435 73.558594 62.941406 C 73.839644 63.055908 74.142593 63.113281 74.46875 63.113281 C 75.200868 63.113281 75.834799 62.831194 76.369141 62.265625 C 76.903482 61.696586 77.169922 60.989634 77.169922 60.146484 C 77.169922 59.272107 76.911524 58.556677 76.394531 57.998047 C 75.877538 57.439417 75.250776 57.160156 74.511719 57.160156 z M 80.744141 57.160156 C 80.005084 57.160156 79.378321 57.439417 78.861328 57.998047 C 78.344335 58.556677 78.083984 59.272107 78.083984 60.146484 C 78.083984 60.989634 78.352377 61.696586 78.886719 62.265625 C 79.42106 62.831194 80.054992 63.113281 80.787109 63.113281 C 81.113266 63.113281 81.413826 63.055908 81.691406 62.941406 C 81.972456 62.823435 82.251717 62.632842 82.529297 62.369141 L 82.529297 62.96875 L 83.945312 62.96875 L 83.945312 57.304688 L 82.529297 57.304688 L 82.529297 57.929688 C 82.276005 57.672925 82.001524 57.479943 81.703125 57.351562 C 81.404726 57.223183 81.084176 57.160156 80.744141 57.160156 z M 87.509766 57.160156 C 87.249534 57.160156 87.00961 57.233177 86.791016 57.378906 C 86.572421 57.524636 86.397476 57.736528 86.265625 58.017578 L 86.265625 57.304688 L 85.046875 57.304688 L 85.046875 62.96875 L 86.457031 62.96875 L 86.457031 60.677734 L 86.453125 60.402344 C 86.453125 59.61124 86.526582 59.079234 86.675781 58.808594 C 86.82845 58.537953 87.013828 58.404297 87.232422 58.404297 C 87.339984 58.404297 87.477983 58.44407 87.644531 58.527344 L 88.085938 57.304688 C 87.884692 57.207534 87.693662 57.160156 87.509766 57.160156 z M 91.189453 57.160156 C 90.450396 57.160156 89.823634 57.439417 89.306641 57.998047 C 88.789648 58.556677 88.53125 59.272107 88.53125 60.146484 C 88.53125 60.989634 88.79769 61.696586 89.332031 62.265625 C 89.866373 62.831194 90.500304 63.113281 91.232422 63.113281 C 91.558579 63.113281 91.859139 63.055908 92.136719 62.941406 C 92.417769 62.823435 92.698983 62.632842 92.976562 62.369141 L 92.976562 62.96875 L 94.390625 62.96875 L 94.390625 57.304688 L 92.976562 57.304688 L 92.976562 57.929688 C 92.723271 57.672925 92.446835 57.479943 92.148438 57.351562 C 91.850038 57.223183 91.529489 57.160156 91.189453 57.160156 z M 103.76758 57.160156 C 103.02852 57.160156 102.40176 57.439417 101.88477 57.998047 C 101.36777 58.556677 101.10938 59.272107 101.10938 60.146484 C 101.10936 60.989634 101.37581 61.696586 101.91016 62.265625 C 102.4445 62.831194 103.07843 63.113281 103.81055 63.113281 C 104.1367 63.113281 104.43726 63.055908 104.71484 62.941406 C 104.99589 62.823435 105.27515 62.632842 105.55273 62.369141 L 105.55273 62.96875 L 106.96875 62.96875 L 106.96875 57.304688 L 105.55273 57.304688 L 105.55273 57.929688 C 105.29944 57.672925 105.02496 57.479943 104.72656 57.351562 C 104.42816 57.223183 104.10761 57.160156 103.76758 57.160156 z M 141.10156 57.544922 C 141.6455 57.544922 142.09552 57.729454 142.45117 58.097656 C 142.80682 58.465858 142.98438 58.946872 142.98438 59.541016 C 142.98438 60.147712 142.80682 60.639055 142.45117 61.015625 C 142.09552 61.388011 141.64913 61.574219 141.10938 61.574219 C 140.58636 61.574219 140.14499 61.38466 139.78516 61.003906 C 139.42951 60.623152 139.25 60.136835 139.25 59.546875 C 139.25 58.961099 139.42588 58.481761 139.77734 58.109375 C 140.12881 57.732805 140.57018 57.544922 141.10156 57.544922 z M 120.78125 57.576172 C 121.32518 57.576172 121.76991 57.760704 122.11719 58.128906 C 122.46865 58.492924 122.64453 58.966959 122.64453 59.552734 C 122.64453 60.13851 122.46698 60.617848 122.11133 60.990234 C 121.75568 61.36262 121.31096 61.548828 120.77539 61.548828 C 120.23982 61.548828 119.79678 61.366249 119.44531 60.998047 C 119.09803 60.629845 118.92383 60.146878 118.92383 59.552734 C 118.92383 58.975327 119.09971 58.502967 119.45117 58.134766 C 119.80682 57.76238 120.24987 57.576172 120.78125 57.576172 z M 74.214844 58.470703 C 74.658972 58.470703 75.0269 58.627175 75.318359 58.939453 C 75.609819 59.248261 75.755859 59.645094 75.755859 60.130859 C 75.755859 60.620094 75.605039 61.022143 75.306641 61.337891 C 75.011712 61.653638 74.648563 61.8125 74.214844 61.8125 C 73.767246 61.8125 73.394538 61.658417 73.099609 61.349609 C 72.80468 61.037332 72.658203 60.630067 72.658203 60.126953 C 72.658203 59.634248 72.80468 59.235025 73.099609 58.929688 C 73.394538 58.624349 73.767246 58.470703 74.214844 58.470703 z M 81.035156 58.470703 C 81.486224 58.470703 81.859368 58.624348 82.154297 58.929688 C 82.449226 59.235025 82.597656 59.634248 82.597656 60.126953 C 82.597656 60.630067 82.449226 61.037332 82.154297 61.349609 C 81.859368 61.658417 81.488614 61.8125 81.041016 61.8125 C 80.607297 61.8125 80.241758 61.653638 79.943359 61.337891 C 79.64843 61.022143 79.5 60.620094 79.5 60.130859 C 79.5 59.645094 79.646041 59.248261 79.9375 58.939453 C 80.228959 58.627175 80.594498 58.470703 81.035156 58.470703 z M 91.482422 58.470703 C 91.93349 58.470703 92.306635 58.624348 92.601562 58.929688 C 92.896491 59.235025 93.042969 59.634248 93.042969 60.126953 C 93.042969 60.630067 92.896491 61.037332 92.601562 61.349609 C 92.306635 61.658417 91.933926 61.8125 91.486328 61.8125 C 91.052609 61.8125 90.687071 61.653638 90.388672 61.337891 C 90.093743 61.022143 89.947266 60.620094 89.947266 60.130859 C 89.947266 59.645094 90.091354 59.248261 90.382812 58.939453 C 90.674273 58.627175 91.041763 58.470703 91.482422 58.470703 z M 104.06055 58.470703 C 104.51161 58.470703 104.88281 58.624348 105.17773 58.929688 C 105.47266 59.235025 105.62109 59.634248 105.62109 60.126953 C 105.62109 60.630067 105.47266 61.037332 105.17773 61.349609 C 104.88281 61.658417 104.51205 61.8125 104.06445 61.8125 C 103.63073 61.8125 103.2652 61.653638 102.9668 61.337891 C 102.67187 61.022143 102.52344 60.620094 102.52344 60.130859 C 102.52344 59.645094 102.66948 59.248261 102.96094 58.939453 C 103.2524 58.627175 103.61989 58.470703 104.06055 58.470703 z M 110.20312 65.240234 C 109.90188 65.240234 109.64503 65.347157 109.43164 65.560547 C 109.21825 65.773937 109.11133 66.030775 109.11133 66.332031 C 109.11133 66.64584 109.21825 66.914961 109.43164 67.136719 C 109.64921 67.354293 109.9094 67.462891 110.21484 67.462891 C 110.51192 67.462891 110.76708 67.355968 110.98047 67.142578 C 111.19386 66.925004 111.30078 66.662862 111.30078 66.357422 C 111.30078 66.047798 111.19218 65.78398 110.97461 65.566406 C 110.76122 65.348832 110.50439 65.240234 110.20312 65.240234 z M 118.94336 65.240234 C 118.6421 65.240234 118.38526 65.347157 118.17188 65.560547 C 117.95848 65.773937 117.85156 66.030775 117.85156 66.332031 C 117.85156 66.64584 117.95848 66.914961 118.17188 67.136719 C 118.38944 67.354293 118.64964 67.462891 118.95508 67.462891 C 119.25215 67.462891 119.50731 67.355968 119.7207 67.142578 C 119.93409 66.925004 120.04102 66.662862 120.04102 66.357422 C 120.04102 66.047798 119.93242 65.78398 119.71484 65.566406 C 119.50145 65.348832 119.24462 65.240234 118.94336 65.240234 z M 84.275391 65.648438 L 84.275391 74.880859 L 86.390625 74.880859 C 87.587281 74.880859 88.428707 74.804925 88.914062 74.654297 C 89.399419 74.503669 89.849445 74.23315 90.263672 73.839844 C 90.682083 73.446537 91.007876 72.951566 91.242188 72.357422 C 91.480682 71.759094 91.599609 71.103877 91.599609 70.392578 C 91.599609 69.392575 91.389392 68.518487 90.966797 67.769531 C 90.544202 67.020575 90.006237 66.480935 89.353516 66.150391 C 88.700794 65.815662 87.702475 65.648437 86.359375 65.648438 L 84.275391 65.648438 z M 70.658203 67.033203 L 70.658203 69.84375 C 70.404911 69.586988 70.128477 69.394006 69.830078 69.265625 C 69.531679 69.137244 69.213083 69.072266 68.873047 69.072266 C 68.13399 69.072266 67.505274 69.351526 66.988281 69.910156 C 66.471288 70.468786 66.212891 71.186169 66.212891 72.060547 C 66.212891 72.903696 66.481283 73.608695 67.015625 74.177734 C 67.549967 74.743304 68.181945 75.027344 68.914062 75.027344 C 69.240219 75.027344 69.542732 74.969971 69.820312 74.855469 C 70.101362 74.737497 70.380623 74.546904 70.658203 74.283203 L 70.658203 74.880859 L 72.074219 74.880859 L 72.074219 67.033203 L 70.658203 67.033203 z M 86.027344 67.34375 L 86.623047 67.34375 C 87.7151 67.34375 88.508228 67.586909 89.001953 68.072266 C 89.550072 68.612016 89.824219 69.370527 89.824219 70.349609 C 89.824219 70.985594 89.708642 71.521884 89.478516 71.957031 C 89.248389 72.392179 88.951908 72.700665 88.587891 72.884766 C 88.228057 73.068867 87.645146 73.162109 86.841797 73.162109 L 86.027344 73.162109 L 86.027344 67.34375 z M 96.291016 67.876953 C 95.278461 67.876953 94.435361 68.221731 93.761719 68.912109 C 93.092261 69.598304 92.757812 70.462062 92.757812 71.503906 C 92.757812 72.520645 93.095889 73.369049 93.769531 74.046875 C 94.443173 74.720517 95.315586 75.056641 96.386719 75.056641 C 97.077097 75.056641 97.671735 74.936038 98.173828 74.693359 C 98.675922 74.446497 99.106963 74.067102 99.466797 73.556641 L 98.023438 72.878906 C 97.563185 73.326606 97.013216 73.550781 96.373047 73.550781 C 95.837481 73.550781 95.396109 73.407566 95.048828 73.123047 C 94.705731 72.834343 94.495514 72.448248 94.416016 71.962891 L 99.919922 71.962891 L 99.925781 71.636719 C 99.925781 70.507009 99.589658 69.598304 98.916016 68.912109 C 98.242374 68.221731 97.366332 67.876953 96.291016 67.876953 z M 104.83789 67.876953 C 104.10567 67.876953 103.44375 68.035523 102.84961 68.353516 C 102.25965 68.671508 101.79929 69.109529 101.46875 69.666016 C 101.13821 70.222503 100.97266 70.831097 100.97266 71.492188 C 100.97266 72.446164 101.31046 73.278935 101.98828 73.990234 C 102.67029 74.701533 103.61166 75.056641 104.8125 75.056641 C 106.14723 75.056641 107.18184 74.582606 107.91406 73.632812 L 106.56445 72.708984 C 106.13767 73.231998 105.54108 73.494141 104.77539 73.494141 C 104.15614 73.494141 103.65614 73.309608 103.27539 72.941406 C 102.89464 72.573204 102.70508 72.09917 102.70508 71.517578 C 102.70508 70.91925 102.90162 70.429582 103.29492 70.048828 C 103.69241 69.66389 104.21139 69.470703 104.85156 69.470703 C 105.20303 69.470703 105.50816 69.525979 105.76758 69.634766 C 106.03118 69.743553 106.29667 69.936461 106.56445 70.216797 L 107.98828 69.433594 C 107.64518 68.935684 107.20381 68.552939 106.66406 68.285156 C 106.12431 68.013189 105.51572 67.876953 104.83789 67.876953 z M 114.54883 67.876953 C 113.90029 67.876953 113.36763 68.07014 112.94922 68.455078 C 112.53499 68.835832 112.32813 69.294234 112.32812 69.833984 C 112.32812 70.670807 112.87976 71.369294 113.98438 71.925781 L 114.5625 72.212891 C 115.06041 72.463937 115.30859 72.722729 115.30859 72.986328 C 115.30859 73.128588 115.23964 73.252541 115.10156 73.361328 C 114.96349 73.470115 114.78063 73.525391 114.55469 73.525391 C 114.34548 73.525391 114.10595 73.45476 113.83398 73.3125 C 113.5662 73.166056 113.3317 72.974545 113.13086 72.740234 L 112.07617 73.888672 C 112.67032 74.666917 113.46512 75.056641 114.46094 75.056641 C 115.20989 75.056641 115.80648 74.853124 116.25 74.447266 C 116.6977 74.041407 116.92187 73.536383 116.92188 72.929688 C 116.92188 72.473619 116.79764 72.075241 116.55078 71.736328 C 116.30392 71.397415 115.85054 71.064642 115.18945 70.738281 L 114.5625 70.425781 C 114.29053 70.29189 114.11799 70.186642 114.04688 70.111328 C 113.97992 70.03183 113.94727 69.945566 113.94727 69.853516 C 113.94727 69.732176 114.00058 69.632233 114.10938 69.552734 C 114.21815 69.469052 114.37003 69.427734 114.5625 69.427734 C 114.91397 69.427734 115.3034 69.639627 115.73438 70.066406 L 116.79492 69.005859 C 116.52295 68.641842 116.19213 68.364344 115.79883 68.171875 C 115.40971 67.975222 114.99234 67.876953 114.54883 67.876953 z M 124.56445 67.876953 C 123.67324 67.876953 122.88346 68.185438 122.19727 68.804688 C 121.41484 69.515986 121.02344 70.405708 121.02344 71.472656 C 121.02344 72.468475 121.36822 73.316878 122.05859 74.015625 C 122.75316 74.710188 123.59123 75.056641 124.57031 75.056641 C 125.23559 75.056641 125.84418 74.899745 126.39648 74.585938 C 126.94879 74.267944 127.38318 73.828249 127.70117 73.267578 C 128.02335 72.706907 128.18555 72.10529 128.18555 71.460938 C 128.18555 70.820768 128.02502 70.224178 127.70703 69.671875 C 127.38904 69.119572 126.94599 68.681552 126.37695 68.359375 C 125.8121 68.037198 125.20881 67.876953 124.56445 67.876953 z M 133.31641 67.876953 C 132.98586 67.876953 132.66174 67.942558 132.34375 68.072266 C 132.02994 68.197789 131.67818 68.423639 131.28906 68.75 L 131.28906 68.052734 L 129.58203 68.052734 L 129.58203 74.880859 L 131.28906 74.880859 L 131.28906 72.138672 C 131.28906 71.427373 131.31503 70.965343 131.36523 70.751953 C 131.46147 70.34191 131.63204 70.021142 131.87891 69.791016 C 132.12995 69.556705 132.43006 69.439453 132.77734 69.439453 C 133.04513 69.439453 133.2693 69.510084 133.44922 69.652344 C 133.63332 69.790419 133.7609 69.993936 133.83203 70.261719 C 133.90735 70.529502 133.94531 71.070817 133.94531 71.886719 L 133.94531 74.880859 L 135.63867 74.880859 L 135.63867 70.369141 C 135.63867 69.582528 135.44046 68.987611 135.04297 68.585938 C 134.57016 68.113133 133.99423 67.876953 133.31641 67.876953 z M 140.50781 67.876953 C 139.49526 67.876953 138.65216 68.221731 137.97852 68.912109 C 137.30906 69.598304 136.97461 70.462062 136.97461 71.503906 C 136.97461 72.520645 137.31073 73.369049 137.98438 74.046875 C 138.65802 74.720517 139.53043 75.056641 140.60156 75.056641 C 141.29194 75.056641 141.88853 74.936038 142.39062 74.693359 C 142.89272 74.446497 143.32376 74.067102 143.68359 73.556641 L 142.24023 72.878906 C 141.77998 73.326606 141.23001 73.550781 140.58984 73.550781 C 140.05428 73.550781 139.61292 73.407566 139.26562 73.123047 C 138.92253 72.834343 138.71036 72.448248 138.63086 71.962891 L 144.13672 71.962891 L 144.14258 71.636719 C 144.14258 70.507009 143.8045 69.598304 143.13086 68.912109 C 142.45722 68.221731 141.58313 67.876953 140.50781 67.876953 z M 147.45508 67.876953 C 146.80654 67.876953 146.27193 68.07014 145.85352 68.455078 C 145.43929 68.835832 145.23242 69.294234 145.23242 69.833984 C 145.23242 70.670807 145.78407 71.369294 146.88867 71.925781 L 147.4668 72.212891 C 147.96471 72.463937 148.21289 72.722729 148.21289 72.986328 C 148.21289 73.128588 148.14394 73.252541 148.00586 73.361328 C 147.86778 73.470115 147.68688 73.525391 147.46094 73.525391 C 147.25173 73.525391 147.01025 73.45476 146.73828 73.3125 C 146.4705 73.166056 146.23599 72.974545 146.03516 72.740234 L 144.98047 73.888672 C 145.57461 74.666917 146.37137 75.056641 147.36719 75.056641 C 148.11614 75.056641 148.71078 74.853124 149.1543 74.447266 C 149.602 74.041407 149.82617 73.536383 149.82617 72.929688 C 149.82617 72.473619 149.70389 72.075241 149.45703 71.736328 C 149.21017 71.397415 148.75484 71.064642 148.09375 70.738281 L 147.4668 70.425781 C 147.19483 70.29189 147.0223 70.186642 146.95117 70.111328 C 146.88423 70.03183 146.85156 69.945566 146.85156 69.853516 C 146.85156 69.732176 146.90684 69.632233 147.01562 69.552734 C 147.12441 69.469052 147.27433 69.427734 147.4668 69.427734 C 147.81826 69.427734 148.20967 69.639627 148.64062 70.066406 L 149.70117 69.005859 C 149.4292 68.641842 149.09643 68.364344 148.70312 68.171875 C 148.314 67.975222 147.89859 67.876953 147.45508 67.876953 z M 109.34375 68.052734 L 109.34375 74.880859 L 111.0625 74.880859 L 111.0625 68.052734 L 109.34375 68.052734 z M 118.08398 68.052734 L 118.08398 74.880859 L 119.80273 74.880859 L 119.80273 68.052734 L 118.08398 68.052734 z M 76.173828 69.072266 C 75.334148 69.072266 74.634802 69.359132 74.076172 69.931641 C 73.521012 70.50068 73.244141 71.21611 73.244141 72.080078 C 73.244141 72.923228 73.523401 73.627353 74.082031 74.189453 C 74.640661 74.748083 75.363697 75.027344 76.251953 75.027344 C 76.824462 75.027344 77.318005 74.925855 77.734375 74.724609 C 78.150745 74.519894 78.508242 74.206513 78.806641 73.783203 L 77.609375 73.220703 C 77.227702 73.591967 76.773059 73.777344 76.242188 73.777344 C 75.798058 73.777344 75.430568 73.659771 75.142578 73.423828 C 74.858058 73.184415 74.683113 72.863428 74.617188 72.460938 L 79.181641 72.460938 L 79.1875 72.189453 C 79.1875 71.25262 78.908239 70.50068 78.349609 69.931641 C 77.790979 69.359132 77.065554 69.072266 76.173828 69.072266 z M 96.373047 69.326172 C 96.812379 69.326172 97.196799 69.445099 97.527344 69.683594 C 97.862073 69.922088 98.086248 70.232527 98.199219 70.613281 L 94.490234 70.613281 C 94.682704 70.190686 94.893199 69.89588 95.119141 69.728516 C 95.478974 69.460732 95.896058 69.326172 96.373047 69.326172 z M 140.58984 69.326172 C 141.02918 69.326172 141.4136 69.445099 141.74414 69.683594 C 142.07887 69.922088 142.30304 70.232527 142.41602 70.613281 L 138.70703 70.613281 C 138.8995 70.190686 139.10804 69.89588 139.33398 69.728516 C 139.69382 69.460732 140.11285 69.326172 140.58984 69.326172 z M 124.58789 69.490234 C 125.13183 69.490234 125.5785 69.674767 125.92578 70.042969 C 126.27725 70.406986 126.45313 70.881021 126.45312 71.466797 C 126.45312 72.052573 126.27557 72.531911 125.91992 72.904297 C 125.56427 73.276683 125.1176 73.462891 124.58203 73.462891 C 124.04646 73.462891 123.60342 73.278358 123.25195 72.910156 C 122.90467 72.541954 122.73047 72.060941 122.73047 71.466797 C 122.73047 70.889389 122.90635 70.41703 123.25781 70.048828 C 123.61346 69.676442 124.05651 69.490234 124.58789 69.490234 z M 76.242188 70.275391 C 76.60651 70.275391 76.925108 70.37449 77.199219 70.572266 C 77.476799 70.770041 77.662176 71.026049 77.755859 71.341797 L 74.679688 71.341797 C 74.839296 70.991352 75.013805 70.746212 75.201172 70.607422 C 75.499571 70.385358 75.846636 70.275391 76.242188 70.275391 z M 69.164062 70.384766 C 69.61513 70.384766 69.988274 70.536459 70.283203 70.841797 C 70.578132 71.147135 70.726562 71.546359 70.726562 72.039062 C 70.726562 72.542176 70.578132 72.949441 70.283203 73.261719 C 69.988274 73.570527 69.61752 73.724609 69.169922 73.724609 C 68.736203 73.724609 68.370664 73.567701 68.072266 73.251953 C 67.777337 72.936206 67.628906 72.534157 67.628906 72.044922 C 67.628906 71.559157 67.774947 71.162324 68.066406 70.853516 C 68.357865 70.541238 68.723405 70.384766 69.164062 70.384766 z "
     id="text1164" />
</svg>
