<?xml version="1.0" encoding="UTF-8" standalone="no"?>
<svg
   xmlns:dc="http://purl.org/dc/elements/1.1/"
   xmlns:cc="http://creativecommons.org/ns#"
   xmlns:rdf="http://www.w3.org/1999/02/22-rdf-syntax-ns#"
   xmlns:svg="http://www.w3.org/2000/svg"
   xmlns="http://www.w3.org/2000/svg"
   id="teta-cabecera"
   version="1.1"
   viewBox="0 0 195.45204 81.844093">
  <defs
     id="defs3554">
    <clipPath
       clipPathUnits="userSpaceOnUse"
       id="clipPath4175">
      <path
         d="M 0,560 H 960 V 0 H 0 Z"
         id="path4173" />
    </clipPath>
    <clipPath
       clipPathUnits="userSpaceOnUse"
       id="clipPath4213">
      <path
         d="M 0,560 H 960 V 0 H 0 Z"
         id="path4211" />
    </clipPath>
    <clipPath
       clipPathUnits="userSpaceOnUse"
       id="clipPath4313">
      <path
         d="M 0,560 H 960 V 0 H 0 Z"
         id="path4311" />
    </clipPath>
    <clipPath
       clipPathUnits="userSpaceOnUse"
       id="clipPath4175-3">
      <path
         d="M 0,560 H 960 V 0 H 0 Z"
         id="path4173-6" />
    </clipPath>
    <clipPath
       id="clipPath68"
       clipPathUnits="userSpaceOnUse">
      <path
         id="path66"
         d="M 0,773.477 H 988.99 V 0 H 0 Z" />
    </clipPath>
    <clipPath
       clipPathUnits="userSpaceOnUse"
       id="clipPath550">
      <path
         d="M 0,567.173 H 706.591 V 0 H 0 Z"
         id="path548" />
    </clipPath>
    <clipPath
       clipPathUnits="userSpaceOnUse"
       id="clipPath4175-7">
      <path
         d="M 0,560 H 960 V 0 H 0 Z"
         id="path4173-5" />
    </clipPath>
    <clipPath
       clipPathUnits="userSpaceOnUse"
       id="clipPath4213-3">
      <path
         d="M 0,560 H 960 V 0 H 0 Z"
         id="path4211-5" />
    </clipPath>
    <clipPath
       clipPathUnits="userSpaceOnUse"
       id="clipPath4313-6">
      <path
         d="M 0,560 H 960 V 0 H 0 Z"
         id="path4311-2" />
    </clipPath>
    <clipPath
       clipPathUnits="userSpaceOnUse"
       id="clipPath4175-3-9">
      <path
         d="M 0,560 H 960 V 0 H 0 Z"
         id="path4173-6-1" />
    </clipPath>
    <clipPath
       id="clipPath68-2"
       clipPathUnits="userSpaceOnUse">
      <path
         id="path66-7"
         d="M 0,773.477 H 988.99 V 0 H 0 Z" />
    </clipPath>
  </defs>
  <metadata
     id="metadata3557">
    <rdf:RDF>
      <cc:Work
         rdf:about="">
        <dc:format>image/svg+xml</dc:format>
        <dc:type
           rdf:resource="http://purl.org/dc/dcmitype/StillImage" />
        <dc:title></dc:title>
      </cc:Work>
    </rdf:RDF>
  </metadata>
  <g
     transform="translate(277.64269,-65.577954)"
     id="layer1">
    <g
       id="g3507"
       transform="matrix(0.35277777,0,0,-0.35277777,-812.5181,721.91655)">
      <path
         style="fill:#fcbdd4;fill-opacity:1;fill-rule:evenodd;stroke:none;stroke-width:0.99999994"
         d="m 1651.8178,1860.4874 c -7.448,-5.0913 -14.898,-10.1801 -22.2466,-15.4072 -23.8121,-16.939 -45.788,-35.8451 -64.3169,-58.5601 -6.414,-7.865 -12.5263,-15.9614 -17.7393,-24.6723 -4.302,-7.1901 -9.4599,-13.7072 -15.9639,-18.8672 -14.367,-11.395 -18.2313,-25.9872 -13.3813,-43.0152 1.748,-6.14 1.4284,-12.0063 0.6694,-17.9883 -2.313,-18.2071 -1.5966,-36.0242 1.8897,-53.4887 h 549.4907 v 231.999 z"
         id="path526" />
    </g>
    <g
       style="fill:#ffffff"
       id="g1674">
      <g
         style="fill:#ffffff"
         id="g628"
         transform="matrix(0.30836775,0,0,-0.30836775,-130.41046,104.08096)">
        <path
           d="M 0,0 C 23.094,0 41.823,18.732 41.823,41.826 41.823,64.932 23.094,83.663 0,83.663 -23.093,83.663 -41.826,64.932 -41.826,41.826 -41.826,18.732 -23.093,0 0,0"
           style="fill:#ffffff;fill-opacity:1;fill-rule:nonzero;stroke:none"
           id="path630" />
      </g>
      <g
         style="fill:#ffffff"
         id="g632"
         transform="matrix(0.30836775,0,0,-0.30836775,-128.43228,119.84157)">
        <path
           style="fill:#ffffff;fill-opacity:1;fill-rule:nonzero;stroke:none;stroke-width:0.30836776"
           d="M 147.22461 41.185547 C 143.39838 41.167696 139.34284 41.567957 135.63867 42.769531 C 123.78286 46.613644 123.76101 58.679928 123.91797 60.761719 C 124.08233 62.848443 123.87109 74.119141 123.87109 74.119141 L 133.23828 74.119141 L 133.23828 57.775391 L 135.08984 57.775391 L 135.08984 74.119141 L 150.07617 74.119141 C 150.07617 74.119141 144.56538 63.241799 149.21094 54.263672 C 153.85958 45.290787 162.94727 43.287109 162.94727 43.287109 C 162.94727 43.287109 155.64232 41.224818 147.22461 41.185547 z "
           transform="matrix(3.2428812,0,0,-3.2428812,-483.87164,175.97046)"
           id="path634" />
      </g>
      <g
         style="fill:#ffffff"
         id="g636"
         transform="matrix(0.30836775,0,0,-0.30836775,-112.75222,119.29394)">
        <path
           d="M 0,0 C 0.908,0.516 1.848,0.985 2.805,1.411 1.779,3.05 1.148,4.771 1.369,6.363 1.564,7.794 0.592,8.724 -0.256,9.247 -1.639,10.104 -3.025,10.091 -3.307,9.893 -4.354,9.169 -5.738,7.437 -5.639,6.073 -5.578,5.217 -4.863,4.439 -3.523,3.764 -1.834,2.916 -0.715,1.562 0,0"
           style="fill:#ffffff;fill-opacity:1;fill-rule:nonzero;stroke:none"
           id="path638" />
      </g>
      <g
         style="fill:#ffffff"
         id="g640"
         transform="matrix(0.30836775,0,0,-0.30836775,-104.82319,117.79336)">
        <path
           d="M 0,0 C 1.463,1.62 2.101,3.35 1.667,4.632 1.283,5.769 0.191,6.217 -0.683,6.384 L -0.791,6.431 C -1.794,6.735 -3.96,6.931 -4.712,6.375 -4.825,6.289 -5.355,6.037 -5.355,5.048 v -6.514 c 1,-0.795 2.352,-0.471 3.391,-0.795 C -1.544,-1.597 -0.762,-0.854 0,0"
           style="fill:#ffffff;fill-opacity:1;fill-rule:nonzero;stroke:none"
           id="path642" />
      </g>
      <g
         style="fill:#ffffff"
         id="g644"
         transform="matrix(0.30836775,0,0,-0.30836775,-118.55157,120.30939)">
        <path
           d="M 0,0 C 1.694,0 3.088,1.404 3.088,3.121 3.088,4.846 1.694,6.247 0,6.247 -1.707,6.247 -3.09,4.846 -3.09,3.121 -3.09,1.404 -1.707,0 0,0"
           style="fill:#ffffff;fill-opacity:1;fill-rule:nonzero;stroke:none"
           id="path646" />
      </g>
      <g
         style="fill:#ffffff"
         id="g648"
         transform="matrix(0.30836775,0,0,-0.30836775,-117.91195,131.36185)">
        <path
           d="m 0,0 c -2.228,-0.425 -3.92,-1.508 -4.433,-2.83 -0.287,-0.744 -0.146,-1.504 0.421,-2.258 l 0.07,-0.094 0.052,-0.103 c 0.369,-0.64 1.214,-1.624 1.884,-1.69 0.447,-0.05 0.949,0.417 1.291,0.82 L 4.23,-0.412 C 3.986,0.095 3.764,0.605 3.551,1.129 2.576,0.571 1.273,0.252 0,0"
           style="fill:#ffffff;fill-opacity:1;fill-rule:nonzero;stroke:none"
           id="path650" />
      </g>
      <g
         style="fill:#ffffff"
         id="g652"
         transform="matrix(0.30836775,0,0,-0.30836775,-111.74459,136.12077)">
        <path
           d="m 0,0 c -0.905,0.38 -1.788,0.8 -2.648,1.261 -0.805,-1.027 -1.766,-1.696 -2.889,-1.989 -1.496,-0.39 -1.776,-1.18 -1.847,-1.898 -0.208,-2.145 1.585,-4.878 2.328,-5.234 0.936,-0.43 3.355,-0.67 4.663,0.394 1.303,1.069 1.11,3.317 0.715,5.02 C 0.121,-1.588 0.02,-0.771 0,0"
           style="fill:#ffffff;fill-opacity:1;fill-rule:nonzero;stroke:none"
           id="path654" />
      </g>
      <g
         style="fill:#ffffff"
         id="g656"
         transform="matrix(0.30836775,0,0,-0.30836775,-119.69499,137.10911)">
        <path
           d="m 0,0 c -0.587,0 -1.073,-0.491 -1.073,-1.093 0,-0.603 0.486,-1.097 1.073,-1.097 0.597,0 1.081,0.494 1.081,1.097 C 1.081,-0.491 0.597,0 0,0"
           style="fill:#ffffff;fill-opacity:1;fill-rule:nonzero;stroke:none"
           id="path658" />
      </g>
      <g
         style="fill:#ffffff"
         id="g660"
         transform="matrix(0.30836775,0,0,-0.30836775,-106.92545,140.73771)">
        <path
           d="m 0,0 c -1.9,0 -3.446,-1.565 -3.446,-3.48 0,-1.918 1.546,-3.477 3.446,-3.477 1.896,0 3.443,1.559 3.443,3.477 C 3.443,-1.565 1.896,0 0,0"
           style="fill:#ffffff;fill-opacity:1;fill-rule:nonzero;stroke:none"
           id="path662" />
      </g>
      <g
         style="fill:#ffffff"
         id="g664"
         transform="matrix(0.30836775,0,0,-0.30836775,-98.516111,121.74901)">
        <path
           d="M 0,0 C 2.251,0.174 3.998,1.033 4.565,2.242 5.028,3.235 4.554,4.259 4.068,4.943 3.319,5.947 1.738,7.368 0.727,7.268 -0.01,7.198 -0.621,6.11 -0.922,5.467 -2.547,2.002 -4.788,0.183 -6.496,-0.755 -6.283,-1.053 -6.078,-1.349 -5.871,-1.658 -4.908,-0.912 -3.159,-0.244 0,0"
           style="fill:#ffffff;fill-opacity:1;fill-rule:nonzero;stroke:none"
           id="path666" />
      </g>
      <g
         style="fill:#ffffff"
         id="g668"
         transform="matrix(0.30836775,0,0,-0.30836775,-118.426,124.59056)">
        <path
           d="m 0,0 c -0.474,0.958 -1.226,1.387 -2.235,1.279 -1.162,-0.124 -2.539,-1.027 -2.911,-2.502 -0.32,-1.261 -0.16,-3.116 0.577,-3.765 0.68,-0.605 2.12,-0.175 2.914,0.135 1.89,0.74 3.574,0.859 5.023,0.606 0.058,0.303 0.108,0.61 0.168,0.914 C 2.132,-2.733 0.845,-1.704 0,0"
           style="fill:#ffffff;fill-opacity:1;fill-rule:nonzero;stroke:none"
           id="path670" />
      </g>
      <g
         style="fill:#ffffff"
         id="g672"
         transform="matrix(0.30836775,0,0,-0.30836775,-95.34387,123.7427)">
        <path
           d="m 0,0 c -1.082,0 -1.959,-0.889 -1.959,-1.978 0,-1.097 0.877,-1.99 1.959,-1.99 1.08,0 1.954,0.893 1.954,1.99 C 1.954,-0.889 1.08,0 0,0"
           style="fill:#ffffff;fill-opacity:1;fill-rule:nonzero;stroke:none"
           id="path674" />
      </g>
      <g
         style="fill:#ffffff"
         id="g676"
         transform="matrix(0.30836775,0,0,-0.30836775,-95.34387,126.02866)">
        <path
           d="m 0,0 c -2.98,0 -5.408,2.436 -5.408,5.435 0,2.988 2.428,5.427 5.408,5.427 2.978,0 5.402,-2.439 5.402,-5.427 C 5.402,2.436 2.978,0 0,0 M 0.9,-18.107 0.881,-18.386 0.764,-18.65 c -0.943,-2.26 -2.694,-3.702 -4.805,-3.954 -0.221,-0.028 -0.449,-0.04 -0.678,-0.04 -2.393,0 -4.908,1.495 -6.82,4.106 -0.783,1.061 -1.4,1.737 -1.861,2.17 -2.015,-4.807 -5.233,-8.993 -9.268,-12.176 0.505,-1.981 1.347,-3.71 2.704,-4.601 3.237,-2.13 3.829,-4.551 3.759,-6.209 -0.16,-3.321 -3.076,-6.1 -4.881,-7.068 -0.594,-0.316 -1.263,-0.453 -1.969,-0.453 -1.786,0 -3.766,0.886 -5.111,2.023 -2.115,1.791 -2.875,4.164 -2.074,6.516 0.586,1.74 0.285,3.568 -0.408,5.255 -3.365,-1.281 -7.016,-1.991 -10.827,-1.991 -2.814,0 -5.541,0.386 -8.121,1.101 0.022,-0.135 0.048,-0.279 0.082,-0.424 1.119,-4.809 -0.409,-7.257 -1.886,-8.464 -1.385,-1.132 -3.157,-1.539 -4.796,-1.539 -1.347,0 -2.611,0.277 -3.476,0.678 -2.202,1.01 -4.631,5.194 -4.33,8.636 0.224,2.515 1.781,4.276 4.414,4.955 0.276,0.076 0.549,0.246 0.79,0.484 -3.338,2.323 -6.19,5.289 -8.374,8.724 l -4.117,-4.778 c -1.393,-1.617 -2.798,-2.019 -3.842,-2.019 -0.143,0 -0.284,0.006 -0.418,0.019 -2.506,0.261 -4.107,2.722 -4.476,3.343 -1.227,1.694 -1.517,3.636 -0.809,5.472 0.949,2.454 3.56,4.312 7,4.977 1.082,0.204 1.736,0.409 2.119,0.558 0.012,0.354 0.139,0.704 0.379,0.999 0.104,0.12 0.214,0.229 0.341,0.317 -0.593,2.364 -0.91,4.844 -0.91,7.392 0,0.538 0.011,1.078 0.046,1.613 -0.925,0.197 -2.051,0.156 -3.398,-0.372 -3.382,-1.317 -5.372,-0.459 -6.452,0.49 -2.227,1.979 -2.037,5.574 -1.629,7.195 0.682,2.696 3.104,4.787 5.884,5.082 2.449,0.261 4.569,-0.926 5.686,-3.172 0.321,-0.644 0.793,-1.109 1.347,-1.436 2.005,6.153 5.915,11.447 11.036,15.185 -0.435,1.135 -1.114,2.07 -2.14,2.583 -3.116,1.568 -3.899,3.658 -4.012,5.14 -0.221,3.189 2.381,5.903 3.798,6.89 1.9,1.336 4.844,0.671 6.789,-0.511 2.389,-1.456 3.596,-3.816 3.264,-6.313 -0.117,-0.837 0.416,-1.998 1.32,-3.257 2.805,0.853 5.85,1.314 8.928,1.314 0.771,0 2.342,-0.032 2.342,-0.087 v 6.051 c 0,2.262 0.976,3.479 1.828,4.106 2.318,1.704 5.844,0.805 6.575,0.596 2.427,-0.497 4.189,-1.961 4.877,-4.027 0.842,-2.508 -0.033,-5.436 -2.368,-8.029 -0.434,-0.486 -0.763,-0.879 -1.007,-1.196 3.9,-1.729 7.354,-4.244 10.194,-7.353 1.133,0.498 3.186,1.793 4.669,4.959 1.357,2.883 3.166,3.641 4.437,3.766 3.356,0.335 6.144,-3.304 6.456,-3.72 l 0.019,-0.024 c 1.418,-1.994 1.707,-4.244 0.812,-6.172 -1.111,-2.363 -3.88,-3.945 -7.412,-4.214 -2.695,-0.207 -3.657,-0.693 -3.923,-0.862 -0.082,-0.211 -0.208,-0.392 -0.361,-0.544 2.075,-4.116 3.251,-8.762 3.251,-13.681 0,-1.637 -0.131,-3.244 -0.38,-4.813 0.539,-0.511 1.625,-0.97 3.829,-0.714 2.645,0.32 4.752,-0.256 6.274,-1.706 C 1.1,-14.18 0.921,-17.71 0.9,-18.107 m -38.458,-39.994 c -3.796,0 -6.891,3.104 -6.891,6.921 0,3.817 3.095,6.922 6.891,6.922 3.798,0 6.886,-3.105 6.886,-6.922 0,-3.817 -3.088,-6.921 -6.886,-6.921 m -41.41,16.537 c -2.493,0 -4.52,2.036 -4.52,4.539 0,2.503 2.027,4.538 4.52,4.538 2.493,0 4.519,-2.035 4.519,-4.538 0,-2.503 -2.026,-4.539 -4.519,-4.539 m 3.708,69.799 c 3.599,0 6.531,-2.941 6.531,-6.567 0,-3.617 -2.932,-6.567 -6.531,-6.567 -3.604,0 -6.54,2.95 -6.54,6.567 0,3.626 2.936,6.567 6.54,6.567 m 28.904,13.911 c 2.492,0 4.518,-2.034 4.518,-4.534 0,-2.505 -2.026,-4.541 -4.518,-4.541 -2.494,0 -4.52,2.036 -4.52,4.541 0,2.5 2.026,4.534 4.52,4.534 m 3.001,10.298 c -33.322,0 -60.345,-27.01 -60.345,-60.348 0,-33.313 27.023,-60.337 60.345,-60.337 33.324,0 60.336,27.024 60.336,60.337 0,33.338 -27.012,60.348 -60.336,60.348"
           style="fill:#ffffff;fill-opacity:1;fill-rule:nonzero;stroke:none"
           id="path678" />
      </g>
      <g
         style="fill:#ffffff"
         id="g680"
         transform="matrix(0.30836775,0,0,-0.30836775,-97.561497,130.21722)">
        <path
           d="m 0,0 c -1.844,-0.223 -3.429,-0.074 -4.719,0.437 0.899,-0.653 1.945,-1.712 3.148,-3.353 1.334,-1.813 2.991,-2.847 4.311,-2.685 0.968,0.118 1.563,0.872 1.916,1.581 C 4.639,-3.382 4.504,-1.741 3.477,-0.775 2.737,-0.076 1.566,0.185 0,0"
           style="fill:#ffffff;fill-opacity:1;fill-rule:nonzero;stroke:none"
           id="path682" />
      </g>
      <g
         style="fill:#ffffff"
         id="g684"
         transform="matrix(0.30836775,0,0,-0.30836775,-103.25002,135.47029)">
        <path
           d="m 0,0 c -0.619,-0.372 -1.247,-0.724 -1.883,-1.057 1,-2.376 1.457,-5.07 0.545,-7.76 -0.319,-0.954 0,-1.867 0.947,-2.712 1.28,-1.142 2.938,-1.42 3.321,-1.232 0.986,0.527 2.976,2.362 3.054,4.179 C 6.039,-7.469 5.3,-6.402 3.781,-5.405 2.082,-4.287 0.816,-2.473 0,0"
           style="fill:#ffffff;fill-opacity:1;fill-rule:nonzero;stroke:none"
           id="path686" />
      </g>
      <g
         style="fill:#ffffff"
         id="g688"
         transform="matrix(0.30836775,0,0,-0.30836775,-109.63872,114.76901)">
        <path
           d="M 0,0 C 0.597,0 1.076,0.492 1.076,1.099 1.076,1.7 0.597,2.191 0,2.191 -0.595,2.191 -1.069,1.7 -1.069,1.099 -1.069,0.492 -0.595,0 0,0"
           style="fill:#ffffff;fill-opacity:1;fill-rule:nonzero;stroke:none"
           id="path690" />
      </g>
      <g
         style="fill:#ffffff"
         id="g692"
         transform="matrix(0.30836775,0,0,-0.30836775,-103.38493,126.17005)">
        <path
           d="m 0,0 c -1.166,-1.326 -2.611,-2.049 -3.871,-2.049 -0.658,0 -1.262,0.193 -1.752,0.611 -0.732,0.615 -0.826,1.702 -0.213,2.426 0.523,0.621 1.385,0.778 2.084,0.436 0.436,0.146 1.421,0.819 1.791,1.897 C -1.58,4.411 -2.012,5.53 -3.232,6.649 -4.265,7.597 -5.804,8.572 -7.253,7.836 -8.41,7.25 -9.072,5.831 -8.967,4.87 -8.866,3.926 -9.546,3.076 -10.49,2.971 c -0.945,-0.105 -1.797,0.579 -1.903,1.52 -0.277,2.486 1.269,5.245 3.582,6.421 1.174,0.59 4.276,1.604 7.911,-1.72 C 2.767,5.817 1.879,2.135 0,0 m -17.973,-13.079 c -0.589,-0.745 -1.676,-0.871 -2.423,-0.278 -0.58,0.461 -0.784,1.223 -0.561,1.888 -0.174,0.315 -0.662,0.85 -1.293,1.009 -0.654,0.161 -1.334,-0.165 -2.028,-0.965 -0.628,-0.727 -1.269,-1.783 -0.778,-2.688 0.391,-0.726 1.329,-1.135 1.927,-1.053 0.947,0.127 1.811,-0.528 1.949,-1.471 0.131,-0.94 -0.529,-1.811 -1.473,-1.942 -0.208,-0.026 -0.427,-0.041 -0.645,-0.041 -1.905,0 -3.843,1.129 -4.784,2.863 -0.522,0.957 -1.451,3.522 1.195,6.583 2.532,2.924 5.653,2.584 7.617,0.953 1.772,-1.467 2.329,-3.559 1.297,-4.858 m 12.055,34.114 c -0.187,-0.071 -2.613,0.891 -2.826,0.891 -0.383,0 -3.36,0.292 -3.644,0.503 -0.994,0.107 -1.998,0.27 -3.01,0.27 -2.193,0 -4.322,-0.213 -6.358,-0.707 1.268,-1.282 2.657,-2.467 3.858,-3.373 0.761,-0.576 0.912,-1.642 0.334,-2.4 -0.575,-0.759 -1.657,-0.904 -2.415,-0.334 -0.82,0.629 -3.282,2.566 -5.433,4.986 -1.389,-0.558 -2.721,-1.22 -3.983,-1.992 0.612,-4.108 -0.344,-8.284 -0.417,-8.581 -0.18,-0.791 -0.893,-1.326 -1.67,-1.326 -0.134,0 -0.269,0.018 -0.403,0.046 -0.922,0.22 -1.498,1.148 -1.276,2.074 0.278,1.194 0.595,3.317 0.524,5.471 -3.787,-3.152 -6.702,-7.322 -8.329,-12.089 1.496,0.017 2.739,0.333 2.763,0.346 0.918,0.252 1.865,-0.284 2.117,-1.203 0.255,-0.917 -0.277,-1.865 -1.199,-2.117 -0.166,-0.048 -2.206,-0.591 -4.588,-0.45 -0.102,-0.503 -0.184,-1.013 -0.258,-1.529 1.27,-0.879 2.151,-1.989 2.635,-2.887 0.445,-0.84 0.125,-1.872 -0.717,-2.317 -0.258,-0.14 -0.535,-0.186 -0.807,-0.186 -0.512,0 -1.008,0.274 -1.341,0.684 0.338,-8.541 4.666,-16 11.162,-20.707 0.5,1.804 0.759,5.705 0.77,7.384 0.013,0.946 0.783,3.64 1.726,3.64 h 0.015 c 0.959,0 1.72,-2.72 1.709,-3.675 0,-0.107 -0.036,-3.77 -0.622,-6.486 -0.167,-0.76 -0.358,-1.866 -0.579,-2.509 0.504,-0.272 1.025,-0.734 1.55,-0.973 1.1,3.585 3.707,5.506 3.866,5.622 0.758,0.574 1.841,0.371 2.41,-0.388 0.575,-0.757 0.422,-1.856 -0.33,-2.432 -0.119,-0.093 -2.002,-1.606 -2.706,-4.234 2.529,-0.787 5.208,-1.222 7.992,-1.222 3.195,0 6.271,0.561 9.125,1.585 -1.526,2.178 -3.211,3.693 -3.25,3.724 -0.707,0.632 -0.776,1.724 -0.145,2.435 0.631,0.713 1.719,0.777 2.43,0.148 0.181,-0.161 2.328,-2.085 4.166,-4.91 0.931,0.476 1.828,1.011 2.693,1.589 -0.074,0.487 -0.142,0.99 -0.187,1.511 -0.334,3.629 0.021,6.761 0.039,6.896 0.117,0.942 0.964,1.621 1.903,1.51 0.947,-0.107 1.625,-0.966 1.515,-1.91 -0.134,-1.217 -0.239,-3.289 -0.082,-5.499 3.041,2.791 5.444,6.264 6.966,10.177 -0.156,0.641 0.079,1.33 0.608,1.75 0.254,0.82 0.472,1.659 0.65,2.517 -0.281,0.688 -0.33,1.225 -0.336,1.331 l 0.576,0.037 c 0.204,1.337 0.312,1.868 0.312,3.259 0,10.966 -8.085,21.833 -17.503,26.05"
           style="fill:#ffffff;fill-opacity:1;fill-rule:nonzero;stroke:none"
           id="path694" />
      </g>
      <path
         style="fill:#ffffff;fill-opacity:1;fill-rule:nonzero;stroke:none;stroke-width:0.26154587"
         d="m -250.16919,107.62747 c -1.1657,0 -2.25361,0.28331 -3.26343,0.84983 -1.01036,0.56623 -1.78721,1.31519 -2.32914,2.24629 -0.54218,0.93163 -0.81337,1.99599 -0.81337,3.19386 0,1.85174 0.596,3.36937 1.78578,4.55391 1.19029,1.18453 2.71907,1.77583 4.58703,1.77583 1.01349,0 1.91391,-0.16689 2.70352,-0.50194 0.78987,-0.33503 1.62863,-0.9361 2.51632,-1.80233 l -1.55054,-1.61681 c -0.65858,0.65412 -1.26278,1.1038 -1.81229,1.35175 -0.55003,0.24821 -1.15702,0.37272 -1.82056,0.37272 -0.77863,0 -1.48572,-0.17735 -2.12207,-0.53175 -0.6366,-0.3544 -1.12927,-0.84132 -1.47766,-1.46275 -0.34838,-0.6217 -0.52182,-1.3342 -0.52182,-2.13531 0,-1.15028 0.39327,-2.11715 1.17948,-2.90231 0.78622,-0.78489 1.75386,-1.17782 2.90231,-1.17782 1.36003,0 2.58431,0.57613 3.67261,1.72615 l 1.59859,-1.5257 c -0.66433,-0.77183 -1.45471,-1.36704 -2.37222,-1.78578 -0.91801,-0.41874 -1.87128,-0.62784 -2.86254,-0.62784 z m 11.16692,3.20214 c -1.1597,0 -2.18664,0.40321 -3.07956,1.2093 -1.01872,0.92587 -1.52736,2.08195 -1.52736,3.47051 0,1.29621 0.45048,2.39807 1.35177,3.30485 0.90102,0.90704 1.98892,1.36003 3.26343,1.36003 0.86572,0 1.65818,-0.20509 2.37718,-0.61623 0.71898,-0.41142 1.28605,-0.98127 1.70295,-1.71124 0.41638,-0.72971 0.62452,-1.51381 0.62452,-2.35233 0,-0.83328 -0.20605,-1.6104 -0.61956,-2.32913 -0.41403,-0.71898 -0.99111,-1.28866 -1.72945,-1.70792 -0.73782,-0.41926 -1.52541,-0.62784 -2.36392,-0.62784 z m 11.40048,0 c -0.42945,0 -0.85001,0.0835 -1.26063,0.25014 -0.41038,0.16687 -0.86913,0.46352 -1.37496,0.88958 v -0.91111 h -2.22974 v 8.88747 h 2.22974 v -3.56492 c 0,-0.92482 0.0323,-1.52651 0.0977,-1.804 0.12476,-0.53277 0.34904,-0.95054 0.67257,-1.25237 0.32328,-0.30208 0.71035,-0.45224 1.16126,-0.45224 0.34786,0 0.63962,0.0911 0.87632,0.27334 0.23644,0.18229 0.40203,0.44677 0.49697,0.79515 0.095,0.34837 0.14246,1.05321 0.14246,2.11377 v 3.89127 h 2.20655 v -5.87418 c 0,-1.02395 -0.25924,-1.79662 -0.77527,-2.31918 -0.61516,-0.61542 -1.36158,-0.92272 -2.243,-0.92272 z m 9.34802,0 c -1.1597,0 -2.18498,0.40321 -3.0779,1.2093 -1.01873,0.92587 -1.52901,2.08195 -1.52901,3.47051 0,1.29621 0.45187,2.39807 1.35341,3.30485 0.90103,0.90704 1.98918,1.36003 3.26344,1.36003 0.86571,0 1.65653,-0.20509 2.37551,-0.61623 0.71899,-0.41142 1.2877,-0.98127 1.7046,-1.71124 0.41639,-0.72971 0.62453,-1.51381 0.62453,-2.35233 0,-0.83328 -0.20771,-1.6104 -0.62122,-2.32913 -0.41401,-0.71898 -0.98945,-1.28866 -1.72778,-1.70792 -0.73809,-0.41926 -1.52681,-0.62784 -2.36558,-0.62784 z m 18.83018,0 c -0.95333,0 -1.81346,0.20719 -2.58424,0.62122 -0.77104,0.41377 -1.37236,0.98204 -1.80234,1.70626 -0.4305,0.72422 -0.6444,1.51669 -0.6444,2.37718 0,1.24155 0.44185,2.32596 1.32691,3.25183 0.88506,0.92588 2.10847,1.3882 3.67095,1.3882 1.7377,0 3.08398,-0.61894 4.03705,-1.85866 l -1.75927,-1.20432 c -0.55632,0.68106 -1.33272,1.02043 -2.3308,1.02043 -0.80713,0 -1.45885,-0.23892 -1.95473,-0.71729 -0.49617,-0.47862 -0.7438,-1.09617 -0.7438,-1.85204 0,-0.77757 0.25646,-1.41421 0.77197,-1.91167 0.51523,-0.49747 1.18998,-0.74711 2.02432,-0.74711 0.45796,0 0.85855,0.0719 1.19935,0.21369 0.34079,0.1415 0.68479,0.39385 1.0337,0.75871 l 1.85701,-1.02044 c -0.44672,-0.64811 -1.02171,-1.14794 -1.72449,-1.4992 -0.70251,-0.35152 -1.49498,-0.52679 -2.37719,-0.52679 z m 9.87314,0 c -1.1589,0 -2.14478,0.43887 -2.95531,1.31531 -0.81053,0.87723 -1.21592,2.00071 -1.21592,3.37278 0,1.32342 0.41987,2.43112 1.25733,3.32141 0.83774,0.89056 1.83059,1.33519 2.97851,1.33519 0.51133,0 0.98517,-0.0907 1.42299,-0.27333 0.43809,-0.1823 0.87487,-0.48078 1.31035,-0.89454 v 0.93926 h 2.22974 v -8.88747 h -2.22974 v 0.98069 c -0.39756,-0.40304 -0.82919,-0.70589 -1.2971,-0.9078 -0.46791,-0.20113 -0.96782,-0.3015 -1.50085,-0.3015 z m 14.48006,0 c -0.84402,0 -1.53707,0.24887 -2.07899,0.74711 -0.54193,0.49852 -0.81338,1.09818 -0.81338,1.8007 0,1.08933 0.71887,1.99586 2.15685,2.72008 l 0.75208,0.37603 c 0.64812,0.32667 0.97075,0.66239 0.97075,1.00554 0,0.18518 -0.0887,0.34886 -0.26836,0.49034 -0.17969,0.14176 -0.41643,0.21205 -0.71067,0.21205 -0.27227,0 -0.58444,-0.0938 -0.93596,-0.28163 -0.35099,-0.18804 -0.65785,-0.43526 -0.91938,-0.74047 l -1.37165,1.49588 c 0.77338,1.01296 1.80845,1.51906 3.10441,1.51906 0.97477,0 1.75259,-0.26351 2.33244,-0.79183 0.58011,-0.52807 0.8697,-1.18808 0.8697,-1.97794 0,-0.59346 -0.16063,-1.10958 -0.48206,-1.55054 -0.32118,-0.44124 -0.91203,-0.87566 -1.77253,-1.30041 l -0.81668,-0.40752 c -0.35413,-0.17445 -0.57624,-0.31179 -0.66595,-0.41248 -0.09,-0.10067 -0.13583,-0.21153 -0.13583,-0.33132 0,-0.15797 0.0719,-0.28973 0.2137,-0.39592 0.14176,-0.10623 0.33752,-0.15903 0.58808,-0.15903 0.45743,0 0.96634,0.27747 1.52735,0.83325 l 1.37992,-1.38158 c -0.35414,-0.47392 -0.78455,-0.83683 -1.29378,-1.09001 -0.50923,-0.25344 -1.05258,-0.37936 -1.63006,-0.37936 z m -37.02261,0.22861 v 1.88683 h 3.39927 l -4.01221,7.00064 h 7.18951 v -1.88683 h -3.76537 l 3.99398,-7.00064 z m 41.85814,0 v 3.70077 c 0,1.4215 0.0875,2.40136 0.26173,2.9404 0.24534,0.77889 0.66877,1.38676 1.27059,1.82223 0.60181,0.43574 1.38914,0.65268 2.36393,0.65268 0.89892,0 1.64038,-0.1853 2.22311,-0.55826 0.58272,-0.37323 1.02386,-0.90958 1.3236,-1.60687 0.24531,-0.57173 0.36609,-1.6333 0.36609,-3.18558 v -3.76537 h -2.22974 v 4.35345 c 0,0.83878 -0.0463,1.38727 -0.13916,1.64332 -0.1258,0.34315 -0.31703,0.60178 -0.57647,0.77859 -0.25946,0.17706 -0.57504,0.26671 -0.9459,0.26671 -0.3714,0 -0.68418,-0.0904 -0.93762,-0.27002 -0.25396,-0.17969 -0.43874,-0.43135 -0.5533,-0.7554 -0.11486,-0.32405 -0.17227,-0.9028 -0.17227,-1.73609 v -4.28056 z m -18.86167,1.82885 c 0.70564,0 1.28821,0.23979 1.74932,0.71895 0.46137,0.47915 0.69245,1.10708 0.69245,1.8802 0,0.78961 -0.23107,1.42773 -0.69245,1.915 -0.46111,0.48752 -1.04228,0.73053 -1.7427,0.73053 -0.67845,0 -1.24865,-0.2465 -1.71289,-0.74214 -0.46451,-0.49563 -0.69575,-1.12747 -0.69575,-1.89511 0,-0.76241 0.22801,-1.38744 0.68416,-1.87523 0.45614,-0.48726 1.02869,-0.7322 1.71786,-0.7322 z m -49.8693,0.0414 c 0.70932,0 1.29181,0.2391 1.74768,0.71563 0.45509,0.47681 0.68252,1.09626 0.68252,1.85867 0,0.76268 -0.23231,1.38589 -0.69577,1.87027 -0.46398,0.48491 -1.04437,0.72723 -1.7427,0.72723 -0.69859,0 -1.2755,-0.23954 -1.73111,-0.71895 -0.45561,-0.47915 -0.6825,-1.10516 -0.6825,-1.87855 0,-0.75168 0.22941,-1.37001 0.69077,-1.85204 0.46085,-0.48177 1.03855,-0.72226 1.73111,-0.72226 z m 20.75015,0 c 0.70932,0 1.2918,0.2391 1.74768,0.71563 0.45535,0.47681 0.68251,1.09626 0.68251,1.85867 0,0.76268 -0.2323,1.38589 -0.69575,1.87027 -0.46373,0.48491 -1.04438,0.72723 -1.74271,0.72723 -0.69859,0 -1.27549,-0.23954 -1.7311,-0.71895 -0.45537,-0.47915 -0.68253,-1.10516 -0.68253,-1.87855 0,-0.75168 0.22969,-1.37001 0.6908,-1.85204 0.4611,-0.48177 1.03853,-0.72226 1.7311,-0.72226 z m -20.38571,9.97584 c -0.64286,0 -1.14104,0.14292 -1.49255,0.42905 -0.35075,0.28588 -0.55636,0.67444 -0.61625,1.16457 -0.0326,0.21237 -0.0509,0.90029 -0.0563,2.06574 h -0.79349 v 1.88683 h 0.79349 v 7.00231 h 2.22974 v -7.00231 h 1.41304 v -1.88683 h -1.41304 l 0.008,-1.1099 c 0,-0.25579 0.044,-0.4253 0.13086,-0.50691 0.12006,-0.10883 0.30997,-0.164 0.57151,-0.164 0.20688,0 0.4718,0.0466 0.7935,0.13916 v -1.69964 c -0.58325,-0.21212 -1.10583,-0.31807 -1.56876,-0.31807 z m 51.84061,0.22861 v 4.41144 c -0.3973,-0.4033 -0.82919,-0.7045 -1.2971,-0.90615 -0.46737,-0.20113 -0.96807,-0.30315 -1.50085,-0.30315 -1.1589,0 -2.14313,0.43888 -2.95365,1.31532 -0.81079,0.87696 -1.21593,2.00209 -1.21593,3.37442 0,1.32342 0.41795,2.42946 1.25568,3.31977 0.83748,0.8903 1.83059,1.33685 2.97851,1.33685 0.51133,0 0.98656,-0.0924 1.42466,-0.27499 0.43781,-0.1823 0.87347,-0.48052 1.30869,-0.89455 v 0.94093 h 2.22973 v -12.31988 z m 22.09031,0 v 4.41144 c -0.39755,-0.4033 -0.83083,-0.7045 -1.29874,-0.90615 -0.4679,-0.20113 -0.96782,-0.30315 -1.50086,-0.30315 -1.15865,0 -2.14312,0.43888 -2.95366,1.31532 -0.81052,0.87696 -1.21591,2.00209 -1.21591,3.37442 0,1.32342 0.41794,2.42946 1.25567,3.31977 0.83773,0.8903 1.83085,1.33685 2.97851,1.33685 0.51158,0 0.98681,-0.0924 1.42464,-0.27499 0.4381,-0.1823 0.87488,-0.48052 1.31034,-0.89455 v 0.94093 h 2.22975 v -12.31988 z m -94.3133,0.30315 v 12.01674 h 6.56 v -2.24796 h -4.28884 v -3.16074 h 4.28884 v -2.1966 h -4.28884 v -2.17341 h 4.28884 v -2.23803 z m 13.31217,2.89899 c -0.42972,0 -0.85002,0.0833 -1.26065,0.25015 -0.41036,0.1666 -0.86912,0.46325 -1.37495,0.88957 v -0.91111 h -2.22974 v 8.88914 h 2.22974 v -3.56658 c 0,-0.92457 0.0324,-1.52511 0.0977,-1.80235 0.12475,-0.53303 0.34903,-0.9522 0.67257,-1.25402 0.32326,-0.30209 0.71034,-0.45225 1.16124,-0.45225 0.34786,0 0.63989,0.0913 0.87632,0.27333 0.23643,0.1823 0.40204,0.44703 0.49698,0.79516 0.095,0.34838 0.14246,1.0532 0.14246,2.11378 v 3.89293 h 2.20654 v -5.87419 c 0,-1.02368 -0.25923,-1.79801 -0.77527,-2.32085 -0.61516,-0.61542 -1.36185,-0.9227 -2.24298,-0.9227 z m 14.03774,0 c -1.31792,0 -2.41445,0.44768 -3.28828,1.34347 -0.87409,0.89581 -1.31036,2.02303 -1.31036,3.3794 0,1.32317 0.43836,2.42388 1.31533,3.3032 0.87721,0.87984 2.01186,1.32029 3.4059,1.32029 0.89867,0 1.67527,-0.16019 2.32913,-0.47876 0.65333,-0.31882 1.21298,-0.80975 1.68142,-1.47434 l -1.87855,-0.88294 c -0.5992,0.58298 -1.31553,0.87466 -2.14856,0.87466 -0.69729,0 -1.27019,-0.1867 -1.71952,-0.55992 -0.44934,-0.37297 -0.72497,-0.87558 -0.82828,-1.50748 h 7.16299 l 0.008,-0.42409 c 0,-1.4704 -0.43835,-2.65421 -1.31531,-3.55002 -0.87671,-0.89579 -2.01465,-1.34347 -3.41419,-1.34347 z m 9.86818,0 c -0.40802,0 -0.78333,0.11427 -1.12648,0.34291 -0.34341,0.22886 -0.61809,0.56431 -0.82497,1.00553 v -1.11983 h -1.91169 v 8.88914 h 2.21319 v -3.59475 l -0.008,-0.43402 c 0,-1.24183 0.1192,-2.07501 0.35616,-2.49976 0.23644,-0.42475 0.52681,-0.63612 0.86969,-0.63612 0.16896,0 0.38286,0.0647 0.64441,0.19547 l 0.6941,-1.91996 c -0.31568,-0.15248 -0.61739,-0.2286 -0.90614,-0.2286 z m 7.01886,0 c -0.55081,0 -1.0577,0.10457 -1.52404,0.31143 -0.46608,0.20716 -0.88925,0.52002 -1.27059,0.93928 v -1.0221 h -2.2314 v 8.88914 h 2.2314 v -3.95422 c 0,-0.85527 0.0749,-1.481 0.22529,-1.87855 0.1496,-0.39755 0.37633,-0.70694 0.6792,-0.92768 0.30314,-0.22049 0.63938,-0.33131 1.0105,-0.33131 0.33296,0 0.61662,0.0875 0.85149,0.26174 0.2346,0.17444 0.41101,0.44005 0.52843,0.7968 0.11746,0.35649 0.17561,0.93296 0.17561,1.72781 v 4.30541 h 2.24796 v -4.01221 c 0,-0.84976 0.0733,-1.46616 0.22031,-1.85038 0.14699,-0.38395 0.37163,-0.68497 0.67424,-0.90283 0.30208,-0.21761 0.64268,-0.32634 1.02374,-0.32634 0.50113,0 0.87783,0.17858 1.12813,0.53507 0.25082,0.35674 0.37605,1.03978 0.37605,2.04751 v 4.50918 h 2.2463 v -5.21321 c 0,-1.06737 -0.1047,-1.837 -0.31476,-2.31092 -0.20949,-0.47366 -0.55402,-0.85899 -1.03369,-1.15296 -0.47968,-0.29398 -1.03601,-0.44065 -1.66817,-0.44065 -0.61044,0 -1.17253,0.1369 -1.68805,0.40917 -0.51471,0.27253 -0.94983,0.67016 -1.30371,1.19272 -0.27278,-0.52256 -0.63197,-0.92019 -1.07842,-1.19272 -0.44725,-0.27227 -0.95004,-0.40917 -1.50582,-0.40917 z m 14.89916,0 c -1.31794,0 -2.41473,0.44768 -3.28829,1.34347 -0.87434,0.89581 -1.31033,2.02303 -1.31033,3.3794 0,1.32317 0.43835,2.42388 1.31532,3.3032 0.87696,0.87984 2.01185,1.32029 3.40589,1.32029 0.89867,0 1.67527,-0.16019 2.32914,-0.47876 0.65334,-0.31882 1.21297,-0.80975 1.68142,-1.47434 l -1.87856,-0.88294 c -0.5992,0.58298 -1.31528,0.87466 -2.14857,0.87466 -0.69701,0 -1.27017,-0.1867 -1.71951,-0.55992 -0.44961,-0.37297 -0.72497,-0.87558 -0.82829,-1.50748 h 7.16301 l 0.009,-0.42409 c 0,-1.4704 -0.44002,-2.65421 -1.31698,-3.55002 -0.87696,-0.89579 -2.01439,-1.34347 -3.41417,-1.34347 z m 21.33326,0 c -1.1589,0 -2.14312,0.43888 -2.95366,1.31532 -0.81079,0.87696 -1.21592,2.00209 -1.21592,3.37442 0,1.32342 0.41795,2.42946 1.25568,3.31977 0.83773,0.8903 1.83058,1.33685 2.97851,1.33685 0.51132,0 0.98656,-0.0924 1.42465,-0.27499 0.43783,-0.1823 0.87347,-0.48052 1.30868,-0.89455 v 0.94093 h 2.23141 v -8.88914 h -2.23141 v 0.98069 c -0.39755,-0.4033 -0.82918,-0.7045 -1.29709,-0.90615 -0.46763,-0.20113 -0.96781,-0.30314 -1.50085,-0.30314 z m -53.00847,1.88683 c 0.57278,0 1.07574,0.15504 1.50913,0.4655 0.4339,0.31045 0.72384,0.71367 0.87136,1.20929 h -4.83551 c 0.25082,-0.55002 0.52384,-0.93345 0.81833,-1.15131 0.46869,-0.34839 1.015,-0.52348 1.63669,-0.52348 z m 31.78621,0 c 0.57277,0 1.07575,0.15504 1.50913,0.4655 0.43389,0.31045 0.72385,0.71367 0.87135,1.20929 h -4.83552 c 0.25083,-0.55002 0.52359,-0.93345 0.81835,-1.15131 0.46869,-0.34839 1.01499,-0.52348 1.63669,-0.52348 z m 10.63184,0.17229 c 0.70538,0 1.28822,0.24006 1.74933,0.71895 0.46163,0.47941 0.69245,1.10541 0.69245,1.87854 0,0.78987 -0.23082,1.42938 -0.69245,1.91665 -0.46111,0.48752 -1.04064,0.73055 -1.74105,0.73055 -0.6782,0 -1.25057,-0.24817 -1.71455,-0.7438 -0.46425,-0.49564 -0.69576,-1.12748 -0.69576,-1.89511 0,-0.76241 0.22802,-1.38772 0.68416,-1.87524 0.45587,-0.48726 1.02816,-0.73054 1.71787,-0.73054 z m 11.04433,0 c 0.70565,0 1.28987,0.24006 1.75098,0.71895 0.46137,0.47941 0.6908,1.10541 0.6908,1.87854 0,0.78987 -0.22943,1.42938 -0.6908,1.91665 -0.46111,0.48752 -1.04228,0.73055 -1.7427,0.73055 -0.67819,0 -1.25031,-0.24817 -1.71456,-0.7438 -0.46424,-0.49564 -0.69575,-1.12748 -0.69575,-1.89511 0,-0.76241 0.22829,-1.38772 0.68416,-1.87524 0.45614,-0.48726 1.02843,-0.73054 1.71787,-0.73054 z m 11.04432,0 c 0.70565,0 1.2899,0.24006 1.75099,0.71895 0.46137,0.47941 0.69246,1.10541 0.69246,1.87854 0,0.78987 -0.23108,1.42938 -0.69246,1.91665 -0.46109,0.48752 -1.04228,0.73055 -1.7427,0.73055 -0.67844,0 -1.24865,-0.24817 -1.71289,-0.7438 -0.4645,-0.49564 -0.69741,-1.12748 -0.69741,-1.89511 0,-0.76241 0.22802,-1.38772 0.68417,-1.87524 0.45613,-0.48726 1.02868,-0.73054 1.71784,-0.73054 z"
         id="path554-0" />
    </g>
  </g>
</svg>
