<?xml version="1.0" encoding="UTF-8" standalone="no"?>
<svg
   xmlns:dc="http://purl.org/dc/elements/1.1/"
   xmlns:cc="http://creativecommons.org/ns#"
   xmlns:rdf="http://www.w3.org/1999/02/22-rdf-syntax-ns#"
   xmlns:svg="http://www.w3.org/2000/svg"
   xmlns="http://www.w3.org/2000/svg"
   id="icon-twitter"
   version="1.1"
   viewBox="0 0 38.091732 38.089664">
  <defs
     id="defs2838" />
  <metadata
     id="metadata2841">
    <rdf:RDF>
      <cc:Work
         rdf:about="">
        <dc:format>image/svg+xml</dc:format>
        <dc:type
           rdf:resource="http://purl.org/dc/dcmitype/StillImage" />
        <dc:title></dc:title>
      </cc:Work>
    </rdf:RDF>
  </metadata>
  <g
     transform="translate(60.623171,-166.83012)"
     id="layer1">
    <g
       id="g2866">
      <path
         id="path286"
         transform="scale(0.26458333)"
         d="m -157.14648,630.53906 c -39.73223,0 -71.98047,32.24573 -71.98047,71.98047 0,39.7324 32.24803,71.98047 71.98047,71.98047 39.73712,0 71.988277,-32.24822 71.988277,-71.98047 0,-39.73459 -32.251377,-71.98047 -71.988277,-71.98047 z m 0,3.54297 c 37.82082,0 68.437496,30.61913 68.437496,68.4375 0,37.81595 -30.616896,68.4375 -68.437496,68.4375 -37.81569,0 -68.4375,-30.6217 -68.4375,-68.4375 0,-37.81822 30.6216,-68.4375 68.4375,-68.4375 z m 14.38476,38.03516 c -9.90032,0 -17.18204,9.24391 -14.94336,18.85351 -12.76078,-0.648 -24.07156,-6.75684 -31.63867,-16.04492 -4.02111,6.90282 -2.08429,15.9336 4.75,20.4961 -2.51289,-0.0805 -4.88268,-0.77064 -6.95117,-1.92188 -0.17008,7.11557 4.92503,13.76384 12.3125,15.24609 -2.16307,0.58636 -4.53257,0.72013 -6.92969,0.26368 1.94324,6.09437 7.61635,10.53572 14.33008,10.65625 -6.44655,5.05889 -14.57286,7.32188 -22.7168,6.35742 6.78698,4.35915 14.85468,6.89843 23.52344,6.89844 28.50021,0 44.60207,-24.06945 43.63281,-45.66211 2.99988,-2.16065 5.59728,-4.86781 7.65625,-7.94336 -2.75399,1.2198 -5.71333,2.04373 -8.8125,2.41015 3.1677,-1.89365 5.59805,-4.90258 6.74219,-8.48633 -2.96209,1.75877 -6.25052,3.03311 -9.74219,3.73047 -2.80131,-2.98809 -6.78986,-4.85351 -11.21289,-4.85351 z" />
    </g>
  </g>
</svg>
