<?xml version="1.0" encoding="UTF-8" standalone="no"?>
<!-- Created with Inkscape (http://www.inkscape.org/) -->

<svg
   xmlns:dc="http://purl.org/dc/elements/1.1/"
   xmlns:cc="http://creativecommons.org/ns#"
   xmlns:rdf="http://www.w3.org/1999/02/22-rdf-syntax-ns#"
   xmlns:svg="http://www.w3.org/2000/svg"
   xmlns="http://www.w3.org/2000/svg"
   xmlns:sodipodi="http://sodipodi.sourceforge.net/DTD/sodipodi-0.dtd"
   xmlns:inkscape="http://www.inkscape.org/namespaces/inkscape"
   version="1.1"
   id="svg2"
   xml:space="preserve"
   width="2288.9199"
   height="1897.48"
   viewBox="0 0 2288.9199 1897.48"
   sodipodi:docname="ventana modal conozca.svg"
   inkscape:version="0.92.5 (2060ec1f9f, 2020-04-08)"><metadata
     id="metadata8"><rdf:RDF><cc:Work
         rdf:about=""><dc:format>image/svg+xml</dc:format><dc:type
           rdf:resource="http://purl.org/dc/dcmitype/StillImage" /><dc:title></dc:title></cc:Work></rdf:RDF></metadata><defs
     id="defs6"><clipPath
       clipPathUnits="userSpaceOnUse"
       id="clipPath18"><path
         d="M 0,1423.113 H 1716.687 V 0 H 0 Z"
         id="path16"
         inkscape:connector-curvature="0" /></clipPath><clipPath
       clipPathUnits="userSpaceOnUse"
       id="clipPath26"><path
         d="M 212.524,1201.5 H 1503.52 V 67.5 H 212.524 Z"
         id="path24"
         inkscape:connector-curvature="0" /></clipPath><clipPath
       clipPathUnits="userSpaceOnUse"
       id="clipPath84"><path
         d="M 0,1423.113 H 1716.687 V 0 H 0 Z"
         id="path82"
         inkscape:connector-curvature="0" /></clipPath><clipPath
       clipPathUnits="userSpaceOnUse"
       id="clipPath108"><path
         d="M 0,1423.113 H 1716.687 V 0 H 0 Z"
         id="path106"
         inkscape:connector-curvature="0" /></clipPath></defs><sodipodi:namedview
     pagecolor="#ffffff"
     bordercolor="#666666"
     borderopacity="1"
     objecttolerance="10"
     gridtolerance="10"
     guidetolerance="10"
     inkscape:pageopacity="0"
     inkscape:pageshadow="2"
     inkscape:window-width="1366"
     inkscape:window-height="652"
     id="namedview4"
     showgrid="false"
     inkscape:zoom="0.28480184"
     inkscape:cx="1149.7442"
     inkscape:cy="786.6629"
     inkscape:window-x="0"
     inkscape:window-y="27"
     inkscape:window-maximized="1"
     inkscape:current-layer="g10" /><g
     id="g10"
     inkscape:groupmode="layer"
     inkscape:label="1.ventana modal conozca"
     transform="matrix(1.3333333,0,0,-1.3333333,0,1897.48)"><g
       id="g12"><g
         id="g14"
         clip-path="url(#clipPath18)"><g
           id="g20"><g
             id="g22" /><g
             id="g34"><g
               clip-path="url(#clipPath26)"
               id="g32"
               style="opacity:0.80000299"><g
                 transform="translate(1503.5244,85.6646)"
                 id="g30"><path
                   d="M 0,0 C 0,-9.57 -8.383,-18.165 -20.156,-18.165 H -1268.313 C -1280.087,-18.165 -1291,-9.57 -1291,0 v 1099.392 c 0,9.567 10.913,16.443 22.687,16.443 H -20.156 c 11.773,0 20.156,-6.876 20.156,-16.443 z"
                   style="fill:#008186;fill-opacity:1;fill-rule:nonzero;stroke:none"
                   id="path28"
                   inkscape:connector-curvature="0" /></g></g></g></g></g></g><text
       transform="matrix(1,0,0,-1,412.1816,979.2334)"
       style="font-variant:normal;font-weight:normal;font-stretch:normal;font-size:32px;font-family:'Myriad Pro';-inkscape-font-specification:MyriadPro-Regular;writing-mode:lr-tb;fill:#ffffff;fill-opacity:1;fill-rule:nonzero;stroke:none"
       id="text68"><tspan
         x="0 15.744 23.296 35.023998 49.360001 64.783997 82.543999 96.6912 112.7232 123.1872 134.9312 152.9792 169.0112 180.7392 207.4272 222.8512 249.5392 264.9632 276.68799 291.85599 307.12 322.54401 340.30399 354 369.42401 387.47198 405.04001 416.76801 430.91199 448.48001 475.168 493.37601 503.52319 521.09119 547.77917 563.81122 574.21118 590.24323 601.96802 617.39203 624.94397 636.68799 651.02399 666.448 684.20801 698.35199 714.38397 724.84802 736.59198 754.64001 770.672 782.40002 809.08801 824.51202 851.20001 866.62402 878.35199 885.90399 903.47198 917.80798 933.23199 940.784 967.47198 983.50403 1001.136 1011.536 1027.568"
         y="0"
         sodipodi:role="line"
         id="tspan36">El cáncer de mama avanzado compromete al cáncer de mama localmente </tspan><tspan
         x="0 15.168 30.431999 45.855999 63.616001 77.311996 92.736 110.784 128.35201 136.064 143.552 161.312 178.88 197.088 213.12 223.424 238.84801 257.056 264.608 280.64001 288.35199 306.39999 322.43201 330.14401 337.63199 355.392 362.88 377.216 384.70401 402.272 409.98401 418.68481 437.02081 452.44479 470.2048 484.34879 500.3808 510.84479 518.55682 536.6048 552.63678 560.34882 586.2688 601.69281 628.3808 643.80481 651.51678 667.2608 679.9328 690.52478 705.94879 723.99683 731.4848 749.0528 756.76477 764.41278 772.06079 779.7088 797.21283 807.4848 826.58881 835.67682 843.38879 858.46082 866.17279 882.20477 889.75677 897.46881 911.80481 927.22882 944.98877 959.13281 975.16479 985.62878 993.34082 1011.3888 1027.4208"
         y="38.400002"
         sodipodi:role="line"
         id="tspan38">avanzado inoperable de inicio (Cáncer de Mama Estadio IIIB-C) y el cáncer de </tspan><tspan
         x="0 26.688 42.112 68.800003 84.223999 91.008003 117.696 133.728 144.32001 159.744 172.416 183.008 198.43201 211.104 218.592 232.73599 250.304 257.08801 265.78879 284.12799 299.552 317.31201 331.45279 347.4848 357.94879 364.73279 382.78079 398.81281 405.5968 431.51682 446.9408 473.62881 489.0528 495.83679 511.58081 524.25281 534.84479 550.2688 568.31677 575.80481 593.3728 600.1568 607.80481 627.42078 636.50879 643.13281"
         y="76.800003"
         sodipodi:role="line"
         id="tspan40">mama metastásico (Cáncer de Mama Estadio IV). </tspan><tspan
         x="0 15.744 23.296 30.08 44.416 59.84 77.599998 91.744003 107.776 118.24 125.024 132.576 150.144 164.48 179.90401 187.45599 214.144 230.17599 247.808 258.20801 274.23999 281.02399 296.19199 311.45279 326.8768 344.63681 358.33279 373.75681 391.80481 409.3728 416.1568 434.2048 450.23679 457.02081 483.7088 499.13281 525.8208 541.24481 548.02881 555.51678 573.27679 590.84479 609.0528 625.08478 635.38562 650.80957 669.01758 676.56958 692.60162 699.38562 717.43359 733.46558 740.24957 747.73761 765.49762 772.9856 787.32159 794.80957 811.60962 818.23358 825.01758 837.68958 853.72162 860.50562 878.55359 894.58557 911.32159 929.0816 945.11359 951.89758 966.04163 983.60962 1010.2976 1027.8656"
         y="153.60001"
         sodipodi:role="line"
         id="tspan42">El cáncer localmente avanzado de mama inoperable de inicio, se defne como </tspan><tspan
         x="0 16.032 23.584 35.296001 49.632 65.056 82.816002 96.959999 112.992 123.456 135.168 153.18401 170.81599 186.84801 198.56 211.23199 227.26401 238.976 256.73599 272.16 283.87201 299.80481 315.0368 325.4368 341.46881 359.22879 377.27679 384.7648 402.81281 420.3808 432.0928 447.51682 459.22879 469.62881 485.6608 493.4368 500.9248 518.97278 536.54077 549.21283 560.9248 578.4928 590.20477 608.09277 623.51678 641.27679 659.16479 666.7168 674.20477 691.77283 704.44482 716.1568 723.7088 731.19678 748.95679 758.30078 773.5968 784.18878 791.67682 805.8208 823.38879 836.06079 847.77283 861.91681 877.94879 888.09277 902.42877 917.85278 935.61279 953.18079 965.85278 977.56482 992.98877 1004.7008 1012.2528 1027.6768"
         y="192"
         sodipodi:role="line"
         id="tspan44">el cáncer que se ha extendido a tejidos o ganglios linfáticos cercanos a la </tspan><tspan
         x="0 26.688 42.112 68.800003 84.223999 90.848 107.4816 125.6896 141.7216 151.8656 169.43359 186.064 203.82401 221.392 238.0224 250.6944 266.72641 283.35681 301.11679 316.5408 333.17441 351.22241 358.71039 371.38239 387.4144 414.10239 421.59039 439.3504 454.77441 472.82239 490.39041 507.02081 522.44482 539.0752 557.12323 564.61121 577.2832 587.87518 603.29919 621.0592 635.3952 642.88318 658.30719 674.93762 693.14563 710.71362 721.17761 737.80798 753.84003 761.39203 778.02557 792.36157 809.99359 826.02557 836.61761 854.82562 871.62561 878.24957 894.88 914.36798 932.57599 948 958.14398 972.47998 987.90399 1004.5376 1012.0896 1027.5135"
         y="230.39999"
         sodipodi:role="line"
         id="tspan46">mama, pero no se ha diseminado a distancia por el cuerpo. Abarca la </tspan><tspan
         x="0 16.032 33.792 42.720001 58.751999 69.344002 96.031998 112.064 130.112 145.536 163.584 171.616 187.64799 205.408 213.44 229.472 242.144 252.73599 268.16 286.20801 293.69601 311.26401 319.29599 326.944 334.59201 342.23999 359.74399 369.56799 377.216 384.86401 392.51199 411.07199 417.69601 425.728 443.74399 461.37601 477.40799 485.44 492.92801 519.61603 537.82397 545.37598 552.86401 567.20001 582.62402 590.65601 601.24799 618.88 645.56799 663.13599 673.59998 681.63202 697.664 715.42401 723.45599 750.14398 765.56799 792.25598 807.67999 815.71198 829.85602 847.42401 865.18402 873.216 889.15198 904.38397 914.784 930.81598 948.57599 961.24799 968.73602 986.30402 1004.064 1012.096 1027.52"
         y="268.79999"
         sodipodi:role="line"
         id="tspan48">enfermedad en estadio IIIB-IIIC, que implica tumor en mama con extensión a </tspan><tspan
         x="0 7.552 22.976 30.112 48.32 63.743999 73.888 89.919998 107.968 115.104 125.5072 143.0752 153.3792 168.80321 183.13921 190.6272 204.9632 220.38721 227.52319 245.0912 252.2272 259.77921 275.20319 282.3392 300.54721 308.03519 324.0672 331.6192 338.75519 346.24319 364.0032 382.05121 398.08319 416.2912 432.32321 450.08319 468.1312 475.6192 491.65121 509.2832 519.68323 535.71521 562.4032 578.43518 596.0672 606.46722 622.49921 629.63519 647.68323 663.71521 671.26721 678.4032 694.43518 707.10718 717.69922 733.12323 751.1712 768.7392 775.87518 793.76318 809.18719 826.9472 844.83521 852.38721 859.87518 877.44318 895.20319 910.6272 921.09119 928.22717 938.8512 954.75519 971.1712 980.25922 986.88318 994.01923 1009.7632 1027.5232"
         y="307.20001"
         sodipodi:role="line"
         id="tspan50">la pared torácica o la piel independientemente del estado ganglionar (T4). En </tspan><tspan
         x="0 16.032 28.704 39.104 55.136002 61.919998 79.615997 90.080002 107.712 125.92 143.48801 150.272 162.944 178.976 185.75999 193.248 211.008 225.34399 232.896 250.528 265.2832 281.31519 288.09921 304.1312 311.6832 318.46719 336.80319 352.2272 369.98721 384.12799 400.16 410.62399 417.40799 435.45599 451.48801 458.272 484.19199 499.616 526.30402 541.72803 548.51202 556.47998 574.23999 590.97601 606.40002 633.08801 648.38397 658.784 676.35199 686.94397 694.43201 712 718.784 729.40479 745.30878 761.72479 779.77283 788.86078"
         y="345.60001"
         sodipodi:role="line"
         id="tspan52">este grupo se incluye el Cáncer de Mama Infamatorio (T4d).</tspan><tspan
         x="0 15.744 23.296 30.368 44.703999 60.127998 77.888 92.031998 108.064 118.528 125.6 143.64799 159.67999 166.752 193.44 208.864 235.552 250.976 258.048 284.73599 300.76801 311.35999 326.784 339.45599 350.048 365.47198 378.14401 385.63199 399.776 417.34399 424.41599 441.98401 449.056 461.728 477.76001 492.09601 509.728 527.48798 545.53601 560.96002 571.552 579.03998 595.84003 602.46399 609.53601 625.56799 638.23999 645.31201 660.73602 678.75201 696.38397 712.41602 719.96802 727.03998 745.05603 762.68799 778.71997 785.79199 798.46399 814.49597 821.56799 839.328 854.75201 861.82397 877.76001 892.57599 910.784 926.20801 943.96802 962.01599 969.50403 987.552 1005.12 1012.192 1027.616"
         y="422.39999"
         sodipodi:role="line"
         id="tspan54">El cáncer de mama metastásico o secundario, es aquel que se ha expandido a </tspan><tspan
         x="0 17.568001 28.16 38.464001 53.888 66.559998 74.400002 92.608002 108.032 119.264 129.664 145.696 158.368 166.20799 184.256 200.28799 207.84 215.67999 230.01601 247.64799 263.67999 274.272 292.48001 309.28 315.90399 323.74399 338.84799 354.272 366.944 374.784 382.336 399.90399 414.23999 429.664 437.216 444.70401 458.39999 473.82401 488.16 495.64801 513.216 530.97601 547.008 559.67999 567.52002 594.20801 609.63202 622.30402 630.14398 644.28802 661.85602 688.54401 706.17603 723.93597 739.96802 752.64001 760.47998 776.51202 794.27197 802.112 809.664 825.08801 837.76001 845.59998 863.61603 881.24799 897.28003 905.12 917.79199 933.82397 941.664 959.87201 977.50403 993.53601 1011.584 1027.616"
         y="460.79999"
         sodipodi:role="line"
         id="tspan56">otras partes del cuerpo. Las localizaciones más comunes en las que se puede </tspan><tspan
         x="0 18.048 34.080002 44.48 60.512001 75.264 85.856003 101.28 111.744 124.32 140.35201 147.90401 160.48 174.81599 190.24001 208 222.144 238.17599 248.64 261.216 279.26401 295.29599 307.87201 334.56 349.98401 376.672 392.09601 404.672 431.35999 447.392 457.98401 473.40799 486.07999 496.672 512.09601 524.76801 532.25598 546.40002 563.96802 576.54401 589.216 606.784 624.54401 637.12 644.672 662.23999 674.91199 687.48798 705.24799 722.88 738.91199 751.58398 769.15198 781.47198 788.09601 800.672 808.224 825.79199 838.46399 851.03998 869.24799 886.88 894.43201 921.12 938.68799 956.448 972.47998 984.79999 991.42401 1004 1020.032 1027.584"
         y="499.20001"
         sodipodi:role="line"
         id="tspan58">detectar el cáncer de mama metastásico son los huesos, los pulmones, el </tspan><tspan
         x="0 17.76 25.247999 43.136002 58.560001 76.608002 94.176003 100.96 116.032 122.816 138.84801 146.39999 153.18401 167.328 183.36 193.504 209.536 227.744 237.888 254.688"
         y="537.59998"
         sodipodi:role="line"
         id="tspan60">hígado y el cerebro.</tspan><tspan
         x="0 20.672001 38.304001 45.792 61.216 73.888 80.671997 98.720001 114.752 121.536 139.87199 155.29601 173.056 187.2 203.23199 213.696 220.48 239.392 254.65601 270.07999 287.84 301.53601 316.95999 335.008 352.57599 359.35999 377.40799 393.44 400.224 426.14401 441.56799 468.25601 483.67999 490.46399 499.20001 518.784 536.12799 555.23199 564.32001 570.94397"
         y="652.79999"
         sodipodi:role="line"
         id="tspan62">Guías de Cáncer Avanzado de Mama (ABC). </tspan><tspan
         x="0 17.632 28.224001 38.816002 57.023998 69.695999 76.32 87.295998 98.272003 122.208 146.144 168.44479 175.0688 190.4928 208.70081 223.0368 240.9248 248.47681 266.0448 284.25281 299.67679 307.22879 322.6528 330.2048 337.75681 345.24481 360.66879 378.4288 392.56961 408.21759 414.84161 432.40961 442.61761 460.50562 471.4816 486.90561 505.11359 519.60962 530.00958 544.15039 561.71838 579.47839 588.40637 604.43842 614.5824 630.61438 648.37439 662.5152 679.44318 689.71521 707.60321 725.23523 732.72321 750.77118 766.80322 774.35522 781.8432 799.60321 815.63519 828.30719"
         y="691.20001"
         sodipodi:role="line"
         id="tspan64">https://www.abcglobalalliance.org/abc-conference-guidelines/</tspan><tspan
         x="0 18.336 33.759998 51.52 65.664001 81.695999 92.160004 98.944 114.016 120.8 139.008 156.576 166.72321 184.2912 202.05119 217.21919 232.61121 240.0992 250.5632 268.19519 280.5152 287.13919 293.92319 311.26721 327.29919 341.63519 359.26721 369.7312 382.4032 399.97119 412.64319 419.42719 440.7392 448.2272 460.8992 479.10721 496.6752 514.43518 521.92322 540.13123 547.68323 563.71521 576.38721"
         y="768"
         sodipodi:role="line"
         id="tspan66">Cáncer y Coronavirus. Recursos Disponibles </tspan></text>
<text
       transform="matrix(1,0,0,-1,412.1816,177.6338)"
       style="font-variant:normal;font-weight:normal;font-stretch:normal;font-size:28px;font-family:'Myriad Pro';-inkscape-font-specification:MyriadPro-Regular;writing-mode:lr-tb;fill:#ffffff;fill-opacity:1;fill-rule:nonzero;stroke:none"
       id="text72"><tspan
         x="0 15.428 24.695999 33.964001 49.896 60.984001 66.779999 76.384003 85.987999 106.932 127.876 147.38921 153.1852 168.6132 175.16521 187.5412 199.80521 205.6012 220.97321 229.908 245.56 255.164 264.04001 278.06799 289.15601 304.52802 319.95599 328.832 341.20801 355.23599 366.32401 375.92801 389.42401 401.79999 414.17599 428.20401 439.29199 450.38 458.97601 472.47198 479.07999 485.68799 494.284 503.16 517.18799 528.276 543.64801 559.07599 567.95203 580.328 594.35602 605.44397 615.04797 627.59198 641.08801 656.62799 669.00677 683.03479 692.05078 700.64679 714.14282 729.6828 745.47479 754.57483 766.95081 782.32281 791.19879 806.5708 822.11078 835.38281 848.85083 855.40277 864.55878 879.98682 891.07483 899.67078 908.54681 922.57483 933.66278 949.03479 964.46283 973.33881 985.71478 999.7428"
         y="0"
         sodipodi:role="line"
         id="tspan70">https://www.uicc.org/resources/access-all-resources/cancer-and-coronavirus-resources</tspan></text>
<text
       transform="matrix(1,0,0,-1,518.7314,1061.8271)"
       style="font-variant:normal;font-weight:bold;font-stretch:normal;font-size:45px;font-family:'Century Gothic';-inkscape-font-specification:CenturyGothic-Bold;writing-mode:lr-tb;fill:#ffffff;fill-opacity:1;fill-rule:nonzero;stroke:none"
       id="text76"><tspan
         x="0 35.099998 64.800003 91.800003 120.6 149.39999 163.8 176.39999 206.10001 234.89999 247.5 288 317.70001 360 389.70001 402.29999 435.60001 460.79999 490.5 517.5 538.20001 567.90002 597.59998"
         y="0"
         sodipodi:role="line"
         id="tspan74">Cáncer de Mama Avanzado</tspan></text>
<g
       id="g102"><g
         id="g104"
         clip-path="url(#clipPath108)"><g
           id="g110"
           transform="translate(376.625,965.1821)"><path
             d="m 0,0 c 0,-24.931 -20.211,-45.144 -45.145,-45.144 -24.933,0 -45.144,20.213 -45.144,45.144 0,24.932 20.211,45.145 45.144,45.145 C -20.211,45.145 0,24.932 0,0"
             style="fill:#76ce76;fill-opacity:1;fill-rule:nonzero;stroke:none"
             id="path112"
             inkscape:connector-curvature="0" /></g><g
           id="g114"
           transform="translate(363.2578,986.9561)"><path
             d="m 0,0 c -2.11,2.113 -5.535,2.116 -7.648,0.006 l -31.244,-31.197 -14.594,15.73 c -2.032,2.19 -5.453,2.317 -7.643,0.286 -2.189,-2.032 -2.318,-5.454 -0.286,-7.643 l 17.187,-18.525 c 0.263,-0.611 0.639,-1.184 1.137,-1.683 1.473,-1.475 3.583,-1.919 5.443,-1.338 0.871,0.21 1.702,0.636 2.405,1.289 0.394,0.366 0.719,0.778 0.979,1.219 L -0.006,-7.648 C 2.108,-5.538 2.11,-2.113 0,0"
             style="fill:#ffffff;fill-opacity:1;fill-rule:nonzero;stroke:none"
             id="path116"
             inkscape:connector-curvature="0" /></g><g
           id="g118"
           transform="translate(376.625,801.1821)"><path
             d="m 0,0 c 0,-24.931 -20.211,-45.144 -45.145,-45.144 -24.933,0 -45.144,20.213 -45.144,45.144 0,24.932 20.211,45.145 45.144,45.145 C -20.211,45.145 0,24.932 0,0"
             style="fill:#bb5996;fill-opacity:1;fill-rule:nonzero;stroke:none"
             id="path120"
             inkscape:connector-curvature="0" /></g><g
           id="g122"
           transform="translate(363.2578,822.9561)"><path
             d="m 0,0 c -2.11,2.113 -5.535,2.116 -7.648,0.006 l -31.244,-31.197 -14.594,15.73 c -2.032,2.19 -5.453,2.317 -7.643,0.286 -2.189,-2.032 -2.318,-5.454 -0.286,-7.643 l 17.187,-18.525 c 0.263,-0.611 0.639,-1.184 1.137,-1.683 1.473,-1.475 3.583,-1.919 5.443,-1.338 0.871,0.21 1.702,0.636 2.405,1.289 0.394,0.366 0.719,0.778 0.979,1.219 L -0.006,-7.648 C 2.108,-5.538 2.11,-2.113 0,0"
             style="fill:#ffffff;fill-opacity:1;fill-rule:nonzero;stroke:none"
             id="path124"
             inkscape:connector-curvature="0" /></g><g
           id="g126"
           transform="translate(376.625,547.1821)"><path
             d="m 0,0 c 0,-24.931 -20.211,-45.144 -45.145,-45.144 -24.933,0 -45.144,20.213 -45.144,45.144 0,24.932 20.211,45.145 45.144,45.145 C -20.211,45.145 0,24.932 0,0"
             style="fill:#fcbdd4;fill-opacity:1;fill-rule:nonzero;stroke:none"
             id="path128"
             inkscape:connector-curvature="0" /></g><g
           id="g130"
           transform="translate(363.2578,568.9561)"><path
             d="m 0,0 c -2.11,2.113 -5.535,2.116 -7.648,0.006 l -31.244,-31.197 -14.594,15.73 c -2.032,2.19 -5.453,2.317 -7.643,0.286 -2.189,-2.032 -2.318,-5.454 -0.286,-7.643 l 17.187,-18.525 c 0.263,-0.611 0.639,-1.184 1.137,-1.683 1.473,-1.475 3.583,-1.919 5.443,-1.338 0.871,0.21 1.702,0.636 2.405,1.289 0.394,0.366 0.719,0.778 0.979,1.219 L -0.006,-7.648 C 2.108,-5.538 2.11,-2.113 0,0"
             style="fill:#ffffff;fill-opacity:1;fill-rule:nonzero;stroke:none"
             id="path132"
             inkscape:connector-curvature="0" /></g></g></g></g></svg>