<?xml version="1.0" encoding="UTF-8" standalone="no"?>
<svg
   xmlns:dc="http://purl.org/dc/elements/1.1/"
   xmlns:cc="http://creativecommons.org/ns#"
   xmlns:rdf="http://www.w3.org/1999/02/22-rdf-syntax-ns#"
   xmlns:svg="http://www.w3.org/2000/svg"
   xmlns="http://www.w3.org/2000/svg"
   id="svg7147"
   version="1.1"
   viewBox="0 0 100 100"
   height="100mm"
   width="100mm">
  <defs
     id="defs7141" />
  <metadata
     id="metadata7144">
    <rdf:RDF>
      <cc:Work
         rdf:about="">
        <dc:format>image/svg+xml</dc:format>
        <dc:type
           rdf:resource="http://purl.org/dc/dcmitype/StillImage" />
        <dc:title></dc:title>
      </cc:Work>
    </rdf:RDF>
  </metadata>
  <g
     transform="translate(1.851075,-151.98192)"
     id="layer1">
    <g
       id="g7116"
       transform="matrix(1.8743791,0,0,-1.8743791,-1853.8156,699.39621)">
      <path
         d="m 1041.3926,265.375 c 0,-14.73 -11.942,-26.675 -26.675,-26.675 -14.734,0 -26.676,11.945 -26.676,26.675 0,14.731 11.942,26.676 26.676,26.676 14.733,0 26.675,-11.945 26.675,-26.676"
         style="fill:#ffffff;fill-opacity:1;fill-rule:nonzero;stroke:none"
         id="path1020" />
      <path
         id="path1030"
         style="fill:#4d4d4d;fill-opacity:1;fill-rule:evenodd;stroke:none"
         d="m 998.417,265.3076 c 1.594,-1.331 3.061,-2.667 4.637,-3.86 2.903,-2.202 6.116,-3.827 9.766,-4.286 7.763,-0.976 13.452,2.803 18.58,8.284 -1.488,1.346 -2.825,2.7 -4.309,3.871 -3.688,2.898 -7.838,4.691 -12.615,4.431 -6.551,-0.356 -11.466,-3.93 -16.059,-8.44 m 35.561,-0.355 c -2.827,-3.624 -6.223,-6.572 -10.43,-8.473 -6.174,-2.794 -12.264,-2.423 -18.209,0.712 -3.718,1.959 -6.874,4.648 -9.678,7.761 v 0.85 c 3.423,3.769 7.283,6.965 12.066,8.851 6.827,2.696 13.252,1.675 19.299,-2.316 2.694,-1.773 4.955,-4.011 6.952,-6.535 z" />
      <path
         id="path1034"
         style="fill:none;stroke:#4d4d4d;stroke-width:0.5;stroke-linecap:butt;stroke-linejoin:miter;stroke-miterlimit:10;stroke-dasharray:none;stroke-opacity:1"
         d="m 998.417,265.3076 c 1.594,-1.331 3.061,-2.667 4.637,-3.86 2.903,-2.202 6.116,-3.827 9.766,-4.286 7.763,-0.976 13.452,2.803 18.58,8.284 -1.488,1.346 -2.825,2.7 -4.309,3.871 -3.688,2.898 -7.838,4.691 -12.615,4.431 -6.551,-0.356 -11.466,-3.93 -16.059,-8.44 z m 35.561,-0.355 c -2.827,-3.624 -6.223,-6.572 -10.43,-8.473 -6.174,-2.794 -12.264,-2.423 -18.209,0.712 -3.718,1.959 -6.874,4.648 -9.678,7.761 v 0.85 c 3.423,3.769 7.283,6.965 12.066,8.851 6.827,2.696 13.252,1.675 19.299,-2.316 2.694,-1.773 4.955,-4.011 6.952,-6.535 z" />
      <path
         id="path1038"
         style="fill:#4d4d4d;fill-opacity:1;fill-rule:evenodd;stroke:none"
         d="m 1014.8398,270.1982 c -2.579,0.016 -4.815,-2.168 -4.845,-4.728 -0.03,-2.638 2.117,-4.863 4.75,-4.912 2.601,-0.049 4.904,2.198 4.895,4.772 -0.01,2.645 -2.185,4.853 -4.8,4.868 m -0.065,-11.983 c -3.987,0.021 -7.122,3.214 -7.12,7.246 0.01,3.912 3.247,7.101 7.198,7.079 3.982,-0.022 7.136,-3.227 7.128,-7.245 -0.01,-3.903 -3.259,-7.098 -7.206,-7.08" />
      <path
         id="path1042"
         style="fill:none;stroke:#4d4d4d;stroke-width:0.5;stroke-linecap:butt;stroke-linejoin:miter;stroke-miterlimit:10;stroke-dasharray:none;stroke-opacity:1"
         d="m 1014.8398,270.1982 c -2.579,0.016 -4.815,-2.168 -4.845,-4.728 -0.03,-2.638 2.117,-4.863 4.75,-4.912 2.601,-0.049 4.904,2.198 4.895,4.772 -0.01,2.645 -2.185,4.853 -4.8,4.868 z m -0.065,-11.983 c -3.987,0.021 -7.122,3.214 -7.12,7.246 0.01,3.912 3.247,7.101 7.198,7.079 3.982,-0.022 7.136,-3.227 7.128,-7.245 -0.01,-3.903 -3.259,-7.098 -7.206,-7.08 z" />
      <path
         id="path1046"
         style="fill:#4d4d4d;fill-opacity:1;fill-rule:evenodd;stroke:none"
         d="m 1011.3281,265.3398 c 0.628,0 1.195,0.037 1.754,-0.02 0.221,-0.025 0.497,-0.214 0.611,-0.41 0.308,-0.52 0.753,-0.897 1.304,-0.681 0.406,0.156 0.905,0.615 0.958,0.998 0.051,0.378 -0.398,0.827 -0.637,1.24 -0.145,0.26 -0.404,0.498 -0.439,0.769 -0.071,0.524 -0.021,1.065 -0.021,1.586 1.819,0.174 3.394,-1.311 3.505,-3.209 0.122,-2.086 -1.404,-3.75 -3.478,-3.787 -2.008,-0.037 -3.585,1.466 -3.557,3.514" />
      <path
         id="path1050"
         style="fill:none;stroke:#4d4d4d;stroke-width:0.5;stroke-linecap:butt;stroke-linejoin:miter;stroke-miterlimit:10;stroke-dasharray:none;stroke-opacity:1"
         d="m 1011.3281,265.3398 c 0.628,0 1.195,0.037 1.754,-0.02 0.221,-0.025 0.497,-0.214 0.611,-0.41 0.308,-0.52 0.753,-0.897 1.304,-0.681 0.406,0.156 0.905,0.615 0.958,0.998 0.051,0.378 -0.398,0.827 -0.637,1.24 -0.145,0.26 -0.404,0.498 -0.439,0.769 -0.071,0.524 -0.021,1.065 -0.021,1.586 1.819,0.174 3.394,-1.311 3.505,-3.209 0.122,-2.086 -1.404,-3.75 -3.478,-3.787 -2.008,-0.037 -3.585,1.466 -3.557,3.514 z" />
    </g>
  </g>
</svg>
