<?xml version="1.0" encoding="UTF-8" standalone="no"?>
<svg
   xmlns:dc="http://purl.org/dc/elements/1.1/"
   xmlns:cc="http://creativecommons.org/ns#"
   xmlns:rdf="http://www.w3.org/1999/02/22-rdf-syntax-ns#"
   xmlns:svg="http://www.w3.org/2000/svg"
   xmlns="http://www.w3.org/2000/svg"
   xmlns:sodipodi="http://sodipodi.sourceforge.net/DTD/sodipodi-0.dtd"
   xmlns:inkscape="http://www.inkscape.org/namespaces/inkscape"
   viewBox="0 0 100 100"
   version="1.1"
   id="svg-vista"
   sodipodi:docname="vista.svg"
   inkscape:version="0.92.5 (2060ec1f9f, 2020-04-08)">
  <sodipodi:namedview
     pagecolor="#ffffff"
     bordercolor="#666666"
     borderopacity="1"
     objecttolerance="10"
     gridtolerance="10"
     guidetolerance="10"
     inkscape:pageopacity="0"
     inkscape:pageshadow="2"
     inkscape:window-width="1440"
     inkscape:window-height="825"
     id="namedview12"
     showgrid="false"
     inkscape:zoom="2.9849009"
     inkscape:cx="62.552833"
     inkscape:cy="42.177654"
     inkscape:window-x="0"
     inkscape:window-y="0"
     inkscape:window-maximized="1"
     inkscape:current-layer="svg-vista" />
  <defs
     id="defs7141" />
  <metadata
     id="metadata7144">
    <rdf:RDF>
      <cc:Work
         rdf:about="">
        <dc:format>image/svg+xml</dc:format>
        <dc:type
           rdf:resource="http://purl.org/dc/dcmitype/StillImage" />
        <dc:title />
      </cc:Work>
    </rdf:RDF>
  </metadata>
  <g
     id="layer1"
     transform="translate(1.851075,-151.98192)">
    <g
       transform="matrix(1.8743791,0,0,-1.8743791,-1853.8156,699.39621)"
       id="g7116">
      <path
         id="path1020"
         style="fill:#ffffff;fill-opacity:0.78431374;fill-rule:nonzero;stroke:none"
         d="m 1041.3926,265.375 c 0,-14.73 -11.942,-26.675 -26.675,-26.675 -14.734,0 -26.676,11.945 -26.676,26.675 0,14.731 11.942,26.676 26.676,26.676 14.733,0 26.675,-11.945 26.675,-26.676" />
      <path
         id="path1030"
         transform="matrix(0.14115785,0,0,-0.14115785,988.0416,292.051)"
         d="M 192.67383 112.5918 C 175.32922 112.62712 157.59364 116.08585 139.45703 123.24805 C 105.57298 136.60898 78.227963 159.25057 53.978516 185.95117 L 53.978516 191.97266 C 73.842802 214.02598 96.199756 233.07504 122.53906 246.95312 C 164.65503 269.1623 207.79884 271.79149 251.53711 251.99805 C 281.34062 238.53085 305.39856 217.64604 325.42578 191.97266 L 325.42578 185.95117 C 311.2785 168.07048 295.2608 152.2147 276.17578 139.6543 C 249.40168 121.98348 221.58151 112.53292 192.67383 112.5918 z M 193.5625 129.49023 C 224.7727 129.44323 252.14286 141.80957 276.63672 161.05664 C 287.14977 169.35232 296.62072 178.94504 307.16211 188.48047 C 270.83399 227.30934 230.53228 254.08026 175.53711 247.16602 C 149.67953 243.91434 126.91719 232.40229 106.35156 216.80273 C 95.186757 208.3512 84.794276 198.88619 73.501953 189.45703 C 106.03999 157.50698 140.85854 132.18801 187.26758 129.66602 C 189.38267 129.5509 191.48182 129.49337 193.5625 129.49023 z M 189.9375 138.21875 C 161.94756 138.0629 139.01616 160.65549 138.94531 188.36914 C 138.93114 216.93291 161.13979 239.5524 189.38477 239.70117 C 217.34637 239.82869 240.36275 217.19482 240.43359 189.54492 C 240.49027 161.08033 218.14705 138.3746 189.9375 138.21875 z M 189.8457 154.81055 C 208.37106 154.91681 223.77877 170.55899 223.84961 189.29688 C 223.91337 207.53178 207.59805 223.45064 189.17188 223.10352 C 170.519 222.75639 155.30896 206.99299 155.52148 188.30469 C 155.73401 170.16896 171.57538 154.6972 189.8457 154.81055 z M 192.36914 164.4668 C 191.57936 164.45417 190.78 164.48546 189.97461 164.5625 C 189.97461 168.2534 189.62202 172.08472 190.125 175.79688 C 190.37295 177.71671 192.20716 179.40418 193.23438 181.24609 C 194.92751 184.1719 198.10739 187.35144 197.74609 190.0293 C 197.37063 192.74257 193.83715 195.99446 190.96094 197.09961 C 187.05751 198.62981 183.90461 195.95921 181.72266 192.27539 C 180.91505 190.88687 178.96015 189.5482 177.39453 189.37109 C 173.43443 188.96729 169.41767 189.22852 164.96875 189.22852 C 164.77039 203.7371 175.94081 214.38516 190.16602 214.12305 C 204.85879 213.86093 215.66897 202.0727 214.80469 187.29492 C 214.06748 174.68935 204.21581 164.65613 192.36914 164.4668 z "
         style="fill-opacity:1;fill-rule:evenodd;" />
      <path
         d="m 998.417,265.3076 c 1.594,-1.331 3.061,-2.667 4.637,-3.86 2.903,-2.202 6.116,-3.827 9.766,-4.286 7.763,-0.976 13.452,2.803 18.58,8.284 -1.488,1.346 -2.825,2.7 -4.309,3.871 -3.688,2.898 -7.838,4.691 -12.615,4.431 -6.551,-0.356 -11.466,-3.93 -16.059,-8.44 z m 35.561,-0.355 c -2.827,-3.624 -6.223,-6.572 -10.43,-8.473 -6.174,-2.794 -12.264,-2.423 -18.209,0.712 -3.718,1.959 -6.874,4.648 -9.678,7.761 v 0.85 c 3.423,3.769 7.283,6.965 12.066,8.851 6.827,2.696 13.252,1.675 19.299,-2.316 2.694,-1.773 4.955,-4.011 6.952,-6.535 z"
         style="fill:none;"
         id="path1034" />
      <path
         d="m 1014.8398,270.1982 c -2.579,0.016 -4.815,-2.168 -4.845,-4.728 -0.03,-2.638 2.117,-4.863 4.75,-4.912 2.601,-0.049 4.904,2.198 4.895,4.772 -0.01,2.645 -2.185,4.853 -4.8,4.868 z m -0.065,-11.983 c -3.987,0.021 -7.122,3.214 -7.12,7.246 0.01,3.912 3.247,7.101 7.198,7.079 3.982,-0.022 7.136,-3.227 7.128,-7.245 -0.01,-3.903 -3.259,-7.098 -7.206,-7.08 z"
         style="fill:none;"
         id="path1042" />
      <path
         d="m 1011.3281,265.3398 c 0.628,0 1.195,0.037 1.754,-0.02 0.221,-0.025 0.497,-0.214 0.611,-0.41 0.308,-0.52 0.753,-0.897 1.304,-0.681 0.406,0.156 0.905,0.615 0.958,0.998 0.051,0.378 -0.398,0.827 -0.637,1.24 -0.145,0.26 -0.404,0.498 -0.439,0.769 -0.071,0.524 -0.021,1.065 -0.021,1.586 1.819,0.174 3.394,-1.311 3.505,-3.209 0.122,-2.086 -1.404,-3.75 -3.478,-3.787 -2.008,-0.037 -3.585,1.466 -3.557,3.514 z"
         style="fill:none;"
         id="path1050" />
    </g>
  </g>
</svg>
